%TF.GenerationSoftware,KiCad,Pcbnew,5.1.6-c6e7f7d~87~ubuntu18.04.1*%
%TF.CreationDate,2020-10-31T16:04:03+00:00*%
%TF.ProjectId,CirrusDspPedal,43697272-7573-4447-9370-506564616c2e,rev?*%
%TF.SameCoordinates,Original*%
%TF.FileFunction,Legend,Bot*%
%TF.FilePolarity,Positive*%
%FSLAX46Y46*%
G04 Gerber Fmt 4.6, Leading zero omitted, Abs format (unit mm)*
G04 Created by KiCad (PCBNEW 5.1.6-c6e7f7d~87~ubuntu18.04.1) date 2020-10-31 16:04:03*
%MOMM*%
%LPD*%
G01*
G04 APERTURE LIST*
%ADD10C,0.120000*%
%ADD11C,0.150000*%
%ADD12C,0.125000*%
G04 APERTURE END LIST*
D10*
%TO.C,L1*%
X140073748Y-117146000D02*
X140596252Y-117146000D01*
X140073748Y-118566000D02*
X140596252Y-118566000D01*
%TO.C,K1*%
X148644500Y-128326000D02*
X145044500Y-128326000D01*
X152244500Y-139226000D02*
X145044500Y-139226000D01*
%TO.C,J6*%
X172365000Y-65664000D02*
X172365000Y-61214000D01*
X172365000Y-59814000D02*
X172365000Y-57514000D01*
X172365000Y-56114000D02*
X172365000Y-55394000D01*
X172365000Y-55394000D02*
X175045000Y-55394000D01*
X177345000Y-55394000D02*
X181015000Y-55394000D01*
X183315000Y-55394000D02*
X184545000Y-55394000D01*
X184545000Y-55394000D02*
X184545000Y-65214000D01*
X173845000Y-67034000D02*
X174705000Y-67034000D01*
D11*
%TO.C,J5*%
X204343000Y-71120000D02*
X204343000Y-86360000D01*
X204343000Y-86360000D02*
X182753000Y-86360000D01*
X182753000Y-86360000D02*
X182753000Y-71120000D01*
X182753000Y-71120000D02*
X204343000Y-71120000D01*
D10*
%TO.C,J4*%
X107453000Y-83848000D02*
X107453000Y-81248000D01*
X92753000Y-83848000D02*
X107453000Y-83848000D01*
X107453000Y-74648000D02*
X105553000Y-74648000D01*
X107453000Y-77348000D02*
X107453000Y-74648000D01*
X92753000Y-74648000D02*
X92753000Y-83848000D01*
X101553000Y-74648000D02*
X92753000Y-74648000D01*
X106603000Y-84048000D02*
X107653000Y-84048000D01*
X107653000Y-82998000D02*
X107653000Y-84048000D01*
D11*
%TO.C,J2*%
X92583000Y-106680000D02*
X92583000Y-91440000D01*
X92583000Y-91440000D02*
X114173000Y-91440000D01*
X114173000Y-91440000D02*
X114173000Y-106680000D01*
X114173000Y-106680000D02*
X92583000Y-106680000D01*
%TO.C,J1*%
X204343000Y-91440000D02*
X204343000Y-106680000D01*
X204343000Y-106680000D02*
X182753000Y-106680000D01*
X182753000Y-106680000D02*
X182753000Y-91440000D01*
X182753000Y-91440000D02*
X204343000Y-91440000D01*
D10*
%TO.C,C33*%
X159392252Y-111009500D02*
X158869748Y-111009500D01*
X159392252Y-109589500D02*
X158869748Y-109589500D01*
%TO.C,C22*%
X152325000Y-125991252D02*
X152325000Y-125468748D01*
X153745000Y-125991252D02*
X153745000Y-125468748D01*
%TO.C,C21*%
X145340000Y-105671252D02*
X145340000Y-105148748D01*
X146760000Y-105671252D02*
X146760000Y-105148748D01*
%TO.C,C20*%
X148665000Y-125468748D02*
X148665000Y-125991252D01*
X147245000Y-125468748D02*
X147245000Y-125991252D01*
%TO.C,C19*%
X156285000Y-125468748D02*
X156285000Y-125991252D01*
X154865000Y-125468748D02*
X154865000Y-125991252D01*
%TO.C,C18*%
X140596252Y-112470000D02*
X140073748Y-112470000D01*
X140596252Y-111050000D02*
X140073748Y-111050000D01*
%TO.C,C13*%
X102496252Y-113740000D02*
X101973748Y-113740000D01*
X102496252Y-112320000D02*
X101973748Y-112320000D01*
%TO.C,C11*%
X114673748Y-109780000D02*
X115196252Y-109780000D01*
X114673748Y-111200000D02*
X115196252Y-111200000D01*
%TO.C,C10*%
X114673748Y-112955000D02*
X115196252Y-112955000D01*
X114673748Y-114375000D02*
X115196252Y-114375000D01*
%TO.C,C3*%
X184792252Y-127202000D02*
X184269748Y-127202000D01*
X184792252Y-125782000D02*
X184269748Y-125782000D01*
%TO.C,C2*%
X196207748Y-124766000D02*
X196730252Y-124766000D01*
X196207748Y-126186000D02*
X196730252Y-126186000D01*
%TO.C,C1*%
X196207748Y-122353000D02*
X196730252Y-122353000D01*
X196207748Y-123773000D02*
X196730252Y-123773000D01*
%TO.C,L1*%
D11*
X137326666Y-118308380D02*
X137802857Y-118308380D01*
X137802857Y-117308380D01*
X136469523Y-118308380D02*
X137040952Y-118308380D01*
X136755238Y-118308380D02*
X136755238Y-117308380D01*
X136850476Y-117451238D01*
X136945714Y-117546476D01*
X137040952Y-117594095D01*
%TO.C,K1*%
X142851095Y-133802380D02*
X142851095Y-132802380D01*
X142279666Y-133802380D02*
X142708238Y-133230952D01*
X142279666Y-132802380D02*
X142851095Y-133373809D01*
X141327285Y-133802380D02*
X141898714Y-133802380D01*
X141613000Y-133802380D02*
X141613000Y-132802380D01*
X141708238Y-132945238D01*
X141803476Y-133040476D01*
X141898714Y-133088095D01*
%TO.C,J6*%
X187023333Y-55078380D02*
X187023333Y-55792666D01*
X187070952Y-55935523D01*
X187166190Y-56030761D01*
X187309047Y-56078380D01*
X187404285Y-56078380D01*
X186118571Y-55078380D02*
X186309047Y-55078380D01*
X186404285Y-55126000D01*
X186451904Y-55173619D01*
X186547142Y-55316476D01*
X186594761Y-55506952D01*
X186594761Y-55887904D01*
X186547142Y-55983142D01*
X186499523Y-56030761D01*
X186404285Y-56078380D01*
X186213809Y-56078380D01*
X186118571Y-56030761D01*
X186070952Y-55983142D01*
X186023333Y-55887904D01*
X186023333Y-55649809D01*
X186070952Y-55554571D01*
X186118571Y-55506952D01*
X186213809Y-55459333D01*
X186404285Y-55459333D01*
X186499523Y-55506952D01*
X186547142Y-55554571D01*
X186594761Y-55649809D01*
%TO.C,J5*%
D12*
X202604666Y-86721190D02*
X202604666Y-87078333D01*
X202628476Y-87149761D01*
X202676095Y-87197380D01*
X202747523Y-87221190D01*
X202795142Y-87221190D01*
X202128476Y-86721190D02*
X202366571Y-86721190D01*
X202390380Y-86959285D01*
X202366571Y-86935476D01*
X202318952Y-86911666D01*
X202199904Y-86911666D01*
X202152285Y-86935476D01*
X202128476Y-86959285D01*
X202104666Y-87006904D01*
X202104666Y-87125952D01*
X202128476Y-87173571D01*
X202152285Y-87197380D01*
X202199904Y-87221190D01*
X202318952Y-87221190D01*
X202366571Y-87197380D01*
X202390380Y-87173571D01*
%TO.C,J4*%
D11*
X98436333Y-72950380D02*
X98436333Y-73664666D01*
X98483952Y-73807523D01*
X98579190Y-73902761D01*
X98722047Y-73950380D01*
X98817285Y-73950380D01*
X97531571Y-73283714D02*
X97531571Y-73950380D01*
X97769666Y-72902761D02*
X98007761Y-73617047D01*
X97388714Y-73617047D01*
%TO.C,J2*%
D12*
X94654666Y-90531190D02*
X94654666Y-90888333D01*
X94678476Y-90959761D01*
X94726095Y-91007380D01*
X94797523Y-91031190D01*
X94845142Y-91031190D01*
X94440380Y-90578809D02*
X94416571Y-90555000D01*
X94368952Y-90531190D01*
X94249904Y-90531190D01*
X94202285Y-90555000D01*
X94178476Y-90578809D01*
X94154666Y-90626428D01*
X94154666Y-90674047D01*
X94178476Y-90745476D01*
X94464190Y-91031190D01*
X94154666Y-91031190D01*
%TO.C,J1*%
X202604666Y-107041190D02*
X202604666Y-107398333D01*
X202628476Y-107469761D01*
X202676095Y-107517380D01*
X202747523Y-107541190D01*
X202795142Y-107541190D01*
X202104666Y-107541190D02*
X202390380Y-107541190D01*
X202247523Y-107541190D02*
X202247523Y-107041190D01*
X202295142Y-107112619D01*
X202342761Y-107160238D01*
X202390380Y-107184047D01*
%TO.C,C33*%
D11*
X163583857Y-110656642D02*
X163631476Y-110704261D01*
X163774333Y-110751880D01*
X163869571Y-110751880D01*
X164012428Y-110704261D01*
X164107666Y-110609023D01*
X164155285Y-110513785D01*
X164202904Y-110323309D01*
X164202904Y-110180452D01*
X164155285Y-109989976D01*
X164107666Y-109894738D01*
X164012428Y-109799500D01*
X163869571Y-109751880D01*
X163774333Y-109751880D01*
X163631476Y-109799500D01*
X163583857Y-109847119D01*
X163250523Y-109751880D02*
X162631476Y-109751880D01*
X162964809Y-110132833D01*
X162821952Y-110132833D01*
X162726714Y-110180452D01*
X162679095Y-110228071D01*
X162631476Y-110323309D01*
X162631476Y-110561404D01*
X162679095Y-110656642D01*
X162726714Y-110704261D01*
X162821952Y-110751880D01*
X163107666Y-110751880D01*
X163202904Y-110704261D01*
X163250523Y-110656642D01*
X162298142Y-109751880D02*
X161679095Y-109751880D01*
X162012428Y-110132833D01*
X161869571Y-110132833D01*
X161774333Y-110180452D01*
X161726714Y-110228071D01*
X161679095Y-110323309D01*
X161679095Y-110561404D01*
X161726714Y-110656642D01*
X161774333Y-110704261D01*
X161869571Y-110751880D01*
X162155285Y-110751880D01*
X162250523Y-110704261D01*
X162298142Y-110656642D01*
%TO.C,C22*%
X155932142Y-120261142D02*
X155979761Y-120213523D01*
X156027380Y-120070666D01*
X156027380Y-119975428D01*
X155979761Y-119832571D01*
X155884523Y-119737333D01*
X155789285Y-119689714D01*
X155598809Y-119642095D01*
X155455952Y-119642095D01*
X155265476Y-119689714D01*
X155170238Y-119737333D01*
X155075000Y-119832571D01*
X155027380Y-119975428D01*
X155027380Y-120070666D01*
X155075000Y-120213523D01*
X155122619Y-120261142D01*
X155122619Y-120642095D02*
X155075000Y-120689714D01*
X155027380Y-120784952D01*
X155027380Y-121023047D01*
X155075000Y-121118285D01*
X155122619Y-121165904D01*
X155217857Y-121213523D01*
X155313095Y-121213523D01*
X155455952Y-121165904D01*
X156027380Y-120594476D01*
X156027380Y-121213523D01*
X155122619Y-121594476D02*
X155075000Y-121642095D01*
X155027380Y-121737333D01*
X155027380Y-121975428D01*
X155075000Y-122070666D01*
X155122619Y-122118285D01*
X155217857Y-122165904D01*
X155313095Y-122165904D01*
X155455952Y-122118285D01*
X156027380Y-121546857D01*
X156027380Y-122165904D01*
%TO.C,C21*%
X143898857Y-105894142D02*
X143946476Y-105941761D01*
X144089333Y-105989380D01*
X144184571Y-105989380D01*
X144327428Y-105941761D01*
X144422666Y-105846523D01*
X144470285Y-105751285D01*
X144517904Y-105560809D01*
X144517904Y-105417952D01*
X144470285Y-105227476D01*
X144422666Y-105132238D01*
X144327428Y-105037000D01*
X144184571Y-104989380D01*
X144089333Y-104989380D01*
X143946476Y-105037000D01*
X143898857Y-105084619D01*
X143517904Y-105084619D02*
X143470285Y-105037000D01*
X143375047Y-104989380D01*
X143136952Y-104989380D01*
X143041714Y-105037000D01*
X142994095Y-105084619D01*
X142946476Y-105179857D01*
X142946476Y-105275095D01*
X142994095Y-105417952D01*
X143565523Y-105989380D01*
X142946476Y-105989380D01*
X141994095Y-105989380D02*
X142565523Y-105989380D01*
X142279809Y-105989380D02*
X142279809Y-104989380D01*
X142375047Y-105132238D01*
X142470285Y-105227476D01*
X142565523Y-105275095D01*
%TO.C,C20*%
X148312142Y-120261142D02*
X148359761Y-120213523D01*
X148407380Y-120070666D01*
X148407380Y-119975428D01*
X148359761Y-119832571D01*
X148264523Y-119737333D01*
X148169285Y-119689714D01*
X147978809Y-119642095D01*
X147835952Y-119642095D01*
X147645476Y-119689714D01*
X147550238Y-119737333D01*
X147455000Y-119832571D01*
X147407380Y-119975428D01*
X147407380Y-120070666D01*
X147455000Y-120213523D01*
X147502619Y-120261142D01*
X147502619Y-120642095D02*
X147455000Y-120689714D01*
X147407380Y-120784952D01*
X147407380Y-121023047D01*
X147455000Y-121118285D01*
X147502619Y-121165904D01*
X147597857Y-121213523D01*
X147693095Y-121213523D01*
X147835952Y-121165904D01*
X148407380Y-120594476D01*
X148407380Y-121213523D01*
X147407380Y-121832571D02*
X147407380Y-121927809D01*
X147455000Y-122023047D01*
X147502619Y-122070666D01*
X147597857Y-122118285D01*
X147788333Y-122165904D01*
X148026428Y-122165904D01*
X148216904Y-122118285D01*
X148312142Y-122070666D01*
X148359761Y-122023047D01*
X148407380Y-121927809D01*
X148407380Y-121832571D01*
X148359761Y-121737333D01*
X148312142Y-121689714D01*
X148216904Y-121642095D01*
X148026428Y-121594476D01*
X147788333Y-121594476D01*
X147597857Y-121642095D01*
X147502619Y-121689714D01*
X147455000Y-121737333D01*
X147407380Y-121832571D01*
%TO.C,C19*%
X153392142Y-120261142D02*
X153439761Y-120213523D01*
X153487380Y-120070666D01*
X153487380Y-119975428D01*
X153439761Y-119832571D01*
X153344523Y-119737333D01*
X153249285Y-119689714D01*
X153058809Y-119642095D01*
X152915952Y-119642095D01*
X152725476Y-119689714D01*
X152630238Y-119737333D01*
X152535000Y-119832571D01*
X152487380Y-119975428D01*
X152487380Y-120070666D01*
X152535000Y-120213523D01*
X152582619Y-120261142D01*
X153487380Y-121213523D02*
X153487380Y-120642095D01*
X153487380Y-120927809D02*
X152487380Y-120927809D01*
X152630238Y-120832571D01*
X152725476Y-120737333D01*
X152773095Y-120642095D01*
X153487380Y-121689714D02*
X153487380Y-121880190D01*
X153439761Y-121975428D01*
X153392142Y-122023047D01*
X153249285Y-122118285D01*
X153058809Y-122165904D01*
X152677857Y-122165904D01*
X152582619Y-122118285D01*
X152535000Y-122070666D01*
X152487380Y-121975428D01*
X152487380Y-121784952D01*
X152535000Y-121689714D01*
X152582619Y-121642095D01*
X152677857Y-121594476D01*
X152915952Y-121594476D01*
X153011190Y-121642095D01*
X153058809Y-121689714D01*
X153106428Y-121784952D01*
X153106428Y-121975428D01*
X153058809Y-122070666D01*
X153011190Y-122118285D01*
X152915952Y-122165904D01*
%TO.C,C18*%
X137167857Y-112117142D02*
X137215476Y-112164761D01*
X137358333Y-112212380D01*
X137453571Y-112212380D01*
X137596428Y-112164761D01*
X137691666Y-112069523D01*
X137739285Y-111974285D01*
X137786904Y-111783809D01*
X137786904Y-111640952D01*
X137739285Y-111450476D01*
X137691666Y-111355238D01*
X137596428Y-111260000D01*
X137453571Y-111212380D01*
X137358333Y-111212380D01*
X137215476Y-111260000D01*
X137167857Y-111307619D01*
X136215476Y-112212380D02*
X136786904Y-112212380D01*
X136501190Y-112212380D02*
X136501190Y-111212380D01*
X136596428Y-111355238D01*
X136691666Y-111450476D01*
X136786904Y-111498095D01*
X135644047Y-111640952D02*
X135739285Y-111593333D01*
X135786904Y-111545714D01*
X135834523Y-111450476D01*
X135834523Y-111402857D01*
X135786904Y-111307619D01*
X135739285Y-111260000D01*
X135644047Y-111212380D01*
X135453571Y-111212380D01*
X135358333Y-111260000D01*
X135310714Y-111307619D01*
X135263095Y-111402857D01*
X135263095Y-111450476D01*
X135310714Y-111545714D01*
X135358333Y-111593333D01*
X135453571Y-111640952D01*
X135644047Y-111640952D01*
X135739285Y-111688571D01*
X135786904Y-111736190D01*
X135834523Y-111831428D01*
X135834523Y-112021904D01*
X135786904Y-112117142D01*
X135739285Y-112164761D01*
X135644047Y-112212380D01*
X135453571Y-112212380D01*
X135358333Y-112164761D01*
X135310714Y-112117142D01*
X135263095Y-112021904D01*
X135263095Y-111831428D01*
X135310714Y-111736190D01*
X135358333Y-111688571D01*
X135453571Y-111640952D01*
%TO.C,C13*%
X103131857Y-115673142D02*
X103179476Y-115720761D01*
X103322333Y-115768380D01*
X103417571Y-115768380D01*
X103560428Y-115720761D01*
X103655666Y-115625523D01*
X103703285Y-115530285D01*
X103750904Y-115339809D01*
X103750904Y-115196952D01*
X103703285Y-115006476D01*
X103655666Y-114911238D01*
X103560428Y-114816000D01*
X103417571Y-114768380D01*
X103322333Y-114768380D01*
X103179476Y-114816000D01*
X103131857Y-114863619D01*
X102179476Y-115768380D02*
X102750904Y-115768380D01*
X102465190Y-115768380D02*
X102465190Y-114768380D01*
X102560428Y-114911238D01*
X102655666Y-115006476D01*
X102750904Y-115054095D01*
X101846142Y-114768380D02*
X101227095Y-114768380D01*
X101560428Y-115149333D01*
X101417571Y-115149333D01*
X101322333Y-115196952D01*
X101274714Y-115244571D01*
X101227095Y-115339809D01*
X101227095Y-115577904D01*
X101274714Y-115673142D01*
X101322333Y-115720761D01*
X101417571Y-115768380D01*
X101703285Y-115768380D01*
X101798523Y-115720761D01*
X101846142Y-115673142D01*
%TO.C,C11*%
X115577857Y-109196142D02*
X115625476Y-109243761D01*
X115768333Y-109291380D01*
X115863571Y-109291380D01*
X116006428Y-109243761D01*
X116101666Y-109148523D01*
X116149285Y-109053285D01*
X116196904Y-108862809D01*
X116196904Y-108719952D01*
X116149285Y-108529476D01*
X116101666Y-108434238D01*
X116006428Y-108339000D01*
X115863571Y-108291380D01*
X115768333Y-108291380D01*
X115625476Y-108339000D01*
X115577857Y-108386619D01*
X114625476Y-109291380D02*
X115196904Y-109291380D01*
X114911190Y-109291380D02*
X114911190Y-108291380D01*
X115006428Y-108434238D01*
X115101666Y-108529476D01*
X115196904Y-108577095D01*
X113673095Y-109291380D02*
X114244523Y-109291380D01*
X113958809Y-109291380D02*
X113958809Y-108291380D01*
X114054047Y-108434238D01*
X114149285Y-108529476D01*
X114244523Y-108577095D01*
%TO.C,C10*%
X115577857Y-115800142D02*
X115625476Y-115847761D01*
X115768333Y-115895380D01*
X115863571Y-115895380D01*
X116006428Y-115847761D01*
X116101666Y-115752523D01*
X116149285Y-115657285D01*
X116196904Y-115466809D01*
X116196904Y-115323952D01*
X116149285Y-115133476D01*
X116101666Y-115038238D01*
X116006428Y-114943000D01*
X115863571Y-114895380D01*
X115768333Y-114895380D01*
X115625476Y-114943000D01*
X115577857Y-114990619D01*
X114625476Y-115895380D02*
X115196904Y-115895380D01*
X114911190Y-115895380D02*
X114911190Y-114895380D01*
X115006428Y-115038238D01*
X115101666Y-115133476D01*
X115196904Y-115181095D01*
X114006428Y-114895380D02*
X113911190Y-114895380D01*
X113815952Y-114943000D01*
X113768333Y-114990619D01*
X113720714Y-115085857D01*
X113673095Y-115276333D01*
X113673095Y-115514428D01*
X113720714Y-115704904D01*
X113768333Y-115800142D01*
X113815952Y-115847761D01*
X113911190Y-115895380D01*
X114006428Y-115895380D01*
X114101666Y-115847761D01*
X114149285Y-115800142D01*
X114196904Y-115704904D01*
X114244523Y-115514428D01*
X114244523Y-115276333D01*
X114196904Y-115085857D01*
X114149285Y-114990619D01*
X114101666Y-114943000D01*
X114006428Y-114895380D01*
%TO.C,C3*%
X184570666Y-124817142D02*
X184618285Y-124864761D01*
X184761142Y-124912380D01*
X184856380Y-124912380D01*
X184999238Y-124864761D01*
X185094476Y-124769523D01*
X185142095Y-124674285D01*
X185189714Y-124483809D01*
X185189714Y-124340952D01*
X185142095Y-124150476D01*
X185094476Y-124055238D01*
X184999238Y-123960000D01*
X184856380Y-123912380D01*
X184761142Y-123912380D01*
X184618285Y-123960000D01*
X184570666Y-124007619D01*
X184237333Y-123912380D02*
X183618285Y-123912380D01*
X183951619Y-124293333D01*
X183808761Y-124293333D01*
X183713523Y-124340952D01*
X183665904Y-124388571D01*
X183618285Y-124483809D01*
X183618285Y-124721904D01*
X183665904Y-124817142D01*
X183713523Y-124864761D01*
X183808761Y-124912380D01*
X184094476Y-124912380D01*
X184189714Y-124864761D01*
X184237333Y-124817142D01*
%TO.C,C2*%
X199302666Y-125833142D02*
X199350285Y-125880761D01*
X199493142Y-125928380D01*
X199588380Y-125928380D01*
X199731238Y-125880761D01*
X199826476Y-125785523D01*
X199874095Y-125690285D01*
X199921714Y-125499809D01*
X199921714Y-125356952D01*
X199874095Y-125166476D01*
X199826476Y-125071238D01*
X199731238Y-124976000D01*
X199588380Y-124928380D01*
X199493142Y-124928380D01*
X199350285Y-124976000D01*
X199302666Y-125023619D01*
X198921714Y-125023619D02*
X198874095Y-124976000D01*
X198778857Y-124928380D01*
X198540761Y-124928380D01*
X198445523Y-124976000D01*
X198397904Y-125023619D01*
X198350285Y-125118857D01*
X198350285Y-125214095D01*
X198397904Y-125356952D01*
X198969333Y-125928380D01*
X198350285Y-125928380D01*
%TO.C,C1*%
X199302666Y-123420142D02*
X199350285Y-123467761D01*
X199493142Y-123515380D01*
X199588380Y-123515380D01*
X199731238Y-123467761D01*
X199826476Y-123372523D01*
X199874095Y-123277285D01*
X199921714Y-123086809D01*
X199921714Y-122943952D01*
X199874095Y-122753476D01*
X199826476Y-122658238D01*
X199731238Y-122563000D01*
X199588380Y-122515380D01*
X199493142Y-122515380D01*
X199350285Y-122563000D01*
X199302666Y-122610619D01*
X198350285Y-123515380D02*
X198921714Y-123515380D01*
X198636000Y-123515380D02*
X198636000Y-122515380D01*
X198731238Y-122658238D01*
X198826476Y-122753476D01*
X198921714Y-122801095D01*
%TD*%
M02*
