%TF.GenerationSoftware,KiCad,Pcbnew,5.1.6-c6e7f7d~87~ubuntu18.04.1*%
%TF.CreationDate,2020-11-07T16:01:35+00:00*%
%TF.ProjectId,CirrusDspPedal,43697272-7573-4447-9370-506564616c2e,rev?*%
%TF.SameCoordinates,Original*%
%TF.FileFunction,Copper,L2,Bot*%
%TF.FilePolarity,Positive*%
%FSLAX46Y46*%
G04 Gerber Fmt 4.6, Leading zero omitted, Abs format (unit mm)*
G04 Created by KiCad (PCBNEW 5.1.6-c6e7f7d~87~ubuntu18.04.1) date 2020-11-07 16:01:35*
%MOMM*%
%LPD*%
G01*
G04 APERTURE LIST*
%TA.AperFunction,EtchedComponent*%
%ADD10C,0.100000*%
%TD*%
%TA.AperFunction,SMDPad,CuDef*%
%ADD11R,0.800000X0.900000*%
%TD*%
%TA.AperFunction,SMDPad,CuDef*%
%ADD12R,1.000000X1.500000*%
%TD*%
%TA.AperFunction,SMDPad,CuDef*%
%ADD13R,1.100000X1.100000*%
%TD*%
%TA.AperFunction,ComponentPad*%
%ADD14C,1.800000*%
%TD*%
%TA.AperFunction,ComponentPad*%
%ADD15R,1.800000X1.800000*%
%TD*%
%TA.AperFunction,ComponentPad*%
%ADD16O,3.000000X4.000000*%
%TD*%
%TA.AperFunction,ComponentPad*%
%ADD17O,1.700000X1.700000*%
%TD*%
%TA.AperFunction,ComponentPad*%
%ADD18R,1.700000X1.700000*%
%TD*%
%TA.AperFunction,WasherPad*%
%ADD19C,4.000000*%
%TD*%
%TA.AperFunction,SMDPad,CuDef*%
%ADD20R,1.900000X1.350000*%
%TD*%
%TA.AperFunction,SMDPad,CuDef*%
%ADD21R,1.200000X1.000000*%
%TD*%
%TA.AperFunction,SMDPad,CuDef*%
%ADD22R,1.550000X1.350000*%
%TD*%
%TA.AperFunction,SMDPad,CuDef*%
%ADD23R,1.170000X1.800000*%
%TD*%
%TA.AperFunction,SMDPad,CuDef*%
%ADD24R,0.850000X1.100000*%
%TD*%
%TA.AperFunction,SMDPad,CuDef*%
%ADD25R,0.750000X1.100000*%
%TD*%
%TA.AperFunction,ComponentPad*%
%ADD26C,3.000000*%
%TD*%
%TA.AperFunction,ComponentPad*%
%ADD27R,3.500000X3.500000*%
%TD*%
%TA.AperFunction,ComponentPad*%
%ADD28C,8.000000*%
%TD*%
%TA.AperFunction,ComponentPad*%
%ADD29C,0.900000*%
%TD*%
%TA.AperFunction,ViaPad*%
%ADD30C,0.800000*%
%TD*%
%TA.AperFunction,ViaPad*%
%ADD31C,0.450000*%
%TD*%
%TA.AperFunction,Conductor*%
%ADD32C,0.250000*%
%TD*%
%TA.AperFunction,Conductor*%
%ADD33C,1.000000*%
%TD*%
%TA.AperFunction,Conductor*%
%ADD34C,0.500000*%
%TD*%
%TA.AperFunction,Conductor*%
%ADD35C,0.254000*%
%TD*%
G04 APERTURE END LIST*
D10*
%TO.C,JP2*%
G36*
X141870000Y-128686000D02*
G01*
X141370000Y-128686000D01*
X141370000Y-129086000D01*
X141870000Y-129086000D01*
X141870000Y-128686000D01*
G37*
G36*
X141870000Y-129486000D02*
G01*
X141370000Y-129486000D01*
X141370000Y-129886000D01*
X141870000Y-129886000D01*
X141870000Y-129486000D01*
G37*
%TD*%
D11*
%TO.P,Q1,3*%
%TO.N,Net-(JP2-Pad2)*%
X140970000Y-124698000D03*
%TO.P,Q1,2*%
%TO.N,Net-(D2-Pad1)*%
X141920000Y-122698000D03*
%TO.P,Q1,1*%
%TO.N,/SignalProcessing/RelayCoil_OUT*%
X140020000Y-122698000D03*
%TD*%
D12*
%TO.P,JP2,2*%
%TO.N,Net-(JP2-Pad2)*%
X140970000Y-129286000D03*
%TO.P,JP2,3*%
%TO.N,+5V*%
X139670000Y-129286000D03*
%TO.P,JP2,1*%
%TO.N,+3V3*%
X142270000Y-129286000D03*
%TD*%
%TO.P,K1,1*%
%TO.N,Net-(D2-Pad1)*%
%TA.AperFunction,SMDPad,CuDef*%
G36*
G01*
X152690000Y-119698000D02*
X152690000Y-120098000D01*
G75*
G02*
X152490000Y-120298000I-200000J0D01*
G01*
X150830000Y-120298000D01*
G75*
G02*
X150630000Y-120098000I0J200000D01*
G01*
X150630000Y-119698000D01*
G75*
G02*
X150830000Y-119498000I200000J0D01*
G01*
X152490000Y-119498000D01*
G75*
G02*
X152690000Y-119698000I0J-200000D01*
G01*
G37*
%TD.AperFunction*%
%TO.P,K1,2*%
%TO.N,Net-(K1-Pad2)*%
%TA.AperFunction,SMDPad,CuDef*%
G36*
G01*
X152690000Y-122898000D02*
X152690000Y-123298000D01*
G75*
G02*
X152490000Y-123498000I-200000J0D01*
G01*
X150830000Y-123498000D01*
G75*
G02*
X150630000Y-123298000I0J200000D01*
G01*
X150630000Y-122898000D01*
G75*
G02*
X150830000Y-122698000I200000J0D01*
G01*
X152490000Y-122698000D01*
G75*
G02*
X152690000Y-122898000I0J-200000D01*
G01*
G37*
%TD.AperFunction*%
%TO.P,K1,3*%
%TO.N,/InputSignal/ADIN_SDOUT*%
%TA.AperFunction,SMDPad,CuDef*%
G36*
G01*
X152690000Y-125098000D02*
X152690000Y-125498000D01*
G75*
G02*
X152490000Y-125698000I-200000J0D01*
G01*
X150830000Y-125698000D01*
G75*
G02*
X150630000Y-125498000I0J200000D01*
G01*
X150630000Y-125098000D01*
G75*
G02*
X150830000Y-124898000I200000J0D01*
G01*
X152490000Y-124898000D01*
G75*
G02*
X152690000Y-125098000I0J-200000D01*
G01*
G37*
%TD.AperFunction*%
%TO.P,K1,4*%
%TO.N,/SignalRelay/FX_IN*%
%TA.AperFunction,SMDPad,CuDef*%
G36*
G01*
X152690000Y-127298000D02*
X152690000Y-127698000D01*
G75*
G02*
X152490000Y-127898000I-200000J0D01*
G01*
X150830000Y-127898000D01*
G75*
G02*
X150630000Y-127698000I0J200000D01*
G01*
X150630000Y-127298000D01*
G75*
G02*
X150830000Y-127098000I200000J0D01*
G01*
X152490000Y-127098000D01*
G75*
G02*
X152690000Y-127298000I0J-200000D01*
G01*
G37*
%TD.AperFunction*%
%TO.P,K1,5*%
%TO.N,/SignalRelay/FX_OUT*%
%TA.AperFunction,SMDPad,CuDef*%
G36*
G01*
X146550000Y-127298000D02*
X146550000Y-127698000D01*
G75*
G02*
X146350000Y-127898000I-200000J0D01*
G01*
X144690000Y-127898000D01*
G75*
G02*
X144490000Y-127698000I0J200000D01*
G01*
X144490000Y-127298000D01*
G75*
G02*
X144690000Y-127098000I200000J0D01*
G01*
X146350000Y-127098000D01*
G75*
G02*
X146550000Y-127298000I0J-200000D01*
G01*
G37*
%TD.AperFunction*%
%TO.P,K1,6*%
%TO.N,/OutputSignal/ADOUT_SDIN*%
%TA.AperFunction,SMDPad,CuDef*%
G36*
G01*
X146550000Y-125098000D02*
X146550000Y-125498000D01*
G75*
G02*
X146350000Y-125698000I-200000J0D01*
G01*
X144690000Y-125698000D01*
G75*
G02*
X144490000Y-125498000I0J200000D01*
G01*
X144490000Y-125098000D01*
G75*
G02*
X144690000Y-124898000I200000J0D01*
G01*
X146350000Y-124898000D01*
G75*
G02*
X146550000Y-125098000I0J-200000D01*
G01*
G37*
%TD.AperFunction*%
%TO.P,K1,7*%
%TO.N,Net-(K1-Pad2)*%
%TA.AperFunction,SMDPad,CuDef*%
G36*
G01*
X146550000Y-122898000D02*
X146550000Y-123298000D01*
G75*
G02*
X146350000Y-123498000I-200000J0D01*
G01*
X144690000Y-123498000D01*
G75*
G02*
X144490000Y-123298000I0J200000D01*
G01*
X144490000Y-122898000D01*
G75*
G02*
X144690000Y-122698000I200000J0D01*
G01*
X146350000Y-122698000D01*
G75*
G02*
X146550000Y-122898000I0J-200000D01*
G01*
G37*
%TD.AperFunction*%
%TO.P,K1,8*%
%TO.N,GND*%
%TA.AperFunction,SMDPad,CuDef*%
G36*
G01*
X146550000Y-119698000D02*
X146550000Y-120098000D01*
G75*
G02*
X146350000Y-120298000I-200000J0D01*
G01*
X144690000Y-120298000D01*
G75*
G02*
X144490000Y-120098000I0J200000D01*
G01*
X144490000Y-119698000D01*
G75*
G02*
X144690000Y-119498000I200000J0D01*
G01*
X146350000Y-119498000D01*
G75*
G02*
X146550000Y-119698000I0J-200000D01*
G01*
G37*
%TD.AperFunction*%
%TD*%
D13*
%TO.P,D2,2*%
%TO.N,GND*%
X147190000Y-115316000D03*
%TO.P,D2,1*%
%TO.N,Net-(D2-Pad1)*%
X149990000Y-115316000D03*
%TD*%
D14*
%TO.P,LED1,4*%
%TO.N,Net-(LED1-Pad4)*%
X131064000Y-87630000D03*
%TO.P,LED1,3*%
%TO.N,Net-(LED1-Pad3)*%
X131064000Y-89789000D03*
%TO.P,LED1,2*%
%TO.N,GND*%
X131064000Y-91948000D03*
D15*
%TO.P,LED1,1*%
%TO.N,Net-(LED1-Pad1)*%
X131064000Y-94107000D03*
%TD*%
D14*
%TO.P,LED2,4*%
%TO.N,Net-(LED2-Pad4)*%
X166116000Y-94107000D03*
%TO.P,LED2,3*%
%TO.N,Net-(LED2-Pad3)*%
X166116000Y-91948000D03*
%TO.P,LED2,2*%
%TO.N,GND*%
X166116000Y-89789000D03*
D15*
%TO.P,LED2,1*%
%TO.N,Net-(LED2-Pad1)*%
X166116000Y-87630000D03*
%TD*%
D16*
%TO.P,SW4,3*%
%TO.N,N/C*%
X137585000Y-62484000D03*
%TO.P,SW4,1*%
%TO.N,GND*%
X128185000Y-62484000D03*
%TO.P,SW4,2*%
%TO.N,/ExtInput/UserSwitchB_IN*%
X132885000Y-62484000D03*
%TD*%
%TO.P,SW3,3*%
%TO.N,N/C*%
X169465000Y-62484000D03*
%TO.P,SW3,1*%
%TO.N,GND*%
X160065000Y-62484000D03*
%TO.P,SW3,2*%
%TO.N,/ExtInput/UserSwitchA_IN*%
X164765000Y-62484000D03*
%TD*%
D17*
%TO.P,SW2,2*%
%TO.N,/ExtInput/FootSwitchB_IN*%
X168148000Y-102108000D03*
D18*
%TO.P,SW2,1*%
%TO.N,GND*%
X165608000Y-102108000D03*
%TD*%
D17*
%TO.P,SW1,2*%
%TO.N,/ExtInput/FootSwitchA_IN*%
X131191000Y-102108000D03*
D18*
%TO.P,SW1,1*%
%TO.N,GND*%
X128651000Y-102108000D03*
%TD*%
D19*
%TO.P,RV2,*%
%TO.N,*%
X130676000Y-70902000D03*
X130676000Y-80402000D03*
D14*
%TO.P,RV2,1*%
%TO.N,+3V3*%
X138176000Y-73152000D03*
%TO.P,RV2,2*%
%TO.N,Net-(R14-Pad2)*%
X138176000Y-75652000D03*
%TO.P,RV2,3*%
%TO.N,Net-(R12-Pad1)*%
X138176000Y-78152000D03*
%TD*%
D19*
%TO.P,RV1,*%
%TO.N,*%
X166504000Y-80482000D03*
X166504000Y-70982000D03*
D14*
%TO.P,RV1,1*%
%TO.N,+3V3*%
X159004000Y-78232000D03*
%TO.P,RV1,2*%
%TO.N,Net-(R13-Pad2)*%
X159004000Y-75732000D03*
%TO.P,RV1,3*%
%TO.N,Net-(R11-Pad1)*%
X159004000Y-73232000D03*
%TD*%
%TO.P,L1,2*%
%TO.N,/SignalProcessing/VDDA*%
%TA.AperFunction,SMDPad,CuDef*%
G36*
G01*
X139261001Y-101150000D02*
X138360999Y-101150000D01*
G75*
G02*
X138111000Y-100900001I0J249999D01*
G01*
X138111000Y-100249999D01*
G75*
G02*
X138360999Y-100000000I249999J0D01*
G01*
X139261001Y-100000000D01*
G75*
G02*
X139511000Y-100249999I0J-249999D01*
G01*
X139511000Y-100900001D01*
G75*
G02*
X139261001Y-101150000I-249999J0D01*
G01*
G37*
%TD.AperFunction*%
%TO.P,L1,1*%
%TO.N,+3V3*%
%TA.AperFunction,SMDPad,CuDef*%
G36*
G01*
X139261001Y-103200000D02*
X138360999Y-103200000D01*
G75*
G02*
X138111000Y-102950001I0J249999D01*
G01*
X138111000Y-102299999D01*
G75*
G02*
X138360999Y-102050000I249999J0D01*
G01*
X139261001Y-102050000D01*
G75*
G02*
X139511000Y-102299999I0J-249999D01*
G01*
X139511000Y-102950001D01*
G75*
G02*
X139261001Y-103200000I-249999J0D01*
G01*
G37*
%TD.AperFunction*%
%TD*%
D20*
%TO.P,J6,11*%
%TO.N,GNDPWR*%
X182165000Y-55839000D03*
X176195000Y-55839000D03*
D21*
%TO.P,J6,9*%
%TO.N,GND*%
X172695000Y-60514000D03*
%TO.P,J6,10*%
%TO.N,Net-(J6-Pad10)*%
X172695000Y-56814000D03*
D22*
%TO.P,J6,11*%
%TO.N,GNDPWR*%
X172870000Y-66539000D03*
D23*
X184190000Y-66314000D03*
D24*
%TO.P,J6,7*%
%TO.N,/MicroSD/uSD_D0*%
X181930000Y-66664000D03*
%TO.P,J6,6*%
%TO.N,GND*%
X180830000Y-66664000D03*
%TO.P,J6,5*%
%TO.N,/MicroSD/uSD_CLK*%
X179730000Y-66664000D03*
%TO.P,J6,4*%
%TO.N,+3V3*%
X178630000Y-66664000D03*
%TO.P,J6,3*%
%TO.N,/MicroSD/uSD_CMD*%
X177530000Y-66664000D03*
%TO.P,J6,2*%
%TO.N,/MicroSD/uSD_D3*%
X176430000Y-66664000D03*
D25*
%TO.P,J6,8*%
%TO.N,/MicroSD/uSD_D1*%
X182980000Y-66664000D03*
D24*
%TO.P,J6,1*%
%TO.N,/MicroSD/uSD_D2*%
X175330000Y-66664000D03*
%TD*%
D26*
%TO.P,J5,1*%
%TO.N,Net-(J5-Pad1)*%
X187388500Y-84455000D03*
%TO.P,J5,2*%
%TO.N,GND*%
X187388500Y-73025000D03*
%TO.P,J5,3*%
X200088500Y-73025000D03*
%TO.P,J5,4*%
X200088500Y-84455000D03*
%TD*%
%TO.P,J4,3*%
%TO.N,GND*%
%TA.AperFunction,ComponentPad*%
G36*
G01*
X101803000Y-75423000D02*
X101803000Y-73673000D01*
G75*
G02*
X102678000Y-72798000I875000J0D01*
G01*
X104428000Y-72798000D01*
G75*
G02*
X105303000Y-73673000I0J-875000D01*
G01*
X105303000Y-75423000D01*
G75*
G02*
X104428000Y-76298000I-875000J0D01*
G01*
X102678000Y-76298000D01*
G75*
G02*
X101803000Y-75423000I0J875000D01*
G01*
G37*
%TD.AperFunction*%
%TO.P,J4,2*%
%TO.N,Net-(D1-Pad2)*%
%TA.AperFunction,ComponentPad*%
G36*
G01*
X99053000Y-80248000D02*
X99053000Y-78248000D01*
G75*
G02*
X99803000Y-77498000I750000J0D01*
G01*
X101303000Y-77498000D01*
G75*
G02*
X102053000Y-78248000I0J-750000D01*
G01*
X102053000Y-80248000D01*
G75*
G02*
X101303000Y-80998000I-750000J0D01*
G01*
X99803000Y-80998000D01*
G75*
G02*
X99053000Y-80248000I0J750000D01*
G01*
G37*
%TD.AperFunction*%
D27*
%TO.P,J4,1*%
%TO.N,GND*%
X106553000Y-79248000D03*
%TD*%
D26*
%TO.P,J2,1*%
%TO.N,Net-(C14-Pad2)*%
X109537500Y-93345000D03*
%TO.P,J2,2*%
%TO.N,GND*%
X109537500Y-104775000D03*
%TO.P,J2,3*%
X96837500Y-104775000D03*
%TO.P,J2,4*%
X96837500Y-93345000D03*
%TD*%
%TO.P,J1,1*%
%TO.N,Net-(J1-Pad1)*%
X187388500Y-104775000D03*
%TO.P,J1,2*%
%TO.N,GND*%
X187388500Y-93345000D03*
%TO.P,J1,3*%
X200088500Y-93345000D03*
%TO.P,J1,4*%
X200088500Y-104775000D03*
%TD*%
%TO.P,C13,2*%
%TO.N,GND*%
%TA.AperFunction,SMDPad,CuDef*%
G36*
G01*
X104325000Y-112579999D02*
X104325000Y-113480001D01*
G75*
G02*
X104075001Y-113730000I-249999J0D01*
G01*
X103424999Y-113730000D01*
G75*
G02*
X103175000Y-113480001I0J249999D01*
G01*
X103175000Y-112579999D01*
G75*
G02*
X103424999Y-112330000I249999J0D01*
G01*
X104075001Y-112330000D01*
G75*
G02*
X104325000Y-112579999I0J-249999D01*
G01*
G37*
%TD.AperFunction*%
%TO.P,C13,1*%
%TO.N,/OutputSignal/FILT*%
%TA.AperFunction,SMDPad,CuDef*%
G36*
G01*
X106375000Y-112579999D02*
X106375000Y-113480001D01*
G75*
G02*
X106125001Y-113730000I-249999J0D01*
G01*
X105474999Y-113730000D01*
G75*
G02*
X105225000Y-113480001I0J249999D01*
G01*
X105225000Y-112579999D01*
G75*
G02*
X105474999Y-112330000I249999J0D01*
G01*
X106125001Y-112330000D01*
G75*
G02*
X106375000Y-112579999I0J-249999D01*
G01*
G37*
%TD.AperFunction*%
%TD*%
%TO.P,C11,2*%
%TO.N,GND*%
%TA.AperFunction,SMDPad,CuDef*%
G36*
G01*
X117925000Y-110940001D02*
X117925000Y-110039999D01*
G75*
G02*
X118174999Y-109790000I249999J0D01*
G01*
X118825001Y-109790000D01*
G75*
G02*
X119075000Y-110039999I0J-249999D01*
G01*
X119075000Y-110940001D01*
G75*
G02*
X118825001Y-111190000I-249999J0D01*
G01*
X118174999Y-111190000D01*
G75*
G02*
X117925000Y-110940001I0J249999D01*
G01*
G37*
%TD.AperFunction*%
%TO.P,C11,1*%
%TO.N,/OutputSignal/VQ*%
%TA.AperFunction,SMDPad,CuDef*%
G36*
G01*
X115875000Y-110940001D02*
X115875000Y-110039999D01*
G75*
G02*
X116124999Y-109790000I249999J0D01*
G01*
X116775001Y-109790000D01*
G75*
G02*
X117025000Y-110039999I0J-249999D01*
G01*
X117025000Y-110940001D01*
G75*
G02*
X116775001Y-111190000I-249999J0D01*
G01*
X116124999Y-111190000D01*
G75*
G02*
X115875000Y-110940001I0J249999D01*
G01*
G37*
%TD.AperFunction*%
%TD*%
%TO.P,C10,2*%
%TO.N,GND*%
%TA.AperFunction,SMDPad,CuDef*%
G36*
G01*
X117925000Y-114115001D02*
X117925000Y-113214999D01*
G75*
G02*
X118174999Y-112965000I249999J0D01*
G01*
X118825001Y-112965000D01*
G75*
G02*
X119075000Y-113214999I0J-249999D01*
G01*
X119075000Y-114115001D01*
G75*
G02*
X118825001Y-114365000I-249999J0D01*
G01*
X118174999Y-114365000D01*
G75*
G02*
X117925000Y-114115001I0J249999D01*
G01*
G37*
%TD.AperFunction*%
%TO.P,C10,1*%
%TO.N,/OutputSignal/VQ*%
%TA.AperFunction,SMDPad,CuDef*%
G36*
G01*
X115875000Y-114115001D02*
X115875000Y-113214999D01*
G75*
G02*
X116124999Y-112965000I249999J0D01*
G01*
X116775001Y-112965000D01*
G75*
G02*
X117025000Y-113214999I0J-249999D01*
G01*
X117025000Y-114115001D01*
G75*
G02*
X116775001Y-114365000I-249999J0D01*
G01*
X116124999Y-114365000D01*
G75*
G02*
X115875000Y-114115001I0J249999D01*
G01*
G37*
%TD.AperFunction*%
%TD*%
%TO.P,C2,2*%
%TO.N,GND*%
%TA.AperFunction,SMDPad,CuDef*%
G36*
G01*
X190505500Y-124338501D02*
X190505500Y-123438499D01*
G75*
G02*
X190755499Y-123188500I249999J0D01*
G01*
X191405501Y-123188500D01*
G75*
G02*
X191655500Y-123438499I0J-249999D01*
G01*
X191655500Y-124338501D01*
G75*
G02*
X191405501Y-124588500I-249999J0D01*
G01*
X190755499Y-124588500D01*
G75*
G02*
X190505500Y-124338501I0J249999D01*
G01*
G37*
%TD.AperFunction*%
%TO.P,C2,1*%
%TO.N,/InputSignal/VQ*%
%TA.AperFunction,SMDPad,CuDef*%
G36*
G01*
X188455500Y-124338501D02*
X188455500Y-123438499D01*
G75*
G02*
X188705499Y-123188500I249999J0D01*
G01*
X189355501Y-123188500D01*
G75*
G02*
X189605500Y-123438499I0J-249999D01*
G01*
X189605500Y-124338501D01*
G75*
G02*
X189355501Y-124588500I-249999J0D01*
G01*
X188705499Y-124588500D01*
G75*
G02*
X188455500Y-124338501I0J249999D01*
G01*
G37*
%TD.AperFunction*%
%TD*%
%TO.P,C1,2*%
%TO.N,GND*%
%TA.AperFunction,SMDPad,CuDef*%
G36*
G01*
X190505500Y-121925501D02*
X190505500Y-121025499D01*
G75*
G02*
X190755499Y-120775500I249999J0D01*
G01*
X191405501Y-120775500D01*
G75*
G02*
X191655500Y-121025499I0J-249999D01*
G01*
X191655500Y-121925501D01*
G75*
G02*
X191405501Y-122175500I-249999J0D01*
G01*
X190755499Y-122175500D01*
G75*
G02*
X190505500Y-121925501I0J249999D01*
G01*
G37*
%TD.AperFunction*%
%TO.P,C1,1*%
%TO.N,/InputSignal/VQ*%
%TA.AperFunction,SMDPad,CuDef*%
G36*
G01*
X188455500Y-121925501D02*
X188455500Y-121025499D01*
G75*
G02*
X188705499Y-120775500I249999J0D01*
G01*
X189355501Y-120775500D01*
G75*
G02*
X189605500Y-121025499I0J-249999D01*
G01*
X189605500Y-121925501D01*
G75*
G02*
X189355501Y-122175500I-249999J0D01*
G01*
X188705499Y-122175500D01*
G75*
G02*
X188455500Y-121925501I0J249999D01*
G01*
G37*
%TD.AperFunction*%
%TD*%
D28*
%TO.P,REF\u002A\u002A,1*%
%TO.N,N/C*%
X192405000Y-60896500D03*
D29*
X195405000Y-60896500D03*
X194526320Y-63017820D03*
X192405000Y-63896500D03*
X190283680Y-63017820D03*
X189405000Y-60896500D03*
X190283680Y-58775180D03*
X192405000Y-57896500D03*
X194526320Y-58775180D03*
%TD*%
D28*
%TO.P,REF\u002A\u002A,1*%
%TO.N,N/C*%
X104775000Y-60896500D03*
D29*
X107775000Y-60896500D03*
X106896320Y-63017820D03*
X104775000Y-63896500D03*
X102653680Y-63017820D03*
X101775000Y-60896500D03*
X102653680Y-58775180D03*
X104775000Y-57896500D03*
X106896320Y-58775180D03*
%TD*%
D28*
%TO.P,REF\u002A\u002A,1*%
%TO.N,N/C*%
X104775000Y-134620000D03*
D29*
X107775000Y-134620000D03*
X106896320Y-136741320D03*
X104775000Y-137620000D03*
X102653680Y-136741320D03*
X101775000Y-134620000D03*
X102653680Y-132498680D03*
X104775000Y-131620000D03*
X106896320Y-132498680D03*
%TD*%
%TO.P,REF\u002A\u002A,1*%
%TO.N,N/C*%
X194526320Y-132498680D03*
X192405000Y-131620000D03*
X190283680Y-132498680D03*
X189405000Y-134620000D03*
X190283680Y-136741320D03*
X192405000Y-137620000D03*
X194526320Y-136741320D03*
X195405000Y-134620000D03*
D28*
X192405000Y-134620000D03*
%TD*%
D30*
%TO.N,GND*%
X117475000Y-64135000D03*
X117475000Y-75565000D03*
X117475000Y-66040000D03*
X117475000Y-77470000D03*
X117475000Y-67945000D03*
X117475000Y-79375000D03*
X119380000Y-64135000D03*
X119380000Y-75565000D03*
X119380000Y-66040000D03*
X119380000Y-77470000D03*
X119380000Y-67945000D03*
X119380000Y-79375000D03*
X121285000Y-64135000D03*
X121285000Y-69850000D03*
X121285000Y-75565000D03*
X121285000Y-73660000D03*
X121285000Y-66040000D03*
X121285000Y-77470000D03*
X121285000Y-67945000D03*
X121285000Y-71755000D03*
X121285000Y-79375000D03*
D31*
X187507500Y-122880500D03*
X188785500Y-115379500D03*
X199707500Y-125031500D03*
X104140000Y-111760000D03*
X99060000Y-111760000D03*
X107315000Y-114315013D03*
X146586000Y-91313000D03*
X145086000Y-91313000D03*
X116586000Y-58039000D03*
X116459000Y-86741000D03*
X183515000Y-114427000D03*
X148336000Y-75184000D03*
X143863002Y-100048000D03*
X106181000Y-125485000D03*
X193161500Y-121417500D03*
D30*
X115570000Y-79375000D03*
X115570000Y-77470000D03*
X115570000Y-75565000D03*
X115570000Y-73660000D03*
X115570000Y-71755000D03*
X115570000Y-69850000D03*
X115570000Y-67945000D03*
X115570000Y-66040000D03*
X115570000Y-64135000D03*
D31*
X146558000Y-86106000D03*
X144018000Y-85979000D03*
X180848000Y-101981000D03*
X141097000Y-71755000D03*
X141097000Y-80899000D03*
X155956000Y-69596000D03*
%TO.N,/InputSignal/VQ*%
X187507500Y-123880500D03*
%TO.N,+3V3*%
X178630000Y-68521000D03*
X129540000Y-75438000D03*
X185928000Y-69215000D03*
X190754000Y-71882000D03*
X178435000Y-104140000D03*
X178435000Y-106172000D03*
%TO.N,GND*%
X156464000Y-89408000D03*
X180276500Y-130238500D03*
X154940000Y-83185000D03*
X151384000Y-109982000D03*
X144281000Y-108975000D03*
X145097500Y-105346500D03*
%TO.N,+3V3*%
X144907000Y-102616000D03*
X152019000Y-99187000D03*
X141284000Y-94548000D03*
X158750000Y-100965000D03*
X136846000Y-94548000D03*
X142240000Y-127254000D03*
X147320000Y-112522000D03*
X147320000Y-109220000D03*
%TO.N,/OutputSignal/VQ*%
X114935000Y-113665000D03*
%TO.N,/OutputSignal/FILT*%
X107315000Y-113030012D03*
%TO.N,/ExtInput/FootExp_IN*%
X143847000Y-101048000D03*
X157416500Y-100520500D03*
%TO.N,/SignalProcessing/RelayCoil_OUT*%
X142557500Y-103949500D03*
%TO.N,GNDPWR*%
X184658000Y-56134000D03*
%TO.N,Net-(J6-Pad10)*%
X170770000Y-56814000D03*
%TO.N,/MicroSD/uSD_D0*%
X181610000Y-64516000D03*
X181930000Y-66664000D03*
X181610000Y-78359000D03*
%TO.N,/MicroSD/uSD_CLK*%
X150086000Y-91285000D03*
%TO.N,/MicroSD/uSD_CMD*%
X179578000Y-64516000D03*
X149586000Y-90678000D03*
%TO.N,/MicroSD/uSD_D3*%
X176784002Y-64515998D03*
X150622000Y-89916000D03*
%TO.N,/MicroSD/uSD_D1*%
X183642000Y-64516000D03*
X180721000Y-79629000D03*
%TO.N,/MicroSD/uSD_D2*%
X175514000Y-64516000D03*
X151384000Y-88646000D03*
%TO.N,/InputSignal/ADIN_SDOUT*%
X149352000Y-139192000D03*
%TO.N,/SignalRelay/FX_IN*%
X155575000Y-109347000D03*
X155575000Y-111506000D03*
X153416000Y-127416000D03*
%TO.N,/SignalRelay/FX_OUT*%
X147320000Y-127416000D03*
X154940000Y-109347000D03*
X154940000Y-111506000D03*
%TO.N,/OutputSignal/ADOUT_SDIN*%
X148336000Y-137668000D03*
%TO.N,/SignalProcessing/VDDA*%
X141342000Y-100575000D03*
%TO.N,/ExtInput/FootSwitchA_IN*%
X141274800Y-95046800D03*
X136906000Y-95758000D03*
%TO.N,/ExtInput/FootSwitchB_IN*%
X143847000Y-95548000D03*
%TO.N,/ExtInput/UserSwitchA_IN*%
X141351004Y-98540285D03*
X138430000Y-97536000D03*
%TO.N,/ExtInput/UserSwitchB_IN*%
X141351000Y-99313992D03*
X137668000Y-97536000D03*
%TO.N,/InputSignal/ADIN_MCLK*%
X157480000Y-109347000D03*
X157480000Y-111506000D03*
X156972000Y-136779000D03*
X155194000Y-136779000D03*
%TO.N,/InputSignal/ADIN_LRCK*%
X156210000Y-109347000D03*
X156210000Y-111506000D03*
%TO.N,+5V*%
X196659500Y-118046500D03*
X199707500Y-119316500D03*
X139700000Y-138811000D03*
%TD*%
D32*
%TO.N,/InputSignal/VQ*%
X189022500Y-123880500D02*
X189030500Y-123888500D01*
X187507500Y-123880500D02*
X189022500Y-123880500D01*
D33*
X189030500Y-123888500D02*
X189030500Y-121475500D01*
D34*
%TO.N,+3V3*%
X178630000Y-66664000D02*
X178630000Y-68521000D01*
D33*
X138176000Y-73152000D02*
X149098000Y-73152000D01*
X154178000Y-78232000D02*
X159004000Y-78232000D01*
X149098000Y-73152000D02*
X154178000Y-78232000D01*
D34*
X135890000Y-73152000D02*
X138176000Y-73152000D01*
X133604000Y-75438000D02*
X135890000Y-73152000D01*
X129540000Y-75438000D02*
X133604000Y-75438000D01*
X185928000Y-69215000D02*
X189738000Y-69215000D01*
X189738000Y-69215000D02*
X190754000Y-70231000D01*
X190754000Y-70231000D02*
X190754000Y-71882000D01*
X178435000Y-104140000D02*
X178435000Y-106172000D01*
D32*
X138811000Y-102625000D02*
X144898000Y-102625000D01*
X144898000Y-102625000D02*
X144907000Y-102616000D01*
X156972000Y-99187000D02*
X152019000Y-99187000D01*
X158750000Y-100965000D02*
X156972000Y-99187000D01*
X141284000Y-94548000D02*
X136846000Y-94548000D01*
D34*
X142270000Y-129286000D02*
X142270000Y-127224000D01*
X142270000Y-127224000D02*
X142240000Y-127254000D01*
X147320000Y-112522000D02*
X147320000Y-109220000D01*
D32*
%TO.N,/OutputSignal/VQ*%
X114935000Y-113665000D02*
X116450000Y-113665000D01*
D34*
X116450000Y-113665000D02*
X116450000Y-110490000D01*
D32*
%TO.N,/OutputSignal/FILT*%
X107314988Y-113030000D02*
X107315000Y-113030012D01*
X105800000Y-113030000D02*
X107314988Y-113030000D01*
%TO.N,/ExtInput/FootExp_IN*%
X157416500Y-100520500D02*
X156889000Y-101048000D01*
X156889000Y-101048000D02*
X143847000Y-101048000D01*
%TO.N,/SignalProcessing/RelayCoil_OUT*%
X142557500Y-118808500D02*
X142557500Y-103949500D01*
X139954000Y-122682000D02*
X139954000Y-121412000D01*
X139954000Y-121412000D02*
X142557500Y-118808500D01*
D33*
%TO.N,GNDPWR*%
X184658000Y-56134000D02*
X184150000Y-56134000D01*
X183855000Y-55839000D02*
X182165000Y-55839000D01*
X184150000Y-56134000D02*
X183855000Y-55839000D01*
X182165000Y-55839000D02*
X176195000Y-55839000D01*
X172870000Y-66539000D02*
X172870000Y-64874000D01*
X176195000Y-61549000D02*
X176195000Y-55839000D01*
X172870000Y-64874000D02*
X176195000Y-61549000D01*
X185547000Y-57023000D02*
X184658000Y-56134000D01*
X185547000Y-66314000D02*
X185547000Y-57023000D01*
X184190000Y-66314000D02*
X185547000Y-66314000D01*
D34*
%TO.N,Net-(J6-Pad10)*%
X172695000Y-56814000D02*
X170770000Y-56814000D01*
%TO.N,/MicroSD/uSD_D0*%
X181930000Y-66664000D02*
X181930000Y-64836000D01*
X181930000Y-64836000D02*
X181610000Y-64516000D01*
D32*
X181610000Y-78359000D02*
X181930000Y-78039000D01*
X181930000Y-78039000D02*
X181930000Y-66664000D01*
%TO.N,/MicroSD/uSD_CLK*%
X179324000Y-69342000D02*
X179730000Y-68936000D01*
X176784000Y-69342000D02*
X179324000Y-69342000D01*
X166243000Y-76454000D02*
X169672000Y-76454000D01*
X169672000Y-76454000D02*
X176784000Y-69342000D01*
X150086000Y-91285000D02*
X151412000Y-91285000D01*
X151412000Y-91285000D02*
X166243000Y-76454000D01*
X179730000Y-68936000D02*
X179730000Y-66664000D01*
D34*
%TO.N,/MicroSD/uSD_CMD*%
X177530000Y-66664000D02*
X177530000Y-65294000D01*
X177530000Y-65294000D02*
X178308000Y-64516000D01*
X178308000Y-64516000D02*
X179578000Y-64516000D01*
D32*
X151130000Y-90678000D02*
X165862000Y-75946000D01*
X149586000Y-90678000D02*
X151130000Y-90678000D01*
X165862000Y-75946000D02*
X169418000Y-75946000D01*
X177530000Y-67834000D02*
X177530000Y-66664000D01*
X169418000Y-75946000D02*
X177530000Y-67834000D01*
D34*
%TO.N,/MicroSD/uSD_D3*%
X176430000Y-66664000D02*
X176430000Y-64870000D01*
X176430000Y-64870000D02*
X176784002Y-64515998D01*
D32*
X176430000Y-68172000D02*
X176430000Y-66664000D01*
X169164000Y-75438000D02*
X176430000Y-68172000D01*
X150622000Y-89916000D02*
X151003000Y-89916000D01*
X151003000Y-89916000D02*
X165481000Y-75438000D01*
X165481000Y-75438000D02*
X169164000Y-75438000D01*
D34*
%TO.N,/MicroSD/uSD_D1*%
X182980000Y-66664000D02*
X182980000Y-65178000D01*
X182980000Y-65178000D02*
X183642000Y-64516000D01*
D32*
X182980000Y-66410000D02*
X183007000Y-66437000D01*
X182980000Y-79275000D02*
X182980000Y-66664000D01*
X182626000Y-79629000D02*
X182980000Y-79275000D01*
X180721000Y-79629000D02*
X182626000Y-79629000D01*
D34*
%TO.N,/MicroSD/uSD_D2*%
X175330000Y-64700000D02*
X175514000Y-64516000D01*
X175330000Y-66664000D02*
X175330000Y-64700000D01*
D32*
X175330000Y-68383000D02*
X175330000Y-66664000D01*
X151384000Y-88646000D02*
X165100000Y-74930000D01*
X165100000Y-74930000D02*
X168783000Y-74930000D01*
X168783000Y-74930000D02*
X175330000Y-68383000D01*
D34*
%TO.N,Net-(K1-Pad2)*%
X145574500Y-123063000D02*
X151714500Y-123063000D01*
%TO.N,/InputSignal/ADIN_SDOUT*%
X151384000Y-125222000D02*
X151257000Y-125349000D01*
D32*
X149784000Y-125298000D02*
X151660000Y-125298000D01*
X149352000Y-125730000D02*
X149784000Y-125298000D01*
X149352000Y-139192000D02*
X149352000Y-134366000D01*
X149352000Y-134366000D02*
X149352000Y-125730000D01*
%TO.N,/SignalRelay/FX_IN*%
X155575000Y-111506000D02*
X155575000Y-109347000D01*
D34*
X151714500Y-127416000D02*
X153416000Y-127416000D01*
%TO.N,/SignalRelay/FX_OUT*%
X145574500Y-127416000D02*
X147320000Y-127416000D01*
D32*
X154940000Y-111506000D02*
X154940000Y-109347000D01*
%TO.N,/OutputSignal/ADOUT_SDIN*%
X148336000Y-137668000D02*
X148336000Y-126492000D01*
X147142000Y-125298000D02*
X145520000Y-125298000D01*
X148336000Y-126492000D02*
X147142000Y-125298000D01*
%TO.N,/SignalProcessing/VDDA*%
X138811000Y-100575000D02*
X141342000Y-100575000D01*
%TO.N,/ExtInput/FootSwitchA_IN*%
X137617200Y-95046800D02*
X136906000Y-95758000D01*
X141274800Y-95046800D02*
X137617200Y-95046800D01*
%TO.N,/ExtInput/FootSwitchB_IN*%
X168148000Y-100838000D02*
X168148000Y-102108000D01*
X164592000Y-97282000D02*
X168148000Y-100838000D01*
X147320000Y-97282000D02*
X164592000Y-97282000D01*
X143847000Y-95548000D02*
X145586000Y-95548000D01*
X145586000Y-95548000D02*
X147320000Y-97282000D01*
%TO.N,/ExtInput/UserSwitchA_IN*%
X138430000Y-97536000D02*
X139434285Y-98540285D01*
X139434285Y-98540285D02*
X141351004Y-98540285D01*
%TO.N,/ExtInput/UserSwitchB_IN*%
X138429992Y-99313992D02*
X141351000Y-99313992D01*
X137668000Y-97536000D02*
X137668000Y-98552000D01*
X137668000Y-98552000D02*
X138429992Y-99313992D01*
%TO.N,/InputSignal/ADIN_MCLK*%
X157480000Y-111506000D02*
X157480000Y-109347000D01*
X155194000Y-136779000D02*
X156972000Y-136779000D01*
%TO.N,/InputSignal/ADIN_LRCK*%
X156210000Y-111506000D02*
X156210000Y-109347000D01*
D34*
%TO.N,+5V*%
X197167500Y-119316500D02*
X196659500Y-118808500D01*
X199707500Y-119316500D02*
X197167500Y-119316500D01*
X196659500Y-118808500D02*
X196659500Y-118046500D01*
X139700000Y-129316000D02*
X139670000Y-129286000D01*
X139700000Y-138811000D02*
X139700000Y-129316000D01*
D32*
%TO.N,Net-(D2-Pad1)*%
X151638000Y-119920000D02*
X151660000Y-119898000D01*
X151638000Y-121412000D02*
X151638000Y-119920000D01*
X142494000Y-121412000D02*
X151638000Y-121412000D01*
X141920000Y-122698000D02*
X141920000Y-121986000D01*
X141920000Y-121986000D02*
X142494000Y-121412000D01*
X151660000Y-116986000D02*
X149990000Y-115316000D01*
X151660000Y-119898000D02*
X151660000Y-116986000D01*
%TO.N,Net-(JP2-Pad2)*%
X140970000Y-129286000D02*
X140970000Y-124698000D01*
%TD*%
D35*
%TO.N,GND*%
G36*
X174606928Y-56514000D02*
G01*
X174619188Y-56638482D01*
X174655498Y-56758180D01*
X174714463Y-56868494D01*
X174793815Y-56965185D01*
X174890506Y-57044537D01*
X175000820Y-57103502D01*
X175060001Y-57121454D01*
X175060000Y-61078868D01*
X172106860Y-64032009D01*
X172063552Y-64067551D01*
X171921717Y-64240377D01*
X171886745Y-64305805D01*
X171816324Y-64437554D01*
X171780822Y-64554589D01*
X171751423Y-64651501D01*
X171747681Y-64689491D01*
X171729509Y-64874000D01*
X171735000Y-64929751D01*
X171735000Y-65337982D01*
X171643815Y-65412815D01*
X171564463Y-65509506D01*
X171505498Y-65619820D01*
X171469188Y-65739518D01*
X171456928Y-65864000D01*
X171456928Y-67214000D01*
X171469188Y-67338482D01*
X171505498Y-67458180D01*
X171564463Y-67568494D01*
X171643815Y-67665185D01*
X171740506Y-67744537D01*
X171850820Y-67803502D01*
X171970518Y-67839812D01*
X172095000Y-67852072D01*
X173645000Y-67852072D01*
X173769482Y-67839812D01*
X173889180Y-67803502D01*
X173999494Y-67744537D01*
X174096185Y-67665185D01*
X174175537Y-67568494D01*
X174234502Y-67458180D01*
X174270812Y-67338482D01*
X174275000Y-67295959D01*
X174279188Y-67338482D01*
X174315498Y-67458180D01*
X174374463Y-67568494D01*
X174453815Y-67665185D01*
X174550506Y-67744537D01*
X174570000Y-67754957D01*
X174570000Y-68068198D01*
X168468199Y-74170000D01*
X165137322Y-74170000D01*
X165099999Y-74166324D01*
X165062676Y-74170000D01*
X165062667Y-74170000D01*
X164951014Y-74180997D01*
X164807753Y-74224454D01*
X164675724Y-74295026D01*
X164559999Y-74389999D01*
X164536201Y-74418997D01*
X160530802Y-78424396D01*
X160539000Y-78383184D01*
X160539000Y-78080816D01*
X160480011Y-77784257D01*
X160364299Y-77504905D01*
X160196312Y-77253495D01*
X159982505Y-77039688D01*
X159896169Y-76982000D01*
X159982505Y-76924312D01*
X160196312Y-76710505D01*
X160364299Y-76459095D01*
X160480011Y-76179743D01*
X160539000Y-75883184D01*
X160539000Y-75580816D01*
X160480011Y-75284257D01*
X160364299Y-75004905D01*
X160196312Y-74753495D01*
X159982505Y-74539688D01*
X159896169Y-74482000D01*
X159982505Y-74424312D01*
X160196312Y-74210505D01*
X160364299Y-73959095D01*
X160480011Y-73679743D01*
X160539000Y-73383184D01*
X160539000Y-73080816D01*
X160480011Y-72784257D01*
X160364299Y-72504905D01*
X160196312Y-72253495D01*
X159982505Y-72039688D01*
X159731095Y-71871701D01*
X159451743Y-71755989D01*
X159155184Y-71697000D01*
X158852816Y-71697000D01*
X158556257Y-71755989D01*
X158276905Y-71871701D01*
X158025495Y-72039688D01*
X157811688Y-72253495D01*
X157643701Y-72504905D01*
X157527989Y-72784257D01*
X157469000Y-73080816D01*
X157469000Y-73383184D01*
X157527989Y-73679743D01*
X157643701Y-73959095D01*
X157811688Y-74210505D01*
X158025495Y-74424312D01*
X158111831Y-74482000D01*
X158025495Y-74539688D01*
X157811688Y-74753495D01*
X157643701Y-75004905D01*
X157527989Y-75284257D01*
X157469000Y-75580816D01*
X157469000Y-75883184D01*
X157527989Y-76179743D01*
X157643701Y-76459095D01*
X157811688Y-76710505D01*
X158025495Y-76924312D01*
X158111831Y-76982000D01*
X158025495Y-77039688D01*
X157968183Y-77097000D01*
X154648132Y-77097000D01*
X149939996Y-72388865D01*
X149904449Y-72345551D01*
X149731623Y-72203716D01*
X149534447Y-72098324D01*
X149320499Y-72033423D01*
X149153752Y-72017000D01*
X149153751Y-72017000D01*
X149098000Y-72011509D01*
X149042249Y-72017000D01*
X139211817Y-72017000D01*
X139154505Y-71959688D01*
X138903095Y-71791701D01*
X138623743Y-71675989D01*
X138327184Y-71617000D01*
X138024816Y-71617000D01*
X137728257Y-71675989D01*
X137448905Y-71791701D01*
X137197495Y-71959688D01*
X136983688Y-72173495D01*
X136921210Y-72267000D01*
X135933465Y-72267000D01*
X135889999Y-72262719D01*
X135846533Y-72267000D01*
X135846523Y-72267000D01*
X135716510Y-72279805D01*
X135549687Y-72330411D01*
X135395941Y-72412589D01*
X135395939Y-72412590D01*
X135395940Y-72412590D01*
X135294953Y-72495468D01*
X135294951Y-72495470D01*
X135261183Y-72523183D01*
X135233470Y-72556951D01*
X133237422Y-74553000D01*
X129496523Y-74553000D01*
X129366510Y-74565805D01*
X129199687Y-74616411D01*
X129045941Y-74698589D01*
X128911183Y-74809183D01*
X128800589Y-74943941D01*
X128718411Y-75097687D01*
X128667805Y-75264510D01*
X128650718Y-75438000D01*
X128667805Y-75611490D01*
X128718411Y-75778313D01*
X128800589Y-75932059D01*
X128911183Y-76066817D01*
X129045941Y-76177411D01*
X129199687Y-76259589D01*
X129366510Y-76310195D01*
X129496523Y-76323000D01*
X133560531Y-76323000D01*
X133604000Y-76327281D01*
X133647469Y-76323000D01*
X133647477Y-76323000D01*
X133777490Y-76310195D01*
X133944313Y-76259589D01*
X134098059Y-76177411D01*
X134232817Y-76066817D01*
X134260534Y-76033044D01*
X136256579Y-74037000D01*
X136921210Y-74037000D01*
X136983688Y-74130505D01*
X137197495Y-74344312D01*
X137283831Y-74402000D01*
X137197495Y-74459688D01*
X136983688Y-74673495D01*
X136815701Y-74924905D01*
X136699989Y-75204257D01*
X136641000Y-75500816D01*
X136641000Y-75803184D01*
X136699989Y-76099743D01*
X136815701Y-76379095D01*
X136983688Y-76630505D01*
X137197495Y-76844312D01*
X137283831Y-76902000D01*
X137197495Y-76959688D01*
X136983688Y-77173495D01*
X136815701Y-77424905D01*
X136699989Y-77704257D01*
X136641000Y-78000816D01*
X136641000Y-78303184D01*
X136699989Y-78599743D01*
X136815701Y-78879095D01*
X136983688Y-79130505D01*
X137197495Y-79344312D01*
X137448905Y-79512299D01*
X137728257Y-79628011D01*
X138024816Y-79687000D01*
X138327184Y-79687000D01*
X138623743Y-79628011D01*
X138903095Y-79512299D01*
X139154505Y-79344312D01*
X139368312Y-79130505D01*
X139536299Y-78879095D01*
X139652011Y-78599743D01*
X139711000Y-78303184D01*
X139711000Y-78000816D01*
X139652011Y-77704257D01*
X139536299Y-77424905D01*
X139368312Y-77173495D01*
X139154505Y-76959688D01*
X139068169Y-76902000D01*
X139154505Y-76844312D01*
X139368312Y-76630505D01*
X139536299Y-76379095D01*
X139652011Y-76099743D01*
X139711000Y-75803184D01*
X139711000Y-75500816D01*
X139652011Y-75204257D01*
X139536299Y-74924905D01*
X139368312Y-74673495D01*
X139154505Y-74459688D01*
X139068169Y-74402000D01*
X139154505Y-74344312D01*
X139211817Y-74287000D01*
X148627869Y-74287000D01*
X153336009Y-78995141D01*
X153371551Y-79038449D01*
X153512178Y-79153859D01*
X153544377Y-79180284D01*
X153741553Y-79285676D01*
X153955501Y-79350577D01*
X154178000Y-79372491D01*
X154233751Y-79367000D01*
X157968183Y-79367000D01*
X158025495Y-79424312D01*
X158276905Y-79592299D01*
X158556257Y-79708011D01*
X158852816Y-79767000D01*
X159155184Y-79767000D01*
X159196396Y-79758802D01*
X151136896Y-87818303D01*
X151133147Y-87819049D01*
X150976637Y-87883878D01*
X150835782Y-87977995D01*
X150715995Y-88097782D01*
X150621878Y-88238637D01*
X150557049Y-88395147D01*
X150524000Y-88561297D01*
X150524000Y-88730703D01*
X150557049Y-88896853D01*
X150621878Y-89053363D01*
X150623640Y-89056000D01*
X150537297Y-89056000D01*
X150371147Y-89089049D01*
X150214637Y-89153878D01*
X150073782Y-89247995D01*
X149953995Y-89367782D01*
X149859878Y-89508637D01*
X149795049Y-89665147D01*
X149762000Y-89831297D01*
X149762000Y-89836160D01*
X149670703Y-89818000D01*
X149501297Y-89818000D01*
X149335147Y-89851049D01*
X149178637Y-89915878D01*
X149037782Y-90009995D01*
X148917995Y-90129782D01*
X148823878Y-90270637D01*
X148759049Y-90427147D01*
X148726000Y-90593297D01*
X148726000Y-90762703D01*
X148759049Y-90928853D01*
X148823878Y-91085363D01*
X148917995Y-91226218D01*
X149037782Y-91346005D01*
X149178637Y-91440122D01*
X149245518Y-91467825D01*
X149259049Y-91535853D01*
X149323878Y-91692363D01*
X149417995Y-91833218D01*
X149537782Y-91953005D01*
X149678637Y-92047122D01*
X149835147Y-92111951D01*
X150001297Y-92145000D01*
X150170703Y-92145000D01*
X150336853Y-92111951D01*
X150493363Y-92047122D01*
X150496539Y-92045000D01*
X151374678Y-92045000D01*
X151412000Y-92048676D01*
X151449322Y-92045000D01*
X151449333Y-92045000D01*
X151560986Y-92034003D01*
X151704247Y-91990546D01*
X151836276Y-91919974D01*
X151952001Y-91825001D01*
X151975131Y-91796816D01*
X164581000Y-91796816D01*
X164581000Y-92099184D01*
X164639989Y-92395743D01*
X164755701Y-92675095D01*
X164923688Y-92926505D01*
X165024683Y-93027500D01*
X164923688Y-93128495D01*
X164755701Y-93379905D01*
X164639989Y-93659257D01*
X164581000Y-93955816D01*
X164581000Y-94258184D01*
X164639989Y-94554743D01*
X164755701Y-94834095D01*
X164923688Y-95085505D01*
X165137495Y-95299312D01*
X165388905Y-95467299D01*
X165668257Y-95583011D01*
X165964816Y-95642000D01*
X166267184Y-95642000D01*
X166563743Y-95583011D01*
X166843095Y-95467299D01*
X167094505Y-95299312D01*
X167308312Y-95085505D01*
X167476299Y-94834095D01*
X167592011Y-94554743D01*
X167651000Y-94258184D01*
X167651000Y-93955816D01*
X167592011Y-93659257D01*
X167476299Y-93379905D01*
X167345378Y-93183967D01*
X195278500Y-93183967D01*
X195278500Y-93506033D01*
X195341332Y-93821912D01*
X195464582Y-94119463D01*
X195643513Y-94387252D01*
X195871248Y-94614987D01*
X196139037Y-94793918D01*
X196436588Y-94917168D01*
X196752467Y-94980000D01*
X197074533Y-94980000D01*
X197390412Y-94917168D01*
X197687963Y-94793918D01*
X197955752Y-94614987D01*
X198183487Y-94387252D01*
X198362418Y-94119463D01*
X198485668Y-93821912D01*
X198548500Y-93506033D01*
X198548500Y-93183967D01*
X198485668Y-92868088D01*
X198362418Y-92570537D01*
X198183487Y-92302748D01*
X197955752Y-92075013D01*
X197687963Y-91896082D01*
X197390412Y-91772832D01*
X197074533Y-91710000D01*
X196752467Y-91710000D01*
X196436588Y-91772832D01*
X196139037Y-91896082D01*
X195871248Y-92075013D01*
X195643513Y-92302748D01*
X195464582Y-92570537D01*
X195341332Y-92868088D01*
X195278500Y-93183967D01*
X167345378Y-93183967D01*
X167308312Y-93128495D01*
X167207317Y-93027500D01*
X167308312Y-92926505D01*
X167476299Y-92675095D01*
X167592011Y-92395743D01*
X167651000Y-92099184D01*
X167651000Y-91796816D01*
X167592011Y-91500257D01*
X167476299Y-91220905D01*
X167308312Y-90969495D01*
X167094505Y-90755688D01*
X166843095Y-90587701D01*
X166563743Y-90471989D01*
X166267184Y-90413000D01*
X165964816Y-90413000D01*
X165668257Y-90471989D01*
X165388905Y-90587701D01*
X165137495Y-90755688D01*
X164923688Y-90969495D01*
X164755701Y-91220905D01*
X164639989Y-91500257D01*
X164581000Y-91796816D01*
X151975131Y-91796816D01*
X151975804Y-91795997D01*
X157041801Y-86730000D01*
X164577928Y-86730000D01*
X164577928Y-88530000D01*
X164590188Y-88654482D01*
X164626498Y-88774180D01*
X164685463Y-88884494D01*
X164764815Y-88981185D01*
X164861506Y-89060537D01*
X164971820Y-89119502D01*
X165091518Y-89155812D01*
X165216000Y-89168072D01*
X167016000Y-89168072D01*
X167140482Y-89155812D01*
X167260180Y-89119502D01*
X167370494Y-89060537D01*
X167467185Y-88981185D01*
X167546537Y-88884494D01*
X167605502Y-88774180D01*
X167641812Y-88654482D01*
X167654072Y-88530000D01*
X167654072Y-86730000D01*
X167641812Y-86605518D01*
X167605502Y-86485820D01*
X167546537Y-86375506D01*
X167467185Y-86278815D01*
X167370494Y-86199463D01*
X167260180Y-86140498D01*
X167140482Y-86104188D01*
X167016000Y-86091928D01*
X165216000Y-86091928D01*
X165091518Y-86104188D01*
X164971820Y-86140498D01*
X164861506Y-86199463D01*
X164764815Y-86278815D01*
X164685463Y-86375506D01*
X164626498Y-86485820D01*
X164590188Y-86605518D01*
X164577928Y-86730000D01*
X157041801Y-86730000D01*
X159527080Y-84244721D01*
X185253500Y-84244721D01*
X185253500Y-84665279D01*
X185335547Y-85077756D01*
X185496488Y-85466302D01*
X185730137Y-85815983D01*
X186027517Y-86113363D01*
X186377198Y-86347012D01*
X186765744Y-86507953D01*
X187178221Y-86590000D01*
X187598779Y-86590000D01*
X188011256Y-86507953D01*
X188399802Y-86347012D01*
X188749483Y-86113363D01*
X189046863Y-85815983D01*
X189280512Y-85466302D01*
X189441453Y-85077756D01*
X189523500Y-84665279D01*
X189523500Y-84293967D01*
X195278500Y-84293967D01*
X195278500Y-84616033D01*
X195341332Y-84931912D01*
X195464582Y-85229463D01*
X195643513Y-85497252D01*
X195871248Y-85724987D01*
X196139037Y-85903918D01*
X196436588Y-86027168D01*
X196752467Y-86090000D01*
X197074533Y-86090000D01*
X197390412Y-86027168D01*
X197687963Y-85903918D01*
X197955752Y-85724987D01*
X198183487Y-85497252D01*
X198362418Y-85229463D01*
X198485668Y-84931912D01*
X198548500Y-84616033D01*
X198548500Y-84293967D01*
X198485668Y-83978088D01*
X198362418Y-83680537D01*
X198183487Y-83412748D01*
X197955752Y-83185013D01*
X197687963Y-83006082D01*
X197390412Y-82882832D01*
X197074533Y-82820000D01*
X196752467Y-82820000D01*
X196436588Y-82882832D01*
X196139037Y-83006082D01*
X195871248Y-83185013D01*
X195643513Y-83412748D01*
X195464582Y-83680537D01*
X195341332Y-83978088D01*
X195278500Y-84293967D01*
X189523500Y-84293967D01*
X189523500Y-84244721D01*
X189441453Y-83832244D01*
X189280512Y-83443698D01*
X189046863Y-83094017D01*
X188749483Y-82796637D01*
X188399802Y-82562988D01*
X188011256Y-82402047D01*
X187598779Y-82320000D01*
X187178221Y-82320000D01*
X186765744Y-82402047D01*
X186377198Y-82562988D01*
X186027517Y-82796637D01*
X185730137Y-83094017D01*
X185496488Y-83443698D01*
X185335547Y-83832244D01*
X185253500Y-84244721D01*
X159527080Y-84244721D01*
X163948375Y-79823427D01*
X163869000Y-80222475D01*
X163869000Y-80741525D01*
X163970261Y-81250601D01*
X164168893Y-81730141D01*
X164457262Y-82161715D01*
X164824285Y-82528738D01*
X165255859Y-82817107D01*
X165735399Y-83015739D01*
X166244475Y-83117000D01*
X166763525Y-83117000D01*
X167272601Y-83015739D01*
X167752141Y-82817107D01*
X168183715Y-82528738D01*
X168550738Y-82161715D01*
X168839107Y-81730141D01*
X169037739Y-81250601D01*
X169139000Y-80741525D01*
X169139000Y-80222475D01*
X169037739Y-79713399D01*
X168839107Y-79233859D01*
X168550738Y-78802285D01*
X168183715Y-78435262D01*
X167752141Y-78146893D01*
X167272601Y-77948261D01*
X166763525Y-77847000D01*
X166244475Y-77847000D01*
X165845427Y-77926375D01*
X166557802Y-77214000D01*
X169634678Y-77214000D01*
X169672000Y-77217676D01*
X169709322Y-77214000D01*
X169709333Y-77214000D01*
X169820986Y-77203003D01*
X169964247Y-77159546D01*
X170096276Y-77088974D01*
X170212001Y-76994001D01*
X170235804Y-76964997D01*
X177098802Y-70102000D01*
X179286678Y-70102000D01*
X179324000Y-70105676D01*
X179361322Y-70102000D01*
X179361333Y-70102000D01*
X179472986Y-70091003D01*
X179616247Y-70047546D01*
X179748276Y-69976974D01*
X179864001Y-69882001D01*
X179887804Y-69852997D01*
X180240998Y-69499803D01*
X180270001Y-69476001D01*
X180364974Y-69360276D01*
X180435546Y-69228247D01*
X180479003Y-69084986D01*
X180490000Y-68973333D01*
X180490000Y-68973325D01*
X180493676Y-68936000D01*
X180490000Y-68898675D01*
X180490000Y-67754957D01*
X180509494Y-67744537D01*
X180606185Y-67665185D01*
X180685537Y-67568494D01*
X180744502Y-67458180D01*
X180780812Y-67338482D01*
X180793072Y-67214000D01*
X180793072Y-66114000D01*
X180780812Y-65989518D01*
X180744502Y-65869820D01*
X180685537Y-65759506D01*
X180606185Y-65662815D01*
X180509494Y-65583463D01*
X180399180Y-65524498D01*
X180279482Y-65488188D01*
X180155000Y-65475928D01*
X179305000Y-65475928D01*
X179180518Y-65488188D01*
X179180000Y-65488345D01*
X179179482Y-65488188D01*
X179055000Y-65475928D01*
X178599651Y-65475928D01*
X178674579Y-65401000D01*
X179621477Y-65401000D01*
X179751490Y-65388195D01*
X179918313Y-65337589D01*
X180072059Y-65255411D01*
X180206817Y-65144817D01*
X180317411Y-65010059D01*
X180399589Y-64856313D01*
X180450195Y-64689490D01*
X180467282Y-64516000D01*
X180450195Y-64342510D01*
X180399589Y-64175687D01*
X180317411Y-64021941D01*
X180206817Y-63887183D01*
X180072059Y-63776589D01*
X179918313Y-63694411D01*
X179751490Y-63643805D01*
X179621477Y-63631000D01*
X178351465Y-63631000D01*
X178307999Y-63626719D01*
X178264533Y-63631000D01*
X178264523Y-63631000D01*
X178134510Y-63643805D01*
X177967687Y-63694411D01*
X177813941Y-63776589D01*
X177813939Y-63776590D01*
X177813940Y-63776590D01*
X177712953Y-63859468D01*
X177712951Y-63859470D01*
X177679183Y-63887183D01*
X177651470Y-63920951D01*
X177532841Y-64039580D01*
X177523412Y-64021940D01*
X177412819Y-63887181D01*
X177278060Y-63776588D01*
X177124315Y-63694410D01*
X176957491Y-63643804D01*
X176784001Y-63626717D01*
X176610511Y-63643804D01*
X176443688Y-63694410D01*
X176289943Y-63776588D01*
X176188956Y-63859466D01*
X176151121Y-63897301D01*
X176142817Y-63887183D01*
X176008058Y-63776590D01*
X175854313Y-63694412D01*
X175701174Y-63647957D01*
X176958141Y-62390991D01*
X177001449Y-62355449D01*
X177143284Y-62182623D01*
X177248676Y-61985447D01*
X177313577Y-61771499D01*
X177330000Y-61604752D01*
X177330000Y-61604751D01*
X177335491Y-61549001D01*
X177330000Y-61493249D01*
X177330000Y-57121454D01*
X177389180Y-57103502D01*
X177499494Y-57044537D01*
X177585444Y-56974000D01*
X180774556Y-56974000D01*
X180860506Y-57044537D01*
X180970820Y-57103502D01*
X181090518Y-57139812D01*
X181215000Y-57152072D01*
X183115000Y-57152072D01*
X183239482Y-57139812D01*
X183359180Y-57103502D01*
X183469494Y-57044537D01*
X183469938Y-57044173D01*
X183516377Y-57082284D01*
X183713553Y-57187676D01*
X183904168Y-57245499D01*
X183927501Y-57252577D01*
X184149999Y-57274491D01*
X184189472Y-57270603D01*
X184412001Y-57493133D01*
X184412000Y-64079173D01*
X184381410Y-64021942D01*
X184270817Y-63887183D01*
X184136058Y-63776590D01*
X183982313Y-63694412D01*
X183815489Y-63643806D01*
X183641999Y-63626719D01*
X183468509Y-63643806D01*
X183301686Y-63694412D01*
X183147940Y-63776590D01*
X183046953Y-63859468D01*
X182622113Y-64284309D01*
X182558817Y-64207183D01*
X182525044Y-64179466D01*
X182205046Y-63859468D01*
X182104059Y-63776590D01*
X181950313Y-63694412D01*
X181783490Y-63643805D01*
X181610000Y-63626719D01*
X181436510Y-63643805D01*
X181269687Y-63694412D01*
X181115941Y-63776590D01*
X180981183Y-63887183D01*
X180870590Y-64021941D01*
X180788412Y-64175687D01*
X180737805Y-64342510D01*
X180720719Y-64516000D01*
X180737805Y-64689490D01*
X180788412Y-64856313D01*
X180870590Y-65010059D01*
X180953468Y-65111046D01*
X181045001Y-65202579D01*
X181045001Y-65673555D01*
X180974463Y-65759506D01*
X180915498Y-65869820D01*
X180879188Y-65989518D01*
X180866928Y-66114000D01*
X180866928Y-67214000D01*
X180879188Y-67338482D01*
X180915498Y-67458180D01*
X180974463Y-67568494D01*
X181053815Y-67665185D01*
X181150506Y-67744537D01*
X181170001Y-67754957D01*
X181170000Y-77618685D01*
X181061782Y-77690995D01*
X180941995Y-77810782D01*
X180847878Y-77951637D01*
X180783049Y-78108147D01*
X180750000Y-78274297D01*
X180750000Y-78443703D01*
X180783049Y-78609853D01*
X180847878Y-78766363D01*
X180856375Y-78779079D01*
X180805703Y-78769000D01*
X180636297Y-78769000D01*
X180470147Y-78802049D01*
X180313637Y-78866878D01*
X180172782Y-78960995D01*
X180052995Y-79080782D01*
X179958878Y-79221637D01*
X179894049Y-79378147D01*
X179861000Y-79544297D01*
X179861000Y-79713703D01*
X179894049Y-79879853D01*
X179958878Y-80036363D01*
X180052995Y-80177218D01*
X180172782Y-80297005D01*
X180313637Y-80391122D01*
X180470147Y-80455951D01*
X180636297Y-80489000D01*
X180805703Y-80489000D01*
X180971853Y-80455951D01*
X181128363Y-80391122D01*
X181131539Y-80389000D01*
X182588678Y-80389000D01*
X182626000Y-80392676D01*
X182663322Y-80389000D01*
X182663333Y-80389000D01*
X182774986Y-80378003D01*
X182918247Y-80334546D01*
X183050276Y-80263974D01*
X183166001Y-80169001D01*
X183189804Y-80139997D01*
X183490998Y-79838803D01*
X183520001Y-79815001D01*
X183614974Y-79699276D01*
X183685546Y-79567247D01*
X183729003Y-79423986D01*
X183740000Y-79312333D01*
X183740000Y-79312332D01*
X183743677Y-79275000D01*
X183740000Y-79237667D01*
X183740000Y-72863967D01*
X195278500Y-72863967D01*
X195278500Y-73186033D01*
X195341332Y-73501912D01*
X195464582Y-73799463D01*
X195643513Y-74067252D01*
X195871248Y-74294987D01*
X196139037Y-74473918D01*
X196436588Y-74597168D01*
X196752467Y-74660000D01*
X197074533Y-74660000D01*
X197390412Y-74597168D01*
X197687963Y-74473918D01*
X197955752Y-74294987D01*
X198183487Y-74067252D01*
X198362418Y-73799463D01*
X198485668Y-73501912D01*
X198548500Y-73186033D01*
X198548500Y-72863967D01*
X198485668Y-72548088D01*
X198362418Y-72250537D01*
X198183487Y-71982748D01*
X197955752Y-71755013D01*
X197687963Y-71576082D01*
X197390412Y-71452832D01*
X197074533Y-71390000D01*
X196752467Y-71390000D01*
X196436588Y-71452832D01*
X196139037Y-71576082D01*
X195871248Y-71755013D01*
X195643513Y-71982748D01*
X195464582Y-72250537D01*
X195341332Y-72548088D01*
X195278500Y-72863967D01*
X183740000Y-72863967D01*
X183740000Y-69215000D01*
X185038718Y-69215000D01*
X185055805Y-69388490D01*
X185106411Y-69555313D01*
X185188589Y-69709059D01*
X185299183Y-69843817D01*
X185433941Y-69954411D01*
X185587687Y-70036589D01*
X185754510Y-70087195D01*
X185884523Y-70100000D01*
X189371422Y-70100000D01*
X189869000Y-70597579D01*
X189869001Y-71925477D01*
X189881806Y-72055490D01*
X189932412Y-72222313D01*
X190014590Y-72376059D01*
X190125184Y-72510817D01*
X190259942Y-72621411D01*
X190413688Y-72703589D01*
X190580511Y-72754195D01*
X190754000Y-72771282D01*
X190927490Y-72754195D01*
X191094313Y-72703589D01*
X191248059Y-72621411D01*
X191382817Y-72510817D01*
X191493411Y-72376059D01*
X191575589Y-72222313D01*
X191626195Y-72055490D01*
X191639000Y-71925477D01*
X191639000Y-70274469D01*
X191643281Y-70231000D01*
X191639000Y-70187531D01*
X191639000Y-70187523D01*
X191626195Y-70057510D01*
X191623173Y-70047546D01*
X191601764Y-69976974D01*
X191575589Y-69890687D01*
X191493411Y-69736941D01*
X191382817Y-69602183D01*
X191349050Y-69574471D01*
X190394534Y-68619956D01*
X190366817Y-68586183D01*
X190232059Y-68475589D01*
X190078313Y-68393411D01*
X189911490Y-68342805D01*
X189781477Y-68330000D01*
X189781469Y-68330000D01*
X189738000Y-68325719D01*
X189694531Y-68330000D01*
X185884523Y-68330000D01*
X185754510Y-68342805D01*
X185587687Y-68393411D01*
X185433941Y-68475589D01*
X185299183Y-68586183D01*
X185188589Y-68720941D01*
X185106411Y-68874687D01*
X185055805Y-69041510D01*
X185038718Y-69215000D01*
X183740000Y-69215000D01*
X183740000Y-67852072D01*
X184775000Y-67852072D01*
X184899482Y-67839812D01*
X185019180Y-67803502D01*
X185129494Y-67744537D01*
X185226185Y-67665185D01*
X185305537Y-67568494D01*
X185364502Y-67458180D01*
X185367287Y-67449000D01*
X185491248Y-67449000D01*
X185547000Y-67454491D01*
X185602751Y-67449000D01*
X185602752Y-67449000D01*
X185769499Y-67432577D01*
X185983447Y-67367676D01*
X186180623Y-67262284D01*
X186353449Y-67120449D01*
X186495284Y-66947623D01*
X186600676Y-66750447D01*
X186665577Y-66536499D01*
X186687491Y-66314000D01*
X186682000Y-66258248D01*
X186682000Y-60439992D01*
X187770000Y-60439992D01*
X187770000Y-61353008D01*
X187948120Y-62248480D01*
X188297516Y-63091996D01*
X188804760Y-63851140D01*
X189450360Y-64496740D01*
X190209504Y-65003984D01*
X191053020Y-65353380D01*
X191948492Y-65531500D01*
X192861508Y-65531500D01*
X193756980Y-65353380D01*
X194600496Y-65003984D01*
X195359640Y-64496740D01*
X196005240Y-63851140D01*
X196512484Y-63091996D01*
X196861880Y-62248480D01*
X197040000Y-61353008D01*
X197040000Y-60439992D01*
X196861880Y-59544520D01*
X196512484Y-58701004D01*
X196005240Y-57941860D01*
X195359640Y-57296260D01*
X194600496Y-56789016D01*
X193756980Y-56439620D01*
X192861508Y-56261500D01*
X191948492Y-56261500D01*
X191053020Y-56439620D01*
X190209504Y-56789016D01*
X189450360Y-57296260D01*
X188804760Y-57941860D01*
X188297516Y-58701004D01*
X187948120Y-59544520D01*
X187770000Y-60439992D01*
X186682000Y-60439992D01*
X186682000Y-57078752D01*
X186687491Y-57023000D01*
X186665577Y-56800501D01*
X186600676Y-56586553D01*
X186495284Y-56389377D01*
X186438299Y-56319941D01*
X186353449Y-56216551D01*
X186310140Y-56181008D01*
X185499995Y-55370864D01*
X185464449Y-55327551D01*
X185316948Y-55206500D01*
X197846620Y-55206500D01*
X198095000Y-55454881D01*
X198095001Y-60292571D01*
X198091807Y-60325000D01*
X198104550Y-60454383D01*
X198142290Y-60578793D01*
X198203575Y-60693450D01*
X198286052Y-60793948D01*
X198386550Y-60876425D01*
X198501207Y-60937710D01*
X198625617Y-60975450D01*
X198722581Y-60985000D01*
X198755000Y-60988193D01*
X198787419Y-60985000D01*
X203942620Y-60985000D01*
X204191000Y-61233381D01*
X204191001Y-134346618D01*
X203942620Y-134595000D01*
X198787419Y-134595000D01*
X198755000Y-134591807D01*
X198722581Y-134595000D01*
X198625617Y-134604550D01*
X198501207Y-134642290D01*
X198386550Y-134703575D01*
X198286052Y-134786052D01*
X198203575Y-134886550D01*
X198142290Y-135001207D01*
X198104550Y-135125617D01*
X198091807Y-135255000D01*
X198095000Y-135287419D01*
X198095001Y-140061618D01*
X197846620Y-140310000D01*
X99333381Y-140310000D01*
X99085000Y-140061620D01*
X99085000Y-135350919D01*
X99088193Y-135318500D01*
X99075450Y-135189117D01*
X99037710Y-135064707D01*
X98976425Y-134950050D01*
X98893948Y-134849552D01*
X98793450Y-134767075D01*
X98678793Y-134705790D01*
X98554383Y-134668050D01*
X98457419Y-134658500D01*
X98425000Y-134655307D01*
X98392581Y-134658500D01*
X93237381Y-134658500D01*
X92989000Y-134410120D01*
X92989000Y-134163492D01*
X100140000Y-134163492D01*
X100140000Y-135076508D01*
X100318120Y-135971980D01*
X100667516Y-136815496D01*
X101174760Y-137574640D01*
X101820360Y-138220240D01*
X102579504Y-138727484D01*
X103423020Y-139076880D01*
X104318492Y-139255000D01*
X105231508Y-139255000D01*
X106126980Y-139076880D01*
X106970496Y-138727484D01*
X107729640Y-138220240D01*
X108375240Y-137574640D01*
X108882484Y-136815496D01*
X109231880Y-135971980D01*
X109410000Y-135076508D01*
X109410000Y-134163492D01*
X109231880Y-133268020D01*
X108882484Y-132424504D01*
X108375240Y-131665360D01*
X107729640Y-131019760D01*
X106970496Y-130512516D01*
X106126980Y-130163120D01*
X105231508Y-129985000D01*
X104318492Y-129985000D01*
X103423020Y-130163120D01*
X102579504Y-130512516D01*
X101820360Y-131019760D01*
X101174760Y-131665360D01*
X100667516Y-132424504D01*
X100318120Y-133268020D01*
X100140000Y-134163492D01*
X92989000Y-134163492D01*
X92989000Y-112579999D01*
X104586928Y-112579999D01*
X104586928Y-113480001D01*
X104603992Y-113653255D01*
X104654528Y-113819851D01*
X104736595Y-113973387D01*
X104847038Y-114107962D01*
X104981613Y-114218405D01*
X105135149Y-114300472D01*
X105301745Y-114351008D01*
X105474999Y-114368072D01*
X106125001Y-114368072D01*
X106298255Y-114351008D01*
X106464851Y-114300472D01*
X106618387Y-114218405D01*
X106752962Y-114107962D01*
X106863405Y-113973387D01*
X106945472Y-113819851D01*
X106948718Y-113809150D01*
X107064147Y-113856963D01*
X107230297Y-113890012D01*
X107399703Y-113890012D01*
X107565853Y-113856963D01*
X107722363Y-113792134D01*
X107863218Y-113698017D01*
X107980938Y-113580297D01*
X114075000Y-113580297D01*
X114075000Y-113749703D01*
X114108049Y-113915853D01*
X114172878Y-114072363D01*
X114266995Y-114213218D01*
X114386782Y-114333005D01*
X114527637Y-114427122D01*
X114684147Y-114491951D01*
X114850297Y-114525000D01*
X115019703Y-114525000D01*
X115185853Y-114491951D01*
X115301279Y-114444140D01*
X115304528Y-114454851D01*
X115386595Y-114608387D01*
X115497038Y-114742962D01*
X115631613Y-114853405D01*
X115785149Y-114935472D01*
X115951745Y-114986008D01*
X116124999Y-115003072D01*
X116775001Y-115003072D01*
X116948255Y-114986008D01*
X117114851Y-114935472D01*
X117268387Y-114853405D01*
X117402962Y-114742962D01*
X117513405Y-114608387D01*
X117595472Y-114454851D01*
X117646008Y-114288255D01*
X117663072Y-114115001D01*
X117663072Y-113214999D01*
X117646008Y-113041745D01*
X117595472Y-112875149D01*
X117513405Y-112721613D01*
X117402962Y-112587038D01*
X117335000Y-112531263D01*
X117335000Y-111623737D01*
X117402962Y-111567962D01*
X117513405Y-111433387D01*
X117595472Y-111279851D01*
X117646008Y-111113255D01*
X117663072Y-110940001D01*
X117663072Y-110039999D01*
X117646008Y-109866745D01*
X117595472Y-109700149D01*
X117513405Y-109546613D01*
X117402962Y-109412038D01*
X117268387Y-109301595D01*
X117114851Y-109219528D01*
X116948255Y-109168992D01*
X116775001Y-109151928D01*
X116124999Y-109151928D01*
X115951745Y-109168992D01*
X115785149Y-109219528D01*
X115631613Y-109301595D01*
X115497038Y-109412038D01*
X115386595Y-109546613D01*
X115304528Y-109700149D01*
X115253992Y-109866745D01*
X115236928Y-110039999D01*
X115236928Y-110940001D01*
X115253992Y-111113255D01*
X115304528Y-111279851D01*
X115386595Y-111433387D01*
X115497038Y-111567962D01*
X115565001Y-111623738D01*
X115565000Y-112531263D01*
X115497038Y-112587038D01*
X115386595Y-112721613D01*
X115304528Y-112875149D01*
X115301279Y-112885860D01*
X115185853Y-112838049D01*
X115019703Y-112805000D01*
X114850297Y-112805000D01*
X114684147Y-112838049D01*
X114527637Y-112902878D01*
X114386782Y-112996995D01*
X114266995Y-113116782D01*
X114172878Y-113257637D01*
X114108049Y-113414147D01*
X114075000Y-113580297D01*
X107980938Y-113580297D01*
X107983005Y-113578230D01*
X108077122Y-113437375D01*
X108141951Y-113280865D01*
X108175000Y-113114715D01*
X108175000Y-112945309D01*
X108141951Y-112779159D01*
X108077122Y-112622649D01*
X107983005Y-112481794D01*
X107863218Y-112362007D01*
X107722363Y-112267890D01*
X107565853Y-112203061D01*
X107399703Y-112170012D01*
X107230297Y-112170012D01*
X107064147Y-112203061D01*
X106948724Y-112250871D01*
X106945472Y-112240149D01*
X106863405Y-112086613D01*
X106752962Y-111952038D01*
X106618387Y-111841595D01*
X106464851Y-111759528D01*
X106298255Y-111708992D01*
X106125001Y-111691928D01*
X105474999Y-111691928D01*
X105301745Y-111708992D01*
X105135149Y-111759528D01*
X104981613Y-111841595D01*
X104847038Y-111952038D01*
X104736595Y-112086613D01*
X104654528Y-112240149D01*
X104603992Y-112406745D01*
X104586928Y-112579999D01*
X92989000Y-112579999D01*
X92989000Y-104613967D01*
X98377500Y-104613967D01*
X98377500Y-104936033D01*
X98440332Y-105251912D01*
X98563582Y-105549463D01*
X98742513Y-105817252D01*
X98970248Y-106044987D01*
X99238037Y-106223918D01*
X99535588Y-106347168D01*
X99851467Y-106410000D01*
X100173533Y-106410000D01*
X100489412Y-106347168D01*
X100786963Y-106223918D01*
X101054752Y-106044987D01*
X101282487Y-105817252D01*
X101461418Y-105549463D01*
X101476190Y-105513799D01*
X121841565Y-105513799D01*
X121845001Y-105548686D01*
X121845000Y-135958921D01*
X121841565Y-135993798D01*
X121855273Y-136132982D01*
X121895872Y-136266818D01*
X121961800Y-136390161D01*
X122050525Y-136498273D01*
X122146084Y-136576696D01*
X122158637Y-136586998D01*
X122281980Y-136652926D01*
X122415816Y-136693525D01*
X122555000Y-136707233D01*
X122589877Y-136703798D01*
X135977244Y-136703798D01*
X136012121Y-136707233D01*
X136046998Y-136703798D01*
X136143467Y-136694297D01*
X136151305Y-136693525D01*
X136285141Y-136652926D01*
X136408484Y-136586998D01*
X136516596Y-136498273D01*
X136605321Y-136390161D01*
X136671249Y-136266818D01*
X136711848Y-136132982D01*
X136722121Y-136028675D01*
X136722121Y-136028674D01*
X136725556Y-135993798D01*
X136722121Y-135958921D01*
X136722121Y-105548676D01*
X136725556Y-105513799D01*
X136711848Y-105374615D01*
X136671249Y-105240779D01*
X136605321Y-105117436D01*
X136516596Y-105009324D01*
X136408484Y-104920599D01*
X136285141Y-104854671D01*
X136151305Y-104814072D01*
X136046998Y-104803799D01*
X136012121Y-104800364D01*
X135977244Y-104803799D01*
X122589877Y-104803799D01*
X122555000Y-104800364D01*
X122520123Y-104803799D01*
X122415816Y-104814072D01*
X122281980Y-104854671D01*
X122158637Y-104920599D01*
X122050525Y-105009324D01*
X121961800Y-105117436D01*
X121895872Y-105240779D01*
X121855273Y-105374615D01*
X121841565Y-105513799D01*
X101476190Y-105513799D01*
X101584668Y-105251912D01*
X101647500Y-104936033D01*
X101647500Y-104613967D01*
X101584668Y-104298088D01*
X101461418Y-104000537D01*
X101282487Y-103732748D01*
X101054752Y-103505013D01*
X100786963Y-103326082D01*
X100489412Y-103202832D01*
X100173533Y-103140000D01*
X99851467Y-103140000D01*
X99535588Y-103202832D01*
X99238037Y-103326082D01*
X98970248Y-103505013D01*
X98742513Y-103732748D01*
X98563582Y-104000537D01*
X98440332Y-104298088D01*
X98377500Y-104613967D01*
X92989000Y-104613967D01*
X92989000Y-101961740D01*
X129706000Y-101961740D01*
X129706000Y-102254260D01*
X129763068Y-102541158D01*
X129875010Y-102811411D01*
X130037525Y-103054632D01*
X130244368Y-103261475D01*
X130487589Y-103423990D01*
X130757842Y-103535932D01*
X131044740Y-103593000D01*
X131337260Y-103593000D01*
X131624158Y-103535932D01*
X131894411Y-103423990D01*
X132137632Y-103261475D01*
X132344475Y-103054632D01*
X132506990Y-102811411D01*
X132618932Y-102541158D01*
X132676000Y-102254260D01*
X132676000Y-101961740D01*
X132618932Y-101674842D01*
X132506990Y-101404589D01*
X132344475Y-101161368D01*
X132137632Y-100954525D01*
X131894411Y-100792010D01*
X131624158Y-100680068D01*
X131337260Y-100623000D01*
X131044740Y-100623000D01*
X130757842Y-100680068D01*
X130487589Y-100792010D01*
X130244368Y-100954525D01*
X130037525Y-101161368D01*
X129875010Y-101404589D01*
X129763068Y-101674842D01*
X129706000Y-101961740D01*
X92989000Y-101961740D01*
X92989000Y-97451297D01*
X136808000Y-97451297D01*
X136808000Y-97620703D01*
X136841049Y-97786853D01*
X136905878Y-97943363D01*
X136908000Y-97946539D01*
X136908001Y-98514668D01*
X136904324Y-98552000D01*
X136908001Y-98589333D01*
X136909884Y-98608446D01*
X136918998Y-98700985D01*
X136962454Y-98844246D01*
X137033026Y-98976276D01*
X137104201Y-99063002D01*
X137128000Y-99092001D01*
X137156997Y-99115799D01*
X137701574Y-99660377D01*
X137622595Y-99756613D01*
X137540528Y-99910149D01*
X137489992Y-100076745D01*
X137472928Y-100249999D01*
X137472928Y-100900001D01*
X137489992Y-101073255D01*
X137540528Y-101239851D01*
X137622595Y-101393387D01*
X137733038Y-101527962D01*
X137820816Y-101600000D01*
X137733038Y-101672038D01*
X137622595Y-101806613D01*
X137540528Y-101960149D01*
X137489992Y-102126745D01*
X137472928Y-102299999D01*
X137472928Y-102950001D01*
X137489992Y-103123255D01*
X137540528Y-103289851D01*
X137622595Y-103443387D01*
X137733038Y-103577962D01*
X137867613Y-103688405D01*
X138021149Y-103770472D01*
X138187745Y-103821008D01*
X138360999Y-103838072D01*
X139261001Y-103838072D01*
X139434255Y-103821008D01*
X139600851Y-103770472D01*
X139754387Y-103688405D01*
X139888962Y-103577962D01*
X139999405Y-103443387D01*
X140030614Y-103385000D01*
X141905777Y-103385000D01*
X141889495Y-103401282D01*
X141795378Y-103542137D01*
X141730549Y-103698647D01*
X141697500Y-103864797D01*
X141697500Y-104034203D01*
X141730549Y-104200353D01*
X141795378Y-104356863D01*
X141797501Y-104360040D01*
X141797500Y-118493698D01*
X139442998Y-120848201D01*
X139414000Y-120871999D01*
X139390202Y-120900997D01*
X139390201Y-120900998D01*
X139319026Y-120987724D01*
X139248454Y-121119754D01*
X139218180Y-121219558D01*
X139204998Y-121263014D01*
X139194001Y-121374667D01*
X139190324Y-121412000D01*
X139194001Y-121449332D01*
X139194001Y-121776146D01*
X139168815Y-121796815D01*
X139089463Y-121893506D01*
X139030498Y-122003820D01*
X138994188Y-122123518D01*
X138981928Y-122248000D01*
X138981928Y-123148000D01*
X138994188Y-123272482D01*
X139030498Y-123392180D01*
X139089463Y-123502494D01*
X139168815Y-123599185D01*
X139265506Y-123678537D01*
X139375820Y-123737502D01*
X139495518Y-123773812D01*
X139620000Y-123786072D01*
X140131905Y-123786072D01*
X140118815Y-123796815D01*
X140039463Y-123893506D01*
X139980498Y-124003820D01*
X139944188Y-124123518D01*
X139931928Y-124248000D01*
X139931928Y-125148000D01*
X139944188Y-125272482D01*
X139980498Y-125392180D01*
X140039463Y-125502494D01*
X140118815Y-125599185D01*
X140210001Y-125674019D01*
X140210000Y-127901868D01*
X140170000Y-127897928D01*
X139170000Y-127897928D01*
X139045518Y-127910188D01*
X138925820Y-127946498D01*
X138815506Y-128005463D01*
X138718815Y-128084815D01*
X138639463Y-128181506D01*
X138580498Y-128291820D01*
X138544188Y-128411518D01*
X138531928Y-128536000D01*
X138531928Y-130036000D01*
X138544188Y-130160482D01*
X138580498Y-130280180D01*
X138639463Y-130390494D01*
X138718815Y-130487185D01*
X138815001Y-130566122D01*
X138815000Y-138854476D01*
X138827805Y-138984489D01*
X138878411Y-139151312D01*
X138960589Y-139305058D01*
X139071183Y-139439817D01*
X139205941Y-139550411D01*
X139359687Y-139632589D01*
X139526510Y-139683195D01*
X139700000Y-139700282D01*
X139873489Y-139683195D01*
X140040312Y-139632589D01*
X140194058Y-139550411D01*
X140328817Y-139439817D01*
X140439411Y-139305059D01*
X140521589Y-139151313D01*
X140572195Y-138984490D01*
X140585000Y-138854477D01*
X140585000Y-130674072D01*
X141470000Y-130674072D01*
X141594482Y-130661812D01*
X141620000Y-130654071D01*
X141645518Y-130661812D01*
X141770000Y-130674072D01*
X142770000Y-130674072D01*
X142894482Y-130661812D01*
X143014180Y-130625502D01*
X143124494Y-130566537D01*
X143221185Y-130487185D01*
X143300537Y-130390494D01*
X143359502Y-130280180D01*
X143395812Y-130160482D01*
X143408072Y-130036000D01*
X143408072Y-128536000D01*
X143395812Y-128411518D01*
X143359502Y-128291820D01*
X143300537Y-128181506D01*
X143221185Y-128084815D01*
X143155000Y-128030499D01*
X143155000Y-127267467D01*
X143159281Y-127224001D01*
X143155000Y-127180535D01*
X143155000Y-127180523D01*
X143142195Y-127050510D01*
X143091589Y-126883687D01*
X143009411Y-126729941D01*
X142898817Y-126595183D01*
X142764059Y-126484589D01*
X142610313Y-126402411D01*
X142443490Y-126351805D01*
X142270000Y-126334718D01*
X142096511Y-126351805D01*
X141929688Y-126402411D01*
X141775942Y-126484589D01*
X141766912Y-126492000D01*
X141730000Y-126522293D01*
X141730000Y-125674018D01*
X141821185Y-125599185D01*
X141900537Y-125502494D01*
X141959502Y-125392180D01*
X141995812Y-125272482D01*
X142008072Y-125148000D01*
X142008072Y-125098000D01*
X143851928Y-125098000D01*
X143851928Y-125498000D01*
X143868031Y-125661500D01*
X143915722Y-125818716D01*
X143993169Y-125963608D01*
X144097394Y-126090606D01*
X144224392Y-126194831D01*
X144369284Y-126272278D01*
X144526500Y-126319969D01*
X144690000Y-126336072D01*
X146350000Y-126336072D01*
X146513500Y-126319969D01*
X146670716Y-126272278D01*
X146815608Y-126194831D01*
X146897128Y-126127929D01*
X147300198Y-126531000D01*
X146684332Y-126531000D01*
X146670716Y-126523722D01*
X146513500Y-126476031D01*
X146350000Y-126459928D01*
X144690000Y-126459928D01*
X144526500Y-126476031D01*
X144369284Y-126523722D01*
X144224392Y-126601169D01*
X144097394Y-126705394D01*
X143993169Y-126832392D01*
X143915722Y-126977284D01*
X143868031Y-127134500D01*
X143851928Y-127298000D01*
X143851928Y-127698000D01*
X143868031Y-127861500D01*
X143915722Y-128018716D01*
X143993169Y-128163608D01*
X144097394Y-128290606D01*
X144224392Y-128394831D01*
X144369284Y-128472278D01*
X144526500Y-128519969D01*
X144690000Y-128536072D01*
X146350000Y-128536072D01*
X146513500Y-128519969D01*
X146670716Y-128472278D01*
X146815608Y-128394831D01*
X146929941Y-128301000D01*
X147363477Y-128301000D01*
X147493490Y-128288195D01*
X147576001Y-128263165D01*
X147576000Y-137257461D01*
X147573878Y-137260637D01*
X147509049Y-137417147D01*
X147476000Y-137583297D01*
X147476000Y-137752703D01*
X147509049Y-137918853D01*
X147573878Y-138075363D01*
X147667995Y-138216218D01*
X147787782Y-138336005D01*
X147928637Y-138430122D01*
X148085147Y-138494951D01*
X148251297Y-138528000D01*
X148420703Y-138528000D01*
X148586853Y-138494951D01*
X148592000Y-138492819D01*
X148592000Y-138781461D01*
X148589878Y-138784637D01*
X148525049Y-138941147D01*
X148492000Y-139107297D01*
X148492000Y-139276703D01*
X148525049Y-139442853D01*
X148589878Y-139599363D01*
X148683995Y-139740218D01*
X148803782Y-139860005D01*
X148944637Y-139954122D01*
X149101147Y-140018951D01*
X149267297Y-140052000D01*
X149436703Y-140052000D01*
X149602853Y-140018951D01*
X149759363Y-139954122D01*
X149900218Y-139860005D01*
X150020005Y-139740218D01*
X150114122Y-139599363D01*
X150178951Y-139442853D01*
X150212000Y-139276703D01*
X150212000Y-139107297D01*
X150178951Y-138941147D01*
X150114122Y-138784637D01*
X150112000Y-138781461D01*
X150112000Y-136694297D01*
X154334000Y-136694297D01*
X154334000Y-136863703D01*
X154367049Y-137029853D01*
X154431878Y-137186363D01*
X154525995Y-137327218D01*
X154645782Y-137447005D01*
X154786637Y-137541122D01*
X154943147Y-137605951D01*
X155109297Y-137639000D01*
X155278703Y-137639000D01*
X155444853Y-137605951D01*
X155601363Y-137541122D01*
X155604539Y-137539000D01*
X156561461Y-137539000D01*
X156564637Y-137541122D01*
X156721147Y-137605951D01*
X156887297Y-137639000D01*
X157056703Y-137639000D01*
X157222853Y-137605951D01*
X157379363Y-137541122D01*
X157520218Y-137447005D01*
X157640005Y-137327218D01*
X157734122Y-137186363D01*
X157798951Y-137029853D01*
X157832000Y-136863703D01*
X157832000Y-136694297D01*
X157798951Y-136528147D01*
X157734122Y-136371637D01*
X157640005Y-136230782D01*
X157520218Y-136110995D01*
X157379363Y-136016878D01*
X157222853Y-135952049D01*
X157056703Y-135919000D01*
X156887297Y-135919000D01*
X156721147Y-135952049D01*
X156564637Y-136016878D01*
X156561461Y-136019000D01*
X155604539Y-136019000D01*
X155601363Y-136016878D01*
X155444853Y-135952049D01*
X155278703Y-135919000D01*
X155109297Y-135919000D01*
X154943147Y-135952049D01*
X154786637Y-136016878D01*
X154645782Y-136110995D01*
X154525995Y-136230782D01*
X154431878Y-136371637D01*
X154367049Y-136528147D01*
X154334000Y-136694297D01*
X150112000Y-136694297D01*
X150112000Y-128124004D01*
X150133169Y-128163608D01*
X150237394Y-128290606D01*
X150364392Y-128394831D01*
X150509284Y-128472278D01*
X150666500Y-128519969D01*
X150830000Y-128536072D01*
X152490000Y-128536072D01*
X152653500Y-128519969D01*
X152810716Y-128472278D01*
X152955608Y-128394831D01*
X153069941Y-128301000D01*
X153459477Y-128301000D01*
X153589490Y-128288195D01*
X153756313Y-128237589D01*
X153910059Y-128155411D01*
X154044817Y-128044817D01*
X154155411Y-127910059D01*
X154237589Y-127756313D01*
X154288195Y-127589490D01*
X154305282Y-127416000D01*
X154288195Y-127242510D01*
X154237589Y-127075687D01*
X154155411Y-126921941D01*
X154044817Y-126787183D01*
X153910059Y-126676589D01*
X153756313Y-126594411D01*
X153589490Y-126543805D01*
X153459477Y-126531000D01*
X152824332Y-126531000D01*
X152810716Y-126523722D01*
X152653500Y-126476031D01*
X152490000Y-126459928D01*
X150830000Y-126459928D01*
X150666500Y-126476031D01*
X150509284Y-126523722D01*
X150364392Y-126601169D01*
X150237394Y-126705394D01*
X150133169Y-126832392D01*
X150112000Y-126871996D01*
X150112000Y-126058000D01*
X150210635Y-126058000D01*
X150237394Y-126090606D01*
X150364392Y-126194831D01*
X150509284Y-126272278D01*
X150666500Y-126319969D01*
X150830000Y-126336072D01*
X152490000Y-126336072D01*
X152653500Y-126319969D01*
X152810716Y-126272278D01*
X152955608Y-126194831D01*
X153082606Y-126090606D01*
X153186831Y-125963608D01*
X153264278Y-125818716D01*
X153311969Y-125661500D01*
X153328072Y-125498000D01*
X153328072Y-125098000D01*
X153311969Y-124934500D01*
X153264278Y-124777284D01*
X153186831Y-124632392D01*
X153082606Y-124505394D01*
X152955608Y-124401169D01*
X152810716Y-124323722D01*
X152653500Y-124276031D01*
X152490000Y-124259928D01*
X150830000Y-124259928D01*
X150666500Y-124276031D01*
X150509284Y-124323722D01*
X150364392Y-124401169D01*
X150237394Y-124505394D01*
X150210635Y-124538000D01*
X149821322Y-124538000D01*
X149783999Y-124534324D01*
X149746676Y-124538000D01*
X149746667Y-124538000D01*
X149635014Y-124548997D01*
X149491753Y-124592454D01*
X149359724Y-124663026D01*
X149243999Y-124757999D01*
X149220196Y-124787003D01*
X148840998Y-125166201D01*
X148812000Y-125189999D01*
X148788202Y-125218997D01*
X148788201Y-125218998D01*
X148717026Y-125305724D01*
X148646454Y-125437754D01*
X148602998Y-125581015D01*
X148593747Y-125674945D01*
X147705804Y-124787003D01*
X147682001Y-124757999D01*
X147566276Y-124663026D01*
X147434247Y-124592454D01*
X147290986Y-124548997D01*
X147179333Y-124538000D01*
X147179322Y-124538000D01*
X147142000Y-124534324D01*
X147104678Y-124538000D01*
X146969365Y-124538000D01*
X146942606Y-124505394D01*
X146815608Y-124401169D01*
X146670716Y-124323722D01*
X146513500Y-124276031D01*
X146350000Y-124259928D01*
X144690000Y-124259928D01*
X144526500Y-124276031D01*
X144369284Y-124323722D01*
X144224392Y-124401169D01*
X144097394Y-124505394D01*
X143993169Y-124632392D01*
X143915722Y-124777284D01*
X143868031Y-124934500D01*
X143851928Y-125098000D01*
X142008072Y-125098000D01*
X142008072Y-124248000D01*
X141995812Y-124123518D01*
X141959502Y-124003820D01*
X141900537Y-123893506D01*
X141821185Y-123796815D01*
X141808095Y-123786072D01*
X142320000Y-123786072D01*
X142444482Y-123773812D01*
X142564180Y-123737502D01*
X142674494Y-123678537D01*
X142771185Y-123599185D01*
X142850537Y-123502494D01*
X142909502Y-123392180D01*
X142945812Y-123272482D01*
X142958072Y-123148000D01*
X142958072Y-122248000D01*
X142950587Y-122172000D01*
X144278963Y-122172000D01*
X144224392Y-122201169D01*
X144097394Y-122305394D01*
X143993169Y-122432392D01*
X143915722Y-122577284D01*
X143868031Y-122734500D01*
X143851928Y-122898000D01*
X143851928Y-123298000D01*
X143868031Y-123461500D01*
X143915722Y-123618716D01*
X143993169Y-123763608D01*
X144097394Y-123890606D01*
X144224392Y-123994831D01*
X144369284Y-124072278D01*
X144526500Y-124119969D01*
X144690000Y-124136072D01*
X146350000Y-124136072D01*
X146513500Y-124119969D01*
X146670716Y-124072278D01*
X146815608Y-123994831D01*
X146872672Y-123948000D01*
X150307328Y-123948000D01*
X150364392Y-123994831D01*
X150509284Y-124072278D01*
X150666500Y-124119969D01*
X150830000Y-124136072D01*
X152490000Y-124136072D01*
X152653500Y-124119969D01*
X152810716Y-124072278D01*
X152955608Y-123994831D01*
X153082606Y-123890606D01*
X153186831Y-123763608D01*
X153264278Y-123618716D01*
X153311969Y-123461500D01*
X153328072Y-123298000D01*
X153328072Y-122898000D01*
X153311969Y-122734500D01*
X153264278Y-122577284D01*
X153186831Y-122432392D01*
X153082606Y-122305394D01*
X152955608Y-122201169D01*
X152810716Y-122123722D01*
X152653500Y-122076031D01*
X152490000Y-122059928D01*
X152038041Y-122059928D01*
X152062276Y-122046974D01*
X152178001Y-121952001D01*
X152272974Y-121836276D01*
X152343546Y-121704247D01*
X152387003Y-121560986D01*
X152401677Y-121412000D01*
X152398000Y-121374667D01*
X152398000Y-120936072D01*
X152490000Y-120936072D01*
X152653500Y-120919969D01*
X152810716Y-120872278D01*
X152955608Y-120794831D01*
X153082606Y-120690606D01*
X153186831Y-120563608D01*
X153264278Y-120418716D01*
X153311969Y-120261500D01*
X153328072Y-120098000D01*
X153328072Y-119698000D01*
X153311969Y-119534500D01*
X153264278Y-119377284D01*
X153186831Y-119232392D01*
X153082606Y-119105394D01*
X152955608Y-119001169D01*
X152810716Y-118923722D01*
X152653500Y-118876031D01*
X152490000Y-118859928D01*
X152420000Y-118859928D01*
X152420000Y-117023325D01*
X152423676Y-116986000D01*
X152420000Y-116948675D01*
X152420000Y-116948667D01*
X152409003Y-116837014D01*
X152365546Y-116693753D01*
X152294974Y-116561724D01*
X152200001Y-116445999D01*
X152171003Y-116422201D01*
X151178072Y-115429271D01*
X151178072Y-114766000D01*
X151165812Y-114641518D01*
X151129502Y-114521820D01*
X151070537Y-114411506D01*
X150991185Y-114314815D01*
X150894494Y-114235463D01*
X150784180Y-114176498D01*
X150664482Y-114140188D01*
X150540000Y-114127928D01*
X149440000Y-114127928D01*
X149315518Y-114140188D01*
X149195820Y-114176498D01*
X149085506Y-114235463D01*
X148988815Y-114314815D01*
X148909463Y-114411506D01*
X148850498Y-114521820D01*
X148814188Y-114641518D01*
X148801928Y-114766000D01*
X148801928Y-115866000D01*
X148814188Y-115990482D01*
X148850498Y-116110180D01*
X148909463Y-116220494D01*
X148988815Y-116317185D01*
X149085506Y-116396537D01*
X149195820Y-116455502D01*
X149315518Y-116491812D01*
X149440000Y-116504072D01*
X150103271Y-116504072D01*
X150900001Y-117300803D01*
X150900000Y-118859928D01*
X150830000Y-118859928D01*
X150666500Y-118876031D01*
X150509284Y-118923722D01*
X150364392Y-119001169D01*
X150237394Y-119105394D01*
X150133169Y-119232392D01*
X150055722Y-119377284D01*
X150008031Y-119534500D01*
X149991928Y-119698000D01*
X149991928Y-120098000D01*
X150008031Y-120261500D01*
X150055722Y-120418716D01*
X150133169Y-120563608D01*
X150205711Y-120652000D01*
X142531333Y-120652000D01*
X142494000Y-120648323D01*
X142456667Y-120652000D01*
X142345014Y-120662997D01*
X142201753Y-120706454D01*
X142069724Y-120777026D01*
X141953999Y-120871999D01*
X141930200Y-120900998D01*
X141408998Y-121422201D01*
X141380000Y-121445999D01*
X141356202Y-121474997D01*
X141356201Y-121474998D01*
X141285026Y-121561724D01*
X141216291Y-121690317D01*
X141165506Y-121717463D01*
X141068815Y-121796815D01*
X140989463Y-121893506D01*
X140970000Y-121929918D01*
X140950537Y-121893506D01*
X140871185Y-121796815D01*
X140774494Y-121717463D01*
X140741157Y-121699644D01*
X143068504Y-119372298D01*
X143097501Y-119348501D01*
X143135205Y-119302559D01*
X143192474Y-119232777D01*
X143263046Y-119100747D01*
X143273693Y-119065647D01*
X143306503Y-118957486D01*
X143317500Y-118845833D01*
X143317500Y-118845823D01*
X143321176Y-118808501D01*
X143317500Y-118771178D01*
X143317500Y-112565476D01*
X146435000Y-112565476D01*
X146447805Y-112695489D01*
X146498411Y-112862312D01*
X146580589Y-113016058D01*
X146691183Y-113150817D01*
X146825941Y-113261411D01*
X146979687Y-113343589D01*
X147146510Y-113394195D01*
X147320000Y-113411282D01*
X147493489Y-113394195D01*
X147660312Y-113343589D01*
X147814058Y-113261411D01*
X147948817Y-113150817D01*
X148059411Y-113016059D01*
X148141589Y-112862313D01*
X148192195Y-112695490D01*
X148205000Y-112565477D01*
X148205000Y-109262297D01*
X154080000Y-109262297D01*
X154080000Y-109431703D01*
X154113049Y-109597853D01*
X154177878Y-109754363D01*
X154180001Y-109757540D01*
X154180000Y-111095461D01*
X154177878Y-111098637D01*
X154113049Y-111255147D01*
X154080000Y-111421297D01*
X154080000Y-111590703D01*
X154113049Y-111756853D01*
X154177878Y-111913363D01*
X154271995Y-112054218D01*
X154391782Y-112174005D01*
X154532637Y-112268122D01*
X154689147Y-112332951D01*
X154855297Y-112366000D01*
X155024703Y-112366000D01*
X155190853Y-112332951D01*
X155257500Y-112305345D01*
X155324147Y-112332951D01*
X155490297Y-112366000D01*
X155659703Y-112366000D01*
X155825853Y-112332951D01*
X155892500Y-112305345D01*
X155959147Y-112332951D01*
X156125297Y-112366000D01*
X156294703Y-112366000D01*
X156460853Y-112332951D01*
X156617363Y-112268122D01*
X156758218Y-112174005D01*
X156845000Y-112087223D01*
X156931782Y-112174005D01*
X157072637Y-112268122D01*
X157229147Y-112332951D01*
X157395297Y-112366000D01*
X157564703Y-112366000D01*
X157730853Y-112332951D01*
X157887363Y-112268122D01*
X158028218Y-112174005D01*
X158148005Y-112054218D01*
X158242122Y-111913363D01*
X158306951Y-111756853D01*
X158340000Y-111590703D01*
X158340000Y-111421297D01*
X158306951Y-111255147D01*
X158242122Y-111098637D01*
X158240000Y-111095461D01*
X158240000Y-109757539D01*
X158242122Y-109754363D01*
X158306951Y-109597853D01*
X158340000Y-109431703D01*
X158340000Y-109262297D01*
X158306951Y-109096147D01*
X158242122Y-108939637D01*
X158148005Y-108798782D01*
X158028218Y-108678995D01*
X157887363Y-108584878D01*
X157730853Y-108520049D01*
X157564703Y-108487000D01*
X157395297Y-108487000D01*
X157229147Y-108520049D01*
X157072637Y-108584878D01*
X156931782Y-108678995D01*
X156845000Y-108765777D01*
X156758218Y-108678995D01*
X156617363Y-108584878D01*
X156460853Y-108520049D01*
X156294703Y-108487000D01*
X156125297Y-108487000D01*
X155959147Y-108520049D01*
X155892500Y-108547655D01*
X155825853Y-108520049D01*
X155659703Y-108487000D01*
X155490297Y-108487000D01*
X155324147Y-108520049D01*
X155257500Y-108547655D01*
X155190853Y-108520049D01*
X155024703Y-108487000D01*
X154855297Y-108487000D01*
X154689147Y-108520049D01*
X154532637Y-108584878D01*
X154391782Y-108678995D01*
X154271995Y-108798782D01*
X154177878Y-108939637D01*
X154113049Y-109096147D01*
X154080000Y-109262297D01*
X148205000Y-109262297D01*
X148205000Y-109176523D01*
X148192195Y-109046510D01*
X148141589Y-108879687D01*
X148059411Y-108725941D01*
X147948817Y-108591183D01*
X147814059Y-108480589D01*
X147660313Y-108398411D01*
X147493490Y-108347805D01*
X147320000Y-108330718D01*
X147146511Y-108347805D01*
X146979688Y-108398411D01*
X146825942Y-108480589D01*
X146691184Y-108591183D01*
X146580590Y-108725941D01*
X146498412Y-108879687D01*
X146447806Y-109046510D01*
X146435001Y-109176523D01*
X146435000Y-112565476D01*
X143317500Y-112565476D01*
X143317500Y-105203533D01*
X160677441Y-105203533D01*
X160680877Y-105238420D01*
X160680876Y-135648655D01*
X160677441Y-135683532D01*
X160691149Y-135822716D01*
X160731748Y-135956552D01*
X160797676Y-136079895D01*
X160886401Y-136188007D01*
X160982432Y-136266817D01*
X160994513Y-136276732D01*
X161117856Y-136342660D01*
X161251692Y-136383259D01*
X161390876Y-136396967D01*
X161425753Y-136393532D01*
X174844123Y-136393532D01*
X174879000Y-136396967D01*
X174913877Y-136393532D01*
X174948105Y-136390161D01*
X175018184Y-136383259D01*
X175152020Y-136342660D01*
X175275363Y-136276732D01*
X175383475Y-136188007D01*
X175472200Y-136079895D01*
X175538128Y-135956552D01*
X175578727Y-135822716D01*
X175589000Y-135718409D01*
X175589000Y-135718408D01*
X175592435Y-135683532D01*
X175589000Y-135648655D01*
X175589000Y-134163492D01*
X187770000Y-134163492D01*
X187770000Y-135076508D01*
X187948120Y-135971980D01*
X188297516Y-136815496D01*
X188804760Y-137574640D01*
X189450360Y-138220240D01*
X190209504Y-138727484D01*
X191053020Y-139076880D01*
X191948492Y-139255000D01*
X192861508Y-139255000D01*
X193756980Y-139076880D01*
X194600496Y-138727484D01*
X195359640Y-138220240D01*
X196005240Y-137574640D01*
X196512484Y-136815496D01*
X196861880Y-135971980D01*
X197040000Y-135076508D01*
X197040000Y-134163492D01*
X196861880Y-133268020D01*
X196512484Y-132424504D01*
X196005240Y-131665360D01*
X195359640Y-131019760D01*
X194600496Y-130512516D01*
X193756980Y-130163120D01*
X192861508Y-129985000D01*
X191948492Y-129985000D01*
X191053020Y-130163120D01*
X190209504Y-130512516D01*
X189450360Y-131019760D01*
X188804760Y-131665360D01*
X188297516Y-132424504D01*
X187948120Y-133268020D01*
X187770000Y-134163492D01*
X175589000Y-134163492D01*
X175589000Y-123795797D01*
X186647500Y-123795797D01*
X186647500Y-123965203D01*
X186680549Y-124131353D01*
X186745378Y-124287863D01*
X186839495Y-124428718D01*
X186959282Y-124548505D01*
X187100137Y-124642622D01*
X187256647Y-124707451D01*
X187422797Y-124740500D01*
X187592203Y-124740500D01*
X187758353Y-124707451D01*
X187878730Y-124657589D01*
X187885028Y-124678351D01*
X187967095Y-124831887D01*
X188077538Y-124966462D01*
X188212113Y-125076905D01*
X188365649Y-125158972D01*
X188532245Y-125209508D01*
X188705499Y-125226572D01*
X189355501Y-125226572D01*
X189528755Y-125209508D01*
X189695351Y-125158972D01*
X189848887Y-125076905D01*
X189983462Y-124966462D01*
X190093905Y-124831887D01*
X190175972Y-124678351D01*
X190226508Y-124511755D01*
X190243572Y-124338501D01*
X190243572Y-123438499D01*
X190226508Y-123265245D01*
X190175972Y-123098649D01*
X190165500Y-123079057D01*
X190165500Y-122284943D01*
X190175972Y-122265351D01*
X190226508Y-122098755D01*
X190243572Y-121925501D01*
X190243572Y-121025499D01*
X190226508Y-120852245D01*
X190175972Y-120685649D01*
X190093905Y-120532113D01*
X189983462Y-120397538D01*
X189848887Y-120287095D01*
X189695351Y-120205028D01*
X189528755Y-120154492D01*
X189355501Y-120137428D01*
X188705499Y-120137428D01*
X188532245Y-120154492D01*
X188365649Y-120205028D01*
X188212113Y-120287095D01*
X188077538Y-120397538D01*
X187967095Y-120532113D01*
X187885028Y-120685649D01*
X187834492Y-120852245D01*
X187817428Y-121025499D01*
X187817428Y-121925501D01*
X187834492Y-122098755D01*
X187885028Y-122265351D01*
X187895501Y-122284944D01*
X187895500Y-123079057D01*
X187885028Y-123098649D01*
X187883042Y-123105197D01*
X187758353Y-123053549D01*
X187592203Y-123020500D01*
X187422797Y-123020500D01*
X187256647Y-123053549D01*
X187100137Y-123118378D01*
X186959282Y-123212495D01*
X186839495Y-123332282D01*
X186745378Y-123473137D01*
X186680549Y-123629647D01*
X186647500Y-123795797D01*
X175589000Y-123795797D01*
X175589000Y-118808500D01*
X195770219Y-118808500D01*
X195774500Y-118851969D01*
X195774500Y-118851976D01*
X195784892Y-118957485D01*
X195786734Y-118976187D01*
X195787305Y-118981989D01*
X195837911Y-119148812D01*
X195920089Y-119302558D01*
X196030683Y-119437317D01*
X196064456Y-119465034D01*
X196510966Y-119911544D01*
X196538683Y-119945317D01*
X196673441Y-120055911D01*
X196827187Y-120138089D01*
X196994010Y-120188695D01*
X197124023Y-120201500D01*
X197124033Y-120201500D01*
X197167499Y-120205781D01*
X197210965Y-120201500D01*
X199750977Y-120201500D01*
X199880990Y-120188695D01*
X200047813Y-120138089D01*
X200201559Y-120055911D01*
X200336317Y-119945317D01*
X200446911Y-119810559D01*
X200529089Y-119656813D01*
X200579695Y-119489990D01*
X200596782Y-119316500D01*
X200579695Y-119143010D01*
X200529089Y-118976187D01*
X200446911Y-118822441D01*
X200336317Y-118687683D01*
X200201559Y-118577089D01*
X200047813Y-118494911D01*
X199880990Y-118444305D01*
X199750977Y-118431500D01*
X197544500Y-118431500D01*
X197544500Y-118003023D01*
X197531695Y-117873010D01*
X197481089Y-117706187D01*
X197398911Y-117552441D01*
X197288317Y-117417683D01*
X197153559Y-117307089D01*
X196999813Y-117224911D01*
X196832990Y-117174305D01*
X196659500Y-117157218D01*
X196486011Y-117174305D01*
X196319188Y-117224911D01*
X196165442Y-117307089D01*
X196030684Y-117417683D01*
X195920090Y-117552441D01*
X195837912Y-117706187D01*
X195787305Y-117873010D01*
X195774500Y-118003023D01*
X195774500Y-118765031D01*
X195770219Y-118808500D01*
X175589000Y-118808500D01*
X175589000Y-105238410D01*
X175592435Y-105203533D01*
X175578727Y-105064349D01*
X175538128Y-104930513D01*
X175472200Y-104807170D01*
X175383475Y-104699058D01*
X175275363Y-104610333D01*
X175152020Y-104544405D01*
X175018184Y-104503806D01*
X174913877Y-104493533D01*
X174879000Y-104490098D01*
X174844123Y-104493533D01*
X161425753Y-104493533D01*
X161390876Y-104490098D01*
X161355999Y-104493533D01*
X161251692Y-104503806D01*
X161117856Y-104544405D01*
X160994513Y-104610333D01*
X160886401Y-104699058D01*
X160797676Y-104807170D01*
X160731748Y-104930513D01*
X160691149Y-105064349D01*
X160677441Y-105203533D01*
X143317500Y-105203533D01*
X143317500Y-104360039D01*
X143319622Y-104356863D01*
X143384451Y-104200353D01*
X143405103Y-104096524D01*
X177550000Y-104096524D01*
X177550001Y-106215477D01*
X177562806Y-106345490D01*
X177613412Y-106512313D01*
X177695590Y-106666059D01*
X177806184Y-106800817D01*
X177940942Y-106911411D01*
X178094688Y-106993589D01*
X178261511Y-107044195D01*
X178435000Y-107061282D01*
X178608490Y-107044195D01*
X178775313Y-106993589D01*
X178929059Y-106911411D01*
X179063817Y-106800817D01*
X179174411Y-106666059D01*
X179256589Y-106512313D01*
X179307195Y-106345490D01*
X179320000Y-106215477D01*
X179320000Y-104564721D01*
X185253500Y-104564721D01*
X185253500Y-104985279D01*
X185335547Y-105397756D01*
X185496488Y-105786302D01*
X185730137Y-106135983D01*
X186027517Y-106433363D01*
X186377198Y-106667012D01*
X186765744Y-106827953D01*
X187178221Y-106910000D01*
X187598779Y-106910000D01*
X188011256Y-106827953D01*
X188399802Y-106667012D01*
X188749483Y-106433363D01*
X189046863Y-106135983D01*
X189280512Y-105786302D01*
X189441453Y-105397756D01*
X189523500Y-104985279D01*
X189523500Y-104613967D01*
X195278500Y-104613967D01*
X195278500Y-104936033D01*
X195341332Y-105251912D01*
X195464582Y-105549463D01*
X195643513Y-105817252D01*
X195871248Y-106044987D01*
X196139037Y-106223918D01*
X196436588Y-106347168D01*
X196752467Y-106410000D01*
X197074533Y-106410000D01*
X197390412Y-106347168D01*
X197687963Y-106223918D01*
X197955752Y-106044987D01*
X198183487Y-105817252D01*
X198362418Y-105549463D01*
X198485668Y-105251912D01*
X198548500Y-104936033D01*
X198548500Y-104613967D01*
X198485668Y-104298088D01*
X198362418Y-104000537D01*
X198183487Y-103732748D01*
X197955752Y-103505013D01*
X197687963Y-103326082D01*
X197390412Y-103202832D01*
X197074533Y-103140000D01*
X196752467Y-103140000D01*
X196436588Y-103202832D01*
X196139037Y-103326082D01*
X195871248Y-103505013D01*
X195643513Y-103732748D01*
X195464582Y-104000537D01*
X195341332Y-104298088D01*
X195278500Y-104613967D01*
X189523500Y-104613967D01*
X189523500Y-104564721D01*
X189441453Y-104152244D01*
X189280512Y-103763698D01*
X189046863Y-103414017D01*
X188749483Y-103116637D01*
X188399802Y-102882988D01*
X188011256Y-102722047D01*
X187598779Y-102640000D01*
X187178221Y-102640000D01*
X186765744Y-102722047D01*
X186377198Y-102882988D01*
X186027517Y-103116637D01*
X185730137Y-103414017D01*
X185496488Y-103763698D01*
X185335547Y-104152244D01*
X185253500Y-104564721D01*
X179320000Y-104564721D01*
X179320000Y-104096523D01*
X179307195Y-103966510D01*
X179256589Y-103799687D01*
X179174411Y-103645941D01*
X179063817Y-103511183D01*
X178929058Y-103400589D01*
X178775312Y-103318411D01*
X178608489Y-103267805D01*
X178435000Y-103250718D01*
X178261510Y-103267805D01*
X178094687Y-103318411D01*
X177940941Y-103400589D01*
X177806183Y-103511183D01*
X177695589Y-103645942D01*
X177613411Y-103799688D01*
X177562805Y-103966511D01*
X177550000Y-104096524D01*
X143405103Y-104096524D01*
X143417500Y-104034203D01*
X143417500Y-103864797D01*
X143384451Y-103698647D01*
X143319622Y-103542137D01*
X143225505Y-103401282D01*
X143209223Y-103385000D01*
X144516242Y-103385000D01*
X144656147Y-103442951D01*
X144822297Y-103476000D01*
X144991703Y-103476000D01*
X145157853Y-103442951D01*
X145314363Y-103378122D01*
X145455218Y-103284005D01*
X145575005Y-103164218D01*
X145669122Y-103023363D01*
X145733951Y-102866853D01*
X145767000Y-102700703D01*
X145767000Y-102531297D01*
X145733951Y-102365147D01*
X145669122Y-102208637D01*
X145575005Y-102067782D01*
X145455218Y-101947995D01*
X145314363Y-101853878D01*
X145203604Y-101808000D01*
X156851678Y-101808000D01*
X156889000Y-101811676D01*
X156926322Y-101808000D01*
X156926333Y-101808000D01*
X157037986Y-101797003D01*
X157181247Y-101753546D01*
X157313276Y-101682974D01*
X157429001Y-101588001D01*
X157452803Y-101558998D01*
X157663605Y-101348197D01*
X157667353Y-101347451D01*
X157823863Y-101282622D01*
X157923209Y-101216240D01*
X157987878Y-101372363D01*
X158081995Y-101513218D01*
X158201782Y-101633005D01*
X158342637Y-101727122D01*
X158499147Y-101791951D01*
X158665297Y-101825000D01*
X158834703Y-101825000D01*
X159000853Y-101791951D01*
X159157363Y-101727122D01*
X159298218Y-101633005D01*
X159418005Y-101513218D01*
X159512122Y-101372363D01*
X159576951Y-101215853D01*
X159610000Y-101049703D01*
X159610000Y-100880297D01*
X159576951Y-100714147D01*
X159512122Y-100557637D01*
X159418005Y-100416782D01*
X159298218Y-100296995D01*
X159157363Y-100202878D01*
X159000853Y-100138049D01*
X158997105Y-100137304D01*
X157535804Y-98676003D01*
X157512001Y-98646999D01*
X157396276Y-98552026D01*
X157264247Y-98481454D01*
X157120986Y-98437997D01*
X157009333Y-98427000D01*
X157009322Y-98427000D01*
X156972000Y-98423324D01*
X156934678Y-98427000D01*
X152429539Y-98427000D01*
X152426363Y-98424878D01*
X152269853Y-98360049D01*
X152103703Y-98327000D01*
X151934297Y-98327000D01*
X151768147Y-98360049D01*
X151611637Y-98424878D01*
X151470782Y-98518995D01*
X151350995Y-98638782D01*
X151256878Y-98779637D01*
X151192049Y-98936147D01*
X151159000Y-99102297D01*
X151159000Y-99271703D01*
X151192049Y-99437853D01*
X151256878Y-99594363D01*
X151350995Y-99735218D01*
X151470782Y-99855005D01*
X151611637Y-99949122D01*
X151768147Y-100013951D01*
X151934297Y-100047000D01*
X152103703Y-100047000D01*
X152269853Y-100013951D01*
X152426363Y-99949122D01*
X152429539Y-99947000D01*
X156657199Y-99947000D01*
X156722053Y-100011854D01*
X156654378Y-100113137D01*
X156589549Y-100269647D01*
X156588803Y-100273395D01*
X156574199Y-100288000D01*
X144257539Y-100288000D01*
X144254363Y-100285878D01*
X144097853Y-100221049D01*
X143931703Y-100188000D01*
X143762297Y-100188000D01*
X143596147Y-100221049D01*
X143439637Y-100285878D01*
X143298782Y-100379995D01*
X143178995Y-100499782D01*
X143084878Y-100640637D01*
X143020049Y-100797147D01*
X142987000Y-100963297D01*
X142987000Y-101132703D01*
X143020049Y-101298853D01*
X143084878Y-101455363D01*
X143178995Y-101596218D01*
X143298782Y-101716005D01*
X143439637Y-101810122D01*
X143572123Y-101865000D01*
X140030614Y-101865000D01*
X139999405Y-101806613D01*
X139888962Y-101672038D01*
X139801184Y-101600000D01*
X139888962Y-101527962D01*
X139999405Y-101393387D01*
X140030614Y-101335000D01*
X140931461Y-101335000D01*
X140934637Y-101337122D01*
X141091147Y-101401951D01*
X141257297Y-101435000D01*
X141426703Y-101435000D01*
X141592853Y-101401951D01*
X141749363Y-101337122D01*
X141890218Y-101243005D01*
X142010005Y-101123218D01*
X142104122Y-100982363D01*
X142168951Y-100825853D01*
X142202000Y-100659703D01*
X142202000Y-100490297D01*
X142168951Y-100324147D01*
X142104122Y-100167637D01*
X142010005Y-100026782D01*
X141932219Y-99948996D01*
X142019005Y-99862210D01*
X142113122Y-99721355D01*
X142177951Y-99564845D01*
X142211000Y-99398695D01*
X142211000Y-99229289D01*
X142177951Y-99063139D01*
X142121619Y-98927143D01*
X142177955Y-98791138D01*
X142211004Y-98624988D01*
X142211004Y-98455582D01*
X142177955Y-98289432D01*
X142113126Y-98132922D01*
X142019009Y-97992067D01*
X141899222Y-97872280D01*
X141758367Y-97778163D01*
X141601857Y-97713334D01*
X141435707Y-97680285D01*
X141266301Y-97680285D01*
X141100151Y-97713334D01*
X140943641Y-97778163D01*
X140940465Y-97780285D01*
X139749088Y-97780285D01*
X139257696Y-97288895D01*
X139256951Y-97285147D01*
X139192122Y-97128637D01*
X139098005Y-96987782D01*
X138978218Y-96867995D01*
X138837363Y-96773878D01*
X138680853Y-96709049D01*
X138514703Y-96676000D01*
X138345297Y-96676000D01*
X138179147Y-96709049D01*
X138049000Y-96762958D01*
X137918853Y-96709049D01*
X137752703Y-96676000D01*
X137583297Y-96676000D01*
X137417147Y-96709049D01*
X137260637Y-96773878D01*
X137119782Y-96867995D01*
X136999995Y-96987782D01*
X136905878Y-97128637D01*
X136841049Y-97285147D01*
X136808000Y-97451297D01*
X92989000Y-97451297D01*
X92989000Y-93183967D01*
X98377500Y-93183967D01*
X98377500Y-93506033D01*
X98440332Y-93821912D01*
X98563582Y-94119463D01*
X98742513Y-94387252D01*
X98970248Y-94614987D01*
X99238037Y-94793918D01*
X99535588Y-94917168D01*
X99851467Y-94980000D01*
X100173533Y-94980000D01*
X100489412Y-94917168D01*
X100786963Y-94793918D01*
X101054752Y-94614987D01*
X101282487Y-94387252D01*
X101461418Y-94119463D01*
X101584668Y-93821912D01*
X101647500Y-93506033D01*
X101647500Y-93183967D01*
X101637705Y-93134721D01*
X107402500Y-93134721D01*
X107402500Y-93555279D01*
X107484547Y-93967756D01*
X107645488Y-94356302D01*
X107879137Y-94705983D01*
X108176517Y-95003363D01*
X108526198Y-95237012D01*
X108914744Y-95397953D01*
X109327221Y-95480000D01*
X109747779Y-95480000D01*
X110160256Y-95397953D01*
X110548802Y-95237012D01*
X110898483Y-95003363D01*
X111195863Y-94705983D01*
X111429512Y-94356302D01*
X111590453Y-93967756D01*
X111672500Y-93555279D01*
X111672500Y-93207000D01*
X129525928Y-93207000D01*
X129525928Y-95007000D01*
X129538188Y-95131482D01*
X129574498Y-95251180D01*
X129633463Y-95361494D01*
X129712815Y-95458185D01*
X129809506Y-95537537D01*
X129919820Y-95596502D01*
X130039518Y-95632812D01*
X130164000Y-95645072D01*
X131964000Y-95645072D01*
X132088482Y-95632812D01*
X132208180Y-95596502D01*
X132318494Y-95537537D01*
X132415185Y-95458185D01*
X132494537Y-95361494D01*
X132553502Y-95251180D01*
X132589812Y-95131482D01*
X132602072Y-95007000D01*
X132602072Y-94463297D01*
X135986000Y-94463297D01*
X135986000Y-94632703D01*
X136019049Y-94798853D01*
X136083878Y-94955363D01*
X136177995Y-95096218D01*
X136264777Y-95183000D01*
X136237995Y-95209782D01*
X136143878Y-95350637D01*
X136079049Y-95507147D01*
X136046000Y-95673297D01*
X136046000Y-95842703D01*
X136079049Y-96008853D01*
X136143878Y-96165363D01*
X136237995Y-96306218D01*
X136357782Y-96426005D01*
X136498637Y-96520122D01*
X136655147Y-96584951D01*
X136821297Y-96618000D01*
X136990703Y-96618000D01*
X137156853Y-96584951D01*
X137313363Y-96520122D01*
X137454218Y-96426005D01*
X137574005Y-96306218D01*
X137668122Y-96165363D01*
X137732951Y-96008853D01*
X137733697Y-96005105D01*
X137932002Y-95806800D01*
X140864261Y-95806800D01*
X140867437Y-95808922D01*
X141023947Y-95873751D01*
X141190097Y-95906800D01*
X141359503Y-95906800D01*
X141525653Y-95873751D01*
X141682163Y-95808922D01*
X141823018Y-95714805D01*
X141942805Y-95595018D01*
X142030818Y-95463297D01*
X142987000Y-95463297D01*
X142987000Y-95632703D01*
X143020049Y-95798853D01*
X143084878Y-95955363D01*
X143178995Y-96096218D01*
X143298782Y-96216005D01*
X143439637Y-96310122D01*
X143596147Y-96374951D01*
X143762297Y-96408000D01*
X143931703Y-96408000D01*
X144097853Y-96374951D01*
X144254363Y-96310122D01*
X144257539Y-96308000D01*
X145271199Y-96308000D01*
X146756200Y-97793002D01*
X146779999Y-97822001D01*
X146895724Y-97916974D01*
X147027753Y-97987546D01*
X147171014Y-98031003D01*
X147282667Y-98042000D01*
X147282676Y-98042000D01*
X147319999Y-98045676D01*
X147357322Y-98042000D01*
X164277199Y-98042000D01*
X167195545Y-100960348D01*
X166994525Y-101161368D01*
X166832010Y-101404589D01*
X166720068Y-101674842D01*
X166663000Y-101961740D01*
X166663000Y-102254260D01*
X166720068Y-102541158D01*
X166832010Y-102811411D01*
X166994525Y-103054632D01*
X167201368Y-103261475D01*
X167444589Y-103423990D01*
X167714842Y-103535932D01*
X168001740Y-103593000D01*
X168294260Y-103593000D01*
X168581158Y-103535932D01*
X168851411Y-103423990D01*
X169094632Y-103261475D01*
X169301475Y-103054632D01*
X169463990Y-102811411D01*
X169575932Y-102541158D01*
X169633000Y-102254260D01*
X169633000Y-101961740D01*
X169575932Y-101674842D01*
X169463990Y-101404589D01*
X169301475Y-101161368D01*
X169094632Y-100954525D01*
X168911073Y-100831875D01*
X168908000Y-100800676D01*
X168908000Y-100800667D01*
X168897003Y-100689014D01*
X168853546Y-100545753D01*
X168782974Y-100413724D01*
X168769811Y-100397685D01*
X168711799Y-100326996D01*
X168711795Y-100326992D01*
X168688001Y-100297999D01*
X168659009Y-100274206D01*
X165155804Y-96771003D01*
X165132001Y-96741999D01*
X165016276Y-96647026D01*
X164884247Y-96576454D01*
X164740986Y-96532997D01*
X164629333Y-96522000D01*
X164629322Y-96522000D01*
X164592000Y-96518324D01*
X164554678Y-96522000D01*
X147634802Y-96522000D01*
X146149804Y-95037003D01*
X146126001Y-95007999D01*
X146010276Y-94913026D01*
X145878247Y-94842454D01*
X145734986Y-94798997D01*
X145623333Y-94788000D01*
X145623322Y-94788000D01*
X145586000Y-94784324D01*
X145548678Y-94788000D01*
X144257539Y-94788000D01*
X144254363Y-94785878D01*
X144097853Y-94721049D01*
X143931703Y-94688000D01*
X143762297Y-94688000D01*
X143596147Y-94721049D01*
X143439637Y-94785878D01*
X143298782Y-94879995D01*
X143178995Y-94999782D01*
X143084878Y-95140637D01*
X143020049Y-95297147D01*
X142987000Y-95463297D01*
X142030818Y-95463297D01*
X142036922Y-95454163D01*
X142101751Y-95297653D01*
X142134800Y-95131503D01*
X142134800Y-94962097D01*
X142105126Y-94812915D01*
X142110951Y-94798853D01*
X142144000Y-94632703D01*
X142144000Y-94463297D01*
X142110951Y-94297147D01*
X142046122Y-94140637D01*
X141952005Y-93999782D01*
X141832218Y-93879995D01*
X141691363Y-93785878D01*
X141534853Y-93721049D01*
X141368703Y-93688000D01*
X141199297Y-93688000D01*
X141033147Y-93721049D01*
X140876637Y-93785878D01*
X140873461Y-93788000D01*
X137256539Y-93788000D01*
X137253363Y-93785878D01*
X137096853Y-93721049D01*
X136930703Y-93688000D01*
X136761297Y-93688000D01*
X136595147Y-93721049D01*
X136438637Y-93785878D01*
X136297782Y-93879995D01*
X136177995Y-93999782D01*
X136083878Y-94140637D01*
X136019049Y-94297147D01*
X135986000Y-94463297D01*
X132602072Y-94463297D01*
X132602072Y-93207000D01*
X132589812Y-93082518D01*
X132553502Y-92962820D01*
X132494537Y-92852506D01*
X132415185Y-92755815D01*
X132318494Y-92676463D01*
X132208180Y-92617498D01*
X132088482Y-92581188D01*
X131964000Y-92568928D01*
X130164000Y-92568928D01*
X130039518Y-92581188D01*
X129919820Y-92617498D01*
X129809506Y-92676463D01*
X129712815Y-92755815D01*
X129633463Y-92852506D01*
X129574498Y-92962820D01*
X129538188Y-93082518D01*
X129525928Y-93207000D01*
X111672500Y-93207000D01*
X111672500Y-93134721D01*
X111590453Y-92722244D01*
X111429512Y-92333698D01*
X111195863Y-91984017D01*
X110898483Y-91686637D01*
X110548802Y-91452988D01*
X110160256Y-91292047D01*
X109747779Y-91210000D01*
X109327221Y-91210000D01*
X108914744Y-91292047D01*
X108526198Y-91452988D01*
X108176517Y-91686637D01*
X107879137Y-91984017D01*
X107645488Y-92333698D01*
X107484547Y-92722244D01*
X107402500Y-93134721D01*
X101637705Y-93134721D01*
X101584668Y-92868088D01*
X101461418Y-92570537D01*
X101282487Y-92302748D01*
X101054752Y-92075013D01*
X100786963Y-91896082D01*
X100489412Y-91772832D01*
X100173533Y-91710000D01*
X99851467Y-91710000D01*
X99535588Y-91772832D01*
X99238037Y-91896082D01*
X98970248Y-92075013D01*
X98742513Y-92302748D01*
X98563582Y-92570537D01*
X98440332Y-92868088D01*
X98377500Y-93183967D01*
X92989000Y-93183967D01*
X92989000Y-87478816D01*
X129529000Y-87478816D01*
X129529000Y-87781184D01*
X129587989Y-88077743D01*
X129703701Y-88357095D01*
X129871688Y-88608505D01*
X129972683Y-88709500D01*
X129871688Y-88810495D01*
X129703701Y-89061905D01*
X129587989Y-89341257D01*
X129529000Y-89637816D01*
X129529000Y-89940184D01*
X129587989Y-90236743D01*
X129703701Y-90516095D01*
X129871688Y-90767505D01*
X130085495Y-90981312D01*
X130336905Y-91149299D01*
X130616257Y-91265011D01*
X130912816Y-91324000D01*
X131215184Y-91324000D01*
X131511743Y-91265011D01*
X131791095Y-91149299D01*
X132042505Y-90981312D01*
X132256312Y-90767505D01*
X132424299Y-90516095D01*
X132540011Y-90236743D01*
X132599000Y-89940184D01*
X132599000Y-89637816D01*
X132540011Y-89341257D01*
X132424299Y-89061905D01*
X132256312Y-88810495D01*
X132155317Y-88709500D01*
X132256312Y-88608505D01*
X132424299Y-88357095D01*
X132540011Y-88077743D01*
X132599000Y-87781184D01*
X132599000Y-87478816D01*
X132540011Y-87182257D01*
X132424299Y-86902905D01*
X132256312Y-86651495D01*
X132042505Y-86437688D01*
X131791095Y-86269701D01*
X131511743Y-86153989D01*
X131215184Y-86095000D01*
X130912816Y-86095000D01*
X130616257Y-86153989D01*
X130336905Y-86269701D01*
X130085495Y-86437688D01*
X129871688Y-86651495D01*
X129703701Y-86902905D01*
X129587989Y-87182257D01*
X129529000Y-87478816D01*
X92989000Y-87478816D01*
X92989000Y-78248000D01*
X98414928Y-78248000D01*
X98414928Y-80248000D01*
X98441599Y-80518799D01*
X98520589Y-80779192D01*
X98648860Y-81019171D01*
X98821485Y-81229515D01*
X99031829Y-81402140D01*
X99271808Y-81530411D01*
X99532201Y-81609401D01*
X99803000Y-81636072D01*
X101303000Y-81636072D01*
X101573799Y-81609401D01*
X101834192Y-81530411D01*
X102074171Y-81402140D01*
X102284515Y-81229515D01*
X102457140Y-81019171D01*
X102585411Y-80779192D01*
X102664401Y-80518799D01*
X102691072Y-80248000D01*
X102691072Y-80142475D01*
X128041000Y-80142475D01*
X128041000Y-80661525D01*
X128142261Y-81170601D01*
X128340893Y-81650141D01*
X128629262Y-82081715D01*
X128996285Y-82448738D01*
X129427859Y-82737107D01*
X129907399Y-82935739D01*
X130416475Y-83037000D01*
X130935525Y-83037000D01*
X131444601Y-82935739D01*
X131924141Y-82737107D01*
X132355715Y-82448738D01*
X132722738Y-82081715D01*
X133011107Y-81650141D01*
X133209739Y-81170601D01*
X133311000Y-80661525D01*
X133311000Y-80142475D01*
X133209739Y-79633399D01*
X133011107Y-79153859D01*
X132722738Y-78722285D01*
X132355715Y-78355262D01*
X131924141Y-78066893D01*
X131444601Y-77868261D01*
X130935525Y-77767000D01*
X130416475Y-77767000D01*
X129907399Y-77868261D01*
X129427859Y-78066893D01*
X128996285Y-78355262D01*
X128629262Y-78722285D01*
X128340893Y-79153859D01*
X128142261Y-79633399D01*
X128041000Y-80142475D01*
X102691072Y-80142475D01*
X102691072Y-78248000D01*
X102664401Y-77977201D01*
X102585411Y-77716808D01*
X102457140Y-77476829D01*
X102284515Y-77266485D01*
X102074171Y-77093860D01*
X101834192Y-76965589D01*
X101573799Y-76886599D01*
X101303000Y-76859928D01*
X99803000Y-76859928D01*
X99532201Y-76886599D01*
X99271808Y-76965589D01*
X99031829Y-77093860D01*
X98821485Y-77266485D01*
X98648860Y-77476829D01*
X98520589Y-77716808D01*
X98441599Y-77977201D01*
X98414928Y-78248000D01*
X92989000Y-78248000D01*
X92989000Y-70642475D01*
X128041000Y-70642475D01*
X128041000Y-71161525D01*
X128142261Y-71670601D01*
X128340893Y-72150141D01*
X128629262Y-72581715D01*
X128996285Y-72948738D01*
X129427859Y-73237107D01*
X129907399Y-73435739D01*
X130416475Y-73537000D01*
X130935525Y-73537000D01*
X131444601Y-73435739D01*
X131924141Y-73237107D01*
X132355715Y-72948738D01*
X132722738Y-72581715D01*
X133011107Y-72150141D01*
X133209739Y-71670601D01*
X133311000Y-71161525D01*
X133311000Y-70722475D01*
X163869000Y-70722475D01*
X163869000Y-71241525D01*
X163970261Y-71750601D01*
X164168893Y-72230141D01*
X164457262Y-72661715D01*
X164824285Y-73028738D01*
X165255859Y-73317107D01*
X165735399Y-73515739D01*
X166244475Y-73617000D01*
X166763525Y-73617000D01*
X167272601Y-73515739D01*
X167752141Y-73317107D01*
X168183715Y-73028738D01*
X168550738Y-72661715D01*
X168839107Y-72230141D01*
X169037739Y-71750601D01*
X169139000Y-71241525D01*
X169139000Y-70722475D01*
X169037739Y-70213399D01*
X168839107Y-69733859D01*
X168550738Y-69302285D01*
X168183715Y-68935262D01*
X167752141Y-68646893D01*
X167272601Y-68448261D01*
X166763525Y-68347000D01*
X166244475Y-68347000D01*
X165735399Y-68448261D01*
X165255859Y-68646893D01*
X164824285Y-68935262D01*
X164457262Y-69302285D01*
X164168893Y-69733859D01*
X163970261Y-70213399D01*
X163869000Y-70722475D01*
X133311000Y-70722475D01*
X133311000Y-70642475D01*
X133209739Y-70133399D01*
X133011107Y-69653859D01*
X132722738Y-69222285D01*
X132355715Y-68855262D01*
X131924141Y-68566893D01*
X131444601Y-68368261D01*
X130935525Y-68267000D01*
X130416475Y-68267000D01*
X129907399Y-68368261D01*
X129427859Y-68566893D01*
X128996285Y-68855262D01*
X128629262Y-69222285D01*
X128340893Y-69653859D01*
X128142261Y-70133399D01*
X128041000Y-70642475D01*
X92989000Y-70642475D01*
X92989000Y-61233380D01*
X93237381Y-60985000D01*
X98392581Y-60985000D01*
X98425000Y-60988193D01*
X98457419Y-60985000D01*
X98554383Y-60975450D01*
X98678793Y-60937710D01*
X98793450Y-60876425D01*
X98893948Y-60793948D01*
X98976425Y-60693450D01*
X99037710Y-60578793D01*
X99075450Y-60454383D01*
X99076867Y-60439992D01*
X100140000Y-60439992D01*
X100140000Y-61353008D01*
X100318120Y-62248480D01*
X100667516Y-63091996D01*
X101174760Y-63851140D01*
X101820360Y-64496740D01*
X102579504Y-65003984D01*
X103423020Y-65353380D01*
X104318492Y-65531500D01*
X105231508Y-65531500D01*
X106126980Y-65353380D01*
X106970496Y-65003984D01*
X107729640Y-64496740D01*
X108375240Y-63851140D01*
X108882484Y-63091996D01*
X109231880Y-62248480D01*
X109305350Y-61879119D01*
X130750000Y-61879119D01*
X130750000Y-63088882D01*
X130780892Y-63402533D01*
X130902974Y-63804982D01*
X131101224Y-64175881D01*
X131368024Y-64500977D01*
X131693120Y-64767777D01*
X132064019Y-64966026D01*
X132466468Y-65088108D01*
X132885000Y-65129330D01*
X133303533Y-65088108D01*
X133705982Y-64966026D01*
X134076881Y-64767777D01*
X134401977Y-64500977D01*
X134668777Y-64175881D01*
X134867026Y-63804981D01*
X134989108Y-63402532D01*
X135020000Y-63088881D01*
X135020000Y-61879119D01*
X135450000Y-61879119D01*
X135450000Y-63088882D01*
X135480892Y-63402533D01*
X135602974Y-63804982D01*
X135801224Y-64175881D01*
X136068024Y-64500977D01*
X136393120Y-64767777D01*
X136764019Y-64966026D01*
X137166468Y-65088108D01*
X137585000Y-65129330D01*
X138003533Y-65088108D01*
X138405982Y-64966026D01*
X138776881Y-64767777D01*
X139101977Y-64500977D01*
X139368777Y-64175881D01*
X139567026Y-63804981D01*
X139689108Y-63402532D01*
X139720000Y-63088881D01*
X139720000Y-61879119D01*
X162630000Y-61879119D01*
X162630000Y-63088882D01*
X162660892Y-63402533D01*
X162782974Y-63804982D01*
X162981224Y-64175881D01*
X163248024Y-64500977D01*
X163573120Y-64767777D01*
X163944019Y-64966026D01*
X164346468Y-65088108D01*
X164765000Y-65129330D01*
X165183533Y-65088108D01*
X165585982Y-64966026D01*
X165956881Y-64767777D01*
X166281977Y-64500977D01*
X166548777Y-64175881D01*
X166747026Y-63804981D01*
X166869108Y-63402532D01*
X166900000Y-63088881D01*
X166900000Y-61879119D01*
X167330000Y-61879119D01*
X167330000Y-63088882D01*
X167360892Y-63402533D01*
X167482974Y-63804982D01*
X167681224Y-64175881D01*
X167948024Y-64500977D01*
X168273120Y-64767777D01*
X168644019Y-64966026D01*
X169046468Y-65088108D01*
X169465000Y-65129330D01*
X169883533Y-65088108D01*
X170285982Y-64966026D01*
X170656881Y-64767777D01*
X170981977Y-64500977D01*
X171248777Y-64175881D01*
X171447026Y-63804981D01*
X171569108Y-63402532D01*
X171600000Y-63088881D01*
X171600000Y-61879118D01*
X171569108Y-61565467D01*
X171447026Y-61163018D01*
X171248777Y-60792119D01*
X170981977Y-60467023D01*
X170656881Y-60200223D01*
X170285981Y-60001974D01*
X169883532Y-59879892D01*
X169465000Y-59838670D01*
X169046467Y-59879892D01*
X168644018Y-60001974D01*
X168273119Y-60200223D01*
X167948023Y-60467023D01*
X167681223Y-60792119D01*
X167482974Y-61163019D01*
X167360892Y-61565468D01*
X167330000Y-61879119D01*
X166900000Y-61879119D01*
X166900000Y-61879118D01*
X166869108Y-61565467D01*
X166747026Y-61163018D01*
X166548777Y-60792119D01*
X166281977Y-60467023D01*
X165956881Y-60200223D01*
X165585981Y-60001974D01*
X165183532Y-59879892D01*
X164765000Y-59838670D01*
X164346467Y-59879892D01*
X163944018Y-60001974D01*
X163573119Y-60200223D01*
X163248023Y-60467023D01*
X162981223Y-60792119D01*
X162782974Y-61163019D01*
X162660892Y-61565468D01*
X162630000Y-61879119D01*
X139720000Y-61879119D01*
X139720000Y-61879118D01*
X139689108Y-61565467D01*
X139567026Y-61163018D01*
X139368777Y-60792119D01*
X139101977Y-60467023D01*
X138776881Y-60200223D01*
X138405981Y-60001974D01*
X138003532Y-59879892D01*
X137585000Y-59838670D01*
X137166467Y-59879892D01*
X136764018Y-60001974D01*
X136393119Y-60200223D01*
X136068023Y-60467023D01*
X135801223Y-60792119D01*
X135602974Y-61163019D01*
X135480892Y-61565468D01*
X135450000Y-61879119D01*
X135020000Y-61879119D01*
X135020000Y-61879118D01*
X134989108Y-61565467D01*
X134867026Y-61163018D01*
X134668777Y-60792119D01*
X134401977Y-60467023D01*
X134076881Y-60200223D01*
X133705981Y-60001974D01*
X133303532Y-59879892D01*
X132885000Y-59838670D01*
X132466467Y-59879892D01*
X132064018Y-60001974D01*
X131693119Y-60200223D01*
X131368023Y-60467023D01*
X131101223Y-60792119D01*
X130902974Y-61163019D01*
X130780892Y-61565468D01*
X130750000Y-61879119D01*
X109305350Y-61879119D01*
X109410000Y-61353008D01*
X109410000Y-60439992D01*
X109231880Y-59544520D01*
X108882484Y-58701004D01*
X108375240Y-57941860D01*
X107729640Y-57296260D01*
X107007888Y-56814000D01*
X169880718Y-56814000D01*
X169897805Y-56987490D01*
X169948411Y-57154313D01*
X170030589Y-57308059D01*
X170141183Y-57442817D01*
X170275941Y-57553411D01*
X170429687Y-57635589D01*
X170596510Y-57686195D01*
X170726523Y-57699000D01*
X171589499Y-57699000D01*
X171643815Y-57765185D01*
X171740506Y-57844537D01*
X171850820Y-57903502D01*
X171970518Y-57939812D01*
X172095000Y-57952072D01*
X173295000Y-57952072D01*
X173419482Y-57939812D01*
X173539180Y-57903502D01*
X173649494Y-57844537D01*
X173746185Y-57765185D01*
X173825537Y-57668494D01*
X173884502Y-57558180D01*
X173920812Y-57438482D01*
X173933072Y-57314000D01*
X173933072Y-56314000D01*
X173920812Y-56189518D01*
X173884502Y-56069820D01*
X173825537Y-55959506D01*
X173746185Y-55862815D01*
X173649494Y-55783463D01*
X173539180Y-55724498D01*
X173419482Y-55688188D01*
X173295000Y-55675928D01*
X172095000Y-55675928D01*
X171970518Y-55688188D01*
X171850820Y-55724498D01*
X171740506Y-55783463D01*
X171643815Y-55862815D01*
X171589499Y-55929000D01*
X170726523Y-55929000D01*
X170596510Y-55941805D01*
X170429687Y-55992411D01*
X170275941Y-56074589D01*
X170141183Y-56185183D01*
X170030589Y-56319941D01*
X169948411Y-56473687D01*
X169897805Y-56640510D01*
X169880718Y-56814000D01*
X107007888Y-56814000D01*
X106970496Y-56789016D01*
X106126980Y-56439620D01*
X105231508Y-56261500D01*
X104318492Y-56261500D01*
X103423020Y-56439620D01*
X102579504Y-56789016D01*
X101820360Y-57296260D01*
X101174760Y-57941860D01*
X100667516Y-58701004D01*
X100318120Y-59544520D01*
X100140000Y-60439992D01*
X99076867Y-60439992D01*
X99088193Y-60325000D01*
X99085000Y-60292581D01*
X99085000Y-55454880D01*
X99333381Y-55206500D01*
X174606928Y-55206500D01*
X174606928Y-56514000D01*
G37*
X174606928Y-56514000D02*
X174619188Y-56638482D01*
X174655498Y-56758180D01*
X174714463Y-56868494D01*
X174793815Y-56965185D01*
X174890506Y-57044537D01*
X175000820Y-57103502D01*
X175060001Y-57121454D01*
X175060000Y-61078868D01*
X172106860Y-64032009D01*
X172063552Y-64067551D01*
X171921717Y-64240377D01*
X171886745Y-64305805D01*
X171816324Y-64437554D01*
X171780822Y-64554589D01*
X171751423Y-64651501D01*
X171747681Y-64689491D01*
X171729509Y-64874000D01*
X171735000Y-64929751D01*
X171735000Y-65337982D01*
X171643815Y-65412815D01*
X171564463Y-65509506D01*
X171505498Y-65619820D01*
X171469188Y-65739518D01*
X171456928Y-65864000D01*
X171456928Y-67214000D01*
X171469188Y-67338482D01*
X171505498Y-67458180D01*
X171564463Y-67568494D01*
X171643815Y-67665185D01*
X171740506Y-67744537D01*
X171850820Y-67803502D01*
X171970518Y-67839812D01*
X172095000Y-67852072D01*
X173645000Y-67852072D01*
X173769482Y-67839812D01*
X173889180Y-67803502D01*
X173999494Y-67744537D01*
X174096185Y-67665185D01*
X174175537Y-67568494D01*
X174234502Y-67458180D01*
X174270812Y-67338482D01*
X174275000Y-67295959D01*
X174279188Y-67338482D01*
X174315498Y-67458180D01*
X174374463Y-67568494D01*
X174453815Y-67665185D01*
X174550506Y-67744537D01*
X174570000Y-67754957D01*
X174570000Y-68068198D01*
X168468199Y-74170000D01*
X165137322Y-74170000D01*
X165099999Y-74166324D01*
X165062676Y-74170000D01*
X165062667Y-74170000D01*
X164951014Y-74180997D01*
X164807753Y-74224454D01*
X164675724Y-74295026D01*
X164559999Y-74389999D01*
X164536201Y-74418997D01*
X160530802Y-78424396D01*
X160539000Y-78383184D01*
X160539000Y-78080816D01*
X160480011Y-77784257D01*
X160364299Y-77504905D01*
X160196312Y-77253495D01*
X159982505Y-77039688D01*
X159896169Y-76982000D01*
X159982505Y-76924312D01*
X160196312Y-76710505D01*
X160364299Y-76459095D01*
X160480011Y-76179743D01*
X160539000Y-75883184D01*
X160539000Y-75580816D01*
X160480011Y-75284257D01*
X160364299Y-75004905D01*
X160196312Y-74753495D01*
X159982505Y-74539688D01*
X159896169Y-74482000D01*
X159982505Y-74424312D01*
X160196312Y-74210505D01*
X160364299Y-73959095D01*
X160480011Y-73679743D01*
X160539000Y-73383184D01*
X160539000Y-73080816D01*
X160480011Y-72784257D01*
X160364299Y-72504905D01*
X160196312Y-72253495D01*
X159982505Y-72039688D01*
X159731095Y-71871701D01*
X159451743Y-71755989D01*
X159155184Y-71697000D01*
X158852816Y-71697000D01*
X158556257Y-71755989D01*
X158276905Y-71871701D01*
X158025495Y-72039688D01*
X157811688Y-72253495D01*
X157643701Y-72504905D01*
X157527989Y-72784257D01*
X157469000Y-73080816D01*
X157469000Y-73383184D01*
X157527989Y-73679743D01*
X157643701Y-73959095D01*
X157811688Y-74210505D01*
X158025495Y-74424312D01*
X158111831Y-74482000D01*
X158025495Y-74539688D01*
X157811688Y-74753495D01*
X157643701Y-75004905D01*
X157527989Y-75284257D01*
X157469000Y-75580816D01*
X157469000Y-75883184D01*
X157527989Y-76179743D01*
X157643701Y-76459095D01*
X157811688Y-76710505D01*
X158025495Y-76924312D01*
X158111831Y-76982000D01*
X158025495Y-77039688D01*
X157968183Y-77097000D01*
X154648132Y-77097000D01*
X149939996Y-72388865D01*
X149904449Y-72345551D01*
X149731623Y-72203716D01*
X149534447Y-72098324D01*
X149320499Y-72033423D01*
X149153752Y-72017000D01*
X149153751Y-72017000D01*
X149098000Y-72011509D01*
X149042249Y-72017000D01*
X139211817Y-72017000D01*
X139154505Y-71959688D01*
X138903095Y-71791701D01*
X138623743Y-71675989D01*
X138327184Y-71617000D01*
X138024816Y-71617000D01*
X137728257Y-71675989D01*
X137448905Y-71791701D01*
X137197495Y-71959688D01*
X136983688Y-72173495D01*
X136921210Y-72267000D01*
X135933465Y-72267000D01*
X135889999Y-72262719D01*
X135846533Y-72267000D01*
X135846523Y-72267000D01*
X135716510Y-72279805D01*
X135549687Y-72330411D01*
X135395941Y-72412589D01*
X135395939Y-72412590D01*
X135395940Y-72412590D01*
X135294953Y-72495468D01*
X135294951Y-72495470D01*
X135261183Y-72523183D01*
X135233470Y-72556951D01*
X133237422Y-74553000D01*
X129496523Y-74553000D01*
X129366510Y-74565805D01*
X129199687Y-74616411D01*
X129045941Y-74698589D01*
X128911183Y-74809183D01*
X128800589Y-74943941D01*
X128718411Y-75097687D01*
X128667805Y-75264510D01*
X128650718Y-75438000D01*
X128667805Y-75611490D01*
X128718411Y-75778313D01*
X128800589Y-75932059D01*
X128911183Y-76066817D01*
X129045941Y-76177411D01*
X129199687Y-76259589D01*
X129366510Y-76310195D01*
X129496523Y-76323000D01*
X133560531Y-76323000D01*
X133604000Y-76327281D01*
X133647469Y-76323000D01*
X133647477Y-76323000D01*
X133777490Y-76310195D01*
X133944313Y-76259589D01*
X134098059Y-76177411D01*
X134232817Y-76066817D01*
X134260534Y-76033044D01*
X136256579Y-74037000D01*
X136921210Y-74037000D01*
X136983688Y-74130505D01*
X137197495Y-74344312D01*
X137283831Y-74402000D01*
X137197495Y-74459688D01*
X136983688Y-74673495D01*
X136815701Y-74924905D01*
X136699989Y-75204257D01*
X136641000Y-75500816D01*
X136641000Y-75803184D01*
X136699989Y-76099743D01*
X136815701Y-76379095D01*
X136983688Y-76630505D01*
X137197495Y-76844312D01*
X137283831Y-76902000D01*
X137197495Y-76959688D01*
X136983688Y-77173495D01*
X136815701Y-77424905D01*
X136699989Y-77704257D01*
X136641000Y-78000816D01*
X136641000Y-78303184D01*
X136699989Y-78599743D01*
X136815701Y-78879095D01*
X136983688Y-79130505D01*
X137197495Y-79344312D01*
X137448905Y-79512299D01*
X137728257Y-79628011D01*
X138024816Y-79687000D01*
X138327184Y-79687000D01*
X138623743Y-79628011D01*
X138903095Y-79512299D01*
X139154505Y-79344312D01*
X139368312Y-79130505D01*
X139536299Y-78879095D01*
X139652011Y-78599743D01*
X139711000Y-78303184D01*
X139711000Y-78000816D01*
X139652011Y-77704257D01*
X139536299Y-77424905D01*
X139368312Y-77173495D01*
X139154505Y-76959688D01*
X139068169Y-76902000D01*
X139154505Y-76844312D01*
X139368312Y-76630505D01*
X139536299Y-76379095D01*
X139652011Y-76099743D01*
X139711000Y-75803184D01*
X139711000Y-75500816D01*
X139652011Y-75204257D01*
X139536299Y-74924905D01*
X139368312Y-74673495D01*
X139154505Y-74459688D01*
X139068169Y-74402000D01*
X139154505Y-74344312D01*
X139211817Y-74287000D01*
X148627869Y-74287000D01*
X153336009Y-78995141D01*
X153371551Y-79038449D01*
X153512178Y-79153859D01*
X153544377Y-79180284D01*
X153741553Y-79285676D01*
X153955501Y-79350577D01*
X154178000Y-79372491D01*
X154233751Y-79367000D01*
X157968183Y-79367000D01*
X158025495Y-79424312D01*
X158276905Y-79592299D01*
X158556257Y-79708011D01*
X158852816Y-79767000D01*
X159155184Y-79767000D01*
X159196396Y-79758802D01*
X151136896Y-87818303D01*
X151133147Y-87819049D01*
X150976637Y-87883878D01*
X150835782Y-87977995D01*
X150715995Y-88097782D01*
X150621878Y-88238637D01*
X150557049Y-88395147D01*
X150524000Y-88561297D01*
X150524000Y-88730703D01*
X150557049Y-88896853D01*
X150621878Y-89053363D01*
X150623640Y-89056000D01*
X150537297Y-89056000D01*
X150371147Y-89089049D01*
X150214637Y-89153878D01*
X150073782Y-89247995D01*
X149953995Y-89367782D01*
X149859878Y-89508637D01*
X149795049Y-89665147D01*
X149762000Y-89831297D01*
X149762000Y-89836160D01*
X149670703Y-89818000D01*
X149501297Y-89818000D01*
X149335147Y-89851049D01*
X149178637Y-89915878D01*
X149037782Y-90009995D01*
X148917995Y-90129782D01*
X148823878Y-90270637D01*
X148759049Y-90427147D01*
X148726000Y-90593297D01*
X148726000Y-90762703D01*
X148759049Y-90928853D01*
X148823878Y-91085363D01*
X148917995Y-91226218D01*
X149037782Y-91346005D01*
X149178637Y-91440122D01*
X149245518Y-91467825D01*
X149259049Y-91535853D01*
X149323878Y-91692363D01*
X149417995Y-91833218D01*
X149537782Y-91953005D01*
X149678637Y-92047122D01*
X149835147Y-92111951D01*
X150001297Y-92145000D01*
X150170703Y-92145000D01*
X150336853Y-92111951D01*
X150493363Y-92047122D01*
X150496539Y-92045000D01*
X151374678Y-92045000D01*
X151412000Y-92048676D01*
X151449322Y-92045000D01*
X151449333Y-92045000D01*
X151560986Y-92034003D01*
X151704247Y-91990546D01*
X151836276Y-91919974D01*
X151952001Y-91825001D01*
X151975131Y-91796816D01*
X164581000Y-91796816D01*
X164581000Y-92099184D01*
X164639989Y-92395743D01*
X164755701Y-92675095D01*
X164923688Y-92926505D01*
X165024683Y-93027500D01*
X164923688Y-93128495D01*
X164755701Y-93379905D01*
X164639989Y-93659257D01*
X164581000Y-93955816D01*
X164581000Y-94258184D01*
X164639989Y-94554743D01*
X164755701Y-94834095D01*
X164923688Y-95085505D01*
X165137495Y-95299312D01*
X165388905Y-95467299D01*
X165668257Y-95583011D01*
X165964816Y-95642000D01*
X166267184Y-95642000D01*
X166563743Y-95583011D01*
X166843095Y-95467299D01*
X167094505Y-95299312D01*
X167308312Y-95085505D01*
X167476299Y-94834095D01*
X167592011Y-94554743D01*
X167651000Y-94258184D01*
X167651000Y-93955816D01*
X167592011Y-93659257D01*
X167476299Y-93379905D01*
X167345378Y-93183967D01*
X195278500Y-93183967D01*
X195278500Y-93506033D01*
X195341332Y-93821912D01*
X195464582Y-94119463D01*
X195643513Y-94387252D01*
X195871248Y-94614987D01*
X196139037Y-94793918D01*
X196436588Y-94917168D01*
X196752467Y-94980000D01*
X197074533Y-94980000D01*
X197390412Y-94917168D01*
X197687963Y-94793918D01*
X197955752Y-94614987D01*
X198183487Y-94387252D01*
X198362418Y-94119463D01*
X198485668Y-93821912D01*
X198548500Y-93506033D01*
X198548500Y-93183967D01*
X198485668Y-92868088D01*
X198362418Y-92570537D01*
X198183487Y-92302748D01*
X197955752Y-92075013D01*
X197687963Y-91896082D01*
X197390412Y-91772832D01*
X197074533Y-91710000D01*
X196752467Y-91710000D01*
X196436588Y-91772832D01*
X196139037Y-91896082D01*
X195871248Y-92075013D01*
X195643513Y-92302748D01*
X195464582Y-92570537D01*
X195341332Y-92868088D01*
X195278500Y-93183967D01*
X167345378Y-93183967D01*
X167308312Y-93128495D01*
X167207317Y-93027500D01*
X167308312Y-92926505D01*
X167476299Y-92675095D01*
X167592011Y-92395743D01*
X167651000Y-92099184D01*
X167651000Y-91796816D01*
X167592011Y-91500257D01*
X167476299Y-91220905D01*
X167308312Y-90969495D01*
X167094505Y-90755688D01*
X166843095Y-90587701D01*
X166563743Y-90471989D01*
X166267184Y-90413000D01*
X165964816Y-90413000D01*
X165668257Y-90471989D01*
X165388905Y-90587701D01*
X165137495Y-90755688D01*
X164923688Y-90969495D01*
X164755701Y-91220905D01*
X164639989Y-91500257D01*
X164581000Y-91796816D01*
X151975131Y-91796816D01*
X151975804Y-91795997D01*
X157041801Y-86730000D01*
X164577928Y-86730000D01*
X164577928Y-88530000D01*
X164590188Y-88654482D01*
X164626498Y-88774180D01*
X164685463Y-88884494D01*
X164764815Y-88981185D01*
X164861506Y-89060537D01*
X164971820Y-89119502D01*
X165091518Y-89155812D01*
X165216000Y-89168072D01*
X167016000Y-89168072D01*
X167140482Y-89155812D01*
X167260180Y-89119502D01*
X167370494Y-89060537D01*
X167467185Y-88981185D01*
X167546537Y-88884494D01*
X167605502Y-88774180D01*
X167641812Y-88654482D01*
X167654072Y-88530000D01*
X167654072Y-86730000D01*
X167641812Y-86605518D01*
X167605502Y-86485820D01*
X167546537Y-86375506D01*
X167467185Y-86278815D01*
X167370494Y-86199463D01*
X167260180Y-86140498D01*
X167140482Y-86104188D01*
X167016000Y-86091928D01*
X165216000Y-86091928D01*
X165091518Y-86104188D01*
X164971820Y-86140498D01*
X164861506Y-86199463D01*
X164764815Y-86278815D01*
X164685463Y-86375506D01*
X164626498Y-86485820D01*
X164590188Y-86605518D01*
X164577928Y-86730000D01*
X157041801Y-86730000D01*
X159527080Y-84244721D01*
X185253500Y-84244721D01*
X185253500Y-84665279D01*
X185335547Y-85077756D01*
X185496488Y-85466302D01*
X185730137Y-85815983D01*
X186027517Y-86113363D01*
X186377198Y-86347012D01*
X186765744Y-86507953D01*
X187178221Y-86590000D01*
X187598779Y-86590000D01*
X188011256Y-86507953D01*
X188399802Y-86347012D01*
X188749483Y-86113363D01*
X189046863Y-85815983D01*
X189280512Y-85466302D01*
X189441453Y-85077756D01*
X189523500Y-84665279D01*
X189523500Y-84293967D01*
X195278500Y-84293967D01*
X195278500Y-84616033D01*
X195341332Y-84931912D01*
X195464582Y-85229463D01*
X195643513Y-85497252D01*
X195871248Y-85724987D01*
X196139037Y-85903918D01*
X196436588Y-86027168D01*
X196752467Y-86090000D01*
X197074533Y-86090000D01*
X197390412Y-86027168D01*
X197687963Y-85903918D01*
X197955752Y-85724987D01*
X198183487Y-85497252D01*
X198362418Y-85229463D01*
X198485668Y-84931912D01*
X198548500Y-84616033D01*
X198548500Y-84293967D01*
X198485668Y-83978088D01*
X198362418Y-83680537D01*
X198183487Y-83412748D01*
X197955752Y-83185013D01*
X197687963Y-83006082D01*
X197390412Y-82882832D01*
X197074533Y-82820000D01*
X196752467Y-82820000D01*
X196436588Y-82882832D01*
X196139037Y-83006082D01*
X195871248Y-83185013D01*
X195643513Y-83412748D01*
X195464582Y-83680537D01*
X195341332Y-83978088D01*
X195278500Y-84293967D01*
X189523500Y-84293967D01*
X189523500Y-84244721D01*
X189441453Y-83832244D01*
X189280512Y-83443698D01*
X189046863Y-83094017D01*
X188749483Y-82796637D01*
X188399802Y-82562988D01*
X188011256Y-82402047D01*
X187598779Y-82320000D01*
X187178221Y-82320000D01*
X186765744Y-82402047D01*
X186377198Y-82562988D01*
X186027517Y-82796637D01*
X185730137Y-83094017D01*
X185496488Y-83443698D01*
X185335547Y-83832244D01*
X185253500Y-84244721D01*
X159527080Y-84244721D01*
X163948375Y-79823427D01*
X163869000Y-80222475D01*
X163869000Y-80741525D01*
X163970261Y-81250601D01*
X164168893Y-81730141D01*
X164457262Y-82161715D01*
X164824285Y-82528738D01*
X165255859Y-82817107D01*
X165735399Y-83015739D01*
X166244475Y-83117000D01*
X166763525Y-83117000D01*
X167272601Y-83015739D01*
X167752141Y-82817107D01*
X168183715Y-82528738D01*
X168550738Y-82161715D01*
X168839107Y-81730141D01*
X169037739Y-81250601D01*
X169139000Y-80741525D01*
X169139000Y-80222475D01*
X169037739Y-79713399D01*
X168839107Y-79233859D01*
X168550738Y-78802285D01*
X168183715Y-78435262D01*
X167752141Y-78146893D01*
X167272601Y-77948261D01*
X166763525Y-77847000D01*
X166244475Y-77847000D01*
X165845427Y-77926375D01*
X166557802Y-77214000D01*
X169634678Y-77214000D01*
X169672000Y-77217676D01*
X169709322Y-77214000D01*
X169709333Y-77214000D01*
X169820986Y-77203003D01*
X169964247Y-77159546D01*
X170096276Y-77088974D01*
X170212001Y-76994001D01*
X170235804Y-76964997D01*
X177098802Y-70102000D01*
X179286678Y-70102000D01*
X179324000Y-70105676D01*
X179361322Y-70102000D01*
X179361333Y-70102000D01*
X179472986Y-70091003D01*
X179616247Y-70047546D01*
X179748276Y-69976974D01*
X179864001Y-69882001D01*
X179887804Y-69852997D01*
X180240998Y-69499803D01*
X180270001Y-69476001D01*
X180364974Y-69360276D01*
X180435546Y-69228247D01*
X180479003Y-69084986D01*
X180490000Y-68973333D01*
X180490000Y-68973325D01*
X180493676Y-68936000D01*
X180490000Y-68898675D01*
X180490000Y-67754957D01*
X180509494Y-67744537D01*
X180606185Y-67665185D01*
X180685537Y-67568494D01*
X180744502Y-67458180D01*
X180780812Y-67338482D01*
X180793072Y-67214000D01*
X180793072Y-66114000D01*
X180780812Y-65989518D01*
X180744502Y-65869820D01*
X180685537Y-65759506D01*
X180606185Y-65662815D01*
X180509494Y-65583463D01*
X180399180Y-65524498D01*
X180279482Y-65488188D01*
X180155000Y-65475928D01*
X179305000Y-65475928D01*
X179180518Y-65488188D01*
X179180000Y-65488345D01*
X179179482Y-65488188D01*
X179055000Y-65475928D01*
X178599651Y-65475928D01*
X178674579Y-65401000D01*
X179621477Y-65401000D01*
X179751490Y-65388195D01*
X179918313Y-65337589D01*
X180072059Y-65255411D01*
X180206817Y-65144817D01*
X180317411Y-65010059D01*
X180399589Y-64856313D01*
X180450195Y-64689490D01*
X180467282Y-64516000D01*
X180450195Y-64342510D01*
X180399589Y-64175687D01*
X180317411Y-64021941D01*
X180206817Y-63887183D01*
X180072059Y-63776589D01*
X179918313Y-63694411D01*
X179751490Y-63643805D01*
X179621477Y-63631000D01*
X178351465Y-63631000D01*
X178307999Y-63626719D01*
X178264533Y-63631000D01*
X178264523Y-63631000D01*
X178134510Y-63643805D01*
X177967687Y-63694411D01*
X177813941Y-63776589D01*
X177813939Y-63776590D01*
X177813940Y-63776590D01*
X177712953Y-63859468D01*
X177712951Y-63859470D01*
X177679183Y-63887183D01*
X177651470Y-63920951D01*
X177532841Y-64039580D01*
X177523412Y-64021940D01*
X177412819Y-63887181D01*
X177278060Y-63776588D01*
X177124315Y-63694410D01*
X176957491Y-63643804D01*
X176784001Y-63626717D01*
X176610511Y-63643804D01*
X176443688Y-63694410D01*
X176289943Y-63776588D01*
X176188956Y-63859466D01*
X176151121Y-63897301D01*
X176142817Y-63887183D01*
X176008058Y-63776590D01*
X175854313Y-63694412D01*
X175701174Y-63647957D01*
X176958141Y-62390991D01*
X177001449Y-62355449D01*
X177143284Y-62182623D01*
X177248676Y-61985447D01*
X177313577Y-61771499D01*
X177330000Y-61604752D01*
X177330000Y-61604751D01*
X177335491Y-61549001D01*
X177330000Y-61493249D01*
X177330000Y-57121454D01*
X177389180Y-57103502D01*
X177499494Y-57044537D01*
X177585444Y-56974000D01*
X180774556Y-56974000D01*
X180860506Y-57044537D01*
X180970820Y-57103502D01*
X181090518Y-57139812D01*
X181215000Y-57152072D01*
X183115000Y-57152072D01*
X183239482Y-57139812D01*
X183359180Y-57103502D01*
X183469494Y-57044537D01*
X183469938Y-57044173D01*
X183516377Y-57082284D01*
X183713553Y-57187676D01*
X183904168Y-57245499D01*
X183927501Y-57252577D01*
X184149999Y-57274491D01*
X184189472Y-57270603D01*
X184412001Y-57493133D01*
X184412000Y-64079173D01*
X184381410Y-64021942D01*
X184270817Y-63887183D01*
X184136058Y-63776590D01*
X183982313Y-63694412D01*
X183815489Y-63643806D01*
X183641999Y-63626719D01*
X183468509Y-63643806D01*
X183301686Y-63694412D01*
X183147940Y-63776590D01*
X183046953Y-63859468D01*
X182622113Y-64284309D01*
X182558817Y-64207183D01*
X182525044Y-64179466D01*
X182205046Y-63859468D01*
X182104059Y-63776590D01*
X181950313Y-63694412D01*
X181783490Y-63643805D01*
X181610000Y-63626719D01*
X181436510Y-63643805D01*
X181269687Y-63694412D01*
X181115941Y-63776590D01*
X180981183Y-63887183D01*
X180870590Y-64021941D01*
X180788412Y-64175687D01*
X180737805Y-64342510D01*
X180720719Y-64516000D01*
X180737805Y-64689490D01*
X180788412Y-64856313D01*
X180870590Y-65010059D01*
X180953468Y-65111046D01*
X181045001Y-65202579D01*
X181045001Y-65673555D01*
X180974463Y-65759506D01*
X180915498Y-65869820D01*
X180879188Y-65989518D01*
X180866928Y-66114000D01*
X180866928Y-67214000D01*
X180879188Y-67338482D01*
X180915498Y-67458180D01*
X180974463Y-67568494D01*
X181053815Y-67665185D01*
X181150506Y-67744537D01*
X181170001Y-67754957D01*
X181170000Y-77618685D01*
X181061782Y-77690995D01*
X180941995Y-77810782D01*
X180847878Y-77951637D01*
X180783049Y-78108147D01*
X180750000Y-78274297D01*
X180750000Y-78443703D01*
X180783049Y-78609853D01*
X180847878Y-78766363D01*
X180856375Y-78779079D01*
X180805703Y-78769000D01*
X180636297Y-78769000D01*
X180470147Y-78802049D01*
X180313637Y-78866878D01*
X180172782Y-78960995D01*
X180052995Y-79080782D01*
X179958878Y-79221637D01*
X179894049Y-79378147D01*
X179861000Y-79544297D01*
X179861000Y-79713703D01*
X179894049Y-79879853D01*
X179958878Y-80036363D01*
X180052995Y-80177218D01*
X180172782Y-80297005D01*
X180313637Y-80391122D01*
X180470147Y-80455951D01*
X180636297Y-80489000D01*
X180805703Y-80489000D01*
X180971853Y-80455951D01*
X181128363Y-80391122D01*
X181131539Y-80389000D01*
X182588678Y-80389000D01*
X182626000Y-80392676D01*
X182663322Y-80389000D01*
X182663333Y-80389000D01*
X182774986Y-80378003D01*
X182918247Y-80334546D01*
X183050276Y-80263974D01*
X183166001Y-80169001D01*
X183189804Y-80139997D01*
X183490998Y-79838803D01*
X183520001Y-79815001D01*
X183614974Y-79699276D01*
X183685546Y-79567247D01*
X183729003Y-79423986D01*
X183740000Y-79312333D01*
X183740000Y-79312332D01*
X183743677Y-79275000D01*
X183740000Y-79237667D01*
X183740000Y-72863967D01*
X195278500Y-72863967D01*
X195278500Y-73186033D01*
X195341332Y-73501912D01*
X195464582Y-73799463D01*
X195643513Y-74067252D01*
X195871248Y-74294987D01*
X196139037Y-74473918D01*
X196436588Y-74597168D01*
X196752467Y-74660000D01*
X197074533Y-74660000D01*
X197390412Y-74597168D01*
X197687963Y-74473918D01*
X197955752Y-74294987D01*
X198183487Y-74067252D01*
X198362418Y-73799463D01*
X198485668Y-73501912D01*
X198548500Y-73186033D01*
X198548500Y-72863967D01*
X198485668Y-72548088D01*
X198362418Y-72250537D01*
X198183487Y-71982748D01*
X197955752Y-71755013D01*
X197687963Y-71576082D01*
X197390412Y-71452832D01*
X197074533Y-71390000D01*
X196752467Y-71390000D01*
X196436588Y-71452832D01*
X196139037Y-71576082D01*
X195871248Y-71755013D01*
X195643513Y-71982748D01*
X195464582Y-72250537D01*
X195341332Y-72548088D01*
X195278500Y-72863967D01*
X183740000Y-72863967D01*
X183740000Y-69215000D01*
X185038718Y-69215000D01*
X185055805Y-69388490D01*
X185106411Y-69555313D01*
X185188589Y-69709059D01*
X185299183Y-69843817D01*
X185433941Y-69954411D01*
X185587687Y-70036589D01*
X185754510Y-70087195D01*
X185884523Y-70100000D01*
X189371422Y-70100000D01*
X189869000Y-70597579D01*
X189869001Y-71925477D01*
X189881806Y-72055490D01*
X189932412Y-72222313D01*
X190014590Y-72376059D01*
X190125184Y-72510817D01*
X190259942Y-72621411D01*
X190413688Y-72703589D01*
X190580511Y-72754195D01*
X190754000Y-72771282D01*
X190927490Y-72754195D01*
X191094313Y-72703589D01*
X191248059Y-72621411D01*
X191382817Y-72510817D01*
X191493411Y-72376059D01*
X191575589Y-72222313D01*
X191626195Y-72055490D01*
X191639000Y-71925477D01*
X191639000Y-70274469D01*
X191643281Y-70231000D01*
X191639000Y-70187531D01*
X191639000Y-70187523D01*
X191626195Y-70057510D01*
X191623173Y-70047546D01*
X191601764Y-69976974D01*
X191575589Y-69890687D01*
X191493411Y-69736941D01*
X191382817Y-69602183D01*
X191349050Y-69574471D01*
X190394534Y-68619956D01*
X190366817Y-68586183D01*
X190232059Y-68475589D01*
X190078313Y-68393411D01*
X189911490Y-68342805D01*
X189781477Y-68330000D01*
X189781469Y-68330000D01*
X189738000Y-68325719D01*
X189694531Y-68330000D01*
X185884523Y-68330000D01*
X185754510Y-68342805D01*
X185587687Y-68393411D01*
X185433941Y-68475589D01*
X185299183Y-68586183D01*
X185188589Y-68720941D01*
X185106411Y-68874687D01*
X185055805Y-69041510D01*
X185038718Y-69215000D01*
X183740000Y-69215000D01*
X183740000Y-67852072D01*
X184775000Y-67852072D01*
X184899482Y-67839812D01*
X185019180Y-67803502D01*
X185129494Y-67744537D01*
X185226185Y-67665185D01*
X185305537Y-67568494D01*
X185364502Y-67458180D01*
X185367287Y-67449000D01*
X185491248Y-67449000D01*
X185547000Y-67454491D01*
X185602751Y-67449000D01*
X185602752Y-67449000D01*
X185769499Y-67432577D01*
X185983447Y-67367676D01*
X186180623Y-67262284D01*
X186353449Y-67120449D01*
X186495284Y-66947623D01*
X186600676Y-66750447D01*
X186665577Y-66536499D01*
X186687491Y-66314000D01*
X186682000Y-66258248D01*
X186682000Y-60439992D01*
X187770000Y-60439992D01*
X187770000Y-61353008D01*
X187948120Y-62248480D01*
X188297516Y-63091996D01*
X188804760Y-63851140D01*
X189450360Y-64496740D01*
X190209504Y-65003984D01*
X191053020Y-65353380D01*
X191948492Y-65531500D01*
X192861508Y-65531500D01*
X193756980Y-65353380D01*
X194600496Y-65003984D01*
X195359640Y-64496740D01*
X196005240Y-63851140D01*
X196512484Y-63091996D01*
X196861880Y-62248480D01*
X197040000Y-61353008D01*
X197040000Y-60439992D01*
X196861880Y-59544520D01*
X196512484Y-58701004D01*
X196005240Y-57941860D01*
X195359640Y-57296260D01*
X194600496Y-56789016D01*
X193756980Y-56439620D01*
X192861508Y-56261500D01*
X191948492Y-56261500D01*
X191053020Y-56439620D01*
X190209504Y-56789016D01*
X189450360Y-57296260D01*
X188804760Y-57941860D01*
X188297516Y-58701004D01*
X187948120Y-59544520D01*
X187770000Y-60439992D01*
X186682000Y-60439992D01*
X186682000Y-57078752D01*
X186687491Y-57023000D01*
X186665577Y-56800501D01*
X186600676Y-56586553D01*
X186495284Y-56389377D01*
X186438299Y-56319941D01*
X186353449Y-56216551D01*
X186310140Y-56181008D01*
X185499995Y-55370864D01*
X185464449Y-55327551D01*
X185316948Y-55206500D01*
X197846620Y-55206500D01*
X198095000Y-55454881D01*
X198095001Y-60292571D01*
X198091807Y-60325000D01*
X198104550Y-60454383D01*
X198142290Y-60578793D01*
X198203575Y-60693450D01*
X198286052Y-60793948D01*
X198386550Y-60876425D01*
X198501207Y-60937710D01*
X198625617Y-60975450D01*
X198722581Y-60985000D01*
X198755000Y-60988193D01*
X198787419Y-60985000D01*
X203942620Y-60985000D01*
X204191000Y-61233381D01*
X204191001Y-134346618D01*
X203942620Y-134595000D01*
X198787419Y-134595000D01*
X198755000Y-134591807D01*
X198722581Y-134595000D01*
X198625617Y-134604550D01*
X198501207Y-134642290D01*
X198386550Y-134703575D01*
X198286052Y-134786052D01*
X198203575Y-134886550D01*
X198142290Y-135001207D01*
X198104550Y-135125617D01*
X198091807Y-135255000D01*
X198095000Y-135287419D01*
X198095001Y-140061618D01*
X197846620Y-140310000D01*
X99333381Y-140310000D01*
X99085000Y-140061620D01*
X99085000Y-135350919D01*
X99088193Y-135318500D01*
X99075450Y-135189117D01*
X99037710Y-135064707D01*
X98976425Y-134950050D01*
X98893948Y-134849552D01*
X98793450Y-134767075D01*
X98678793Y-134705790D01*
X98554383Y-134668050D01*
X98457419Y-134658500D01*
X98425000Y-134655307D01*
X98392581Y-134658500D01*
X93237381Y-134658500D01*
X92989000Y-134410120D01*
X92989000Y-134163492D01*
X100140000Y-134163492D01*
X100140000Y-135076508D01*
X100318120Y-135971980D01*
X100667516Y-136815496D01*
X101174760Y-137574640D01*
X101820360Y-138220240D01*
X102579504Y-138727484D01*
X103423020Y-139076880D01*
X104318492Y-139255000D01*
X105231508Y-139255000D01*
X106126980Y-139076880D01*
X106970496Y-138727484D01*
X107729640Y-138220240D01*
X108375240Y-137574640D01*
X108882484Y-136815496D01*
X109231880Y-135971980D01*
X109410000Y-135076508D01*
X109410000Y-134163492D01*
X109231880Y-133268020D01*
X108882484Y-132424504D01*
X108375240Y-131665360D01*
X107729640Y-131019760D01*
X106970496Y-130512516D01*
X106126980Y-130163120D01*
X105231508Y-129985000D01*
X104318492Y-129985000D01*
X103423020Y-130163120D01*
X102579504Y-130512516D01*
X101820360Y-131019760D01*
X101174760Y-131665360D01*
X100667516Y-132424504D01*
X100318120Y-133268020D01*
X100140000Y-134163492D01*
X92989000Y-134163492D01*
X92989000Y-112579999D01*
X104586928Y-112579999D01*
X104586928Y-113480001D01*
X104603992Y-113653255D01*
X104654528Y-113819851D01*
X104736595Y-113973387D01*
X104847038Y-114107962D01*
X104981613Y-114218405D01*
X105135149Y-114300472D01*
X105301745Y-114351008D01*
X105474999Y-114368072D01*
X106125001Y-114368072D01*
X106298255Y-114351008D01*
X106464851Y-114300472D01*
X106618387Y-114218405D01*
X106752962Y-114107962D01*
X106863405Y-113973387D01*
X106945472Y-113819851D01*
X106948718Y-113809150D01*
X107064147Y-113856963D01*
X107230297Y-113890012D01*
X107399703Y-113890012D01*
X107565853Y-113856963D01*
X107722363Y-113792134D01*
X107863218Y-113698017D01*
X107980938Y-113580297D01*
X114075000Y-113580297D01*
X114075000Y-113749703D01*
X114108049Y-113915853D01*
X114172878Y-114072363D01*
X114266995Y-114213218D01*
X114386782Y-114333005D01*
X114527637Y-114427122D01*
X114684147Y-114491951D01*
X114850297Y-114525000D01*
X115019703Y-114525000D01*
X115185853Y-114491951D01*
X115301279Y-114444140D01*
X115304528Y-114454851D01*
X115386595Y-114608387D01*
X115497038Y-114742962D01*
X115631613Y-114853405D01*
X115785149Y-114935472D01*
X115951745Y-114986008D01*
X116124999Y-115003072D01*
X116775001Y-115003072D01*
X116948255Y-114986008D01*
X117114851Y-114935472D01*
X117268387Y-114853405D01*
X117402962Y-114742962D01*
X117513405Y-114608387D01*
X117595472Y-114454851D01*
X117646008Y-114288255D01*
X117663072Y-114115001D01*
X117663072Y-113214999D01*
X117646008Y-113041745D01*
X117595472Y-112875149D01*
X117513405Y-112721613D01*
X117402962Y-112587038D01*
X117335000Y-112531263D01*
X117335000Y-111623737D01*
X117402962Y-111567962D01*
X117513405Y-111433387D01*
X117595472Y-111279851D01*
X117646008Y-111113255D01*
X117663072Y-110940001D01*
X117663072Y-110039999D01*
X117646008Y-109866745D01*
X117595472Y-109700149D01*
X117513405Y-109546613D01*
X117402962Y-109412038D01*
X117268387Y-109301595D01*
X117114851Y-109219528D01*
X116948255Y-109168992D01*
X116775001Y-109151928D01*
X116124999Y-109151928D01*
X115951745Y-109168992D01*
X115785149Y-109219528D01*
X115631613Y-109301595D01*
X115497038Y-109412038D01*
X115386595Y-109546613D01*
X115304528Y-109700149D01*
X115253992Y-109866745D01*
X115236928Y-110039999D01*
X115236928Y-110940001D01*
X115253992Y-111113255D01*
X115304528Y-111279851D01*
X115386595Y-111433387D01*
X115497038Y-111567962D01*
X115565001Y-111623738D01*
X115565000Y-112531263D01*
X115497038Y-112587038D01*
X115386595Y-112721613D01*
X115304528Y-112875149D01*
X115301279Y-112885860D01*
X115185853Y-112838049D01*
X115019703Y-112805000D01*
X114850297Y-112805000D01*
X114684147Y-112838049D01*
X114527637Y-112902878D01*
X114386782Y-112996995D01*
X114266995Y-113116782D01*
X114172878Y-113257637D01*
X114108049Y-113414147D01*
X114075000Y-113580297D01*
X107980938Y-113580297D01*
X107983005Y-113578230D01*
X108077122Y-113437375D01*
X108141951Y-113280865D01*
X108175000Y-113114715D01*
X108175000Y-112945309D01*
X108141951Y-112779159D01*
X108077122Y-112622649D01*
X107983005Y-112481794D01*
X107863218Y-112362007D01*
X107722363Y-112267890D01*
X107565853Y-112203061D01*
X107399703Y-112170012D01*
X107230297Y-112170012D01*
X107064147Y-112203061D01*
X106948724Y-112250871D01*
X106945472Y-112240149D01*
X106863405Y-112086613D01*
X106752962Y-111952038D01*
X106618387Y-111841595D01*
X106464851Y-111759528D01*
X106298255Y-111708992D01*
X106125001Y-111691928D01*
X105474999Y-111691928D01*
X105301745Y-111708992D01*
X105135149Y-111759528D01*
X104981613Y-111841595D01*
X104847038Y-111952038D01*
X104736595Y-112086613D01*
X104654528Y-112240149D01*
X104603992Y-112406745D01*
X104586928Y-112579999D01*
X92989000Y-112579999D01*
X92989000Y-104613967D01*
X98377500Y-104613967D01*
X98377500Y-104936033D01*
X98440332Y-105251912D01*
X98563582Y-105549463D01*
X98742513Y-105817252D01*
X98970248Y-106044987D01*
X99238037Y-106223918D01*
X99535588Y-106347168D01*
X99851467Y-106410000D01*
X100173533Y-106410000D01*
X100489412Y-106347168D01*
X100786963Y-106223918D01*
X101054752Y-106044987D01*
X101282487Y-105817252D01*
X101461418Y-105549463D01*
X101476190Y-105513799D01*
X121841565Y-105513799D01*
X121845001Y-105548686D01*
X121845000Y-135958921D01*
X121841565Y-135993798D01*
X121855273Y-136132982D01*
X121895872Y-136266818D01*
X121961800Y-136390161D01*
X122050525Y-136498273D01*
X122146084Y-136576696D01*
X122158637Y-136586998D01*
X122281980Y-136652926D01*
X122415816Y-136693525D01*
X122555000Y-136707233D01*
X122589877Y-136703798D01*
X135977244Y-136703798D01*
X136012121Y-136707233D01*
X136046998Y-136703798D01*
X136143467Y-136694297D01*
X136151305Y-136693525D01*
X136285141Y-136652926D01*
X136408484Y-136586998D01*
X136516596Y-136498273D01*
X136605321Y-136390161D01*
X136671249Y-136266818D01*
X136711848Y-136132982D01*
X136722121Y-136028675D01*
X136722121Y-136028674D01*
X136725556Y-135993798D01*
X136722121Y-135958921D01*
X136722121Y-105548676D01*
X136725556Y-105513799D01*
X136711848Y-105374615D01*
X136671249Y-105240779D01*
X136605321Y-105117436D01*
X136516596Y-105009324D01*
X136408484Y-104920599D01*
X136285141Y-104854671D01*
X136151305Y-104814072D01*
X136046998Y-104803799D01*
X136012121Y-104800364D01*
X135977244Y-104803799D01*
X122589877Y-104803799D01*
X122555000Y-104800364D01*
X122520123Y-104803799D01*
X122415816Y-104814072D01*
X122281980Y-104854671D01*
X122158637Y-104920599D01*
X122050525Y-105009324D01*
X121961800Y-105117436D01*
X121895872Y-105240779D01*
X121855273Y-105374615D01*
X121841565Y-105513799D01*
X101476190Y-105513799D01*
X101584668Y-105251912D01*
X101647500Y-104936033D01*
X101647500Y-104613967D01*
X101584668Y-104298088D01*
X101461418Y-104000537D01*
X101282487Y-103732748D01*
X101054752Y-103505013D01*
X100786963Y-103326082D01*
X100489412Y-103202832D01*
X100173533Y-103140000D01*
X99851467Y-103140000D01*
X99535588Y-103202832D01*
X99238037Y-103326082D01*
X98970248Y-103505013D01*
X98742513Y-103732748D01*
X98563582Y-104000537D01*
X98440332Y-104298088D01*
X98377500Y-104613967D01*
X92989000Y-104613967D01*
X92989000Y-101961740D01*
X129706000Y-101961740D01*
X129706000Y-102254260D01*
X129763068Y-102541158D01*
X129875010Y-102811411D01*
X130037525Y-103054632D01*
X130244368Y-103261475D01*
X130487589Y-103423990D01*
X130757842Y-103535932D01*
X131044740Y-103593000D01*
X131337260Y-103593000D01*
X131624158Y-103535932D01*
X131894411Y-103423990D01*
X132137632Y-103261475D01*
X132344475Y-103054632D01*
X132506990Y-102811411D01*
X132618932Y-102541158D01*
X132676000Y-102254260D01*
X132676000Y-101961740D01*
X132618932Y-101674842D01*
X132506990Y-101404589D01*
X132344475Y-101161368D01*
X132137632Y-100954525D01*
X131894411Y-100792010D01*
X131624158Y-100680068D01*
X131337260Y-100623000D01*
X131044740Y-100623000D01*
X130757842Y-100680068D01*
X130487589Y-100792010D01*
X130244368Y-100954525D01*
X130037525Y-101161368D01*
X129875010Y-101404589D01*
X129763068Y-101674842D01*
X129706000Y-101961740D01*
X92989000Y-101961740D01*
X92989000Y-97451297D01*
X136808000Y-97451297D01*
X136808000Y-97620703D01*
X136841049Y-97786853D01*
X136905878Y-97943363D01*
X136908000Y-97946539D01*
X136908001Y-98514668D01*
X136904324Y-98552000D01*
X136908001Y-98589333D01*
X136909884Y-98608446D01*
X136918998Y-98700985D01*
X136962454Y-98844246D01*
X137033026Y-98976276D01*
X137104201Y-99063002D01*
X137128000Y-99092001D01*
X137156997Y-99115799D01*
X137701574Y-99660377D01*
X137622595Y-99756613D01*
X137540528Y-99910149D01*
X137489992Y-100076745D01*
X137472928Y-100249999D01*
X137472928Y-100900001D01*
X137489992Y-101073255D01*
X137540528Y-101239851D01*
X137622595Y-101393387D01*
X137733038Y-101527962D01*
X137820816Y-101600000D01*
X137733038Y-101672038D01*
X137622595Y-101806613D01*
X137540528Y-101960149D01*
X137489992Y-102126745D01*
X137472928Y-102299999D01*
X137472928Y-102950001D01*
X137489992Y-103123255D01*
X137540528Y-103289851D01*
X137622595Y-103443387D01*
X137733038Y-103577962D01*
X137867613Y-103688405D01*
X138021149Y-103770472D01*
X138187745Y-103821008D01*
X138360999Y-103838072D01*
X139261001Y-103838072D01*
X139434255Y-103821008D01*
X139600851Y-103770472D01*
X139754387Y-103688405D01*
X139888962Y-103577962D01*
X139999405Y-103443387D01*
X140030614Y-103385000D01*
X141905777Y-103385000D01*
X141889495Y-103401282D01*
X141795378Y-103542137D01*
X141730549Y-103698647D01*
X141697500Y-103864797D01*
X141697500Y-104034203D01*
X141730549Y-104200353D01*
X141795378Y-104356863D01*
X141797501Y-104360040D01*
X141797500Y-118493698D01*
X139442998Y-120848201D01*
X139414000Y-120871999D01*
X139390202Y-120900997D01*
X139390201Y-120900998D01*
X139319026Y-120987724D01*
X139248454Y-121119754D01*
X139218180Y-121219558D01*
X139204998Y-121263014D01*
X139194001Y-121374667D01*
X139190324Y-121412000D01*
X139194001Y-121449332D01*
X139194001Y-121776146D01*
X139168815Y-121796815D01*
X139089463Y-121893506D01*
X139030498Y-122003820D01*
X138994188Y-122123518D01*
X138981928Y-122248000D01*
X138981928Y-123148000D01*
X138994188Y-123272482D01*
X139030498Y-123392180D01*
X139089463Y-123502494D01*
X139168815Y-123599185D01*
X139265506Y-123678537D01*
X139375820Y-123737502D01*
X139495518Y-123773812D01*
X139620000Y-123786072D01*
X140131905Y-123786072D01*
X140118815Y-123796815D01*
X140039463Y-123893506D01*
X139980498Y-124003820D01*
X139944188Y-124123518D01*
X139931928Y-124248000D01*
X139931928Y-125148000D01*
X139944188Y-125272482D01*
X139980498Y-125392180D01*
X140039463Y-125502494D01*
X140118815Y-125599185D01*
X140210001Y-125674019D01*
X140210000Y-127901868D01*
X140170000Y-127897928D01*
X139170000Y-127897928D01*
X139045518Y-127910188D01*
X138925820Y-127946498D01*
X138815506Y-128005463D01*
X138718815Y-128084815D01*
X138639463Y-128181506D01*
X138580498Y-128291820D01*
X138544188Y-128411518D01*
X138531928Y-128536000D01*
X138531928Y-130036000D01*
X138544188Y-130160482D01*
X138580498Y-130280180D01*
X138639463Y-130390494D01*
X138718815Y-130487185D01*
X138815001Y-130566122D01*
X138815000Y-138854476D01*
X138827805Y-138984489D01*
X138878411Y-139151312D01*
X138960589Y-139305058D01*
X139071183Y-139439817D01*
X139205941Y-139550411D01*
X139359687Y-139632589D01*
X139526510Y-139683195D01*
X139700000Y-139700282D01*
X139873489Y-139683195D01*
X140040312Y-139632589D01*
X140194058Y-139550411D01*
X140328817Y-139439817D01*
X140439411Y-139305059D01*
X140521589Y-139151313D01*
X140572195Y-138984490D01*
X140585000Y-138854477D01*
X140585000Y-130674072D01*
X141470000Y-130674072D01*
X141594482Y-130661812D01*
X141620000Y-130654071D01*
X141645518Y-130661812D01*
X141770000Y-130674072D01*
X142770000Y-130674072D01*
X142894482Y-130661812D01*
X143014180Y-130625502D01*
X143124494Y-130566537D01*
X143221185Y-130487185D01*
X143300537Y-130390494D01*
X143359502Y-130280180D01*
X143395812Y-130160482D01*
X143408072Y-130036000D01*
X143408072Y-128536000D01*
X143395812Y-128411518D01*
X143359502Y-128291820D01*
X143300537Y-128181506D01*
X143221185Y-128084815D01*
X143155000Y-128030499D01*
X143155000Y-127267467D01*
X143159281Y-127224001D01*
X143155000Y-127180535D01*
X143155000Y-127180523D01*
X143142195Y-127050510D01*
X143091589Y-126883687D01*
X143009411Y-126729941D01*
X142898817Y-126595183D01*
X142764059Y-126484589D01*
X142610313Y-126402411D01*
X142443490Y-126351805D01*
X142270000Y-126334718D01*
X142096511Y-126351805D01*
X141929688Y-126402411D01*
X141775942Y-126484589D01*
X141766912Y-126492000D01*
X141730000Y-126522293D01*
X141730000Y-125674018D01*
X141821185Y-125599185D01*
X141900537Y-125502494D01*
X141959502Y-125392180D01*
X141995812Y-125272482D01*
X142008072Y-125148000D01*
X142008072Y-125098000D01*
X143851928Y-125098000D01*
X143851928Y-125498000D01*
X143868031Y-125661500D01*
X143915722Y-125818716D01*
X143993169Y-125963608D01*
X144097394Y-126090606D01*
X144224392Y-126194831D01*
X144369284Y-126272278D01*
X144526500Y-126319969D01*
X144690000Y-126336072D01*
X146350000Y-126336072D01*
X146513500Y-126319969D01*
X146670716Y-126272278D01*
X146815608Y-126194831D01*
X146897128Y-126127929D01*
X147300198Y-126531000D01*
X146684332Y-126531000D01*
X146670716Y-126523722D01*
X146513500Y-126476031D01*
X146350000Y-126459928D01*
X144690000Y-126459928D01*
X144526500Y-126476031D01*
X144369284Y-126523722D01*
X144224392Y-126601169D01*
X144097394Y-126705394D01*
X143993169Y-126832392D01*
X143915722Y-126977284D01*
X143868031Y-127134500D01*
X143851928Y-127298000D01*
X143851928Y-127698000D01*
X143868031Y-127861500D01*
X143915722Y-128018716D01*
X143993169Y-128163608D01*
X144097394Y-128290606D01*
X144224392Y-128394831D01*
X144369284Y-128472278D01*
X144526500Y-128519969D01*
X144690000Y-128536072D01*
X146350000Y-128536072D01*
X146513500Y-128519969D01*
X146670716Y-128472278D01*
X146815608Y-128394831D01*
X146929941Y-128301000D01*
X147363477Y-128301000D01*
X147493490Y-128288195D01*
X147576001Y-128263165D01*
X147576000Y-137257461D01*
X147573878Y-137260637D01*
X147509049Y-137417147D01*
X147476000Y-137583297D01*
X147476000Y-137752703D01*
X147509049Y-137918853D01*
X147573878Y-138075363D01*
X147667995Y-138216218D01*
X147787782Y-138336005D01*
X147928637Y-138430122D01*
X148085147Y-138494951D01*
X148251297Y-138528000D01*
X148420703Y-138528000D01*
X148586853Y-138494951D01*
X148592000Y-138492819D01*
X148592000Y-138781461D01*
X148589878Y-138784637D01*
X148525049Y-138941147D01*
X148492000Y-139107297D01*
X148492000Y-139276703D01*
X148525049Y-139442853D01*
X148589878Y-139599363D01*
X148683995Y-139740218D01*
X148803782Y-139860005D01*
X148944637Y-139954122D01*
X149101147Y-140018951D01*
X149267297Y-140052000D01*
X149436703Y-140052000D01*
X149602853Y-140018951D01*
X149759363Y-139954122D01*
X149900218Y-139860005D01*
X150020005Y-139740218D01*
X150114122Y-139599363D01*
X150178951Y-139442853D01*
X150212000Y-139276703D01*
X150212000Y-139107297D01*
X150178951Y-138941147D01*
X150114122Y-138784637D01*
X150112000Y-138781461D01*
X150112000Y-136694297D01*
X154334000Y-136694297D01*
X154334000Y-136863703D01*
X154367049Y-137029853D01*
X154431878Y-137186363D01*
X154525995Y-137327218D01*
X154645782Y-137447005D01*
X154786637Y-137541122D01*
X154943147Y-137605951D01*
X155109297Y-137639000D01*
X155278703Y-137639000D01*
X155444853Y-137605951D01*
X155601363Y-137541122D01*
X155604539Y-137539000D01*
X156561461Y-137539000D01*
X156564637Y-137541122D01*
X156721147Y-137605951D01*
X156887297Y-137639000D01*
X157056703Y-137639000D01*
X157222853Y-137605951D01*
X157379363Y-137541122D01*
X157520218Y-137447005D01*
X157640005Y-137327218D01*
X157734122Y-137186363D01*
X157798951Y-137029853D01*
X157832000Y-136863703D01*
X157832000Y-136694297D01*
X157798951Y-136528147D01*
X157734122Y-136371637D01*
X157640005Y-136230782D01*
X157520218Y-136110995D01*
X157379363Y-136016878D01*
X157222853Y-135952049D01*
X157056703Y-135919000D01*
X156887297Y-135919000D01*
X156721147Y-135952049D01*
X156564637Y-136016878D01*
X156561461Y-136019000D01*
X155604539Y-136019000D01*
X155601363Y-136016878D01*
X155444853Y-135952049D01*
X155278703Y-135919000D01*
X155109297Y-135919000D01*
X154943147Y-135952049D01*
X154786637Y-136016878D01*
X154645782Y-136110995D01*
X154525995Y-136230782D01*
X154431878Y-136371637D01*
X154367049Y-136528147D01*
X154334000Y-136694297D01*
X150112000Y-136694297D01*
X150112000Y-128124004D01*
X150133169Y-128163608D01*
X150237394Y-128290606D01*
X150364392Y-128394831D01*
X150509284Y-128472278D01*
X150666500Y-128519969D01*
X150830000Y-128536072D01*
X152490000Y-128536072D01*
X152653500Y-128519969D01*
X152810716Y-128472278D01*
X152955608Y-128394831D01*
X153069941Y-128301000D01*
X153459477Y-128301000D01*
X153589490Y-128288195D01*
X153756313Y-128237589D01*
X153910059Y-128155411D01*
X154044817Y-128044817D01*
X154155411Y-127910059D01*
X154237589Y-127756313D01*
X154288195Y-127589490D01*
X154305282Y-127416000D01*
X154288195Y-127242510D01*
X154237589Y-127075687D01*
X154155411Y-126921941D01*
X154044817Y-126787183D01*
X153910059Y-126676589D01*
X153756313Y-126594411D01*
X153589490Y-126543805D01*
X153459477Y-126531000D01*
X152824332Y-126531000D01*
X152810716Y-126523722D01*
X152653500Y-126476031D01*
X152490000Y-126459928D01*
X150830000Y-126459928D01*
X150666500Y-126476031D01*
X150509284Y-126523722D01*
X150364392Y-126601169D01*
X150237394Y-126705394D01*
X150133169Y-126832392D01*
X150112000Y-126871996D01*
X150112000Y-126058000D01*
X150210635Y-126058000D01*
X150237394Y-126090606D01*
X150364392Y-126194831D01*
X150509284Y-126272278D01*
X150666500Y-126319969D01*
X150830000Y-126336072D01*
X152490000Y-126336072D01*
X152653500Y-126319969D01*
X152810716Y-126272278D01*
X152955608Y-126194831D01*
X153082606Y-126090606D01*
X153186831Y-125963608D01*
X153264278Y-125818716D01*
X153311969Y-125661500D01*
X153328072Y-125498000D01*
X153328072Y-125098000D01*
X153311969Y-124934500D01*
X153264278Y-124777284D01*
X153186831Y-124632392D01*
X153082606Y-124505394D01*
X152955608Y-124401169D01*
X152810716Y-124323722D01*
X152653500Y-124276031D01*
X152490000Y-124259928D01*
X150830000Y-124259928D01*
X150666500Y-124276031D01*
X150509284Y-124323722D01*
X150364392Y-124401169D01*
X150237394Y-124505394D01*
X150210635Y-124538000D01*
X149821322Y-124538000D01*
X149783999Y-124534324D01*
X149746676Y-124538000D01*
X149746667Y-124538000D01*
X149635014Y-124548997D01*
X149491753Y-124592454D01*
X149359724Y-124663026D01*
X149243999Y-124757999D01*
X149220196Y-124787003D01*
X148840998Y-125166201D01*
X148812000Y-125189999D01*
X148788202Y-125218997D01*
X148788201Y-125218998D01*
X148717026Y-125305724D01*
X148646454Y-125437754D01*
X148602998Y-125581015D01*
X148593747Y-125674945D01*
X147705804Y-124787003D01*
X147682001Y-124757999D01*
X147566276Y-124663026D01*
X147434247Y-124592454D01*
X147290986Y-124548997D01*
X147179333Y-124538000D01*
X147179322Y-124538000D01*
X147142000Y-124534324D01*
X147104678Y-124538000D01*
X146969365Y-124538000D01*
X146942606Y-124505394D01*
X146815608Y-124401169D01*
X146670716Y-124323722D01*
X146513500Y-124276031D01*
X146350000Y-124259928D01*
X144690000Y-124259928D01*
X144526500Y-124276031D01*
X144369284Y-124323722D01*
X144224392Y-124401169D01*
X144097394Y-124505394D01*
X143993169Y-124632392D01*
X143915722Y-124777284D01*
X143868031Y-124934500D01*
X143851928Y-125098000D01*
X142008072Y-125098000D01*
X142008072Y-124248000D01*
X141995812Y-124123518D01*
X141959502Y-124003820D01*
X141900537Y-123893506D01*
X141821185Y-123796815D01*
X141808095Y-123786072D01*
X142320000Y-123786072D01*
X142444482Y-123773812D01*
X142564180Y-123737502D01*
X142674494Y-123678537D01*
X142771185Y-123599185D01*
X142850537Y-123502494D01*
X142909502Y-123392180D01*
X142945812Y-123272482D01*
X142958072Y-123148000D01*
X142958072Y-122248000D01*
X142950587Y-122172000D01*
X144278963Y-122172000D01*
X144224392Y-122201169D01*
X144097394Y-122305394D01*
X143993169Y-122432392D01*
X143915722Y-122577284D01*
X143868031Y-122734500D01*
X143851928Y-122898000D01*
X143851928Y-123298000D01*
X143868031Y-123461500D01*
X143915722Y-123618716D01*
X143993169Y-123763608D01*
X144097394Y-123890606D01*
X144224392Y-123994831D01*
X144369284Y-124072278D01*
X144526500Y-124119969D01*
X144690000Y-124136072D01*
X146350000Y-124136072D01*
X146513500Y-124119969D01*
X146670716Y-124072278D01*
X146815608Y-123994831D01*
X146872672Y-123948000D01*
X150307328Y-123948000D01*
X150364392Y-123994831D01*
X150509284Y-124072278D01*
X150666500Y-124119969D01*
X150830000Y-124136072D01*
X152490000Y-124136072D01*
X152653500Y-124119969D01*
X152810716Y-124072278D01*
X152955608Y-123994831D01*
X153082606Y-123890606D01*
X153186831Y-123763608D01*
X153264278Y-123618716D01*
X153311969Y-123461500D01*
X153328072Y-123298000D01*
X153328072Y-122898000D01*
X153311969Y-122734500D01*
X153264278Y-122577284D01*
X153186831Y-122432392D01*
X153082606Y-122305394D01*
X152955608Y-122201169D01*
X152810716Y-122123722D01*
X152653500Y-122076031D01*
X152490000Y-122059928D01*
X152038041Y-122059928D01*
X152062276Y-122046974D01*
X152178001Y-121952001D01*
X152272974Y-121836276D01*
X152343546Y-121704247D01*
X152387003Y-121560986D01*
X152401677Y-121412000D01*
X152398000Y-121374667D01*
X152398000Y-120936072D01*
X152490000Y-120936072D01*
X152653500Y-120919969D01*
X152810716Y-120872278D01*
X152955608Y-120794831D01*
X153082606Y-120690606D01*
X153186831Y-120563608D01*
X153264278Y-120418716D01*
X153311969Y-120261500D01*
X153328072Y-120098000D01*
X153328072Y-119698000D01*
X153311969Y-119534500D01*
X153264278Y-119377284D01*
X153186831Y-119232392D01*
X153082606Y-119105394D01*
X152955608Y-119001169D01*
X152810716Y-118923722D01*
X152653500Y-118876031D01*
X152490000Y-118859928D01*
X152420000Y-118859928D01*
X152420000Y-117023325D01*
X152423676Y-116986000D01*
X152420000Y-116948675D01*
X152420000Y-116948667D01*
X152409003Y-116837014D01*
X152365546Y-116693753D01*
X152294974Y-116561724D01*
X152200001Y-116445999D01*
X152171003Y-116422201D01*
X151178072Y-115429271D01*
X151178072Y-114766000D01*
X151165812Y-114641518D01*
X151129502Y-114521820D01*
X151070537Y-114411506D01*
X150991185Y-114314815D01*
X150894494Y-114235463D01*
X150784180Y-114176498D01*
X150664482Y-114140188D01*
X150540000Y-114127928D01*
X149440000Y-114127928D01*
X149315518Y-114140188D01*
X149195820Y-114176498D01*
X149085506Y-114235463D01*
X148988815Y-114314815D01*
X148909463Y-114411506D01*
X148850498Y-114521820D01*
X148814188Y-114641518D01*
X148801928Y-114766000D01*
X148801928Y-115866000D01*
X148814188Y-115990482D01*
X148850498Y-116110180D01*
X148909463Y-116220494D01*
X148988815Y-116317185D01*
X149085506Y-116396537D01*
X149195820Y-116455502D01*
X149315518Y-116491812D01*
X149440000Y-116504072D01*
X150103271Y-116504072D01*
X150900001Y-117300803D01*
X150900000Y-118859928D01*
X150830000Y-118859928D01*
X150666500Y-118876031D01*
X150509284Y-118923722D01*
X150364392Y-119001169D01*
X150237394Y-119105394D01*
X150133169Y-119232392D01*
X150055722Y-119377284D01*
X150008031Y-119534500D01*
X149991928Y-119698000D01*
X149991928Y-120098000D01*
X150008031Y-120261500D01*
X150055722Y-120418716D01*
X150133169Y-120563608D01*
X150205711Y-120652000D01*
X142531333Y-120652000D01*
X142494000Y-120648323D01*
X142456667Y-120652000D01*
X142345014Y-120662997D01*
X142201753Y-120706454D01*
X142069724Y-120777026D01*
X141953999Y-120871999D01*
X141930200Y-120900998D01*
X141408998Y-121422201D01*
X141380000Y-121445999D01*
X141356202Y-121474997D01*
X141356201Y-121474998D01*
X141285026Y-121561724D01*
X141216291Y-121690317D01*
X141165506Y-121717463D01*
X141068815Y-121796815D01*
X140989463Y-121893506D01*
X140970000Y-121929918D01*
X140950537Y-121893506D01*
X140871185Y-121796815D01*
X140774494Y-121717463D01*
X140741157Y-121699644D01*
X143068504Y-119372298D01*
X143097501Y-119348501D01*
X143135205Y-119302559D01*
X143192474Y-119232777D01*
X143263046Y-119100747D01*
X143273693Y-119065647D01*
X143306503Y-118957486D01*
X143317500Y-118845833D01*
X143317500Y-118845823D01*
X143321176Y-118808501D01*
X143317500Y-118771178D01*
X143317500Y-112565476D01*
X146435000Y-112565476D01*
X146447805Y-112695489D01*
X146498411Y-112862312D01*
X146580589Y-113016058D01*
X146691183Y-113150817D01*
X146825941Y-113261411D01*
X146979687Y-113343589D01*
X147146510Y-113394195D01*
X147320000Y-113411282D01*
X147493489Y-113394195D01*
X147660312Y-113343589D01*
X147814058Y-113261411D01*
X147948817Y-113150817D01*
X148059411Y-113016059D01*
X148141589Y-112862313D01*
X148192195Y-112695490D01*
X148205000Y-112565477D01*
X148205000Y-109262297D01*
X154080000Y-109262297D01*
X154080000Y-109431703D01*
X154113049Y-109597853D01*
X154177878Y-109754363D01*
X154180001Y-109757540D01*
X154180000Y-111095461D01*
X154177878Y-111098637D01*
X154113049Y-111255147D01*
X154080000Y-111421297D01*
X154080000Y-111590703D01*
X154113049Y-111756853D01*
X154177878Y-111913363D01*
X154271995Y-112054218D01*
X154391782Y-112174005D01*
X154532637Y-112268122D01*
X154689147Y-112332951D01*
X154855297Y-112366000D01*
X155024703Y-112366000D01*
X155190853Y-112332951D01*
X155257500Y-112305345D01*
X155324147Y-112332951D01*
X155490297Y-112366000D01*
X155659703Y-112366000D01*
X155825853Y-112332951D01*
X155892500Y-112305345D01*
X155959147Y-112332951D01*
X156125297Y-112366000D01*
X156294703Y-112366000D01*
X156460853Y-112332951D01*
X156617363Y-112268122D01*
X156758218Y-112174005D01*
X156845000Y-112087223D01*
X156931782Y-112174005D01*
X157072637Y-112268122D01*
X157229147Y-112332951D01*
X157395297Y-112366000D01*
X157564703Y-112366000D01*
X157730853Y-112332951D01*
X157887363Y-112268122D01*
X158028218Y-112174005D01*
X158148005Y-112054218D01*
X158242122Y-111913363D01*
X158306951Y-111756853D01*
X158340000Y-111590703D01*
X158340000Y-111421297D01*
X158306951Y-111255147D01*
X158242122Y-111098637D01*
X158240000Y-111095461D01*
X158240000Y-109757539D01*
X158242122Y-109754363D01*
X158306951Y-109597853D01*
X158340000Y-109431703D01*
X158340000Y-109262297D01*
X158306951Y-109096147D01*
X158242122Y-108939637D01*
X158148005Y-108798782D01*
X158028218Y-108678995D01*
X157887363Y-108584878D01*
X157730853Y-108520049D01*
X157564703Y-108487000D01*
X157395297Y-108487000D01*
X157229147Y-108520049D01*
X157072637Y-108584878D01*
X156931782Y-108678995D01*
X156845000Y-108765777D01*
X156758218Y-108678995D01*
X156617363Y-108584878D01*
X156460853Y-108520049D01*
X156294703Y-108487000D01*
X156125297Y-108487000D01*
X155959147Y-108520049D01*
X155892500Y-108547655D01*
X155825853Y-108520049D01*
X155659703Y-108487000D01*
X155490297Y-108487000D01*
X155324147Y-108520049D01*
X155257500Y-108547655D01*
X155190853Y-108520049D01*
X155024703Y-108487000D01*
X154855297Y-108487000D01*
X154689147Y-108520049D01*
X154532637Y-108584878D01*
X154391782Y-108678995D01*
X154271995Y-108798782D01*
X154177878Y-108939637D01*
X154113049Y-109096147D01*
X154080000Y-109262297D01*
X148205000Y-109262297D01*
X148205000Y-109176523D01*
X148192195Y-109046510D01*
X148141589Y-108879687D01*
X148059411Y-108725941D01*
X147948817Y-108591183D01*
X147814059Y-108480589D01*
X147660313Y-108398411D01*
X147493490Y-108347805D01*
X147320000Y-108330718D01*
X147146511Y-108347805D01*
X146979688Y-108398411D01*
X146825942Y-108480589D01*
X146691184Y-108591183D01*
X146580590Y-108725941D01*
X146498412Y-108879687D01*
X146447806Y-109046510D01*
X146435001Y-109176523D01*
X146435000Y-112565476D01*
X143317500Y-112565476D01*
X143317500Y-105203533D01*
X160677441Y-105203533D01*
X160680877Y-105238420D01*
X160680876Y-135648655D01*
X160677441Y-135683532D01*
X160691149Y-135822716D01*
X160731748Y-135956552D01*
X160797676Y-136079895D01*
X160886401Y-136188007D01*
X160982432Y-136266817D01*
X160994513Y-136276732D01*
X161117856Y-136342660D01*
X161251692Y-136383259D01*
X161390876Y-136396967D01*
X161425753Y-136393532D01*
X174844123Y-136393532D01*
X174879000Y-136396967D01*
X174913877Y-136393532D01*
X174948105Y-136390161D01*
X175018184Y-136383259D01*
X175152020Y-136342660D01*
X175275363Y-136276732D01*
X175383475Y-136188007D01*
X175472200Y-136079895D01*
X175538128Y-135956552D01*
X175578727Y-135822716D01*
X175589000Y-135718409D01*
X175589000Y-135718408D01*
X175592435Y-135683532D01*
X175589000Y-135648655D01*
X175589000Y-134163492D01*
X187770000Y-134163492D01*
X187770000Y-135076508D01*
X187948120Y-135971980D01*
X188297516Y-136815496D01*
X188804760Y-137574640D01*
X189450360Y-138220240D01*
X190209504Y-138727484D01*
X191053020Y-139076880D01*
X191948492Y-139255000D01*
X192861508Y-139255000D01*
X193756980Y-139076880D01*
X194600496Y-138727484D01*
X195359640Y-138220240D01*
X196005240Y-137574640D01*
X196512484Y-136815496D01*
X196861880Y-135971980D01*
X197040000Y-135076508D01*
X197040000Y-134163492D01*
X196861880Y-133268020D01*
X196512484Y-132424504D01*
X196005240Y-131665360D01*
X195359640Y-131019760D01*
X194600496Y-130512516D01*
X193756980Y-130163120D01*
X192861508Y-129985000D01*
X191948492Y-129985000D01*
X191053020Y-130163120D01*
X190209504Y-130512516D01*
X189450360Y-131019760D01*
X188804760Y-131665360D01*
X188297516Y-132424504D01*
X187948120Y-133268020D01*
X187770000Y-134163492D01*
X175589000Y-134163492D01*
X175589000Y-123795797D01*
X186647500Y-123795797D01*
X186647500Y-123965203D01*
X186680549Y-124131353D01*
X186745378Y-124287863D01*
X186839495Y-124428718D01*
X186959282Y-124548505D01*
X187100137Y-124642622D01*
X187256647Y-124707451D01*
X187422797Y-124740500D01*
X187592203Y-124740500D01*
X187758353Y-124707451D01*
X187878730Y-124657589D01*
X187885028Y-124678351D01*
X187967095Y-124831887D01*
X188077538Y-124966462D01*
X188212113Y-125076905D01*
X188365649Y-125158972D01*
X188532245Y-125209508D01*
X188705499Y-125226572D01*
X189355501Y-125226572D01*
X189528755Y-125209508D01*
X189695351Y-125158972D01*
X189848887Y-125076905D01*
X189983462Y-124966462D01*
X190093905Y-124831887D01*
X190175972Y-124678351D01*
X190226508Y-124511755D01*
X190243572Y-124338501D01*
X190243572Y-123438499D01*
X190226508Y-123265245D01*
X190175972Y-123098649D01*
X190165500Y-123079057D01*
X190165500Y-122284943D01*
X190175972Y-122265351D01*
X190226508Y-122098755D01*
X190243572Y-121925501D01*
X190243572Y-121025499D01*
X190226508Y-120852245D01*
X190175972Y-120685649D01*
X190093905Y-120532113D01*
X189983462Y-120397538D01*
X189848887Y-120287095D01*
X189695351Y-120205028D01*
X189528755Y-120154492D01*
X189355501Y-120137428D01*
X188705499Y-120137428D01*
X188532245Y-120154492D01*
X188365649Y-120205028D01*
X188212113Y-120287095D01*
X188077538Y-120397538D01*
X187967095Y-120532113D01*
X187885028Y-120685649D01*
X187834492Y-120852245D01*
X187817428Y-121025499D01*
X187817428Y-121925501D01*
X187834492Y-122098755D01*
X187885028Y-122265351D01*
X187895501Y-122284944D01*
X187895500Y-123079057D01*
X187885028Y-123098649D01*
X187883042Y-123105197D01*
X187758353Y-123053549D01*
X187592203Y-123020500D01*
X187422797Y-123020500D01*
X187256647Y-123053549D01*
X187100137Y-123118378D01*
X186959282Y-123212495D01*
X186839495Y-123332282D01*
X186745378Y-123473137D01*
X186680549Y-123629647D01*
X186647500Y-123795797D01*
X175589000Y-123795797D01*
X175589000Y-118808500D01*
X195770219Y-118808500D01*
X195774500Y-118851969D01*
X195774500Y-118851976D01*
X195784892Y-118957485D01*
X195786734Y-118976187D01*
X195787305Y-118981989D01*
X195837911Y-119148812D01*
X195920089Y-119302558D01*
X196030683Y-119437317D01*
X196064456Y-119465034D01*
X196510966Y-119911544D01*
X196538683Y-119945317D01*
X196673441Y-120055911D01*
X196827187Y-120138089D01*
X196994010Y-120188695D01*
X197124023Y-120201500D01*
X197124033Y-120201500D01*
X197167499Y-120205781D01*
X197210965Y-120201500D01*
X199750977Y-120201500D01*
X199880990Y-120188695D01*
X200047813Y-120138089D01*
X200201559Y-120055911D01*
X200336317Y-119945317D01*
X200446911Y-119810559D01*
X200529089Y-119656813D01*
X200579695Y-119489990D01*
X200596782Y-119316500D01*
X200579695Y-119143010D01*
X200529089Y-118976187D01*
X200446911Y-118822441D01*
X200336317Y-118687683D01*
X200201559Y-118577089D01*
X200047813Y-118494911D01*
X199880990Y-118444305D01*
X199750977Y-118431500D01*
X197544500Y-118431500D01*
X197544500Y-118003023D01*
X197531695Y-117873010D01*
X197481089Y-117706187D01*
X197398911Y-117552441D01*
X197288317Y-117417683D01*
X197153559Y-117307089D01*
X196999813Y-117224911D01*
X196832990Y-117174305D01*
X196659500Y-117157218D01*
X196486011Y-117174305D01*
X196319188Y-117224911D01*
X196165442Y-117307089D01*
X196030684Y-117417683D01*
X195920090Y-117552441D01*
X195837912Y-117706187D01*
X195787305Y-117873010D01*
X195774500Y-118003023D01*
X195774500Y-118765031D01*
X195770219Y-118808500D01*
X175589000Y-118808500D01*
X175589000Y-105238410D01*
X175592435Y-105203533D01*
X175578727Y-105064349D01*
X175538128Y-104930513D01*
X175472200Y-104807170D01*
X175383475Y-104699058D01*
X175275363Y-104610333D01*
X175152020Y-104544405D01*
X175018184Y-104503806D01*
X174913877Y-104493533D01*
X174879000Y-104490098D01*
X174844123Y-104493533D01*
X161425753Y-104493533D01*
X161390876Y-104490098D01*
X161355999Y-104493533D01*
X161251692Y-104503806D01*
X161117856Y-104544405D01*
X160994513Y-104610333D01*
X160886401Y-104699058D01*
X160797676Y-104807170D01*
X160731748Y-104930513D01*
X160691149Y-105064349D01*
X160677441Y-105203533D01*
X143317500Y-105203533D01*
X143317500Y-104360039D01*
X143319622Y-104356863D01*
X143384451Y-104200353D01*
X143405103Y-104096524D01*
X177550000Y-104096524D01*
X177550001Y-106215477D01*
X177562806Y-106345490D01*
X177613412Y-106512313D01*
X177695590Y-106666059D01*
X177806184Y-106800817D01*
X177940942Y-106911411D01*
X178094688Y-106993589D01*
X178261511Y-107044195D01*
X178435000Y-107061282D01*
X178608490Y-107044195D01*
X178775313Y-106993589D01*
X178929059Y-106911411D01*
X179063817Y-106800817D01*
X179174411Y-106666059D01*
X179256589Y-106512313D01*
X179307195Y-106345490D01*
X179320000Y-106215477D01*
X179320000Y-104564721D01*
X185253500Y-104564721D01*
X185253500Y-104985279D01*
X185335547Y-105397756D01*
X185496488Y-105786302D01*
X185730137Y-106135983D01*
X186027517Y-106433363D01*
X186377198Y-106667012D01*
X186765744Y-106827953D01*
X187178221Y-106910000D01*
X187598779Y-106910000D01*
X188011256Y-106827953D01*
X188399802Y-106667012D01*
X188749483Y-106433363D01*
X189046863Y-106135983D01*
X189280512Y-105786302D01*
X189441453Y-105397756D01*
X189523500Y-104985279D01*
X189523500Y-104613967D01*
X195278500Y-104613967D01*
X195278500Y-104936033D01*
X195341332Y-105251912D01*
X195464582Y-105549463D01*
X195643513Y-105817252D01*
X195871248Y-106044987D01*
X196139037Y-106223918D01*
X196436588Y-106347168D01*
X196752467Y-106410000D01*
X197074533Y-106410000D01*
X197390412Y-106347168D01*
X197687963Y-106223918D01*
X197955752Y-106044987D01*
X198183487Y-105817252D01*
X198362418Y-105549463D01*
X198485668Y-105251912D01*
X198548500Y-104936033D01*
X198548500Y-104613967D01*
X198485668Y-104298088D01*
X198362418Y-104000537D01*
X198183487Y-103732748D01*
X197955752Y-103505013D01*
X197687963Y-103326082D01*
X197390412Y-103202832D01*
X197074533Y-103140000D01*
X196752467Y-103140000D01*
X196436588Y-103202832D01*
X196139037Y-103326082D01*
X195871248Y-103505013D01*
X195643513Y-103732748D01*
X195464582Y-104000537D01*
X195341332Y-104298088D01*
X195278500Y-104613967D01*
X189523500Y-104613967D01*
X189523500Y-104564721D01*
X189441453Y-104152244D01*
X189280512Y-103763698D01*
X189046863Y-103414017D01*
X188749483Y-103116637D01*
X188399802Y-102882988D01*
X188011256Y-102722047D01*
X187598779Y-102640000D01*
X187178221Y-102640000D01*
X186765744Y-102722047D01*
X186377198Y-102882988D01*
X186027517Y-103116637D01*
X185730137Y-103414017D01*
X185496488Y-103763698D01*
X185335547Y-104152244D01*
X185253500Y-104564721D01*
X179320000Y-104564721D01*
X179320000Y-104096523D01*
X179307195Y-103966510D01*
X179256589Y-103799687D01*
X179174411Y-103645941D01*
X179063817Y-103511183D01*
X178929058Y-103400589D01*
X178775312Y-103318411D01*
X178608489Y-103267805D01*
X178435000Y-103250718D01*
X178261510Y-103267805D01*
X178094687Y-103318411D01*
X177940941Y-103400589D01*
X177806183Y-103511183D01*
X177695589Y-103645942D01*
X177613411Y-103799688D01*
X177562805Y-103966511D01*
X177550000Y-104096524D01*
X143405103Y-104096524D01*
X143417500Y-104034203D01*
X143417500Y-103864797D01*
X143384451Y-103698647D01*
X143319622Y-103542137D01*
X143225505Y-103401282D01*
X143209223Y-103385000D01*
X144516242Y-103385000D01*
X144656147Y-103442951D01*
X144822297Y-103476000D01*
X144991703Y-103476000D01*
X145157853Y-103442951D01*
X145314363Y-103378122D01*
X145455218Y-103284005D01*
X145575005Y-103164218D01*
X145669122Y-103023363D01*
X145733951Y-102866853D01*
X145767000Y-102700703D01*
X145767000Y-102531297D01*
X145733951Y-102365147D01*
X145669122Y-102208637D01*
X145575005Y-102067782D01*
X145455218Y-101947995D01*
X145314363Y-101853878D01*
X145203604Y-101808000D01*
X156851678Y-101808000D01*
X156889000Y-101811676D01*
X156926322Y-101808000D01*
X156926333Y-101808000D01*
X157037986Y-101797003D01*
X157181247Y-101753546D01*
X157313276Y-101682974D01*
X157429001Y-101588001D01*
X157452803Y-101558998D01*
X157663605Y-101348197D01*
X157667353Y-101347451D01*
X157823863Y-101282622D01*
X157923209Y-101216240D01*
X157987878Y-101372363D01*
X158081995Y-101513218D01*
X158201782Y-101633005D01*
X158342637Y-101727122D01*
X158499147Y-101791951D01*
X158665297Y-101825000D01*
X158834703Y-101825000D01*
X159000853Y-101791951D01*
X159157363Y-101727122D01*
X159298218Y-101633005D01*
X159418005Y-101513218D01*
X159512122Y-101372363D01*
X159576951Y-101215853D01*
X159610000Y-101049703D01*
X159610000Y-100880297D01*
X159576951Y-100714147D01*
X159512122Y-100557637D01*
X159418005Y-100416782D01*
X159298218Y-100296995D01*
X159157363Y-100202878D01*
X159000853Y-100138049D01*
X158997105Y-100137304D01*
X157535804Y-98676003D01*
X157512001Y-98646999D01*
X157396276Y-98552026D01*
X157264247Y-98481454D01*
X157120986Y-98437997D01*
X157009333Y-98427000D01*
X157009322Y-98427000D01*
X156972000Y-98423324D01*
X156934678Y-98427000D01*
X152429539Y-98427000D01*
X152426363Y-98424878D01*
X152269853Y-98360049D01*
X152103703Y-98327000D01*
X151934297Y-98327000D01*
X151768147Y-98360049D01*
X151611637Y-98424878D01*
X151470782Y-98518995D01*
X151350995Y-98638782D01*
X151256878Y-98779637D01*
X151192049Y-98936147D01*
X151159000Y-99102297D01*
X151159000Y-99271703D01*
X151192049Y-99437853D01*
X151256878Y-99594363D01*
X151350995Y-99735218D01*
X151470782Y-99855005D01*
X151611637Y-99949122D01*
X151768147Y-100013951D01*
X151934297Y-100047000D01*
X152103703Y-100047000D01*
X152269853Y-100013951D01*
X152426363Y-99949122D01*
X152429539Y-99947000D01*
X156657199Y-99947000D01*
X156722053Y-100011854D01*
X156654378Y-100113137D01*
X156589549Y-100269647D01*
X156588803Y-100273395D01*
X156574199Y-100288000D01*
X144257539Y-100288000D01*
X144254363Y-100285878D01*
X144097853Y-100221049D01*
X143931703Y-100188000D01*
X143762297Y-100188000D01*
X143596147Y-100221049D01*
X143439637Y-100285878D01*
X143298782Y-100379995D01*
X143178995Y-100499782D01*
X143084878Y-100640637D01*
X143020049Y-100797147D01*
X142987000Y-100963297D01*
X142987000Y-101132703D01*
X143020049Y-101298853D01*
X143084878Y-101455363D01*
X143178995Y-101596218D01*
X143298782Y-101716005D01*
X143439637Y-101810122D01*
X143572123Y-101865000D01*
X140030614Y-101865000D01*
X139999405Y-101806613D01*
X139888962Y-101672038D01*
X139801184Y-101600000D01*
X139888962Y-101527962D01*
X139999405Y-101393387D01*
X140030614Y-101335000D01*
X140931461Y-101335000D01*
X140934637Y-101337122D01*
X141091147Y-101401951D01*
X141257297Y-101435000D01*
X141426703Y-101435000D01*
X141592853Y-101401951D01*
X141749363Y-101337122D01*
X141890218Y-101243005D01*
X142010005Y-101123218D01*
X142104122Y-100982363D01*
X142168951Y-100825853D01*
X142202000Y-100659703D01*
X142202000Y-100490297D01*
X142168951Y-100324147D01*
X142104122Y-100167637D01*
X142010005Y-100026782D01*
X141932219Y-99948996D01*
X142019005Y-99862210D01*
X142113122Y-99721355D01*
X142177951Y-99564845D01*
X142211000Y-99398695D01*
X142211000Y-99229289D01*
X142177951Y-99063139D01*
X142121619Y-98927143D01*
X142177955Y-98791138D01*
X142211004Y-98624988D01*
X142211004Y-98455582D01*
X142177955Y-98289432D01*
X142113126Y-98132922D01*
X142019009Y-97992067D01*
X141899222Y-97872280D01*
X141758367Y-97778163D01*
X141601857Y-97713334D01*
X141435707Y-97680285D01*
X141266301Y-97680285D01*
X141100151Y-97713334D01*
X140943641Y-97778163D01*
X140940465Y-97780285D01*
X139749088Y-97780285D01*
X139257696Y-97288895D01*
X139256951Y-97285147D01*
X139192122Y-97128637D01*
X139098005Y-96987782D01*
X138978218Y-96867995D01*
X138837363Y-96773878D01*
X138680853Y-96709049D01*
X138514703Y-96676000D01*
X138345297Y-96676000D01*
X138179147Y-96709049D01*
X138049000Y-96762958D01*
X137918853Y-96709049D01*
X137752703Y-96676000D01*
X137583297Y-96676000D01*
X137417147Y-96709049D01*
X137260637Y-96773878D01*
X137119782Y-96867995D01*
X136999995Y-96987782D01*
X136905878Y-97128637D01*
X136841049Y-97285147D01*
X136808000Y-97451297D01*
X92989000Y-97451297D01*
X92989000Y-93183967D01*
X98377500Y-93183967D01*
X98377500Y-93506033D01*
X98440332Y-93821912D01*
X98563582Y-94119463D01*
X98742513Y-94387252D01*
X98970248Y-94614987D01*
X99238037Y-94793918D01*
X99535588Y-94917168D01*
X99851467Y-94980000D01*
X100173533Y-94980000D01*
X100489412Y-94917168D01*
X100786963Y-94793918D01*
X101054752Y-94614987D01*
X101282487Y-94387252D01*
X101461418Y-94119463D01*
X101584668Y-93821912D01*
X101647500Y-93506033D01*
X101647500Y-93183967D01*
X101637705Y-93134721D01*
X107402500Y-93134721D01*
X107402500Y-93555279D01*
X107484547Y-93967756D01*
X107645488Y-94356302D01*
X107879137Y-94705983D01*
X108176517Y-95003363D01*
X108526198Y-95237012D01*
X108914744Y-95397953D01*
X109327221Y-95480000D01*
X109747779Y-95480000D01*
X110160256Y-95397953D01*
X110548802Y-95237012D01*
X110898483Y-95003363D01*
X111195863Y-94705983D01*
X111429512Y-94356302D01*
X111590453Y-93967756D01*
X111672500Y-93555279D01*
X111672500Y-93207000D01*
X129525928Y-93207000D01*
X129525928Y-95007000D01*
X129538188Y-95131482D01*
X129574498Y-95251180D01*
X129633463Y-95361494D01*
X129712815Y-95458185D01*
X129809506Y-95537537D01*
X129919820Y-95596502D01*
X130039518Y-95632812D01*
X130164000Y-95645072D01*
X131964000Y-95645072D01*
X132088482Y-95632812D01*
X132208180Y-95596502D01*
X132318494Y-95537537D01*
X132415185Y-95458185D01*
X132494537Y-95361494D01*
X132553502Y-95251180D01*
X132589812Y-95131482D01*
X132602072Y-95007000D01*
X132602072Y-94463297D01*
X135986000Y-94463297D01*
X135986000Y-94632703D01*
X136019049Y-94798853D01*
X136083878Y-94955363D01*
X136177995Y-95096218D01*
X136264777Y-95183000D01*
X136237995Y-95209782D01*
X136143878Y-95350637D01*
X136079049Y-95507147D01*
X136046000Y-95673297D01*
X136046000Y-95842703D01*
X136079049Y-96008853D01*
X136143878Y-96165363D01*
X136237995Y-96306218D01*
X136357782Y-96426005D01*
X136498637Y-96520122D01*
X136655147Y-96584951D01*
X136821297Y-96618000D01*
X136990703Y-96618000D01*
X137156853Y-96584951D01*
X137313363Y-96520122D01*
X137454218Y-96426005D01*
X137574005Y-96306218D01*
X137668122Y-96165363D01*
X137732951Y-96008853D01*
X137733697Y-96005105D01*
X137932002Y-95806800D01*
X140864261Y-95806800D01*
X140867437Y-95808922D01*
X141023947Y-95873751D01*
X141190097Y-95906800D01*
X141359503Y-95906800D01*
X141525653Y-95873751D01*
X141682163Y-95808922D01*
X141823018Y-95714805D01*
X141942805Y-95595018D01*
X142030818Y-95463297D01*
X142987000Y-95463297D01*
X142987000Y-95632703D01*
X143020049Y-95798853D01*
X143084878Y-95955363D01*
X143178995Y-96096218D01*
X143298782Y-96216005D01*
X143439637Y-96310122D01*
X143596147Y-96374951D01*
X143762297Y-96408000D01*
X143931703Y-96408000D01*
X144097853Y-96374951D01*
X144254363Y-96310122D01*
X144257539Y-96308000D01*
X145271199Y-96308000D01*
X146756200Y-97793002D01*
X146779999Y-97822001D01*
X146895724Y-97916974D01*
X147027753Y-97987546D01*
X147171014Y-98031003D01*
X147282667Y-98042000D01*
X147282676Y-98042000D01*
X147319999Y-98045676D01*
X147357322Y-98042000D01*
X164277199Y-98042000D01*
X167195545Y-100960348D01*
X166994525Y-101161368D01*
X166832010Y-101404589D01*
X166720068Y-101674842D01*
X166663000Y-101961740D01*
X166663000Y-102254260D01*
X166720068Y-102541158D01*
X166832010Y-102811411D01*
X166994525Y-103054632D01*
X167201368Y-103261475D01*
X167444589Y-103423990D01*
X167714842Y-103535932D01*
X168001740Y-103593000D01*
X168294260Y-103593000D01*
X168581158Y-103535932D01*
X168851411Y-103423990D01*
X169094632Y-103261475D01*
X169301475Y-103054632D01*
X169463990Y-102811411D01*
X169575932Y-102541158D01*
X169633000Y-102254260D01*
X169633000Y-101961740D01*
X169575932Y-101674842D01*
X169463990Y-101404589D01*
X169301475Y-101161368D01*
X169094632Y-100954525D01*
X168911073Y-100831875D01*
X168908000Y-100800676D01*
X168908000Y-100800667D01*
X168897003Y-100689014D01*
X168853546Y-100545753D01*
X168782974Y-100413724D01*
X168769811Y-100397685D01*
X168711799Y-100326996D01*
X168711795Y-100326992D01*
X168688001Y-100297999D01*
X168659009Y-100274206D01*
X165155804Y-96771003D01*
X165132001Y-96741999D01*
X165016276Y-96647026D01*
X164884247Y-96576454D01*
X164740986Y-96532997D01*
X164629333Y-96522000D01*
X164629322Y-96522000D01*
X164592000Y-96518324D01*
X164554678Y-96522000D01*
X147634802Y-96522000D01*
X146149804Y-95037003D01*
X146126001Y-95007999D01*
X146010276Y-94913026D01*
X145878247Y-94842454D01*
X145734986Y-94798997D01*
X145623333Y-94788000D01*
X145623322Y-94788000D01*
X145586000Y-94784324D01*
X145548678Y-94788000D01*
X144257539Y-94788000D01*
X144254363Y-94785878D01*
X144097853Y-94721049D01*
X143931703Y-94688000D01*
X143762297Y-94688000D01*
X143596147Y-94721049D01*
X143439637Y-94785878D01*
X143298782Y-94879995D01*
X143178995Y-94999782D01*
X143084878Y-95140637D01*
X143020049Y-95297147D01*
X142987000Y-95463297D01*
X142030818Y-95463297D01*
X142036922Y-95454163D01*
X142101751Y-95297653D01*
X142134800Y-95131503D01*
X142134800Y-94962097D01*
X142105126Y-94812915D01*
X142110951Y-94798853D01*
X142144000Y-94632703D01*
X142144000Y-94463297D01*
X142110951Y-94297147D01*
X142046122Y-94140637D01*
X141952005Y-93999782D01*
X141832218Y-93879995D01*
X141691363Y-93785878D01*
X141534853Y-93721049D01*
X141368703Y-93688000D01*
X141199297Y-93688000D01*
X141033147Y-93721049D01*
X140876637Y-93785878D01*
X140873461Y-93788000D01*
X137256539Y-93788000D01*
X137253363Y-93785878D01*
X137096853Y-93721049D01*
X136930703Y-93688000D01*
X136761297Y-93688000D01*
X136595147Y-93721049D01*
X136438637Y-93785878D01*
X136297782Y-93879995D01*
X136177995Y-93999782D01*
X136083878Y-94140637D01*
X136019049Y-94297147D01*
X135986000Y-94463297D01*
X132602072Y-94463297D01*
X132602072Y-93207000D01*
X132589812Y-93082518D01*
X132553502Y-92962820D01*
X132494537Y-92852506D01*
X132415185Y-92755815D01*
X132318494Y-92676463D01*
X132208180Y-92617498D01*
X132088482Y-92581188D01*
X131964000Y-92568928D01*
X130164000Y-92568928D01*
X130039518Y-92581188D01*
X129919820Y-92617498D01*
X129809506Y-92676463D01*
X129712815Y-92755815D01*
X129633463Y-92852506D01*
X129574498Y-92962820D01*
X129538188Y-93082518D01*
X129525928Y-93207000D01*
X111672500Y-93207000D01*
X111672500Y-93134721D01*
X111590453Y-92722244D01*
X111429512Y-92333698D01*
X111195863Y-91984017D01*
X110898483Y-91686637D01*
X110548802Y-91452988D01*
X110160256Y-91292047D01*
X109747779Y-91210000D01*
X109327221Y-91210000D01*
X108914744Y-91292047D01*
X108526198Y-91452988D01*
X108176517Y-91686637D01*
X107879137Y-91984017D01*
X107645488Y-92333698D01*
X107484547Y-92722244D01*
X107402500Y-93134721D01*
X101637705Y-93134721D01*
X101584668Y-92868088D01*
X101461418Y-92570537D01*
X101282487Y-92302748D01*
X101054752Y-92075013D01*
X100786963Y-91896082D01*
X100489412Y-91772832D01*
X100173533Y-91710000D01*
X99851467Y-91710000D01*
X99535588Y-91772832D01*
X99238037Y-91896082D01*
X98970248Y-92075013D01*
X98742513Y-92302748D01*
X98563582Y-92570537D01*
X98440332Y-92868088D01*
X98377500Y-93183967D01*
X92989000Y-93183967D01*
X92989000Y-87478816D01*
X129529000Y-87478816D01*
X129529000Y-87781184D01*
X129587989Y-88077743D01*
X129703701Y-88357095D01*
X129871688Y-88608505D01*
X129972683Y-88709500D01*
X129871688Y-88810495D01*
X129703701Y-89061905D01*
X129587989Y-89341257D01*
X129529000Y-89637816D01*
X129529000Y-89940184D01*
X129587989Y-90236743D01*
X129703701Y-90516095D01*
X129871688Y-90767505D01*
X130085495Y-90981312D01*
X130336905Y-91149299D01*
X130616257Y-91265011D01*
X130912816Y-91324000D01*
X131215184Y-91324000D01*
X131511743Y-91265011D01*
X131791095Y-91149299D01*
X132042505Y-90981312D01*
X132256312Y-90767505D01*
X132424299Y-90516095D01*
X132540011Y-90236743D01*
X132599000Y-89940184D01*
X132599000Y-89637816D01*
X132540011Y-89341257D01*
X132424299Y-89061905D01*
X132256312Y-88810495D01*
X132155317Y-88709500D01*
X132256312Y-88608505D01*
X132424299Y-88357095D01*
X132540011Y-88077743D01*
X132599000Y-87781184D01*
X132599000Y-87478816D01*
X132540011Y-87182257D01*
X132424299Y-86902905D01*
X132256312Y-86651495D01*
X132042505Y-86437688D01*
X131791095Y-86269701D01*
X131511743Y-86153989D01*
X131215184Y-86095000D01*
X130912816Y-86095000D01*
X130616257Y-86153989D01*
X130336905Y-86269701D01*
X130085495Y-86437688D01*
X129871688Y-86651495D01*
X129703701Y-86902905D01*
X129587989Y-87182257D01*
X129529000Y-87478816D01*
X92989000Y-87478816D01*
X92989000Y-78248000D01*
X98414928Y-78248000D01*
X98414928Y-80248000D01*
X98441599Y-80518799D01*
X98520589Y-80779192D01*
X98648860Y-81019171D01*
X98821485Y-81229515D01*
X99031829Y-81402140D01*
X99271808Y-81530411D01*
X99532201Y-81609401D01*
X99803000Y-81636072D01*
X101303000Y-81636072D01*
X101573799Y-81609401D01*
X101834192Y-81530411D01*
X102074171Y-81402140D01*
X102284515Y-81229515D01*
X102457140Y-81019171D01*
X102585411Y-80779192D01*
X102664401Y-80518799D01*
X102691072Y-80248000D01*
X102691072Y-80142475D01*
X128041000Y-80142475D01*
X128041000Y-80661525D01*
X128142261Y-81170601D01*
X128340893Y-81650141D01*
X128629262Y-82081715D01*
X128996285Y-82448738D01*
X129427859Y-82737107D01*
X129907399Y-82935739D01*
X130416475Y-83037000D01*
X130935525Y-83037000D01*
X131444601Y-82935739D01*
X131924141Y-82737107D01*
X132355715Y-82448738D01*
X132722738Y-82081715D01*
X133011107Y-81650141D01*
X133209739Y-81170601D01*
X133311000Y-80661525D01*
X133311000Y-80142475D01*
X133209739Y-79633399D01*
X133011107Y-79153859D01*
X132722738Y-78722285D01*
X132355715Y-78355262D01*
X131924141Y-78066893D01*
X131444601Y-77868261D01*
X130935525Y-77767000D01*
X130416475Y-77767000D01*
X129907399Y-77868261D01*
X129427859Y-78066893D01*
X128996285Y-78355262D01*
X128629262Y-78722285D01*
X128340893Y-79153859D01*
X128142261Y-79633399D01*
X128041000Y-80142475D01*
X102691072Y-80142475D01*
X102691072Y-78248000D01*
X102664401Y-77977201D01*
X102585411Y-77716808D01*
X102457140Y-77476829D01*
X102284515Y-77266485D01*
X102074171Y-77093860D01*
X101834192Y-76965589D01*
X101573799Y-76886599D01*
X101303000Y-76859928D01*
X99803000Y-76859928D01*
X99532201Y-76886599D01*
X99271808Y-76965589D01*
X99031829Y-77093860D01*
X98821485Y-77266485D01*
X98648860Y-77476829D01*
X98520589Y-77716808D01*
X98441599Y-77977201D01*
X98414928Y-78248000D01*
X92989000Y-78248000D01*
X92989000Y-70642475D01*
X128041000Y-70642475D01*
X128041000Y-71161525D01*
X128142261Y-71670601D01*
X128340893Y-72150141D01*
X128629262Y-72581715D01*
X128996285Y-72948738D01*
X129427859Y-73237107D01*
X129907399Y-73435739D01*
X130416475Y-73537000D01*
X130935525Y-73537000D01*
X131444601Y-73435739D01*
X131924141Y-73237107D01*
X132355715Y-72948738D01*
X132722738Y-72581715D01*
X133011107Y-72150141D01*
X133209739Y-71670601D01*
X133311000Y-71161525D01*
X133311000Y-70722475D01*
X163869000Y-70722475D01*
X163869000Y-71241525D01*
X163970261Y-71750601D01*
X164168893Y-72230141D01*
X164457262Y-72661715D01*
X164824285Y-73028738D01*
X165255859Y-73317107D01*
X165735399Y-73515739D01*
X166244475Y-73617000D01*
X166763525Y-73617000D01*
X167272601Y-73515739D01*
X167752141Y-73317107D01*
X168183715Y-73028738D01*
X168550738Y-72661715D01*
X168839107Y-72230141D01*
X169037739Y-71750601D01*
X169139000Y-71241525D01*
X169139000Y-70722475D01*
X169037739Y-70213399D01*
X168839107Y-69733859D01*
X168550738Y-69302285D01*
X168183715Y-68935262D01*
X167752141Y-68646893D01*
X167272601Y-68448261D01*
X166763525Y-68347000D01*
X166244475Y-68347000D01*
X165735399Y-68448261D01*
X165255859Y-68646893D01*
X164824285Y-68935262D01*
X164457262Y-69302285D01*
X164168893Y-69733859D01*
X163970261Y-70213399D01*
X163869000Y-70722475D01*
X133311000Y-70722475D01*
X133311000Y-70642475D01*
X133209739Y-70133399D01*
X133011107Y-69653859D01*
X132722738Y-69222285D01*
X132355715Y-68855262D01*
X131924141Y-68566893D01*
X131444601Y-68368261D01*
X130935525Y-68267000D01*
X130416475Y-68267000D01*
X129907399Y-68368261D01*
X129427859Y-68566893D01*
X128996285Y-68855262D01*
X128629262Y-69222285D01*
X128340893Y-69653859D01*
X128142261Y-70133399D01*
X128041000Y-70642475D01*
X92989000Y-70642475D01*
X92989000Y-61233380D01*
X93237381Y-60985000D01*
X98392581Y-60985000D01*
X98425000Y-60988193D01*
X98457419Y-60985000D01*
X98554383Y-60975450D01*
X98678793Y-60937710D01*
X98793450Y-60876425D01*
X98893948Y-60793948D01*
X98976425Y-60693450D01*
X99037710Y-60578793D01*
X99075450Y-60454383D01*
X99076867Y-60439992D01*
X100140000Y-60439992D01*
X100140000Y-61353008D01*
X100318120Y-62248480D01*
X100667516Y-63091996D01*
X101174760Y-63851140D01*
X101820360Y-64496740D01*
X102579504Y-65003984D01*
X103423020Y-65353380D01*
X104318492Y-65531500D01*
X105231508Y-65531500D01*
X106126980Y-65353380D01*
X106970496Y-65003984D01*
X107729640Y-64496740D01*
X108375240Y-63851140D01*
X108882484Y-63091996D01*
X109231880Y-62248480D01*
X109305350Y-61879119D01*
X130750000Y-61879119D01*
X130750000Y-63088882D01*
X130780892Y-63402533D01*
X130902974Y-63804982D01*
X131101224Y-64175881D01*
X131368024Y-64500977D01*
X131693120Y-64767777D01*
X132064019Y-64966026D01*
X132466468Y-65088108D01*
X132885000Y-65129330D01*
X133303533Y-65088108D01*
X133705982Y-64966026D01*
X134076881Y-64767777D01*
X134401977Y-64500977D01*
X134668777Y-64175881D01*
X134867026Y-63804981D01*
X134989108Y-63402532D01*
X135020000Y-63088881D01*
X135020000Y-61879119D01*
X135450000Y-61879119D01*
X135450000Y-63088882D01*
X135480892Y-63402533D01*
X135602974Y-63804982D01*
X135801224Y-64175881D01*
X136068024Y-64500977D01*
X136393120Y-64767777D01*
X136764019Y-64966026D01*
X137166468Y-65088108D01*
X137585000Y-65129330D01*
X138003533Y-65088108D01*
X138405982Y-64966026D01*
X138776881Y-64767777D01*
X139101977Y-64500977D01*
X139368777Y-64175881D01*
X139567026Y-63804981D01*
X139689108Y-63402532D01*
X139720000Y-63088881D01*
X139720000Y-61879119D01*
X162630000Y-61879119D01*
X162630000Y-63088882D01*
X162660892Y-63402533D01*
X162782974Y-63804982D01*
X162981224Y-64175881D01*
X163248024Y-64500977D01*
X163573120Y-64767777D01*
X163944019Y-64966026D01*
X164346468Y-65088108D01*
X164765000Y-65129330D01*
X165183533Y-65088108D01*
X165585982Y-64966026D01*
X165956881Y-64767777D01*
X166281977Y-64500977D01*
X166548777Y-64175881D01*
X166747026Y-63804981D01*
X166869108Y-63402532D01*
X166900000Y-63088881D01*
X166900000Y-61879119D01*
X167330000Y-61879119D01*
X167330000Y-63088882D01*
X167360892Y-63402533D01*
X167482974Y-63804982D01*
X167681224Y-64175881D01*
X167948024Y-64500977D01*
X168273120Y-64767777D01*
X168644019Y-64966026D01*
X169046468Y-65088108D01*
X169465000Y-65129330D01*
X169883533Y-65088108D01*
X170285982Y-64966026D01*
X170656881Y-64767777D01*
X170981977Y-64500977D01*
X171248777Y-64175881D01*
X171447026Y-63804981D01*
X171569108Y-63402532D01*
X171600000Y-63088881D01*
X171600000Y-61879118D01*
X171569108Y-61565467D01*
X171447026Y-61163018D01*
X171248777Y-60792119D01*
X170981977Y-60467023D01*
X170656881Y-60200223D01*
X170285981Y-60001974D01*
X169883532Y-59879892D01*
X169465000Y-59838670D01*
X169046467Y-59879892D01*
X168644018Y-60001974D01*
X168273119Y-60200223D01*
X167948023Y-60467023D01*
X167681223Y-60792119D01*
X167482974Y-61163019D01*
X167360892Y-61565468D01*
X167330000Y-61879119D01*
X166900000Y-61879119D01*
X166900000Y-61879118D01*
X166869108Y-61565467D01*
X166747026Y-61163018D01*
X166548777Y-60792119D01*
X166281977Y-60467023D01*
X165956881Y-60200223D01*
X165585981Y-60001974D01*
X165183532Y-59879892D01*
X164765000Y-59838670D01*
X164346467Y-59879892D01*
X163944018Y-60001974D01*
X163573119Y-60200223D01*
X163248023Y-60467023D01*
X162981223Y-60792119D01*
X162782974Y-61163019D01*
X162660892Y-61565468D01*
X162630000Y-61879119D01*
X139720000Y-61879119D01*
X139720000Y-61879118D01*
X139689108Y-61565467D01*
X139567026Y-61163018D01*
X139368777Y-60792119D01*
X139101977Y-60467023D01*
X138776881Y-60200223D01*
X138405981Y-60001974D01*
X138003532Y-59879892D01*
X137585000Y-59838670D01*
X137166467Y-59879892D01*
X136764018Y-60001974D01*
X136393119Y-60200223D01*
X136068023Y-60467023D01*
X135801223Y-60792119D01*
X135602974Y-61163019D01*
X135480892Y-61565468D01*
X135450000Y-61879119D01*
X135020000Y-61879119D01*
X135020000Y-61879118D01*
X134989108Y-61565467D01*
X134867026Y-61163018D01*
X134668777Y-60792119D01*
X134401977Y-60467023D01*
X134076881Y-60200223D01*
X133705981Y-60001974D01*
X133303532Y-59879892D01*
X132885000Y-59838670D01*
X132466467Y-59879892D01*
X132064018Y-60001974D01*
X131693119Y-60200223D01*
X131368023Y-60467023D01*
X131101223Y-60792119D01*
X130902974Y-61163019D01*
X130780892Y-61565468D01*
X130750000Y-61879119D01*
X109305350Y-61879119D01*
X109410000Y-61353008D01*
X109410000Y-60439992D01*
X109231880Y-59544520D01*
X108882484Y-58701004D01*
X108375240Y-57941860D01*
X107729640Y-57296260D01*
X107007888Y-56814000D01*
X169880718Y-56814000D01*
X169897805Y-56987490D01*
X169948411Y-57154313D01*
X170030589Y-57308059D01*
X170141183Y-57442817D01*
X170275941Y-57553411D01*
X170429687Y-57635589D01*
X170596510Y-57686195D01*
X170726523Y-57699000D01*
X171589499Y-57699000D01*
X171643815Y-57765185D01*
X171740506Y-57844537D01*
X171850820Y-57903502D01*
X171970518Y-57939812D01*
X172095000Y-57952072D01*
X173295000Y-57952072D01*
X173419482Y-57939812D01*
X173539180Y-57903502D01*
X173649494Y-57844537D01*
X173746185Y-57765185D01*
X173825537Y-57668494D01*
X173884502Y-57558180D01*
X173920812Y-57438482D01*
X173933072Y-57314000D01*
X173933072Y-56314000D01*
X173920812Y-56189518D01*
X173884502Y-56069820D01*
X173825537Y-55959506D01*
X173746185Y-55862815D01*
X173649494Y-55783463D01*
X173539180Y-55724498D01*
X173419482Y-55688188D01*
X173295000Y-55675928D01*
X172095000Y-55675928D01*
X171970518Y-55688188D01*
X171850820Y-55724498D01*
X171740506Y-55783463D01*
X171643815Y-55862815D01*
X171589499Y-55929000D01*
X170726523Y-55929000D01*
X170596510Y-55941805D01*
X170429687Y-55992411D01*
X170275941Y-56074589D01*
X170141183Y-56185183D01*
X170030589Y-56319941D01*
X169948411Y-56473687D01*
X169897805Y-56640510D01*
X169880718Y-56814000D01*
X107007888Y-56814000D01*
X106970496Y-56789016D01*
X106126980Y-56439620D01*
X105231508Y-56261500D01*
X104318492Y-56261500D01*
X103423020Y-56439620D01*
X102579504Y-56789016D01*
X101820360Y-57296260D01*
X101174760Y-57941860D01*
X100667516Y-58701004D01*
X100318120Y-59544520D01*
X100140000Y-60439992D01*
X99076867Y-60439992D01*
X99088193Y-60325000D01*
X99085000Y-60292581D01*
X99085000Y-55454880D01*
X99333381Y-55206500D01*
X174606928Y-55206500D01*
X174606928Y-56514000D01*
%TD*%
M02*
