%TF.GenerationSoftware,KiCad,Pcbnew,5.1.6-c6e7f7d~87~ubuntu18.04.1*%
%TF.CreationDate,2020-11-06T01:01:49+00:00*%
%TF.ProjectId,CirrusDspPedal,43697272-7573-4447-9370-506564616c2e,rev?*%
%TF.SameCoordinates,Original*%
%TF.FileFunction,Legend,Bot*%
%TF.FilePolarity,Positive*%
%FSLAX46Y46*%
G04 Gerber Fmt 4.6, Leading zero omitted, Abs format (unit mm)*
G04 Created by KiCad (PCBNEW 5.1.6-c6e7f7d~87~ubuntu18.04.1) date 2020-11-06 01:01:49*
%MOMM*%
%LPD*%
G01*
G04 APERTURE LIST*
%ADD10C,0.120000*%
%ADD11C,0.150000*%
%ADD12C,0.125000*%
G04 APERTURE END LIST*
D10*
%TO.C,K1*%
X152190000Y-139308000D02*
X144990000Y-139308000D01*
X148590000Y-128408000D02*
X144990000Y-128408000D01*
%TO.C,L1*%
X141680000Y-119133252D02*
X141680000Y-118610748D01*
X140260000Y-119133252D02*
X140260000Y-118610748D01*
%TO.C,J6*%
X173845000Y-67034000D02*
X174705000Y-67034000D01*
X184545000Y-55394000D02*
X184545000Y-65214000D01*
X183315000Y-55394000D02*
X184545000Y-55394000D01*
X177345000Y-55394000D02*
X181015000Y-55394000D01*
X172365000Y-55394000D02*
X175045000Y-55394000D01*
X172365000Y-56114000D02*
X172365000Y-55394000D01*
X172365000Y-59814000D02*
X172365000Y-57514000D01*
X172365000Y-65664000D02*
X172365000Y-61214000D01*
D11*
%TO.C,J5*%
X182753000Y-71120000D02*
X204343000Y-71120000D01*
X182753000Y-86360000D02*
X182753000Y-71120000D01*
X204343000Y-86360000D02*
X182753000Y-86360000D01*
X204343000Y-71120000D02*
X204343000Y-86360000D01*
D10*
%TO.C,J4*%
X107653000Y-82998000D02*
X107653000Y-84048000D01*
X106603000Y-84048000D02*
X107653000Y-84048000D01*
X101553000Y-74648000D02*
X92753000Y-74648000D01*
X92753000Y-74648000D02*
X92753000Y-83848000D01*
X107453000Y-77348000D02*
X107453000Y-74648000D01*
X107453000Y-74648000D02*
X105553000Y-74648000D01*
X92753000Y-83848000D02*
X107453000Y-83848000D01*
X107453000Y-83848000D02*
X107453000Y-81248000D01*
D11*
%TO.C,J2*%
X114173000Y-106680000D02*
X92583000Y-106680000D01*
X114173000Y-91440000D02*
X114173000Y-106680000D01*
X92583000Y-91440000D02*
X114173000Y-91440000D01*
X92583000Y-106680000D02*
X92583000Y-91440000D01*
%TO.C,J1*%
X182753000Y-91440000D02*
X204343000Y-91440000D01*
X182753000Y-106680000D02*
X182753000Y-91440000D01*
X204343000Y-106680000D02*
X182753000Y-106680000D01*
X204343000Y-91440000D02*
X204343000Y-106680000D01*
D10*
%TO.C,C20*%
X146991000Y-124960748D02*
X146991000Y-125483252D01*
X148411000Y-124960748D02*
X148411000Y-125483252D01*
%TO.C,C13*%
X105036252Y-112320000D02*
X104513748Y-112320000D01*
X105036252Y-113740000D02*
X104513748Y-113740000D01*
%TO.C,C11*%
X117213748Y-111200000D02*
X117736252Y-111200000D01*
X117213748Y-109780000D02*
X117736252Y-109780000D01*
%TO.C,C10*%
X117213748Y-114375000D02*
X117736252Y-114375000D01*
X117213748Y-112955000D02*
X117736252Y-112955000D01*
%TO.C,C3*%
X178442252Y-125782000D02*
X177919748Y-125782000D01*
X178442252Y-127202000D02*
X177919748Y-127202000D01*
%TO.C,C2*%
X189857748Y-126186000D02*
X190380252Y-126186000D01*
X189857748Y-124766000D02*
X190380252Y-124766000D01*
%TO.C,C1*%
X189857748Y-123773000D02*
X190380252Y-123773000D01*
X189857748Y-122353000D02*
X190380252Y-122353000D01*
%TO.C,K1*%
D11*
X149328095Y-127810380D02*
X149328095Y-126810380D01*
X148756666Y-127810380D02*
X149185238Y-127238952D01*
X148756666Y-126810380D02*
X149328095Y-127381809D01*
X147804285Y-127810380D02*
X148375714Y-127810380D01*
X148090000Y-127810380D02*
X148090000Y-126810380D01*
X148185238Y-126953238D01*
X148280476Y-127048476D01*
X148375714Y-127096095D01*
%TO.C,L1*%
X141422380Y-121880333D02*
X141422380Y-121404142D01*
X140422380Y-121404142D01*
X141422380Y-122737476D02*
X141422380Y-122166047D01*
X141422380Y-122451761D02*
X140422380Y-122451761D01*
X140565238Y-122356523D01*
X140660476Y-122261285D01*
X140708095Y-122166047D01*
%TO.C,J6*%
X187023333Y-55078380D02*
X187023333Y-55792666D01*
X187070952Y-55935523D01*
X187166190Y-56030761D01*
X187309047Y-56078380D01*
X187404285Y-56078380D01*
X186118571Y-55078380D02*
X186309047Y-55078380D01*
X186404285Y-55126000D01*
X186451904Y-55173619D01*
X186547142Y-55316476D01*
X186594761Y-55506952D01*
X186594761Y-55887904D01*
X186547142Y-55983142D01*
X186499523Y-56030761D01*
X186404285Y-56078380D01*
X186213809Y-56078380D01*
X186118571Y-56030761D01*
X186070952Y-55983142D01*
X186023333Y-55887904D01*
X186023333Y-55649809D01*
X186070952Y-55554571D01*
X186118571Y-55506952D01*
X186213809Y-55459333D01*
X186404285Y-55459333D01*
X186499523Y-55506952D01*
X186547142Y-55554571D01*
X186594761Y-55649809D01*
%TO.C,J5*%
D12*
X202604666Y-86721190D02*
X202604666Y-87078333D01*
X202628476Y-87149761D01*
X202676095Y-87197380D01*
X202747523Y-87221190D01*
X202795142Y-87221190D01*
X202128476Y-86721190D02*
X202366571Y-86721190D01*
X202390380Y-86959285D01*
X202366571Y-86935476D01*
X202318952Y-86911666D01*
X202199904Y-86911666D01*
X202152285Y-86935476D01*
X202128476Y-86959285D01*
X202104666Y-87006904D01*
X202104666Y-87125952D01*
X202128476Y-87173571D01*
X202152285Y-87197380D01*
X202199904Y-87221190D01*
X202318952Y-87221190D01*
X202366571Y-87197380D01*
X202390380Y-87173571D01*
%TO.C,J4*%
D11*
X98436333Y-72950380D02*
X98436333Y-73664666D01*
X98483952Y-73807523D01*
X98579190Y-73902761D01*
X98722047Y-73950380D01*
X98817285Y-73950380D01*
X97531571Y-73283714D02*
X97531571Y-73950380D01*
X97769666Y-72902761D02*
X98007761Y-73617047D01*
X97388714Y-73617047D01*
%TO.C,J2*%
D12*
X94654666Y-90531190D02*
X94654666Y-90888333D01*
X94678476Y-90959761D01*
X94726095Y-91007380D01*
X94797523Y-91031190D01*
X94845142Y-91031190D01*
X94440380Y-90578809D02*
X94416571Y-90555000D01*
X94368952Y-90531190D01*
X94249904Y-90531190D01*
X94202285Y-90555000D01*
X94178476Y-90578809D01*
X94154666Y-90626428D01*
X94154666Y-90674047D01*
X94178476Y-90745476D01*
X94464190Y-91031190D01*
X94154666Y-91031190D01*
%TO.C,J1*%
X202604666Y-107041190D02*
X202604666Y-107398333D01*
X202628476Y-107469761D01*
X202676095Y-107517380D01*
X202747523Y-107541190D01*
X202795142Y-107541190D01*
X202104666Y-107541190D02*
X202390380Y-107541190D01*
X202247523Y-107541190D02*
X202247523Y-107041190D01*
X202295142Y-107112619D01*
X202342761Y-107160238D01*
X202390380Y-107184047D01*
%TO.C,C20*%
D11*
X148058142Y-119753142D02*
X148105761Y-119705523D01*
X148153380Y-119562666D01*
X148153380Y-119467428D01*
X148105761Y-119324571D01*
X148010523Y-119229333D01*
X147915285Y-119181714D01*
X147724809Y-119134095D01*
X147581952Y-119134095D01*
X147391476Y-119181714D01*
X147296238Y-119229333D01*
X147201000Y-119324571D01*
X147153380Y-119467428D01*
X147153380Y-119562666D01*
X147201000Y-119705523D01*
X147248619Y-119753142D01*
X147248619Y-120134095D02*
X147201000Y-120181714D01*
X147153380Y-120276952D01*
X147153380Y-120515047D01*
X147201000Y-120610285D01*
X147248619Y-120657904D01*
X147343857Y-120705523D01*
X147439095Y-120705523D01*
X147581952Y-120657904D01*
X148153380Y-120086476D01*
X148153380Y-120705523D01*
X147153380Y-121324571D02*
X147153380Y-121419809D01*
X147201000Y-121515047D01*
X147248619Y-121562666D01*
X147343857Y-121610285D01*
X147534333Y-121657904D01*
X147772428Y-121657904D01*
X147962904Y-121610285D01*
X148058142Y-121562666D01*
X148105761Y-121515047D01*
X148153380Y-121419809D01*
X148153380Y-121324571D01*
X148105761Y-121229333D01*
X148058142Y-121181714D01*
X147962904Y-121134095D01*
X147772428Y-121086476D01*
X147534333Y-121086476D01*
X147343857Y-121134095D01*
X147248619Y-121181714D01*
X147201000Y-121229333D01*
X147153380Y-121324571D01*
%TO.C,C13*%
X105671857Y-115673142D02*
X105719476Y-115720761D01*
X105862333Y-115768380D01*
X105957571Y-115768380D01*
X106100428Y-115720761D01*
X106195666Y-115625523D01*
X106243285Y-115530285D01*
X106290904Y-115339809D01*
X106290904Y-115196952D01*
X106243285Y-115006476D01*
X106195666Y-114911238D01*
X106100428Y-114816000D01*
X105957571Y-114768380D01*
X105862333Y-114768380D01*
X105719476Y-114816000D01*
X105671857Y-114863619D01*
X104719476Y-115768380D02*
X105290904Y-115768380D01*
X105005190Y-115768380D02*
X105005190Y-114768380D01*
X105100428Y-114911238D01*
X105195666Y-115006476D01*
X105290904Y-115054095D01*
X104386142Y-114768380D02*
X103767095Y-114768380D01*
X104100428Y-115149333D01*
X103957571Y-115149333D01*
X103862333Y-115196952D01*
X103814714Y-115244571D01*
X103767095Y-115339809D01*
X103767095Y-115577904D01*
X103814714Y-115673142D01*
X103862333Y-115720761D01*
X103957571Y-115768380D01*
X104243285Y-115768380D01*
X104338523Y-115720761D01*
X104386142Y-115673142D01*
%TO.C,C11*%
X118117857Y-109196142D02*
X118165476Y-109243761D01*
X118308333Y-109291380D01*
X118403571Y-109291380D01*
X118546428Y-109243761D01*
X118641666Y-109148523D01*
X118689285Y-109053285D01*
X118736904Y-108862809D01*
X118736904Y-108719952D01*
X118689285Y-108529476D01*
X118641666Y-108434238D01*
X118546428Y-108339000D01*
X118403571Y-108291380D01*
X118308333Y-108291380D01*
X118165476Y-108339000D01*
X118117857Y-108386619D01*
X117165476Y-109291380D02*
X117736904Y-109291380D01*
X117451190Y-109291380D02*
X117451190Y-108291380D01*
X117546428Y-108434238D01*
X117641666Y-108529476D01*
X117736904Y-108577095D01*
X116213095Y-109291380D02*
X116784523Y-109291380D01*
X116498809Y-109291380D02*
X116498809Y-108291380D01*
X116594047Y-108434238D01*
X116689285Y-108529476D01*
X116784523Y-108577095D01*
%TO.C,C10*%
X118117857Y-115800142D02*
X118165476Y-115847761D01*
X118308333Y-115895380D01*
X118403571Y-115895380D01*
X118546428Y-115847761D01*
X118641666Y-115752523D01*
X118689285Y-115657285D01*
X118736904Y-115466809D01*
X118736904Y-115323952D01*
X118689285Y-115133476D01*
X118641666Y-115038238D01*
X118546428Y-114943000D01*
X118403571Y-114895380D01*
X118308333Y-114895380D01*
X118165476Y-114943000D01*
X118117857Y-114990619D01*
X117165476Y-115895380D02*
X117736904Y-115895380D01*
X117451190Y-115895380D02*
X117451190Y-114895380D01*
X117546428Y-115038238D01*
X117641666Y-115133476D01*
X117736904Y-115181095D01*
X116546428Y-114895380D02*
X116451190Y-114895380D01*
X116355952Y-114943000D01*
X116308333Y-114990619D01*
X116260714Y-115085857D01*
X116213095Y-115276333D01*
X116213095Y-115514428D01*
X116260714Y-115704904D01*
X116308333Y-115800142D01*
X116355952Y-115847761D01*
X116451190Y-115895380D01*
X116546428Y-115895380D01*
X116641666Y-115847761D01*
X116689285Y-115800142D01*
X116736904Y-115704904D01*
X116784523Y-115514428D01*
X116784523Y-115276333D01*
X116736904Y-115085857D01*
X116689285Y-114990619D01*
X116641666Y-114943000D01*
X116546428Y-114895380D01*
%TO.C,C3*%
X178220666Y-124817142D02*
X178268285Y-124864761D01*
X178411142Y-124912380D01*
X178506380Y-124912380D01*
X178649238Y-124864761D01*
X178744476Y-124769523D01*
X178792095Y-124674285D01*
X178839714Y-124483809D01*
X178839714Y-124340952D01*
X178792095Y-124150476D01*
X178744476Y-124055238D01*
X178649238Y-123960000D01*
X178506380Y-123912380D01*
X178411142Y-123912380D01*
X178268285Y-123960000D01*
X178220666Y-124007619D01*
X177887333Y-123912380D02*
X177268285Y-123912380D01*
X177601619Y-124293333D01*
X177458761Y-124293333D01*
X177363523Y-124340952D01*
X177315904Y-124388571D01*
X177268285Y-124483809D01*
X177268285Y-124721904D01*
X177315904Y-124817142D01*
X177363523Y-124864761D01*
X177458761Y-124912380D01*
X177744476Y-124912380D01*
X177839714Y-124864761D01*
X177887333Y-124817142D01*
%TO.C,C2*%
X192952666Y-125833142D02*
X193000285Y-125880761D01*
X193143142Y-125928380D01*
X193238380Y-125928380D01*
X193381238Y-125880761D01*
X193476476Y-125785523D01*
X193524095Y-125690285D01*
X193571714Y-125499809D01*
X193571714Y-125356952D01*
X193524095Y-125166476D01*
X193476476Y-125071238D01*
X193381238Y-124976000D01*
X193238380Y-124928380D01*
X193143142Y-124928380D01*
X193000285Y-124976000D01*
X192952666Y-125023619D01*
X192571714Y-125023619D02*
X192524095Y-124976000D01*
X192428857Y-124928380D01*
X192190761Y-124928380D01*
X192095523Y-124976000D01*
X192047904Y-125023619D01*
X192000285Y-125118857D01*
X192000285Y-125214095D01*
X192047904Y-125356952D01*
X192619333Y-125928380D01*
X192000285Y-125928380D01*
%TO.C,C1*%
X192952666Y-123420142D02*
X193000285Y-123467761D01*
X193143142Y-123515380D01*
X193238380Y-123515380D01*
X193381238Y-123467761D01*
X193476476Y-123372523D01*
X193524095Y-123277285D01*
X193571714Y-123086809D01*
X193571714Y-122943952D01*
X193524095Y-122753476D01*
X193476476Y-122658238D01*
X193381238Y-122563000D01*
X193238380Y-122515380D01*
X193143142Y-122515380D01*
X193000285Y-122563000D01*
X192952666Y-122610619D01*
X192000285Y-123515380D02*
X192571714Y-123515380D01*
X192286000Y-123515380D02*
X192286000Y-122515380D01*
X192381238Y-122658238D01*
X192476476Y-122753476D01*
X192571714Y-122801095D01*
%TD*%
M02*
