%TF.GenerationSoftware,KiCad,Pcbnew,5.1.6-c6e7f7d~87~ubuntu18.04.1*%
%TF.CreationDate,2020-11-06T01:01:49+00:00*%
%TF.ProjectId,CirrusDspPedal,43697272-7573-4447-9370-506564616c2e,rev?*%
%TF.SameCoordinates,Original*%
%TF.FileFunction,Paste,Top*%
%TF.FilePolarity,Positive*%
%FSLAX46Y46*%
G04 Gerber Fmt 4.6, Leading zero omitted, Abs format (unit mm)*
G04 Created by KiCad (PCBNEW 5.1.6-c6e7f7d~87~ubuntu18.04.1) date 2020-11-06 01:01:49*
%MOMM*%
%LPD*%
G01*
G04 APERTURE LIST*
%ADD10R,0.800000X0.900000*%
%ADD11R,1.100000X1.100000*%
%ADD12R,2.000000X1.500000*%
%ADD13R,2.000000X3.800000*%
%ADD14R,0.740000X2.400000*%
%ADD15R,1.060000X0.650000*%
%ADD16R,1.100000X0.250000*%
%ADD17R,0.650000X1.560000*%
G04 APERTURE END LIST*
D10*
%TO.C,U4*%
X99695000Y-86630000D03*
X100645000Y-88630000D03*
X98745000Y-88630000D03*
%TD*%
%TO.C,C24*%
G36*
G01*
X104765000Y-86855000D02*
X103515000Y-86855000D01*
G75*
G02*
X103265000Y-86605000I0J250000D01*
G01*
X103265000Y-85680000D01*
G75*
G02*
X103515000Y-85430000I250000J0D01*
G01*
X104765000Y-85430000D01*
G75*
G02*
X105015000Y-85680000I0J-250000D01*
G01*
X105015000Y-86605000D01*
G75*
G02*
X104765000Y-86855000I-250000J0D01*
G01*
G37*
G36*
G01*
X104765000Y-89830000D02*
X103515000Y-89830000D01*
G75*
G02*
X103265000Y-89580000I0J250000D01*
G01*
X103265000Y-88655000D01*
G75*
G02*
X103515000Y-88405000I250000J0D01*
G01*
X104765000Y-88405000D01*
G75*
G02*
X105015000Y-88655000I0J-250000D01*
G01*
X105015000Y-89580000D01*
G75*
G02*
X104765000Y-89830000I-250000J0D01*
G01*
G37*
%TD*%
%TO.C,C23*%
G36*
G01*
X94625000Y-88405000D02*
X95875000Y-88405000D01*
G75*
G02*
X96125000Y-88655000I0J-250000D01*
G01*
X96125000Y-89580000D01*
G75*
G02*
X95875000Y-89830000I-250000J0D01*
G01*
X94625000Y-89830000D01*
G75*
G02*
X94375000Y-89580000I0J250000D01*
G01*
X94375000Y-88655000D01*
G75*
G02*
X94625000Y-88405000I250000J0D01*
G01*
G37*
G36*
G01*
X94625000Y-85430000D02*
X95875000Y-85430000D01*
G75*
G02*
X96125000Y-85680000I0J-250000D01*
G01*
X96125000Y-86605000D01*
G75*
G02*
X95875000Y-86855000I-250000J0D01*
G01*
X94625000Y-86855000D01*
G75*
G02*
X94375000Y-86605000I0J250000D01*
G01*
X94375000Y-85680000D01*
G75*
G02*
X94625000Y-85430000I250000J0D01*
G01*
G37*
%TD*%
D11*
%TO.C,D2*%
X149990000Y-130175000D03*
X147190000Y-130175000D03*
%TD*%
D12*
%TO.C,U5*%
X111785000Y-69455000D03*
X111785000Y-74055000D03*
X111785000Y-71755000D03*
D13*
X118085000Y-71755000D03*
%TD*%
%TO.C,U7*%
G36*
G01*
X146595000Y-110595000D02*
X146595000Y-109195000D01*
G75*
G02*
X146670000Y-109120000I75000J0D01*
G01*
X146820000Y-109120000D01*
G75*
G02*
X146895000Y-109195000I0J-75000D01*
G01*
X146895000Y-110595000D01*
G75*
G02*
X146820000Y-110670000I-75000J0D01*
G01*
X146670000Y-110670000D01*
G75*
G02*
X146595000Y-110595000I0J75000D01*
G01*
G37*
G36*
G01*
X147095000Y-110595000D02*
X147095000Y-109195000D01*
G75*
G02*
X147170000Y-109120000I75000J0D01*
G01*
X147320000Y-109120000D01*
G75*
G02*
X147395000Y-109195000I0J-75000D01*
G01*
X147395000Y-110595000D01*
G75*
G02*
X147320000Y-110670000I-75000J0D01*
G01*
X147170000Y-110670000D01*
G75*
G02*
X147095000Y-110595000I0J75000D01*
G01*
G37*
G36*
G01*
X147595000Y-110595000D02*
X147595000Y-109195000D01*
G75*
G02*
X147670000Y-109120000I75000J0D01*
G01*
X147820000Y-109120000D01*
G75*
G02*
X147895000Y-109195000I0J-75000D01*
G01*
X147895000Y-110595000D01*
G75*
G02*
X147820000Y-110670000I-75000J0D01*
G01*
X147670000Y-110670000D01*
G75*
G02*
X147595000Y-110595000I0J75000D01*
G01*
G37*
G36*
G01*
X148095000Y-110595000D02*
X148095000Y-109195000D01*
G75*
G02*
X148170000Y-109120000I75000J0D01*
G01*
X148320000Y-109120000D01*
G75*
G02*
X148395000Y-109195000I0J-75000D01*
G01*
X148395000Y-110595000D01*
G75*
G02*
X148320000Y-110670000I-75000J0D01*
G01*
X148170000Y-110670000D01*
G75*
G02*
X148095000Y-110595000I0J75000D01*
G01*
G37*
G36*
G01*
X148595000Y-110595000D02*
X148595000Y-109195000D01*
G75*
G02*
X148670000Y-109120000I75000J0D01*
G01*
X148820000Y-109120000D01*
G75*
G02*
X148895000Y-109195000I0J-75000D01*
G01*
X148895000Y-110595000D01*
G75*
G02*
X148820000Y-110670000I-75000J0D01*
G01*
X148670000Y-110670000D01*
G75*
G02*
X148595000Y-110595000I0J75000D01*
G01*
G37*
G36*
G01*
X149095000Y-110595000D02*
X149095000Y-109195000D01*
G75*
G02*
X149170000Y-109120000I75000J0D01*
G01*
X149320000Y-109120000D01*
G75*
G02*
X149395000Y-109195000I0J-75000D01*
G01*
X149395000Y-110595000D01*
G75*
G02*
X149320000Y-110670000I-75000J0D01*
G01*
X149170000Y-110670000D01*
G75*
G02*
X149095000Y-110595000I0J75000D01*
G01*
G37*
G36*
G01*
X149595000Y-110595000D02*
X149595000Y-109195000D01*
G75*
G02*
X149670000Y-109120000I75000J0D01*
G01*
X149820000Y-109120000D01*
G75*
G02*
X149895000Y-109195000I0J-75000D01*
G01*
X149895000Y-110595000D01*
G75*
G02*
X149820000Y-110670000I-75000J0D01*
G01*
X149670000Y-110670000D01*
G75*
G02*
X149595000Y-110595000I0J75000D01*
G01*
G37*
G36*
G01*
X150095000Y-110595000D02*
X150095000Y-109195000D01*
G75*
G02*
X150170000Y-109120000I75000J0D01*
G01*
X150320000Y-109120000D01*
G75*
G02*
X150395000Y-109195000I0J-75000D01*
G01*
X150395000Y-110595000D01*
G75*
G02*
X150320000Y-110670000I-75000J0D01*
G01*
X150170000Y-110670000D01*
G75*
G02*
X150095000Y-110595000I0J75000D01*
G01*
G37*
G36*
G01*
X150595000Y-110595000D02*
X150595000Y-109195000D01*
G75*
G02*
X150670000Y-109120000I75000J0D01*
G01*
X150820000Y-109120000D01*
G75*
G02*
X150895000Y-109195000I0J-75000D01*
G01*
X150895000Y-110595000D01*
G75*
G02*
X150820000Y-110670000I-75000J0D01*
G01*
X150670000Y-110670000D01*
G75*
G02*
X150595000Y-110595000I0J75000D01*
G01*
G37*
G36*
G01*
X151095000Y-110595000D02*
X151095000Y-109195000D01*
G75*
G02*
X151170000Y-109120000I75000J0D01*
G01*
X151320000Y-109120000D01*
G75*
G02*
X151395000Y-109195000I0J-75000D01*
G01*
X151395000Y-110595000D01*
G75*
G02*
X151320000Y-110670000I-75000J0D01*
G01*
X151170000Y-110670000D01*
G75*
G02*
X151095000Y-110595000I0J75000D01*
G01*
G37*
G36*
G01*
X151595000Y-110595000D02*
X151595000Y-109195000D01*
G75*
G02*
X151670000Y-109120000I75000J0D01*
G01*
X151820000Y-109120000D01*
G75*
G02*
X151895000Y-109195000I0J-75000D01*
G01*
X151895000Y-110595000D01*
G75*
G02*
X151820000Y-110670000I-75000J0D01*
G01*
X151670000Y-110670000D01*
G75*
G02*
X151595000Y-110595000I0J75000D01*
G01*
G37*
G36*
G01*
X152095000Y-110595000D02*
X152095000Y-109195000D01*
G75*
G02*
X152170000Y-109120000I75000J0D01*
G01*
X152320000Y-109120000D01*
G75*
G02*
X152395000Y-109195000I0J-75000D01*
G01*
X152395000Y-110595000D01*
G75*
G02*
X152320000Y-110670000I-75000J0D01*
G01*
X152170000Y-110670000D01*
G75*
G02*
X152095000Y-110595000I0J75000D01*
G01*
G37*
G36*
G01*
X152595000Y-110595000D02*
X152595000Y-109195000D01*
G75*
G02*
X152670000Y-109120000I75000J0D01*
G01*
X152820000Y-109120000D01*
G75*
G02*
X152895000Y-109195000I0J-75000D01*
G01*
X152895000Y-110595000D01*
G75*
G02*
X152820000Y-110670000I-75000J0D01*
G01*
X152670000Y-110670000D01*
G75*
G02*
X152595000Y-110595000I0J75000D01*
G01*
G37*
G36*
G01*
X153095000Y-110595000D02*
X153095000Y-109195000D01*
G75*
G02*
X153170000Y-109120000I75000J0D01*
G01*
X153320000Y-109120000D01*
G75*
G02*
X153395000Y-109195000I0J-75000D01*
G01*
X153395000Y-110595000D01*
G75*
G02*
X153320000Y-110670000I-75000J0D01*
G01*
X153170000Y-110670000D01*
G75*
G02*
X153095000Y-110595000I0J75000D01*
G01*
G37*
G36*
G01*
X153595000Y-110595000D02*
X153595000Y-109195000D01*
G75*
G02*
X153670000Y-109120000I75000J0D01*
G01*
X153820000Y-109120000D01*
G75*
G02*
X153895000Y-109195000I0J-75000D01*
G01*
X153895000Y-110595000D01*
G75*
G02*
X153820000Y-110670000I-75000J0D01*
G01*
X153670000Y-110670000D01*
G75*
G02*
X153595000Y-110595000I0J75000D01*
G01*
G37*
G36*
G01*
X154095000Y-110595000D02*
X154095000Y-109195000D01*
G75*
G02*
X154170000Y-109120000I75000J0D01*
G01*
X154320000Y-109120000D01*
G75*
G02*
X154395000Y-109195000I0J-75000D01*
G01*
X154395000Y-110595000D01*
G75*
G02*
X154320000Y-110670000I-75000J0D01*
G01*
X154170000Y-110670000D01*
G75*
G02*
X154095000Y-110595000I0J75000D01*
G01*
G37*
G36*
G01*
X155395000Y-111895000D02*
X155395000Y-111745000D01*
G75*
G02*
X155470000Y-111670000I75000J0D01*
G01*
X156870000Y-111670000D01*
G75*
G02*
X156945000Y-111745000I0J-75000D01*
G01*
X156945000Y-111895000D01*
G75*
G02*
X156870000Y-111970000I-75000J0D01*
G01*
X155470000Y-111970000D01*
G75*
G02*
X155395000Y-111895000I0J75000D01*
G01*
G37*
G36*
G01*
X155395000Y-112395000D02*
X155395000Y-112245000D01*
G75*
G02*
X155470000Y-112170000I75000J0D01*
G01*
X156870000Y-112170000D01*
G75*
G02*
X156945000Y-112245000I0J-75000D01*
G01*
X156945000Y-112395000D01*
G75*
G02*
X156870000Y-112470000I-75000J0D01*
G01*
X155470000Y-112470000D01*
G75*
G02*
X155395000Y-112395000I0J75000D01*
G01*
G37*
G36*
G01*
X155395000Y-112895000D02*
X155395000Y-112745000D01*
G75*
G02*
X155470000Y-112670000I75000J0D01*
G01*
X156870000Y-112670000D01*
G75*
G02*
X156945000Y-112745000I0J-75000D01*
G01*
X156945000Y-112895000D01*
G75*
G02*
X156870000Y-112970000I-75000J0D01*
G01*
X155470000Y-112970000D01*
G75*
G02*
X155395000Y-112895000I0J75000D01*
G01*
G37*
G36*
G01*
X155395000Y-113395000D02*
X155395000Y-113245000D01*
G75*
G02*
X155470000Y-113170000I75000J0D01*
G01*
X156870000Y-113170000D01*
G75*
G02*
X156945000Y-113245000I0J-75000D01*
G01*
X156945000Y-113395000D01*
G75*
G02*
X156870000Y-113470000I-75000J0D01*
G01*
X155470000Y-113470000D01*
G75*
G02*
X155395000Y-113395000I0J75000D01*
G01*
G37*
G36*
G01*
X155395000Y-113895000D02*
X155395000Y-113745000D01*
G75*
G02*
X155470000Y-113670000I75000J0D01*
G01*
X156870000Y-113670000D01*
G75*
G02*
X156945000Y-113745000I0J-75000D01*
G01*
X156945000Y-113895000D01*
G75*
G02*
X156870000Y-113970000I-75000J0D01*
G01*
X155470000Y-113970000D01*
G75*
G02*
X155395000Y-113895000I0J75000D01*
G01*
G37*
G36*
G01*
X155395000Y-114395000D02*
X155395000Y-114245000D01*
G75*
G02*
X155470000Y-114170000I75000J0D01*
G01*
X156870000Y-114170000D01*
G75*
G02*
X156945000Y-114245000I0J-75000D01*
G01*
X156945000Y-114395000D01*
G75*
G02*
X156870000Y-114470000I-75000J0D01*
G01*
X155470000Y-114470000D01*
G75*
G02*
X155395000Y-114395000I0J75000D01*
G01*
G37*
G36*
G01*
X155395000Y-114895000D02*
X155395000Y-114745000D01*
G75*
G02*
X155470000Y-114670000I75000J0D01*
G01*
X156870000Y-114670000D01*
G75*
G02*
X156945000Y-114745000I0J-75000D01*
G01*
X156945000Y-114895000D01*
G75*
G02*
X156870000Y-114970000I-75000J0D01*
G01*
X155470000Y-114970000D01*
G75*
G02*
X155395000Y-114895000I0J75000D01*
G01*
G37*
G36*
G01*
X155395000Y-115395000D02*
X155395000Y-115245000D01*
G75*
G02*
X155470000Y-115170000I75000J0D01*
G01*
X156870000Y-115170000D01*
G75*
G02*
X156945000Y-115245000I0J-75000D01*
G01*
X156945000Y-115395000D01*
G75*
G02*
X156870000Y-115470000I-75000J0D01*
G01*
X155470000Y-115470000D01*
G75*
G02*
X155395000Y-115395000I0J75000D01*
G01*
G37*
G36*
G01*
X155395000Y-115895000D02*
X155395000Y-115745000D01*
G75*
G02*
X155470000Y-115670000I75000J0D01*
G01*
X156870000Y-115670000D01*
G75*
G02*
X156945000Y-115745000I0J-75000D01*
G01*
X156945000Y-115895000D01*
G75*
G02*
X156870000Y-115970000I-75000J0D01*
G01*
X155470000Y-115970000D01*
G75*
G02*
X155395000Y-115895000I0J75000D01*
G01*
G37*
G36*
G01*
X155395000Y-116395000D02*
X155395000Y-116245000D01*
G75*
G02*
X155470000Y-116170000I75000J0D01*
G01*
X156870000Y-116170000D01*
G75*
G02*
X156945000Y-116245000I0J-75000D01*
G01*
X156945000Y-116395000D01*
G75*
G02*
X156870000Y-116470000I-75000J0D01*
G01*
X155470000Y-116470000D01*
G75*
G02*
X155395000Y-116395000I0J75000D01*
G01*
G37*
G36*
G01*
X155395000Y-116895000D02*
X155395000Y-116745000D01*
G75*
G02*
X155470000Y-116670000I75000J0D01*
G01*
X156870000Y-116670000D01*
G75*
G02*
X156945000Y-116745000I0J-75000D01*
G01*
X156945000Y-116895000D01*
G75*
G02*
X156870000Y-116970000I-75000J0D01*
G01*
X155470000Y-116970000D01*
G75*
G02*
X155395000Y-116895000I0J75000D01*
G01*
G37*
G36*
G01*
X155395000Y-117395000D02*
X155395000Y-117245000D01*
G75*
G02*
X155470000Y-117170000I75000J0D01*
G01*
X156870000Y-117170000D01*
G75*
G02*
X156945000Y-117245000I0J-75000D01*
G01*
X156945000Y-117395000D01*
G75*
G02*
X156870000Y-117470000I-75000J0D01*
G01*
X155470000Y-117470000D01*
G75*
G02*
X155395000Y-117395000I0J75000D01*
G01*
G37*
G36*
G01*
X155395000Y-117895000D02*
X155395000Y-117745000D01*
G75*
G02*
X155470000Y-117670000I75000J0D01*
G01*
X156870000Y-117670000D01*
G75*
G02*
X156945000Y-117745000I0J-75000D01*
G01*
X156945000Y-117895000D01*
G75*
G02*
X156870000Y-117970000I-75000J0D01*
G01*
X155470000Y-117970000D01*
G75*
G02*
X155395000Y-117895000I0J75000D01*
G01*
G37*
G36*
G01*
X155395000Y-118395000D02*
X155395000Y-118245000D01*
G75*
G02*
X155470000Y-118170000I75000J0D01*
G01*
X156870000Y-118170000D01*
G75*
G02*
X156945000Y-118245000I0J-75000D01*
G01*
X156945000Y-118395000D01*
G75*
G02*
X156870000Y-118470000I-75000J0D01*
G01*
X155470000Y-118470000D01*
G75*
G02*
X155395000Y-118395000I0J75000D01*
G01*
G37*
G36*
G01*
X155395000Y-118895000D02*
X155395000Y-118745000D01*
G75*
G02*
X155470000Y-118670000I75000J0D01*
G01*
X156870000Y-118670000D01*
G75*
G02*
X156945000Y-118745000I0J-75000D01*
G01*
X156945000Y-118895000D01*
G75*
G02*
X156870000Y-118970000I-75000J0D01*
G01*
X155470000Y-118970000D01*
G75*
G02*
X155395000Y-118895000I0J75000D01*
G01*
G37*
G36*
G01*
X155395000Y-119395000D02*
X155395000Y-119245000D01*
G75*
G02*
X155470000Y-119170000I75000J0D01*
G01*
X156870000Y-119170000D01*
G75*
G02*
X156945000Y-119245000I0J-75000D01*
G01*
X156945000Y-119395000D01*
G75*
G02*
X156870000Y-119470000I-75000J0D01*
G01*
X155470000Y-119470000D01*
G75*
G02*
X155395000Y-119395000I0J75000D01*
G01*
G37*
G36*
G01*
X154095000Y-121945000D02*
X154095000Y-120545000D01*
G75*
G02*
X154170000Y-120470000I75000J0D01*
G01*
X154320000Y-120470000D01*
G75*
G02*
X154395000Y-120545000I0J-75000D01*
G01*
X154395000Y-121945000D01*
G75*
G02*
X154320000Y-122020000I-75000J0D01*
G01*
X154170000Y-122020000D01*
G75*
G02*
X154095000Y-121945000I0J75000D01*
G01*
G37*
G36*
G01*
X153595000Y-121945000D02*
X153595000Y-120545000D01*
G75*
G02*
X153670000Y-120470000I75000J0D01*
G01*
X153820000Y-120470000D01*
G75*
G02*
X153895000Y-120545000I0J-75000D01*
G01*
X153895000Y-121945000D01*
G75*
G02*
X153820000Y-122020000I-75000J0D01*
G01*
X153670000Y-122020000D01*
G75*
G02*
X153595000Y-121945000I0J75000D01*
G01*
G37*
G36*
G01*
X153095000Y-121945000D02*
X153095000Y-120545000D01*
G75*
G02*
X153170000Y-120470000I75000J0D01*
G01*
X153320000Y-120470000D01*
G75*
G02*
X153395000Y-120545000I0J-75000D01*
G01*
X153395000Y-121945000D01*
G75*
G02*
X153320000Y-122020000I-75000J0D01*
G01*
X153170000Y-122020000D01*
G75*
G02*
X153095000Y-121945000I0J75000D01*
G01*
G37*
G36*
G01*
X152595000Y-121945000D02*
X152595000Y-120545000D01*
G75*
G02*
X152670000Y-120470000I75000J0D01*
G01*
X152820000Y-120470000D01*
G75*
G02*
X152895000Y-120545000I0J-75000D01*
G01*
X152895000Y-121945000D01*
G75*
G02*
X152820000Y-122020000I-75000J0D01*
G01*
X152670000Y-122020000D01*
G75*
G02*
X152595000Y-121945000I0J75000D01*
G01*
G37*
G36*
G01*
X152095000Y-121945000D02*
X152095000Y-120545000D01*
G75*
G02*
X152170000Y-120470000I75000J0D01*
G01*
X152320000Y-120470000D01*
G75*
G02*
X152395000Y-120545000I0J-75000D01*
G01*
X152395000Y-121945000D01*
G75*
G02*
X152320000Y-122020000I-75000J0D01*
G01*
X152170000Y-122020000D01*
G75*
G02*
X152095000Y-121945000I0J75000D01*
G01*
G37*
G36*
G01*
X151595000Y-121945000D02*
X151595000Y-120545000D01*
G75*
G02*
X151670000Y-120470000I75000J0D01*
G01*
X151820000Y-120470000D01*
G75*
G02*
X151895000Y-120545000I0J-75000D01*
G01*
X151895000Y-121945000D01*
G75*
G02*
X151820000Y-122020000I-75000J0D01*
G01*
X151670000Y-122020000D01*
G75*
G02*
X151595000Y-121945000I0J75000D01*
G01*
G37*
G36*
G01*
X151095000Y-121945000D02*
X151095000Y-120545000D01*
G75*
G02*
X151170000Y-120470000I75000J0D01*
G01*
X151320000Y-120470000D01*
G75*
G02*
X151395000Y-120545000I0J-75000D01*
G01*
X151395000Y-121945000D01*
G75*
G02*
X151320000Y-122020000I-75000J0D01*
G01*
X151170000Y-122020000D01*
G75*
G02*
X151095000Y-121945000I0J75000D01*
G01*
G37*
G36*
G01*
X150595000Y-121945000D02*
X150595000Y-120545000D01*
G75*
G02*
X150670000Y-120470000I75000J0D01*
G01*
X150820000Y-120470000D01*
G75*
G02*
X150895000Y-120545000I0J-75000D01*
G01*
X150895000Y-121945000D01*
G75*
G02*
X150820000Y-122020000I-75000J0D01*
G01*
X150670000Y-122020000D01*
G75*
G02*
X150595000Y-121945000I0J75000D01*
G01*
G37*
G36*
G01*
X150095000Y-121945000D02*
X150095000Y-120545000D01*
G75*
G02*
X150170000Y-120470000I75000J0D01*
G01*
X150320000Y-120470000D01*
G75*
G02*
X150395000Y-120545000I0J-75000D01*
G01*
X150395000Y-121945000D01*
G75*
G02*
X150320000Y-122020000I-75000J0D01*
G01*
X150170000Y-122020000D01*
G75*
G02*
X150095000Y-121945000I0J75000D01*
G01*
G37*
G36*
G01*
X149595000Y-121945000D02*
X149595000Y-120545000D01*
G75*
G02*
X149670000Y-120470000I75000J0D01*
G01*
X149820000Y-120470000D01*
G75*
G02*
X149895000Y-120545000I0J-75000D01*
G01*
X149895000Y-121945000D01*
G75*
G02*
X149820000Y-122020000I-75000J0D01*
G01*
X149670000Y-122020000D01*
G75*
G02*
X149595000Y-121945000I0J75000D01*
G01*
G37*
G36*
G01*
X149095000Y-121945000D02*
X149095000Y-120545000D01*
G75*
G02*
X149170000Y-120470000I75000J0D01*
G01*
X149320000Y-120470000D01*
G75*
G02*
X149395000Y-120545000I0J-75000D01*
G01*
X149395000Y-121945000D01*
G75*
G02*
X149320000Y-122020000I-75000J0D01*
G01*
X149170000Y-122020000D01*
G75*
G02*
X149095000Y-121945000I0J75000D01*
G01*
G37*
G36*
G01*
X148595000Y-121945000D02*
X148595000Y-120545000D01*
G75*
G02*
X148670000Y-120470000I75000J0D01*
G01*
X148820000Y-120470000D01*
G75*
G02*
X148895000Y-120545000I0J-75000D01*
G01*
X148895000Y-121945000D01*
G75*
G02*
X148820000Y-122020000I-75000J0D01*
G01*
X148670000Y-122020000D01*
G75*
G02*
X148595000Y-121945000I0J75000D01*
G01*
G37*
G36*
G01*
X148095000Y-121945000D02*
X148095000Y-120545000D01*
G75*
G02*
X148170000Y-120470000I75000J0D01*
G01*
X148320000Y-120470000D01*
G75*
G02*
X148395000Y-120545000I0J-75000D01*
G01*
X148395000Y-121945000D01*
G75*
G02*
X148320000Y-122020000I-75000J0D01*
G01*
X148170000Y-122020000D01*
G75*
G02*
X148095000Y-121945000I0J75000D01*
G01*
G37*
G36*
G01*
X147595000Y-121945000D02*
X147595000Y-120545000D01*
G75*
G02*
X147670000Y-120470000I75000J0D01*
G01*
X147820000Y-120470000D01*
G75*
G02*
X147895000Y-120545000I0J-75000D01*
G01*
X147895000Y-121945000D01*
G75*
G02*
X147820000Y-122020000I-75000J0D01*
G01*
X147670000Y-122020000D01*
G75*
G02*
X147595000Y-121945000I0J75000D01*
G01*
G37*
G36*
G01*
X147095000Y-121945000D02*
X147095000Y-120545000D01*
G75*
G02*
X147170000Y-120470000I75000J0D01*
G01*
X147320000Y-120470000D01*
G75*
G02*
X147395000Y-120545000I0J-75000D01*
G01*
X147395000Y-121945000D01*
G75*
G02*
X147320000Y-122020000I-75000J0D01*
G01*
X147170000Y-122020000D01*
G75*
G02*
X147095000Y-121945000I0J75000D01*
G01*
G37*
G36*
G01*
X146595000Y-121945000D02*
X146595000Y-120545000D01*
G75*
G02*
X146670000Y-120470000I75000J0D01*
G01*
X146820000Y-120470000D01*
G75*
G02*
X146895000Y-120545000I0J-75000D01*
G01*
X146895000Y-121945000D01*
G75*
G02*
X146820000Y-122020000I-75000J0D01*
G01*
X146670000Y-122020000D01*
G75*
G02*
X146595000Y-121945000I0J75000D01*
G01*
G37*
G36*
G01*
X144045000Y-119395000D02*
X144045000Y-119245000D01*
G75*
G02*
X144120000Y-119170000I75000J0D01*
G01*
X145520000Y-119170000D01*
G75*
G02*
X145595000Y-119245000I0J-75000D01*
G01*
X145595000Y-119395000D01*
G75*
G02*
X145520000Y-119470000I-75000J0D01*
G01*
X144120000Y-119470000D01*
G75*
G02*
X144045000Y-119395000I0J75000D01*
G01*
G37*
G36*
G01*
X144045000Y-118895000D02*
X144045000Y-118745000D01*
G75*
G02*
X144120000Y-118670000I75000J0D01*
G01*
X145520000Y-118670000D01*
G75*
G02*
X145595000Y-118745000I0J-75000D01*
G01*
X145595000Y-118895000D01*
G75*
G02*
X145520000Y-118970000I-75000J0D01*
G01*
X144120000Y-118970000D01*
G75*
G02*
X144045000Y-118895000I0J75000D01*
G01*
G37*
G36*
G01*
X144045000Y-118395000D02*
X144045000Y-118245000D01*
G75*
G02*
X144120000Y-118170000I75000J0D01*
G01*
X145520000Y-118170000D01*
G75*
G02*
X145595000Y-118245000I0J-75000D01*
G01*
X145595000Y-118395000D01*
G75*
G02*
X145520000Y-118470000I-75000J0D01*
G01*
X144120000Y-118470000D01*
G75*
G02*
X144045000Y-118395000I0J75000D01*
G01*
G37*
G36*
G01*
X144045000Y-117895000D02*
X144045000Y-117745000D01*
G75*
G02*
X144120000Y-117670000I75000J0D01*
G01*
X145520000Y-117670000D01*
G75*
G02*
X145595000Y-117745000I0J-75000D01*
G01*
X145595000Y-117895000D01*
G75*
G02*
X145520000Y-117970000I-75000J0D01*
G01*
X144120000Y-117970000D01*
G75*
G02*
X144045000Y-117895000I0J75000D01*
G01*
G37*
G36*
G01*
X144045000Y-117395000D02*
X144045000Y-117245000D01*
G75*
G02*
X144120000Y-117170000I75000J0D01*
G01*
X145520000Y-117170000D01*
G75*
G02*
X145595000Y-117245000I0J-75000D01*
G01*
X145595000Y-117395000D01*
G75*
G02*
X145520000Y-117470000I-75000J0D01*
G01*
X144120000Y-117470000D01*
G75*
G02*
X144045000Y-117395000I0J75000D01*
G01*
G37*
G36*
G01*
X144045000Y-116895000D02*
X144045000Y-116745000D01*
G75*
G02*
X144120000Y-116670000I75000J0D01*
G01*
X145520000Y-116670000D01*
G75*
G02*
X145595000Y-116745000I0J-75000D01*
G01*
X145595000Y-116895000D01*
G75*
G02*
X145520000Y-116970000I-75000J0D01*
G01*
X144120000Y-116970000D01*
G75*
G02*
X144045000Y-116895000I0J75000D01*
G01*
G37*
G36*
G01*
X144045000Y-116395000D02*
X144045000Y-116245000D01*
G75*
G02*
X144120000Y-116170000I75000J0D01*
G01*
X145520000Y-116170000D01*
G75*
G02*
X145595000Y-116245000I0J-75000D01*
G01*
X145595000Y-116395000D01*
G75*
G02*
X145520000Y-116470000I-75000J0D01*
G01*
X144120000Y-116470000D01*
G75*
G02*
X144045000Y-116395000I0J75000D01*
G01*
G37*
G36*
G01*
X144045000Y-115895000D02*
X144045000Y-115745000D01*
G75*
G02*
X144120000Y-115670000I75000J0D01*
G01*
X145520000Y-115670000D01*
G75*
G02*
X145595000Y-115745000I0J-75000D01*
G01*
X145595000Y-115895000D01*
G75*
G02*
X145520000Y-115970000I-75000J0D01*
G01*
X144120000Y-115970000D01*
G75*
G02*
X144045000Y-115895000I0J75000D01*
G01*
G37*
G36*
G01*
X144045000Y-115395000D02*
X144045000Y-115245000D01*
G75*
G02*
X144120000Y-115170000I75000J0D01*
G01*
X145520000Y-115170000D01*
G75*
G02*
X145595000Y-115245000I0J-75000D01*
G01*
X145595000Y-115395000D01*
G75*
G02*
X145520000Y-115470000I-75000J0D01*
G01*
X144120000Y-115470000D01*
G75*
G02*
X144045000Y-115395000I0J75000D01*
G01*
G37*
G36*
G01*
X144045000Y-114895000D02*
X144045000Y-114745000D01*
G75*
G02*
X144120000Y-114670000I75000J0D01*
G01*
X145520000Y-114670000D01*
G75*
G02*
X145595000Y-114745000I0J-75000D01*
G01*
X145595000Y-114895000D01*
G75*
G02*
X145520000Y-114970000I-75000J0D01*
G01*
X144120000Y-114970000D01*
G75*
G02*
X144045000Y-114895000I0J75000D01*
G01*
G37*
G36*
G01*
X144045000Y-114395000D02*
X144045000Y-114245000D01*
G75*
G02*
X144120000Y-114170000I75000J0D01*
G01*
X145520000Y-114170000D01*
G75*
G02*
X145595000Y-114245000I0J-75000D01*
G01*
X145595000Y-114395000D01*
G75*
G02*
X145520000Y-114470000I-75000J0D01*
G01*
X144120000Y-114470000D01*
G75*
G02*
X144045000Y-114395000I0J75000D01*
G01*
G37*
G36*
G01*
X144045000Y-113895000D02*
X144045000Y-113745000D01*
G75*
G02*
X144120000Y-113670000I75000J0D01*
G01*
X145520000Y-113670000D01*
G75*
G02*
X145595000Y-113745000I0J-75000D01*
G01*
X145595000Y-113895000D01*
G75*
G02*
X145520000Y-113970000I-75000J0D01*
G01*
X144120000Y-113970000D01*
G75*
G02*
X144045000Y-113895000I0J75000D01*
G01*
G37*
G36*
G01*
X144045000Y-113395000D02*
X144045000Y-113245000D01*
G75*
G02*
X144120000Y-113170000I75000J0D01*
G01*
X145520000Y-113170000D01*
G75*
G02*
X145595000Y-113245000I0J-75000D01*
G01*
X145595000Y-113395000D01*
G75*
G02*
X145520000Y-113470000I-75000J0D01*
G01*
X144120000Y-113470000D01*
G75*
G02*
X144045000Y-113395000I0J75000D01*
G01*
G37*
G36*
G01*
X144045000Y-112895000D02*
X144045000Y-112745000D01*
G75*
G02*
X144120000Y-112670000I75000J0D01*
G01*
X145520000Y-112670000D01*
G75*
G02*
X145595000Y-112745000I0J-75000D01*
G01*
X145595000Y-112895000D01*
G75*
G02*
X145520000Y-112970000I-75000J0D01*
G01*
X144120000Y-112970000D01*
G75*
G02*
X144045000Y-112895000I0J75000D01*
G01*
G37*
G36*
G01*
X144045000Y-112395000D02*
X144045000Y-112245000D01*
G75*
G02*
X144120000Y-112170000I75000J0D01*
G01*
X145520000Y-112170000D01*
G75*
G02*
X145595000Y-112245000I0J-75000D01*
G01*
X145595000Y-112395000D01*
G75*
G02*
X145520000Y-112470000I-75000J0D01*
G01*
X144120000Y-112470000D01*
G75*
G02*
X144045000Y-112395000I0J75000D01*
G01*
G37*
G36*
G01*
X144045000Y-111895000D02*
X144045000Y-111745000D01*
G75*
G02*
X144120000Y-111670000I75000J0D01*
G01*
X145520000Y-111670000D01*
G75*
G02*
X145595000Y-111745000I0J-75000D01*
G01*
X145595000Y-111895000D01*
G75*
G02*
X145520000Y-111970000I-75000J0D01*
G01*
X144120000Y-111970000D01*
G75*
G02*
X144045000Y-111895000I0J75000D01*
G01*
G37*
%TD*%
D14*
%TO.C,J3*%
X147955000Y-100756000D03*
X147955000Y-96856000D03*
X149225000Y-100756000D03*
X149225000Y-96856000D03*
X150495000Y-100756000D03*
X150495000Y-96856000D03*
X151765000Y-100756000D03*
X151765000Y-96856000D03*
X153035000Y-100756000D03*
X153035000Y-96856000D03*
%TD*%
D15*
%TO.C,U6*%
X179875000Y-115377000D03*
X179875000Y-113477000D03*
X182075000Y-113477000D03*
X182075000Y-114427000D03*
X182075000Y-115377000D03*
%TD*%
D16*
%TO.C,U3*%
X108975000Y-115300000D03*
X108975000Y-114800000D03*
X108975000Y-114300000D03*
X108975000Y-113800000D03*
X108975000Y-113300000D03*
X113275000Y-113300000D03*
X113275000Y-113800000D03*
X113275000Y-114300000D03*
X113275000Y-114800000D03*
X113275000Y-115300000D03*
%TD*%
D17*
%TO.C,U2*%
X196276000Y-125705000D03*
X194376000Y-125705000D03*
X194376000Y-123005000D03*
X195326000Y-123005000D03*
X196276000Y-123005000D03*
%TD*%
D16*
%TO.C,U1*%
X186173000Y-123968000D03*
X186173000Y-124468000D03*
X186173000Y-124968000D03*
X186173000Y-125468000D03*
X186173000Y-125968000D03*
X181873000Y-125968000D03*
X181873000Y-125468000D03*
X181873000Y-124968000D03*
X181873000Y-124468000D03*
X181873000Y-123968000D03*
%TD*%
%TO.C,R28*%
G36*
G01*
X183191999Y-62172000D02*
X184092001Y-62172000D01*
G75*
G02*
X184342000Y-62421999I0J-249999D01*
G01*
X184342000Y-63072001D01*
G75*
G02*
X184092001Y-63322000I-249999J0D01*
G01*
X183191999Y-63322000D01*
G75*
G02*
X182942000Y-63072001I0J249999D01*
G01*
X182942000Y-62421999D01*
G75*
G02*
X183191999Y-62172000I249999J0D01*
G01*
G37*
G36*
G01*
X183191999Y-60122000D02*
X184092001Y-60122000D01*
G75*
G02*
X184342000Y-60371999I0J-249999D01*
G01*
X184342000Y-61022001D01*
G75*
G02*
X184092001Y-61272000I-249999J0D01*
G01*
X183191999Y-61272000D01*
G75*
G02*
X182942000Y-61022001I0J249999D01*
G01*
X182942000Y-60371999D01*
G75*
G02*
X183191999Y-60122000I249999J0D01*
G01*
G37*
%TD*%
%TO.C,R27*%
G36*
G01*
X181159999Y-62181000D02*
X182060001Y-62181000D01*
G75*
G02*
X182310000Y-62430999I0J-249999D01*
G01*
X182310000Y-63081001D01*
G75*
G02*
X182060001Y-63331000I-249999J0D01*
G01*
X181159999Y-63331000D01*
G75*
G02*
X180910000Y-63081001I0J249999D01*
G01*
X180910000Y-62430999D01*
G75*
G02*
X181159999Y-62181000I249999J0D01*
G01*
G37*
G36*
G01*
X181159999Y-60131000D02*
X182060001Y-60131000D01*
G75*
G02*
X182310000Y-60380999I0J-249999D01*
G01*
X182310000Y-61031001D01*
G75*
G02*
X182060001Y-61281000I-249999J0D01*
G01*
X181159999Y-61281000D01*
G75*
G02*
X180910000Y-61031001I0J249999D01*
G01*
X180910000Y-60380999D01*
G75*
G02*
X181159999Y-60131000I249999J0D01*
G01*
G37*
%TD*%
%TO.C,R26*%
G36*
G01*
X179127999Y-62172000D02*
X180028001Y-62172000D01*
G75*
G02*
X180278000Y-62421999I0J-249999D01*
G01*
X180278000Y-63072001D01*
G75*
G02*
X180028001Y-63322000I-249999J0D01*
G01*
X179127999Y-63322000D01*
G75*
G02*
X178878000Y-63072001I0J249999D01*
G01*
X178878000Y-62421999D01*
G75*
G02*
X179127999Y-62172000I249999J0D01*
G01*
G37*
G36*
G01*
X179127999Y-60122000D02*
X180028001Y-60122000D01*
G75*
G02*
X180278000Y-60371999I0J-249999D01*
G01*
X180278000Y-61022001D01*
G75*
G02*
X180028001Y-61272000I-249999J0D01*
G01*
X179127999Y-61272000D01*
G75*
G02*
X178878000Y-61022001I0J249999D01*
G01*
X178878000Y-60371999D01*
G75*
G02*
X179127999Y-60122000I249999J0D01*
G01*
G37*
%TD*%
%TO.C,R25*%
G36*
G01*
X177095999Y-62172000D02*
X177996001Y-62172000D01*
G75*
G02*
X178246000Y-62421999I0J-249999D01*
G01*
X178246000Y-63072001D01*
G75*
G02*
X177996001Y-63322000I-249999J0D01*
G01*
X177095999Y-63322000D01*
G75*
G02*
X176846000Y-63072001I0J249999D01*
G01*
X176846000Y-62421999D01*
G75*
G02*
X177095999Y-62172000I249999J0D01*
G01*
G37*
G36*
G01*
X177095999Y-60122000D02*
X177996001Y-60122000D01*
G75*
G02*
X178246000Y-60371999I0J-249999D01*
G01*
X178246000Y-61022001D01*
G75*
G02*
X177996001Y-61272000I-249999J0D01*
G01*
X177095999Y-61272000D01*
G75*
G02*
X176846000Y-61022001I0J249999D01*
G01*
X176846000Y-60371999D01*
G75*
G02*
X177095999Y-60122000I249999J0D01*
G01*
G37*
%TD*%
%TO.C,R24*%
G36*
G01*
X175063999Y-62172000D02*
X175964001Y-62172000D01*
G75*
G02*
X176214000Y-62421999I0J-249999D01*
G01*
X176214000Y-63072001D01*
G75*
G02*
X175964001Y-63322000I-249999J0D01*
G01*
X175063999Y-63322000D01*
G75*
G02*
X174814000Y-63072001I0J249999D01*
G01*
X174814000Y-62421999D01*
G75*
G02*
X175063999Y-62172000I249999J0D01*
G01*
G37*
G36*
G01*
X175063999Y-60122000D02*
X175964001Y-60122000D01*
G75*
G02*
X176214000Y-60371999I0J-249999D01*
G01*
X176214000Y-61022001D01*
G75*
G02*
X175964001Y-61272000I-249999J0D01*
G01*
X175063999Y-61272000D01*
G75*
G02*
X174814000Y-61022001I0J249999D01*
G01*
X174814000Y-60371999D01*
G75*
G02*
X175063999Y-60122000I249999J0D01*
G01*
G37*
%TD*%
%TO.C,R23*%
G36*
G01*
X147008000Y-57219001D02*
X147008000Y-56318999D01*
G75*
G02*
X147257999Y-56069000I249999J0D01*
G01*
X147908001Y-56069000D01*
G75*
G02*
X148158000Y-56318999I0J-249999D01*
G01*
X148158000Y-57219001D01*
G75*
G02*
X147908001Y-57469000I-249999J0D01*
G01*
X147257999Y-57469000D01*
G75*
G02*
X147008000Y-57219001I0J249999D01*
G01*
G37*
G36*
G01*
X144958000Y-57219001D02*
X144958000Y-56318999D01*
G75*
G02*
X145207999Y-56069000I249999J0D01*
G01*
X145858001Y-56069000D01*
G75*
G02*
X146108000Y-56318999I0J-249999D01*
G01*
X146108000Y-57219001D01*
G75*
G02*
X145858001Y-57469000I-249999J0D01*
G01*
X145207999Y-57469000D01*
G75*
G02*
X144958000Y-57219001I0J249999D01*
G01*
G37*
%TD*%
%TO.C,R22*%
G36*
G01*
X160712999Y-93414000D02*
X161613001Y-93414000D01*
G75*
G02*
X161863000Y-93663999I0J-249999D01*
G01*
X161863000Y-94314001D01*
G75*
G02*
X161613001Y-94564000I-249999J0D01*
G01*
X160712999Y-94564000D01*
G75*
G02*
X160463000Y-94314001I0J249999D01*
G01*
X160463000Y-93663999D01*
G75*
G02*
X160712999Y-93414000I249999J0D01*
G01*
G37*
G36*
G01*
X160712999Y-91364000D02*
X161613001Y-91364000D01*
G75*
G02*
X161863000Y-91613999I0J-249999D01*
G01*
X161863000Y-92264001D01*
G75*
G02*
X161613001Y-92514000I-249999J0D01*
G01*
X160712999Y-92514000D01*
G75*
G02*
X160463000Y-92264001I0J249999D01*
G01*
X160463000Y-91613999D01*
G75*
G02*
X160712999Y-91364000I249999J0D01*
G01*
G37*
%TD*%
%TO.C,R21*%
G36*
G01*
X172789000Y-94557001D02*
X172789000Y-93656999D01*
G75*
G02*
X173038999Y-93407000I249999J0D01*
G01*
X173689001Y-93407000D01*
G75*
G02*
X173939000Y-93656999I0J-249999D01*
G01*
X173939000Y-94557001D01*
G75*
G02*
X173689001Y-94807000I-249999J0D01*
G01*
X173038999Y-94807000D01*
G75*
G02*
X172789000Y-94557001I0J249999D01*
G01*
G37*
G36*
G01*
X170739000Y-94557001D02*
X170739000Y-93656999D01*
G75*
G02*
X170988999Y-93407000I249999J0D01*
G01*
X171639001Y-93407000D01*
G75*
G02*
X171889000Y-93656999I0J-249999D01*
G01*
X171889000Y-94557001D01*
G75*
G02*
X171639001Y-94807000I-249999J0D01*
G01*
X170988999Y-94807000D01*
G75*
G02*
X170739000Y-94557001I0J249999D01*
G01*
G37*
%TD*%
%TO.C,R20*%
G36*
G01*
X172789000Y-88080001D02*
X172789000Y-87179999D01*
G75*
G02*
X173038999Y-86930000I249999J0D01*
G01*
X173689001Y-86930000D01*
G75*
G02*
X173939000Y-87179999I0J-249999D01*
G01*
X173939000Y-88080001D01*
G75*
G02*
X173689001Y-88330000I-249999J0D01*
G01*
X173038999Y-88330000D01*
G75*
G02*
X172789000Y-88080001I0J249999D01*
G01*
G37*
G36*
G01*
X170739000Y-88080001D02*
X170739000Y-87179999D01*
G75*
G02*
X170988999Y-86930000I249999J0D01*
G01*
X171639001Y-86930000D01*
G75*
G02*
X171889000Y-87179999I0J-249999D01*
G01*
X171889000Y-88080001D01*
G75*
G02*
X171639001Y-88330000I-249999J0D01*
G01*
X170988999Y-88330000D01*
G75*
G02*
X170739000Y-88080001I0J249999D01*
G01*
G37*
%TD*%
%TO.C,R19*%
G36*
G01*
X124772000Y-87560999D02*
X124772000Y-88461001D01*
G75*
G02*
X124522001Y-88711000I-249999J0D01*
G01*
X123871999Y-88711000D01*
G75*
G02*
X123622000Y-88461001I0J249999D01*
G01*
X123622000Y-87560999D01*
G75*
G02*
X123871999Y-87311000I249999J0D01*
G01*
X124522001Y-87311000D01*
G75*
G02*
X124772000Y-87560999I0J-249999D01*
G01*
G37*
G36*
G01*
X126822000Y-87560999D02*
X126822000Y-88461001D01*
G75*
G02*
X126572001Y-88711000I-249999J0D01*
G01*
X125921999Y-88711000D01*
G75*
G02*
X125672000Y-88461001I0J249999D01*
G01*
X125672000Y-87560999D01*
G75*
G02*
X125921999Y-87311000I249999J0D01*
G01*
X126572001Y-87311000D01*
G75*
G02*
X126822000Y-87560999I0J-249999D01*
G01*
G37*
%TD*%
%TO.C,R18*%
G36*
G01*
X124772000Y-90608999D02*
X124772000Y-91509001D01*
G75*
G02*
X124522001Y-91759000I-249999J0D01*
G01*
X123871999Y-91759000D01*
G75*
G02*
X123622000Y-91509001I0J249999D01*
G01*
X123622000Y-90608999D01*
G75*
G02*
X123871999Y-90359000I249999J0D01*
G01*
X124522001Y-90359000D01*
G75*
G02*
X124772000Y-90608999I0J-249999D01*
G01*
G37*
G36*
G01*
X126822000Y-90608999D02*
X126822000Y-91509001D01*
G75*
G02*
X126572001Y-91759000I-249999J0D01*
G01*
X125921999Y-91759000D01*
G75*
G02*
X125672000Y-91509001I0J249999D01*
G01*
X125672000Y-90608999D01*
G75*
G02*
X125921999Y-90359000I249999J0D01*
G01*
X126572001Y-90359000D01*
G75*
G02*
X126822000Y-90608999I0J-249999D01*
G01*
G37*
%TD*%
%TO.C,R17*%
G36*
G01*
X124772000Y-93656999D02*
X124772000Y-94557001D01*
G75*
G02*
X124522001Y-94807000I-249999J0D01*
G01*
X123871999Y-94807000D01*
G75*
G02*
X123622000Y-94557001I0J249999D01*
G01*
X123622000Y-93656999D01*
G75*
G02*
X123871999Y-93407000I249999J0D01*
G01*
X124522001Y-93407000D01*
G75*
G02*
X124772000Y-93656999I0J-249999D01*
G01*
G37*
G36*
G01*
X126822000Y-93656999D02*
X126822000Y-94557001D01*
G75*
G02*
X126572001Y-94807000I-249999J0D01*
G01*
X125921999Y-94807000D01*
G75*
G02*
X125672000Y-94557001I0J249999D01*
G01*
X125672000Y-93656999D01*
G75*
G02*
X125921999Y-93407000I249999J0D01*
G01*
X126572001Y-93407000D01*
G75*
G02*
X126822000Y-93656999I0J-249999D01*
G01*
G37*
%TD*%
%TO.C,R16*%
G36*
G01*
X142805999Y-62807000D02*
X143706001Y-62807000D01*
G75*
G02*
X143956000Y-63056999I0J-249999D01*
G01*
X143956000Y-63707001D01*
G75*
G02*
X143706001Y-63957000I-249999J0D01*
G01*
X142805999Y-63957000D01*
G75*
G02*
X142556000Y-63707001I0J249999D01*
G01*
X142556000Y-63056999D01*
G75*
G02*
X142805999Y-62807000I249999J0D01*
G01*
G37*
G36*
G01*
X142805999Y-60757000D02*
X143706001Y-60757000D01*
G75*
G02*
X143956000Y-61006999I0J-249999D01*
G01*
X143956000Y-61657001D01*
G75*
G02*
X143706001Y-61907000I-249999J0D01*
G01*
X142805999Y-61907000D01*
G75*
G02*
X142556000Y-61657001I0J249999D01*
G01*
X142556000Y-61006999D01*
G75*
G02*
X142805999Y-60757000I249999J0D01*
G01*
G37*
%TD*%
%TO.C,R15*%
G36*
G01*
X153854999Y-62807000D02*
X154755001Y-62807000D01*
G75*
G02*
X155005000Y-63056999I0J-249999D01*
G01*
X155005000Y-63707001D01*
G75*
G02*
X154755001Y-63957000I-249999J0D01*
G01*
X153854999Y-63957000D01*
G75*
G02*
X153605000Y-63707001I0J249999D01*
G01*
X153605000Y-63056999D01*
G75*
G02*
X153854999Y-62807000I249999J0D01*
G01*
G37*
G36*
G01*
X153854999Y-60757000D02*
X154755001Y-60757000D01*
G75*
G02*
X155005000Y-61006999I0J-249999D01*
G01*
X155005000Y-61657001D01*
G75*
G02*
X154755001Y-61907000I-249999J0D01*
G01*
X153854999Y-61907000D01*
G75*
G02*
X153605000Y-61657001I0J249999D01*
G01*
X153605000Y-61006999D01*
G75*
G02*
X153854999Y-60757000I249999J0D01*
G01*
G37*
%TD*%
%TO.C,R14*%
G36*
G01*
X142298000Y-75241999D02*
X142298000Y-76142001D01*
G75*
G02*
X142048001Y-76392000I-249999J0D01*
G01*
X141397999Y-76392000D01*
G75*
G02*
X141148000Y-76142001I0J249999D01*
G01*
X141148000Y-75241999D01*
G75*
G02*
X141397999Y-74992000I249999J0D01*
G01*
X142048001Y-74992000D01*
G75*
G02*
X142298000Y-75241999I0J-249999D01*
G01*
G37*
G36*
G01*
X144348000Y-75241999D02*
X144348000Y-76142001D01*
G75*
G02*
X144098001Y-76392000I-249999J0D01*
G01*
X143447999Y-76392000D01*
G75*
G02*
X143198000Y-76142001I0J249999D01*
G01*
X143198000Y-75241999D01*
G75*
G02*
X143447999Y-74992000I249999J0D01*
G01*
X144098001Y-74992000D01*
G75*
G02*
X144348000Y-75241999I0J-249999D01*
G01*
G37*
%TD*%
%TO.C,R13*%
G36*
G01*
X154628000Y-76142001D02*
X154628000Y-75241999D01*
G75*
G02*
X154877999Y-74992000I249999J0D01*
G01*
X155528001Y-74992000D01*
G75*
G02*
X155778000Y-75241999I0J-249999D01*
G01*
X155778000Y-76142001D01*
G75*
G02*
X155528001Y-76392000I-249999J0D01*
G01*
X154877999Y-76392000D01*
G75*
G02*
X154628000Y-76142001I0J249999D01*
G01*
G37*
G36*
G01*
X152578000Y-76142001D02*
X152578000Y-75241999D01*
G75*
G02*
X152827999Y-74992000I249999J0D01*
G01*
X153478001Y-74992000D01*
G75*
G02*
X153728000Y-75241999I0J-249999D01*
G01*
X153728000Y-76142001D01*
G75*
G02*
X153478001Y-76392000I-249999J0D01*
G01*
X152827999Y-76392000D01*
G75*
G02*
X152578000Y-76142001I0J249999D01*
G01*
G37*
%TD*%
%TO.C,R12*%
G36*
G01*
X143198000Y-78682001D02*
X143198000Y-77781999D01*
G75*
G02*
X143447999Y-77532000I249999J0D01*
G01*
X144098001Y-77532000D01*
G75*
G02*
X144348000Y-77781999I0J-249999D01*
G01*
X144348000Y-78682001D01*
G75*
G02*
X144098001Y-78932000I-249999J0D01*
G01*
X143447999Y-78932000D01*
G75*
G02*
X143198000Y-78682001I0J249999D01*
G01*
G37*
G36*
G01*
X141148000Y-78682001D02*
X141148000Y-77781999D01*
G75*
G02*
X141397999Y-77532000I249999J0D01*
G01*
X142048001Y-77532000D01*
G75*
G02*
X142298000Y-77781999I0J-249999D01*
G01*
X142298000Y-78682001D01*
G75*
G02*
X142048001Y-78932000I-249999J0D01*
G01*
X141397999Y-78932000D01*
G75*
G02*
X141148000Y-78682001I0J249999D01*
G01*
G37*
%TD*%
%TO.C,R11*%
G36*
G01*
X153728000Y-72701999D02*
X153728000Y-73602001D01*
G75*
G02*
X153478001Y-73852000I-249999J0D01*
G01*
X152827999Y-73852000D01*
G75*
G02*
X152578000Y-73602001I0J249999D01*
G01*
X152578000Y-72701999D01*
G75*
G02*
X152827999Y-72452000I249999J0D01*
G01*
X153478001Y-72452000D01*
G75*
G02*
X153728000Y-72701999I0J-249999D01*
G01*
G37*
G36*
G01*
X155778000Y-72701999D02*
X155778000Y-73602001D01*
G75*
G02*
X155528001Y-73852000I-249999J0D01*
G01*
X154877999Y-73852000D01*
G75*
G02*
X154628000Y-73602001I0J249999D01*
G01*
X154628000Y-72701999D01*
G75*
G02*
X154877999Y-72452000I249999J0D01*
G01*
X155528001Y-72452000D01*
G75*
G02*
X155778000Y-72701999I0J-249999D01*
G01*
G37*
%TD*%
%TO.C,R10*%
G36*
G01*
X167582000Y-99637001D02*
X167582000Y-98736999D01*
G75*
G02*
X167831999Y-98487000I249999J0D01*
G01*
X168482001Y-98487000D01*
G75*
G02*
X168732000Y-98736999I0J-249999D01*
G01*
X168732000Y-99637001D01*
G75*
G02*
X168482001Y-99887000I-249999J0D01*
G01*
X167831999Y-99887000D01*
G75*
G02*
X167582000Y-99637001I0J249999D01*
G01*
G37*
G36*
G01*
X165532000Y-99637001D02*
X165532000Y-98736999D01*
G75*
G02*
X165781999Y-98487000I249999J0D01*
G01*
X166432001Y-98487000D01*
G75*
G02*
X166682000Y-98736999I0J-249999D01*
G01*
X166682000Y-99637001D01*
G75*
G02*
X166432001Y-99887000I-249999J0D01*
G01*
X165781999Y-99887000D01*
G75*
G02*
X165532000Y-99637001I0J249999D01*
G01*
G37*
%TD*%
%TO.C,R9*%
G36*
G01*
X130625000Y-99256001D02*
X130625000Y-98355999D01*
G75*
G02*
X130874999Y-98106000I249999J0D01*
G01*
X131525001Y-98106000D01*
G75*
G02*
X131775000Y-98355999I0J-249999D01*
G01*
X131775000Y-99256001D01*
G75*
G02*
X131525001Y-99506000I-249999J0D01*
G01*
X130874999Y-99506000D01*
G75*
G02*
X130625000Y-99256001I0J249999D01*
G01*
G37*
G36*
G01*
X128575000Y-99256001D02*
X128575000Y-98355999D01*
G75*
G02*
X128824999Y-98106000I249999J0D01*
G01*
X129475001Y-98106000D01*
G75*
G02*
X129725000Y-98355999I0J-249999D01*
G01*
X129725000Y-99256001D01*
G75*
G02*
X129475001Y-99506000I-249999J0D01*
G01*
X128824999Y-99506000D01*
G75*
G02*
X128575000Y-99256001I0J249999D01*
G01*
G37*
%TD*%
%TO.C,R8*%
G36*
G01*
X180397999Y-108781000D02*
X181298001Y-108781000D01*
G75*
G02*
X181548000Y-109030999I0J-249999D01*
G01*
X181548000Y-109681001D01*
G75*
G02*
X181298001Y-109931000I-249999J0D01*
G01*
X180397999Y-109931000D01*
G75*
G02*
X180148000Y-109681001I0J249999D01*
G01*
X180148000Y-109030999D01*
G75*
G02*
X180397999Y-108781000I249999J0D01*
G01*
G37*
G36*
G01*
X180397999Y-106731000D02*
X181298001Y-106731000D01*
G75*
G02*
X181548000Y-106980999I0J-249999D01*
G01*
X181548000Y-107631001D01*
G75*
G02*
X181298001Y-107881000I-249999J0D01*
G01*
X180397999Y-107881000D01*
G75*
G02*
X180148000Y-107631001I0J249999D01*
G01*
X180148000Y-106980999D01*
G75*
G02*
X180397999Y-106731000I249999J0D01*
G01*
G37*
%TD*%
%TO.C,R7*%
G36*
G01*
X111309999Y-124910000D02*
X112210001Y-124910000D01*
G75*
G02*
X112460000Y-125159999I0J-249999D01*
G01*
X112460000Y-125810001D01*
G75*
G02*
X112210001Y-126060000I-249999J0D01*
G01*
X111309999Y-126060000D01*
G75*
G02*
X111060000Y-125810001I0J249999D01*
G01*
X111060000Y-125159999D01*
G75*
G02*
X111309999Y-124910000I249999J0D01*
G01*
G37*
G36*
G01*
X111309999Y-122860000D02*
X112210001Y-122860000D01*
G75*
G02*
X112460000Y-123109999I0J-249999D01*
G01*
X112460000Y-123760001D01*
G75*
G02*
X112210001Y-124010000I-249999J0D01*
G01*
X111309999Y-124010000D01*
G75*
G02*
X111060000Y-123760001I0J249999D01*
G01*
X111060000Y-123109999D01*
G75*
G02*
X111309999Y-122860000I249999J0D01*
G01*
G37*
%TD*%
%TO.C,R6*%
G36*
G01*
X98609999Y-119830000D02*
X99510001Y-119830000D01*
G75*
G02*
X99760000Y-120079999I0J-249999D01*
G01*
X99760000Y-120730001D01*
G75*
G02*
X99510001Y-120980000I-249999J0D01*
G01*
X98609999Y-120980000D01*
G75*
G02*
X98360000Y-120730001I0J249999D01*
G01*
X98360000Y-120079999D01*
G75*
G02*
X98609999Y-119830000I249999J0D01*
G01*
G37*
G36*
G01*
X98609999Y-117780000D02*
X99510001Y-117780000D01*
G75*
G02*
X99760000Y-118029999I0J-249999D01*
G01*
X99760000Y-118680001D01*
G75*
G02*
X99510001Y-118930000I-249999J0D01*
G01*
X98609999Y-118930000D01*
G75*
G02*
X98360000Y-118680001I0J249999D01*
G01*
X98360000Y-118029999D01*
G75*
G02*
X98609999Y-117780000I249999J0D01*
G01*
G37*
%TD*%
%TO.C,R5*%
G36*
G01*
X104590001Y-113850000D02*
X103689999Y-113850000D01*
G75*
G02*
X103440000Y-113600001I0J249999D01*
G01*
X103440000Y-112949999D01*
G75*
G02*
X103689999Y-112700000I249999J0D01*
G01*
X104590001Y-112700000D01*
G75*
G02*
X104840000Y-112949999I0J-249999D01*
G01*
X104840000Y-113600001D01*
G75*
G02*
X104590001Y-113850000I-249999J0D01*
G01*
G37*
G36*
G01*
X104590001Y-115900000D02*
X103689999Y-115900000D01*
G75*
G02*
X103440000Y-115650001I0J249999D01*
G01*
X103440000Y-114999999D01*
G75*
G02*
X103689999Y-114750000I249999J0D01*
G01*
X104590001Y-114750000D01*
G75*
G02*
X104840000Y-114999999I0J-249999D01*
G01*
X104840000Y-115650001D01*
G75*
G02*
X104590001Y-115900000I-249999J0D01*
G01*
G37*
%TD*%
%TO.C,R4*%
G36*
G01*
X192844000Y-113976999D02*
X192844000Y-114877001D01*
G75*
G02*
X192594001Y-115127000I-249999J0D01*
G01*
X191943999Y-115127000D01*
G75*
G02*
X191694000Y-114877001I0J249999D01*
G01*
X191694000Y-113976999D01*
G75*
G02*
X191943999Y-113727000I249999J0D01*
G01*
X192594001Y-113727000D01*
G75*
G02*
X192844000Y-113976999I0J-249999D01*
G01*
G37*
G36*
G01*
X194894000Y-113976999D02*
X194894000Y-114877001D01*
G75*
G02*
X194644001Y-115127000I-249999J0D01*
G01*
X193993999Y-115127000D01*
G75*
G02*
X193744000Y-114877001I0J249999D01*
G01*
X193744000Y-113976999D01*
G75*
G02*
X193993999Y-113727000I249999J0D01*
G01*
X194644001Y-113727000D01*
G75*
G02*
X194894000Y-113976999I0J-249999D01*
G01*
G37*
%TD*%
%TO.C,R3*%
G36*
G01*
X195776000Y-128593001D02*
X195776000Y-127692999D01*
G75*
G02*
X196025999Y-127443000I249999J0D01*
G01*
X196676001Y-127443000D01*
G75*
G02*
X196926000Y-127692999I0J-249999D01*
G01*
X196926000Y-128593001D01*
G75*
G02*
X196676001Y-128843000I-249999J0D01*
G01*
X196025999Y-128843000D01*
G75*
G02*
X195776000Y-128593001I0J249999D01*
G01*
G37*
G36*
G01*
X193726000Y-128593001D02*
X193726000Y-127692999D01*
G75*
G02*
X193975999Y-127443000I249999J0D01*
G01*
X194626001Y-127443000D01*
G75*
G02*
X194876000Y-127692999I0J-249999D01*
G01*
X194876000Y-128593001D01*
G75*
G02*
X194626001Y-128843000I-249999J0D01*
G01*
X193975999Y-128843000D01*
G75*
G02*
X193726000Y-128593001I0J249999D01*
G01*
G37*
%TD*%
%TO.C,R2*%
G36*
G01*
X188398999Y-114877000D02*
X189299001Y-114877000D01*
G75*
G02*
X189549000Y-115126999I0J-249999D01*
G01*
X189549000Y-115777001D01*
G75*
G02*
X189299001Y-116027000I-249999J0D01*
G01*
X188398999Y-116027000D01*
G75*
G02*
X188149000Y-115777001I0J249999D01*
G01*
X188149000Y-115126999D01*
G75*
G02*
X188398999Y-114877000I249999J0D01*
G01*
G37*
G36*
G01*
X188398999Y-112827000D02*
X189299001Y-112827000D01*
G75*
G02*
X189549000Y-113076999I0J-249999D01*
G01*
X189549000Y-113727001D01*
G75*
G02*
X189299001Y-113977000I-249999J0D01*
G01*
X188398999Y-113977000D01*
G75*
G02*
X188149000Y-113727001I0J249999D01*
G01*
X188149000Y-113076999D01*
G75*
G02*
X188398999Y-112827000I249999J0D01*
G01*
G37*
%TD*%
%TO.C,R1*%
G36*
G01*
X186124001Y-113977000D02*
X185223999Y-113977000D01*
G75*
G02*
X184974000Y-113727001I0J249999D01*
G01*
X184974000Y-113076999D01*
G75*
G02*
X185223999Y-112827000I249999J0D01*
G01*
X186124001Y-112827000D01*
G75*
G02*
X186374000Y-113076999I0J-249999D01*
G01*
X186374000Y-113727001D01*
G75*
G02*
X186124001Y-113977000I-249999J0D01*
G01*
G37*
G36*
G01*
X186124001Y-116027000D02*
X185223999Y-116027000D01*
G75*
G02*
X184974000Y-115777001I0J249999D01*
G01*
X184974000Y-115126999D01*
G75*
G02*
X185223999Y-114877000I249999J0D01*
G01*
X186124001Y-114877000D01*
G75*
G02*
X186374000Y-115126999I0J-249999D01*
G01*
X186374000Y-115777001D01*
G75*
G02*
X186124001Y-116027000I-249999J0D01*
G01*
G37*
%TD*%
%TO.C,FB2*%
G36*
G01*
X107499999Y-119830000D02*
X108400001Y-119830000D01*
G75*
G02*
X108650000Y-120079999I0J-249999D01*
G01*
X108650000Y-120730001D01*
G75*
G02*
X108400001Y-120980000I-249999J0D01*
G01*
X107499999Y-120980000D01*
G75*
G02*
X107250000Y-120730001I0J249999D01*
G01*
X107250000Y-120079999D01*
G75*
G02*
X107499999Y-119830000I249999J0D01*
G01*
G37*
G36*
G01*
X107499999Y-117780000D02*
X108400001Y-117780000D01*
G75*
G02*
X108650000Y-118029999I0J-249999D01*
G01*
X108650000Y-118680001D01*
G75*
G02*
X108400001Y-118930000I-249999J0D01*
G01*
X107499999Y-118930000D01*
G75*
G02*
X107250000Y-118680001I0J249999D01*
G01*
X107250000Y-118029999D01*
G75*
G02*
X107499999Y-117780000I249999J0D01*
G01*
G37*
%TD*%
%TO.C,FB1*%
G36*
G01*
X197289000Y-117151999D02*
X197289000Y-118052001D01*
G75*
G02*
X197039001Y-118302000I-249999J0D01*
G01*
X196388999Y-118302000D01*
G75*
G02*
X196139000Y-118052001I0J249999D01*
G01*
X196139000Y-117151999D01*
G75*
G02*
X196388999Y-116902000I249999J0D01*
G01*
X197039001Y-116902000D01*
G75*
G02*
X197289000Y-117151999I0J-249999D01*
G01*
G37*
G36*
G01*
X199339000Y-117151999D02*
X199339000Y-118052001D01*
G75*
G02*
X199089001Y-118302000I-249999J0D01*
G01*
X198438999Y-118302000D01*
G75*
G02*
X198189000Y-118052001I0J249999D01*
G01*
X198189000Y-117151999D01*
G75*
G02*
X198438999Y-116902000I249999J0D01*
G01*
X199089001Y-116902000D01*
G75*
G02*
X199339000Y-117151999I0J-249999D01*
G01*
G37*
%TD*%
D11*
%TO.C,D1*%
X100581000Y-69469000D03*
X103381000Y-69469000D03*
%TD*%
%TO.C,C33*%
G36*
G01*
X155886999Y-108146000D02*
X156787001Y-108146000D01*
G75*
G02*
X157037000Y-108395999I0J-249999D01*
G01*
X157037000Y-109046001D01*
G75*
G02*
X156787001Y-109296000I-249999J0D01*
G01*
X155886999Y-109296000D01*
G75*
G02*
X155637000Y-109046001I0J249999D01*
G01*
X155637000Y-108395999D01*
G75*
G02*
X155886999Y-108146000I249999J0D01*
G01*
G37*
G36*
G01*
X155886999Y-106096000D02*
X156787001Y-106096000D01*
G75*
G02*
X157037000Y-106345999I0J-249999D01*
G01*
X157037000Y-106996001D01*
G75*
G02*
X156787001Y-107246000I-249999J0D01*
G01*
X155886999Y-107246000D01*
G75*
G02*
X155637000Y-106996001I0J249999D01*
G01*
X155637000Y-106345999D01*
G75*
G02*
X155886999Y-106096000I249999J0D01*
G01*
G37*
%TD*%
%TO.C,C32*%
G36*
G01*
X143198000Y-73602001D02*
X143198000Y-72701999D01*
G75*
G02*
X143447999Y-72452000I249999J0D01*
G01*
X144098001Y-72452000D01*
G75*
G02*
X144348000Y-72701999I0J-249999D01*
G01*
X144348000Y-73602001D01*
G75*
G02*
X144098001Y-73852000I-249999J0D01*
G01*
X143447999Y-73852000D01*
G75*
G02*
X143198000Y-73602001I0J249999D01*
G01*
G37*
G36*
G01*
X141148000Y-73602001D02*
X141148000Y-72701999D01*
G75*
G02*
X141397999Y-72452000I249999J0D01*
G01*
X142048001Y-72452000D01*
G75*
G02*
X142298000Y-72701999I0J-249999D01*
G01*
X142298000Y-73602001D01*
G75*
G02*
X142048001Y-73852000I-249999J0D01*
G01*
X141397999Y-73852000D01*
G75*
G02*
X141148000Y-73602001I0J249999D01*
G01*
G37*
%TD*%
%TO.C,C31*%
G36*
G01*
X153728000Y-77781999D02*
X153728000Y-78682001D01*
G75*
G02*
X153478001Y-78932000I-249999J0D01*
G01*
X152827999Y-78932000D01*
G75*
G02*
X152578000Y-78682001I0J249999D01*
G01*
X152578000Y-77781999D01*
G75*
G02*
X152827999Y-77532000I249999J0D01*
G01*
X153478001Y-77532000D01*
G75*
G02*
X153728000Y-77781999I0J-249999D01*
G01*
G37*
G36*
G01*
X155778000Y-77781999D02*
X155778000Y-78682001D01*
G75*
G02*
X155528001Y-78932000I-249999J0D01*
G01*
X154877999Y-78932000D01*
G75*
G02*
X154628000Y-78682001I0J249999D01*
G01*
X154628000Y-77781999D01*
G75*
G02*
X154877999Y-77532000I249999J0D01*
G01*
X155528001Y-77532000D01*
G75*
G02*
X155778000Y-77781999I0J-249999D01*
G01*
G37*
%TD*%
%TO.C,C30*%
G36*
G01*
X180397999Y-104717000D02*
X181298001Y-104717000D01*
G75*
G02*
X181548000Y-104966999I0J-249999D01*
G01*
X181548000Y-105617001D01*
G75*
G02*
X181298001Y-105867000I-249999J0D01*
G01*
X180397999Y-105867000D01*
G75*
G02*
X180148000Y-105617001I0J249999D01*
G01*
X180148000Y-104966999D01*
G75*
G02*
X180397999Y-104717000I249999J0D01*
G01*
G37*
G36*
G01*
X180397999Y-102667000D02*
X181298001Y-102667000D01*
G75*
G02*
X181548000Y-102916999I0J-249999D01*
G01*
X181548000Y-103567001D01*
G75*
G02*
X181298001Y-103817000I-249999J0D01*
G01*
X180397999Y-103817000D01*
G75*
G02*
X180148000Y-103567001I0J249999D01*
G01*
X180148000Y-102916999D01*
G75*
G02*
X180397999Y-102667000I249999J0D01*
G01*
G37*
%TD*%
%TO.C,C29*%
G36*
G01*
X114059000Y-87366000D02*
X114059000Y-86116000D01*
G75*
G02*
X114309000Y-85866000I250000J0D01*
G01*
X115234000Y-85866000D01*
G75*
G02*
X115484000Y-86116000I0J-250000D01*
G01*
X115484000Y-87366000D01*
G75*
G02*
X115234000Y-87616000I-250000J0D01*
G01*
X114309000Y-87616000D01*
G75*
G02*
X114059000Y-87366000I0J250000D01*
G01*
G37*
G36*
G01*
X111084000Y-87366000D02*
X111084000Y-86116000D01*
G75*
G02*
X111334000Y-85866000I250000J0D01*
G01*
X112259000Y-85866000D01*
G75*
G02*
X112509000Y-86116000I0J-250000D01*
G01*
X112509000Y-87366000D01*
G75*
G02*
X112259000Y-87616000I-250000J0D01*
G01*
X111334000Y-87616000D01*
G75*
G02*
X111084000Y-87366000I0J250000D01*
G01*
G37*
%TD*%
%TO.C,C28*%
G36*
G01*
X114186000Y-58664000D02*
X114186000Y-57414000D01*
G75*
G02*
X114436000Y-57164000I250000J0D01*
G01*
X115361000Y-57164000D01*
G75*
G02*
X115611000Y-57414000I0J-250000D01*
G01*
X115611000Y-58664000D01*
G75*
G02*
X115361000Y-58914000I-250000J0D01*
G01*
X114436000Y-58914000D01*
G75*
G02*
X114186000Y-58664000I0J250000D01*
G01*
G37*
G36*
G01*
X111211000Y-58664000D02*
X111211000Y-57414000D01*
G75*
G02*
X111461000Y-57164000I250000J0D01*
G01*
X112386000Y-57164000D01*
G75*
G02*
X112636000Y-57414000I0J-250000D01*
G01*
X112636000Y-58664000D01*
G75*
G02*
X112386000Y-58914000I-250000J0D01*
G01*
X111461000Y-58914000D01*
G75*
G02*
X111211000Y-58664000I0J250000D01*
G01*
G37*
%TD*%
%TO.C,C22*%
G36*
G01*
X153485001Y-124772000D02*
X152584999Y-124772000D01*
G75*
G02*
X152335000Y-124522001I0J249999D01*
G01*
X152335000Y-123871999D01*
G75*
G02*
X152584999Y-123622000I249999J0D01*
G01*
X153485001Y-123622000D01*
G75*
G02*
X153735000Y-123871999I0J-249999D01*
G01*
X153735000Y-124522001D01*
G75*
G02*
X153485001Y-124772000I-249999J0D01*
G01*
G37*
G36*
G01*
X153485001Y-126822000D02*
X152584999Y-126822000D01*
G75*
G02*
X152335000Y-126572001I0J249999D01*
G01*
X152335000Y-125921999D01*
G75*
G02*
X152584999Y-125672000I249999J0D01*
G01*
X153485001Y-125672000D01*
G75*
G02*
X153735000Y-125921999I0J-249999D01*
G01*
X153735000Y-126572001D01*
G75*
G02*
X153485001Y-126822000I-249999J0D01*
G01*
G37*
%TD*%
%TO.C,C21*%
G36*
G01*
X149167001Y-104960000D02*
X148266999Y-104960000D01*
G75*
G02*
X148017000Y-104710001I0J249999D01*
G01*
X148017000Y-104059999D01*
G75*
G02*
X148266999Y-103810000I249999J0D01*
G01*
X149167001Y-103810000D01*
G75*
G02*
X149417000Y-104059999I0J-249999D01*
G01*
X149417000Y-104710001D01*
G75*
G02*
X149167001Y-104960000I-249999J0D01*
G01*
G37*
G36*
G01*
X149167001Y-107010000D02*
X148266999Y-107010000D01*
G75*
G02*
X148017000Y-106760001I0J249999D01*
G01*
X148017000Y-106109999D01*
G75*
G02*
X148266999Y-105860000I249999J0D01*
G01*
X149167001Y-105860000D01*
G75*
G02*
X149417000Y-106109999I0J-249999D01*
G01*
X149417000Y-106760001D01*
G75*
G02*
X149167001Y-107010000I-249999J0D01*
G01*
G37*
%TD*%
%TO.C,C19*%
G36*
G01*
X155124999Y-125672000D02*
X156025001Y-125672000D01*
G75*
G02*
X156275000Y-125921999I0J-249999D01*
G01*
X156275000Y-126572001D01*
G75*
G02*
X156025001Y-126822000I-249999J0D01*
G01*
X155124999Y-126822000D01*
G75*
G02*
X154875000Y-126572001I0J249999D01*
G01*
X154875000Y-125921999D01*
G75*
G02*
X155124999Y-125672000I249999J0D01*
G01*
G37*
G36*
G01*
X155124999Y-123622000D02*
X156025001Y-123622000D01*
G75*
G02*
X156275000Y-123871999I0J-249999D01*
G01*
X156275000Y-124522001D01*
G75*
G02*
X156025001Y-124772000I-249999J0D01*
G01*
X155124999Y-124772000D01*
G75*
G02*
X154875000Y-124522001I0J249999D01*
G01*
X154875000Y-123871999D01*
G75*
G02*
X155124999Y-123622000I249999J0D01*
G01*
G37*
%TD*%
%TO.C,C18*%
G36*
G01*
X146627001Y-104960000D02*
X145726999Y-104960000D01*
G75*
G02*
X145477000Y-104710001I0J249999D01*
G01*
X145477000Y-104059999D01*
G75*
G02*
X145726999Y-103810000I249999J0D01*
G01*
X146627001Y-103810000D01*
G75*
G02*
X146877000Y-104059999I0J-249999D01*
G01*
X146877000Y-104710001D01*
G75*
G02*
X146627001Y-104960000I-249999J0D01*
G01*
G37*
G36*
G01*
X146627001Y-107010000D02*
X145726999Y-107010000D01*
G75*
G02*
X145477000Y-106760001I0J249999D01*
G01*
X145477000Y-106109999D01*
G75*
G02*
X145726999Y-105860000I249999J0D01*
G01*
X146627001Y-105860000D01*
G75*
G02*
X146877000Y-106109999I0J-249999D01*
G01*
X146877000Y-106760001D01*
G75*
G02*
X146627001Y-107010000I-249999J0D01*
G01*
G37*
%TD*%
%TO.C,C17*%
G36*
G01*
X115119999Y-119830000D02*
X116020001Y-119830000D01*
G75*
G02*
X116270000Y-120079999I0J-249999D01*
G01*
X116270000Y-120730001D01*
G75*
G02*
X116020001Y-120980000I-249999J0D01*
G01*
X115119999Y-120980000D01*
G75*
G02*
X114870000Y-120730001I0J249999D01*
G01*
X114870000Y-120079999D01*
G75*
G02*
X115119999Y-119830000I249999J0D01*
G01*
G37*
G36*
G01*
X115119999Y-117780000D02*
X116020001Y-117780000D01*
G75*
G02*
X116270000Y-118029999I0J-249999D01*
G01*
X116270000Y-118680001D01*
G75*
G02*
X116020001Y-118930000I-249999J0D01*
G01*
X115119999Y-118930000D01*
G75*
G02*
X114870000Y-118680001I0J249999D01*
G01*
X114870000Y-118029999D01*
G75*
G02*
X115119999Y-117780000I249999J0D01*
G01*
G37*
%TD*%
%TO.C,C16*%
G36*
G01*
X111309999Y-119830000D02*
X112210001Y-119830000D01*
G75*
G02*
X112460000Y-120079999I0J-249999D01*
G01*
X112460000Y-120730001D01*
G75*
G02*
X112210001Y-120980000I-249999J0D01*
G01*
X111309999Y-120980000D01*
G75*
G02*
X111060000Y-120730001I0J249999D01*
G01*
X111060000Y-120079999D01*
G75*
G02*
X111309999Y-119830000I249999J0D01*
G01*
G37*
G36*
G01*
X111309999Y-117780000D02*
X112210001Y-117780000D01*
G75*
G02*
X112460000Y-118029999I0J-249999D01*
G01*
X112460000Y-118680001D01*
G75*
G02*
X112210001Y-118930000I-249999J0D01*
G01*
X111309999Y-118930000D01*
G75*
G02*
X111060000Y-118680001I0J249999D01*
G01*
X111060000Y-118029999D01*
G75*
G02*
X111309999Y-117780000I249999J0D01*
G01*
G37*
%TD*%
%TO.C,C15*%
G36*
G01*
X107499999Y-124910000D02*
X108400001Y-124910000D01*
G75*
G02*
X108650000Y-125159999I0J-249999D01*
G01*
X108650000Y-125810001D01*
G75*
G02*
X108400001Y-126060000I-249999J0D01*
G01*
X107499999Y-126060000D01*
G75*
G02*
X107250000Y-125810001I0J249999D01*
G01*
X107250000Y-125159999D01*
G75*
G02*
X107499999Y-124910000I249999J0D01*
G01*
G37*
G36*
G01*
X107499999Y-122860000D02*
X108400001Y-122860000D01*
G75*
G02*
X108650000Y-123109999I0J-249999D01*
G01*
X108650000Y-123760001D01*
G75*
G02*
X108400001Y-124010000I-249999J0D01*
G01*
X107499999Y-124010000D01*
G75*
G02*
X107250000Y-123760001I0J249999D01*
G01*
X107250000Y-123109999D01*
G75*
G02*
X107499999Y-122860000I249999J0D01*
G01*
G37*
%TD*%
%TO.C,C14*%
G36*
G01*
X98609999Y-114750000D02*
X99510001Y-114750000D01*
G75*
G02*
X99760000Y-114999999I0J-249999D01*
G01*
X99760000Y-115650001D01*
G75*
G02*
X99510001Y-115900000I-249999J0D01*
G01*
X98609999Y-115900000D01*
G75*
G02*
X98360000Y-115650001I0J249999D01*
G01*
X98360000Y-114999999D01*
G75*
G02*
X98609999Y-114750000I249999J0D01*
G01*
G37*
G36*
G01*
X98609999Y-112700000D02*
X99510001Y-112700000D01*
G75*
G02*
X99760000Y-112949999I0J-249999D01*
G01*
X99760000Y-113600001D01*
G75*
G02*
X99510001Y-113850000I-249999J0D01*
G01*
X98609999Y-113850000D01*
G75*
G02*
X98360000Y-113600001I0J249999D01*
G01*
X98360000Y-112949999D01*
G75*
G02*
X98609999Y-112700000I249999J0D01*
G01*
G37*
%TD*%
%TO.C,C12*%
G36*
G01*
X103689999Y-119830000D02*
X104590001Y-119830000D01*
G75*
G02*
X104840000Y-120079999I0J-249999D01*
G01*
X104840000Y-120730001D01*
G75*
G02*
X104590001Y-120980000I-249999J0D01*
G01*
X103689999Y-120980000D01*
G75*
G02*
X103440000Y-120730001I0J249999D01*
G01*
X103440000Y-120079999D01*
G75*
G02*
X103689999Y-119830000I249999J0D01*
G01*
G37*
G36*
G01*
X103689999Y-117780000D02*
X104590001Y-117780000D01*
G75*
G02*
X104840000Y-118029999I0J-249999D01*
G01*
X104840000Y-118680001D01*
G75*
G02*
X104590001Y-118930000I-249999J0D01*
G01*
X103689999Y-118930000D01*
G75*
G02*
X103440000Y-118680001I0J249999D01*
G01*
X103440000Y-118029999D01*
G75*
G02*
X103689999Y-117780000I249999J0D01*
G01*
G37*
%TD*%
%TO.C,C9*%
G36*
G01*
X197289000Y-110801999D02*
X197289000Y-111702001D01*
G75*
G02*
X197039001Y-111952000I-249999J0D01*
G01*
X196388999Y-111952000D01*
G75*
G02*
X196139000Y-111702001I0J249999D01*
G01*
X196139000Y-110801999D01*
G75*
G02*
X196388999Y-110552000I249999J0D01*
G01*
X197039001Y-110552000D01*
G75*
G02*
X197289000Y-110801999I0J-249999D01*
G01*
G37*
G36*
G01*
X199339000Y-110801999D02*
X199339000Y-111702001D01*
G75*
G02*
X199089001Y-111952000I-249999J0D01*
G01*
X198438999Y-111952000D01*
G75*
G02*
X198189000Y-111702001I0J249999D01*
G01*
X198189000Y-110801999D01*
G75*
G02*
X198438999Y-110552000I249999J0D01*
G01*
X199089001Y-110552000D01*
G75*
G02*
X199339000Y-110801999I0J-249999D01*
G01*
G37*
%TD*%
%TO.C,C8*%
G36*
G01*
X197289000Y-113976999D02*
X197289000Y-114877001D01*
G75*
G02*
X197039001Y-115127000I-249999J0D01*
G01*
X196388999Y-115127000D01*
G75*
G02*
X196139000Y-114877001I0J249999D01*
G01*
X196139000Y-113976999D01*
G75*
G02*
X196388999Y-113727000I249999J0D01*
G01*
X197039001Y-113727000D01*
G75*
G02*
X197289000Y-113976999I0J-249999D01*
G01*
G37*
G36*
G01*
X199339000Y-113976999D02*
X199339000Y-114877001D01*
G75*
G02*
X199089001Y-115127000I-249999J0D01*
G01*
X198438999Y-115127000D01*
G75*
G02*
X198189000Y-114877001I0J249999D01*
G01*
X198189000Y-113976999D01*
G75*
G02*
X198438999Y-113727000I249999J0D01*
G01*
X199089001Y-113727000D01*
G75*
G02*
X199339000Y-113976999I0J-249999D01*
G01*
G37*
%TD*%
%TO.C,C7*%
G36*
G01*
X192844000Y-117151999D02*
X192844000Y-118052001D01*
G75*
G02*
X192594001Y-118302000I-249999J0D01*
G01*
X191943999Y-118302000D01*
G75*
G02*
X191694000Y-118052001I0J249999D01*
G01*
X191694000Y-117151999D01*
G75*
G02*
X191943999Y-116902000I249999J0D01*
G01*
X192594001Y-116902000D01*
G75*
G02*
X192844000Y-117151999I0J-249999D01*
G01*
G37*
G36*
G01*
X194894000Y-117151999D02*
X194894000Y-118052001D01*
G75*
G02*
X194644001Y-118302000I-249999J0D01*
G01*
X193993999Y-118302000D01*
G75*
G02*
X193744000Y-118052001I0J249999D01*
G01*
X193744000Y-117151999D01*
G75*
G02*
X193993999Y-116902000I249999J0D01*
G01*
X194644001Y-116902000D01*
G75*
G02*
X194894000Y-117151999I0J-249999D01*
G01*
G37*
%TD*%
%TO.C,C6*%
G36*
G01*
X199320999Y-124529000D02*
X200221001Y-124529000D01*
G75*
G02*
X200471000Y-124778999I0J-249999D01*
G01*
X200471000Y-125429001D01*
G75*
G02*
X200221001Y-125679000I-249999J0D01*
G01*
X199320999Y-125679000D01*
G75*
G02*
X199071000Y-125429001I0J249999D01*
G01*
X199071000Y-124778999D01*
G75*
G02*
X199320999Y-124529000I249999J0D01*
G01*
G37*
G36*
G01*
X199320999Y-122479000D02*
X200221001Y-122479000D01*
G75*
G02*
X200471000Y-122728999I0J-249999D01*
G01*
X200471000Y-123379001D01*
G75*
G02*
X200221001Y-123629000I-249999J0D01*
G01*
X199320999Y-123629000D01*
G75*
G02*
X199071000Y-123379001I0J249999D01*
G01*
X199071000Y-122728999D01*
G75*
G02*
X199320999Y-122479000I249999J0D01*
G01*
G37*
%TD*%
%TO.C,C5*%
G36*
G01*
X188398999Y-119957000D02*
X189299001Y-119957000D01*
G75*
G02*
X189549000Y-120206999I0J-249999D01*
G01*
X189549000Y-120857001D01*
G75*
G02*
X189299001Y-121107000I-249999J0D01*
G01*
X188398999Y-121107000D01*
G75*
G02*
X188149000Y-120857001I0J249999D01*
G01*
X188149000Y-120206999D01*
G75*
G02*
X188398999Y-119957000I249999J0D01*
G01*
G37*
G36*
G01*
X188398999Y-117907000D02*
X189299001Y-117907000D01*
G75*
G02*
X189549000Y-118156999I0J-249999D01*
G01*
X189549000Y-118807001D01*
G75*
G02*
X189299001Y-119057000I-249999J0D01*
G01*
X188398999Y-119057000D01*
G75*
G02*
X188149000Y-118807001I0J249999D01*
G01*
X188149000Y-118156999D01*
G75*
G02*
X188398999Y-117907000I249999J0D01*
G01*
G37*
%TD*%
%TO.C,C4*%
G36*
G01*
X186124001Y-119057000D02*
X185223999Y-119057000D01*
G75*
G02*
X184974000Y-118807001I0J249999D01*
G01*
X184974000Y-118156999D01*
G75*
G02*
X185223999Y-117907000I249999J0D01*
G01*
X186124001Y-117907000D01*
G75*
G02*
X186374000Y-118156999I0J-249999D01*
G01*
X186374000Y-118807001D01*
G75*
G02*
X186124001Y-119057000I-249999J0D01*
G01*
G37*
G36*
G01*
X186124001Y-121107000D02*
X185223999Y-121107000D01*
G75*
G02*
X184974000Y-120857001I0J249999D01*
G01*
X184974000Y-120206999D01*
G75*
G02*
X185223999Y-119957000I249999J0D01*
G01*
X186124001Y-119957000D01*
G75*
G02*
X186374000Y-120206999I0J-249999D01*
G01*
X186374000Y-120857001D01*
G75*
G02*
X186124001Y-121107000I-249999J0D01*
G01*
G37*
%TD*%
M02*
