%TF.GenerationSoftware,KiCad,Pcbnew,5.1.6-c6e7f7d~87~ubuntu18.04.1*%
%TF.CreationDate,2020-10-29T02:15:20+00:00*%
%TF.ProjectId,CirrusDspPedal,43697272-7573-4447-9370-506564616c2e,rev?*%
%TF.SameCoordinates,Original*%
%TF.FileFunction,Soldermask,Bot*%
%TF.FilePolarity,Negative*%
%FSLAX46Y46*%
G04 Gerber Fmt 4.6, Leading zero omitted, Abs format (unit mm)*
G04 Created by KiCad (PCBNEW 5.1.6-c6e7f7d~87~ubuntu18.04.1) date 2020-10-29 02:15:20*
%MOMM*%
%LPD*%
G01*
G04 APERTURE LIST*
%ADD10C,1.900000*%
%ADD11R,1.900000X1.900000*%
%ADD12O,3.100000X4.100000*%
%ADD13O,1.800000X1.800000*%
%ADD14R,1.800000X1.800000*%
%ADD15C,4.100000*%
%ADD16R,2.000000X1.450000*%
%ADD17R,1.300000X1.100000*%
%ADD18R,1.650000X1.450000*%
%ADD19R,1.270000X1.900000*%
%ADD20R,0.950000X1.200000*%
%ADD21R,0.850000X1.200000*%
%ADD22C,3.100000*%
%ADD23C,2.100000*%
%ADD24R,3.600000X3.600000*%
%ADD25C,8.100000*%
%ADD26C,1.000000*%
G04 APERTURE END LIST*
D10*
%TO.C,LED1*%
X131064000Y-87630000D03*
X131064000Y-89789000D03*
X131064000Y-91948000D03*
D11*
X131064000Y-94107000D03*
%TD*%
D10*
%TO.C,LED2*%
X166116000Y-94107000D03*
X166116000Y-91948000D03*
X166116000Y-89789000D03*
D11*
X166116000Y-87630000D03*
%TD*%
D12*
%TO.C,SW4*%
X137585000Y-62484000D03*
X128185000Y-62484000D03*
X132885000Y-62484000D03*
%TD*%
%TO.C,SW3*%
X169465000Y-62484000D03*
X160065000Y-62484000D03*
X164765000Y-62484000D03*
%TD*%
D13*
%TO.C,SW2*%
X168148000Y-102108000D03*
D14*
X165608000Y-102108000D03*
%TD*%
D13*
%TO.C,SW1*%
X131191000Y-102108000D03*
D14*
X128651000Y-102108000D03*
%TD*%
D15*
%TO.C,RV2*%
X130676000Y-70902000D03*
X130676000Y-80402000D03*
D10*
X138176000Y-73152000D03*
X138176000Y-75652000D03*
X138176000Y-78152000D03*
%TD*%
D15*
%TO.C,RV1*%
X166504000Y-80482000D03*
X166504000Y-70982000D03*
D10*
X159004000Y-78232000D03*
X159004000Y-75732000D03*
X159004000Y-73232000D03*
%TD*%
%TO.C,L1*%
G36*
G01*
X140735000Y-118334262D02*
X140735000Y-117377738D01*
G75*
G02*
X141006738Y-117106000I271738J0D01*
G01*
X141713262Y-117106000D01*
G75*
G02*
X141985000Y-117377738I0J-271738D01*
G01*
X141985000Y-118334262D01*
G75*
G02*
X141713262Y-118606000I-271738J0D01*
G01*
X141006738Y-118606000D01*
G75*
G02*
X140735000Y-118334262I0J271738D01*
G01*
G37*
G36*
G01*
X138685000Y-118334262D02*
X138685000Y-117377738D01*
G75*
G02*
X138956738Y-117106000I271738J0D01*
G01*
X139663262Y-117106000D01*
G75*
G02*
X139935000Y-117377738I0J-271738D01*
G01*
X139935000Y-118334262D01*
G75*
G02*
X139663262Y-118606000I-271738J0D01*
G01*
X138956738Y-118606000D01*
G75*
G02*
X138685000Y-118334262I0J271738D01*
G01*
G37*
%TD*%
%TO.C,K1*%
G36*
G01*
X152794500Y-129751000D02*
X152794500Y-130201000D01*
G75*
G02*
X152569500Y-130426000I-225000J0D01*
G01*
X150859500Y-130426000D01*
G75*
G02*
X150634500Y-130201000I0J225000D01*
G01*
X150634500Y-129751000D01*
G75*
G02*
X150859500Y-129526000I225000J0D01*
G01*
X152569500Y-129526000D01*
G75*
G02*
X152794500Y-129751000I0J-225000D01*
G01*
G37*
G36*
G01*
X152794500Y-132951000D02*
X152794500Y-133401000D01*
G75*
G02*
X152569500Y-133626000I-225000J0D01*
G01*
X150859500Y-133626000D01*
G75*
G02*
X150634500Y-133401000I0J225000D01*
G01*
X150634500Y-132951000D01*
G75*
G02*
X150859500Y-132726000I225000J0D01*
G01*
X152569500Y-132726000D01*
G75*
G02*
X152794500Y-132951000I0J-225000D01*
G01*
G37*
G36*
G01*
X152794500Y-135151000D02*
X152794500Y-135601000D01*
G75*
G02*
X152569500Y-135826000I-225000J0D01*
G01*
X150859500Y-135826000D01*
G75*
G02*
X150634500Y-135601000I0J225000D01*
G01*
X150634500Y-135151000D01*
G75*
G02*
X150859500Y-134926000I225000J0D01*
G01*
X152569500Y-134926000D01*
G75*
G02*
X152794500Y-135151000I0J-225000D01*
G01*
G37*
G36*
G01*
X152794500Y-137351000D02*
X152794500Y-137801000D01*
G75*
G02*
X152569500Y-138026000I-225000J0D01*
G01*
X150859500Y-138026000D01*
G75*
G02*
X150634500Y-137801000I0J225000D01*
G01*
X150634500Y-137351000D01*
G75*
G02*
X150859500Y-137126000I225000J0D01*
G01*
X152569500Y-137126000D01*
G75*
G02*
X152794500Y-137351000I0J-225000D01*
G01*
G37*
G36*
G01*
X146654500Y-137351000D02*
X146654500Y-137801000D01*
G75*
G02*
X146429500Y-138026000I-225000J0D01*
G01*
X144719500Y-138026000D01*
G75*
G02*
X144494500Y-137801000I0J225000D01*
G01*
X144494500Y-137351000D01*
G75*
G02*
X144719500Y-137126000I225000J0D01*
G01*
X146429500Y-137126000D01*
G75*
G02*
X146654500Y-137351000I0J-225000D01*
G01*
G37*
G36*
G01*
X146654500Y-135151000D02*
X146654500Y-135601000D01*
G75*
G02*
X146429500Y-135826000I-225000J0D01*
G01*
X144719500Y-135826000D01*
G75*
G02*
X144494500Y-135601000I0J225000D01*
G01*
X144494500Y-135151000D01*
G75*
G02*
X144719500Y-134926000I225000J0D01*
G01*
X146429500Y-134926000D01*
G75*
G02*
X146654500Y-135151000I0J-225000D01*
G01*
G37*
G36*
G01*
X146654500Y-132951000D02*
X146654500Y-133401000D01*
G75*
G02*
X146429500Y-133626000I-225000J0D01*
G01*
X144719500Y-133626000D01*
G75*
G02*
X144494500Y-133401000I0J225000D01*
G01*
X144494500Y-132951000D01*
G75*
G02*
X144719500Y-132726000I225000J0D01*
G01*
X146429500Y-132726000D01*
G75*
G02*
X146654500Y-132951000I0J-225000D01*
G01*
G37*
G36*
G01*
X146654500Y-129751000D02*
X146654500Y-130201000D01*
G75*
G02*
X146429500Y-130426000I-225000J0D01*
G01*
X144719500Y-130426000D01*
G75*
G02*
X144494500Y-130201000I0J225000D01*
G01*
X144494500Y-129751000D01*
G75*
G02*
X144719500Y-129526000I225000J0D01*
G01*
X146429500Y-129526000D01*
G75*
G02*
X146654500Y-129751000I0J-225000D01*
G01*
G37*
%TD*%
D16*
%TO.C,J6*%
X182165000Y-55839000D03*
X176195000Y-55839000D03*
D17*
X172695000Y-60514000D03*
X172695000Y-56814000D03*
D18*
X172870000Y-66539000D03*
D19*
X184190000Y-66314000D03*
D20*
X181930000Y-66664000D03*
X180830000Y-66664000D03*
X179730000Y-66664000D03*
X178630000Y-66664000D03*
X177530000Y-66664000D03*
X176430000Y-66664000D03*
D21*
X182980000Y-66664000D03*
D20*
X175330000Y-66664000D03*
%TD*%
D22*
%TO.C,J5*%
X187388500Y-84455000D03*
X187388500Y-73025000D03*
X200088500Y-73025000D03*
X200088500Y-84455000D03*
D23*
X196913500Y-84455000D03*
X196913500Y-73025000D03*
%TD*%
%TO.C,J4*%
G36*
G01*
X101753000Y-75448000D02*
X101753000Y-73648000D01*
G75*
G02*
X102653000Y-72748000I900000J0D01*
G01*
X104453000Y-72748000D01*
G75*
G02*
X105353000Y-73648000I0J-900000D01*
G01*
X105353000Y-75448000D01*
G75*
G02*
X104453000Y-76348000I-900000J0D01*
G01*
X102653000Y-76348000D01*
G75*
G02*
X101753000Y-75448000I0J900000D01*
G01*
G37*
G36*
G01*
X99003000Y-80273000D02*
X99003000Y-78223000D01*
G75*
G02*
X99778000Y-77448000I775000J0D01*
G01*
X101328000Y-77448000D01*
G75*
G02*
X102103000Y-78223000I0J-775000D01*
G01*
X102103000Y-80273000D01*
G75*
G02*
X101328000Y-81048000I-775000J0D01*
G01*
X99778000Y-81048000D01*
G75*
G02*
X99003000Y-80273000I0J775000D01*
G01*
G37*
D24*
X106553000Y-79248000D03*
%TD*%
D22*
%TO.C,J2*%
X109537500Y-93345000D03*
X109537500Y-104775000D03*
X96837500Y-104775000D03*
X96837500Y-93345000D03*
D23*
X100012500Y-93345000D03*
X100012500Y-104775000D03*
%TD*%
D22*
%TO.C,J1*%
X187388500Y-104775000D03*
X187388500Y-93345000D03*
X200088500Y-93345000D03*
X200088500Y-104775000D03*
D23*
X196913500Y-104775000D03*
X196913500Y-93345000D03*
%TD*%
%TO.C,C33*%
G36*
G01*
X158731000Y-109821238D02*
X158731000Y-110777762D01*
G75*
G02*
X158459262Y-111049500I-271738J0D01*
G01*
X157752738Y-111049500D01*
G75*
G02*
X157481000Y-110777762I0J271738D01*
G01*
X157481000Y-109821238D01*
G75*
G02*
X157752738Y-109549500I271738J0D01*
G01*
X158459262Y-109549500D01*
G75*
G02*
X158731000Y-109821238I0J-271738D01*
G01*
G37*
G36*
G01*
X160781000Y-109821238D02*
X160781000Y-110777762D01*
G75*
G02*
X160509262Y-111049500I-271738J0D01*
G01*
X159802738Y-111049500D01*
G75*
G02*
X159531000Y-110777762I0J271738D01*
G01*
X159531000Y-109821238D01*
G75*
G02*
X159802738Y-109549500I271738J0D01*
G01*
X160509262Y-109549500D01*
G75*
G02*
X160781000Y-109821238I0J-271738D01*
G01*
G37*
%TD*%
%TO.C,C22*%
G36*
G01*
X153513262Y-125330000D02*
X152556738Y-125330000D01*
G75*
G02*
X152285000Y-125058262I0J271738D01*
G01*
X152285000Y-124351738D01*
G75*
G02*
X152556738Y-124080000I271738J0D01*
G01*
X153513262Y-124080000D01*
G75*
G02*
X153785000Y-124351738I0J-271738D01*
G01*
X153785000Y-125058262D01*
G75*
G02*
X153513262Y-125330000I-271738J0D01*
G01*
G37*
G36*
G01*
X153513262Y-127380000D02*
X152556738Y-127380000D01*
G75*
G02*
X152285000Y-127108262I0J271738D01*
G01*
X152285000Y-126401738D01*
G75*
G02*
X152556738Y-126130000I271738J0D01*
G01*
X153513262Y-126130000D01*
G75*
G02*
X153785000Y-126401738I0J-271738D01*
G01*
X153785000Y-127108262D01*
G75*
G02*
X153513262Y-127380000I-271738J0D01*
G01*
G37*
%TD*%
%TO.C,C21*%
G36*
G01*
X146528262Y-105010000D02*
X145571738Y-105010000D01*
G75*
G02*
X145300000Y-104738262I0J271738D01*
G01*
X145300000Y-104031738D01*
G75*
G02*
X145571738Y-103760000I271738J0D01*
G01*
X146528262Y-103760000D01*
G75*
G02*
X146800000Y-104031738I0J-271738D01*
G01*
X146800000Y-104738262D01*
G75*
G02*
X146528262Y-105010000I-271738J0D01*
G01*
G37*
G36*
G01*
X146528262Y-107060000D02*
X145571738Y-107060000D01*
G75*
G02*
X145300000Y-106788262I0J271738D01*
G01*
X145300000Y-106081738D01*
G75*
G02*
X145571738Y-105810000I271738J0D01*
G01*
X146528262Y-105810000D01*
G75*
G02*
X146800000Y-106081738I0J-271738D01*
G01*
X146800000Y-106788262D01*
G75*
G02*
X146528262Y-107060000I-271738J0D01*
G01*
G37*
%TD*%
%TO.C,C20*%
G36*
G01*
X147476738Y-126130000D02*
X148433262Y-126130000D01*
G75*
G02*
X148705000Y-126401738I0J-271738D01*
G01*
X148705000Y-127108262D01*
G75*
G02*
X148433262Y-127380000I-271738J0D01*
G01*
X147476738Y-127380000D01*
G75*
G02*
X147205000Y-127108262I0J271738D01*
G01*
X147205000Y-126401738D01*
G75*
G02*
X147476738Y-126130000I271738J0D01*
G01*
G37*
G36*
G01*
X147476738Y-124080000D02*
X148433262Y-124080000D01*
G75*
G02*
X148705000Y-124351738I0J-271738D01*
G01*
X148705000Y-125058262D01*
G75*
G02*
X148433262Y-125330000I-271738J0D01*
G01*
X147476738Y-125330000D01*
G75*
G02*
X147205000Y-125058262I0J271738D01*
G01*
X147205000Y-124351738D01*
G75*
G02*
X147476738Y-124080000I271738J0D01*
G01*
G37*
%TD*%
%TO.C,C19*%
G36*
G01*
X155096738Y-126130000D02*
X156053262Y-126130000D01*
G75*
G02*
X156325000Y-126401738I0J-271738D01*
G01*
X156325000Y-127108262D01*
G75*
G02*
X156053262Y-127380000I-271738J0D01*
G01*
X155096738Y-127380000D01*
G75*
G02*
X154825000Y-127108262I0J271738D01*
G01*
X154825000Y-126401738D01*
G75*
G02*
X155096738Y-126130000I271738J0D01*
G01*
G37*
G36*
G01*
X155096738Y-124080000D02*
X156053262Y-124080000D01*
G75*
G02*
X156325000Y-124351738I0J-271738D01*
G01*
X156325000Y-125058262D01*
G75*
G02*
X156053262Y-125330000I-271738J0D01*
G01*
X155096738Y-125330000D01*
G75*
G02*
X154825000Y-125058262I0J271738D01*
G01*
X154825000Y-124351738D01*
G75*
G02*
X155096738Y-124080000I271738J0D01*
G01*
G37*
%TD*%
%TO.C,C18*%
G36*
G01*
X139935000Y-111281738D02*
X139935000Y-112238262D01*
G75*
G02*
X139663262Y-112510000I-271738J0D01*
G01*
X138956738Y-112510000D01*
G75*
G02*
X138685000Y-112238262I0J271738D01*
G01*
X138685000Y-111281738D01*
G75*
G02*
X138956738Y-111010000I271738J0D01*
G01*
X139663262Y-111010000D01*
G75*
G02*
X139935000Y-111281738I0J-271738D01*
G01*
G37*
G36*
G01*
X141985000Y-111281738D02*
X141985000Y-112238262D01*
G75*
G02*
X141713262Y-112510000I-271738J0D01*
G01*
X141006738Y-112510000D01*
G75*
G02*
X140735000Y-112238262I0J271738D01*
G01*
X140735000Y-111281738D01*
G75*
G02*
X141006738Y-111010000I271738J0D01*
G01*
X141713262Y-111010000D01*
G75*
G02*
X141985000Y-111281738I0J-271738D01*
G01*
G37*
%TD*%
%TO.C,C13*%
G36*
G01*
X101835000Y-112551738D02*
X101835000Y-113508262D01*
G75*
G02*
X101563262Y-113780000I-271738J0D01*
G01*
X100856738Y-113780000D01*
G75*
G02*
X100585000Y-113508262I0J271738D01*
G01*
X100585000Y-112551738D01*
G75*
G02*
X100856738Y-112280000I271738J0D01*
G01*
X101563262Y-112280000D01*
G75*
G02*
X101835000Y-112551738I0J-271738D01*
G01*
G37*
G36*
G01*
X103885000Y-112551738D02*
X103885000Y-113508262D01*
G75*
G02*
X103613262Y-113780000I-271738J0D01*
G01*
X102906738Y-113780000D01*
G75*
G02*
X102635000Y-113508262I0J271738D01*
G01*
X102635000Y-112551738D01*
G75*
G02*
X102906738Y-112280000I271738J0D01*
G01*
X103613262Y-112280000D01*
G75*
G02*
X103885000Y-112551738I0J-271738D01*
G01*
G37*
%TD*%
%TO.C,C11*%
G36*
G01*
X115335000Y-110968262D02*
X115335000Y-110011738D01*
G75*
G02*
X115606738Y-109740000I271738J0D01*
G01*
X116313262Y-109740000D01*
G75*
G02*
X116585000Y-110011738I0J-271738D01*
G01*
X116585000Y-110968262D01*
G75*
G02*
X116313262Y-111240000I-271738J0D01*
G01*
X115606738Y-111240000D01*
G75*
G02*
X115335000Y-110968262I0J271738D01*
G01*
G37*
G36*
G01*
X113285000Y-110968262D02*
X113285000Y-110011738D01*
G75*
G02*
X113556738Y-109740000I271738J0D01*
G01*
X114263262Y-109740000D01*
G75*
G02*
X114535000Y-110011738I0J-271738D01*
G01*
X114535000Y-110968262D01*
G75*
G02*
X114263262Y-111240000I-271738J0D01*
G01*
X113556738Y-111240000D01*
G75*
G02*
X113285000Y-110968262I0J271738D01*
G01*
G37*
%TD*%
%TO.C,C10*%
G36*
G01*
X115335000Y-114143262D02*
X115335000Y-113186738D01*
G75*
G02*
X115606738Y-112915000I271738J0D01*
G01*
X116313262Y-112915000D01*
G75*
G02*
X116585000Y-113186738I0J-271738D01*
G01*
X116585000Y-114143262D01*
G75*
G02*
X116313262Y-114415000I-271738J0D01*
G01*
X115606738Y-114415000D01*
G75*
G02*
X115335000Y-114143262I0J271738D01*
G01*
G37*
G36*
G01*
X113285000Y-114143262D02*
X113285000Y-113186738D01*
G75*
G02*
X113556738Y-112915000I271738J0D01*
G01*
X114263262Y-112915000D01*
G75*
G02*
X114535000Y-113186738I0J-271738D01*
G01*
X114535000Y-114143262D01*
G75*
G02*
X114263262Y-114415000I-271738J0D01*
G01*
X113556738Y-114415000D01*
G75*
G02*
X113285000Y-114143262I0J271738D01*
G01*
G37*
%TD*%
%TO.C,C3*%
G36*
G01*
X184131000Y-126013738D02*
X184131000Y-126970262D01*
G75*
G02*
X183859262Y-127242000I-271738J0D01*
G01*
X183152738Y-127242000D01*
G75*
G02*
X182881000Y-126970262I0J271738D01*
G01*
X182881000Y-126013738D01*
G75*
G02*
X183152738Y-125742000I271738J0D01*
G01*
X183859262Y-125742000D01*
G75*
G02*
X184131000Y-126013738I0J-271738D01*
G01*
G37*
G36*
G01*
X186181000Y-126013738D02*
X186181000Y-126970262D01*
G75*
G02*
X185909262Y-127242000I-271738J0D01*
G01*
X185202738Y-127242000D01*
G75*
G02*
X184931000Y-126970262I0J271738D01*
G01*
X184931000Y-126013738D01*
G75*
G02*
X185202738Y-125742000I271738J0D01*
G01*
X185909262Y-125742000D01*
G75*
G02*
X186181000Y-126013738I0J-271738D01*
G01*
G37*
%TD*%
%TO.C,C2*%
G36*
G01*
X196869000Y-125954262D02*
X196869000Y-124997738D01*
G75*
G02*
X197140738Y-124726000I271738J0D01*
G01*
X197847262Y-124726000D01*
G75*
G02*
X198119000Y-124997738I0J-271738D01*
G01*
X198119000Y-125954262D01*
G75*
G02*
X197847262Y-126226000I-271738J0D01*
G01*
X197140738Y-126226000D01*
G75*
G02*
X196869000Y-125954262I0J271738D01*
G01*
G37*
G36*
G01*
X194819000Y-125954262D02*
X194819000Y-124997738D01*
G75*
G02*
X195090738Y-124726000I271738J0D01*
G01*
X195797262Y-124726000D01*
G75*
G02*
X196069000Y-124997738I0J-271738D01*
G01*
X196069000Y-125954262D01*
G75*
G02*
X195797262Y-126226000I-271738J0D01*
G01*
X195090738Y-126226000D01*
G75*
G02*
X194819000Y-125954262I0J271738D01*
G01*
G37*
%TD*%
%TO.C,C1*%
G36*
G01*
X196869000Y-123541262D02*
X196869000Y-122584738D01*
G75*
G02*
X197140738Y-122313000I271738J0D01*
G01*
X197847262Y-122313000D01*
G75*
G02*
X198119000Y-122584738I0J-271738D01*
G01*
X198119000Y-123541262D01*
G75*
G02*
X197847262Y-123813000I-271738J0D01*
G01*
X197140738Y-123813000D01*
G75*
G02*
X196869000Y-123541262I0J271738D01*
G01*
G37*
G36*
G01*
X194819000Y-123541262D02*
X194819000Y-122584738D01*
G75*
G02*
X195090738Y-122313000I271738J0D01*
G01*
X195797262Y-122313000D01*
G75*
G02*
X196069000Y-122584738I0J-271738D01*
G01*
X196069000Y-123541262D01*
G75*
G02*
X195797262Y-123813000I-271738J0D01*
G01*
X195090738Y-123813000D01*
G75*
G02*
X194819000Y-123541262I0J271738D01*
G01*
G37*
%TD*%
D25*
%TO.C,REF\u002A\u002A*%
X192405000Y-60896500D03*
D26*
X195405000Y-60896500D03*
X194526320Y-63017820D03*
X192405000Y-63896500D03*
X190283680Y-63017820D03*
X189405000Y-60896500D03*
X190283680Y-58775180D03*
X192405000Y-57896500D03*
X194526320Y-58775180D03*
%TD*%
D25*
%TO.C,REF\u002A\u002A*%
X104775000Y-60896500D03*
D26*
X107775000Y-60896500D03*
X106896320Y-63017820D03*
X104775000Y-63896500D03*
X102653680Y-63017820D03*
X101775000Y-60896500D03*
X102653680Y-58775180D03*
X104775000Y-57896500D03*
X106896320Y-58775180D03*
%TD*%
D25*
%TO.C,REF\u002A\u002A*%
X104775000Y-134620000D03*
D26*
X107775000Y-134620000D03*
X106896320Y-136741320D03*
X104775000Y-137620000D03*
X102653680Y-136741320D03*
X101775000Y-134620000D03*
X102653680Y-132498680D03*
X104775000Y-131620000D03*
X106896320Y-132498680D03*
%TD*%
%TO.C,REF\u002A\u002A*%
X194526320Y-132498680D03*
X192405000Y-131620000D03*
X190283680Y-132498680D03*
X189405000Y-134620000D03*
X190283680Y-136741320D03*
X192405000Y-137620000D03*
X194526320Y-136741320D03*
X195405000Y-134620000D03*
D25*
X192405000Y-134620000D03*
%TD*%
M02*
