%TF.GenerationSoftware,KiCad,Pcbnew,5.1.6-c6e7f7d~87~ubuntu18.04.1*%
%TF.CreationDate,2020-11-06T01:01:49+00:00*%
%TF.ProjectId,CirrusDspPedal,43697272-7573-4447-9370-506564616c2e,rev?*%
%TF.SameCoordinates,Original*%
%TF.FileFunction,Copper,L2,Bot*%
%TF.FilePolarity,Positive*%
%FSLAX46Y46*%
G04 Gerber Fmt 4.6, Leading zero omitted, Abs format (unit mm)*
G04 Created by KiCad (PCBNEW 5.1.6-c6e7f7d~87~ubuntu18.04.1) date 2020-11-06 01:01:49*
%MOMM*%
%LPD*%
G01*
G04 APERTURE LIST*
%TA.AperFunction,ComponentPad*%
%ADD10C,1.800000*%
%TD*%
%TA.AperFunction,ComponentPad*%
%ADD11R,1.800000X1.800000*%
%TD*%
%TA.AperFunction,ComponentPad*%
%ADD12O,3.000000X4.000000*%
%TD*%
%TA.AperFunction,ComponentPad*%
%ADD13O,1.700000X1.700000*%
%TD*%
%TA.AperFunction,ComponentPad*%
%ADD14R,1.700000X1.700000*%
%TD*%
%TA.AperFunction,WasherPad*%
%ADD15C,4.000000*%
%TD*%
%TA.AperFunction,SMDPad,CuDef*%
%ADD16R,1.900000X1.350000*%
%TD*%
%TA.AperFunction,SMDPad,CuDef*%
%ADD17R,1.200000X1.000000*%
%TD*%
%TA.AperFunction,SMDPad,CuDef*%
%ADD18R,1.550000X1.350000*%
%TD*%
%TA.AperFunction,SMDPad,CuDef*%
%ADD19R,1.170000X1.800000*%
%TD*%
%TA.AperFunction,SMDPad,CuDef*%
%ADD20R,0.850000X1.100000*%
%TD*%
%TA.AperFunction,SMDPad,CuDef*%
%ADD21R,0.750000X1.100000*%
%TD*%
%TA.AperFunction,ComponentPad*%
%ADD22C,3.000000*%
%TD*%
%TA.AperFunction,ComponentPad*%
%ADD23R,3.500000X3.500000*%
%TD*%
%TA.AperFunction,ComponentPad*%
%ADD24C,8.000000*%
%TD*%
%TA.AperFunction,ComponentPad*%
%ADD25C,0.900000*%
%TD*%
%TA.AperFunction,ViaPad*%
%ADD26C,0.800000*%
%TD*%
%TA.AperFunction,ViaPad*%
%ADD27C,0.450000*%
%TD*%
%TA.AperFunction,Conductor*%
%ADD28C,0.250000*%
%TD*%
%TA.AperFunction,Conductor*%
%ADD29C,1.000000*%
%TD*%
%TA.AperFunction,Conductor*%
%ADD30C,0.500000*%
%TD*%
%TA.AperFunction,Conductor*%
%ADD31C,0.254000*%
%TD*%
G04 APERTURE END LIST*
%TO.P,K1,1*%
%TO.N,/SignalProcessing/RelayCoil_OUT*%
%TA.AperFunction,SMDPad,CuDef*%
G36*
G01*
X152690000Y-129858000D02*
X152690000Y-130258000D01*
G75*
G02*
X152490000Y-130458000I-200000J0D01*
G01*
X150830000Y-130458000D01*
G75*
G02*
X150630000Y-130258000I0J200000D01*
G01*
X150630000Y-129858000D01*
G75*
G02*
X150830000Y-129658000I200000J0D01*
G01*
X152490000Y-129658000D01*
G75*
G02*
X152690000Y-129858000I0J-200000D01*
G01*
G37*
%TD.AperFunction*%
%TO.P,K1,2*%
%TO.N,Net-(K1-Pad2)*%
%TA.AperFunction,SMDPad,CuDef*%
G36*
G01*
X152690000Y-133058000D02*
X152690000Y-133458000D01*
G75*
G02*
X152490000Y-133658000I-200000J0D01*
G01*
X150830000Y-133658000D01*
G75*
G02*
X150630000Y-133458000I0J200000D01*
G01*
X150630000Y-133058000D01*
G75*
G02*
X150830000Y-132858000I200000J0D01*
G01*
X152490000Y-132858000D01*
G75*
G02*
X152690000Y-133058000I0J-200000D01*
G01*
G37*
%TD.AperFunction*%
%TO.P,K1,3*%
%TO.N,/InputSignal/ADIN_SDOUT*%
%TA.AperFunction,SMDPad,CuDef*%
G36*
G01*
X152690000Y-135258000D02*
X152690000Y-135658000D01*
G75*
G02*
X152490000Y-135858000I-200000J0D01*
G01*
X150830000Y-135858000D01*
G75*
G02*
X150630000Y-135658000I0J200000D01*
G01*
X150630000Y-135258000D01*
G75*
G02*
X150830000Y-135058000I200000J0D01*
G01*
X152490000Y-135058000D01*
G75*
G02*
X152690000Y-135258000I0J-200000D01*
G01*
G37*
%TD.AperFunction*%
%TO.P,K1,4*%
%TO.N,/SignalRelay/FX_IN*%
%TA.AperFunction,SMDPad,CuDef*%
G36*
G01*
X152690000Y-137458000D02*
X152690000Y-137858000D01*
G75*
G02*
X152490000Y-138058000I-200000J0D01*
G01*
X150830000Y-138058000D01*
G75*
G02*
X150630000Y-137858000I0J200000D01*
G01*
X150630000Y-137458000D01*
G75*
G02*
X150830000Y-137258000I200000J0D01*
G01*
X152490000Y-137258000D01*
G75*
G02*
X152690000Y-137458000I0J-200000D01*
G01*
G37*
%TD.AperFunction*%
%TO.P,K1,5*%
%TO.N,/SignalRelay/FX_OUT*%
%TA.AperFunction,SMDPad,CuDef*%
G36*
G01*
X146550000Y-137458000D02*
X146550000Y-137858000D01*
G75*
G02*
X146350000Y-138058000I-200000J0D01*
G01*
X144690000Y-138058000D01*
G75*
G02*
X144490000Y-137858000I0J200000D01*
G01*
X144490000Y-137458000D01*
G75*
G02*
X144690000Y-137258000I200000J0D01*
G01*
X146350000Y-137258000D01*
G75*
G02*
X146550000Y-137458000I0J-200000D01*
G01*
G37*
%TD.AperFunction*%
%TO.P,K1,6*%
%TO.N,/OutputSignal/ADOUT_SDIN*%
%TA.AperFunction,SMDPad,CuDef*%
G36*
G01*
X146550000Y-135258000D02*
X146550000Y-135658000D01*
G75*
G02*
X146350000Y-135858000I-200000J0D01*
G01*
X144690000Y-135858000D01*
G75*
G02*
X144490000Y-135658000I0J200000D01*
G01*
X144490000Y-135258000D01*
G75*
G02*
X144690000Y-135058000I200000J0D01*
G01*
X146350000Y-135058000D01*
G75*
G02*
X146550000Y-135258000I0J-200000D01*
G01*
G37*
%TD.AperFunction*%
%TO.P,K1,7*%
%TO.N,Net-(K1-Pad2)*%
%TA.AperFunction,SMDPad,CuDef*%
G36*
G01*
X146550000Y-133058000D02*
X146550000Y-133458000D01*
G75*
G02*
X146350000Y-133658000I-200000J0D01*
G01*
X144690000Y-133658000D01*
G75*
G02*
X144490000Y-133458000I0J200000D01*
G01*
X144490000Y-133058000D01*
G75*
G02*
X144690000Y-132858000I200000J0D01*
G01*
X146350000Y-132858000D01*
G75*
G02*
X146550000Y-133058000I0J-200000D01*
G01*
G37*
%TD.AperFunction*%
%TO.P,K1,8*%
%TO.N,GND*%
%TA.AperFunction,SMDPad,CuDef*%
G36*
G01*
X146550000Y-129858000D02*
X146550000Y-130258000D01*
G75*
G02*
X146350000Y-130458000I-200000J0D01*
G01*
X144690000Y-130458000D01*
G75*
G02*
X144490000Y-130258000I0J200000D01*
G01*
X144490000Y-129858000D01*
G75*
G02*
X144690000Y-129658000I200000J0D01*
G01*
X146350000Y-129658000D01*
G75*
G02*
X146550000Y-129858000I0J-200000D01*
G01*
G37*
%TD.AperFunction*%
%TD*%
D10*
%TO.P,LED1,4*%
%TO.N,Net-(LED1-Pad4)*%
X131064000Y-87630000D03*
%TO.P,LED1,3*%
%TO.N,Net-(LED1-Pad3)*%
X131064000Y-89789000D03*
%TO.P,LED1,2*%
%TO.N,GND*%
X131064000Y-91948000D03*
D11*
%TO.P,LED1,1*%
%TO.N,Net-(LED1-Pad1)*%
X131064000Y-94107000D03*
%TD*%
D10*
%TO.P,LED2,4*%
%TO.N,Net-(LED2-Pad4)*%
X166116000Y-94107000D03*
%TO.P,LED2,3*%
%TO.N,Net-(LED2-Pad3)*%
X166116000Y-91948000D03*
%TO.P,LED2,2*%
%TO.N,GND*%
X166116000Y-89789000D03*
D11*
%TO.P,LED2,1*%
%TO.N,Net-(LED2-Pad1)*%
X166116000Y-87630000D03*
%TD*%
D12*
%TO.P,SW4,3*%
%TO.N,N/C*%
X137585000Y-62484000D03*
%TO.P,SW4,1*%
%TO.N,GND*%
X128185000Y-62484000D03*
%TO.P,SW4,2*%
%TO.N,/ExtInput/UserSwitchB_IN*%
X132885000Y-62484000D03*
%TD*%
%TO.P,SW3,3*%
%TO.N,N/C*%
X169465000Y-62484000D03*
%TO.P,SW3,1*%
%TO.N,GND*%
X160065000Y-62484000D03*
%TO.P,SW3,2*%
%TO.N,/ExtInput/UserSwitchA_IN*%
X164765000Y-62484000D03*
%TD*%
D13*
%TO.P,SW2,2*%
%TO.N,/ExtInput/FootSwitchB_IN*%
X168148000Y-102108000D03*
D14*
%TO.P,SW2,1*%
%TO.N,GND*%
X165608000Y-102108000D03*
%TD*%
D13*
%TO.P,SW1,2*%
%TO.N,/ExtInput/FootSwitchA_IN*%
X131191000Y-102108000D03*
D14*
%TO.P,SW1,1*%
%TO.N,GND*%
X128651000Y-102108000D03*
%TD*%
D15*
%TO.P,RV2,*%
%TO.N,*%
X130676000Y-70902000D03*
X130676000Y-80402000D03*
D10*
%TO.P,RV2,1*%
%TO.N,+3V3*%
X138176000Y-73152000D03*
%TO.P,RV2,2*%
%TO.N,Net-(R14-Pad2)*%
X138176000Y-75652000D03*
%TO.P,RV2,3*%
%TO.N,Net-(R12-Pad1)*%
X138176000Y-78152000D03*
%TD*%
D15*
%TO.P,RV1,*%
%TO.N,*%
X166504000Y-80482000D03*
X166504000Y-70982000D03*
D10*
%TO.P,RV1,1*%
%TO.N,+3V3*%
X159004000Y-78232000D03*
%TO.P,RV1,2*%
%TO.N,Net-(R13-Pad2)*%
X159004000Y-75732000D03*
%TO.P,RV1,3*%
%TO.N,Net-(R11-Pad1)*%
X159004000Y-73232000D03*
%TD*%
%TO.P,L1,2*%
%TO.N,/SignalProcessing/VDDA*%
%TA.AperFunction,SMDPad,CuDef*%
G36*
G01*
X141420001Y-118422000D02*
X140519999Y-118422000D01*
G75*
G02*
X140270000Y-118172001I0J249999D01*
G01*
X140270000Y-117521999D01*
G75*
G02*
X140519999Y-117272000I249999J0D01*
G01*
X141420001Y-117272000D01*
G75*
G02*
X141670000Y-117521999I0J-249999D01*
G01*
X141670000Y-118172001D01*
G75*
G02*
X141420001Y-118422000I-249999J0D01*
G01*
G37*
%TD.AperFunction*%
%TO.P,L1,1*%
%TO.N,+3V3*%
%TA.AperFunction,SMDPad,CuDef*%
G36*
G01*
X141420001Y-120472000D02*
X140519999Y-120472000D01*
G75*
G02*
X140270000Y-120222001I0J249999D01*
G01*
X140270000Y-119571999D01*
G75*
G02*
X140519999Y-119322000I249999J0D01*
G01*
X141420001Y-119322000D01*
G75*
G02*
X141670000Y-119571999I0J-249999D01*
G01*
X141670000Y-120222001D01*
G75*
G02*
X141420001Y-120472000I-249999J0D01*
G01*
G37*
%TD.AperFunction*%
%TD*%
D16*
%TO.P,J6,11*%
%TO.N,GNDPWR*%
X182165000Y-55839000D03*
X176195000Y-55839000D03*
D17*
%TO.P,J6,9*%
%TO.N,GND*%
X172695000Y-60514000D03*
%TO.P,J6,10*%
%TO.N,Net-(J6-Pad10)*%
X172695000Y-56814000D03*
D18*
%TO.P,J6,11*%
%TO.N,GNDPWR*%
X172870000Y-66539000D03*
D19*
X184190000Y-66314000D03*
D20*
%TO.P,J6,7*%
%TO.N,/MicroSD/uSD_D0*%
X181930000Y-66664000D03*
%TO.P,J6,6*%
%TO.N,GND*%
X180830000Y-66664000D03*
%TO.P,J6,5*%
%TO.N,/MicroSD/uSD_CLK*%
X179730000Y-66664000D03*
%TO.P,J6,4*%
%TO.N,+3V3*%
X178630000Y-66664000D03*
%TO.P,J6,3*%
%TO.N,/MicroSD/uSD_CMD*%
X177530000Y-66664000D03*
%TO.P,J6,2*%
%TO.N,/MicroSD/uSD_D3*%
X176430000Y-66664000D03*
D21*
%TO.P,J6,8*%
%TO.N,/MicroSD/uSD_D1*%
X182980000Y-66664000D03*
D20*
%TO.P,J6,1*%
%TO.N,/MicroSD/uSD_D2*%
X175330000Y-66664000D03*
%TD*%
D22*
%TO.P,J5,1*%
%TO.N,Net-(J5-Pad1)*%
X187388500Y-84455000D03*
%TO.P,J5,2*%
%TO.N,GND*%
X187388500Y-73025000D03*
%TO.P,J5,3*%
X200088500Y-73025000D03*
%TO.P,J5,4*%
X200088500Y-84455000D03*
%TD*%
%TO.P,J4,3*%
%TO.N,GND*%
%TA.AperFunction,ComponentPad*%
G36*
G01*
X101803000Y-75423000D02*
X101803000Y-73673000D01*
G75*
G02*
X102678000Y-72798000I875000J0D01*
G01*
X104428000Y-72798000D01*
G75*
G02*
X105303000Y-73673000I0J-875000D01*
G01*
X105303000Y-75423000D01*
G75*
G02*
X104428000Y-76298000I-875000J0D01*
G01*
X102678000Y-76298000D01*
G75*
G02*
X101803000Y-75423000I0J875000D01*
G01*
G37*
%TD.AperFunction*%
%TO.P,J4,2*%
%TO.N,Net-(D1-Pad2)*%
%TA.AperFunction,ComponentPad*%
G36*
G01*
X99053000Y-80248000D02*
X99053000Y-78248000D01*
G75*
G02*
X99803000Y-77498000I750000J0D01*
G01*
X101303000Y-77498000D01*
G75*
G02*
X102053000Y-78248000I0J-750000D01*
G01*
X102053000Y-80248000D01*
G75*
G02*
X101303000Y-80998000I-750000J0D01*
G01*
X99803000Y-80998000D01*
G75*
G02*
X99053000Y-80248000I0J750000D01*
G01*
G37*
%TD.AperFunction*%
D23*
%TO.P,J4,1*%
%TO.N,GND*%
X106553000Y-79248000D03*
%TD*%
D22*
%TO.P,J2,1*%
%TO.N,Net-(C14-Pad2)*%
X109537500Y-93345000D03*
%TO.P,J2,2*%
%TO.N,GND*%
X109537500Y-104775000D03*
%TO.P,J2,3*%
X96837500Y-104775000D03*
%TO.P,J2,4*%
X96837500Y-93345000D03*
%TD*%
%TO.P,J1,1*%
%TO.N,Net-(J1-Pad1)*%
X187388500Y-104775000D03*
%TO.P,J1,2*%
%TO.N,GND*%
X187388500Y-93345000D03*
%TO.P,J1,3*%
X200088500Y-93345000D03*
%TO.P,J1,4*%
X200088500Y-104775000D03*
%TD*%
%TO.P,C20,2*%
%TO.N,GND*%
%TA.AperFunction,SMDPad,CuDef*%
G36*
G01*
X147250999Y-125672000D02*
X148151001Y-125672000D01*
G75*
G02*
X148401000Y-125921999I0J-249999D01*
G01*
X148401000Y-126572001D01*
G75*
G02*
X148151001Y-126822000I-249999J0D01*
G01*
X147250999Y-126822000D01*
G75*
G02*
X147001000Y-126572001I0J249999D01*
G01*
X147001000Y-125921999D01*
G75*
G02*
X147250999Y-125672000I249999J0D01*
G01*
G37*
%TD.AperFunction*%
%TO.P,C20,1*%
%TO.N,+3V3*%
%TA.AperFunction,SMDPad,CuDef*%
G36*
G01*
X147250999Y-123622000D02*
X148151001Y-123622000D01*
G75*
G02*
X148401000Y-123871999I0J-249999D01*
G01*
X148401000Y-124522001D01*
G75*
G02*
X148151001Y-124772000I-249999J0D01*
G01*
X147250999Y-124772000D01*
G75*
G02*
X147001000Y-124522001I0J249999D01*
G01*
X147001000Y-123871999D01*
G75*
G02*
X147250999Y-123622000I249999J0D01*
G01*
G37*
%TD.AperFunction*%
%TD*%
%TO.P,C13,2*%
%TO.N,GND*%
%TA.AperFunction,SMDPad,CuDef*%
G36*
G01*
X104325000Y-112579999D02*
X104325000Y-113480001D01*
G75*
G02*
X104075001Y-113730000I-249999J0D01*
G01*
X103424999Y-113730000D01*
G75*
G02*
X103175000Y-113480001I0J249999D01*
G01*
X103175000Y-112579999D01*
G75*
G02*
X103424999Y-112330000I249999J0D01*
G01*
X104075001Y-112330000D01*
G75*
G02*
X104325000Y-112579999I0J-249999D01*
G01*
G37*
%TD.AperFunction*%
%TO.P,C13,1*%
%TO.N,/OutputSignal/FILT*%
%TA.AperFunction,SMDPad,CuDef*%
G36*
G01*
X106375000Y-112579999D02*
X106375000Y-113480001D01*
G75*
G02*
X106125001Y-113730000I-249999J0D01*
G01*
X105474999Y-113730000D01*
G75*
G02*
X105225000Y-113480001I0J249999D01*
G01*
X105225000Y-112579999D01*
G75*
G02*
X105474999Y-112330000I249999J0D01*
G01*
X106125001Y-112330000D01*
G75*
G02*
X106375000Y-112579999I0J-249999D01*
G01*
G37*
%TD.AperFunction*%
%TD*%
%TO.P,C11,2*%
%TO.N,GND*%
%TA.AperFunction,SMDPad,CuDef*%
G36*
G01*
X117925000Y-110940001D02*
X117925000Y-110039999D01*
G75*
G02*
X118174999Y-109790000I249999J0D01*
G01*
X118825001Y-109790000D01*
G75*
G02*
X119075000Y-110039999I0J-249999D01*
G01*
X119075000Y-110940001D01*
G75*
G02*
X118825001Y-111190000I-249999J0D01*
G01*
X118174999Y-111190000D01*
G75*
G02*
X117925000Y-110940001I0J249999D01*
G01*
G37*
%TD.AperFunction*%
%TO.P,C11,1*%
%TO.N,/OutputSignal/VQ*%
%TA.AperFunction,SMDPad,CuDef*%
G36*
G01*
X115875000Y-110940001D02*
X115875000Y-110039999D01*
G75*
G02*
X116124999Y-109790000I249999J0D01*
G01*
X116775001Y-109790000D01*
G75*
G02*
X117025000Y-110039999I0J-249999D01*
G01*
X117025000Y-110940001D01*
G75*
G02*
X116775001Y-111190000I-249999J0D01*
G01*
X116124999Y-111190000D01*
G75*
G02*
X115875000Y-110940001I0J249999D01*
G01*
G37*
%TD.AperFunction*%
%TD*%
%TO.P,C10,2*%
%TO.N,GND*%
%TA.AperFunction,SMDPad,CuDef*%
G36*
G01*
X117925000Y-114115001D02*
X117925000Y-113214999D01*
G75*
G02*
X118174999Y-112965000I249999J0D01*
G01*
X118825001Y-112965000D01*
G75*
G02*
X119075000Y-113214999I0J-249999D01*
G01*
X119075000Y-114115001D01*
G75*
G02*
X118825001Y-114365000I-249999J0D01*
G01*
X118174999Y-114365000D01*
G75*
G02*
X117925000Y-114115001I0J249999D01*
G01*
G37*
%TD.AperFunction*%
%TO.P,C10,1*%
%TO.N,/OutputSignal/VQ*%
%TA.AperFunction,SMDPad,CuDef*%
G36*
G01*
X115875000Y-114115001D02*
X115875000Y-113214999D01*
G75*
G02*
X116124999Y-112965000I249999J0D01*
G01*
X116775001Y-112965000D01*
G75*
G02*
X117025000Y-113214999I0J-249999D01*
G01*
X117025000Y-114115001D01*
G75*
G02*
X116775001Y-114365000I-249999J0D01*
G01*
X116124999Y-114365000D01*
G75*
G02*
X115875000Y-114115001I0J249999D01*
G01*
G37*
%TD.AperFunction*%
%TD*%
%TO.P,C3,2*%
%TO.N,GND*%
%TA.AperFunction,SMDPad,CuDef*%
G36*
G01*
X177731000Y-126041999D02*
X177731000Y-126942001D01*
G75*
G02*
X177481001Y-127192000I-249999J0D01*
G01*
X176830999Y-127192000D01*
G75*
G02*
X176581000Y-126942001I0J249999D01*
G01*
X176581000Y-126041999D01*
G75*
G02*
X176830999Y-125792000I249999J0D01*
G01*
X177481001Y-125792000D01*
G75*
G02*
X177731000Y-126041999I0J-249999D01*
G01*
G37*
%TD.AperFunction*%
%TO.P,C3,1*%
%TO.N,/InputSignal/FILT*%
%TA.AperFunction,SMDPad,CuDef*%
G36*
G01*
X179781000Y-126041999D02*
X179781000Y-126942001D01*
G75*
G02*
X179531001Y-127192000I-249999J0D01*
G01*
X178880999Y-127192000D01*
G75*
G02*
X178631000Y-126942001I0J249999D01*
G01*
X178631000Y-126041999D01*
G75*
G02*
X178880999Y-125792000I249999J0D01*
G01*
X179531001Y-125792000D01*
G75*
G02*
X179781000Y-126041999I0J-249999D01*
G01*
G37*
%TD.AperFunction*%
%TD*%
%TO.P,C2,2*%
%TO.N,GND*%
%TA.AperFunction,SMDPad,CuDef*%
G36*
G01*
X190569000Y-125926001D02*
X190569000Y-125025999D01*
G75*
G02*
X190818999Y-124776000I249999J0D01*
G01*
X191469001Y-124776000D01*
G75*
G02*
X191719000Y-125025999I0J-249999D01*
G01*
X191719000Y-125926001D01*
G75*
G02*
X191469001Y-126176000I-249999J0D01*
G01*
X190818999Y-126176000D01*
G75*
G02*
X190569000Y-125926001I0J249999D01*
G01*
G37*
%TD.AperFunction*%
%TO.P,C2,1*%
%TO.N,/InputSignal/VQ*%
%TA.AperFunction,SMDPad,CuDef*%
G36*
G01*
X188519000Y-125926001D02*
X188519000Y-125025999D01*
G75*
G02*
X188768999Y-124776000I249999J0D01*
G01*
X189419001Y-124776000D01*
G75*
G02*
X189669000Y-125025999I0J-249999D01*
G01*
X189669000Y-125926001D01*
G75*
G02*
X189419001Y-126176000I-249999J0D01*
G01*
X188768999Y-126176000D01*
G75*
G02*
X188519000Y-125926001I0J249999D01*
G01*
G37*
%TD.AperFunction*%
%TD*%
%TO.P,C1,2*%
%TO.N,GND*%
%TA.AperFunction,SMDPad,CuDef*%
G36*
G01*
X190569000Y-123513001D02*
X190569000Y-122612999D01*
G75*
G02*
X190818999Y-122363000I249999J0D01*
G01*
X191469001Y-122363000D01*
G75*
G02*
X191719000Y-122612999I0J-249999D01*
G01*
X191719000Y-123513001D01*
G75*
G02*
X191469001Y-123763000I-249999J0D01*
G01*
X190818999Y-123763000D01*
G75*
G02*
X190569000Y-123513001I0J249999D01*
G01*
G37*
%TD.AperFunction*%
%TO.P,C1,1*%
%TO.N,/InputSignal/VQ*%
%TA.AperFunction,SMDPad,CuDef*%
G36*
G01*
X188519000Y-123513001D02*
X188519000Y-122612999D01*
G75*
G02*
X188768999Y-122363000I249999J0D01*
G01*
X189419001Y-122363000D01*
G75*
G02*
X189669000Y-122612999I0J-249999D01*
G01*
X189669000Y-123513001D01*
G75*
G02*
X189419001Y-123763000I-249999J0D01*
G01*
X188768999Y-123763000D01*
G75*
G02*
X188519000Y-123513001I0J249999D01*
G01*
G37*
%TD.AperFunction*%
%TD*%
D24*
%TO.P,REF\u002A\u002A,1*%
%TO.N,N/C*%
X192405000Y-60896500D03*
D25*
X195405000Y-60896500D03*
X194526320Y-63017820D03*
X192405000Y-63896500D03*
X190283680Y-63017820D03*
X189405000Y-60896500D03*
X190283680Y-58775180D03*
X192405000Y-57896500D03*
X194526320Y-58775180D03*
%TD*%
D24*
%TO.P,REF\u002A\u002A,1*%
%TO.N,N/C*%
X104775000Y-60896500D03*
D25*
X107775000Y-60896500D03*
X106896320Y-63017820D03*
X104775000Y-63896500D03*
X102653680Y-63017820D03*
X101775000Y-60896500D03*
X102653680Y-58775180D03*
X104775000Y-57896500D03*
X106896320Y-58775180D03*
%TD*%
D24*
%TO.P,REF\u002A\u002A,1*%
%TO.N,N/C*%
X104775000Y-134620000D03*
D25*
X107775000Y-134620000D03*
X106896320Y-136741320D03*
X104775000Y-137620000D03*
X102653680Y-136741320D03*
X101775000Y-134620000D03*
X102653680Y-132498680D03*
X104775000Y-131620000D03*
X106896320Y-132498680D03*
%TD*%
%TO.P,REF\u002A\u002A,1*%
%TO.N,N/C*%
X194526320Y-132498680D03*
X192405000Y-131620000D03*
X190283680Y-132498680D03*
X189405000Y-134620000D03*
X190283680Y-136741320D03*
X192405000Y-137620000D03*
X194526320Y-136741320D03*
X195405000Y-134620000D03*
D24*
X192405000Y-134620000D03*
%TD*%
D26*
%TO.N,GND*%
X117475000Y-64135000D03*
X117475000Y-75565000D03*
X117475000Y-66040000D03*
X117475000Y-77470000D03*
X117475000Y-67945000D03*
X117475000Y-79375000D03*
X119380000Y-64135000D03*
X119380000Y-75565000D03*
X119380000Y-66040000D03*
X119380000Y-77470000D03*
X119380000Y-67945000D03*
X119380000Y-79375000D03*
X121285000Y-64135000D03*
X121285000Y-69850000D03*
X121285000Y-75565000D03*
X121285000Y-73660000D03*
X121285000Y-66040000D03*
X121285000Y-77470000D03*
X121285000Y-67945000D03*
X121285000Y-71755000D03*
X121285000Y-79375000D03*
D27*
X187571000Y-124468000D03*
X188849000Y-116967000D03*
X199771000Y-126619000D03*
X104140000Y-111760000D03*
X99060000Y-111760000D03*
X107315000Y-114315013D03*
X148745000Y-108585000D03*
X147245000Y-108585000D03*
X116586000Y-58039000D03*
X116459000Y-86741000D03*
X183515000Y-114427000D03*
X153153000Y-71637000D03*
X155203000Y-79747000D03*
X143773000Y-79747000D03*
X141723000Y-71637000D03*
X150495000Y-94996000D03*
X146022002Y-117320000D03*
X106181000Y-125485000D03*
X193225000Y-123005000D03*
D26*
X115570000Y-79375000D03*
X115570000Y-77470000D03*
X115570000Y-75565000D03*
X115570000Y-73660000D03*
X115570000Y-71755000D03*
X115570000Y-69850000D03*
X115570000Y-67945000D03*
X115570000Y-66040000D03*
X115570000Y-64135000D03*
D27*
X147193000Y-131699000D03*
X148717000Y-103378000D03*
X146177000Y-103251000D03*
X151393000Y-126247000D03*
X156337000Y-105537000D03*
X180848000Y-101981000D03*
X146812000Y-122682000D03*
%TO.N,/InputSignal/VQ*%
X187571000Y-125468000D03*
%TO.N,/InputSignal/FILT*%
X180483000Y-126492000D03*
%TO.N,+3V3*%
X178630000Y-68521000D03*
X129540000Y-75438000D03*
X185928000Y-69215000D03*
X190754000Y-71882000D03*
X164465000Y-99187000D03*
X178435000Y-104140000D03*
X178435000Y-106172000D03*
X145990000Y-111820000D03*
X146050000Y-110617000D03*
X156845000Y-100203000D03*
X156845000Y-99187000D03*
X147066000Y-119888000D03*
X147745000Y-123146000D03*
%TO.N,/OutputSignal/VQ*%
X114935000Y-113665000D03*
%TO.N,/OutputSignal/FILT*%
X107315000Y-113030012D03*
%TO.N,/ExtInput/FootExp_IN*%
X146006000Y-118320000D03*
X159575500Y-117792500D03*
%TO.N,/SignalProcessing/RelayCoil_OUT*%
X144716500Y-121221500D03*
X148590000Y-131699000D03*
%TO.N,GNDPWR*%
X184658000Y-56134000D03*
%TO.N,Net-(J6-Pad10)*%
X170770000Y-56814000D03*
%TO.N,/MicroSD/uSD_D0*%
X181610000Y-64516000D03*
X181930000Y-66664000D03*
X181610000Y-78359000D03*
%TO.N,/MicroSD/uSD_CLK*%
X152245000Y-108557000D03*
%TO.N,/MicroSD/uSD_CMD*%
X179578000Y-64516000D03*
X151745000Y-108097000D03*
%TO.N,/MicroSD/uSD_D3*%
X176784002Y-64515998D03*
X151765000Y-107061000D03*
%TO.N,/MicroSD/uSD_D1*%
X183642000Y-64516000D03*
X180721000Y-79629000D03*
%TO.N,/MicroSD/uSD_D2*%
X175514000Y-64516000D03*
X151765000Y-106172000D03*
%TO.N,/InputSignal/ADIN_SDOUT*%
X155448000Y-139319000D03*
%TO.N,/SignalRelay/FX_IN*%
X149895000Y-137576000D03*
X157734000Y-126619000D03*
X157734000Y-128778000D03*
%TO.N,/SignalRelay/FX_OUT*%
X147320000Y-137576000D03*
X156845000Y-126619000D03*
X156845000Y-128778000D03*
%TO.N,/OutputSignal/ADOUT_SDIN*%
X139636500Y-139128500D03*
%TO.N,/SignalProcessing/VDDA*%
X143501000Y-117847000D03*
%TO.N,/ExtInput/FootSwitchA_IN*%
X143573500Y-112649000D03*
X140271500Y-113411000D03*
%TO.N,/ExtInput/FootSwitchB_IN*%
X146006000Y-112820000D03*
%TO.N,/ExtInput/UserSwitchA_IN*%
X143510004Y-115812285D03*
X141497798Y-115296202D03*
%TO.N,/ExtInput/UserSwitchB_IN*%
X143510000Y-116585992D03*
X140843000Y-115316000D03*
%TO.N,/SignalProcessing/LEDB_B*%
X153797000Y-112014000D03*
X153924000Y-99695000D03*
%TO.N,/InputSignal/ADIN_MCLK*%
X160147000Y-126619000D03*
X159385000Y-128778000D03*
X153924000Y-139192000D03*
X153924000Y-137922000D03*
X157480000Y-130937000D03*
%TO.N,/InputSignal/ADIN_LRCK*%
X158623000Y-126619000D03*
X158623000Y-128778000D03*
%TO.N,+5V*%
X196723000Y-119634000D03*
X199771000Y-120904000D03*
%TD*%
D28*
%TO.N,/InputSignal/VQ*%
X189086000Y-125468000D02*
X189094000Y-125476000D01*
X187571000Y-125468000D02*
X189086000Y-125468000D01*
D29*
X189094000Y-125476000D02*
X189094000Y-123063000D01*
D28*
%TO.N,/InputSignal/FILT*%
X179324000Y-126492000D02*
X180483000Y-126492000D01*
X179206000Y-126374000D02*
X179324000Y-126492000D01*
D30*
%TO.N,+3V3*%
X178630000Y-66664000D02*
X178630000Y-68521000D01*
D29*
X138176000Y-73152000D02*
X149098000Y-73152000D01*
X154178000Y-78232000D02*
X159004000Y-78232000D01*
X149098000Y-73152000D02*
X154178000Y-78232000D01*
D30*
X135890000Y-73152000D02*
X138176000Y-73152000D01*
X133604000Y-75438000D02*
X135890000Y-73152000D01*
X129540000Y-75438000D02*
X133604000Y-75438000D01*
X185928000Y-69215000D02*
X189738000Y-69215000D01*
X189738000Y-69215000D02*
X190754000Y-70231000D01*
X190754000Y-70231000D02*
X190754000Y-71882000D01*
X178435000Y-104140000D02*
X178435000Y-106172000D01*
D28*
X146050000Y-111760000D02*
X145990000Y-111820000D01*
X146050000Y-110617000D02*
X146050000Y-111760000D01*
X156845000Y-99187000D02*
X156845000Y-100203000D01*
X156845000Y-99187000D02*
X164465000Y-99187000D01*
X140970000Y-119897000D02*
X147057000Y-119897000D01*
X147057000Y-119897000D02*
X147066000Y-119888000D01*
X147745000Y-124153000D02*
X147745000Y-123146000D01*
X147701000Y-124197000D02*
X147745000Y-124153000D01*
%TO.N,/OutputSignal/VQ*%
X114935000Y-113665000D02*
X116450000Y-113665000D01*
D30*
X116450000Y-113665000D02*
X116450000Y-110490000D01*
D28*
%TO.N,/OutputSignal/FILT*%
X107314988Y-113030000D02*
X107315000Y-113030012D01*
X105800000Y-113030000D02*
X107314988Y-113030000D01*
%TO.N,/ExtInput/FootExp_IN*%
X159575500Y-117792500D02*
X159048000Y-118320000D01*
X159048000Y-118320000D02*
X146006000Y-118320000D01*
%TO.N,/SignalProcessing/RelayCoil_OUT*%
X143510000Y-122428000D02*
X144716500Y-121221500D01*
X148590000Y-129535500D02*
X147324500Y-128270000D01*
X147324500Y-128270000D02*
X145415000Y-128270000D01*
X145415000Y-128270000D02*
X143510000Y-126365000D01*
X143510000Y-126365000D02*
X143510000Y-122428000D01*
X148600000Y-130058000D02*
X148590000Y-130048000D01*
X151660000Y-130058000D02*
X148600000Y-130058000D01*
X148590000Y-131699000D02*
X148590000Y-130048000D01*
X148590000Y-130048000D02*
X148590000Y-129535500D01*
D29*
%TO.N,GNDPWR*%
X184658000Y-56134000D02*
X184150000Y-56134000D01*
X183855000Y-55839000D02*
X182165000Y-55839000D01*
X184150000Y-56134000D02*
X183855000Y-55839000D01*
X182165000Y-55839000D02*
X176195000Y-55839000D01*
X172870000Y-66539000D02*
X172870000Y-64874000D01*
X176195000Y-61549000D02*
X176195000Y-55839000D01*
X172870000Y-64874000D02*
X176195000Y-61549000D01*
X185547000Y-57023000D02*
X184658000Y-56134000D01*
X185547000Y-66314000D02*
X185547000Y-57023000D01*
X184190000Y-66314000D02*
X185547000Y-66314000D01*
D30*
%TO.N,Net-(J6-Pad10)*%
X172695000Y-56814000D02*
X170770000Y-56814000D01*
%TO.N,/MicroSD/uSD_D0*%
X181930000Y-66664000D02*
X181930000Y-64836000D01*
X181930000Y-64836000D02*
X181610000Y-64516000D01*
D28*
X181610000Y-78359000D02*
X181930000Y-78039000D01*
X181930000Y-78039000D02*
X181930000Y-66664000D01*
%TO.N,/MicroSD/uSD_CLK*%
X179730000Y-68936000D02*
X179730000Y-66664000D01*
X152471000Y-108331000D02*
X153289000Y-108331000D01*
X152245000Y-108557000D02*
X152471000Y-108331000D01*
X171323000Y-77343000D02*
X179730000Y-68936000D01*
X153289000Y-108331000D02*
X153289000Y-89408000D01*
X165354000Y-77343000D02*
X171323000Y-77343000D01*
X153289000Y-89408000D02*
X165354000Y-77343000D01*
D30*
%TO.N,/MicroSD/uSD_CMD*%
X177530000Y-66664000D02*
X177530000Y-65294000D01*
X177530000Y-65294000D02*
X178308000Y-64516000D01*
X178308000Y-64516000D02*
X179578000Y-64516000D01*
D28*
X177530000Y-68596000D02*
X177530000Y-66664000D01*
X152146000Y-107696000D02*
X152781000Y-107696000D01*
X151745000Y-108097000D02*
X152146000Y-107696000D01*
X165100000Y-76708000D02*
X169418000Y-76708000D01*
X152781000Y-107696000D02*
X152781000Y-89027000D01*
X152781000Y-89027000D02*
X165100000Y-76708000D01*
X169418000Y-76708000D02*
X177530000Y-68596000D01*
D30*
%TO.N,/MicroSD/uSD_D3*%
X176430000Y-66664000D02*
X176430000Y-64870000D01*
X176430000Y-64870000D02*
X176784002Y-64515998D01*
D28*
X176430000Y-68553000D02*
X176430000Y-66664000D01*
X151765000Y-107061000D02*
X152273000Y-106553000D01*
X168910000Y-76073000D02*
X176430000Y-68553000D01*
X164846000Y-76073000D02*
X168910000Y-76073000D01*
X152273000Y-88646000D02*
X164846000Y-76073000D01*
X152273000Y-106553000D02*
X152273000Y-88646000D01*
D30*
%TO.N,/MicroSD/uSD_D1*%
X182980000Y-66664000D02*
X182980000Y-65178000D01*
X182980000Y-65178000D02*
X183642000Y-64516000D01*
D28*
X182980000Y-66410000D02*
X183007000Y-66437000D01*
X182980000Y-79275000D02*
X182980000Y-66664000D01*
X182626000Y-79629000D02*
X182980000Y-79275000D01*
X180721000Y-79629000D02*
X182626000Y-79629000D01*
D30*
%TO.N,/MicroSD/uSD_D2*%
X175330000Y-64700000D02*
X175514000Y-64516000D01*
X175330000Y-66664000D02*
X175330000Y-64700000D01*
D28*
X164592000Y-75438000D02*
X168275000Y-75438000D01*
X175330000Y-68383000D02*
X175330000Y-66664000D01*
X168275000Y-75438000D02*
X175330000Y-68383000D01*
X151765000Y-106172000D02*
X151765000Y-88265000D01*
X151765000Y-88265000D02*
X164592000Y-75438000D01*
D30*
%TO.N,Net-(K1-Pad2)*%
X145574500Y-133223000D02*
X151714500Y-133223000D01*
%TO.N,/InputSignal/ADIN_SDOUT*%
X151384000Y-135382000D02*
X151257000Y-135509000D01*
X155448000Y-139319000D02*
X155448000Y-137541000D01*
X153289000Y-135382000D02*
X151384000Y-135382000D01*
X155448000Y-137541000D02*
X153289000Y-135382000D01*
%TO.N,/SignalRelay/FX_IN*%
X151714500Y-137576000D02*
X149895000Y-137576000D01*
D28*
X157734000Y-128778000D02*
X157734000Y-126619000D01*
D30*
%TO.N,/SignalRelay/FX_OUT*%
X145574500Y-137576000D02*
X147320000Y-137576000D01*
D28*
X156845000Y-128778000D02*
X156845000Y-126619000D01*
D30*
%TO.N,/OutputSignal/ADOUT_SDIN*%
X145574500Y-135376000D02*
X143389000Y-135376000D01*
X143389000Y-135376000D02*
X139636500Y-139128500D01*
D28*
%TO.N,/SignalProcessing/VDDA*%
X140970000Y-117847000D02*
X143501000Y-117847000D01*
%TO.N,/ExtInput/FootSwitchA_IN*%
X143573500Y-112649000D02*
X142811500Y-113411000D01*
X142811500Y-113411000D02*
X140271500Y-113411000D01*
%TO.N,/ExtInput/FootSwitchB_IN*%
X146006000Y-112820000D02*
X156293000Y-112820000D01*
X156293000Y-112820000D02*
X157353000Y-111760000D01*
X157353000Y-111760000D02*
X157353000Y-102235000D01*
X157353000Y-102235000D02*
X158877000Y-100711000D01*
X166751000Y-100711000D02*
X168148000Y-102108000D01*
X158877000Y-100711000D02*
X166751000Y-100711000D01*
%TO.N,/ExtInput/UserSwitchA_IN*%
X143510004Y-115812285D02*
X142013881Y-115812285D01*
X142013881Y-115812285D02*
X141497798Y-115296202D01*
%TO.N,/ExtInput/UserSwitchB_IN*%
X141731992Y-116585992D02*
X140843000Y-115697000D01*
X140843000Y-115697000D02*
X140843000Y-115316000D01*
X143510000Y-116585992D02*
X141731992Y-116585992D01*
%TO.N,/SignalProcessing/LEDB_B*%
X153924000Y-111887000D02*
X153797000Y-112014000D01*
X153924000Y-99695000D02*
X153924000Y-111887000D01*
%TO.N,/InputSignal/ADIN_MCLK*%
X159385000Y-128778000D02*
X160147000Y-128016000D01*
X160147000Y-128016000D02*
X160147000Y-126619000D01*
X153924000Y-139192000D02*
X153924000Y-137922000D01*
X159385000Y-130048000D02*
X159385000Y-128778000D01*
X157480000Y-130937000D02*
X158496000Y-130937000D01*
X158496000Y-130937000D02*
X159385000Y-130048000D01*
%TO.N,/InputSignal/ADIN_LRCK*%
X158623000Y-128778000D02*
X158623000Y-126619000D01*
D30*
%TO.N,+5V*%
X197231000Y-120904000D02*
X196723000Y-120396000D01*
X199771000Y-120904000D02*
X197231000Y-120904000D01*
X196723000Y-120396000D02*
X196723000Y-119634000D01*
%TD*%
D31*
%TO.N,GND*%
G36*
X174606928Y-56514000D02*
G01*
X174619188Y-56638482D01*
X174655498Y-56758180D01*
X174714463Y-56868494D01*
X174793815Y-56965185D01*
X174890506Y-57044537D01*
X175000820Y-57103502D01*
X175060001Y-57121454D01*
X175060000Y-61078868D01*
X172106860Y-64032009D01*
X172063552Y-64067551D01*
X171921717Y-64240377D01*
X171886745Y-64305805D01*
X171816324Y-64437554D01*
X171780822Y-64554589D01*
X171751423Y-64651501D01*
X171747681Y-64689491D01*
X171729509Y-64874000D01*
X171735000Y-64929751D01*
X171735000Y-65337982D01*
X171643815Y-65412815D01*
X171564463Y-65509506D01*
X171505498Y-65619820D01*
X171469188Y-65739518D01*
X171456928Y-65864000D01*
X171456928Y-67214000D01*
X171469188Y-67338482D01*
X171505498Y-67458180D01*
X171564463Y-67568494D01*
X171643815Y-67665185D01*
X171740506Y-67744537D01*
X171850820Y-67803502D01*
X171970518Y-67839812D01*
X172095000Y-67852072D01*
X173645000Y-67852072D01*
X173769482Y-67839812D01*
X173889180Y-67803502D01*
X173999494Y-67744537D01*
X174096185Y-67665185D01*
X174175537Y-67568494D01*
X174234502Y-67458180D01*
X174270812Y-67338482D01*
X174275000Y-67295959D01*
X174279188Y-67338482D01*
X174315498Y-67458180D01*
X174374463Y-67568494D01*
X174453815Y-67665185D01*
X174550506Y-67744537D01*
X174570000Y-67754957D01*
X174570000Y-68068198D01*
X167960199Y-74678000D01*
X164629322Y-74678000D01*
X164591999Y-74674324D01*
X164554676Y-74678000D01*
X164554667Y-74678000D01*
X164443014Y-74688997D01*
X164299753Y-74732454D01*
X164167724Y-74803026D01*
X164051999Y-74897999D01*
X164028201Y-74926997D01*
X160530803Y-78424396D01*
X160539000Y-78383184D01*
X160539000Y-78080816D01*
X160480011Y-77784257D01*
X160364299Y-77504905D01*
X160196312Y-77253495D01*
X159982505Y-77039688D01*
X159896169Y-76982000D01*
X159982505Y-76924312D01*
X160196312Y-76710505D01*
X160364299Y-76459095D01*
X160480011Y-76179743D01*
X160539000Y-75883184D01*
X160539000Y-75580816D01*
X160480011Y-75284257D01*
X160364299Y-75004905D01*
X160196312Y-74753495D01*
X159982505Y-74539688D01*
X159896169Y-74482000D01*
X159982505Y-74424312D01*
X160196312Y-74210505D01*
X160364299Y-73959095D01*
X160480011Y-73679743D01*
X160539000Y-73383184D01*
X160539000Y-73080816D01*
X160480011Y-72784257D01*
X160364299Y-72504905D01*
X160196312Y-72253495D01*
X159982505Y-72039688D01*
X159731095Y-71871701D01*
X159451743Y-71755989D01*
X159155184Y-71697000D01*
X158852816Y-71697000D01*
X158556257Y-71755989D01*
X158276905Y-71871701D01*
X158025495Y-72039688D01*
X157811688Y-72253495D01*
X157643701Y-72504905D01*
X157527989Y-72784257D01*
X157469000Y-73080816D01*
X157469000Y-73383184D01*
X157527989Y-73679743D01*
X157643701Y-73959095D01*
X157811688Y-74210505D01*
X158025495Y-74424312D01*
X158111831Y-74482000D01*
X158025495Y-74539688D01*
X157811688Y-74753495D01*
X157643701Y-75004905D01*
X157527989Y-75284257D01*
X157469000Y-75580816D01*
X157469000Y-75883184D01*
X157527989Y-76179743D01*
X157643701Y-76459095D01*
X157811688Y-76710505D01*
X158025495Y-76924312D01*
X158111831Y-76982000D01*
X158025495Y-77039688D01*
X157968183Y-77097000D01*
X154648132Y-77097000D01*
X149939996Y-72388865D01*
X149904449Y-72345551D01*
X149731623Y-72203716D01*
X149534447Y-72098324D01*
X149320499Y-72033423D01*
X149153752Y-72017000D01*
X149153751Y-72017000D01*
X149098000Y-72011509D01*
X149042249Y-72017000D01*
X139211817Y-72017000D01*
X139154505Y-71959688D01*
X138903095Y-71791701D01*
X138623743Y-71675989D01*
X138327184Y-71617000D01*
X138024816Y-71617000D01*
X137728257Y-71675989D01*
X137448905Y-71791701D01*
X137197495Y-71959688D01*
X136983688Y-72173495D01*
X136921210Y-72267000D01*
X135933465Y-72267000D01*
X135889999Y-72262719D01*
X135846533Y-72267000D01*
X135846523Y-72267000D01*
X135716510Y-72279805D01*
X135549687Y-72330411D01*
X135395941Y-72412589D01*
X135395939Y-72412590D01*
X135395940Y-72412590D01*
X135294953Y-72495468D01*
X135294951Y-72495470D01*
X135261183Y-72523183D01*
X135233470Y-72556951D01*
X133237422Y-74553000D01*
X129496523Y-74553000D01*
X129366510Y-74565805D01*
X129199687Y-74616411D01*
X129045941Y-74698589D01*
X128911183Y-74809183D01*
X128800589Y-74943941D01*
X128718411Y-75097687D01*
X128667805Y-75264510D01*
X128650718Y-75438000D01*
X128667805Y-75611490D01*
X128718411Y-75778313D01*
X128800589Y-75932059D01*
X128911183Y-76066817D01*
X129045941Y-76177411D01*
X129199687Y-76259589D01*
X129366510Y-76310195D01*
X129496523Y-76323000D01*
X133560531Y-76323000D01*
X133604000Y-76327281D01*
X133647469Y-76323000D01*
X133647477Y-76323000D01*
X133777490Y-76310195D01*
X133944313Y-76259589D01*
X134098059Y-76177411D01*
X134232817Y-76066817D01*
X134260534Y-76033044D01*
X136256579Y-74037000D01*
X136921210Y-74037000D01*
X136983688Y-74130505D01*
X137197495Y-74344312D01*
X137283831Y-74402000D01*
X137197495Y-74459688D01*
X136983688Y-74673495D01*
X136815701Y-74924905D01*
X136699989Y-75204257D01*
X136641000Y-75500816D01*
X136641000Y-75803184D01*
X136699989Y-76099743D01*
X136815701Y-76379095D01*
X136983688Y-76630505D01*
X137197495Y-76844312D01*
X137283831Y-76902000D01*
X137197495Y-76959688D01*
X136983688Y-77173495D01*
X136815701Y-77424905D01*
X136699989Y-77704257D01*
X136641000Y-78000816D01*
X136641000Y-78303184D01*
X136699989Y-78599743D01*
X136815701Y-78879095D01*
X136983688Y-79130505D01*
X137197495Y-79344312D01*
X137448905Y-79512299D01*
X137728257Y-79628011D01*
X138024816Y-79687000D01*
X138327184Y-79687000D01*
X138623743Y-79628011D01*
X138903095Y-79512299D01*
X139154505Y-79344312D01*
X139368312Y-79130505D01*
X139536299Y-78879095D01*
X139652011Y-78599743D01*
X139711000Y-78303184D01*
X139711000Y-78000816D01*
X139652011Y-77704257D01*
X139536299Y-77424905D01*
X139368312Y-77173495D01*
X139154505Y-76959688D01*
X139068169Y-76902000D01*
X139154505Y-76844312D01*
X139368312Y-76630505D01*
X139536299Y-76379095D01*
X139652011Y-76099743D01*
X139711000Y-75803184D01*
X139711000Y-75500816D01*
X139652011Y-75204257D01*
X139536299Y-74924905D01*
X139368312Y-74673495D01*
X139154505Y-74459688D01*
X139068169Y-74402000D01*
X139154505Y-74344312D01*
X139211817Y-74287000D01*
X148627869Y-74287000D01*
X153336009Y-78995141D01*
X153371551Y-79038449D01*
X153512178Y-79153859D01*
X153544377Y-79180284D01*
X153741553Y-79285676D01*
X153955501Y-79350577D01*
X154178000Y-79372491D01*
X154233751Y-79367000D01*
X157968183Y-79367000D01*
X158025495Y-79424312D01*
X158276905Y-79592299D01*
X158556257Y-79708011D01*
X158852816Y-79767000D01*
X159155184Y-79767000D01*
X159196396Y-79758802D01*
X151253998Y-87701201D01*
X151225000Y-87724999D01*
X151201202Y-87753997D01*
X151201201Y-87753998D01*
X151130026Y-87840724D01*
X151059454Y-87972754D01*
X151015998Y-88116015D01*
X151001324Y-88265000D01*
X151005001Y-88302333D01*
X151005000Y-105761461D01*
X151002878Y-105764637D01*
X150938049Y-105921147D01*
X150905000Y-106087297D01*
X150905000Y-106256703D01*
X150938049Y-106422853D01*
X151002878Y-106579363D01*
X151027692Y-106616500D01*
X151002878Y-106653637D01*
X150938049Y-106810147D01*
X150905000Y-106976297D01*
X150905000Y-107145703D01*
X150938049Y-107311853D01*
X151002878Y-107468363D01*
X151066804Y-107564034D01*
X150982878Y-107689637D01*
X150918049Y-107846147D01*
X150885000Y-108012297D01*
X150885000Y-108181703D01*
X150918049Y-108347853D01*
X150982878Y-108504363D01*
X151076995Y-108645218D01*
X151196782Y-108765005D01*
X151337637Y-108859122D01*
X151460338Y-108909947D01*
X151482878Y-108964363D01*
X151576995Y-109105218D01*
X151696782Y-109225005D01*
X151837637Y-109319122D01*
X151994147Y-109383951D01*
X152160297Y-109417000D01*
X152329703Y-109417000D01*
X152495853Y-109383951D01*
X152652363Y-109319122D01*
X152793218Y-109225005D01*
X152913005Y-109105218D01*
X152922505Y-109091000D01*
X153164001Y-109091000D01*
X153164001Y-111430776D01*
X153128995Y-111465782D01*
X153034878Y-111606637D01*
X152970049Y-111763147D01*
X152937000Y-111929297D01*
X152937000Y-112060000D01*
X146819110Y-112060000D01*
X146850000Y-111904703D01*
X146850000Y-111735297D01*
X146816951Y-111569147D01*
X146810000Y-111552366D01*
X146810000Y-111027539D01*
X146812122Y-111024363D01*
X146876951Y-110867853D01*
X146910000Y-110701703D01*
X146910000Y-110532297D01*
X146876951Y-110366147D01*
X146812122Y-110209637D01*
X146718005Y-110068782D01*
X146598218Y-109948995D01*
X146457363Y-109854878D01*
X146300853Y-109790049D01*
X146134703Y-109757000D01*
X145965297Y-109757000D01*
X145799147Y-109790049D01*
X145642637Y-109854878D01*
X145501782Y-109948995D01*
X145381995Y-110068782D01*
X145287878Y-110209637D01*
X145223049Y-110366147D01*
X145190000Y-110532297D01*
X145190000Y-110701703D01*
X145223049Y-110867853D01*
X145287878Y-111024363D01*
X145290000Y-111027539D01*
X145290001Y-111319665D01*
X145227878Y-111412637D01*
X145163049Y-111569147D01*
X145130000Y-111735297D01*
X145130000Y-111904703D01*
X145163049Y-112070853D01*
X145227878Y-112227363D01*
X145297777Y-112331973D01*
X145243878Y-112412637D01*
X145179049Y-112569147D01*
X145146000Y-112735297D01*
X145146000Y-112904703D01*
X145179049Y-113070853D01*
X145243878Y-113227363D01*
X145337995Y-113368218D01*
X145457782Y-113488005D01*
X145598637Y-113582122D01*
X145755147Y-113646951D01*
X145921297Y-113680000D01*
X146090703Y-113680000D01*
X146256853Y-113646951D01*
X146413363Y-113582122D01*
X146416539Y-113580000D01*
X156255678Y-113580000D01*
X156293000Y-113583676D01*
X156330322Y-113580000D01*
X156330333Y-113580000D01*
X156441986Y-113569003D01*
X156585247Y-113525546D01*
X156717276Y-113454974D01*
X156833001Y-113360001D01*
X156856803Y-113330998D01*
X157864009Y-112323794D01*
X157893001Y-112300001D01*
X157916795Y-112271008D01*
X157916799Y-112271004D01*
X157987973Y-112184277D01*
X157987974Y-112184276D01*
X158058546Y-112052247D01*
X158102003Y-111908986D01*
X158113000Y-111797333D01*
X158113000Y-111797324D01*
X158116676Y-111760001D01*
X158113000Y-111722678D01*
X158113000Y-104096524D01*
X177550000Y-104096524D01*
X177550001Y-106215477D01*
X177562806Y-106345490D01*
X177613412Y-106512313D01*
X177695590Y-106666059D01*
X177806184Y-106800817D01*
X177940942Y-106911411D01*
X178094688Y-106993589D01*
X178261511Y-107044195D01*
X178435000Y-107061282D01*
X178608490Y-107044195D01*
X178775313Y-106993589D01*
X178929059Y-106911411D01*
X179063817Y-106800817D01*
X179174411Y-106666059D01*
X179256589Y-106512313D01*
X179307195Y-106345490D01*
X179320000Y-106215477D01*
X179320000Y-104564721D01*
X185253500Y-104564721D01*
X185253500Y-104985279D01*
X185335547Y-105397756D01*
X185496488Y-105786302D01*
X185730137Y-106135983D01*
X186027517Y-106433363D01*
X186377198Y-106667012D01*
X186765744Y-106827953D01*
X187178221Y-106910000D01*
X187598779Y-106910000D01*
X188011256Y-106827953D01*
X188399802Y-106667012D01*
X188749483Y-106433363D01*
X189046863Y-106135983D01*
X189280512Y-105786302D01*
X189441453Y-105397756D01*
X189523500Y-104985279D01*
X189523500Y-104613967D01*
X195278500Y-104613967D01*
X195278500Y-104936033D01*
X195341332Y-105251912D01*
X195464582Y-105549463D01*
X195643513Y-105817252D01*
X195871248Y-106044987D01*
X196139037Y-106223918D01*
X196436588Y-106347168D01*
X196752467Y-106410000D01*
X197074533Y-106410000D01*
X197390412Y-106347168D01*
X197687963Y-106223918D01*
X197955752Y-106044987D01*
X198183487Y-105817252D01*
X198362418Y-105549463D01*
X198485668Y-105251912D01*
X198548500Y-104936033D01*
X198548500Y-104613967D01*
X198485668Y-104298088D01*
X198362418Y-104000537D01*
X198183487Y-103732748D01*
X197955752Y-103505013D01*
X197687963Y-103326082D01*
X197390412Y-103202832D01*
X197074533Y-103140000D01*
X196752467Y-103140000D01*
X196436588Y-103202832D01*
X196139037Y-103326082D01*
X195871248Y-103505013D01*
X195643513Y-103732748D01*
X195464582Y-104000537D01*
X195341332Y-104298088D01*
X195278500Y-104613967D01*
X189523500Y-104613967D01*
X189523500Y-104564721D01*
X189441453Y-104152244D01*
X189280512Y-103763698D01*
X189046863Y-103414017D01*
X188749483Y-103116637D01*
X188399802Y-102882988D01*
X188011256Y-102722047D01*
X187598779Y-102640000D01*
X187178221Y-102640000D01*
X186765744Y-102722047D01*
X186377198Y-102882988D01*
X186027517Y-103116637D01*
X185730137Y-103414017D01*
X185496488Y-103763698D01*
X185335547Y-104152244D01*
X185253500Y-104564721D01*
X179320000Y-104564721D01*
X179320000Y-104096523D01*
X179307195Y-103966510D01*
X179256589Y-103799687D01*
X179174411Y-103645941D01*
X179063817Y-103511183D01*
X178929058Y-103400589D01*
X178775312Y-103318411D01*
X178608489Y-103267805D01*
X178435000Y-103250718D01*
X178261510Y-103267805D01*
X178094687Y-103318411D01*
X177940941Y-103400589D01*
X177806183Y-103511183D01*
X177695589Y-103645942D01*
X177613411Y-103799688D01*
X177562805Y-103966511D01*
X177550000Y-104096524D01*
X158113000Y-104096524D01*
X158113000Y-102549801D01*
X159191803Y-101471000D01*
X166436199Y-101471000D01*
X166706791Y-101741592D01*
X166663000Y-101961740D01*
X166663000Y-102254260D01*
X166720068Y-102541158D01*
X166832010Y-102811411D01*
X166994525Y-103054632D01*
X167201368Y-103261475D01*
X167444589Y-103423990D01*
X167714842Y-103535932D01*
X168001740Y-103593000D01*
X168294260Y-103593000D01*
X168581158Y-103535932D01*
X168851411Y-103423990D01*
X169094632Y-103261475D01*
X169301475Y-103054632D01*
X169463990Y-102811411D01*
X169575932Y-102541158D01*
X169633000Y-102254260D01*
X169633000Y-101961740D01*
X169575932Y-101674842D01*
X169463990Y-101404589D01*
X169301475Y-101161368D01*
X169094632Y-100954525D01*
X168851411Y-100792010D01*
X168581158Y-100680068D01*
X168294260Y-100623000D01*
X168001740Y-100623000D01*
X167781592Y-100666791D01*
X167314804Y-100200003D01*
X167291001Y-100170999D01*
X167175276Y-100076026D01*
X167043247Y-100005454D01*
X166899986Y-99961997D01*
X166788333Y-99951000D01*
X166788322Y-99951000D01*
X166751000Y-99947324D01*
X166713678Y-99951000D01*
X164867829Y-99951000D01*
X164872363Y-99949122D01*
X165013218Y-99855005D01*
X165133005Y-99735218D01*
X165227122Y-99594363D01*
X165291951Y-99437853D01*
X165325000Y-99271703D01*
X165325000Y-99102297D01*
X165291951Y-98936147D01*
X165227122Y-98779637D01*
X165133005Y-98638782D01*
X165013218Y-98518995D01*
X164872363Y-98424878D01*
X164715853Y-98360049D01*
X164549703Y-98327000D01*
X164380297Y-98327000D01*
X164214147Y-98360049D01*
X164057637Y-98424878D01*
X164054461Y-98427000D01*
X157255539Y-98427000D01*
X157252363Y-98424878D01*
X157095853Y-98360049D01*
X156929703Y-98327000D01*
X156760297Y-98327000D01*
X156594147Y-98360049D01*
X156437637Y-98424878D01*
X156296782Y-98518995D01*
X156176995Y-98638782D01*
X156082878Y-98779637D01*
X156018049Y-98936147D01*
X155985000Y-99102297D01*
X155985000Y-99271703D01*
X156018049Y-99437853D01*
X156082878Y-99594363D01*
X156085000Y-99597539D01*
X156085001Y-99792460D01*
X156082878Y-99795637D01*
X156018049Y-99952147D01*
X155985000Y-100118297D01*
X155985000Y-100287703D01*
X156018049Y-100453853D01*
X156082878Y-100610363D01*
X156176995Y-100751218D01*
X156296782Y-100871005D01*
X156437637Y-100965122D01*
X156594147Y-101029951D01*
X156760297Y-101063000D01*
X156929703Y-101063000D01*
X157095853Y-101029951D01*
X157252363Y-100965122D01*
X157393218Y-100871005D01*
X157513005Y-100751218D01*
X157607122Y-100610363D01*
X157671951Y-100453853D01*
X157705000Y-100287703D01*
X157705000Y-100118297D01*
X157671951Y-99952147D01*
X157669819Y-99947000D01*
X164054461Y-99947000D01*
X164057637Y-99949122D01*
X164062171Y-99951000D01*
X158914322Y-99951000D01*
X158876999Y-99947324D01*
X158839676Y-99951000D01*
X158839667Y-99951000D01*
X158728014Y-99961997D01*
X158584753Y-100005454D01*
X158452724Y-100076026D01*
X158452722Y-100076027D01*
X158452723Y-100076027D01*
X158365996Y-100147201D01*
X158365992Y-100147205D01*
X158336999Y-100170999D01*
X158313205Y-100199992D01*
X156841998Y-101671201D01*
X156813000Y-101694999D01*
X156789202Y-101723997D01*
X156789201Y-101723998D01*
X156718026Y-101810724D01*
X156647454Y-101942754D01*
X156603998Y-102086015D01*
X156589324Y-102235000D01*
X156593001Y-102272332D01*
X156593000Y-111445197D01*
X155978199Y-112060000D01*
X154665719Y-112060000D01*
X154673003Y-112035986D01*
X154684000Y-111924333D01*
X154684000Y-111924323D01*
X154687676Y-111887001D01*
X154684000Y-111849678D01*
X154684000Y-100105539D01*
X154686122Y-100102363D01*
X154750951Y-99945853D01*
X154784000Y-99779703D01*
X154784000Y-99610297D01*
X154750951Y-99444147D01*
X154686122Y-99287637D01*
X154592005Y-99146782D01*
X154472218Y-99026995D01*
X154331363Y-98932878D01*
X154174853Y-98868049D01*
X154049000Y-98843016D01*
X154049000Y-91796816D01*
X164581000Y-91796816D01*
X164581000Y-92099184D01*
X164639989Y-92395743D01*
X164755701Y-92675095D01*
X164923688Y-92926505D01*
X165024683Y-93027500D01*
X164923688Y-93128495D01*
X164755701Y-93379905D01*
X164639989Y-93659257D01*
X164581000Y-93955816D01*
X164581000Y-94258184D01*
X164639989Y-94554743D01*
X164755701Y-94834095D01*
X164923688Y-95085505D01*
X165137495Y-95299312D01*
X165388905Y-95467299D01*
X165668257Y-95583011D01*
X165964816Y-95642000D01*
X166267184Y-95642000D01*
X166563743Y-95583011D01*
X166843095Y-95467299D01*
X167094505Y-95299312D01*
X167308312Y-95085505D01*
X167476299Y-94834095D01*
X167592011Y-94554743D01*
X167651000Y-94258184D01*
X167651000Y-93955816D01*
X167592011Y-93659257D01*
X167476299Y-93379905D01*
X167345378Y-93183967D01*
X195278500Y-93183967D01*
X195278500Y-93506033D01*
X195341332Y-93821912D01*
X195464582Y-94119463D01*
X195643513Y-94387252D01*
X195871248Y-94614987D01*
X196139037Y-94793918D01*
X196436588Y-94917168D01*
X196752467Y-94980000D01*
X197074533Y-94980000D01*
X197390412Y-94917168D01*
X197687963Y-94793918D01*
X197955752Y-94614987D01*
X198183487Y-94387252D01*
X198362418Y-94119463D01*
X198485668Y-93821912D01*
X198548500Y-93506033D01*
X198548500Y-93183967D01*
X198485668Y-92868088D01*
X198362418Y-92570537D01*
X198183487Y-92302748D01*
X197955752Y-92075013D01*
X197687963Y-91896082D01*
X197390412Y-91772832D01*
X197074533Y-91710000D01*
X196752467Y-91710000D01*
X196436588Y-91772832D01*
X196139037Y-91896082D01*
X195871248Y-92075013D01*
X195643513Y-92302748D01*
X195464582Y-92570537D01*
X195341332Y-92868088D01*
X195278500Y-93183967D01*
X167345378Y-93183967D01*
X167308312Y-93128495D01*
X167207317Y-93027500D01*
X167308312Y-92926505D01*
X167476299Y-92675095D01*
X167592011Y-92395743D01*
X167651000Y-92099184D01*
X167651000Y-91796816D01*
X167592011Y-91500257D01*
X167476299Y-91220905D01*
X167308312Y-90969495D01*
X167094505Y-90755688D01*
X166843095Y-90587701D01*
X166563743Y-90471989D01*
X166267184Y-90413000D01*
X165964816Y-90413000D01*
X165668257Y-90471989D01*
X165388905Y-90587701D01*
X165137495Y-90755688D01*
X164923688Y-90969495D01*
X164755701Y-91220905D01*
X164639989Y-91500257D01*
X164581000Y-91796816D01*
X154049000Y-91796816D01*
X154049000Y-89722801D01*
X157041801Y-86730000D01*
X164577928Y-86730000D01*
X164577928Y-88530000D01*
X164590188Y-88654482D01*
X164626498Y-88774180D01*
X164685463Y-88884494D01*
X164764815Y-88981185D01*
X164861506Y-89060537D01*
X164971820Y-89119502D01*
X165091518Y-89155812D01*
X165216000Y-89168072D01*
X167016000Y-89168072D01*
X167140482Y-89155812D01*
X167260180Y-89119502D01*
X167370494Y-89060537D01*
X167467185Y-88981185D01*
X167546537Y-88884494D01*
X167605502Y-88774180D01*
X167641812Y-88654482D01*
X167654072Y-88530000D01*
X167654072Y-86730000D01*
X167641812Y-86605518D01*
X167605502Y-86485820D01*
X167546537Y-86375506D01*
X167467185Y-86278815D01*
X167370494Y-86199463D01*
X167260180Y-86140498D01*
X167140482Y-86104188D01*
X167016000Y-86091928D01*
X165216000Y-86091928D01*
X165091518Y-86104188D01*
X164971820Y-86140498D01*
X164861506Y-86199463D01*
X164764815Y-86278815D01*
X164685463Y-86375506D01*
X164626498Y-86485820D01*
X164590188Y-86605518D01*
X164577928Y-86730000D01*
X157041801Y-86730000D01*
X159527080Y-84244721D01*
X185253500Y-84244721D01*
X185253500Y-84665279D01*
X185335547Y-85077756D01*
X185496488Y-85466302D01*
X185730137Y-85815983D01*
X186027517Y-86113363D01*
X186377198Y-86347012D01*
X186765744Y-86507953D01*
X187178221Y-86590000D01*
X187598779Y-86590000D01*
X188011256Y-86507953D01*
X188399802Y-86347012D01*
X188749483Y-86113363D01*
X189046863Y-85815983D01*
X189280512Y-85466302D01*
X189441453Y-85077756D01*
X189523500Y-84665279D01*
X189523500Y-84293967D01*
X195278500Y-84293967D01*
X195278500Y-84616033D01*
X195341332Y-84931912D01*
X195464582Y-85229463D01*
X195643513Y-85497252D01*
X195871248Y-85724987D01*
X196139037Y-85903918D01*
X196436588Y-86027168D01*
X196752467Y-86090000D01*
X197074533Y-86090000D01*
X197390412Y-86027168D01*
X197687963Y-85903918D01*
X197955752Y-85724987D01*
X198183487Y-85497252D01*
X198362418Y-85229463D01*
X198485668Y-84931912D01*
X198548500Y-84616033D01*
X198548500Y-84293967D01*
X198485668Y-83978088D01*
X198362418Y-83680537D01*
X198183487Y-83412748D01*
X197955752Y-83185013D01*
X197687963Y-83006082D01*
X197390412Y-82882832D01*
X197074533Y-82820000D01*
X196752467Y-82820000D01*
X196436588Y-82882832D01*
X196139037Y-83006082D01*
X195871248Y-83185013D01*
X195643513Y-83412748D01*
X195464582Y-83680537D01*
X195341332Y-83978088D01*
X195278500Y-84293967D01*
X189523500Y-84293967D01*
X189523500Y-84244721D01*
X189441453Y-83832244D01*
X189280512Y-83443698D01*
X189046863Y-83094017D01*
X188749483Y-82796637D01*
X188399802Y-82562988D01*
X188011256Y-82402047D01*
X187598779Y-82320000D01*
X187178221Y-82320000D01*
X186765744Y-82402047D01*
X186377198Y-82562988D01*
X186027517Y-82796637D01*
X185730137Y-83094017D01*
X185496488Y-83443698D01*
X185335547Y-83832244D01*
X185253500Y-84244721D01*
X159527080Y-84244721D01*
X163948375Y-79823427D01*
X163869000Y-80222475D01*
X163869000Y-80741525D01*
X163970261Y-81250601D01*
X164168893Y-81730141D01*
X164457262Y-82161715D01*
X164824285Y-82528738D01*
X165255859Y-82817107D01*
X165735399Y-83015739D01*
X166244475Y-83117000D01*
X166763525Y-83117000D01*
X167272601Y-83015739D01*
X167752141Y-82817107D01*
X168183715Y-82528738D01*
X168550738Y-82161715D01*
X168839107Y-81730141D01*
X169037739Y-81250601D01*
X169139000Y-80741525D01*
X169139000Y-80222475D01*
X169037739Y-79713399D01*
X168839107Y-79233859D01*
X168550738Y-78802285D01*
X168183715Y-78435262D01*
X167752141Y-78146893D01*
X167646174Y-78103000D01*
X171285678Y-78103000D01*
X171323000Y-78106676D01*
X171360322Y-78103000D01*
X171360333Y-78103000D01*
X171471986Y-78092003D01*
X171615247Y-78048546D01*
X171747276Y-77977974D01*
X171863001Y-77883001D01*
X171886804Y-77853997D01*
X180241009Y-69499794D01*
X180270001Y-69476001D01*
X180293795Y-69447008D01*
X180293799Y-69447004D01*
X180364973Y-69360277D01*
X180364974Y-69360276D01*
X180435546Y-69228247D01*
X180479003Y-69084986D01*
X180490000Y-68973333D01*
X180490000Y-68973324D01*
X180493676Y-68936001D01*
X180490000Y-68898678D01*
X180490000Y-67754957D01*
X180509494Y-67744537D01*
X180606185Y-67665185D01*
X180685537Y-67568494D01*
X180744502Y-67458180D01*
X180780812Y-67338482D01*
X180793072Y-67214000D01*
X180793072Y-66114000D01*
X180780812Y-65989518D01*
X180744502Y-65869820D01*
X180685537Y-65759506D01*
X180606185Y-65662815D01*
X180509494Y-65583463D01*
X180399180Y-65524498D01*
X180279482Y-65488188D01*
X180155000Y-65475928D01*
X179305000Y-65475928D01*
X179180518Y-65488188D01*
X179180000Y-65488345D01*
X179179482Y-65488188D01*
X179055000Y-65475928D01*
X178599651Y-65475928D01*
X178674579Y-65401000D01*
X179621477Y-65401000D01*
X179751490Y-65388195D01*
X179918313Y-65337589D01*
X180072059Y-65255411D01*
X180206817Y-65144817D01*
X180317411Y-65010059D01*
X180399589Y-64856313D01*
X180450195Y-64689490D01*
X180467282Y-64516000D01*
X180450195Y-64342510D01*
X180399589Y-64175687D01*
X180317411Y-64021941D01*
X180206817Y-63887183D01*
X180072059Y-63776589D01*
X179918313Y-63694411D01*
X179751490Y-63643805D01*
X179621477Y-63631000D01*
X178351465Y-63631000D01*
X178307999Y-63626719D01*
X178264533Y-63631000D01*
X178264523Y-63631000D01*
X178134510Y-63643805D01*
X177967687Y-63694411D01*
X177813941Y-63776589D01*
X177813939Y-63776590D01*
X177813940Y-63776590D01*
X177712953Y-63859468D01*
X177712951Y-63859470D01*
X177679183Y-63887183D01*
X177651470Y-63920951D01*
X177532841Y-64039580D01*
X177523412Y-64021940D01*
X177412819Y-63887181D01*
X177278060Y-63776588D01*
X177124315Y-63694410D01*
X176957491Y-63643804D01*
X176784001Y-63626717D01*
X176610511Y-63643804D01*
X176443688Y-63694410D01*
X176289943Y-63776588D01*
X176188956Y-63859466D01*
X176151121Y-63897301D01*
X176142817Y-63887183D01*
X176008058Y-63776590D01*
X175854313Y-63694412D01*
X175701174Y-63647957D01*
X176958141Y-62390991D01*
X177001449Y-62355449D01*
X177143284Y-62182623D01*
X177248676Y-61985447D01*
X177313577Y-61771499D01*
X177330000Y-61604752D01*
X177330000Y-61604751D01*
X177335491Y-61549001D01*
X177330000Y-61493249D01*
X177330000Y-57121454D01*
X177389180Y-57103502D01*
X177499494Y-57044537D01*
X177585444Y-56974000D01*
X180774556Y-56974000D01*
X180860506Y-57044537D01*
X180970820Y-57103502D01*
X181090518Y-57139812D01*
X181215000Y-57152072D01*
X183115000Y-57152072D01*
X183239482Y-57139812D01*
X183359180Y-57103502D01*
X183469494Y-57044537D01*
X183469938Y-57044173D01*
X183516377Y-57082284D01*
X183713553Y-57187676D01*
X183904168Y-57245499D01*
X183927501Y-57252577D01*
X184149999Y-57274491D01*
X184189472Y-57270603D01*
X184412001Y-57493133D01*
X184412000Y-64079173D01*
X184381410Y-64021942D01*
X184270817Y-63887183D01*
X184136058Y-63776590D01*
X183982313Y-63694412D01*
X183815489Y-63643806D01*
X183641999Y-63626719D01*
X183468509Y-63643806D01*
X183301686Y-63694412D01*
X183147940Y-63776590D01*
X183046953Y-63859468D01*
X182622113Y-64284309D01*
X182558817Y-64207183D01*
X182525044Y-64179466D01*
X182205046Y-63859468D01*
X182104059Y-63776590D01*
X181950313Y-63694412D01*
X181783490Y-63643805D01*
X181610000Y-63626719D01*
X181436510Y-63643805D01*
X181269687Y-63694412D01*
X181115941Y-63776590D01*
X180981183Y-63887183D01*
X180870590Y-64021941D01*
X180788412Y-64175687D01*
X180737805Y-64342510D01*
X180720719Y-64516000D01*
X180737805Y-64689490D01*
X180788412Y-64856313D01*
X180870590Y-65010059D01*
X180953468Y-65111046D01*
X181045001Y-65202579D01*
X181045001Y-65673555D01*
X180974463Y-65759506D01*
X180915498Y-65869820D01*
X180879188Y-65989518D01*
X180866928Y-66114000D01*
X180866928Y-67214000D01*
X180879188Y-67338482D01*
X180915498Y-67458180D01*
X180974463Y-67568494D01*
X181053815Y-67665185D01*
X181150506Y-67744537D01*
X181170001Y-67754957D01*
X181170000Y-77618685D01*
X181061782Y-77690995D01*
X180941995Y-77810782D01*
X180847878Y-77951637D01*
X180783049Y-78108147D01*
X180750000Y-78274297D01*
X180750000Y-78443703D01*
X180783049Y-78609853D01*
X180847878Y-78766363D01*
X180856375Y-78779079D01*
X180805703Y-78769000D01*
X180636297Y-78769000D01*
X180470147Y-78802049D01*
X180313637Y-78866878D01*
X180172782Y-78960995D01*
X180052995Y-79080782D01*
X179958878Y-79221637D01*
X179894049Y-79378147D01*
X179861000Y-79544297D01*
X179861000Y-79713703D01*
X179894049Y-79879853D01*
X179958878Y-80036363D01*
X180052995Y-80177218D01*
X180172782Y-80297005D01*
X180313637Y-80391122D01*
X180470147Y-80455951D01*
X180636297Y-80489000D01*
X180805703Y-80489000D01*
X180971853Y-80455951D01*
X181128363Y-80391122D01*
X181131539Y-80389000D01*
X182588678Y-80389000D01*
X182626000Y-80392676D01*
X182663322Y-80389000D01*
X182663333Y-80389000D01*
X182774986Y-80378003D01*
X182918247Y-80334546D01*
X183050276Y-80263974D01*
X183166001Y-80169001D01*
X183189804Y-80139997D01*
X183490998Y-79838803D01*
X183520001Y-79815001D01*
X183614974Y-79699276D01*
X183685546Y-79567247D01*
X183729003Y-79423986D01*
X183740000Y-79312333D01*
X183740000Y-79312332D01*
X183743677Y-79275000D01*
X183740000Y-79237667D01*
X183740000Y-72863967D01*
X195278500Y-72863967D01*
X195278500Y-73186033D01*
X195341332Y-73501912D01*
X195464582Y-73799463D01*
X195643513Y-74067252D01*
X195871248Y-74294987D01*
X196139037Y-74473918D01*
X196436588Y-74597168D01*
X196752467Y-74660000D01*
X197074533Y-74660000D01*
X197390412Y-74597168D01*
X197687963Y-74473918D01*
X197955752Y-74294987D01*
X198183487Y-74067252D01*
X198362418Y-73799463D01*
X198485668Y-73501912D01*
X198548500Y-73186033D01*
X198548500Y-72863967D01*
X198485668Y-72548088D01*
X198362418Y-72250537D01*
X198183487Y-71982748D01*
X197955752Y-71755013D01*
X197687963Y-71576082D01*
X197390412Y-71452832D01*
X197074533Y-71390000D01*
X196752467Y-71390000D01*
X196436588Y-71452832D01*
X196139037Y-71576082D01*
X195871248Y-71755013D01*
X195643513Y-71982748D01*
X195464582Y-72250537D01*
X195341332Y-72548088D01*
X195278500Y-72863967D01*
X183740000Y-72863967D01*
X183740000Y-69215000D01*
X185038718Y-69215000D01*
X185055805Y-69388490D01*
X185106411Y-69555313D01*
X185188589Y-69709059D01*
X185299183Y-69843817D01*
X185433941Y-69954411D01*
X185587687Y-70036589D01*
X185754510Y-70087195D01*
X185884523Y-70100000D01*
X189371422Y-70100000D01*
X189869000Y-70597579D01*
X189869001Y-71925477D01*
X189881806Y-72055490D01*
X189932412Y-72222313D01*
X190014590Y-72376059D01*
X190125184Y-72510817D01*
X190259942Y-72621411D01*
X190413688Y-72703589D01*
X190580511Y-72754195D01*
X190754000Y-72771282D01*
X190927490Y-72754195D01*
X191094313Y-72703589D01*
X191248059Y-72621411D01*
X191382817Y-72510817D01*
X191493411Y-72376059D01*
X191575589Y-72222313D01*
X191626195Y-72055490D01*
X191639000Y-71925477D01*
X191639000Y-70274469D01*
X191643281Y-70231000D01*
X191639000Y-70187531D01*
X191639000Y-70187523D01*
X191626195Y-70057510D01*
X191575589Y-69890687D01*
X191493411Y-69736941D01*
X191382817Y-69602183D01*
X191349050Y-69574471D01*
X190394534Y-68619956D01*
X190366817Y-68586183D01*
X190232059Y-68475589D01*
X190078313Y-68393411D01*
X189911490Y-68342805D01*
X189781477Y-68330000D01*
X189781469Y-68330000D01*
X189738000Y-68325719D01*
X189694531Y-68330000D01*
X185884523Y-68330000D01*
X185754510Y-68342805D01*
X185587687Y-68393411D01*
X185433941Y-68475589D01*
X185299183Y-68586183D01*
X185188589Y-68720941D01*
X185106411Y-68874687D01*
X185055805Y-69041510D01*
X185038718Y-69215000D01*
X183740000Y-69215000D01*
X183740000Y-67852072D01*
X184775000Y-67852072D01*
X184899482Y-67839812D01*
X185019180Y-67803502D01*
X185129494Y-67744537D01*
X185226185Y-67665185D01*
X185305537Y-67568494D01*
X185364502Y-67458180D01*
X185367287Y-67449000D01*
X185491248Y-67449000D01*
X185547000Y-67454491D01*
X185602751Y-67449000D01*
X185602752Y-67449000D01*
X185769499Y-67432577D01*
X185983447Y-67367676D01*
X186180623Y-67262284D01*
X186353449Y-67120449D01*
X186495284Y-66947623D01*
X186600676Y-66750447D01*
X186665577Y-66536499D01*
X186687491Y-66314000D01*
X186682000Y-66258248D01*
X186682000Y-60439992D01*
X187770000Y-60439992D01*
X187770000Y-61353008D01*
X187948120Y-62248480D01*
X188297516Y-63091996D01*
X188804760Y-63851140D01*
X189450360Y-64496740D01*
X190209504Y-65003984D01*
X191053020Y-65353380D01*
X191948492Y-65531500D01*
X192861508Y-65531500D01*
X193756980Y-65353380D01*
X194600496Y-65003984D01*
X195359640Y-64496740D01*
X196005240Y-63851140D01*
X196512484Y-63091996D01*
X196861880Y-62248480D01*
X197040000Y-61353008D01*
X197040000Y-60439992D01*
X196861880Y-59544520D01*
X196512484Y-58701004D01*
X196005240Y-57941860D01*
X195359640Y-57296260D01*
X194600496Y-56789016D01*
X193756980Y-56439620D01*
X192861508Y-56261500D01*
X191948492Y-56261500D01*
X191053020Y-56439620D01*
X190209504Y-56789016D01*
X189450360Y-57296260D01*
X188804760Y-57941860D01*
X188297516Y-58701004D01*
X187948120Y-59544520D01*
X187770000Y-60439992D01*
X186682000Y-60439992D01*
X186682000Y-57078752D01*
X186687491Y-57023000D01*
X186665577Y-56800501D01*
X186600676Y-56586553D01*
X186495284Y-56389377D01*
X186438299Y-56319941D01*
X186353449Y-56216551D01*
X186310140Y-56181008D01*
X185499995Y-55370864D01*
X185464449Y-55327551D01*
X185316948Y-55206500D01*
X197846620Y-55206500D01*
X198095000Y-55454881D01*
X198095001Y-60292571D01*
X198091807Y-60325000D01*
X198104550Y-60454383D01*
X198142290Y-60578793D01*
X198203575Y-60693450D01*
X198286052Y-60793948D01*
X198386550Y-60876425D01*
X198501207Y-60937710D01*
X198625617Y-60975450D01*
X198722581Y-60985000D01*
X198755000Y-60988193D01*
X198787419Y-60985000D01*
X203942620Y-60985000D01*
X204191000Y-61233381D01*
X204191001Y-134346618D01*
X203942620Y-134595000D01*
X198787419Y-134595000D01*
X198755000Y-134591807D01*
X198722581Y-134595000D01*
X198625617Y-134604550D01*
X198501207Y-134642290D01*
X198386550Y-134703575D01*
X198286052Y-134786052D01*
X198203575Y-134886550D01*
X198142290Y-135001207D01*
X198104550Y-135125617D01*
X198091807Y-135255000D01*
X198095000Y-135287419D01*
X198095001Y-140061618D01*
X197846620Y-140310000D01*
X99333381Y-140310000D01*
X99085000Y-140061620D01*
X99085000Y-135350919D01*
X99088193Y-135318500D01*
X99075450Y-135189117D01*
X99037710Y-135064707D01*
X98976425Y-134950050D01*
X98893948Y-134849552D01*
X98793450Y-134767075D01*
X98678793Y-134705790D01*
X98554383Y-134668050D01*
X98457419Y-134658500D01*
X98425000Y-134655307D01*
X98392581Y-134658500D01*
X93237381Y-134658500D01*
X92989000Y-134410120D01*
X92989000Y-134163492D01*
X100140000Y-134163492D01*
X100140000Y-135076508D01*
X100318120Y-135971980D01*
X100667516Y-136815496D01*
X101174760Y-137574640D01*
X101820360Y-138220240D01*
X102579504Y-138727484D01*
X103423020Y-139076880D01*
X104318492Y-139255000D01*
X105231508Y-139255000D01*
X105867468Y-139128500D01*
X138747219Y-139128500D01*
X138764305Y-139301990D01*
X138814912Y-139468813D01*
X138897090Y-139622559D01*
X139007683Y-139757317D01*
X139142441Y-139867910D01*
X139296187Y-139950088D01*
X139463010Y-140000695D01*
X139636500Y-140017781D01*
X139809990Y-140000695D01*
X139976813Y-139950088D01*
X140130559Y-139867910D01*
X140231546Y-139785032D01*
X142558578Y-137458000D01*
X143851928Y-137458000D01*
X143851928Y-137858000D01*
X143868031Y-138021500D01*
X143915722Y-138178716D01*
X143993169Y-138323608D01*
X144097394Y-138450606D01*
X144224392Y-138554831D01*
X144369284Y-138632278D01*
X144526500Y-138679969D01*
X144690000Y-138696072D01*
X146350000Y-138696072D01*
X146513500Y-138679969D01*
X146670716Y-138632278D01*
X146815608Y-138554831D01*
X146929941Y-138461000D01*
X147363477Y-138461000D01*
X147493490Y-138448195D01*
X147660313Y-138397589D01*
X147814059Y-138315411D01*
X147948817Y-138204817D01*
X148059411Y-138070059D01*
X148141589Y-137916313D01*
X148192195Y-137749490D01*
X148209282Y-137576000D01*
X149005718Y-137576000D01*
X149022805Y-137749490D01*
X149073411Y-137916313D01*
X149155589Y-138070059D01*
X149266183Y-138204817D01*
X149400941Y-138315411D01*
X149554687Y-138397589D01*
X149721510Y-138448195D01*
X149851523Y-138461000D01*
X150250059Y-138461000D01*
X150364392Y-138554831D01*
X150509284Y-138632278D01*
X150666500Y-138679969D01*
X150830000Y-138696072D01*
X152490000Y-138696072D01*
X152653500Y-138679969D01*
X152810716Y-138632278D01*
X152955608Y-138554831D01*
X153082606Y-138450606D01*
X153164001Y-138351427D01*
X153164000Y-138781461D01*
X153161878Y-138784637D01*
X153097049Y-138941147D01*
X153064000Y-139107297D01*
X153064000Y-139276703D01*
X153097049Y-139442853D01*
X153161878Y-139599363D01*
X153255995Y-139740218D01*
X153375782Y-139860005D01*
X153516637Y-139954122D01*
X153673147Y-140018951D01*
X153839297Y-140052000D01*
X154008703Y-140052000D01*
X154174853Y-140018951D01*
X154331363Y-139954122D01*
X154472218Y-139860005D01*
X154592005Y-139740218D01*
X154635146Y-139675654D01*
X154708589Y-139813058D01*
X154819183Y-139947817D01*
X154953941Y-140058411D01*
X155107687Y-140140589D01*
X155274510Y-140191195D01*
X155448000Y-140208282D01*
X155621489Y-140191195D01*
X155788312Y-140140589D01*
X155942058Y-140058411D01*
X156076817Y-139947817D01*
X156187411Y-139813059D01*
X156269589Y-139659313D01*
X156320195Y-139492490D01*
X156333000Y-139362477D01*
X156333000Y-137584466D01*
X156337281Y-137540999D01*
X156333000Y-137497533D01*
X156333000Y-137497523D01*
X156320195Y-137367510D01*
X156269589Y-137200687D01*
X156187411Y-137046941D01*
X156163210Y-137017452D01*
X156104532Y-136945953D01*
X156104530Y-136945951D01*
X156076817Y-136912183D01*
X156043049Y-136884470D01*
X153945534Y-134786956D01*
X153917817Y-134753183D01*
X153783059Y-134642589D01*
X153629313Y-134560411D01*
X153462490Y-134509805D01*
X153332477Y-134497000D01*
X153332469Y-134497000D01*
X153289000Y-134492719D01*
X153245531Y-134497000D01*
X152835557Y-134497000D01*
X152810716Y-134483722D01*
X152653500Y-134436031D01*
X152490000Y-134419928D01*
X150830000Y-134419928D01*
X150666500Y-134436031D01*
X150509284Y-134483722D01*
X150364392Y-134561169D01*
X150237394Y-134665394D01*
X150133169Y-134792392D01*
X150055722Y-134937284D01*
X150008031Y-135094500D01*
X149991928Y-135258000D01*
X149991928Y-135658000D01*
X150008031Y-135821500D01*
X150055722Y-135978716D01*
X150133169Y-136123608D01*
X150237394Y-136250606D01*
X150364392Y-136354831D01*
X150509284Y-136432278D01*
X150666500Y-136479969D01*
X150830000Y-136496072D01*
X152490000Y-136496072D01*
X152653500Y-136479969D01*
X152810716Y-136432278D01*
X152955608Y-136354831D01*
X152985621Y-136330200D01*
X153737642Y-137082220D01*
X153673147Y-137095049D01*
X153516637Y-137159878D01*
X153375782Y-137253995D01*
X153314059Y-137315718D01*
X153311969Y-137294500D01*
X153264278Y-137137284D01*
X153186831Y-136992392D01*
X153082606Y-136865394D01*
X152955608Y-136761169D01*
X152810716Y-136683722D01*
X152653500Y-136636031D01*
X152490000Y-136619928D01*
X150830000Y-136619928D01*
X150666500Y-136636031D01*
X150509284Y-136683722D01*
X150495668Y-136691000D01*
X149851523Y-136691000D01*
X149721510Y-136703805D01*
X149554687Y-136754411D01*
X149400941Y-136836589D01*
X149266183Y-136947183D01*
X149155589Y-137081941D01*
X149073411Y-137235687D01*
X149022805Y-137402510D01*
X149005718Y-137576000D01*
X148209282Y-137576000D01*
X148192195Y-137402510D01*
X148141589Y-137235687D01*
X148059411Y-137081941D01*
X147948817Y-136947183D01*
X147814059Y-136836589D01*
X147660313Y-136754411D01*
X147493490Y-136703805D01*
X147363477Y-136691000D01*
X146684332Y-136691000D01*
X146670716Y-136683722D01*
X146513500Y-136636031D01*
X146350000Y-136619928D01*
X144690000Y-136619928D01*
X144526500Y-136636031D01*
X144369284Y-136683722D01*
X144224392Y-136761169D01*
X144097394Y-136865394D01*
X143993169Y-136992392D01*
X143915722Y-137137284D01*
X143868031Y-137294500D01*
X143851928Y-137458000D01*
X142558578Y-137458000D01*
X143755579Y-136261000D01*
X144110059Y-136261000D01*
X144224392Y-136354831D01*
X144369284Y-136432278D01*
X144526500Y-136479969D01*
X144690000Y-136496072D01*
X146350000Y-136496072D01*
X146513500Y-136479969D01*
X146670716Y-136432278D01*
X146815608Y-136354831D01*
X146942606Y-136250606D01*
X147046831Y-136123608D01*
X147124278Y-135978716D01*
X147171969Y-135821500D01*
X147188072Y-135658000D01*
X147188072Y-135258000D01*
X147171969Y-135094500D01*
X147124278Y-134937284D01*
X147046831Y-134792392D01*
X146942606Y-134665394D01*
X146815608Y-134561169D01*
X146670716Y-134483722D01*
X146513500Y-134436031D01*
X146350000Y-134419928D01*
X144690000Y-134419928D01*
X144526500Y-134436031D01*
X144369284Y-134483722D01*
X144355668Y-134491000D01*
X143432465Y-134491000D01*
X143388999Y-134486719D01*
X143345533Y-134491000D01*
X143345523Y-134491000D01*
X143215510Y-134503805D01*
X143048687Y-134554411D01*
X142894941Y-134636589D01*
X142887630Y-134642589D01*
X142793953Y-134719468D01*
X142793951Y-134719470D01*
X142760183Y-134747183D01*
X142732470Y-134780951D01*
X138979968Y-138533454D01*
X138897090Y-138634441D01*
X138814912Y-138788187D01*
X138764305Y-138955010D01*
X138747219Y-139128500D01*
X105867468Y-139128500D01*
X106126980Y-139076880D01*
X106970496Y-138727484D01*
X107729640Y-138220240D01*
X108375240Y-137574640D01*
X108882484Y-136815496D01*
X109231880Y-135971980D01*
X109410000Y-135076508D01*
X109410000Y-134163492D01*
X109231880Y-133268020D01*
X108882484Y-132424504D01*
X108375240Y-131665360D01*
X107729640Y-131019760D01*
X106970496Y-130512516D01*
X106126980Y-130163120D01*
X105231508Y-129985000D01*
X104318492Y-129985000D01*
X103423020Y-130163120D01*
X102579504Y-130512516D01*
X101820360Y-131019760D01*
X101174760Y-131665360D01*
X100667516Y-132424504D01*
X100318120Y-133268020D01*
X100140000Y-134163492D01*
X92989000Y-134163492D01*
X92989000Y-112579999D01*
X104586928Y-112579999D01*
X104586928Y-113480001D01*
X104603992Y-113653255D01*
X104654528Y-113819851D01*
X104736595Y-113973387D01*
X104847038Y-114107962D01*
X104981613Y-114218405D01*
X105135149Y-114300472D01*
X105301745Y-114351008D01*
X105474999Y-114368072D01*
X106125001Y-114368072D01*
X106298255Y-114351008D01*
X106464851Y-114300472D01*
X106618387Y-114218405D01*
X106752962Y-114107962D01*
X106863405Y-113973387D01*
X106945472Y-113819851D01*
X106948718Y-113809150D01*
X107064147Y-113856963D01*
X107230297Y-113890012D01*
X107399703Y-113890012D01*
X107565853Y-113856963D01*
X107722363Y-113792134D01*
X107863218Y-113698017D01*
X107980938Y-113580297D01*
X114075000Y-113580297D01*
X114075000Y-113749703D01*
X114108049Y-113915853D01*
X114172878Y-114072363D01*
X114266995Y-114213218D01*
X114386782Y-114333005D01*
X114527637Y-114427122D01*
X114684147Y-114491951D01*
X114850297Y-114525000D01*
X115019703Y-114525000D01*
X115185853Y-114491951D01*
X115301279Y-114444140D01*
X115304528Y-114454851D01*
X115386595Y-114608387D01*
X115497038Y-114742962D01*
X115631613Y-114853405D01*
X115785149Y-114935472D01*
X115951745Y-114986008D01*
X116124999Y-115003072D01*
X116775001Y-115003072D01*
X116948255Y-114986008D01*
X117114851Y-114935472D01*
X117268387Y-114853405D01*
X117402962Y-114742962D01*
X117513405Y-114608387D01*
X117595472Y-114454851D01*
X117646008Y-114288255D01*
X117663072Y-114115001D01*
X117663072Y-113214999D01*
X117646008Y-113041745D01*
X117595472Y-112875149D01*
X117513405Y-112721613D01*
X117402962Y-112587038D01*
X117335000Y-112531263D01*
X117335000Y-111623737D01*
X117402962Y-111567962D01*
X117513405Y-111433387D01*
X117595472Y-111279851D01*
X117646008Y-111113255D01*
X117663072Y-110940001D01*
X117663072Y-110039999D01*
X117646008Y-109866745D01*
X117595472Y-109700149D01*
X117513405Y-109546613D01*
X117402962Y-109412038D01*
X117268387Y-109301595D01*
X117114851Y-109219528D01*
X116948255Y-109168992D01*
X116775001Y-109151928D01*
X116124999Y-109151928D01*
X115951745Y-109168992D01*
X115785149Y-109219528D01*
X115631613Y-109301595D01*
X115497038Y-109412038D01*
X115386595Y-109546613D01*
X115304528Y-109700149D01*
X115253992Y-109866745D01*
X115236928Y-110039999D01*
X115236928Y-110940001D01*
X115253992Y-111113255D01*
X115304528Y-111279851D01*
X115386595Y-111433387D01*
X115497038Y-111567962D01*
X115565001Y-111623738D01*
X115565000Y-112531263D01*
X115497038Y-112587038D01*
X115386595Y-112721613D01*
X115304528Y-112875149D01*
X115301279Y-112885860D01*
X115185853Y-112838049D01*
X115019703Y-112805000D01*
X114850297Y-112805000D01*
X114684147Y-112838049D01*
X114527637Y-112902878D01*
X114386782Y-112996995D01*
X114266995Y-113116782D01*
X114172878Y-113257637D01*
X114108049Y-113414147D01*
X114075000Y-113580297D01*
X107980938Y-113580297D01*
X107983005Y-113578230D01*
X108077122Y-113437375D01*
X108141951Y-113280865D01*
X108175000Y-113114715D01*
X108175000Y-112945309D01*
X108141951Y-112779159D01*
X108077122Y-112622649D01*
X107983005Y-112481794D01*
X107863218Y-112362007D01*
X107722363Y-112267890D01*
X107565853Y-112203061D01*
X107399703Y-112170012D01*
X107230297Y-112170012D01*
X107064147Y-112203061D01*
X106948724Y-112250871D01*
X106945472Y-112240149D01*
X106863405Y-112086613D01*
X106752962Y-111952038D01*
X106618387Y-111841595D01*
X106464851Y-111759528D01*
X106298255Y-111708992D01*
X106125001Y-111691928D01*
X105474999Y-111691928D01*
X105301745Y-111708992D01*
X105135149Y-111759528D01*
X104981613Y-111841595D01*
X104847038Y-111952038D01*
X104736595Y-112086613D01*
X104654528Y-112240149D01*
X104603992Y-112406745D01*
X104586928Y-112579999D01*
X92989000Y-112579999D01*
X92989000Y-104613967D01*
X98377500Y-104613967D01*
X98377500Y-104936033D01*
X98440332Y-105251912D01*
X98563582Y-105549463D01*
X98742513Y-105817252D01*
X98970248Y-106044987D01*
X99238037Y-106223918D01*
X99535588Y-106347168D01*
X99851467Y-106410000D01*
X100173533Y-106410000D01*
X100489412Y-106347168D01*
X100786963Y-106223918D01*
X101054752Y-106044987D01*
X101282487Y-105817252D01*
X101461418Y-105549463D01*
X101476190Y-105513799D01*
X121841565Y-105513799D01*
X121845001Y-105548686D01*
X121845000Y-135958921D01*
X121841565Y-135993798D01*
X121855273Y-136132982D01*
X121895872Y-136266818D01*
X121961800Y-136390161D01*
X122050525Y-136498273D01*
X122146084Y-136576696D01*
X122158637Y-136586998D01*
X122281980Y-136652926D01*
X122415816Y-136693525D01*
X122555000Y-136707233D01*
X122589877Y-136703798D01*
X135977244Y-136703798D01*
X136012121Y-136707233D01*
X136046998Y-136703798D01*
X136151305Y-136693525D01*
X136285141Y-136652926D01*
X136408484Y-136586998D01*
X136516596Y-136498273D01*
X136605321Y-136390161D01*
X136671249Y-136266818D01*
X136711848Y-136132982D01*
X136725556Y-135993798D01*
X136722121Y-135958921D01*
X136722121Y-117521999D01*
X139631928Y-117521999D01*
X139631928Y-118172001D01*
X139648992Y-118345255D01*
X139699528Y-118511851D01*
X139781595Y-118665387D01*
X139892038Y-118799962D01*
X139979816Y-118872000D01*
X139892038Y-118944038D01*
X139781595Y-119078613D01*
X139699528Y-119232149D01*
X139648992Y-119398745D01*
X139631928Y-119571999D01*
X139631928Y-120222001D01*
X139648992Y-120395255D01*
X139699528Y-120561851D01*
X139781595Y-120715387D01*
X139892038Y-120849962D01*
X140026613Y-120960405D01*
X140180149Y-121042472D01*
X140346745Y-121093008D01*
X140519999Y-121110072D01*
X141420001Y-121110072D01*
X141593255Y-121093008D01*
X141759851Y-121042472D01*
X141913387Y-120960405D01*
X142047962Y-120849962D01*
X142158405Y-120715387D01*
X142189614Y-120657000D01*
X144064777Y-120657000D01*
X144048495Y-120673282D01*
X143954378Y-120814137D01*
X143889549Y-120970647D01*
X143888804Y-120974395D01*
X142998998Y-121864201D01*
X142970000Y-121887999D01*
X142946202Y-121916997D01*
X142946201Y-121916998D01*
X142875026Y-122003724D01*
X142804454Y-122135754D01*
X142760998Y-122279015D01*
X142746324Y-122428000D01*
X142750001Y-122465332D01*
X142750000Y-126327677D01*
X142746324Y-126365000D01*
X142750000Y-126402322D01*
X142750000Y-126402332D01*
X142760997Y-126513985D01*
X142799521Y-126640985D01*
X142804454Y-126657246D01*
X142875026Y-126789276D01*
X142895376Y-126814072D01*
X142969999Y-126905001D01*
X142999003Y-126928804D01*
X144851200Y-128781002D01*
X144874999Y-128810001D01*
X144990724Y-128904974D01*
X145122753Y-128975546D01*
X145266014Y-129019003D01*
X145377667Y-129030000D01*
X145377677Y-129030000D01*
X145415000Y-129033676D01*
X145452323Y-129030000D01*
X147009699Y-129030000D01*
X147830000Y-129850302D01*
X147830000Y-130010678D01*
X147826324Y-130048000D01*
X147830000Y-130085322D01*
X147830000Y-130085332D01*
X147830001Y-130085342D01*
X147830000Y-131288461D01*
X147827878Y-131291637D01*
X147763049Y-131448147D01*
X147730000Y-131614297D01*
X147730000Y-131783703D01*
X147763049Y-131949853D01*
X147827878Y-132106363D01*
X147921995Y-132247218D01*
X148012777Y-132338000D01*
X146772262Y-132338000D01*
X146670716Y-132283722D01*
X146513500Y-132236031D01*
X146350000Y-132219928D01*
X144690000Y-132219928D01*
X144526500Y-132236031D01*
X144369284Y-132283722D01*
X144224392Y-132361169D01*
X144097394Y-132465394D01*
X143993169Y-132592392D01*
X143915722Y-132737284D01*
X143868031Y-132894500D01*
X143851928Y-133058000D01*
X143851928Y-133458000D01*
X143868031Y-133621500D01*
X143915722Y-133778716D01*
X143993169Y-133923608D01*
X144097394Y-134050606D01*
X144224392Y-134154831D01*
X144369284Y-134232278D01*
X144526500Y-134279969D01*
X144690000Y-134296072D01*
X146350000Y-134296072D01*
X146513500Y-134279969D01*
X146670716Y-134232278D01*
X146815608Y-134154831D01*
X146872672Y-134108000D01*
X150307328Y-134108000D01*
X150364392Y-134154831D01*
X150509284Y-134232278D01*
X150666500Y-134279969D01*
X150830000Y-134296072D01*
X152490000Y-134296072D01*
X152653500Y-134279969D01*
X152810716Y-134232278D01*
X152955608Y-134154831D01*
X153082606Y-134050606D01*
X153186831Y-133923608D01*
X153264278Y-133778716D01*
X153311969Y-133621500D01*
X153328072Y-133458000D01*
X153328072Y-133058000D01*
X153311969Y-132894500D01*
X153264278Y-132737284D01*
X153186831Y-132592392D01*
X153082606Y-132465394D01*
X152955608Y-132361169D01*
X152810716Y-132283722D01*
X152653500Y-132236031D01*
X152490000Y-132219928D01*
X150830000Y-132219928D01*
X150666500Y-132236031D01*
X150509284Y-132283722D01*
X150407738Y-132338000D01*
X149167223Y-132338000D01*
X149258005Y-132247218D01*
X149352122Y-132106363D01*
X149416951Y-131949853D01*
X149450000Y-131783703D01*
X149450000Y-131614297D01*
X149416951Y-131448147D01*
X149352122Y-131291637D01*
X149350000Y-131288461D01*
X149350000Y-130818000D01*
X150210635Y-130818000D01*
X150237394Y-130850606D01*
X150364392Y-130954831D01*
X150509284Y-131032278D01*
X150666500Y-131079969D01*
X150830000Y-131096072D01*
X152490000Y-131096072D01*
X152653500Y-131079969D01*
X152810716Y-131032278D01*
X152955608Y-130954831D01*
X153082606Y-130850606D01*
X153186831Y-130723608D01*
X153264278Y-130578716D01*
X153311969Y-130421500D01*
X153328072Y-130258000D01*
X153328072Y-129858000D01*
X153311969Y-129694500D01*
X153264278Y-129537284D01*
X153186831Y-129392392D01*
X153082606Y-129265394D01*
X152955608Y-129161169D01*
X152810716Y-129083722D01*
X152653500Y-129036031D01*
X152490000Y-129019928D01*
X150830000Y-129019928D01*
X150666500Y-129036031D01*
X150509284Y-129083722D01*
X150364392Y-129161169D01*
X150237394Y-129265394D01*
X150210635Y-129298000D01*
X149312153Y-129298000D01*
X149295546Y-129243253D01*
X149224974Y-129111224D01*
X149130001Y-128995499D01*
X149101003Y-128971701D01*
X147888304Y-127759003D01*
X147864501Y-127729999D01*
X147748776Y-127635026D01*
X147616747Y-127564454D01*
X147473486Y-127520997D01*
X147361833Y-127510000D01*
X147361822Y-127510000D01*
X147324500Y-127506324D01*
X147287178Y-127510000D01*
X145729802Y-127510000D01*
X144754099Y-126534297D01*
X155985000Y-126534297D01*
X155985000Y-126703703D01*
X156018049Y-126869853D01*
X156082878Y-127026363D01*
X156085001Y-127029540D01*
X156085000Y-128367461D01*
X156082878Y-128370637D01*
X156018049Y-128527147D01*
X155985000Y-128693297D01*
X155985000Y-128862703D01*
X156018049Y-129028853D01*
X156082878Y-129185363D01*
X156176995Y-129326218D01*
X156296782Y-129446005D01*
X156437637Y-129540122D01*
X156594147Y-129604951D01*
X156760297Y-129638000D01*
X156929703Y-129638000D01*
X157095853Y-129604951D01*
X157252363Y-129540122D01*
X157289500Y-129515308D01*
X157326637Y-129540122D01*
X157483147Y-129604951D01*
X157649297Y-129638000D01*
X157818703Y-129638000D01*
X157984853Y-129604951D01*
X158141363Y-129540122D01*
X158178500Y-129515308D01*
X158215637Y-129540122D01*
X158372147Y-129604951D01*
X158538297Y-129638000D01*
X158625000Y-129638000D01*
X158625000Y-129733198D01*
X158181199Y-130177000D01*
X157890539Y-130177000D01*
X157887363Y-130174878D01*
X157730853Y-130110049D01*
X157564703Y-130077000D01*
X157395297Y-130077000D01*
X157229147Y-130110049D01*
X157072637Y-130174878D01*
X156931782Y-130268995D01*
X156811995Y-130388782D01*
X156717878Y-130529637D01*
X156653049Y-130686147D01*
X156620000Y-130852297D01*
X156620000Y-131021703D01*
X156653049Y-131187853D01*
X156717878Y-131344363D01*
X156811995Y-131485218D01*
X156931782Y-131605005D01*
X157072637Y-131699122D01*
X157229147Y-131763951D01*
X157395297Y-131797000D01*
X157564703Y-131797000D01*
X157730853Y-131763951D01*
X157887363Y-131699122D01*
X157890539Y-131697000D01*
X158458678Y-131697000D01*
X158496000Y-131700676D01*
X158533322Y-131697000D01*
X158533333Y-131697000D01*
X158644986Y-131686003D01*
X158788247Y-131642546D01*
X158920276Y-131571974D01*
X159036001Y-131477001D01*
X159059803Y-131447998D01*
X159896004Y-130611798D01*
X159925001Y-130588001D01*
X160019974Y-130472276D01*
X160090546Y-130340247D01*
X160134003Y-130196986D01*
X160145000Y-130085333D01*
X160145000Y-130085323D01*
X160148676Y-130048000D01*
X160145000Y-130010677D01*
X160145000Y-129188539D01*
X160147122Y-129185363D01*
X160211951Y-129028853D01*
X160212697Y-129025105D01*
X160658004Y-128579798D01*
X160680876Y-128561027D01*
X160680876Y-135648655D01*
X160677441Y-135683532D01*
X160691149Y-135822716D01*
X160731748Y-135956552D01*
X160797676Y-136079895D01*
X160886401Y-136188007D01*
X160994513Y-136276732D01*
X161117856Y-136342660D01*
X161251692Y-136383259D01*
X161390876Y-136396967D01*
X161425753Y-136393532D01*
X174844123Y-136393532D01*
X174879000Y-136396967D01*
X174913877Y-136393532D01*
X174948105Y-136390161D01*
X175018184Y-136383259D01*
X175152020Y-136342660D01*
X175275363Y-136276732D01*
X175383475Y-136188007D01*
X175472200Y-136079895D01*
X175538128Y-135956552D01*
X175578727Y-135822716D01*
X175589000Y-135718409D01*
X175589000Y-135718408D01*
X175592435Y-135683532D01*
X175589000Y-135648655D01*
X175589000Y-134163492D01*
X187770000Y-134163492D01*
X187770000Y-135076508D01*
X187948120Y-135971980D01*
X188297516Y-136815496D01*
X188804760Y-137574640D01*
X189450360Y-138220240D01*
X190209504Y-138727484D01*
X191053020Y-139076880D01*
X191948492Y-139255000D01*
X192861508Y-139255000D01*
X193756980Y-139076880D01*
X194600496Y-138727484D01*
X195359640Y-138220240D01*
X196005240Y-137574640D01*
X196512484Y-136815496D01*
X196861880Y-135971980D01*
X197040000Y-135076508D01*
X197040000Y-134163492D01*
X196861880Y-133268020D01*
X196512484Y-132424504D01*
X196005240Y-131665360D01*
X195359640Y-131019760D01*
X194600496Y-130512516D01*
X193756980Y-130163120D01*
X192861508Y-129985000D01*
X191948492Y-129985000D01*
X191053020Y-130163120D01*
X190209504Y-130512516D01*
X189450360Y-131019760D01*
X188804760Y-131665360D01*
X188297516Y-132424504D01*
X187948120Y-133268020D01*
X187770000Y-134163492D01*
X175589000Y-134163492D01*
X175589000Y-126041999D01*
X177992928Y-126041999D01*
X177992928Y-126942001D01*
X178009992Y-127115255D01*
X178060528Y-127281851D01*
X178142595Y-127435387D01*
X178253038Y-127569962D01*
X178387613Y-127680405D01*
X178541149Y-127762472D01*
X178707745Y-127813008D01*
X178880999Y-127830072D01*
X179531001Y-127830072D01*
X179704255Y-127813008D01*
X179870851Y-127762472D01*
X180024387Y-127680405D01*
X180158962Y-127569962D01*
X180269405Y-127435387D01*
X180322080Y-127336840D01*
X180398297Y-127352000D01*
X180567703Y-127352000D01*
X180733853Y-127318951D01*
X180890363Y-127254122D01*
X181031218Y-127160005D01*
X181151005Y-127040218D01*
X181245122Y-126899363D01*
X181309951Y-126742853D01*
X181343000Y-126576703D01*
X181343000Y-126407297D01*
X181309951Y-126241147D01*
X181245122Y-126084637D01*
X181151005Y-125943782D01*
X181031218Y-125823995D01*
X180890363Y-125729878D01*
X180733853Y-125665049D01*
X180567703Y-125632000D01*
X180398297Y-125632000D01*
X180322080Y-125647160D01*
X180269405Y-125548613D01*
X180158962Y-125414038D01*
X180121505Y-125383297D01*
X186711000Y-125383297D01*
X186711000Y-125552703D01*
X186744049Y-125718853D01*
X186808878Y-125875363D01*
X186902995Y-126016218D01*
X187022782Y-126136005D01*
X187163637Y-126230122D01*
X187320147Y-126294951D01*
X187486297Y-126328000D01*
X187655703Y-126328000D01*
X187821853Y-126294951D01*
X187942230Y-126245089D01*
X187948528Y-126265851D01*
X188030595Y-126419387D01*
X188141038Y-126553962D01*
X188275613Y-126664405D01*
X188429149Y-126746472D01*
X188595745Y-126797008D01*
X188768999Y-126814072D01*
X189419001Y-126814072D01*
X189592255Y-126797008D01*
X189758851Y-126746472D01*
X189912387Y-126664405D01*
X190046962Y-126553962D01*
X190157405Y-126419387D01*
X190239472Y-126265851D01*
X190290008Y-126099255D01*
X190307072Y-125926001D01*
X190307072Y-125025999D01*
X190290008Y-124852745D01*
X190239472Y-124686149D01*
X190229000Y-124666557D01*
X190229000Y-123872443D01*
X190239472Y-123852851D01*
X190290008Y-123686255D01*
X190307072Y-123513001D01*
X190307072Y-122612999D01*
X190290008Y-122439745D01*
X190239472Y-122273149D01*
X190157405Y-122119613D01*
X190046962Y-121985038D01*
X189912387Y-121874595D01*
X189758851Y-121792528D01*
X189592255Y-121741992D01*
X189419001Y-121724928D01*
X188768999Y-121724928D01*
X188595745Y-121741992D01*
X188429149Y-121792528D01*
X188275613Y-121874595D01*
X188141038Y-121985038D01*
X188030595Y-122119613D01*
X187948528Y-122273149D01*
X187897992Y-122439745D01*
X187880928Y-122612999D01*
X187880928Y-123513001D01*
X187897992Y-123686255D01*
X187948528Y-123852851D01*
X187959001Y-123872444D01*
X187959000Y-124666557D01*
X187948528Y-124686149D01*
X187946542Y-124692697D01*
X187821853Y-124641049D01*
X187655703Y-124608000D01*
X187486297Y-124608000D01*
X187320147Y-124641049D01*
X187163637Y-124705878D01*
X187022782Y-124799995D01*
X186902995Y-124919782D01*
X186808878Y-125060637D01*
X186744049Y-125217147D01*
X186711000Y-125383297D01*
X180121505Y-125383297D01*
X180024387Y-125303595D01*
X179870851Y-125221528D01*
X179704255Y-125170992D01*
X179531001Y-125153928D01*
X178880999Y-125153928D01*
X178707745Y-125170992D01*
X178541149Y-125221528D01*
X178387613Y-125303595D01*
X178253038Y-125414038D01*
X178142595Y-125548613D01*
X178060528Y-125702149D01*
X178009992Y-125868745D01*
X177992928Y-126041999D01*
X175589000Y-126041999D01*
X175589000Y-120396000D01*
X195833719Y-120396000D01*
X195838000Y-120439469D01*
X195838000Y-120439476D01*
X195847110Y-120531974D01*
X195850234Y-120563687D01*
X195850805Y-120569489D01*
X195901411Y-120736312D01*
X195983589Y-120890058D01*
X196094183Y-121024817D01*
X196127956Y-121052534D01*
X196574466Y-121499044D01*
X196602183Y-121532817D01*
X196736941Y-121643411D01*
X196890687Y-121725589D01*
X197057510Y-121776195D01*
X197187523Y-121789000D01*
X197187533Y-121789000D01*
X197230999Y-121793281D01*
X197274465Y-121789000D01*
X199814477Y-121789000D01*
X199944490Y-121776195D01*
X200111313Y-121725589D01*
X200265059Y-121643411D01*
X200399817Y-121532817D01*
X200510411Y-121398059D01*
X200592589Y-121244313D01*
X200643195Y-121077490D01*
X200660282Y-120904000D01*
X200643195Y-120730510D01*
X200592589Y-120563687D01*
X200510411Y-120409941D01*
X200399817Y-120275183D01*
X200265059Y-120164589D01*
X200111313Y-120082411D01*
X199944490Y-120031805D01*
X199814477Y-120019000D01*
X197608000Y-120019000D01*
X197608000Y-119590523D01*
X197595195Y-119460510D01*
X197544589Y-119293687D01*
X197462411Y-119139941D01*
X197351817Y-119005183D01*
X197217059Y-118894589D01*
X197063313Y-118812411D01*
X196896490Y-118761805D01*
X196723000Y-118744718D01*
X196549511Y-118761805D01*
X196382688Y-118812411D01*
X196228942Y-118894589D01*
X196094184Y-119005183D01*
X195983590Y-119139941D01*
X195901412Y-119293687D01*
X195850805Y-119460510D01*
X195838000Y-119590523D01*
X195838000Y-120352531D01*
X195833719Y-120396000D01*
X175589000Y-120396000D01*
X175589000Y-105238410D01*
X175592435Y-105203533D01*
X175578727Y-105064349D01*
X175538128Y-104930513D01*
X175472200Y-104807170D01*
X175383475Y-104699058D01*
X175275363Y-104610333D01*
X175152020Y-104544405D01*
X175018184Y-104503806D01*
X174913877Y-104493533D01*
X174879000Y-104490098D01*
X174844123Y-104493533D01*
X161425753Y-104493533D01*
X161390876Y-104490098D01*
X161355999Y-104493533D01*
X161251692Y-104503806D01*
X161117856Y-104544405D01*
X160994513Y-104610333D01*
X160886401Y-104699058D01*
X160797676Y-104807170D01*
X160731748Y-104930513D01*
X160691149Y-105064349D01*
X160677441Y-105203533D01*
X160680877Y-105238420D01*
X160680876Y-125941412D01*
X160554363Y-125856878D01*
X160397853Y-125792049D01*
X160231703Y-125759000D01*
X160062297Y-125759000D01*
X159896147Y-125792049D01*
X159739637Y-125856878D01*
X159598782Y-125950995D01*
X159478995Y-126070782D01*
X159385000Y-126211454D01*
X159291005Y-126070782D01*
X159171218Y-125950995D01*
X159030363Y-125856878D01*
X158873853Y-125792049D01*
X158707703Y-125759000D01*
X158538297Y-125759000D01*
X158372147Y-125792049D01*
X158215637Y-125856878D01*
X158178500Y-125881692D01*
X158141363Y-125856878D01*
X157984853Y-125792049D01*
X157818703Y-125759000D01*
X157649297Y-125759000D01*
X157483147Y-125792049D01*
X157326637Y-125856878D01*
X157289500Y-125881692D01*
X157252363Y-125856878D01*
X157095853Y-125792049D01*
X156929703Y-125759000D01*
X156760297Y-125759000D01*
X156594147Y-125792049D01*
X156437637Y-125856878D01*
X156296782Y-125950995D01*
X156176995Y-126070782D01*
X156082878Y-126211637D01*
X156018049Y-126368147D01*
X155985000Y-126534297D01*
X144754099Y-126534297D01*
X144270000Y-126050199D01*
X144270000Y-123871999D01*
X146362928Y-123871999D01*
X146362928Y-124522001D01*
X146379992Y-124695255D01*
X146430528Y-124861851D01*
X146512595Y-125015387D01*
X146623038Y-125149962D01*
X146757613Y-125260405D01*
X146911149Y-125342472D01*
X147077745Y-125393008D01*
X147250999Y-125410072D01*
X148151001Y-125410072D01*
X148324255Y-125393008D01*
X148490851Y-125342472D01*
X148644387Y-125260405D01*
X148778962Y-125149962D01*
X148889405Y-125015387D01*
X148971472Y-124861851D01*
X149022008Y-124695255D01*
X149039072Y-124522001D01*
X149039072Y-123871999D01*
X149022008Y-123698745D01*
X148971472Y-123532149D01*
X148889405Y-123378613D01*
X148778962Y-123244038D01*
X148644387Y-123133595D01*
X148605000Y-123112542D01*
X148605000Y-123061297D01*
X148571951Y-122895147D01*
X148507122Y-122738637D01*
X148413005Y-122597782D01*
X148293218Y-122477995D01*
X148152363Y-122383878D01*
X147995853Y-122319049D01*
X147829703Y-122286000D01*
X147660297Y-122286000D01*
X147494147Y-122319049D01*
X147337637Y-122383878D01*
X147196782Y-122477995D01*
X147076995Y-122597782D01*
X146982878Y-122738637D01*
X146918049Y-122895147D01*
X146885000Y-123061297D01*
X146885000Y-123065505D01*
X146757613Y-123133595D01*
X146623038Y-123244038D01*
X146512595Y-123378613D01*
X146430528Y-123532149D01*
X146379992Y-123698745D01*
X146362928Y-123871999D01*
X144270000Y-123871999D01*
X144270000Y-122742801D01*
X144963605Y-122049196D01*
X144967353Y-122048451D01*
X145123863Y-121983622D01*
X145264718Y-121889505D01*
X145384505Y-121769718D01*
X145478622Y-121628863D01*
X145543451Y-121472353D01*
X145576500Y-121306203D01*
X145576500Y-121136797D01*
X145543451Y-120970647D01*
X145478622Y-120814137D01*
X145384505Y-120673282D01*
X145368223Y-120657000D01*
X146675242Y-120657000D01*
X146815147Y-120714951D01*
X146981297Y-120748000D01*
X147150703Y-120748000D01*
X147316853Y-120714951D01*
X147473363Y-120650122D01*
X147614218Y-120556005D01*
X147734005Y-120436218D01*
X147828122Y-120295363D01*
X147892951Y-120138853D01*
X147926000Y-119972703D01*
X147926000Y-119803297D01*
X147892951Y-119637147D01*
X147828122Y-119480637D01*
X147734005Y-119339782D01*
X147614218Y-119219995D01*
X147473363Y-119125878D01*
X147362604Y-119080000D01*
X159010678Y-119080000D01*
X159048000Y-119083676D01*
X159085322Y-119080000D01*
X159085333Y-119080000D01*
X159196986Y-119069003D01*
X159340247Y-119025546D01*
X159472276Y-118954974D01*
X159588001Y-118860001D01*
X159611803Y-118830998D01*
X159822605Y-118620197D01*
X159826353Y-118619451D01*
X159982863Y-118554622D01*
X160123718Y-118460505D01*
X160243505Y-118340718D01*
X160337622Y-118199863D01*
X160402451Y-118043353D01*
X160435500Y-117877203D01*
X160435500Y-117707797D01*
X160402451Y-117541647D01*
X160337622Y-117385137D01*
X160243505Y-117244282D01*
X160123718Y-117124495D01*
X159982863Y-117030378D01*
X159826353Y-116965549D01*
X159660203Y-116932500D01*
X159490797Y-116932500D01*
X159324647Y-116965549D01*
X159168137Y-117030378D01*
X159027282Y-117124495D01*
X158907495Y-117244282D01*
X158813378Y-117385137D01*
X158748549Y-117541647D01*
X158747803Y-117545395D01*
X158733199Y-117560000D01*
X146416539Y-117560000D01*
X146413363Y-117557878D01*
X146256853Y-117493049D01*
X146090703Y-117460000D01*
X145921297Y-117460000D01*
X145755147Y-117493049D01*
X145598637Y-117557878D01*
X145457782Y-117651995D01*
X145337995Y-117771782D01*
X145243878Y-117912637D01*
X145179049Y-118069147D01*
X145146000Y-118235297D01*
X145146000Y-118404703D01*
X145179049Y-118570853D01*
X145243878Y-118727363D01*
X145337995Y-118868218D01*
X145457782Y-118988005D01*
X145598637Y-119082122D01*
X145731123Y-119137000D01*
X142189614Y-119137000D01*
X142158405Y-119078613D01*
X142047962Y-118944038D01*
X141960184Y-118872000D01*
X142047962Y-118799962D01*
X142158405Y-118665387D01*
X142189614Y-118607000D01*
X143090461Y-118607000D01*
X143093637Y-118609122D01*
X143250147Y-118673951D01*
X143416297Y-118707000D01*
X143585703Y-118707000D01*
X143751853Y-118673951D01*
X143908363Y-118609122D01*
X144049218Y-118515005D01*
X144169005Y-118395218D01*
X144263122Y-118254363D01*
X144327951Y-118097853D01*
X144361000Y-117931703D01*
X144361000Y-117762297D01*
X144327951Y-117596147D01*
X144263122Y-117439637D01*
X144169005Y-117298782D01*
X144091219Y-117220996D01*
X144178005Y-117134210D01*
X144272122Y-116993355D01*
X144336951Y-116836845D01*
X144370000Y-116670695D01*
X144370000Y-116501289D01*
X144336951Y-116335139D01*
X144280619Y-116199143D01*
X144336955Y-116063138D01*
X144370004Y-115896988D01*
X144370004Y-115727582D01*
X144336955Y-115561432D01*
X144272126Y-115404922D01*
X144178009Y-115264067D01*
X144058222Y-115144280D01*
X143917367Y-115050163D01*
X143760857Y-114985334D01*
X143594707Y-114952285D01*
X143425301Y-114952285D01*
X143259151Y-114985334D01*
X143102641Y-115050163D01*
X143099465Y-115052285D01*
X142328683Y-115052285D01*
X142325495Y-115049097D01*
X142324749Y-115045349D01*
X142259920Y-114888839D01*
X142165803Y-114747984D01*
X142046016Y-114628197D01*
X141905161Y-114534080D01*
X141748651Y-114469251D01*
X141582501Y-114436202D01*
X141413095Y-114436202D01*
X141246945Y-114469251D01*
X141146501Y-114510857D01*
X141093853Y-114489049D01*
X140927703Y-114456000D01*
X140758297Y-114456000D01*
X140592147Y-114489049D01*
X140435637Y-114553878D01*
X140294782Y-114647995D01*
X140174995Y-114767782D01*
X140080878Y-114908637D01*
X140016049Y-115065147D01*
X139983000Y-115231297D01*
X139983000Y-115400703D01*
X140016049Y-115566853D01*
X140080878Y-115723363D01*
X140082101Y-115725193D01*
X140083000Y-115734322D01*
X140083000Y-115734332D01*
X140093997Y-115845985D01*
X140125858Y-115951018D01*
X140137454Y-115989246D01*
X140208026Y-116121276D01*
X140241215Y-116161716D01*
X140302999Y-116237001D01*
X140332002Y-116260803D01*
X140705127Y-116633928D01*
X140519999Y-116633928D01*
X140346745Y-116650992D01*
X140180149Y-116701528D01*
X140026613Y-116783595D01*
X139892038Y-116894038D01*
X139781595Y-117028613D01*
X139699528Y-117182149D01*
X139648992Y-117348745D01*
X139631928Y-117521999D01*
X136722121Y-117521999D01*
X136722121Y-113326297D01*
X139411500Y-113326297D01*
X139411500Y-113495703D01*
X139444549Y-113661853D01*
X139509378Y-113818363D01*
X139603495Y-113959218D01*
X139723282Y-114079005D01*
X139864137Y-114173122D01*
X140020647Y-114237951D01*
X140186797Y-114271000D01*
X140356203Y-114271000D01*
X140522353Y-114237951D01*
X140678863Y-114173122D01*
X140682039Y-114171000D01*
X142774178Y-114171000D01*
X142811500Y-114174676D01*
X142848822Y-114171000D01*
X142848833Y-114171000D01*
X142960486Y-114160003D01*
X143103747Y-114116546D01*
X143235776Y-114045974D01*
X143351501Y-113951001D01*
X143375303Y-113921998D01*
X143820605Y-113476696D01*
X143824353Y-113475951D01*
X143980863Y-113411122D01*
X144121718Y-113317005D01*
X144241505Y-113197218D01*
X144335622Y-113056363D01*
X144400451Y-112899853D01*
X144433500Y-112733703D01*
X144433500Y-112564297D01*
X144400451Y-112398147D01*
X144335622Y-112241637D01*
X144241505Y-112100782D01*
X144121718Y-111980995D01*
X143980863Y-111886878D01*
X143824353Y-111822049D01*
X143658203Y-111789000D01*
X143488797Y-111789000D01*
X143322647Y-111822049D01*
X143166137Y-111886878D01*
X143025282Y-111980995D01*
X142905495Y-112100782D01*
X142811378Y-112241637D01*
X142746549Y-112398147D01*
X142745804Y-112401895D01*
X142496699Y-112651000D01*
X140682039Y-112651000D01*
X140678863Y-112648878D01*
X140522353Y-112584049D01*
X140356203Y-112551000D01*
X140186797Y-112551000D01*
X140020647Y-112584049D01*
X139864137Y-112648878D01*
X139723282Y-112742995D01*
X139603495Y-112862782D01*
X139509378Y-113003637D01*
X139444549Y-113160147D01*
X139411500Y-113326297D01*
X136722121Y-113326297D01*
X136722121Y-105548676D01*
X136725556Y-105513799D01*
X136711848Y-105374615D01*
X136671249Y-105240779D01*
X136605321Y-105117436D01*
X136516596Y-105009324D01*
X136408484Y-104920599D01*
X136285141Y-104854671D01*
X136151305Y-104814072D01*
X136046998Y-104803799D01*
X136012121Y-104800364D01*
X135977244Y-104803799D01*
X122589877Y-104803799D01*
X122555000Y-104800364D01*
X122520123Y-104803799D01*
X122415816Y-104814072D01*
X122281980Y-104854671D01*
X122158637Y-104920599D01*
X122050525Y-105009324D01*
X121961800Y-105117436D01*
X121895872Y-105240779D01*
X121855273Y-105374615D01*
X121841565Y-105513799D01*
X101476190Y-105513799D01*
X101584668Y-105251912D01*
X101647500Y-104936033D01*
X101647500Y-104613967D01*
X101584668Y-104298088D01*
X101461418Y-104000537D01*
X101282487Y-103732748D01*
X101054752Y-103505013D01*
X100786963Y-103326082D01*
X100489412Y-103202832D01*
X100173533Y-103140000D01*
X99851467Y-103140000D01*
X99535588Y-103202832D01*
X99238037Y-103326082D01*
X98970248Y-103505013D01*
X98742513Y-103732748D01*
X98563582Y-104000537D01*
X98440332Y-104298088D01*
X98377500Y-104613967D01*
X92989000Y-104613967D01*
X92989000Y-101961740D01*
X129706000Y-101961740D01*
X129706000Y-102254260D01*
X129763068Y-102541158D01*
X129875010Y-102811411D01*
X130037525Y-103054632D01*
X130244368Y-103261475D01*
X130487589Y-103423990D01*
X130757842Y-103535932D01*
X131044740Y-103593000D01*
X131337260Y-103593000D01*
X131624158Y-103535932D01*
X131894411Y-103423990D01*
X132137632Y-103261475D01*
X132344475Y-103054632D01*
X132506990Y-102811411D01*
X132618932Y-102541158D01*
X132676000Y-102254260D01*
X132676000Y-101961740D01*
X132618932Y-101674842D01*
X132506990Y-101404589D01*
X132344475Y-101161368D01*
X132137632Y-100954525D01*
X131894411Y-100792010D01*
X131624158Y-100680068D01*
X131337260Y-100623000D01*
X131044740Y-100623000D01*
X130757842Y-100680068D01*
X130487589Y-100792010D01*
X130244368Y-100954525D01*
X130037525Y-101161368D01*
X129875010Y-101404589D01*
X129763068Y-101674842D01*
X129706000Y-101961740D01*
X92989000Y-101961740D01*
X92989000Y-93183967D01*
X98377500Y-93183967D01*
X98377500Y-93506033D01*
X98440332Y-93821912D01*
X98563582Y-94119463D01*
X98742513Y-94387252D01*
X98970248Y-94614987D01*
X99238037Y-94793918D01*
X99535588Y-94917168D01*
X99851467Y-94980000D01*
X100173533Y-94980000D01*
X100489412Y-94917168D01*
X100786963Y-94793918D01*
X101054752Y-94614987D01*
X101282487Y-94387252D01*
X101461418Y-94119463D01*
X101584668Y-93821912D01*
X101647500Y-93506033D01*
X101647500Y-93183967D01*
X101637705Y-93134721D01*
X107402500Y-93134721D01*
X107402500Y-93555279D01*
X107484547Y-93967756D01*
X107645488Y-94356302D01*
X107879137Y-94705983D01*
X108176517Y-95003363D01*
X108526198Y-95237012D01*
X108914744Y-95397953D01*
X109327221Y-95480000D01*
X109747779Y-95480000D01*
X110160256Y-95397953D01*
X110548802Y-95237012D01*
X110898483Y-95003363D01*
X111195863Y-94705983D01*
X111429512Y-94356302D01*
X111590453Y-93967756D01*
X111672500Y-93555279D01*
X111672500Y-93207000D01*
X129525928Y-93207000D01*
X129525928Y-95007000D01*
X129538188Y-95131482D01*
X129574498Y-95251180D01*
X129633463Y-95361494D01*
X129712815Y-95458185D01*
X129809506Y-95537537D01*
X129919820Y-95596502D01*
X130039518Y-95632812D01*
X130164000Y-95645072D01*
X131964000Y-95645072D01*
X132088482Y-95632812D01*
X132208180Y-95596502D01*
X132318494Y-95537537D01*
X132415185Y-95458185D01*
X132494537Y-95361494D01*
X132553502Y-95251180D01*
X132589812Y-95131482D01*
X132602072Y-95007000D01*
X132602072Y-93207000D01*
X132589812Y-93082518D01*
X132553502Y-92962820D01*
X132494537Y-92852506D01*
X132415185Y-92755815D01*
X132318494Y-92676463D01*
X132208180Y-92617498D01*
X132088482Y-92581188D01*
X131964000Y-92568928D01*
X130164000Y-92568928D01*
X130039518Y-92581188D01*
X129919820Y-92617498D01*
X129809506Y-92676463D01*
X129712815Y-92755815D01*
X129633463Y-92852506D01*
X129574498Y-92962820D01*
X129538188Y-93082518D01*
X129525928Y-93207000D01*
X111672500Y-93207000D01*
X111672500Y-93134721D01*
X111590453Y-92722244D01*
X111429512Y-92333698D01*
X111195863Y-91984017D01*
X110898483Y-91686637D01*
X110548802Y-91452988D01*
X110160256Y-91292047D01*
X109747779Y-91210000D01*
X109327221Y-91210000D01*
X108914744Y-91292047D01*
X108526198Y-91452988D01*
X108176517Y-91686637D01*
X107879137Y-91984017D01*
X107645488Y-92333698D01*
X107484547Y-92722244D01*
X107402500Y-93134721D01*
X101637705Y-93134721D01*
X101584668Y-92868088D01*
X101461418Y-92570537D01*
X101282487Y-92302748D01*
X101054752Y-92075013D01*
X100786963Y-91896082D01*
X100489412Y-91772832D01*
X100173533Y-91710000D01*
X99851467Y-91710000D01*
X99535588Y-91772832D01*
X99238037Y-91896082D01*
X98970248Y-92075013D01*
X98742513Y-92302748D01*
X98563582Y-92570537D01*
X98440332Y-92868088D01*
X98377500Y-93183967D01*
X92989000Y-93183967D01*
X92989000Y-87478816D01*
X129529000Y-87478816D01*
X129529000Y-87781184D01*
X129587989Y-88077743D01*
X129703701Y-88357095D01*
X129871688Y-88608505D01*
X129972683Y-88709500D01*
X129871688Y-88810495D01*
X129703701Y-89061905D01*
X129587989Y-89341257D01*
X129529000Y-89637816D01*
X129529000Y-89940184D01*
X129587989Y-90236743D01*
X129703701Y-90516095D01*
X129871688Y-90767505D01*
X130085495Y-90981312D01*
X130336905Y-91149299D01*
X130616257Y-91265011D01*
X130912816Y-91324000D01*
X131215184Y-91324000D01*
X131511743Y-91265011D01*
X131791095Y-91149299D01*
X132042505Y-90981312D01*
X132256312Y-90767505D01*
X132424299Y-90516095D01*
X132540011Y-90236743D01*
X132599000Y-89940184D01*
X132599000Y-89637816D01*
X132540011Y-89341257D01*
X132424299Y-89061905D01*
X132256312Y-88810495D01*
X132155317Y-88709500D01*
X132256312Y-88608505D01*
X132424299Y-88357095D01*
X132540011Y-88077743D01*
X132599000Y-87781184D01*
X132599000Y-87478816D01*
X132540011Y-87182257D01*
X132424299Y-86902905D01*
X132256312Y-86651495D01*
X132042505Y-86437688D01*
X131791095Y-86269701D01*
X131511743Y-86153989D01*
X131215184Y-86095000D01*
X130912816Y-86095000D01*
X130616257Y-86153989D01*
X130336905Y-86269701D01*
X130085495Y-86437688D01*
X129871688Y-86651495D01*
X129703701Y-86902905D01*
X129587989Y-87182257D01*
X129529000Y-87478816D01*
X92989000Y-87478816D01*
X92989000Y-78248000D01*
X98414928Y-78248000D01*
X98414928Y-80248000D01*
X98441599Y-80518799D01*
X98520589Y-80779192D01*
X98648860Y-81019171D01*
X98821485Y-81229515D01*
X99031829Y-81402140D01*
X99271808Y-81530411D01*
X99532201Y-81609401D01*
X99803000Y-81636072D01*
X101303000Y-81636072D01*
X101573799Y-81609401D01*
X101834192Y-81530411D01*
X102074171Y-81402140D01*
X102284515Y-81229515D01*
X102457140Y-81019171D01*
X102585411Y-80779192D01*
X102664401Y-80518799D01*
X102691072Y-80248000D01*
X102691072Y-80142475D01*
X128041000Y-80142475D01*
X128041000Y-80661525D01*
X128142261Y-81170601D01*
X128340893Y-81650141D01*
X128629262Y-82081715D01*
X128996285Y-82448738D01*
X129427859Y-82737107D01*
X129907399Y-82935739D01*
X130416475Y-83037000D01*
X130935525Y-83037000D01*
X131444601Y-82935739D01*
X131924141Y-82737107D01*
X132355715Y-82448738D01*
X132722738Y-82081715D01*
X133011107Y-81650141D01*
X133209739Y-81170601D01*
X133311000Y-80661525D01*
X133311000Y-80142475D01*
X133209739Y-79633399D01*
X133011107Y-79153859D01*
X132722738Y-78722285D01*
X132355715Y-78355262D01*
X131924141Y-78066893D01*
X131444601Y-77868261D01*
X130935525Y-77767000D01*
X130416475Y-77767000D01*
X129907399Y-77868261D01*
X129427859Y-78066893D01*
X128996285Y-78355262D01*
X128629262Y-78722285D01*
X128340893Y-79153859D01*
X128142261Y-79633399D01*
X128041000Y-80142475D01*
X102691072Y-80142475D01*
X102691072Y-78248000D01*
X102664401Y-77977201D01*
X102585411Y-77716808D01*
X102457140Y-77476829D01*
X102284515Y-77266485D01*
X102074171Y-77093860D01*
X101834192Y-76965589D01*
X101573799Y-76886599D01*
X101303000Y-76859928D01*
X99803000Y-76859928D01*
X99532201Y-76886599D01*
X99271808Y-76965589D01*
X99031829Y-77093860D01*
X98821485Y-77266485D01*
X98648860Y-77476829D01*
X98520589Y-77716808D01*
X98441599Y-77977201D01*
X98414928Y-78248000D01*
X92989000Y-78248000D01*
X92989000Y-70642475D01*
X128041000Y-70642475D01*
X128041000Y-71161525D01*
X128142261Y-71670601D01*
X128340893Y-72150141D01*
X128629262Y-72581715D01*
X128996285Y-72948738D01*
X129427859Y-73237107D01*
X129907399Y-73435739D01*
X130416475Y-73537000D01*
X130935525Y-73537000D01*
X131444601Y-73435739D01*
X131924141Y-73237107D01*
X132355715Y-72948738D01*
X132722738Y-72581715D01*
X133011107Y-72150141D01*
X133209739Y-71670601D01*
X133311000Y-71161525D01*
X133311000Y-70722475D01*
X163869000Y-70722475D01*
X163869000Y-71241525D01*
X163970261Y-71750601D01*
X164168893Y-72230141D01*
X164457262Y-72661715D01*
X164824285Y-73028738D01*
X165255859Y-73317107D01*
X165735399Y-73515739D01*
X166244475Y-73617000D01*
X166763525Y-73617000D01*
X167272601Y-73515739D01*
X167752141Y-73317107D01*
X168183715Y-73028738D01*
X168550738Y-72661715D01*
X168839107Y-72230141D01*
X169037739Y-71750601D01*
X169139000Y-71241525D01*
X169139000Y-70722475D01*
X169037739Y-70213399D01*
X168839107Y-69733859D01*
X168550738Y-69302285D01*
X168183715Y-68935262D01*
X167752141Y-68646893D01*
X167272601Y-68448261D01*
X166763525Y-68347000D01*
X166244475Y-68347000D01*
X165735399Y-68448261D01*
X165255859Y-68646893D01*
X164824285Y-68935262D01*
X164457262Y-69302285D01*
X164168893Y-69733859D01*
X163970261Y-70213399D01*
X163869000Y-70722475D01*
X133311000Y-70722475D01*
X133311000Y-70642475D01*
X133209739Y-70133399D01*
X133011107Y-69653859D01*
X132722738Y-69222285D01*
X132355715Y-68855262D01*
X131924141Y-68566893D01*
X131444601Y-68368261D01*
X130935525Y-68267000D01*
X130416475Y-68267000D01*
X129907399Y-68368261D01*
X129427859Y-68566893D01*
X128996285Y-68855262D01*
X128629262Y-69222285D01*
X128340893Y-69653859D01*
X128142261Y-70133399D01*
X128041000Y-70642475D01*
X92989000Y-70642475D01*
X92989000Y-61233380D01*
X93237381Y-60985000D01*
X98392581Y-60985000D01*
X98425000Y-60988193D01*
X98457419Y-60985000D01*
X98554383Y-60975450D01*
X98678793Y-60937710D01*
X98793450Y-60876425D01*
X98893948Y-60793948D01*
X98976425Y-60693450D01*
X99037710Y-60578793D01*
X99075450Y-60454383D01*
X99076867Y-60439992D01*
X100140000Y-60439992D01*
X100140000Y-61353008D01*
X100318120Y-62248480D01*
X100667516Y-63091996D01*
X101174760Y-63851140D01*
X101820360Y-64496740D01*
X102579504Y-65003984D01*
X103423020Y-65353380D01*
X104318492Y-65531500D01*
X105231508Y-65531500D01*
X106126980Y-65353380D01*
X106970496Y-65003984D01*
X107729640Y-64496740D01*
X108375240Y-63851140D01*
X108882484Y-63091996D01*
X109231880Y-62248480D01*
X109305350Y-61879119D01*
X130750000Y-61879119D01*
X130750000Y-63088882D01*
X130780892Y-63402533D01*
X130902974Y-63804982D01*
X131101224Y-64175881D01*
X131368024Y-64500977D01*
X131693120Y-64767777D01*
X132064019Y-64966026D01*
X132466468Y-65088108D01*
X132885000Y-65129330D01*
X133303533Y-65088108D01*
X133705982Y-64966026D01*
X134076881Y-64767777D01*
X134401977Y-64500977D01*
X134668777Y-64175881D01*
X134867026Y-63804981D01*
X134989108Y-63402532D01*
X135020000Y-63088881D01*
X135020000Y-61879119D01*
X135450000Y-61879119D01*
X135450000Y-63088882D01*
X135480892Y-63402533D01*
X135602974Y-63804982D01*
X135801224Y-64175881D01*
X136068024Y-64500977D01*
X136393120Y-64767777D01*
X136764019Y-64966026D01*
X137166468Y-65088108D01*
X137585000Y-65129330D01*
X138003533Y-65088108D01*
X138405982Y-64966026D01*
X138776881Y-64767777D01*
X139101977Y-64500977D01*
X139368777Y-64175881D01*
X139567026Y-63804981D01*
X139689108Y-63402532D01*
X139720000Y-63088881D01*
X139720000Y-61879119D01*
X162630000Y-61879119D01*
X162630000Y-63088882D01*
X162660892Y-63402533D01*
X162782974Y-63804982D01*
X162981224Y-64175881D01*
X163248024Y-64500977D01*
X163573120Y-64767777D01*
X163944019Y-64966026D01*
X164346468Y-65088108D01*
X164765000Y-65129330D01*
X165183533Y-65088108D01*
X165585982Y-64966026D01*
X165956881Y-64767777D01*
X166281977Y-64500977D01*
X166548777Y-64175881D01*
X166747026Y-63804981D01*
X166869108Y-63402532D01*
X166900000Y-63088881D01*
X166900000Y-61879119D01*
X167330000Y-61879119D01*
X167330000Y-63088882D01*
X167360892Y-63402533D01*
X167482974Y-63804982D01*
X167681224Y-64175881D01*
X167948024Y-64500977D01*
X168273120Y-64767777D01*
X168644019Y-64966026D01*
X169046468Y-65088108D01*
X169465000Y-65129330D01*
X169883533Y-65088108D01*
X170285982Y-64966026D01*
X170656881Y-64767777D01*
X170981977Y-64500977D01*
X171248777Y-64175881D01*
X171447026Y-63804981D01*
X171569108Y-63402532D01*
X171600000Y-63088881D01*
X171600000Y-61879118D01*
X171569108Y-61565467D01*
X171447026Y-61163018D01*
X171248777Y-60792119D01*
X170981977Y-60467023D01*
X170656881Y-60200223D01*
X170285981Y-60001974D01*
X169883532Y-59879892D01*
X169465000Y-59838670D01*
X169046467Y-59879892D01*
X168644018Y-60001974D01*
X168273119Y-60200223D01*
X167948023Y-60467023D01*
X167681223Y-60792119D01*
X167482974Y-61163019D01*
X167360892Y-61565468D01*
X167330000Y-61879119D01*
X166900000Y-61879119D01*
X166900000Y-61879118D01*
X166869108Y-61565467D01*
X166747026Y-61163018D01*
X166548777Y-60792119D01*
X166281977Y-60467023D01*
X165956881Y-60200223D01*
X165585981Y-60001974D01*
X165183532Y-59879892D01*
X164765000Y-59838670D01*
X164346467Y-59879892D01*
X163944018Y-60001974D01*
X163573119Y-60200223D01*
X163248023Y-60467023D01*
X162981223Y-60792119D01*
X162782974Y-61163019D01*
X162660892Y-61565468D01*
X162630000Y-61879119D01*
X139720000Y-61879119D01*
X139720000Y-61879118D01*
X139689108Y-61565467D01*
X139567026Y-61163018D01*
X139368777Y-60792119D01*
X139101977Y-60467023D01*
X138776881Y-60200223D01*
X138405981Y-60001974D01*
X138003532Y-59879892D01*
X137585000Y-59838670D01*
X137166467Y-59879892D01*
X136764018Y-60001974D01*
X136393119Y-60200223D01*
X136068023Y-60467023D01*
X135801223Y-60792119D01*
X135602974Y-61163019D01*
X135480892Y-61565468D01*
X135450000Y-61879119D01*
X135020000Y-61879119D01*
X135020000Y-61879118D01*
X134989108Y-61565467D01*
X134867026Y-61163018D01*
X134668777Y-60792119D01*
X134401977Y-60467023D01*
X134076881Y-60200223D01*
X133705981Y-60001974D01*
X133303532Y-59879892D01*
X132885000Y-59838670D01*
X132466467Y-59879892D01*
X132064018Y-60001974D01*
X131693119Y-60200223D01*
X131368023Y-60467023D01*
X131101223Y-60792119D01*
X130902974Y-61163019D01*
X130780892Y-61565468D01*
X130750000Y-61879119D01*
X109305350Y-61879119D01*
X109410000Y-61353008D01*
X109410000Y-60439992D01*
X109231880Y-59544520D01*
X108882484Y-58701004D01*
X108375240Y-57941860D01*
X107729640Y-57296260D01*
X107007888Y-56814000D01*
X169880718Y-56814000D01*
X169897805Y-56987490D01*
X169948411Y-57154313D01*
X170030589Y-57308059D01*
X170141183Y-57442817D01*
X170275941Y-57553411D01*
X170429687Y-57635589D01*
X170596510Y-57686195D01*
X170726523Y-57699000D01*
X171589499Y-57699000D01*
X171643815Y-57765185D01*
X171740506Y-57844537D01*
X171850820Y-57903502D01*
X171970518Y-57939812D01*
X172095000Y-57952072D01*
X173295000Y-57952072D01*
X173419482Y-57939812D01*
X173539180Y-57903502D01*
X173649494Y-57844537D01*
X173746185Y-57765185D01*
X173825537Y-57668494D01*
X173884502Y-57558180D01*
X173920812Y-57438482D01*
X173933072Y-57314000D01*
X173933072Y-56314000D01*
X173920812Y-56189518D01*
X173884502Y-56069820D01*
X173825537Y-55959506D01*
X173746185Y-55862815D01*
X173649494Y-55783463D01*
X173539180Y-55724498D01*
X173419482Y-55688188D01*
X173295000Y-55675928D01*
X172095000Y-55675928D01*
X171970518Y-55688188D01*
X171850820Y-55724498D01*
X171740506Y-55783463D01*
X171643815Y-55862815D01*
X171589499Y-55929000D01*
X170726523Y-55929000D01*
X170596510Y-55941805D01*
X170429687Y-55992411D01*
X170275941Y-56074589D01*
X170141183Y-56185183D01*
X170030589Y-56319941D01*
X169948411Y-56473687D01*
X169897805Y-56640510D01*
X169880718Y-56814000D01*
X107007888Y-56814000D01*
X106970496Y-56789016D01*
X106126980Y-56439620D01*
X105231508Y-56261500D01*
X104318492Y-56261500D01*
X103423020Y-56439620D01*
X102579504Y-56789016D01*
X101820360Y-57296260D01*
X101174760Y-57941860D01*
X100667516Y-58701004D01*
X100318120Y-59544520D01*
X100140000Y-60439992D01*
X99076867Y-60439992D01*
X99088193Y-60325000D01*
X99085000Y-60292581D01*
X99085000Y-55454880D01*
X99333381Y-55206500D01*
X174606928Y-55206500D01*
X174606928Y-56514000D01*
G37*
X174606928Y-56514000D02*
X174619188Y-56638482D01*
X174655498Y-56758180D01*
X174714463Y-56868494D01*
X174793815Y-56965185D01*
X174890506Y-57044537D01*
X175000820Y-57103502D01*
X175060001Y-57121454D01*
X175060000Y-61078868D01*
X172106860Y-64032009D01*
X172063552Y-64067551D01*
X171921717Y-64240377D01*
X171886745Y-64305805D01*
X171816324Y-64437554D01*
X171780822Y-64554589D01*
X171751423Y-64651501D01*
X171747681Y-64689491D01*
X171729509Y-64874000D01*
X171735000Y-64929751D01*
X171735000Y-65337982D01*
X171643815Y-65412815D01*
X171564463Y-65509506D01*
X171505498Y-65619820D01*
X171469188Y-65739518D01*
X171456928Y-65864000D01*
X171456928Y-67214000D01*
X171469188Y-67338482D01*
X171505498Y-67458180D01*
X171564463Y-67568494D01*
X171643815Y-67665185D01*
X171740506Y-67744537D01*
X171850820Y-67803502D01*
X171970518Y-67839812D01*
X172095000Y-67852072D01*
X173645000Y-67852072D01*
X173769482Y-67839812D01*
X173889180Y-67803502D01*
X173999494Y-67744537D01*
X174096185Y-67665185D01*
X174175537Y-67568494D01*
X174234502Y-67458180D01*
X174270812Y-67338482D01*
X174275000Y-67295959D01*
X174279188Y-67338482D01*
X174315498Y-67458180D01*
X174374463Y-67568494D01*
X174453815Y-67665185D01*
X174550506Y-67744537D01*
X174570000Y-67754957D01*
X174570000Y-68068198D01*
X167960199Y-74678000D01*
X164629322Y-74678000D01*
X164591999Y-74674324D01*
X164554676Y-74678000D01*
X164554667Y-74678000D01*
X164443014Y-74688997D01*
X164299753Y-74732454D01*
X164167724Y-74803026D01*
X164051999Y-74897999D01*
X164028201Y-74926997D01*
X160530803Y-78424396D01*
X160539000Y-78383184D01*
X160539000Y-78080816D01*
X160480011Y-77784257D01*
X160364299Y-77504905D01*
X160196312Y-77253495D01*
X159982505Y-77039688D01*
X159896169Y-76982000D01*
X159982505Y-76924312D01*
X160196312Y-76710505D01*
X160364299Y-76459095D01*
X160480011Y-76179743D01*
X160539000Y-75883184D01*
X160539000Y-75580816D01*
X160480011Y-75284257D01*
X160364299Y-75004905D01*
X160196312Y-74753495D01*
X159982505Y-74539688D01*
X159896169Y-74482000D01*
X159982505Y-74424312D01*
X160196312Y-74210505D01*
X160364299Y-73959095D01*
X160480011Y-73679743D01*
X160539000Y-73383184D01*
X160539000Y-73080816D01*
X160480011Y-72784257D01*
X160364299Y-72504905D01*
X160196312Y-72253495D01*
X159982505Y-72039688D01*
X159731095Y-71871701D01*
X159451743Y-71755989D01*
X159155184Y-71697000D01*
X158852816Y-71697000D01*
X158556257Y-71755989D01*
X158276905Y-71871701D01*
X158025495Y-72039688D01*
X157811688Y-72253495D01*
X157643701Y-72504905D01*
X157527989Y-72784257D01*
X157469000Y-73080816D01*
X157469000Y-73383184D01*
X157527989Y-73679743D01*
X157643701Y-73959095D01*
X157811688Y-74210505D01*
X158025495Y-74424312D01*
X158111831Y-74482000D01*
X158025495Y-74539688D01*
X157811688Y-74753495D01*
X157643701Y-75004905D01*
X157527989Y-75284257D01*
X157469000Y-75580816D01*
X157469000Y-75883184D01*
X157527989Y-76179743D01*
X157643701Y-76459095D01*
X157811688Y-76710505D01*
X158025495Y-76924312D01*
X158111831Y-76982000D01*
X158025495Y-77039688D01*
X157968183Y-77097000D01*
X154648132Y-77097000D01*
X149939996Y-72388865D01*
X149904449Y-72345551D01*
X149731623Y-72203716D01*
X149534447Y-72098324D01*
X149320499Y-72033423D01*
X149153752Y-72017000D01*
X149153751Y-72017000D01*
X149098000Y-72011509D01*
X149042249Y-72017000D01*
X139211817Y-72017000D01*
X139154505Y-71959688D01*
X138903095Y-71791701D01*
X138623743Y-71675989D01*
X138327184Y-71617000D01*
X138024816Y-71617000D01*
X137728257Y-71675989D01*
X137448905Y-71791701D01*
X137197495Y-71959688D01*
X136983688Y-72173495D01*
X136921210Y-72267000D01*
X135933465Y-72267000D01*
X135889999Y-72262719D01*
X135846533Y-72267000D01*
X135846523Y-72267000D01*
X135716510Y-72279805D01*
X135549687Y-72330411D01*
X135395941Y-72412589D01*
X135395939Y-72412590D01*
X135395940Y-72412590D01*
X135294953Y-72495468D01*
X135294951Y-72495470D01*
X135261183Y-72523183D01*
X135233470Y-72556951D01*
X133237422Y-74553000D01*
X129496523Y-74553000D01*
X129366510Y-74565805D01*
X129199687Y-74616411D01*
X129045941Y-74698589D01*
X128911183Y-74809183D01*
X128800589Y-74943941D01*
X128718411Y-75097687D01*
X128667805Y-75264510D01*
X128650718Y-75438000D01*
X128667805Y-75611490D01*
X128718411Y-75778313D01*
X128800589Y-75932059D01*
X128911183Y-76066817D01*
X129045941Y-76177411D01*
X129199687Y-76259589D01*
X129366510Y-76310195D01*
X129496523Y-76323000D01*
X133560531Y-76323000D01*
X133604000Y-76327281D01*
X133647469Y-76323000D01*
X133647477Y-76323000D01*
X133777490Y-76310195D01*
X133944313Y-76259589D01*
X134098059Y-76177411D01*
X134232817Y-76066817D01*
X134260534Y-76033044D01*
X136256579Y-74037000D01*
X136921210Y-74037000D01*
X136983688Y-74130505D01*
X137197495Y-74344312D01*
X137283831Y-74402000D01*
X137197495Y-74459688D01*
X136983688Y-74673495D01*
X136815701Y-74924905D01*
X136699989Y-75204257D01*
X136641000Y-75500816D01*
X136641000Y-75803184D01*
X136699989Y-76099743D01*
X136815701Y-76379095D01*
X136983688Y-76630505D01*
X137197495Y-76844312D01*
X137283831Y-76902000D01*
X137197495Y-76959688D01*
X136983688Y-77173495D01*
X136815701Y-77424905D01*
X136699989Y-77704257D01*
X136641000Y-78000816D01*
X136641000Y-78303184D01*
X136699989Y-78599743D01*
X136815701Y-78879095D01*
X136983688Y-79130505D01*
X137197495Y-79344312D01*
X137448905Y-79512299D01*
X137728257Y-79628011D01*
X138024816Y-79687000D01*
X138327184Y-79687000D01*
X138623743Y-79628011D01*
X138903095Y-79512299D01*
X139154505Y-79344312D01*
X139368312Y-79130505D01*
X139536299Y-78879095D01*
X139652011Y-78599743D01*
X139711000Y-78303184D01*
X139711000Y-78000816D01*
X139652011Y-77704257D01*
X139536299Y-77424905D01*
X139368312Y-77173495D01*
X139154505Y-76959688D01*
X139068169Y-76902000D01*
X139154505Y-76844312D01*
X139368312Y-76630505D01*
X139536299Y-76379095D01*
X139652011Y-76099743D01*
X139711000Y-75803184D01*
X139711000Y-75500816D01*
X139652011Y-75204257D01*
X139536299Y-74924905D01*
X139368312Y-74673495D01*
X139154505Y-74459688D01*
X139068169Y-74402000D01*
X139154505Y-74344312D01*
X139211817Y-74287000D01*
X148627869Y-74287000D01*
X153336009Y-78995141D01*
X153371551Y-79038449D01*
X153512178Y-79153859D01*
X153544377Y-79180284D01*
X153741553Y-79285676D01*
X153955501Y-79350577D01*
X154178000Y-79372491D01*
X154233751Y-79367000D01*
X157968183Y-79367000D01*
X158025495Y-79424312D01*
X158276905Y-79592299D01*
X158556257Y-79708011D01*
X158852816Y-79767000D01*
X159155184Y-79767000D01*
X159196396Y-79758802D01*
X151253998Y-87701201D01*
X151225000Y-87724999D01*
X151201202Y-87753997D01*
X151201201Y-87753998D01*
X151130026Y-87840724D01*
X151059454Y-87972754D01*
X151015998Y-88116015D01*
X151001324Y-88265000D01*
X151005001Y-88302333D01*
X151005000Y-105761461D01*
X151002878Y-105764637D01*
X150938049Y-105921147D01*
X150905000Y-106087297D01*
X150905000Y-106256703D01*
X150938049Y-106422853D01*
X151002878Y-106579363D01*
X151027692Y-106616500D01*
X151002878Y-106653637D01*
X150938049Y-106810147D01*
X150905000Y-106976297D01*
X150905000Y-107145703D01*
X150938049Y-107311853D01*
X151002878Y-107468363D01*
X151066804Y-107564034D01*
X150982878Y-107689637D01*
X150918049Y-107846147D01*
X150885000Y-108012297D01*
X150885000Y-108181703D01*
X150918049Y-108347853D01*
X150982878Y-108504363D01*
X151076995Y-108645218D01*
X151196782Y-108765005D01*
X151337637Y-108859122D01*
X151460338Y-108909947D01*
X151482878Y-108964363D01*
X151576995Y-109105218D01*
X151696782Y-109225005D01*
X151837637Y-109319122D01*
X151994147Y-109383951D01*
X152160297Y-109417000D01*
X152329703Y-109417000D01*
X152495853Y-109383951D01*
X152652363Y-109319122D01*
X152793218Y-109225005D01*
X152913005Y-109105218D01*
X152922505Y-109091000D01*
X153164001Y-109091000D01*
X153164001Y-111430776D01*
X153128995Y-111465782D01*
X153034878Y-111606637D01*
X152970049Y-111763147D01*
X152937000Y-111929297D01*
X152937000Y-112060000D01*
X146819110Y-112060000D01*
X146850000Y-111904703D01*
X146850000Y-111735297D01*
X146816951Y-111569147D01*
X146810000Y-111552366D01*
X146810000Y-111027539D01*
X146812122Y-111024363D01*
X146876951Y-110867853D01*
X146910000Y-110701703D01*
X146910000Y-110532297D01*
X146876951Y-110366147D01*
X146812122Y-110209637D01*
X146718005Y-110068782D01*
X146598218Y-109948995D01*
X146457363Y-109854878D01*
X146300853Y-109790049D01*
X146134703Y-109757000D01*
X145965297Y-109757000D01*
X145799147Y-109790049D01*
X145642637Y-109854878D01*
X145501782Y-109948995D01*
X145381995Y-110068782D01*
X145287878Y-110209637D01*
X145223049Y-110366147D01*
X145190000Y-110532297D01*
X145190000Y-110701703D01*
X145223049Y-110867853D01*
X145287878Y-111024363D01*
X145290000Y-111027539D01*
X145290001Y-111319665D01*
X145227878Y-111412637D01*
X145163049Y-111569147D01*
X145130000Y-111735297D01*
X145130000Y-111904703D01*
X145163049Y-112070853D01*
X145227878Y-112227363D01*
X145297777Y-112331973D01*
X145243878Y-112412637D01*
X145179049Y-112569147D01*
X145146000Y-112735297D01*
X145146000Y-112904703D01*
X145179049Y-113070853D01*
X145243878Y-113227363D01*
X145337995Y-113368218D01*
X145457782Y-113488005D01*
X145598637Y-113582122D01*
X145755147Y-113646951D01*
X145921297Y-113680000D01*
X146090703Y-113680000D01*
X146256853Y-113646951D01*
X146413363Y-113582122D01*
X146416539Y-113580000D01*
X156255678Y-113580000D01*
X156293000Y-113583676D01*
X156330322Y-113580000D01*
X156330333Y-113580000D01*
X156441986Y-113569003D01*
X156585247Y-113525546D01*
X156717276Y-113454974D01*
X156833001Y-113360001D01*
X156856803Y-113330998D01*
X157864009Y-112323794D01*
X157893001Y-112300001D01*
X157916795Y-112271008D01*
X157916799Y-112271004D01*
X157987973Y-112184277D01*
X157987974Y-112184276D01*
X158058546Y-112052247D01*
X158102003Y-111908986D01*
X158113000Y-111797333D01*
X158113000Y-111797324D01*
X158116676Y-111760001D01*
X158113000Y-111722678D01*
X158113000Y-104096524D01*
X177550000Y-104096524D01*
X177550001Y-106215477D01*
X177562806Y-106345490D01*
X177613412Y-106512313D01*
X177695590Y-106666059D01*
X177806184Y-106800817D01*
X177940942Y-106911411D01*
X178094688Y-106993589D01*
X178261511Y-107044195D01*
X178435000Y-107061282D01*
X178608490Y-107044195D01*
X178775313Y-106993589D01*
X178929059Y-106911411D01*
X179063817Y-106800817D01*
X179174411Y-106666059D01*
X179256589Y-106512313D01*
X179307195Y-106345490D01*
X179320000Y-106215477D01*
X179320000Y-104564721D01*
X185253500Y-104564721D01*
X185253500Y-104985279D01*
X185335547Y-105397756D01*
X185496488Y-105786302D01*
X185730137Y-106135983D01*
X186027517Y-106433363D01*
X186377198Y-106667012D01*
X186765744Y-106827953D01*
X187178221Y-106910000D01*
X187598779Y-106910000D01*
X188011256Y-106827953D01*
X188399802Y-106667012D01*
X188749483Y-106433363D01*
X189046863Y-106135983D01*
X189280512Y-105786302D01*
X189441453Y-105397756D01*
X189523500Y-104985279D01*
X189523500Y-104613967D01*
X195278500Y-104613967D01*
X195278500Y-104936033D01*
X195341332Y-105251912D01*
X195464582Y-105549463D01*
X195643513Y-105817252D01*
X195871248Y-106044987D01*
X196139037Y-106223918D01*
X196436588Y-106347168D01*
X196752467Y-106410000D01*
X197074533Y-106410000D01*
X197390412Y-106347168D01*
X197687963Y-106223918D01*
X197955752Y-106044987D01*
X198183487Y-105817252D01*
X198362418Y-105549463D01*
X198485668Y-105251912D01*
X198548500Y-104936033D01*
X198548500Y-104613967D01*
X198485668Y-104298088D01*
X198362418Y-104000537D01*
X198183487Y-103732748D01*
X197955752Y-103505013D01*
X197687963Y-103326082D01*
X197390412Y-103202832D01*
X197074533Y-103140000D01*
X196752467Y-103140000D01*
X196436588Y-103202832D01*
X196139037Y-103326082D01*
X195871248Y-103505013D01*
X195643513Y-103732748D01*
X195464582Y-104000537D01*
X195341332Y-104298088D01*
X195278500Y-104613967D01*
X189523500Y-104613967D01*
X189523500Y-104564721D01*
X189441453Y-104152244D01*
X189280512Y-103763698D01*
X189046863Y-103414017D01*
X188749483Y-103116637D01*
X188399802Y-102882988D01*
X188011256Y-102722047D01*
X187598779Y-102640000D01*
X187178221Y-102640000D01*
X186765744Y-102722047D01*
X186377198Y-102882988D01*
X186027517Y-103116637D01*
X185730137Y-103414017D01*
X185496488Y-103763698D01*
X185335547Y-104152244D01*
X185253500Y-104564721D01*
X179320000Y-104564721D01*
X179320000Y-104096523D01*
X179307195Y-103966510D01*
X179256589Y-103799687D01*
X179174411Y-103645941D01*
X179063817Y-103511183D01*
X178929058Y-103400589D01*
X178775312Y-103318411D01*
X178608489Y-103267805D01*
X178435000Y-103250718D01*
X178261510Y-103267805D01*
X178094687Y-103318411D01*
X177940941Y-103400589D01*
X177806183Y-103511183D01*
X177695589Y-103645942D01*
X177613411Y-103799688D01*
X177562805Y-103966511D01*
X177550000Y-104096524D01*
X158113000Y-104096524D01*
X158113000Y-102549801D01*
X159191803Y-101471000D01*
X166436199Y-101471000D01*
X166706791Y-101741592D01*
X166663000Y-101961740D01*
X166663000Y-102254260D01*
X166720068Y-102541158D01*
X166832010Y-102811411D01*
X166994525Y-103054632D01*
X167201368Y-103261475D01*
X167444589Y-103423990D01*
X167714842Y-103535932D01*
X168001740Y-103593000D01*
X168294260Y-103593000D01*
X168581158Y-103535932D01*
X168851411Y-103423990D01*
X169094632Y-103261475D01*
X169301475Y-103054632D01*
X169463990Y-102811411D01*
X169575932Y-102541158D01*
X169633000Y-102254260D01*
X169633000Y-101961740D01*
X169575932Y-101674842D01*
X169463990Y-101404589D01*
X169301475Y-101161368D01*
X169094632Y-100954525D01*
X168851411Y-100792010D01*
X168581158Y-100680068D01*
X168294260Y-100623000D01*
X168001740Y-100623000D01*
X167781592Y-100666791D01*
X167314804Y-100200003D01*
X167291001Y-100170999D01*
X167175276Y-100076026D01*
X167043247Y-100005454D01*
X166899986Y-99961997D01*
X166788333Y-99951000D01*
X166788322Y-99951000D01*
X166751000Y-99947324D01*
X166713678Y-99951000D01*
X164867829Y-99951000D01*
X164872363Y-99949122D01*
X165013218Y-99855005D01*
X165133005Y-99735218D01*
X165227122Y-99594363D01*
X165291951Y-99437853D01*
X165325000Y-99271703D01*
X165325000Y-99102297D01*
X165291951Y-98936147D01*
X165227122Y-98779637D01*
X165133005Y-98638782D01*
X165013218Y-98518995D01*
X164872363Y-98424878D01*
X164715853Y-98360049D01*
X164549703Y-98327000D01*
X164380297Y-98327000D01*
X164214147Y-98360049D01*
X164057637Y-98424878D01*
X164054461Y-98427000D01*
X157255539Y-98427000D01*
X157252363Y-98424878D01*
X157095853Y-98360049D01*
X156929703Y-98327000D01*
X156760297Y-98327000D01*
X156594147Y-98360049D01*
X156437637Y-98424878D01*
X156296782Y-98518995D01*
X156176995Y-98638782D01*
X156082878Y-98779637D01*
X156018049Y-98936147D01*
X155985000Y-99102297D01*
X155985000Y-99271703D01*
X156018049Y-99437853D01*
X156082878Y-99594363D01*
X156085000Y-99597539D01*
X156085001Y-99792460D01*
X156082878Y-99795637D01*
X156018049Y-99952147D01*
X155985000Y-100118297D01*
X155985000Y-100287703D01*
X156018049Y-100453853D01*
X156082878Y-100610363D01*
X156176995Y-100751218D01*
X156296782Y-100871005D01*
X156437637Y-100965122D01*
X156594147Y-101029951D01*
X156760297Y-101063000D01*
X156929703Y-101063000D01*
X157095853Y-101029951D01*
X157252363Y-100965122D01*
X157393218Y-100871005D01*
X157513005Y-100751218D01*
X157607122Y-100610363D01*
X157671951Y-100453853D01*
X157705000Y-100287703D01*
X157705000Y-100118297D01*
X157671951Y-99952147D01*
X157669819Y-99947000D01*
X164054461Y-99947000D01*
X164057637Y-99949122D01*
X164062171Y-99951000D01*
X158914322Y-99951000D01*
X158876999Y-99947324D01*
X158839676Y-99951000D01*
X158839667Y-99951000D01*
X158728014Y-99961997D01*
X158584753Y-100005454D01*
X158452724Y-100076026D01*
X158452722Y-100076027D01*
X158452723Y-100076027D01*
X158365996Y-100147201D01*
X158365992Y-100147205D01*
X158336999Y-100170999D01*
X158313205Y-100199992D01*
X156841998Y-101671201D01*
X156813000Y-101694999D01*
X156789202Y-101723997D01*
X156789201Y-101723998D01*
X156718026Y-101810724D01*
X156647454Y-101942754D01*
X156603998Y-102086015D01*
X156589324Y-102235000D01*
X156593001Y-102272332D01*
X156593000Y-111445197D01*
X155978199Y-112060000D01*
X154665719Y-112060000D01*
X154673003Y-112035986D01*
X154684000Y-111924333D01*
X154684000Y-111924323D01*
X154687676Y-111887001D01*
X154684000Y-111849678D01*
X154684000Y-100105539D01*
X154686122Y-100102363D01*
X154750951Y-99945853D01*
X154784000Y-99779703D01*
X154784000Y-99610297D01*
X154750951Y-99444147D01*
X154686122Y-99287637D01*
X154592005Y-99146782D01*
X154472218Y-99026995D01*
X154331363Y-98932878D01*
X154174853Y-98868049D01*
X154049000Y-98843016D01*
X154049000Y-91796816D01*
X164581000Y-91796816D01*
X164581000Y-92099184D01*
X164639989Y-92395743D01*
X164755701Y-92675095D01*
X164923688Y-92926505D01*
X165024683Y-93027500D01*
X164923688Y-93128495D01*
X164755701Y-93379905D01*
X164639989Y-93659257D01*
X164581000Y-93955816D01*
X164581000Y-94258184D01*
X164639989Y-94554743D01*
X164755701Y-94834095D01*
X164923688Y-95085505D01*
X165137495Y-95299312D01*
X165388905Y-95467299D01*
X165668257Y-95583011D01*
X165964816Y-95642000D01*
X166267184Y-95642000D01*
X166563743Y-95583011D01*
X166843095Y-95467299D01*
X167094505Y-95299312D01*
X167308312Y-95085505D01*
X167476299Y-94834095D01*
X167592011Y-94554743D01*
X167651000Y-94258184D01*
X167651000Y-93955816D01*
X167592011Y-93659257D01*
X167476299Y-93379905D01*
X167345378Y-93183967D01*
X195278500Y-93183967D01*
X195278500Y-93506033D01*
X195341332Y-93821912D01*
X195464582Y-94119463D01*
X195643513Y-94387252D01*
X195871248Y-94614987D01*
X196139037Y-94793918D01*
X196436588Y-94917168D01*
X196752467Y-94980000D01*
X197074533Y-94980000D01*
X197390412Y-94917168D01*
X197687963Y-94793918D01*
X197955752Y-94614987D01*
X198183487Y-94387252D01*
X198362418Y-94119463D01*
X198485668Y-93821912D01*
X198548500Y-93506033D01*
X198548500Y-93183967D01*
X198485668Y-92868088D01*
X198362418Y-92570537D01*
X198183487Y-92302748D01*
X197955752Y-92075013D01*
X197687963Y-91896082D01*
X197390412Y-91772832D01*
X197074533Y-91710000D01*
X196752467Y-91710000D01*
X196436588Y-91772832D01*
X196139037Y-91896082D01*
X195871248Y-92075013D01*
X195643513Y-92302748D01*
X195464582Y-92570537D01*
X195341332Y-92868088D01*
X195278500Y-93183967D01*
X167345378Y-93183967D01*
X167308312Y-93128495D01*
X167207317Y-93027500D01*
X167308312Y-92926505D01*
X167476299Y-92675095D01*
X167592011Y-92395743D01*
X167651000Y-92099184D01*
X167651000Y-91796816D01*
X167592011Y-91500257D01*
X167476299Y-91220905D01*
X167308312Y-90969495D01*
X167094505Y-90755688D01*
X166843095Y-90587701D01*
X166563743Y-90471989D01*
X166267184Y-90413000D01*
X165964816Y-90413000D01*
X165668257Y-90471989D01*
X165388905Y-90587701D01*
X165137495Y-90755688D01*
X164923688Y-90969495D01*
X164755701Y-91220905D01*
X164639989Y-91500257D01*
X164581000Y-91796816D01*
X154049000Y-91796816D01*
X154049000Y-89722801D01*
X157041801Y-86730000D01*
X164577928Y-86730000D01*
X164577928Y-88530000D01*
X164590188Y-88654482D01*
X164626498Y-88774180D01*
X164685463Y-88884494D01*
X164764815Y-88981185D01*
X164861506Y-89060537D01*
X164971820Y-89119502D01*
X165091518Y-89155812D01*
X165216000Y-89168072D01*
X167016000Y-89168072D01*
X167140482Y-89155812D01*
X167260180Y-89119502D01*
X167370494Y-89060537D01*
X167467185Y-88981185D01*
X167546537Y-88884494D01*
X167605502Y-88774180D01*
X167641812Y-88654482D01*
X167654072Y-88530000D01*
X167654072Y-86730000D01*
X167641812Y-86605518D01*
X167605502Y-86485820D01*
X167546537Y-86375506D01*
X167467185Y-86278815D01*
X167370494Y-86199463D01*
X167260180Y-86140498D01*
X167140482Y-86104188D01*
X167016000Y-86091928D01*
X165216000Y-86091928D01*
X165091518Y-86104188D01*
X164971820Y-86140498D01*
X164861506Y-86199463D01*
X164764815Y-86278815D01*
X164685463Y-86375506D01*
X164626498Y-86485820D01*
X164590188Y-86605518D01*
X164577928Y-86730000D01*
X157041801Y-86730000D01*
X159527080Y-84244721D01*
X185253500Y-84244721D01*
X185253500Y-84665279D01*
X185335547Y-85077756D01*
X185496488Y-85466302D01*
X185730137Y-85815983D01*
X186027517Y-86113363D01*
X186377198Y-86347012D01*
X186765744Y-86507953D01*
X187178221Y-86590000D01*
X187598779Y-86590000D01*
X188011256Y-86507953D01*
X188399802Y-86347012D01*
X188749483Y-86113363D01*
X189046863Y-85815983D01*
X189280512Y-85466302D01*
X189441453Y-85077756D01*
X189523500Y-84665279D01*
X189523500Y-84293967D01*
X195278500Y-84293967D01*
X195278500Y-84616033D01*
X195341332Y-84931912D01*
X195464582Y-85229463D01*
X195643513Y-85497252D01*
X195871248Y-85724987D01*
X196139037Y-85903918D01*
X196436588Y-86027168D01*
X196752467Y-86090000D01*
X197074533Y-86090000D01*
X197390412Y-86027168D01*
X197687963Y-85903918D01*
X197955752Y-85724987D01*
X198183487Y-85497252D01*
X198362418Y-85229463D01*
X198485668Y-84931912D01*
X198548500Y-84616033D01*
X198548500Y-84293967D01*
X198485668Y-83978088D01*
X198362418Y-83680537D01*
X198183487Y-83412748D01*
X197955752Y-83185013D01*
X197687963Y-83006082D01*
X197390412Y-82882832D01*
X197074533Y-82820000D01*
X196752467Y-82820000D01*
X196436588Y-82882832D01*
X196139037Y-83006082D01*
X195871248Y-83185013D01*
X195643513Y-83412748D01*
X195464582Y-83680537D01*
X195341332Y-83978088D01*
X195278500Y-84293967D01*
X189523500Y-84293967D01*
X189523500Y-84244721D01*
X189441453Y-83832244D01*
X189280512Y-83443698D01*
X189046863Y-83094017D01*
X188749483Y-82796637D01*
X188399802Y-82562988D01*
X188011256Y-82402047D01*
X187598779Y-82320000D01*
X187178221Y-82320000D01*
X186765744Y-82402047D01*
X186377198Y-82562988D01*
X186027517Y-82796637D01*
X185730137Y-83094017D01*
X185496488Y-83443698D01*
X185335547Y-83832244D01*
X185253500Y-84244721D01*
X159527080Y-84244721D01*
X163948375Y-79823427D01*
X163869000Y-80222475D01*
X163869000Y-80741525D01*
X163970261Y-81250601D01*
X164168893Y-81730141D01*
X164457262Y-82161715D01*
X164824285Y-82528738D01*
X165255859Y-82817107D01*
X165735399Y-83015739D01*
X166244475Y-83117000D01*
X166763525Y-83117000D01*
X167272601Y-83015739D01*
X167752141Y-82817107D01*
X168183715Y-82528738D01*
X168550738Y-82161715D01*
X168839107Y-81730141D01*
X169037739Y-81250601D01*
X169139000Y-80741525D01*
X169139000Y-80222475D01*
X169037739Y-79713399D01*
X168839107Y-79233859D01*
X168550738Y-78802285D01*
X168183715Y-78435262D01*
X167752141Y-78146893D01*
X167646174Y-78103000D01*
X171285678Y-78103000D01*
X171323000Y-78106676D01*
X171360322Y-78103000D01*
X171360333Y-78103000D01*
X171471986Y-78092003D01*
X171615247Y-78048546D01*
X171747276Y-77977974D01*
X171863001Y-77883001D01*
X171886804Y-77853997D01*
X180241009Y-69499794D01*
X180270001Y-69476001D01*
X180293795Y-69447008D01*
X180293799Y-69447004D01*
X180364973Y-69360277D01*
X180364974Y-69360276D01*
X180435546Y-69228247D01*
X180479003Y-69084986D01*
X180490000Y-68973333D01*
X180490000Y-68973324D01*
X180493676Y-68936001D01*
X180490000Y-68898678D01*
X180490000Y-67754957D01*
X180509494Y-67744537D01*
X180606185Y-67665185D01*
X180685537Y-67568494D01*
X180744502Y-67458180D01*
X180780812Y-67338482D01*
X180793072Y-67214000D01*
X180793072Y-66114000D01*
X180780812Y-65989518D01*
X180744502Y-65869820D01*
X180685537Y-65759506D01*
X180606185Y-65662815D01*
X180509494Y-65583463D01*
X180399180Y-65524498D01*
X180279482Y-65488188D01*
X180155000Y-65475928D01*
X179305000Y-65475928D01*
X179180518Y-65488188D01*
X179180000Y-65488345D01*
X179179482Y-65488188D01*
X179055000Y-65475928D01*
X178599651Y-65475928D01*
X178674579Y-65401000D01*
X179621477Y-65401000D01*
X179751490Y-65388195D01*
X179918313Y-65337589D01*
X180072059Y-65255411D01*
X180206817Y-65144817D01*
X180317411Y-65010059D01*
X180399589Y-64856313D01*
X180450195Y-64689490D01*
X180467282Y-64516000D01*
X180450195Y-64342510D01*
X180399589Y-64175687D01*
X180317411Y-64021941D01*
X180206817Y-63887183D01*
X180072059Y-63776589D01*
X179918313Y-63694411D01*
X179751490Y-63643805D01*
X179621477Y-63631000D01*
X178351465Y-63631000D01*
X178307999Y-63626719D01*
X178264533Y-63631000D01*
X178264523Y-63631000D01*
X178134510Y-63643805D01*
X177967687Y-63694411D01*
X177813941Y-63776589D01*
X177813939Y-63776590D01*
X177813940Y-63776590D01*
X177712953Y-63859468D01*
X177712951Y-63859470D01*
X177679183Y-63887183D01*
X177651470Y-63920951D01*
X177532841Y-64039580D01*
X177523412Y-64021940D01*
X177412819Y-63887181D01*
X177278060Y-63776588D01*
X177124315Y-63694410D01*
X176957491Y-63643804D01*
X176784001Y-63626717D01*
X176610511Y-63643804D01*
X176443688Y-63694410D01*
X176289943Y-63776588D01*
X176188956Y-63859466D01*
X176151121Y-63897301D01*
X176142817Y-63887183D01*
X176008058Y-63776590D01*
X175854313Y-63694412D01*
X175701174Y-63647957D01*
X176958141Y-62390991D01*
X177001449Y-62355449D01*
X177143284Y-62182623D01*
X177248676Y-61985447D01*
X177313577Y-61771499D01*
X177330000Y-61604752D01*
X177330000Y-61604751D01*
X177335491Y-61549001D01*
X177330000Y-61493249D01*
X177330000Y-57121454D01*
X177389180Y-57103502D01*
X177499494Y-57044537D01*
X177585444Y-56974000D01*
X180774556Y-56974000D01*
X180860506Y-57044537D01*
X180970820Y-57103502D01*
X181090518Y-57139812D01*
X181215000Y-57152072D01*
X183115000Y-57152072D01*
X183239482Y-57139812D01*
X183359180Y-57103502D01*
X183469494Y-57044537D01*
X183469938Y-57044173D01*
X183516377Y-57082284D01*
X183713553Y-57187676D01*
X183904168Y-57245499D01*
X183927501Y-57252577D01*
X184149999Y-57274491D01*
X184189472Y-57270603D01*
X184412001Y-57493133D01*
X184412000Y-64079173D01*
X184381410Y-64021942D01*
X184270817Y-63887183D01*
X184136058Y-63776590D01*
X183982313Y-63694412D01*
X183815489Y-63643806D01*
X183641999Y-63626719D01*
X183468509Y-63643806D01*
X183301686Y-63694412D01*
X183147940Y-63776590D01*
X183046953Y-63859468D01*
X182622113Y-64284309D01*
X182558817Y-64207183D01*
X182525044Y-64179466D01*
X182205046Y-63859468D01*
X182104059Y-63776590D01*
X181950313Y-63694412D01*
X181783490Y-63643805D01*
X181610000Y-63626719D01*
X181436510Y-63643805D01*
X181269687Y-63694412D01*
X181115941Y-63776590D01*
X180981183Y-63887183D01*
X180870590Y-64021941D01*
X180788412Y-64175687D01*
X180737805Y-64342510D01*
X180720719Y-64516000D01*
X180737805Y-64689490D01*
X180788412Y-64856313D01*
X180870590Y-65010059D01*
X180953468Y-65111046D01*
X181045001Y-65202579D01*
X181045001Y-65673555D01*
X180974463Y-65759506D01*
X180915498Y-65869820D01*
X180879188Y-65989518D01*
X180866928Y-66114000D01*
X180866928Y-67214000D01*
X180879188Y-67338482D01*
X180915498Y-67458180D01*
X180974463Y-67568494D01*
X181053815Y-67665185D01*
X181150506Y-67744537D01*
X181170001Y-67754957D01*
X181170000Y-77618685D01*
X181061782Y-77690995D01*
X180941995Y-77810782D01*
X180847878Y-77951637D01*
X180783049Y-78108147D01*
X180750000Y-78274297D01*
X180750000Y-78443703D01*
X180783049Y-78609853D01*
X180847878Y-78766363D01*
X180856375Y-78779079D01*
X180805703Y-78769000D01*
X180636297Y-78769000D01*
X180470147Y-78802049D01*
X180313637Y-78866878D01*
X180172782Y-78960995D01*
X180052995Y-79080782D01*
X179958878Y-79221637D01*
X179894049Y-79378147D01*
X179861000Y-79544297D01*
X179861000Y-79713703D01*
X179894049Y-79879853D01*
X179958878Y-80036363D01*
X180052995Y-80177218D01*
X180172782Y-80297005D01*
X180313637Y-80391122D01*
X180470147Y-80455951D01*
X180636297Y-80489000D01*
X180805703Y-80489000D01*
X180971853Y-80455951D01*
X181128363Y-80391122D01*
X181131539Y-80389000D01*
X182588678Y-80389000D01*
X182626000Y-80392676D01*
X182663322Y-80389000D01*
X182663333Y-80389000D01*
X182774986Y-80378003D01*
X182918247Y-80334546D01*
X183050276Y-80263974D01*
X183166001Y-80169001D01*
X183189804Y-80139997D01*
X183490998Y-79838803D01*
X183520001Y-79815001D01*
X183614974Y-79699276D01*
X183685546Y-79567247D01*
X183729003Y-79423986D01*
X183740000Y-79312333D01*
X183740000Y-79312332D01*
X183743677Y-79275000D01*
X183740000Y-79237667D01*
X183740000Y-72863967D01*
X195278500Y-72863967D01*
X195278500Y-73186033D01*
X195341332Y-73501912D01*
X195464582Y-73799463D01*
X195643513Y-74067252D01*
X195871248Y-74294987D01*
X196139037Y-74473918D01*
X196436588Y-74597168D01*
X196752467Y-74660000D01*
X197074533Y-74660000D01*
X197390412Y-74597168D01*
X197687963Y-74473918D01*
X197955752Y-74294987D01*
X198183487Y-74067252D01*
X198362418Y-73799463D01*
X198485668Y-73501912D01*
X198548500Y-73186033D01*
X198548500Y-72863967D01*
X198485668Y-72548088D01*
X198362418Y-72250537D01*
X198183487Y-71982748D01*
X197955752Y-71755013D01*
X197687963Y-71576082D01*
X197390412Y-71452832D01*
X197074533Y-71390000D01*
X196752467Y-71390000D01*
X196436588Y-71452832D01*
X196139037Y-71576082D01*
X195871248Y-71755013D01*
X195643513Y-71982748D01*
X195464582Y-72250537D01*
X195341332Y-72548088D01*
X195278500Y-72863967D01*
X183740000Y-72863967D01*
X183740000Y-69215000D01*
X185038718Y-69215000D01*
X185055805Y-69388490D01*
X185106411Y-69555313D01*
X185188589Y-69709059D01*
X185299183Y-69843817D01*
X185433941Y-69954411D01*
X185587687Y-70036589D01*
X185754510Y-70087195D01*
X185884523Y-70100000D01*
X189371422Y-70100000D01*
X189869000Y-70597579D01*
X189869001Y-71925477D01*
X189881806Y-72055490D01*
X189932412Y-72222313D01*
X190014590Y-72376059D01*
X190125184Y-72510817D01*
X190259942Y-72621411D01*
X190413688Y-72703589D01*
X190580511Y-72754195D01*
X190754000Y-72771282D01*
X190927490Y-72754195D01*
X191094313Y-72703589D01*
X191248059Y-72621411D01*
X191382817Y-72510817D01*
X191493411Y-72376059D01*
X191575589Y-72222313D01*
X191626195Y-72055490D01*
X191639000Y-71925477D01*
X191639000Y-70274469D01*
X191643281Y-70231000D01*
X191639000Y-70187531D01*
X191639000Y-70187523D01*
X191626195Y-70057510D01*
X191575589Y-69890687D01*
X191493411Y-69736941D01*
X191382817Y-69602183D01*
X191349050Y-69574471D01*
X190394534Y-68619956D01*
X190366817Y-68586183D01*
X190232059Y-68475589D01*
X190078313Y-68393411D01*
X189911490Y-68342805D01*
X189781477Y-68330000D01*
X189781469Y-68330000D01*
X189738000Y-68325719D01*
X189694531Y-68330000D01*
X185884523Y-68330000D01*
X185754510Y-68342805D01*
X185587687Y-68393411D01*
X185433941Y-68475589D01*
X185299183Y-68586183D01*
X185188589Y-68720941D01*
X185106411Y-68874687D01*
X185055805Y-69041510D01*
X185038718Y-69215000D01*
X183740000Y-69215000D01*
X183740000Y-67852072D01*
X184775000Y-67852072D01*
X184899482Y-67839812D01*
X185019180Y-67803502D01*
X185129494Y-67744537D01*
X185226185Y-67665185D01*
X185305537Y-67568494D01*
X185364502Y-67458180D01*
X185367287Y-67449000D01*
X185491248Y-67449000D01*
X185547000Y-67454491D01*
X185602751Y-67449000D01*
X185602752Y-67449000D01*
X185769499Y-67432577D01*
X185983447Y-67367676D01*
X186180623Y-67262284D01*
X186353449Y-67120449D01*
X186495284Y-66947623D01*
X186600676Y-66750447D01*
X186665577Y-66536499D01*
X186687491Y-66314000D01*
X186682000Y-66258248D01*
X186682000Y-60439992D01*
X187770000Y-60439992D01*
X187770000Y-61353008D01*
X187948120Y-62248480D01*
X188297516Y-63091996D01*
X188804760Y-63851140D01*
X189450360Y-64496740D01*
X190209504Y-65003984D01*
X191053020Y-65353380D01*
X191948492Y-65531500D01*
X192861508Y-65531500D01*
X193756980Y-65353380D01*
X194600496Y-65003984D01*
X195359640Y-64496740D01*
X196005240Y-63851140D01*
X196512484Y-63091996D01*
X196861880Y-62248480D01*
X197040000Y-61353008D01*
X197040000Y-60439992D01*
X196861880Y-59544520D01*
X196512484Y-58701004D01*
X196005240Y-57941860D01*
X195359640Y-57296260D01*
X194600496Y-56789016D01*
X193756980Y-56439620D01*
X192861508Y-56261500D01*
X191948492Y-56261500D01*
X191053020Y-56439620D01*
X190209504Y-56789016D01*
X189450360Y-57296260D01*
X188804760Y-57941860D01*
X188297516Y-58701004D01*
X187948120Y-59544520D01*
X187770000Y-60439992D01*
X186682000Y-60439992D01*
X186682000Y-57078752D01*
X186687491Y-57023000D01*
X186665577Y-56800501D01*
X186600676Y-56586553D01*
X186495284Y-56389377D01*
X186438299Y-56319941D01*
X186353449Y-56216551D01*
X186310140Y-56181008D01*
X185499995Y-55370864D01*
X185464449Y-55327551D01*
X185316948Y-55206500D01*
X197846620Y-55206500D01*
X198095000Y-55454881D01*
X198095001Y-60292571D01*
X198091807Y-60325000D01*
X198104550Y-60454383D01*
X198142290Y-60578793D01*
X198203575Y-60693450D01*
X198286052Y-60793948D01*
X198386550Y-60876425D01*
X198501207Y-60937710D01*
X198625617Y-60975450D01*
X198722581Y-60985000D01*
X198755000Y-60988193D01*
X198787419Y-60985000D01*
X203942620Y-60985000D01*
X204191000Y-61233381D01*
X204191001Y-134346618D01*
X203942620Y-134595000D01*
X198787419Y-134595000D01*
X198755000Y-134591807D01*
X198722581Y-134595000D01*
X198625617Y-134604550D01*
X198501207Y-134642290D01*
X198386550Y-134703575D01*
X198286052Y-134786052D01*
X198203575Y-134886550D01*
X198142290Y-135001207D01*
X198104550Y-135125617D01*
X198091807Y-135255000D01*
X198095000Y-135287419D01*
X198095001Y-140061618D01*
X197846620Y-140310000D01*
X99333381Y-140310000D01*
X99085000Y-140061620D01*
X99085000Y-135350919D01*
X99088193Y-135318500D01*
X99075450Y-135189117D01*
X99037710Y-135064707D01*
X98976425Y-134950050D01*
X98893948Y-134849552D01*
X98793450Y-134767075D01*
X98678793Y-134705790D01*
X98554383Y-134668050D01*
X98457419Y-134658500D01*
X98425000Y-134655307D01*
X98392581Y-134658500D01*
X93237381Y-134658500D01*
X92989000Y-134410120D01*
X92989000Y-134163492D01*
X100140000Y-134163492D01*
X100140000Y-135076508D01*
X100318120Y-135971980D01*
X100667516Y-136815496D01*
X101174760Y-137574640D01*
X101820360Y-138220240D01*
X102579504Y-138727484D01*
X103423020Y-139076880D01*
X104318492Y-139255000D01*
X105231508Y-139255000D01*
X105867468Y-139128500D01*
X138747219Y-139128500D01*
X138764305Y-139301990D01*
X138814912Y-139468813D01*
X138897090Y-139622559D01*
X139007683Y-139757317D01*
X139142441Y-139867910D01*
X139296187Y-139950088D01*
X139463010Y-140000695D01*
X139636500Y-140017781D01*
X139809990Y-140000695D01*
X139976813Y-139950088D01*
X140130559Y-139867910D01*
X140231546Y-139785032D01*
X142558578Y-137458000D01*
X143851928Y-137458000D01*
X143851928Y-137858000D01*
X143868031Y-138021500D01*
X143915722Y-138178716D01*
X143993169Y-138323608D01*
X144097394Y-138450606D01*
X144224392Y-138554831D01*
X144369284Y-138632278D01*
X144526500Y-138679969D01*
X144690000Y-138696072D01*
X146350000Y-138696072D01*
X146513500Y-138679969D01*
X146670716Y-138632278D01*
X146815608Y-138554831D01*
X146929941Y-138461000D01*
X147363477Y-138461000D01*
X147493490Y-138448195D01*
X147660313Y-138397589D01*
X147814059Y-138315411D01*
X147948817Y-138204817D01*
X148059411Y-138070059D01*
X148141589Y-137916313D01*
X148192195Y-137749490D01*
X148209282Y-137576000D01*
X149005718Y-137576000D01*
X149022805Y-137749490D01*
X149073411Y-137916313D01*
X149155589Y-138070059D01*
X149266183Y-138204817D01*
X149400941Y-138315411D01*
X149554687Y-138397589D01*
X149721510Y-138448195D01*
X149851523Y-138461000D01*
X150250059Y-138461000D01*
X150364392Y-138554831D01*
X150509284Y-138632278D01*
X150666500Y-138679969D01*
X150830000Y-138696072D01*
X152490000Y-138696072D01*
X152653500Y-138679969D01*
X152810716Y-138632278D01*
X152955608Y-138554831D01*
X153082606Y-138450606D01*
X153164001Y-138351427D01*
X153164000Y-138781461D01*
X153161878Y-138784637D01*
X153097049Y-138941147D01*
X153064000Y-139107297D01*
X153064000Y-139276703D01*
X153097049Y-139442853D01*
X153161878Y-139599363D01*
X153255995Y-139740218D01*
X153375782Y-139860005D01*
X153516637Y-139954122D01*
X153673147Y-140018951D01*
X153839297Y-140052000D01*
X154008703Y-140052000D01*
X154174853Y-140018951D01*
X154331363Y-139954122D01*
X154472218Y-139860005D01*
X154592005Y-139740218D01*
X154635146Y-139675654D01*
X154708589Y-139813058D01*
X154819183Y-139947817D01*
X154953941Y-140058411D01*
X155107687Y-140140589D01*
X155274510Y-140191195D01*
X155448000Y-140208282D01*
X155621489Y-140191195D01*
X155788312Y-140140589D01*
X155942058Y-140058411D01*
X156076817Y-139947817D01*
X156187411Y-139813059D01*
X156269589Y-139659313D01*
X156320195Y-139492490D01*
X156333000Y-139362477D01*
X156333000Y-137584466D01*
X156337281Y-137540999D01*
X156333000Y-137497533D01*
X156333000Y-137497523D01*
X156320195Y-137367510D01*
X156269589Y-137200687D01*
X156187411Y-137046941D01*
X156163210Y-137017452D01*
X156104532Y-136945953D01*
X156104530Y-136945951D01*
X156076817Y-136912183D01*
X156043049Y-136884470D01*
X153945534Y-134786956D01*
X153917817Y-134753183D01*
X153783059Y-134642589D01*
X153629313Y-134560411D01*
X153462490Y-134509805D01*
X153332477Y-134497000D01*
X153332469Y-134497000D01*
X153289000Y-134492719D01*
X153245531Y-134497000D01*
X152835557Y-134497000D01*
X152810716Y-134483722D01*
X152653500Y-134436031D01*
X152490000Y-134419928D01*
X150830000Y-134419928D01*
X150666500Y-134436031D01*
X150509284Y-134483722D01*
X150364392Y-134561169D01*
X150237394Y-134665394D01*
X150133169Y-134792392D01*
X150055722Y-134937284D01*
X150008031Y-135094500D01*
X149991928Y-135258000D01*
X149991928Y-135658000D01*
X150008031Y-135821500D01*
X150055722Y-135978716D01*
X150133169Y-136123608D01*
X150237394Y-136250606D01*
X150364392Y-136354831D01*
X150509284Y-136432278D01*
X150666500Y-136479969D01*
X150830000Y-136496072D01*
X152490000Y-136496072D01*
X152653500Y-136479969D01*
X152810716Y-136432278D01*
X152955608Y-136354831D01*
X152985621Y-136330200D01*
X153737642Y-137082220D01*
X153673147Y-137095049D01*
X153516637Y-137159878D01*
X153375782Y-137253995D01*
X153314059Y-137315718D01*
X153311969Y-137294500D01*
X153264278Y-137137284D01*
X153186831Y-136992392D01*
X153082606Y-136865394D01*
X152955608Y-136761169D01*
X152810716Y-136683722D01*
X152653500Y-136636031D01*
X152490000Y-136619928D01*
X150830000Y-136619928D01*
X150666500Y-136636031D01*
X150509284Y-136683722D01*
X150495668Y-136691000D01*
X149851523Y-136691000D01*
X149721510Y-136703805D01*
X149554687Y-136754411D01*
X149400941Y-136836589D01*
X149266183Y-136947183D01*
X149155589Y-137081941D01*
X149073411Y-137235687D01*
X149022805Y-137402510D01*
X149005718Y-137576000D01*
X148209282Y-137576000D01*
X148192195Y-137402510D01*
X148141589Y-137235687D01*
X148059411Y-137081941D01*
X147948817Y-136947183D01*
X147814059Y-136836589D01*
X147660313Y-136754411D01*
X147493490Y-136703805D01*
X147363477Y-136691000D01*
X146684332Y-136691000D01*
X146670716Y-136683722D01*
X146513500Y-136636031D01*
X146350000Y-136619928D01*
X144690000Y-136619928D01*
X144526500Y-136636031D01*
X144369284Y-136683722D01*
X144224392Y-136761169D01*
X144097394Y-136865394D01*
X143993169Y-136992392D01*
X143915722Y-137137284D01*
X143868031Y-137294500D01*
X143851928Y-137458000D01*
X142558578Y-137458000D01*
X143755579Y-136261000D01*
X144110059Y-136261000D01*
X144224392Y-136354831D01*
X144369284Y-136432278D01*
X144526500Y-136479969D01*
X144690000Y-136496072D01*
X146350000Y-136496072D01*
X146513500Y-136479969D01*
X146670716Y-136432278D01*
X146815608Y-136354831D01*
X146942606Y-136250606D01*
X147046831Y-136123608D01*
X147124278Y-135978716D01*
X147171969Y-135821500D01*
X147188072Y-135658000D01*
X147188072Y-135258000D01*
X147171969Y-135094500D01*
X147124278Y-134937284D01*
X147046831Y-134792392D01*
X146942606Y-134665394D01*
X146815608Y-134561169D01*
X146670716Y-134483722D01*
X146513500Y-134436031D01*
X146350000Y-134419928D01*
X144690000Y-134419928D01*
X144526500Y-134436031D01*
X144369284Y-134483722D01*
X144355668Y-134491000D01*
X143432465Y-134491000D01*
X143388999Y-134486719D01*
X143345533Y-134491000D01*
X143345523Y-134491000D01*
X143215510Y-134503805D01*
X143048687Y-134554411D01*
X142894941Y-134636589D01*
X142887630Y-134642589D01*
X142793953Y-134719468D01*
X142793951Y-134719470D01*
X142760183Y-134747183D01*
X142732470Y-134780951D01*
X138979968Y-138533454D01*
X138897090Y-138634441D01*
X138814912Y-138788187D01*
X138764305Y-138955010D01*
X138747219Y-139128500D01*
X105867468Y-139128500D01*
X106126980Y-139076880D01*
X106970496Y-138727484D01*
X107729640Y-138220240D01*
X108375240Y-137574640D01*
X108882484Y-136815496D01*
X109231880Y-135971980D01*
X109410000Y-135076508D01*
X109410000Y-134163492D01*
X109231880Y-133268020D01*
X108882484Y-132424504D01*
X108375240Y-131665360D01*
X107729640Y-131019760D01*
X106970496Y-130512516D01*
X106126980Y-130163120D01*
X105231508Y-129985000D01*
X104318492Y-129985000D01*
X103423020Y-130163120D01*
X102579504Y-130512516D01*
X101820360Y-131019760D01*
X101174760Y-131665360D01*
X100667516Y-132424504D01*
X100318120Y-133268020D01*
X100140000Y-134163492D01*
X92989000Y-134163492D01*
X92989000Y-112579999D01*
X104586928Y-112579999D01*
X104586928Y-113480001D01*
X104603992Y-113653255D01*
X104654528Y-113819851D01*
X104736595Y-113973387D01*
X104847038Y-114107962D01*
X104981613Y-114218405D01*
X105135149Y-114300472D01*
X105301745Y-114351008D01*
X105474999Y-114368072D01*
X106125001Y-114368072D01*
X106298255Y-114351008D01*
X106464851Y-114300472D01*
X106618387Y-114218405D01*
X106752962Y-114107962D01*
X106863405Y-113973387D01*
X106945472Y-113819851D01*
X106948718Y-113809150D01*
X107064147Y-113856963D01*
X107230297Y-113890012D01*
X107399703Y-113890012D01*
X107565853Y-113856963D01*
X107722363Y-113792134D01*
X107863218Y-113698017D01*
X107980938Y-113580297D01*
X114075000Y-113580297D01*
X114075000Y-113749703D01*
X114108049Y-113915853D01*
X114172878Y-114072363D01*
X114266995Y-114213218D01*
X114386782Y-114333005D01*
X114527637Y-114427122D01*
X114684147Y-114491951D01*
X114850297Y-114525000D01*
X115019703Y-114525000D01*
X115185853Y-114491951D01*
X115301279Y-114444140D01*
X115304528Y-114454851D01*
X115386595Y-114608387D01*
X115497038Y-114742962D01*
X115631613Y-114853405D01*
X115785149Y-114935472D01*
X115951745Y-114986008D01*
X116124999Y-115003072D01*
X116775001Y-115003072D01*
X116948255Y-114986008D01*
X117114851Y-114935472D01*
X117268387Y-114853405D01*
X117402962Y-114742962D01*
X117513405Y-114608387D01*
X117595472Y-114454851D01*
X117646008Y-114288255D01*
X117663072Y-114115001D01*
X117663072Y-113214999D01*
X117646008Y-113041745D01*
X117595472Y-112875149D01*
X117513405Y-112721613D01*
X117402962Y-112587038D01*
X117335000Y-112531263D01*
X117335000Y-111623737D01*
X117402962Y-111567962D01*
X117513405Y-111433387D01*
X117595472Y-111279851D01*
X117646008Y-111113255D01*
X117663072Y-110940001D01*
X117663072Y-110039999D01*
X117646008Y-109866745D01*
X117595472Y-109700149D01*
X117513405Y-109546613D01*
X117402962Y-109412038D01*
X117268387Y-109301595D01*
X117114851Y-109219528D01*
X116948255Y-109168992D01*
X116775001Y-109151928D01*
X116124999Y-109151928D01*
X115951745Y-109168992D01*
X115785149Y-109219528D01*
X115631613Y-109301595D01*
X115497038Y-109412038D01*
X115386595Y-109546613D01*
X115304528Y-109700149D01*
X115253992Y-109866745D01*
X115236928Y-110039999D01*
X115236928Y-110940001D01*
X115253992Y-111113255D01*
X115304528Y-111279851D01*
X115386595Y-111433387D01*
X115497038Y-111567962D01*
X115565001Y-111623738D01*
X115565000Y-112531263D01*
X115497038Y-112587038D01*
X115386595Y-112721613D01*
X115304528Y-112875149D01*
X115301279Y-112885860D01*
X115185853Y-112838049D01*
X115019703Y-112805000D01*
X114850297Y-112805000D01*
X114684147Y-112838049D01*
X114527637Y-112902878D01*
X114386782Y-112996995D01*
X114266995Y-113116782D01*
X114172878Y-113257637D01*
X114108049Y-113414147D01*
X114075000Y-113580297D01*
X107980938Y-113580297D01*
X107983005Y-113578230D01*
X108077122Y-113437375D01*
X108141951Y-113280865D01*
X108175000Y-113114715D01*
X108175000Y-112945309D01*
X108141951Y-112779159D01*
X108077122Y-112622649D01*
X107983005Y-112481794D01*
X107863218Y-112362007D01*
X107722363Y-112267890D01*
X107565853Y-112203061D01*
X107399703Y-112170012D01*
X107230297Y-112170012D01*
X107064147Y-112203061D01*
X106948724Y-112250871D01*
X106945472Y-112240149D01*
X106863405Y-112086613D01*
X106752962Y-111952038D01*
X106618387Y-111841595D01*
X106464851Y-111759528D01*
X106298255Y-111708992D01*
X106125001Y-111691928D01*
X105474999Y-111691928D01*
X105301745Y-111708992D01*
X105135149Y-111759528D01*
X104981613Y-111841595D01*
X104847038Y-111952038D01*
X104736595Y-112086613D01*
X104654528Y-112240149D01*
X104603992Y-112406745D01*
X104586928Y-112579999D01*
X92989000Y-112579999D01*
X92989000Y-104613967D01*
X98377500Y-104613967D01*
X98377500Y-104936033D01*
X98440332Y-105251912D01*
X98563582Y-105549463D01*
X98742513Y-105817252D01*
X98970248Y-106044987D01*
X99238037Y-106223918D01*
X99535588Y-106347168D01*
X99851467Y-106410000D01*
X100173533Y-106410000D01*
X100489412Y-106347168D01*
X100786963Y-106223918D01*
X101054752Y-106044987D01*
X101282487Y-105817252D01*
X101461418Y-105549463D01*
X101476190Y-105513799D01*
X121841565Y-105513799D01*
X121845001Y-105548686D01*
X121845000Y-135958921D01*
X121841565Y-135993798D01*
X121855273Y-136132982D01*
X121895872Y-136266818D01*
X121961800Y-136390161D01*
X122050525Y-136498273D01*
X122146084Y-136576696D01*
X122158637Y-136586998D01*
X122281980Y-136652926D01*
X122415816Y-136693525D01*
X122555000Y-136707233D01*
X122589877Y-136703798D01*
X135977244Y-136703798D01*
X136012121Y-136707233D01*
X136046998Y-136703798D01*
X136151305Y-136693525D01*
X136285141Y-136652926D01*
X136408484Y-136586998D01*
X136516596Y-136498273D01*
X136605321Y-136390161D01*
X136671249Y-136266818D01*
X136711848Y-136132982D01*
X136725556Y-135993798D01*
X136722121Y-135958921D01*
X136722121Y-117521999D01*
X139631928Y-117521999D01*
X139631928Y-118172001D01*
X139648992Y-118345255D01*
X139699528Y-118511851D01*
X139781595Y-118665387D01*
X139892038Y-118799962D01*
X139979816Y-118872000D01*
X139892038Y-118944038D01*
X139781595Y-119078613D01*
X139699528Y-119232149D01*
X139648992Y-119398745D01*
X139631928Y-119571999D01*
X139631928Y-120222001D01*
X139648992Y-120395255D01*
X139699528Y-120561851D01*
X139781595Y-120715387D01*
X139892038Y-120849962D01*
X140026613Y-120960405D01*
X140180149Y-121042472D01*
X140346745Y-121093008D01*
X140519999Y-121110072D01*
X141420001Y-121110072D01*
X141593255Y-121093008D01*
X141759851Y-121042472D01*
X141913387Y-120960405D01*
X142047962Y-120849962D01*
X142158405Y-120715387D01*
X142189614Y-120657000D01*
X144064777Y-120657000D01*
X144048495Y-120673282D01*
X143954378Y-120814137D01*
X143889549Y-120970647D01*
X143888804Y-120974395D01*
X142998998Y-121864201D01*
X142970000Y-121887999D01*
X142946202Y-121916997D01*
X142946201Y-121916998D01*
X142875026Y-122003724D01*
X142804454Y-122135754D01*
X142760998Y-122279015D01*
X142746324Y-122428000D01*
X142750001Y-122465332D01*
X142750000Y-126327677D01*
X142746324Y-126365000D01*
X142750000Y-126402322D01*
X142750000Y-126402332D01*
X142760997Y-126513985D01*
X142799521Y-126640985D01*
X142804454Y-126657246D01*
X142875026Y-126789276D01*
X142895376Y-126814072D01*
X142969999Y-126905001D01*
X142999003Y-126928804D01*
X144851200Y-128781002D01*
X144874999Y-128810001D01*
X144990724Y-128904974D01*
X145122753Y-128975546D01*
X145266014Y-129019003D01*
X145377667Y-129030000D01*
X145377677Y-129030000D01*
X145415000Y-129033676D01*
X145452323Y-129030000D01*
X147009699Y-129030000D01*
X147830000Y-129850302D01*
X147830000Y-130010678D01*
X147826324Y-130048000D01*
X147830000Y-130085322D01*
X147830000Y-130085332D01*
X147830001Y-130085342D01*
X147830000Y-131288461D01*
X147827878Y-131291637D01*
X147763049Y-131448147D01*
X147730000Y-131614297D01*
X147730000Y-131783703D01*
X147763049Y-131949853D01*
X147827878Y-132106363D01*
X147921995Y-132247218D01*
X148012777Y-132338000D01*
X146772262Y-132338000D01*
X146670716Y-132283722D01*
X146513500Y-132236031D01*
X146350000Y-132219928D01*
X144690000Y-132219928D01*
X144526500Y-132236031D01*
X144369284Y-132283722D01*
X144224392Y-132361169D01*
X144097394Y-132465394D01*
X143993169Y-132592392D01*
X143915722Y-132737284D01*
X143868031Y-132894500D01*
X143851928Y-133058000D01*
X143851928Y-133458000D01*
X143868031Y-133621500D01*
X143915722Y-133778716D01*
X143993169Y-133923608D01*
X144097394Y-134050606D01*
X144224392Y-134154831D01*
X144369284Y-134232278D01*
X144526500Y-134279969D01*
X144690000Y-134296072D01*
X146350000Y-134296072D01*
X146513500Y-134279969D01*
X146670716Y-134232278D01*
X146815608Y-134154831D01*
X146872672Y-134108000D01*
X150307328Y-134108000D01*
X150364392Y-134154831D01*
X150509284Y-134232278D01*
X150666500Y-134279969D01*
X150830000Y-134296072D01*
X152490000Y-134296072D01*
X152653500Y-134279969D01*
X152810716Y-134232278D01*
X152955608Y-134154831D01*
X153082606Y-134050606D01*
X153186831Y-133923608D01*
X153264278Y-133778716D01*
X153311969Y-133621500D01*
X153328072Y-133458000D01*
X153328072Y-133058000D01*
X153311969Y-132894500D01*
X153264278Y-132737284D01*
X153186831Y-132592392D01*
X153082606Y-132465394D01*
X152955608Y-132361169D01*
X152810716Y-132283722D01*
X152653500Y-132236031D01*
X152490000Y-132219928D01*
X150830000Y-132219928D01*
X150666500Y-132236031D01*
X150509284Y-132283722D01*
X150407738Y-132338000D01*
X149167223Y-132338000D01*
X149258005Y-132247218D01*
X149352122Y-132106363D01*
X149416951Y-131949853D01*
X149450000Y-131783703D01*
X149450000Y-131614297D01*
X149416951Y-131448147D01*
X149352122Y-131291637D01*
X149350000Y-131288461D01*
X149350000Y-130818000D01*
X150210635Y-130818000D01*
X150237394Y-130850606D01*
X150364392Y-130954831D01*
X150509284Y-131032278D01*
X150666500Y-131079969D01*
X150830000Y-131096072D01*
X152490000Y-131096072D01*
X152653500Y-131079969D01*
X152810716Y-131032278D01*
X152955608Y-130954831D01*
X153082606Y-130850606D01*
X153186831Y-130723608D01*
X153264278Y-130578716D01*
X153311969Y-130421500D01*
X153328072Y-130258000D01*
X153328072Y-129858000D01*
X153311969Y-129694500D01*
X153264278Y-129537284D01*
X153186831Y-129392392D01*
X153082606Y-129265394D01*
X152955608Y-129161169D01*
X152810716Y-129083722D01*
X152653500Y-129036031D01*
X152490000Y-129019928D01*
X150830000Y-129019928D01*
X150666500Y-129036031D01*
X150509284Y-129083722D01*
X150364392Y-129161169D01*
X150237394Y-129265394D01*
X150210635Y-129298000D01*
X149312153Y-129298000D01*
X149295546Y-129243253D01*
X149224974Y-129111224D01*
X149130001Y-128995499D01*
X149101003Y-128971701D01*
X147888304Y-127759003D01*
X147864501Y-127729999D01*
X147748776Y-127635026D01*
X147616747Y-127564454D01*
X147473486Y-127520997D01*
X147361833Y-127510000D01*
X147361822Y-127510000D01*
X147324500Y-127506324D01*
X147287178Y-127510000D01*
X145729802Y-127510000D01*
X144754099Y-126534297D01*
X155985000Y-126534297D01*
X155985000Y-126703703D01*
X156018049Y-126869853D01*
X156082878Y-127026363D01*
X156085001Y-127029540D01*
X156085000Y-128367461D01*
X156082878Y-128370637D01*
X156018049Y-128527147D01*
X155985000Y-128693297D01*
X155985000Y-128862703D01*
X156018049Y-129028853D01*
X156082878Y-129185363D01*
X156176995Y-129326218D01*
X156296782Y-129446005D01*
X156437637Y-129540122D01*
X156594147Y-129604951D01*
X156760297Y-129638000D01*
X156929703Y-129638000D01*
X157095853Y-129604951D01*
X157252363Y-129540122D01*
X157289500Y-129515308D01*
X157326637Y-129540122D01*
X157483147Y-129604951D01*
X157649297Y-129638000D01*
X157818703Y-129638000D01*
X157984853Y-129604951D01*
X158141363Y-129540122D01*
X158178500Y-129515308D01*
X158215637Y-129540122D01*
X158372147Y-129604951D01*
X158538297Y-129638000D01*
X158625000Y-129638000D01*
X158625000Y-129733198D01*
X158181199Y-130177000D01*
X157890539Y-130177000D01*
X157887363Y-130174878D01*
X157730853Y-130110049D01*
X157564703Y-130077000D01*
X157395297Y-130077000D01*
X157229147Y-130110049D01*
X157072637Y-130174878D01*
X156931782Y-130268995D01*
X156811995Y-130388782D01*
X156717878Y-130529637D01*
X156653049Y-130686147D01*
X156620000Y-130852297D01*
X156620000Y-131021703D01*
X156653049Y-131187853D01*
X156717878Y-131344363D01*
X156811995Y-131485218D01*
X156931782Y-131605005D01*
X157072637Y-131699122D01*
X157229147Y-131763951D01*
X157395297Y-131797000D01*
X157564703Y-131797000D01*
X157730853Y-131763951D01*
X157887363Y-131699122D01*
X157890539Y-131697000D01*
X158458678Y-131697000D01*
X158496000Y-131700676D01*
X158533322Y-131697000D01*
X158533333Y-131697000D01*
X158644986Y-131686003D01*
X158788247Y-131642546D01*
X158920276Y-131571974D01*
X159036001Y-131477001D01*
X159059803Y-131447998D01*
X159896004Y-130611798D01*
X159925001Y-130588001D01*
X160019974Y-130472276D01*
X160090546Y-130340247D01*
X160134003Y-130196986D01*
X160145000Y-130085333D01*
X160145000Y-130085323D01*
X160148676Y-130048000D01*
X160145000Y-130010677D01*
X160145000Y-129188539D01*
X160147122Y-129185363D01*
X160211951Y-129028853D01*
X160212697Y-129025105D01*
X160658004Y-128579798D01*
X160680876Y-128561027D01*
X160680876Y-135648655D01*
X160677441Y-135683532D01*
X160691149Y-135822716D01*
X160731748Y-135956552D01*
X160797676Y-136079895D01*
X160886401Y-136188007D01*
X160994513Y-136276732D01*
X161117856Y-136342660D01*
X161251692Y-136383259D01*
X161390876Y-136396967D01*
X161425753Y-136393532D01*
X174844123Y-136393532D01*
X174879000Y-136396967D01*
X174913877Y-136393532D01*
X174948105Y-136390161D01*
X175018184Y-136383259D01*
X175152020Y-136342660D01*
X175275363Y-136276732D01*
X175383475Y-136188007D01*
X175472200Y-136079895D01*
X175538128Y-135956552D01*
X175578727Y-135822716D01*
X175589000Y-135718409D01*
X175589000Y-135718408D01*
X175592435Y-135683532D01*
X175589000Y-135648655D01*
X175589000Y-134163492D01*
X187770000Y-134163492D01*
X187770000Y-135076508D01*
X187948120Y-135971980D01*
X188297516Y-136815496D01*
X188804760Y-137574640D01*
X189450360Y-138220240D01*
X190209504Y-138727484D01*
X191053020Y-139076880D01*
X191948492Y-139255000D01*
X192861508Y-139255000D01*
X193756980Y-139076880D01*
X194600496Y-138727484D01*
X195359640Y-138220240D01*
X196005240Y-137574640D01*
X196512484Y-136815496D01*
X196861880Y-135971980D01*
X197040000Y-135076508D01*
X197040000Y-134163492D01*
X196861880Y-133268020D01*
X196512484Y-132424504D01*
X196005240Y-131665360D01*
X195359640Y-131019760D01*
X194600496Y-130512516D01*
X193756980Y-130163120D01*
X192861508Y-129985000D01*
X191948492Y-129985000D01*
X191053020Y-130163120D01*
X190209504Y-130512516D01*
X189450360Y-131019760D01*
X188804760Y-131665360D01*
X188297516Y-132424504D01*
X187948120Y-133268020D01*
X187770000Y-134163492D01*
X175589000Y-134163492D01*
X175589000Y-126041999D01*
X177992928Y-126041999D01*
X177992928Y-126942001D01*
X178009992Y-127115255D01*
X178060528Y-127281851D01*
X178142595Y-127435387D01*
X178253038Y-127569962D01*
X178387613Y-127680405D01*
X178541149Y-127762472D01*
X178707745Y-127813008D01*
X178880999Y-127830072D01*
X179531001Y-127830072D01*
X179704255Y-127813008D01*
X179870851Y-127762472D01*
X180024387Y-127680405D01*
X180158962Y-127569962D01*
X180269405Y-127435387D01*
X180322080Y-127336840D01*
X180398297Y-127352000D01*
X180567703Y-127352000D01*
X180733853Y-127318951D01*
X180890363Y-127254122D01*
X181031218Y-127160005D01*
X181151005Y-127040218D01*
X181245122Y-126899363D01*
X181309951Y-126742853D01*
X181343000Y-126576703D01*
X181343000Y-126407297D01*
X181309951Y-126241147D01*
X181245122Y-126084637D01*
X181151005Y-125943782D01*
X181031218Y-125823995D01*
X180890363Y-125729878D01*
X180733853Y-125665049D01*
X180567703Y-125632000D01*
X180398297Y-125632000D01*
X180322080Y-125647160D01*
X180269405Y-125548613D01*
X180158962Y-125414038D01*
X180121505Y-125383297D01*
X186711000Y-125383297D01*
X186711000Y-125552703D01*
X186744049Y-125718853D01*
X186808878Y-125875363D01*
X186902995Y-126016218D01*
X187022782Y-126136005D01*
X187163637Y-126230122D01*
X187320147Y-126294951D01*
X187486297Y-126328000D01*
X187655703Y-126328000D01*
X187821853Y-126294951D01*
X187942230Y-126245089D01*
X187948528Y-126265851D01*
X188030595Y-126419387D01*
X188141038Y-126553962D01*
X188275613Y-126664405D01*
X188429149Y-126746472D01*
X188595745Y-126797008D01*
X188768999Y-126814072D01*
X189419001Y-126814072D01*
X189592255Y-126797008D01*
X189758851Y-126746472D01*
X189912387Y-126664405D01*
X190046962Y-126553962D01*
X190157405Y-126419387D01*
X190239472Y-126265851D01*
X190290008Y-126099255D01*
X190307072Y-125926001D01*
X190307072Y-125025999D01*
X190290008Y-124852745D01*
X190239472Y-124686149D01*
X190229000Y-124666557D01*
X190229000Y-123872443D01*
X190239472Y-123852851D01*
X190290008Y-123686255D01*
X190307072Y-123513001D01*
X190307072Y-122612999D01*
X190290008Y-122439745D01*
X190239472Y-122273149D01*
X190157405Y-122119613D01*
X190046962Y-121985038D01*
X189912387Y-121874595D01*
X189758851Y-121792528D01*
X189592255Y-121741992D01*
X189419001Y-121724928D01*
X188768999Y-121724928D01*
X188595745Y-121741992D01*
X188429149Y-121792528D01*
X188275613Y-121874595D01*
X188141038Y-121985038D01*
X188030595Y-122119613D01*
X187948528Y-122273149D01*
X187897992Y-122439745D01*
X187880928Y-122612999D01*
X187880928Y-123513001D01*
X187897992Y-123686255D01*
X187948528Y-123852851D01*
X187959001Y-123872444D01*
X187959000Y-124666557D01*
X187948528Y-124686149D01*
X187946542Y-124692697D01*
X187821853Y-124641049D01*
X187655703Y-124608000D01*
X187486297Y-124608000D01*
X187320147Y-124641049D01*
X187163637Y-124705878D01*
X187022782Y-124799995D01*
X186902995Y-124919782D01*
X186808878Y-125060637D01*
X186744049Y-125217147D01*
X186711000Y-125383297D01*
X180121505Y-125383297D01*
X180024387Y-125303595D01*
X179870851Y-125221528D01*
X179704255Y-125170992D01*
X179531001Y-125153928D01*
X178880999Y-125153928D01*
X178707745Y-125170992D01*
X178541149Y-125221528D01*
X178387613Y-125303595D01*
X178253038Y-125414038D01*
X178142595Y-125548613D01*
X178060528Y-125702149D01*
X178009992Y-125868745D01*
X177992928Y-126041999D01*
X175589000Y-126041999D01*
X175589000Y-120396000D01*
X195833719Y-120396000D01*
X195838000Y-120439469D01*
X195838000Y-120439476D01*
X195847110Y-120531974D01*
X195850234Y-120563687D01*
X195850805Y-120569489D01*
X195901411Y-120736312D01*
X195983589Y-120890058D01*
X196094183Y-121024817D01*
X196127956Y-121052534D01*
X196574466Y-121499044D01*
X196602183Y-121532817D01*
X196736941Y-121643411D01*
X196890687Y-121725589D01*
X197057510Y-121776195D01*
X197187523Y-121789000D01*
X197187533Y-121789000D01*
X197230999Y-121793281D01*
X197274465Y-121789000D01*
X199814477Y-121789000D01*
X199944490Y-121776195D01*
X200111313Y-121725589D01*
X200265059Y-121643411D01*
X200399817Y-121532817D01*
X200510411Y-121398059D01*
X200592589Y-121244313D01*
X200643195Y-121077490D01*
X200660282Y-120904000D01*
X200643195Y-120730510D01*
X200592589Y-120563687D01*
X200510411Y-120409941D01*
X200399817Y-120275183D01*
X200265059Y-120164589D01*
X200111313Y-120082411D01*
X199944490Y-120031805D01*
X199814477Y-120019000D01*
X197608000Y-120019000D01*
X197608000Y-119590523D01*
X197595195Y-119460510D01*
X197544589Y-119293687D01*
X197462411Y-119139941D01*
X197351817Y-119005183D01*
X197217059Y-118894589D01*
X197063313Y-118812411D01*
X196896490Y-118761805D01*
X196723000Y-118744718D01*
X196549511Y-118761805D01*
X196382688Y-118812411D01*
X196228942Y-118894589D01*
X196094184Y-119005183D01*
X195983590Y-119139941D01*
X195901412Y-119293687D01*
X195850805Y-119460510D01*
X195838000Y-119590523D01*
X195838000Y-120352531D01*
X195833719Y-120396000D01*
X175589000Y-120396000D01*
X175589000Y-105238410D01*
X175592435Y-105203533D01*
X175578727Y-105064349D01*
X175538128Y-104930513D01*
X175472200Y-104807170D01*
X175383475Y-104699058D01*
X175275363Y-104610333D01*
X175152020Y-104544405D01*
X175018184Y-104503806D01*
X174913877Y-104493533D01*
X174879000Y-104490098D01*
X174844123Y-104493533D01*
X161425753Y-104493533D01*
X161390876Y-104490098D01*
X161355999Y-104493533D01*
X161251692Y-104503806D01*
X161117856Y-104544405D01*
X160994513Y-104610333D01*
X160886401Y-104699058D01*
X160797676Y-104807170D01*
X160731748Y-104930513D01*
X160691149Y-105064349D01*
X160677441Y-105203533D01*
X160680877Y-105238420D01*
X160680876Y-125941412D01*
X160554363Y-125856878D01*
X160397853Y-125792049D01*
X160231703Y-125759000D01*
X160062297Y-125759000D01*
X159896147Y-125792049D01*
X159739637Y-125856878D01*
X159598782Y-125950995D01*
X159478995Y-126070782D01*
X159385000Y-126211454D01*
X159291005Y-126070782D01*
X159171218Y-125950995D01*
X159030363Y-125856878D01*
X158873853Y-125792049D01*
X158707703Y-125759000D01*
X158538297Y-125759000D01*
X158372147Y-125792049D01*
X158215637Y-125856878D01*
X158178500Y-125881692D01*
X158141363Y-125856878D01*
X157984853Y-125792049D01*
X157818703Y-125759000D01*
X157649297Y-125759000D01*
X157483147Y-125792049D01*
X157326637Y-125856878D01*
X157289500Y-125881692D01*
X157252363Y-125856878D01*
X157095853Y-125792049D01*
X156929703Y-125759000D01*
X156760297Y-125759000D01*
X156594147Y-125792049D01*
X156437637Y-125856878D01*
X156296782Y-125950995D01*
X156176995Y-126070782D01*
X156082878Y-126211637D01*
X156018049Y-126368147D01*
X155985000Y-126534297D01*
X144754099Y-126534297D01*
X144270000Y-126050199D01*
X144270000Y-123871999D01*
X146362928Y-123871999D01*
X146362928Y-124522001D01*
X146379992Y-124695255D01*
X146430528Y-124861851D01*
X146512595Y-125015387D01*
X146623038Y-125149962D01*
X146757613Y-125260405D01*
X146911149Y-125342472D01*
X147077745Y-125393008D01*
X147250999Y-125410072D01*
X148151001Y-125410072D01*
X148324255Y-125393008D01*
X148490851Y-125342472D01*
X148644387Y-125260405D01*
X148778962Y-125149962D01*
X148889405Y-125015387D01*
X148971472Y-124861851D01*
X149022008Y-124695255D01*
X149039072Y-124522001D01*
X149039072Y-123871999D01*
X149022008Y-123698745D01*
X148971472Y-123532149D01*
X148889405Y-123378613D01*
X148778962Y-123244038D01*
X148644387Y-123133595D01*
X148605000Y-123112542D01*
X148605000Y-123061297D01*
X148571951Y-122895147D01*
X148507122Y-122738637D01*
X148413005Y-122597782D01*
X148293218Y-122477995D01*
X148152363Y-122383878D01*
X147995853Y-122319049D01*
X147829703Y-122286000D01*
X147660297Y-122286000D01*
X147494147Y-122319049D01*
X147337637Y-122383878D01*
X147196782Y-122477995D01*
X147076995Y-122597782D01*
X146982878Y-122738637D01*
X146918049Y-122895147D01*
X146885000Y-123061297D01*
X146885000Y-123065505D01*
X146757613Y-123133595D01*
X146623038Y-123244038D01*
X146512595Y-123378613D01*
X146430528Y-123532149D01*
X146379992Y-123698745D01*
X146362928Y-123871999D01*
X144270000Y-123871999D01*
X144270000Y-122742801D01*
X144963605Y-122049196D01*
X144967353Y-122048451D01*
X145123863Y-121983622D01*
X145264718Y-121889505D01*
X145384505Y-121769718D01*
X145478622Y-121628863D01*
X145543451Y-121472353D01*
X145576500Y-121306203D01*
X145576500Y-121136797D01*
X145543451Y-120970647D01*
X145478622Y-120814137D01*
X145384505Y-120673282D01*
X145368223Y-120657000D01*
X146675242Y-120657000D01*
X146815147Y-120714951D01*
X146981297Y-120748000D01*
X147150703Y-120748000D01*
X147316853Y-120714951D01*
X147473363Y-120650122D01*
X147614218Y-120556005D01*
X147734005Y-120436218D01*
X147828122Y-120295363D01*
X147892951Y-120138853D01*
X147926000Y-119972703D01*
X147926000Y-119803297D01*
X147892951Y-119637147D01*
X147828122Y-119480637D01*
X147734005Y-119339782D01*
X147614218Y-119219995D01*
X147473363Y-119125878D01*
X147362604Y-119080000D01*
X159010678Y-119080000D01*
X159048000Y-119083676D01*
X159085322Y-119080000D01*
X159085333Y-119080000D01*
X159196986Y-119069003D01*
X159340247Y-119025546D01*
X159472276Y-118954974D01*
X159588001Y-118860001D01*
X159611803Y-118830998D01*
X159822605Y-118620197D01*
X159826353Y-118619451D01*
X159982863Y-118554622D01*
X160123718Y-118460505D01*
X160243505Y-118340718D01*
X160337622Y-118199863D01*
X160402451Y-118043353D01*
X160435500Y-117877203D01*
X160435500Y-117707797D01*
X160402451Y-117541647D01*
X160337622Y-117385137D01*
X160243505Y-117244282D01*
X160123718Y-117124495D01*
X159982863Y-117030378D01*
X159826353Y-116965549D01*
X159660203Y-116932500D01*
X159490797Y-116932500D01*
X159324647Y-116965549D01*
X159168137Y-117030378D01*
X159027282Y-117124495D01*
X158907495Y-117244282D01*
X158813378Y-117385137D01*
X158748549Y-117541647D01*
X158747803Y-117545395D01*
X158733199Y-117560000D01*
X146416539Y-117560000D01*
X146413363Y-117557878D01*
X146256853Y-117493049D01*
X146090703Y-117460000D01*
X145921297Y-117460000D01*
X145755147Y-117493049D01*
X145598637Y-117557878D01*
X145457782Y-117651995D01*
X145337995Y-117771782D01*
X145243878Y-117912637D01*
X145179049Y-118069147D01*
X145146000Y-118235297D01*
X145146000Y-118404703D01*
X145179049Y-118570853D01*
X145243878Y-118727363D01*
X145337995Y-118868218D01*
X145457782Y-118988005D01*
X145598637Y-119082122D01*
X145731123Y-119137000D01*
X142189614Y-119137000D01*
X142158405Y-119078613D01*
X142047962Y-118944038D01*
X141960184Y-118872000D01*
X142047962Y-118799962D01*
X142158405Y-118665387D01*
X142189614Y-118607000D01*
X143090461Y-118607000D01*
X143093637Y-118609122D01*
X143250147Y-118673951D01*
X143416297Y-118707000D01*
X143585703Y-118707000D01*
X143751853Y-118673951D01*
X143908363Y-118609122D01*
X144049218Y-118515005D01*
X144169005Y-118395218D01*
X144263122Y-118254363D01*
X144327951Y-118097853D01*
X144361000Y-117931703D01*
X144361000Y-117762297D01*
X144327951Y-117596147D01*
X144263122Y-117439637D01*
X144169005Y-117298782D01*
X144091219Y-117220996D01*
X144178005Y-117134210D01*
X144272122Y-116993355D01*
X144336951Y-116836845D01*
X144370000Y-116670695D01*
X144370000Y-116501289D01*
X144336951Y-116335139D01*
X144280619Y-116199143D01*
X144336955Y-116063138D01*
X144370004Y-115896988D01*
X144370004Y-115727582D01*
X144336955Y-115561432D01*
X144272126Y-115404922D01*
X144178009Y-115264067D01*
X144058222Y-115144280D01*
X143917367Y-115050163D01*
X143760857Y-114985334D01*
X143594707Y-114952285D01*
X143425301Y-114952285D01*
X143259151Y-114985334D01*
X143102641Y-115050163D01*
X143099465Y-115052285D01*
X142328683Y-115052285D01*
X142325495Y-115049097D01*
X142324749Y-115045349D01*
X142259920Y-114888839D01*
X142165803Y-114747984D01*
X142046016Y-114628197D01*
X141905161Y-114534080D01*
X141748651Y-114469251D01*
X141582501Y-114436202D01*
X141413095Y-114436202D01*
X141246945Y-114469251D01*
X141146501Y-114510857D01*
X141093853Y-114489049D01*
X140927703Y-114456000D01*
X140758297Y-114456000D01*
X140592147Y-114489049D01*
X140435637Y-114553878D01*
X140294782Y-114647995D01*
X140174995Y-114767782D01*
X140080878Y-114908637D01*
X140016049Y-115065147D01*
X139983000Y-115231297D01*
X139983000Y-115400703D01*
X140016049Y-115566853D01*
X140080878Y-115723363D01*
X140082101Y-115725193D01*
X140083000Y-115734322D01*
X140083000Y-115734332D01*
X140093997Y-115845985D01*
X140125858Y-115951018D01*
X140137454Y-115989246D01*
X140208026Y-116121276D01*
X140241215Y-116161716D01*
X140302999Y-116237001D01*
X140332002Y-116260803D01*
X140705127Y-116633928D01*
X140519999Y-116633928D01*
X140346745Y-116650992D01*
X140180149Y-116701528D01*
X140026613Y-116783595D01*
X139892038Y-116894038D01*
X139781595Y-117028613D01*
X139699528Y-117182149D01*
X139648992Y-117348745D01*
X139631928Y-117521999D01*
X136722121Y-117521999D01*
X136722121Y-113326297D01*
X139411500Y-113326297D01*
X139411500Y-113495703D01*
X139444549Y-113661853D01*
X139509378Y-113818363D01*
X139603495Y-113959218D01*
X139723282Y-114079005D01*
X139864137Y-114173122D01*
X140020647Y-114237951D01*
X140186797Y-114271000D01*
X140356203Y-114271000D01*
X140522353Y-114237951D01*
X140678863Y-114173122D01*
X140682039Y-114171000D01*
X142774178Y-114171000D01*
X142811500Y-114174676D01*
X142848822Y-114171000D01*
X142848833Y-114171000D01*
X142960486Y-114160003D01*
X143103747Y-114116546D01*
X143235776Y-114045974D01*
X143351501Y-113951001D01*
X143375303Y-113921998D01*
X143820605Y-113476696D01*
X143824353Y-113475951D01*
X143980863Y-113411122D01*
X144121718Y-113317005D01*
X144241505Y-113197218D01*
X144335622Y-113056363D01*
X144400451Y-112899853D01*
X144433500Y-112733703D01*
X144433500Y-112564297D01*
X144400451Y-112398147D01*
X144335622Y-112241637D01*
X144241505Y-112100782D01*
X144121718Y-111980995D01*
X143980863Y-111886878D01*
X143824353Y-111822049D01*
X143658203Y-111789000D01*
X143488797Y-111789000D01*
X143322647Y-111822049D01*
X143166137Y-111886878D01*
X143025282Y-111980995D01*
X142905495Y-112100782D01*
X142811378Y-112241637D01*
X142746549Y-112398147D01*
X142745804Y-112401895D01*
X142496699Y-112651000D01*
X140682039Y-112651000D01*
X140678863Y-112648878D01*
X140522353Y-112584049D01*
X140356203Y-112551000D01*
X140186797Y-112551000D01*
X140020647Y-112584049D01*
X139864137Y-112648878D01*
X139723282Y-112742995D01*
X139603495Y-112862782D01*
X139509378Y-113003637D01*
X139444549Y-113160147D01*
X139411500Y-113326297D01*
X136722121Y-113326297D01*
X136722121Y-105548676D01*
X136725556Y-105513799D01*
X136711848Y-105374615D01*
X136671249Y-105240779D01*
X136605321Y-105117436D01*
X136516596Y-105009324D01*
X136408484Y-104920599D01*
X136285141Y-104854671D01*
X136151305Y-104814072D01*
X136046998Y-104803799D01*
X136012121Y-104800364D01*
X135977244Y-104803799D01*
X122589877Y-104803799D01*
X122555000Y-104800364D01*
X122520123Y-104803799D01*
X122415816Y-104814072D01*
X122281980Y-104854671D01*
X122158637Y-104920599D01*
X122050525Y-105009324D01*
X121961800Y-105117436D01*
X121895872Y-105240779D01*
X121855273Y-105374615D01*
X121841565Y-105513799D01*
X101476190Y-105513799D01*
X101584668Y-105251912D01*
X101647500Y-104936033D01*
X101647500Y-104613967D01*
X101584668Y-104298088D01*
X101461418Y-104000537D01*
X101282487Y-103732748D01*
X101054752Y-103505013D01*
X100786963Y-103326082D01*
X100489412Y-103202832D01*
X100173533Y-103140000D01*
X99851467Y-103140000D01*
X99535588Y-103202832D01*
X99238037Y-103326082D01*
X98970248Y-103505013D01*
X98742513Y-103732748D01*
X98563582Y-104000537D01*
X98440332Y-104298088D01*
X98377500Y-104613967D01*
X92989000Y-104613967D01*
X92989000Y-101961740D01*
X129706000Y-101961740D01*
X129706000Y-102254260D01*
X129763068Y-102541158D01*
X129875010Y-102811411D01*
X130037525Y-103054632D01*
X130244368Y-103261475D01*
X130487589Y-103423990D01*
X130757842Y-103535932D01*
X131044740Y-103593000D01*
X131337260Y-103593000D01*
X131624158Y-103535932D01*
X131894411Y-103423990D01*
X132137632Y-103261475D01*
X132344475Y-103054632D01*
X132506990Y-102811411D01*
X132618932Y-102541158D01*
X132676000Y-102254260D01*
X132676000Y-101961740D01*
X132618932Y-101674842D01*
X132506990Y-101404589D01*
X132344475Y-101161368D01*
X132137632Y-100954525D01*
X131894411Y-100792010D01*
X131624158Y-100680068D01*
X131337260Y-100623000D01*
X131044740Y-100623000D01*
X130757842Y-100680068D01*
X130487589Y-100792010D01*
X130244368Y-100954525D01*
X130037525Y-101161368D01*
X129875010Y-101404589D01*
X129763068Y-101674842D01*
X129706000Y-101961740D01*
X92989000Y-101961740D01*
X92989000Y-93183967D01*
X98377500Y-93183967D01*
X98377500Y-93506033D01*
X98440332Y-93821912D01*
X98563582Y-94119463D01*
X98742513Y-94387252D01*
X98970248Y-94614987D01*
X99238037Y-94793918D01*
X99535588Y-94917168D01*
X99851467Y-94980000D01*
X100173533Y-94980000D01*
X100489412Y-94917168D01*
X100786963Y-94793918D01*
X101054752Y-94614987D01*
X101282487Y-94387252D01*
X101461418Y-94119463D01*
X101584668Y-93821912D01*
X101647500Y-93506033D01*
X101647500Y-93183967D01*
X101637705Y-93134721D01*
X107402500Y-93134721D01*
X107402500Y-93555279D01*
X107484547Y-93967756D01*
X107645488Y-94356302D01*
X107879137Y-94705983D01*
X108176517Y-95003363D01*
X108526198Y-95237012D01*
X108914744Y-95397953D01*
X109327221Y-95480000D01*
X109747779Y-95480000D01*
X110160256Y-95397953D01*
X110548802Y-95237012D01*
X110898483Y-95003363D01*
X111195863Y-94705983D01*
X111429512Y-94356302D01*
X111590453Y-93967756D01*
X111672500Y-93555279D01*
X111672500Y-93207000D01*
X129525928Y-93207000D01*
X129525928Y-95007000D01*
X129538188Y-95131482D01*
X129574498Y-95251180D01*
X129633463Y-95361494D01*
X129712815Y-95458185D01*
X129809506Y-95537537D01*
X129919820Y-95596502D01*
X130039518Y-95632812D01*
X130164000Y-95645072D01*
X131964000Y-95645072D01*
X132088482Y-95632812D01*
X132208180Y-95596502D01*
X132318494Y-95537537D01*
X132415185Y-95458185D01*
X132494537Y-95361494D01*
X132553502Y-95251180D01*
X132589812Y-95131482D01*
X132602072Y-95007000D01*
X132602072Y-93207000D01*
X132589812Y-93082518D01*
X132553502Y-92962820D01*
X132494537Y-92852506D01*
X132415185Y-92755815D01*
X132318494Y-92676463D01*
X132208180Y-92617498D01*
X132088482Y-92581188D01*
X131964000Y-92568928D01*
X130164000Y-92568928D01*
X130039518Y-92581188D01*
X129919820Y-92617498D01*
X129809506Y-92676463D01*
X129712815Y-92755815D01*
X129633463Y-92852506D01*
X129574498Y-92962820D01*
X129538188Y-93082518D01*
X129525928Y-93207000D01*
X111672500Y-93207000D01*
X111672500Y-93134721D01*
X111590453Y-92722244D01*
X111429512Y-92333698D01*
X111195863Y-91984017D01*
X110898483Y-91686637D01*
X110548802Y-91452988D01*
X110160256Y-91292047D01*
X109747779Y-91210000D01*
X109327221Y-91210000D01*
X108914744Y-91292047D01*
X108526198Y-91452988D01*
X108176517Y-91686637D01*
X107879137Y-91984017D01*
X107645488Y-92333698D01*
X107484547Y-92722244D01*
X107402500Y-93134721D01*
X101637705Y-93134721D01*
X101584668Y-92868088D01*
X101461418Y-92570537D01*
X101282487Y-92302748D01*
X101054752Y-92075013D01*
X100786963Y-91896082D01*
X100489412Y-91772832D01*
X100173533Y-91710000D01*
X99851467Y-91710000D01*
X99535588Y-91772832D01*
X99238037Y-91896082D01*
X98970248Y-92075013D01*
X98742513Y-92302748D01*
X98563582Y-92570537D01*
X98440332Y-92868088D01*
X98377500Y-93183967D01*
X92989000Y-93183967D01*
X92989000Y-87478816D01*
X129529000Y-87478816D01*
X129529000Y-87781184D01*
X129587989Y-88077743D01*
X129703701Y-88357095D01*
X129871688Y-88608505D01*
X129972683Y-88709500D01*
X129871688Y-88810495D01*
X129703701Y-89061905D01*
X129587989Y-89341257D01*
X129529000Y-89637816D01*
X129529000Y-89940184D01*
X129587989Y-90236743D01*
X129703701Y-90516095D01*
X129871688Y-90767505D01*
X130085495Y-90981312D01*
X130336905Y-91149299D01*
X130616257Y-91265011D01*
X130912816Y-91324000D01*
X131215184Y-91324000D01*
X131511743Y-91265011D01*
X131791095Y-91149299D01*
X132042505Y-90981312D01*
X132256312Y-90767505D01*
X132424299Y-90516095D01*
X132540011Y-90236743D01*
X132599000Y-89940184D01*
X132599000Y-89637816D01*
X132540011Y-89341257D01*
X132424299Y-89061905D01*
X132256312Y-88810495D01*
X132155317Y-88709500D01*
X132256312Y-88608505D01*
X132424299Y-88357095D01*
X132540011Y-88077743D01*
X132599000Y-87781184D01*
X132599000Y-87478816D01*
X132540011Y-87182257D01*
X132424299Y-86902905D01*
X132256312Y-86651495D01*
X132042505Y-86437688D01*
X131791095Y-86269701D01*
X131511743Y-86153989D01*
X131215184Y-86095000D01*
X130912816Y-86095000D01*
X130616257Y-86153989D01*
X130336905Y-86269701D01*
X130085495Y-86437688D01*
X129871688Y-86651495D01*
X129703701Y-86902905D01*
X129587989Y-87182257D01*
X129529000Y-87478816D01*
X92989000Y-87478816D01*
X92989000Y-78248000D01*
X98414928Y-78248000D01*
X98414928Y-80248000D01*
X98441599Y-80518799D01*
X98520589Y-80779192D01*
X98648860Y-81019171D01*
X98821485Y-81229515D01*
X99031829Y-81402140D01*
X99271808Y-81530411D01*
X99532201Y-81609401D01*
X99803000Y-81636072D01*
X101303000Y-81636072D01*
X101573799Y-81609401D01*
X101834192Y-81530411D01*
X102074171Y-81402140D01*
X102284515Y-81229515D01*
X102457140Y-81019171D01*
X102585411Y-80779192D01*
X102664401Y-80518799D01*
X102691072Y-80248000D01*
X102691072Y-80142475D01*
X128041000Y-80142475D01*
X128041000Y-80661525D01*
X128142261Y-81170601D01*
X128340893Y-81650141D01*
X128629262Y-82081715D01*
X128996285Y-82448738D01*
X129427859Y-82737107D01*
X129907399Y-82935739D01*
X130416475Y-83037000D01*
X130935525Y-83037000D01*
X131444601Y-82935739D01*
X131924141Y-82737107D01*
X132355715Y-82448738D01*
X132722738Y-82081715D01*
X133011107Y-81650141D01*
X133209739Y-81170601D01*
X133311000Y-80661525D01*
X133311000Y-80142475D01*
X133209739Y-79633399D01*
X133011107Y-79153859D01*
X132722738Y-78722285D01*
X132355715Y-78355262D01*
X131924141Y-78066893D01*
X131444601Y-77868261D01*
X130935525Y-77767000D01*
X130416475Y-77767000D01*
X129907399Y-77868261D01*
X129427859Y-78066893D01*
X128996285Y-78355262D01*
X128629262Y-78722285D01*
X128340893Y-79153859D01*
X128142261Y-79633399D01*
X128041000Y-80142475D01*
X102691072Y-80142475D01*
X102691072Y-78248000D01*
X102664401Y-77977201D01*
X102585411Y-77716808D01*
X102457140Y-77476829D01*
X102284515Y-77266485D01*
X102074171Y-77093860D01*
X101834192Y-76965589D01*
X101573799Y-76886599D01*
X101303000Y-76859928D01*
X99803000Y-76859928D01*
X99532201Y-76886599D01*
X99271808Y-76965589D01*
X99031829Y-77093860D01*
X98821485Y-77266485D01*
X98648860Y-77476829D01*
X98520589Y-77716808D01*
X98441599Y-77977201D01*
X98414928Y-78248000D01*
X92989000Y-78248000D01*
X92989000Y-70642475D01*
X128041000Y-70642475D01*
X128041000Y-71161525D01*
X128142261Y-71670601D01*
X128340893Y-72150141D01*
X128629262Y-72581715D01*
X128996285Y-72948738D01*
X129427859Y-73237107D01*
X129907399Y-73435739D01*
X130416475Y-73537000D01*
X130935525Y-73537000D01*
X131444601Y-73435739D01*
X131924141Y-73237107D01*
X132355715Y-72948738D01*
X132722738Y-72581715D01*
X133011107Y-72150141D01*
X133209739Y-71670601D01*
X133311000Y-71161525D01*
X133311000Y-70722475D01*
X163869000Y-70722475D01*
X163869000Y-71241525D01*
X163970261Y-71750601D01*
X164168893Y-72230141D01*
X164457262Y-72661715D01*
X164824285Y-73028738D01*
X165255859Y-73317107D01*
X165735399Y-73515739D01*
X166244475Y-73617000D01*
X166763525Y-73617000D01*
X167272601Y-73515739D01*
X167752141Y-73317107D01*
X168183715Y-73028738D01*
X168550738Y-72661715D01*
X168839107Y-72230141D01*
X169037739Y-71750601D01*
X169139000Y-71241525D01*
X169139000Y-70722475D01*
X169037739Y-70213399D01*
X168839107Y-69733859D01*
X168550738Y-69302285D01*
X168183715Y-68935262D01*
X167752141Y-68646893D01*
X167272601Y-68448261D01*
X166763525Y-68347000D01*
X166244475Y-68347000D01*
X165735399Y-68448261D01*
X165255859Y-68646893D01*
X164824285Y-68935262D01*
X164457262Y-69302285D01*
X164168893Y-69733859D01*
X163970261Y-70213399D01*
X163869000Y-70722475D01*
X133311000Y-70722475D01*
X133311000Y-70642475D01*
X133209739Y-70133399D01*
X133011107Y-69653859D01*
X132722738Y-69222285D01*
X132355715Y-68855262D01*
X131924141Y-68566893D01*
X131444601Y-68368261D01*
X130935525Y-68267000D01*
X130416475Y-68267000D01*
X129907399Y-68368261D01*
X129427859Y-68566893D01*
X128996285Y-68855262D01*
X128629262Y-69222285D01*
X128340893Y-69653859D01*
X128142261Y-70133399D01*
X128041000Y-70642475D01*
X92989000Y-70642475D01*
X92989000Y-61233380D01*
X93237381Y-60985000D01*
X98392581Y-60985000D01*
X98425000Y-60988193D01*
X98457419Y-60985000D01*
X98554383Y-60975450D01*
X98678793Y-60937710D01*
X98793450Y-60876425D01*
X98893948Y-60793948D01*
X98976425Y-60693450D01*
X99037710Y-60578793D01*
X99075450Y-60454383D01*
X99076867Y-60439992D01*
X100140000Y-60439992D01*
X100140000Y-61353008D01*
X100318120Y-62248480D01*
X100667516Y-63091996D01*
X101174760Y-63851140D01*
X101820360Y-64496740D01*
X102579504Y-65003984D01*
X103423020Y-65353380D01*
X104318492Y-65531500D01*
X105231508Y-65531500D01*
X106126980Y-65353380D01*
X106970496Y-65003984D01*
X107729640Y-64496740D01*
X108375240Y-63851140D01*
X108882484Y-63091996D01*
X109231880Y-62248480D01*
X109305350Y-61879119D01*
X130750000Y-61879119D01*
X130750000Y-63088882D01*
X130780892Y-63402533D01*
X130902974Y-63804982D01*
X131101224Y-64175881D01*
X131368024Y-64500977D01*
X131693120Y-64767777D01*
X132064019Y-64966026D01*
X132466468Y-65088108D01*
X132885000Y-65129330D01*
X133303533Y-65088108D01*
X133705982Y-64966026D01*
X134076881Y-64767777D01*
X134401977Y-64500977D01*
X134668777Y-64175881D01*
X134867026Y-63804981D01*
X134989108Y-63402532D01*
X135020000Y-63088881D01*
X135020000Y-61879119D01*
X135450000Y-61879119D01*
X135450000Y-63088882D01*
X135480892Y-63402533D01*
X135602974Y-63804982D01*
X135801224Y-64175881D01*
X136068024Y-64500977D01*
X136393120Y-64767777D01*
X136764019Y-64966026D01*
X137166468Y-65088108D01*
X137585000Y-65129330D01*
X138003533Y-65088108D01*
X138405982Y-64966026D01*
X138776881Y-64767777D01*
X139101977Y-64500977D01*
X139368777Y-64175881D01*
X139567026Y-63804981D01*
X139689108Y-63402532D01*
X139720000Y-63088881D01*
X139720000Y-61879119D01*
X162630000Y-61879119D01*
X162630000Y-63088882D01*
X162660892Y-63402533D01*
X162782974Y-63804982D01*
X162981224Y-64175881D01*
X163248024Y-64500977D01*
X163573120Y-64767777D01*
X163944019Y-64966026D01*
X164346468Y-65088108D01*
X164765000Y-65129330D01*
X165183533Y-65088108D01*
X165585982Y-64966026D01*
X165956881Y-64767777D01*
X166281977Y-64500977D01*
X166548777Y-64175881D01*
X166747026Y-63804981D01*
X166869108Y-63402532D01*
X166900000Y-63088881D01*
X166900000Y-61879119D01*
X167330000Y-61879119D01*
X167330000Y-63088882D01*
X167360892Y-63402533D01*
X167482974Y-63804982D01*
X167681224Y-64175881D01*
X167948024Y-64500977D01*
X168273120Y-64767777D01*
X168644019Y-64966026D01*
X169046468Y-65088108D01*
X169465000Y-65129330D01*
X169883533Y-65088108D01*
X170285982Y-64966026D01*
X170656881Y-64767777D01*
X170981977Y-64500977D01*
X171248777Y-64175881D01*
X171447026Y-63804981D01*
X171569108Y-63402532D01*
X171600000Y-63088881D01*
X171600000Y-61879118D01*
X171569108Y-61565467D01*
X171447026Y-61163018D01*
X171248777Y-60792119D01*
X170981977Y-60467023D01*
X170656881Y-60200223D01*
X170285981Y-60001974D01*
X169883532Y-59879892D01*
X169465000Y-59838670D01*
X169046467Y-59879892D01*
X168644018Y-60001974D01*
X168273119Y-60200223D01*
X167948023Y-60467023D01*
X167681223Y-60792119D01*
X167482974Y-61163019D01*
X167360892Y-61565468D01*
X167330000Y-61879119D01*
X166900000Y-61879119D01*
X166900000Y-61879118D01*
X166869108Y-61565467D01*
X166747026Y-61163018D01*
X166548777Y-60792119D01*
X166281977Y-60467023D01*
X165956881Y-60200223D01*
X165585981Y-60001974D01*
X165183532Y-59879892D01*
X164765000Y-59838670D01*
X164346467Y-59879892D01*
X163944018Y-60001974D01*
X163573119Y-60200223D01*
X163248023Y-60467023D01*
X162981223Y-60792119D01*
X162782974Y-61163019D01*
X162660892Y-61565468D01*
X162630000Y-61879119D01*
X139720000Y-61879119D01*
X139720000Y-61879118D01*
X139689108Y-61565467D01*
X139567026Y-61163018D01*
X139368777Y-60792119D01*
X139101977Y-60467023D01*
X138776881Y-60200223D01*
X138405981Y-60001974D01*
X138003532Y-59879892D01*
X137585000Y-59838670D01*
X137166467Y-59879892D01*
X136764018Y-60001974D01*
X136393119Y-60200223D01*
X136068023Y-60467023D01*
X135801223Y-60792119D01*
X135602974Y-61163019D01*
X135480892Y-61565468D01*
X135450000Y-61879119D01*
X135020000Y-61879119D01*
X135020000Y-61879118D01*
X134989108Y-61565467D01*
X134867026Y-61163018D01*
X134668777Y-60792119D01*
X134401977Y-60467023D01*
X134076881Y-60200223D01*
X133705981Y-60001974D01*
X133303532Y-59879892D01*
X132885000Y-59838670D01*
X132466467Y-59879892D01*
X132064018Y-60001974D01*
X131693119Y-60200223D01*
X131368023Y-60467023D01*
X131101223Y-60792119D01*
X130902974Y-61163019D01*
X130780892Y-61565468D01*
X130750000Y-61879119D01*
X109305350Y-61879119D01*
X109410000Y-61353008D01*
X109410000Y-60439992D01*
X109231880Y-59544520D01*
X108882484Y-58701004D01*
X108375240Y-57941860D01*
X107729640Y-57296260D01*
X107007888Y-56814000D01*
X169880718Y-56814000D01*
X169897805Y-56987490D01*
X169948411Y-57154313D01*
X170030589Y-57308059D01*
X170141183Y-57442817D01*
X170275941Y-57553411D01*
X170429687Y-57635589D01*
X170596510Y-57686195D01*
X170726523Y-57699000D01*
X171589499Y-57699000D01*
X171643815Y-57765185D01*
X171740506Y-57844537D01*
X171850820Y-57903502D01*
X171970518Y-57939812D01*
X172095000Y-57952072D01*
X173295000Y-57952072D01*
X173419482Y-57939812D01*
X173539180Y-57903502D01*
X173649494Y-57844537D01*
X173746185Y-57765185D01*
X173825537Y-57668494D01*
X173884502Y-57558180D01*
X173920812Y-57438482D01*
X173933072Y-57314000D01*
X173933072Y-56314000D01*
X173920812Y-56189518D01*
X173884502Y-56069820D01*
X173825537Y-55959506D01*
X173746185Y-55862815D01*
X173649494Y-55783463D01*
X173539180Y-55724498D01*
X173419482Y-55688188D01*
X173295000Y-55675928D01*
X172095000Y-55675928D01*
X171970518Y-55688188D01*
X171850820Y-55724498D01*
X171740506Y-55783463D01*
X171643815Y-55862815D01*
X171589499Y-55929000D01*
X170726523Y-55929000D01*
X170596510Y-55941805D01*
X170429687Y-55992411D01*
X170275941Y-56074589D01*
X170141183Y-56185183D01*
X170030589Y-56319941D01*
X169948411Y-56473687D01*
X169897805Y-56640510D01*
X169880718Y-56814000D01*
X107007888Y-56814000D01*
X106970496Y-56789016D01*
X106126980Y-56439620D01*
X105231508Y-56261500D01*
X104318492Y-56261500D01*
X103423020Y-56439620D01*
X102579504Y-56789016D01*
X101820360Y-57296260D01*
X101174760Y-57941860D01*
X100667516Y-58701004D01*
X100318120Y-59544520D01*
X100140000Y-60439992D01*
X99076867Y-60439992D01*
X99088193Y-60325000D01*
X99085000Y-60292581D01*
X99085000Y-55454880D01*
X99333381Y-55206500D01*
X174606928Y-55206500D01*
X174606928Y-56514000D01*
%TD*%
M02*
