M48
; DRILL file {KiCad 5.1.6-c6e7f7d~87~ubuntu18.04.1} date Fri Nov  6 01:01:51 2020
; FORMAT={-:-/ absolute / inch / decimal}
; #@! TF.CreationDate,2020-11-06T01:01:51+00:00
; #@! TF.GenerationSoftware,Kicad,Pcbnew,5.1.6-c6e7f7d~87~ubuntu18.04.1
; #@! TF.FileFunction,Plated,1,2,PTH
FMAT,2
INCH
T1C0.0079
T2C0.0157
T3C0.0236
T4C0.0354
T5C0.0394
T6C0.0787
T7C0.1575
%
G90
G05
T1
X3.9Y-4.4
X4.1Y-4.4
X4.1804Y-4.9404
X4.225Y-4.45
X4.225Y-4.5006
X4.525Y-4.475
X4.585Y-3.415
X4.59Y-2.285
X5.1Y-2.97
X5.4975Y-5.4775
X5.5225Y-4.465
X5.545Y-4.54
X5.5708Y-4.5392
X5.5796Y-2.8204
X5.6496Y-4.6396
X5.65Y-4.59
X5.65Y-4.5595
X5.6525Y-4.435
X5.6604Y-3.1396
X5.6975Y-4.7725
X5.7476Y-4.4024
X5.7483Y-4.4417
X5.7483Y-4.6583
X5.7489Y-4.6189
X5.75Y-4.355
X5.755Y-4.065
X5.78Y-4.83
X5.79Y-4.72
X5.795Y-5.185
X5.797Y-4.275
X5.8Y-5.4164
X5.8167Y-4.8483
X5.85Y-5.185
X5.855Y-4.07
X5.8561Y-4.275
X5.9014Y-5.4164
X5.925Y-3.74
X5.9604Y-4.9704
X5.9742Y-4.2558
X5.975Y-4.18
X5.975Y-4.215
X5.9939Y-4.2739
X6.0296Y-2.8204
X6.055Y-4.41
X6.06Y-3.925
X6.06Y-5.43
X6.06Y-5.48
X6.1104Y-3.1396
X6.12Y-5.485
X6.155Y-4.155
X6.175Y-3.905
X6.175Y-3.945
X6.175Y-4.985
X6.175Y-5.07
X6.2Y-5.155
X6.21Y-4.985
X6.21Y-5.07
X6.245Y-4.985
X6.245Y-5.07
X6.275Y-5.07
X6.2825Y-4.6375
X6.305Y-4.985
X6.475Y-3.905
X6.7232Y-2.2368
X6.91Y-2.54
X6.96Y-2.54
X7.025Y-4.1
X7.025Y-4.18
X7.0327Y-2.6977
X7.07Y-2.54
X7.1056Y-4.98
X7.115Y-3.135
X7.12Y-4.015
X7.15Y-2.54
X7.15Y-3.085
X7.1626Y-2.6246
X7.225Y-4.505
X7.23Y-2.54
X7.27Y-2.21
X7.32Y-2.725
X7.3847Y-4.9003
X7.3847Y-4.9397
X7.435Y-4.605
X7.51Y-2.83
X7.6073Y-4.8427
X7.745Y-4.71
X7.865Y-4.76
X7.865Y-4.985
T2
X4.55Y-2.525
X4.55Y-2.6
X4.55Y-2.675
X4.55Y-2.75
X4.55Y-2.825
X4.55Y-2.9
X4.55Y-2.975
X4.55Y-3.05
X4.55Y-3.125
X4.625Y-2.525
X4.625Y-2.6
X4.625Y-2.675
X4.625Y-2.975
X4.625Y-3.05
X4.625Y-3.125
X4.7Y-2.525
X4.7Y-2.6
X4.7Y-2.675
X4.7Y-2.975
X4.7Y-3.05
X4.7Y-3.125
X4.775Y-2.525
X4.775Y-2.6
X4.775Y-2.675
X4.775Y-2.75
X4.775Y-2.825
X4.775Y-2.9
X4.775Y-2.975
X4.775Y-3.05
X4.775Y-3.125
T3
X4.0069Y-5.3
X4.0415Y-5.2165
X4.0415Y-5.3835
X4.125Y-5.1819
X4.125Y-5.4181
X4.2085Y-5.2165
X4.2085Y-5.3835
X4.2431Y-5.3
X7.4569Y-5.3
X7.4915Y-5.2165
X7.4915Y-5.3835
X7.575Y-5.1819
X7.575Y-5.4181
X7.6585Y-5.2165
X7.6585Y-5.3835
X7.6931Y-5.3
X7.4569Y-2.3975
X7.4915Y-2.314
X7.4915Y-2.481
X7.575Y-2.2794
X7.575Y-2.5156
X7.6585Y-2.314
X7.6585Y-2.481
X7.6931Y-2.3975
X4.0069Y-2.3975
X4.0415Y-2.314
X4.0415Y-2.481
X4.125Y-2.2794
X4.125Y-2.5156
X4.2085Y-2.314
X4.2085Y-2.481
X4.2431Y-2.3975
T4
X6.54Y-3.45
X6.54Y-3.535
X6.54Y-3.62
X6.54Y-3.705
X5.16Y-3.45
X5.16Y-3.535
X5.16Y-3.62
X5.16Y-3.705
T5
X5.065Y-4.02
X5.165Y-4.02
X5.44Y-2.88
X5.44Y-2.9784
X5.44Y-3.0769
X6.26Y-2.8831
X6.26Y-2.9816
X6.26Y-3.08
X6.52Y-4.02
X6.62Y-4.02
T6
X7.3775Y-3.675
X7.3775Y-4.125
X7.8775Y-3.675
X7.8775Y-4.125
X3.8125Y-3.675
X3.8125Y-4.125
X4.3125Y-3.675
X4.3125Y-4.125
X7.3775Y-2.875
X7.3775Y-3.325
X7.8775Y-2.875
X7.8775Y-3.325
T7
X4.125Y-5.3
X7.575Y-5.3
X7.575Y-2.3975
X4.125Y-2.3975
T5
G00X6.3018Y-2.4797
M15
G01X6.3018Y-2.4403
M16
G05
G00X6.4868Y-2.4797
M15
G01X6.4868Y-2.4403
M16
G05
G00X6.6719Y-2.4797
M15
G01X6.6719Y-2.4403
M16
G05
G00X3.9588Y-3.0806
M15
G01X3.9588Y-3.1594
M16
G05
G00X4.0375Y-2.935
M15
G01X4.1163Y-2.935
M16
G05
G00X4.195Y-3.0806
M15
G01X4.195Y-3.1594
M16
G05
G00X5.0467Y-2.4797
M15
G01X5.0467Y-2.4403
M16
G05
G00X5.2317Y-2.4797
M15
G01X5.2317Y-2.4403
M16
G05
G00X5.4167Y-2.4797
M15
G01X5.4167Y-2.4403
M16
G05
T0
M30
