%TF.GenerationSoftware,KiCad,Pcbnew,5.1.6-c6e7f7d~87~ubuntu18.04.1*%
%TF.CreationDate,2020-11-08T20:36:32+00:00*%
%TF.ProjectId,CirrusDspPedal,43697272-7573-4447-9370-506564616c2e,rev?*%
%TF.SameCoordinates,Original*%
%TF.FileFunction,Paste,Top*%
%TF.FilePolarity,Positive*%
%FSLAX46Y46*%
G04 Gerber Fmt 4.6, Leading zero omitted, Abs format (unit mm)*
G04 Created by KiCad (PCBNEW 5.1.6-c6e7f7d~87~ubuntu18.04.1) date 2020-11-08 20:36:32*
%MOMM*%
%LPD*%
G01*
G04 APERTURE LIST*
%ADD10R,1.000000X0.700000*%
%ADD11R,1.400000X0.900000*%
%ADD12R,1.400000X1.200000*%
%ADD13R,1.200000X1.150000*%
%ADD14R,0.700000X1.000000*%
%ADD15R,0.800000X0.900000*%
%ADD16R,2.000000X1.500000*%
%ADD17R,2.000000X3.800000*%
%ADD18R,0.740000X2.400000*%
%ADD19R,1.060000X0.650000*%
%ADD20R,1.100000X0.250000*%
%ADD21R,0.650000X1.560000*%
%ADD22R,1.100000X1.100000*%
G04 APERTURE END LIST*
D10*
%TO.C,J6*%
X174726600Y-66116200D03*
D11*
X174929800Y-64973200D03*
D12*
X174929800Y-67259200D03*
D13*
X185394600Y-65125600D03*
X185394600Y-67741800D03*
D14*
X184251600Y-68770500D03*
X183146700Y-68770500D03*
X182041800Y-68783200D03*
X180936900Y-68783200D03*
X179844700Y-68783200D03*
X178739800Y-68783200D03*
X177634900Y-68783200D03*
X176542700Y-68783200D03*
%TD*%
%TO.C,U7*%
G36*
G01*
X144436000Y-93323000D02*
X144436000Y-91923000D01*
G75*
G02*
X144511000Y-91848000I75000J0D01*
G01*
X144661000Y-91848000D01*
G75*
G02*
X144736000Y-91923000I0J-75000D01*
G01*
X144736000Y-93323000D01*
G75*
G02*
X144661000Y-93398000I-75000J0D01*
G01*
X144511000Y-93398000D01*
G75*
G02*
X144436000Y-93323000I0J75000D01*
G01*
G37*
G36*
G01*
X144936000Y-93323000D02*
X144936000Y-91923000D01*
G75*
G02*
X145011000Y-91848000I75000J0D01*
G01*
X145161000Y-91848000D01*
G75*
G02*
X145236000Y-91923000I0J-75000D01*
G01*
X145236000Y-93323000D01*
G75*
G02*
X145161000Y-93398000I-75000J0D01*
G01*
X145011000Y-93398000D01*
G75*
G02*
X144936000Y-93323000I0J75000D01*
G01*
G37*
G36*
G01*
X145436000Y-93323000D02*
X145436000Y-91923000D01*
G75*
G02*
X145511000Y-91848000I75000J0D01*
G01*
X145661000Y-91848000D01*
G75*
G02*
X145736000Y-91923000I0J-75000D01*
G01*
X145736000Y-93323000D01*
G75*
G02*
X145661000Y-93398000I-75000J0D01*
G01*
X145511000Y-93398000D01*
G75*
G02*
X145436000Y-93323000I0J75000D01*
G01*
G37*
G36*
G01*
X145936000Y-93323000D02*
X145936000Y-91923000D01*
G75*
G02*
X146011000Y-91848000I75000J0D01*
G01*
X146161000Y-91848000D01*
G75*
G02*
X146236000Y-91923000I0J-75000D01*
G01*
X146236000Y-93323000D01*
G75*
G02*
X146161000Y-93398000I-75000J0D01*
G01*
X146011000Y-93398000D01*
G75*
G02*
X145936000Y-93323000I0J75000D01*
G01*
G37*
G36*
G01*
X146436000Y-93323000D02*
X146436000Y-91923000D01*
G75*
G02*
X146511000Y-91848000I75000J0D01*
G01*
X146661000Y-91848000D01*
G75*
G02*
X146736000Y-91923000I0J-75000D01*
G01*
X146736000Y-93323000D01*
G75*
G02*
X146661000Y-93398000I-75000J0D01*
G01*
X146511000Y-93398000D01*
G75*
G02*
X146436000Y-93323000I0J75000D01*
G01*
G37*
G36*
G01*
X146936000Y-93323000D02*
X146936000Y-91923000D01*
G75*
G02*
X147011000Y-91848000I75000J0D01*
G01*
X147161000Y-91848000D01*
G75*
G02*
X147236000Y-91923000I0J-75000D01*
G01*
X147236000Y-93323000D01*
G75*
G02*
X147161000Y-93398000I-75000J0D01*
G01*
X147011000Y-93398000D01*
G75*
G02*
X146936000Y-93323000I0J75000D01*
G01*
G37*
G36*
G01*
X147436000Y-93323000D02*
X147436000Y-91923000D01*
G75*
G02*
X147511000Y-91848000I75000J0D01*
G01*
X147661000Y-91848000D01*
G75*
G02*
X147736000Y-91923000I0J-75000D01*
G01*
X147736000Y-93323000D01*
G75*
G02*
X147661000Y-93398000I-75000J0D01*
G01*
X147511000Y-93398000D01*
G75*
G02*
X147436000Y-93323000I0J75000D01*
G01*
G37*
G36*
G01*
X147936000Y-93323000D02*
X147936000Y-91923000D01*
G75*
G02*
X148011000Y-91848000I75000J0D01*
G01*
X148161000Y-91848000D01*
G75*
G02*
X148236000Y-91923000I0J-75000D01*
G01*
X148236000Y-93323000D01*
G75*
G02*
X148161000Y-93398000I-75000J0D01*
G01*
X148011000Y-93398000D01*
G75*
G02*
X147936000Y-93323000I0J75000D01*
G01*
G37*
G36*
G01*
X148436000Y-93323000D02*
X148436000Y-91923000D01*
G75*
G02*
X148511000Y-91848000I75000J0D01*
G01*
X148661000Y-91848000D01*
G75*
G02*
X148736000Y-91923000I0J-75000D01*
G01*
X148736000Y-93323000D01*
G75*
G02*
X148661000Y-93398000I-75000J0D01*
G01*
X148511000Y-93398000D01*
G75*
G02*
X148436000Y-93323000I0J75000D01*
G01*
G37*
G36*
G01*
X148936000Y-93323000D02*
X148936000Y-91923000D01*
G75*
G02*
X149011000Y-91848000I75000J0D01*
G01*
X149161000Y-91848000D01*
G75*
G02*
X149236000Y-91923000I0J-75000D01*
G01*
X149236000Y-93323000D01*
G75*
G02*
X149161000Y-93398000I-75000J0D01*
G01*
X149011000Y-93398000D01*
G75*
G02*
X148936000Y-93323000I0J75000D01*
G01*
G37*
G36*
G01*
X149436000Y-93323000D02*
X149436000Y-91923000D01*
G75*
G02*
X149511000Y-91848000I75000J0D01*
G01*
X149661000Y-91848000D01*
G75*
G02*
X149736000Y-91923000I0J-75000D01*
G01*
X149736000Y-93323000D01*
G75*
G02*
X149661000Y-93398000I-75000J0D01*
G01*
X149511000Y-93398000D01*
G75*
G02*
X149436000Y-93323000I0J75000D01*
G01*
G37*
G36*
G01*
X149936000Y-93323000D02*
X149936000Y-91923000D01*
G75*
G02*
X150011000Y-91848000I75000J0D01*
G01*
X150161000Y-91848000D01*
G75*
G02*
X150236000Y-91923000I0J-75000D01*
G01*
X150236000Y-93323000D01*
G75*
G02*
X150161000Y-93398000I-75000J0D01*
G01*
X150011000Y-93398000D01*
G75*
G02*
X149936000Y-93323000I0J75000D01*
G01*
G37*
G36*
G01*
X150436000Y-93323000D02*
X150436000Y-91923000D01*
G75*
G02*
X150511000Y-91848000I75000J0D01*
G01*
X150661000Y-91848000D01*
G75*
G02*
X150736000Y-91923000I0J-75000D01*
G01*
X150736000Y-93323000D01*
G75*
G02*
X150661000Y-93398000I-75000J0D01*
G01*
X150511000Y-93398000D01*
G75*
G02*
X150436000Y-93323000I0J75000D01*
G01*
G37*
G36*
G01*
X150936000Y-93323000D02*
X150936000Y-91923000D01*
G75*
G02*
X151011000Y-91848000I75000J0D01*
G01*
X151161000Y-91848000D01*
G75*
G02*
X151236000Y-91923000I0J-75000D01*
G01*
X151236000Y-93323000D01*
G75*
G02*
X151161000Y-93398000I-75000J0D01*
G01*
X151011000Y-93398000D01*
G75*
G02*
X150936000Y-93323000I0J75000D01*
G01*
G37*
G36*
G01*
X151436000Y-93323000D02*
X151436000Y-91923000D01*
G75*
G02*
X151511000Y-91848000I75000J0D01*
G01*
X151661000Y-91848000D01*
G75*
G02*
X151736000Y-91923000I0J-75000D01*
G01*
X151736000Y-93323000D01*
G75*
G02*
X151661000Y-93398000I-75000J0D01*
G01*
X151511000Y-93398000D01*
G75*
G02*
X151436000Y-93323000I0J75000D01*
G01*
G37*
G36*
G01*
X151936000Y-93323000D02*
X151936000Y-91923000D01*
G75*
G02*
X152011000Y-91848000I75000J0D01*
G01*
X152161000Y-91848000D01*
G75*
G02*
X152236000Y-91923000I0J-75000D01*
G01*
X152236000Y-93323000D01*
G75*
G02*
X152161000Y-93398000I-75000J0D01*
G01*
X152011000Y-93398000D01*
G75*
G02*
X151936000Y-93323000I0J75000D01*
G01*
G37*
G36*
G01*
X153236000Y-94623000D02*
X153236000Y-94473000D01*
G75*
G02*
X153311000Y-94398000I75000J0D01*
G01*
X154711000Y-94398000D01*
G75*
G02*
X154786000Y-94473000I0J-75000D01*
G01*
X154786000Y-94623000D01*
G75*
G02*
X154711000Y-94698000I-75000J0D01*
G01*
X153311000Y-94698000D01*
G75*
G02*
X153236000Y-94623000I0J75000D01*
G01*
G37*
G36*
G01*
X153236000Y-95123000D02*
X153236000Y-94973000D01*
G75*
G02*
X153311000Y-94898000I75000J0D01*
G01*
X154711000Y-94898000D01*
G75*
G02*
X154786000Y-94973000I0J-75000D01*
G01*
X154786000Y-95123000D01*
G75*
G02*
X154711000Y-95198000I-75000J0D01*
G01*
X153311000Y-95198000D01*
G75*
G02*
X153236000Y-95123000I0J75000D01*
G01*
G37*
G36*
G01*
X153236000Y-95623000D02*
X153236000Y-95473000D01*
G75*
G02*
X153311000Y-95398000I75000J0D01*
G01*
X154711000Y-95398000D01*
G75*
G02*
X154786000Y-95473000I0J-75000D01*
G01*
X154786000Y-95623000D01*
G75*
G02*
X154711000Y-95698000I-75000J0D01*
G01*
X153311000Y-95698000D01*
G75*
G02*
X153236000Y-95623000I0J75000D01*
G01*
G37*
G36*
G01*
X153236000Y-96123000D02*
X153236000Y-95973000D01*
G75*
G02*
X153311000Y-95898000I75000J0D01*
G01*
X154711000Y-95898000D01*
G75*
G02*
X154786000Y-95973000I0J-75000D01*
G01*
X154786000Y-96123000D01*
G75*
G02*
X154711000Y-96198000I-75000J0D01*
G01*
X153311000Y-96198000D01*
G75*
G02*
X153236000Y-96123000I0J75000D01*
G01*
G37*
G36*
G01*
X153236000Y-96623000D02*
X153236000Y-96473000D01*
G75*
G02*
X153311000Y-96398000I75000J0D01*
G01*
X154711000Y-96398000D01*
G75*
G02*
X154786000Y-96473000I0J-75000D01*
G01*
X154786000Y-96623000D01*
G75*
G02*
X154711000Y-96698000I-75000J0D01*
G01*
X153311000Y-96698000D01*
G75*
G02*
X153236000Y-96623000I0J75000D01*
G01*
G37*
G36*
G01*
X153236000Y-97123000D02*
X153236000Y-96973000D01*
G75*
G02*
X153311000Y-96898000I75000J0D01*
G01*
X154711000Y-96898000D01*
G75*
G02*
X154786000Y-96973000I0J-75000D01*
G01*
X154786000Y-97123000D01*
G75*
G02*
X154711000Y-97198000I-75000J0D01*
G01*
X153311000Y-97198000D01*
G75*
G02*
X153236000Y-97123000I0J75000D01*
G01*
G37*
G36*
G01*
X153236000Y-97623000D02*
X153236000Y-97473000D01*
G75*
G02*
X153311000Y-97398000I75000J0D01*
G01*
X154711000Y-97398000D01*
G75*
G02*
X154786000Y-97473000I0J-75000D01*
G01*
X154786000Y-97623000D01*
G75*
G02*
X154711000Y-97698000I-75000J0D01*
G01*
X153311000Y-97698000D01*
G75*
G02*
X153236000Y-97623000I0J75000D01*
G01*
G37*
G36*
G01*
X153236000Y-98123000D02*
X153236000Y-97973000D01*
G75*
G02*
X153311000Y-97898000I75000J0D01*
G01*
X154711000Y-97898000D01*
G75*
G02*
X154786000Y-97973000I0J-75000D01*
G01*
X154786000Y-98123000D01*
G75*
G02*
X154711000Y-98198000I-75000J0D01*
G01*
X153311000Y-98198000D01*
G75*
G02*
X153236000Y-98123000I0J75000D01*
G01*
G37*
G36*
G01*
X153236000Y-98623000D02*
X153236000Y-98473000D01*
G75*
G02*
X153311000Y-98398000I75000J0D01*
G01*
X154711000Y-98398000D01*
G75*
G02*
X154786000Y-98473000I0J-75000D01*
G01*
X154786000Y-98623000D01*
G75*
G02*
X154711000Y-98698000I-75000J0D01*
G01*
X153311000Y-98698000D01*
G75*
G02*
X153236000Y-98623000I0J75000D01*
G01*
G37*
G36*
G01*
X153236000Y-99123000D02*
X153236000Y-98973000D01*
G75*
G02*
X153311000Y-98898000I75000J0D01*
G01*
X154711000Y-98898000D01*
G75*
G02*
X154786000Y-98973000I0J-75000D01*
G01*
X154786000Y-99123000D01*
G75*
G02*
X154711000Y-99198000I-75000J0D01*
G01*
X153311000Y-99198000D01*
G75*
G02*
X153236000Y-99123000I0J75000D01*
G01*
G37*
G36*
G01*
X153236000Y-99623000D02*
X153236000Y-99473000D01*
G75*
G02*
X153311000Y-99398000I75000J0D01*
G01*
X154711000Y-99398000D01*
G75*
G02*
X154786000Y-99473000I0J-75000D01*
G01*
X154786000Y-99623000D01*
G75*
G02*
X154711000Y-99698000I-75000J0D01*
G01*
X153311000Y-99698000D01*
G75*
G02*
X153236000Y-99623000I0J75000D01*
G01*
G37*
G36*
G01*
X153236000Y-100123000D02*
X153236000Y-99973000D01*
G75*
G02*
X153311000Y-99898000I75000J0D01*
G01*
X154711000Y-99898000D01*
G75*
G02*
X154786000Y-99973000I0J-75000D01*
G01*
X154786000Y-100123000D01*
G75*
G02*
X154711000Y-100198000I-75000J0D01*
G01*
X153311000Y-100198000D01*
G75*
G02*
X153236000Y-100123000I0J75000D01*
G01*
G37*
G36*
G01*
X153236000Y-100623000D02*
X153236000Y-100473000D01*
G75*
G02*
X153311000Y-100398000I75000J0D01*
G01*
X154711000Y-100398000D01*
G75*
G02*
X154786000Y-100473000I0J-75000D01*
G01*
X154786000Y-100623000D01*
G75*
G02*
X154711000Y-100698000I-75000J0D01*
G01*
X153311000Y-100698000D01*
G75*
G02*
X153236000Y-100623000I0J75000D01*
G01*
G37*
G36*
G01*
X153236000Y-101123000D02*
X153236000Y-100973000D01*
G75*
G02*
X153311000Y-100898000I75000J0D01*
G01*
X154711000Y-100898000D01*
G75*
G02*
X154786000Y-100973000I0J-75000D01*
G01*
X154786000Y-101123000D01*
G75*
G02*
X154711000Y-101198000I-75000J0D01*
G01*
X153311000Y-101198000D01*
G75*
G02*
X153236000Y-101123000I0J75000D01*
G01*
G37*
G36*
G01*
X153236000Y-101623000D02*
X153236000Y-101473000D01*
G75*
G02*
X153311000Y-101398000I75000J0D01*
G01*
X154711000Y-101398000D01*
G75*
G02*
X154786000Y-101473000I0J-75000D01*
G01*
X154786000Y-101623000D01*
G75*
G02*
X154711000Y-101698000I-75000J0D01*
G01*
X153311000Y-101698000D01*
G75*
G02*
X153236000Y-101623000I0J75000D01*
G01*
G37*
G36*
G01*
X153236000Y-102123000D02*
X153236000Y-101973000D01*
G75*
G02*
X153311000Y-101898000I75000J0D01*
G01*
X154711000Y-101898000D01*
G75*
G02*
X154786000Y-101973000I0J-75000D01*
G01*
X154786000Y-102123000D01*
G75*
G02*
X154711000Y-102198000I-75000J0D01*
G01*
X153311000Y-102198000D01*
G75*
G02*
X153236000Y-102123000I0J75000D01*
G01*
G37*
G36*
G01*
X151936000Y-104673000D02*
X151936000Y-103273000D01*
G75*
G02*
X152011000Y-103198000I75000J0D01*
G01*
X152161000Y-103198000D01*
G75*
G02*
X152236000Y-103273000I0J-75000D01*
G01*
X152236000Y-104673000D01*
G75*
G02*
X152161000Y-104748000I-75000J0D01*
G01*
X152011000Y-104748000D01*
G75*
G02*
X151936000Y-104673000I0J75000D01*
G01*
G37*
G36*
G01*
X151436000Y-104673000D02*
X151436000Y-103273000D01*
G75*
G02*
X151511000Y-103198000I75000J0D01*
G01*
X151661000Y-103198000D01*
G75*
G02*
X151736000Y-103273000I0J-75000D01*
G01*
X151736000Y-104673000D01*
G75*
G02*
X151661000Y-104748000I-75000J0D01*
G01*
X151511000Y-104748000D01*
G75*
G02*
X151436000Y-104673000I0J75000D01*
G01*
G37*
G36*
G01*
X150936000Y-104673000D02*
X150936000Y-103273000D01*
G75*
G02*
X151011000Y-103198000I75000J0D01*
G01*
X151161000Y-103198000D01*
G75*
G02*
X151236000Y-103273000I0J-75000D01*
G01*
X151236000Y-104673000D01*
G75*
G02*
X151161000Y-104748000I-75000J0D01*
G01*
X151011000Y-104748000D01*
G75*
G02*
X150936000Y-104673000I0J75000D01*
G01*
G37*
G36*
G01*
X150436000Y-104673000D02*
X150436000Y-103273000D01*
G75*
G02*
X150511000Y-103198000I75000J0D01*
G01*
X150661000Y-103198000D01*
G75*
G02*
X150736000Y-103273000I0J-75000D01*
G01*
X150736000Y-104673000D01*
G75*
G02*
X150661000Y-104748000I-75000J0D01*
G01*
X150511000Y-104748000D01*
G75*
G02*
X150436000Y-104673000I0J75000D01*
G01*
G37*
G36*
G01*
X149936000Y-104673000D02*
X149936000Y-103273000D01*
G75*
G02*
X150011000Y-103198000I75000J0D01*
G01*
X150161000Y-103198000D01*
G75*
G02*
X150236000Y-103273000I0J-75000D01*
G01*
X150236000Y-104673000D01*
G75*
G02*
X150161000Y-104748000I-75000J0D01*
G01*
X150011000Y-104748000D01*
G75*
G02*
X149936000Y-104673000I0J75000D01*
G01*
G37*
G36*
G01*
X149436000Y-104673000D02*
X149436000Y-103273000D01*
G75*
G02*
X149511000Y-103198000I75000J0D01*
G01*
X149661000Y-103198000D01*
G75*
G02*
X149736000Y-103273000I0J-75000D01*
G01*
X149736000Y-104673000D01*
G75*
G02*
X149661000Y-104748000I-75000J0D01*
G01*
X149511000Y-104748000D01*
G75*
G02*
X149436000Y-104673000I0J75000D01*
G01*
G37*
G36*
G01*
X148936000Y-104673000D02*
X148936000Y-103273000D01*
G75*
G02*
X149011000Y-103198000I75000J0D01*
G01*
X149161000Y-103198000D01*
G75*
G02*
X149236000Y-103273000I0J-75000D01*
G01*
X149236000Y-104673000D01*
G75*
G02*
X149161000Y-104748000I-75000J0D01*
G01*
X149011000Y-104748000D01*
G75*
G02*
X148936000Y-104673000I0J75000D01*
G01*
G37*
G36*
G01*
X148436000Y-104673000D02*
X148436000Y-103273000D01*
G75*
G02*
X148511000Y-103198000I75000J0D01*
G01*
X148661000Y-103198000D01*
G75*
G02*
X148736000Y-103273000I0J-75000D01*
G01*
X148736000Y-104673000D01*
G75*
G02*
X148661000Y-104748000I-75000J0D01*
G01*
X148511000Y-104748000D01*
G75*
G02*
X148436000Y-104673000I0J75000D01*
G01*
G37*
G36*
G01*
X147936000Y-104673000D02*
X147936000Y-103273000D01*
G75*
G02*
X148011000Y-103198000I75000J0D01*
G01*
X148161000Y-103198000D01*
G75*
G02*
X148236000Y-103273000I0J-75000D01*
G01*
X148236000Y-104673000D01*
G75*
G02*
X148161000Y-104748000I-75000J0D01*
G01*
X148011000Y-104748000D01*
G75*
G02*
X147936000Y-104673000I0J75000D01*
G01*
G37*
G36*
G01*
X147436000Y-104673000D02*
X147436000Y-103273000D01*
G75*
G02*
X147511000Y-103198000I75000J0D01*
G01*
X147661000Y-103198000D01*
G75*
G02*
X147736000Y-103273000I0J-75000D01*
G01*
X147736000Y-104673000D01*
G75*
G02*
X147661000Y-104748000I-75000J0D01*
G01*
X147511000Y-104748000D01*
G75*
G02*
X147436000Y-104673000I0J75000D01*
G01*
G37*
G36*
G01*
X146936000Y-104673000D02*
X146936000Y-103273000D01*
G75*
G02*
X147011000Y-103198000I75000J0D01*
G01*
X147161000Y-103198000D01*
G75*
G02*
X147236000Y-103273000I0J-75000D01*
G01*
X147236000Y-104673000D01*
G75*
G02*
X147161000Y-104748000I-75000J0D01*
G01*
X147011000Y-104748000D01*
G75*
G02*
X146936000Y-104673000I0J75000D01*
G01*
G37*
G36*
G01*
X146436000Y-104673000D02*
X146436000Y-103273000D01*
G75*
G02*
X146511000Y-103198000I75000J0D01*
G01*
X146661000Y-103198000D01*
G75*
G02*
X146736000Y-103273000I0J-75000D01*
G01*
X146736000Y-104673000D01*
G75*
G02*
X146661000Y-104748000I-75000J0D01*
G01*
X146511000Y-104748000D01*
G75*
G02*
X146436000Y-104673000I0J75000D01*
G01*
G37*
G36*
G01*
X145936000Y-104673000D02*
X145936000Y-103273000D01*
G75*
G02*
X146011000Y-103198000I75000J0D01*
G01*
X146161000Y-103198000D01*
G75*
G02*
X146236000Y-103273000I0J-75000D01*
G01*
X146236000Y-104673000D01*
G75*
G02*
X146161000Y-104748000I-75000J0D01*
G01*
X146011000Y-104748000D01*
G75*
G02*
X145936000Y-104673000I0J75000D01*
G01*
G37*
G36*
G01*
X145436000Y-104673000D02*
X145436000Y-103273000D01*
G75*
G02*
X145511000Y-103198000I75000J0D01*
G01*
X145661000Y-103198000D01*
G75*
G02*
X145736000Y-103273000I0J-75000D01*
G01*
X145736000Y-104673000D01*
G75*
G02*
X145661000Y-104748000I-75000J0D01*
G01*
X145511000Y-104748000D01*
G75*
G02*
X145436000Y-104673000I0J75000D01*
G01*
G37*
G36*
G01*
X144936000Y-104673000D02*
X144936000Y-103273000D01*
G75*
G02*
X145011000Y-103198000I75000J0D01*
G01*
X145161000Y-103198000D01*
G75*
G02*
X145236000Y-103273000I0J-75000D01*
G01*
X145236000Y-104673000D01*
G75*
G02*
X145161000Y-104748000I-75000J0D01*
G01*
X145011000Y-104748000D01*
G75*
G02*
X144936000Y-104673000I0J75000D01*
G01*
G37*
G36*
G01*
X144436000Y-104673000D02*
X144436000Y-103273000D01*
G75*
G02*
X144511000Y-103198000I75000J0D01*
G01*
X144661000Y-103198000D01*
G75*
G02*
X144736000Y-103273000I0J-75000D01*
G01*
X144736000Y-104673000D01*
G75*
G02*
X144661000Y-104748000I-75000J0D01*
G01*
X144511000Y-104748000D01*
G75*
G02*
X144436000Y-104673000I0J75000D01*
G01*
G37*
G36*
G01*
X141886000Y-102123000D02*
X141886000Y-101973000D01*
G75*
G02*
X141961000Y-101898000I75000J0D01*
G01*
X143361000Y-101898000D01*
G75*
G02*
X143436000Y-101973000I0J-75000D01*
G01*
X143436000Y-102123000D01*
G75*
G02*
X143361000Y-102198000I-75000J0D01*
G01*
X141961000Y-102198000D01*
G75*
G02*
X141886000Y-102123000I0J75000D01*
G01*
G37*
G36*
G01*
X141886000Y-101623000D02*
X141886000Y-101473000D01*
G75*
G02*
X141961000Y-101398000I75000J0D01*
G01*
X143361000Y-101398000D01*
G75*
G02*
X143436000Y-101473000I0J-75000D01*
G01*
X143436000Y-101623000D01*
G75*
G02*
X143361000Y-101698000I-75000J0D01*
G01*
X141961000Y-101698000D01*
G75*
G02*
X141886000Y-101623000I0J75000D01*
G01*
G37*
G36*
G01*
X141886000Y-101123000D02*
X141886000Y-100973000D01*
G75*
G02*
X141961000Y-100898000I75000J0D01*
G01*
X143361000Y-100898000D01*
G75*
G02*
X143436000Y-100973000I0J-75000D01*
G01*
X143436000Y-101123000D01*
G75*
G02*
X143361000Y-101198000I-75000J0D01*
G01*
X141961000Y-101198000D01*
G75*
G02*
X141886000Y-101123000I0J75000D01*
G01*
G37*
G36*
G01*
X141886000Y-100623000D02*
X141886000Y-100473000D01*
G75*
G02*
X141961000Y-100398000I75000J0D01*
G01*
X143361000Y-100398000D01*
G75*
G02*
X143436000Y-100473000I0J-75000D01*
G01*
X143436000Y-100623000D01*
G75*
G02*
X143361000Y-100698000I-75000J0D01*
G01*
X141961000Y-100698000D01*
G75*
G02*
X141886000Y-100623000I0J75000D01*
G01*
G37*
G36*
G01*
X141886000Y-100123000D02*
X141886000Y-99973000D01*
G75*
G02*
X141961000Y-99898000I75000J0D01*
G01*
X143361000Y-99898000D01*
G75*
G02*
X143436000Y-99973000I0J-75000D01*
G01*
X143436000Y-100123000D01*
G75*
G02*
X143361000Y-100198000I-75000J0D01*
G01*
X141961000Y-100198000D01*
G75*
G02*
X141886000Y-100123000I0J75000D01*
G01*
G37*
G36*
G01*
X141886000Y-99623000D02*
X141886000Y-99473000D01*
G75*
G02*
X141961000Y-99398000I75000J0D01*
G01*
X143361000Y-99398000D01*
G75*
G02*
X143436000Y-99473000I0J-75000D01*
G01*
X143436000Y-99623000D01*
G75*
G02*
X143361000Y-99698000I-75000J0D01*
G01*
X141961000Y-99698000D01*
G75*
G02*
X141886000Y-99623000I0J75000D01*
G01*
G37*
G36*
G01*
X141886000Y-99123000D02*
X141886000Y-98973000D01*
G75*
G02*
X141961000Y-98898000I75000J0D01*
G01*
X143361000Y-98898000D01*
G75*
G02*
X143436000Y-98973000I0J-75000D01*
G01*
X143436000Y-99123000D01*
G75*
G02*
X143361000Y-99198000I-75000J0D01*
G01*
X141961000Y-99198000D01*
G75*
G02*
X141886000Y-99123000I0J75000D01*
G01*
G37*
G36*
G01*
X141886000Y-98623000D02*
X141886000Y-98473000D01*
G75*
G02*
X141961000Y-98398000I75000J0D01*
G01*
X143361000Y-98398000D01*
G75*
G02*
X143436000Y-98473000I0J-75000D01*
G01*
X143436000Y-98623000D01*
G75*
G02*
X143361000Y-98698000I-75000J0D01*
G01*
X141961000Y-98698000D01*
G75*
G02*
X141886000Y-98623000I0J75000D01*
G01*
G37*
G36*
G01*
X141886000Y-98123000D02*
X141886000Y-97973000D01*
G75*
G02*
X141961000Y-97898000I75000J0D01*
G01*
X143361000Y-97898000D01*
G75*
G02*
X143436000Y-97973000I0J-75000D01*
G01*
X143436000Y-98123000D01*
G75*
G02*
X143361000Y-98198000I-75000J0D01*
G01*
X141961000Y-98198000D01*
G75*
G02*
X141886000Y-98123000I0J75000D01*
G01*
G37*
G36*
G01*
X141886000Y-97623000D02*
X141886000Y-97473000D01*
G75*
G02*
X141961000Y-97398000I75000J0D01*
G01*
X143361000Y-97398000D01*
G75*
G02*
X143436000Y-97473000I0J-75000D01*
G01*
X143436000Y-97623000D01*
G75*
G02*
X143361000Y-97698000I-75000J0D01*
G01*
X141961000Y-97698000D01*
G75*
G02*
X141886000Y-97623000I0J75000D01*
G01*
G37*
G36*
G01*
X141886000Y-97123000D02*
X141886000Y-96973000D01*
G75*
G02*
X141961000Y-96898000I75000J0D01*
G01*
X143361000Y-96898000D01*
G75*
G02*
X143436000Y-96973000I0J-75000D01*
G01*
X143436000Y-97123000D01*
G75*
G02*
X143361000Y-97198000I-75000J0D01*
G01*
X141961000Y-97198000D01*
G75*
G02*
X141886000Y-97123000I0J75000D01*
G01*
G37*
G36*
G01*
X141886000Y-96623000D02*
X141886000Y-96473000D01*
G75*
G02*
X141961000Y-96398000I75000J0D01*
G01*
X143361000Y-96398000D01*
G75*
G02*
X143436000Y-96473000I0J-75000D01*
G01*
X143436000Y-96623000D01*
G75*
G02*
X143361000Y-96698000I-75000J0D01*
G01*
X141961000Y-96698000D01*
G75*
G02*
X141886000Y-96623000I0J75000D01*
G01*
G37*
G36*
G01*
X141886000Y-96123000D02*
X141886000Y-95973000D01*
G75*
G02*
X141961000Y-95898000I75000J0D01*
G01*
X143361000Y-95898000D01*
G75*
G02*
X143436000Y-95973000I0J-75000D01*
G01*
X143436000Y-96123000D01*
G75*
G02*
X143361000Y-96198000I-75000J0D01*
G01*
X141961000Y-96198000D01*
G75*
G02*
X141886000Y-96123000I0J75000D01*
G01*
G37*
G36*
G01*
X141886000Y-95623000D02*
X141886000Y-95473000D01*
G75*
G02*
X141961000Y-95398000I75000J0D01*
G01*
X143361000Y-95398000D01*
G75*
G02*
X143436000Y-95473000I0J-75000D01*
G01*
X143436000Y-95623000D01*
G75*
G02*
X143361000Y-95698000I-75000J0D01*
G01*
X141961000Y-95698000D01*
G75*
G02*
X141886000Y-95623000I0J75000D01*
G01*
G37*
G36*
G01*
X141886000Y-95123000D02*
X141886000Y-94973000D01*
G75*
G02*
X141961000Y-94898000I75000J0D01*
G01*
X143361000Y-94898000D01*
G75*
G02*
X143436000Y-94973000I0J-75000D01*
G01*
X143436000Y-95123000D01*
G75*
G02*
X143361000Y-95198000I-75000J0D01*
G01*
X141961000Y-95198000D01*
G75*
G02*
X141886000Y-95123000I0J75000D01*
G01*
G37*
G36*
G01*
X141886000Y-94623000D02*
X141886000Y-94473000D01*
G75*
G02*
X141961000Y-94398000I75000J0D01*
G01*
X143361000Y-94398000D01*
G75*
G02*
X143436000Y-94473000I0J-75000D01*
G01*
X143436000Y-94623000D01*
G75*
G02*
X143361000Y-94698000I-75000J0D01*
G01*
X141961000Y-94698000D01*
G75*
G02*
X141886000Y-94623000I0J75000D01*
G01*
G37*
%TD*%
D15*
%TO.C,U4*%
X99695000Y-86630000D03*
X100645000Y-88630000D03*
X98745000Y-88630000D03*
%TD*%
%TO.C,C24*%
G36*
G01*
X104765000Y-86855000D02*
X103515000Y-86855000D01*
G75*
G02*
X103265000Y-86605000I0J250000D01*
G01*
X103265000Y-85680000D01*
G75*
G02*
X103515000Y-85430000I250000J0D01*
G01*
X104765000Y-85430000D01*
G75*
G02*
X105015000Y-85680000I0J-250000D01*
G01*
X105015000Y-86605000D01*
G75*
G02*
X104765000Y-86855000I-250000J0D01*
G01*
G37*
G36*
G01*
X104765000Y-89830000D02*
X103515000Y-89830000D01*
G75*
G02*
X103265000Y-89580000I0J250000D01*
G01*
X103265000Y-88655000D01*
G75*
G02*
X103515000Y-88405000I250000J0D01*
G01*
X104765000Y-88405000D01*
G75*
G02*
X105015000Y-88655000I0J-250000D01*
G01*
X105015000Y-89580000D01*
G75*
G02*
X104765000Y-89830000I-250000J0D01*
G01*
G37*
%TD*%
%TO.C,C23*%
G36*
G01*
X94625000Y-88405000D02*
X95875000Y-88405000D01*
G75*
G02*
X96125000Y-88655000I0J-250000D01*
G01*
X96125000Y-89580000D01*
G75*
G02*
X95875000Y-89830000I-250000J0D01*
G01*
X94625000Y-89830000D01*
G75*
G02*
X94375000Y-89580000I0J250000D01*
G01*
X94375000Y-88655000D01*
G75*
G02*
X94625000Y-88405000I250000J0D01*
G01*
G37*
G36*
G01*
X94625000Y-85430000D02*
X95875000Y-85430000D01*
G75*
G02*
X96125000Y-85680000I0J-250000D01*
G01*
X96125000Y-86605000D01*
G75*
G02*
X95875000Y-86855000I-250000J0D01*
G01*
X94625000Y-86855000D01*
G75*
G02*
X94375000Y-86605000I0J250000D01*
G01*
X94375000Y-85680000D01*
G75*
G02*
X94625000Y-85430000I250000J0D01*
G01*
G37*
%TD*%
D16*
%TO.C,U5*%
X111785000Y-69455000D03*
X111785000Y-74055000D03*
X111785000Y-71755000D03*
D17*
X118085000Y-71755000D03*
%TD*%
D18*
%TO.C,J3*%
X145796000Y-80944000D03*
X145796000Y-77044000D03*
X147066000Y-80944000D03*
X147066000Y-77044000D03*
X148336000Y-80944000D03*
X148336000Y-77044000D03*
X149606000Y-80944000D03*
X149606000Y-77044000D03*
X150876000Y-80944000D03*
X150876000Y-77044000D03*
%TD*%
D19*
%TO.C,U6*%
X179875000Y-115377000D03*
X179875000Y-113477000D03*
X182075000Y-113477000D03*
X182075000Y-114427000D03*
X182075000Y-115377000D03*
%TD*%
D20*
%TO.C,U3*%
X108975000Y-115300000D03*
X108975000Y-114800000D03*
X108975000Y-114300000D03*
X108975000Y-113800000D03*
X108975000Y-113300000D03*
X113275000Y-113300000D03*
X113275000Y-113800000D03*
X113275000Y-114300000D03*
X113275000Y-114800000D03*
X113275000Y-115300000D03*
%TD*%
D21*
%TO.C,U2*%
X196212500Y-124117500D03*
X194312500Y-124117500D03*
X194312500Y-121417500D03*
X195262500Y-121417500D03*
X196212500Y-121417500D03*
%TD*%
D20*
%TO.C,U1*%
X186109500Y-122380500D03*
X186109500Y-122880500D03*
X186109500Y-123380500D03*
X186109500Y-123880500D03*
X186109500Y-124380500D03*
X181809500Y-124380500D03*
X181809500Y-123880500D03*
X181809500Y-123380500D03*
X181809500Y-122880500D03*
X181809500Y-122380500D03*
%TD*%
%TO.C,R22*%
G36*
G01*
X160712999Y-93414000D02*
X161613001Y-93414000D01*
G75*
G02*
X161863000Y-93663999I0J-249999D01*
G01*
X161863000Y-94314001D01*
G75*
G02*
X161613001Y-94564000I-249999J0D01*
G01*
X160712999Y-94564000D01*
G75*
G02*
X160463000Y-94314001I0J249999D01*
G01*
X160463000Y-93663999D01*
G75*
G02*
X160712999Y-93414000I249999J0D01*
G01*
G37*
G36*
G01*
X160712999Y-91364000D02*
X161613001Y-91364000D01*
G75*
G02*
X161863000Y-91613999I0J-249999D01*
G01*
X161863000Y-92264001D01*
G75*
G02*
X161613001Y-92514000I-249999J0D01*
G01*
X160712999Y-92514000D01*
G75*
G02*
X160463000Y-92264001I0J249999D01*
G01*
X160463000Y-91613999D01*
G75*
G02*
X160712999Y-91364000I249999J0D01*
G01*
G37*
%TD*%
%TO.C,R21*%
G36*
G01*
X172789000Y-94557001D02*
X172789000Y-93656999D01*
G75*
G02*
X173038999Y-93407000I249999J0D01*
G01*
X173689001Y-93407000D01*
G75*
G02*
X173939000Y-93656999I0J-249999D01*
G01*
X173939000Y-94557001D01*
G75*
G02*
X173689001Y-94807000I-249999J0D01*
G01*
X173038999Y-94807000D01*
G75*
G02*
X172789000Y-94557001I0J249999D01*
G01*
G37*
G36*
G01*
X170739000Y-94557001D02*
X170739000Y-93656999D01*
G75*
G02*
X170988999Y-93407000I249999J0D01*
G01*
X171639001Y-93407000D01*
G75*
G02*
X171889000Y-93656999I0J-249999D01*
G01*
X171889000Y-94557001D01*
G75*
G02*
X171639001Y-94807000I-249999J0D01*
G01*
X170988999Y-94807000D01*
G75*
G02*
X170739000Y-94557001I0J249999D01*
G01*
G37*
%TD*%
%TO.C,R20*%
G36*
G01*
X172789000Y-88080001D02*
X172789000Y-87179999D01*
G75*
G02*
X173038999Y-86930000I249999J0D01*
G01*
X173689001Y-86930000D01*
G75*
G02*
X173939000Y-87179999I0J-249999D01*
G01*
X173939000Y-88080001D01*
G75*
G02*
X173689001Y-88330000I-249999J0D01*
G01*
X173038999Y-88330000D01*
G75*
G02*
X172789000Y-88080001I0J249999D01*
G01*
G37*
G36*
G01*
X170739000Y-88080001D02*
X170739000Y-87179999D01*
G75*
G02*
X170988999Y-86930000I249999J0D01*
G01*
X171639001Y-86930000D01*
G75*
G02*
X171889000Y-87179999I0J-249999D01*
G01*
X171889000Y-88080001D01*
G75*
G02*
X171639001Y-88330000I-249999J0D01*
G01*
X170988999Y-88330000D01*
G75*
G02*
X170739000Y-88080001I0J249999D01*
G01*
G37*
%TD*%
%TO.C,R19*%
G36*
G01*
X124772000Y-87560999D02*
X124772000Y-88461001D01*
G75*
G02*
X124522001Y-88711000I-249999J0D01*
G01*
X123871999Y-88711000D01*
G75*
G02*
X123622000Y-88461001I0J249999D01*
G01*
X123622000Y-87560999D01*
G75*
G02*
X123871999Y-87311000I249999J0D01*
G01*
X124522001Y-87311000D01*
G75*
G02*
X124772000Y-87560999I0J-249999D01*
G01*
G37*
G36*
G01*
X126822000Y-87560999D02*
X126822000Y-88461001D01*
G75*
G02*
X126572001Y-88711000I-249999J0D01*
G01*
X125921999Y-88711000D01*
G75*
G02*
X125672000Y-88461001I0J249999D01*
G01*
X125672000Y-87560999D01*
G75*
G02*
X125921999Y-87311000I249999J0D01*
G01*
X126572001Y-87311000D01*
G75*
G02*
X126822000Y-87560999I0J-249999D01*
G01*
G37*
%TD*%
%TO.C,R18*%
G36*
G01*
X124772000Y-90608999D02*
X124772000Y-91509001D01*
G75*
G02*
X124522001Y-91759000I-249999J0D01*
G01*
X123871999Y-91759000D01*
G75*
G02*
X123622000Y-91509001I0J249999D01*
G01*
X123622000Y-90608999D01*
G75*
G02*
X123871999Y-90359000I249999J0D01*
G01*
X124522001Y-90359000D01*
G75*
G02*
X124772000Y-90608999I0J-249999D01*
G01*
G37*
G36*
G01*
X126822000Y-90608999D02*
X126822000Y-91509001D01*
G75*
G02*
X126572001Y-91759000I-249999J0D01*
G01*
X125921999Y-91759000D01*
G75*
G02*
X125672000Y-91509001I0J249999D01*
G01*
X125672000Y-90608999D01*
G75*
G02*
X125921999Y-90359000I249999J0D01*
G01*
X126572001Y-90359000D01*
G75*
G02*
X126822000Y-90608999I0J-249999D01*
G01*
G37*
%TD*%
%TO.C,R17*%
G36*
G01*
X124772000Y-93656999D02*
X124772000Y-94557001D01*
G75*
G02*
X124522001Y-94807000I-249999J0D01*
G01*
X123871999Y-94807000D01*
G75*
G02*
X123622000Y-94557001I0J249999D01*
G01*
X123622000Y-93656999D01*
G75*
G02*
X123871999Y-93407000I249999J0D01*
G01*
X124522001Y-93407000D01*
G75*
G02*
X124772000Y-93656999I0J-249999D01*
G01*
G37*
G36*
G01*
X126822000Y-93656999D02*
X126822000Y-94557001D01*
G75*
G02*
X126572001Y-94807000I-249999J0D01*
G01*
X125921999Y-94807000D01*
G75*
G02*
X125672000Y-94557001I0J249999D01*
G01*
X125672000Y-93656999D01*
G75*
G02*
X125921999Y-93407000I249999J0D01*
G01*
X126572001Y-93407000D01*
G75*
G02*
X126822000Y-93656999I0J-249999D01*
G01*
G37*
%TD*%
%TO.C,R16*%
G36*
G01*
X142805999Y-62807000D02*
X143706001Y-62807000D01*
G75*
G02*
X143956000Y-63056999I0J-249999D01*
G01*
X143956000Y-63707001D01*
G75*
G02*
X143706001Y-63957000I-249999J0D01*
G01*
X142805999Y-63957000D01*
G75*
G02*
X142556000Y-63707001I0J249999D01*
G01*
X142556000Y-63056999D01*
G75*
G02*
X142805999Y-62807000I249999J0D01*
G01*
G37*
G36*
G01*
X142805999Y-60757000D02*
X143706001Y-60757000D01*
G75*
G02*
X143956000Y-61006999I0J-249999D01*
G01*
X143956000Y-61657001D01*
G75*
G02*
X143706001Y-61907000I-249999J0D01*
G01*
X142805999Y-61907000D01*
G75*
G02*
X142556000Y-61657001I0J249999D01*
G01*
X142556000Y-61006999D01*
G75*
G02*
X142805999Y-60757000I249999J0D01*
G01*
G37*
%TD*%
%TO.C,R15*%
G36*
G01*
X153854999Y-62807000D02*
X154755001Y-62807000D01*
G75*
G02*
X155005000Y-63056999I0J-249999D01*
G01*
X155005000Y-63707001D01*
G75*
G02*
X154755001Y-63957000I-249999J0D01*
G01*
X153854999Y-63957000D01*
G75*
G02*
X153605000Y-63707001I0J249999D01*
G01*
X153605000Y-63056999D01*
G75*
G02*
X153854999Y-62807000I249999J0D01*
G01*
G37*
G36*
G01*
X153854999Y-60757000D02*
X154755001Y-60757000D01*
G75*
G02*
X155005000Y-61006999I0J-249999D01*
G01*
X155005000Y-61657001D01*
G75*
G02*
X154755001Y-61907000I-249999J0D01*
G01*
X153854999Y-61907000D01*
G75*
G02*
X153605000Y-61657001I0J249999D01*
G01*
X153605000Y-61006999D01*
G75*
G02*
X153854999Y-60757000I249999J0D01*
G01*
G37*
%TD*%
%TO.C,R14*%
G36*
G01*
X141547001Y-75750000D02*
X140646999Y-75750000D01*
G75*
G02*
X140397000Y-75500001I0J249999D01*
G01*
X140397000Y-74849999D01*
G75*
G02*
X140646999Y-74600000I249999J0D01*
G01*
X141547001Y-74600000D01*
G75*
G02*
X141797000Y-74849999I0J-249999D01*
G01*
X141797000Y-75500001D01*
G75*
G02*
X141547001Y-75750000I-249999J0D01*
G01*
G37*
G36*
G01*
X141547001Y-77800000D02*
X140646999Y-77800000D01*
G75*
G02*
X140397000Y-77550001I0J249999D01*
G01*
X140397000Y-76899999D01*
G75*
G02*
X140646999Y-76650000I249999J0D01*
G01*
X141547001Y-76650000D01*
G75*
G02*
X141797000Y-76899999I0J-249999D01*
G01*
X141797000Y-77550001D01*
G75*
G02*
X141547001Y-77800000I-249999J0D01*
G01*
G37*
%TD*%
%TO.C,R13*%
G36*
G01*
X156406001Y-75750000D02*
X155505999Y-75750000D01*
G75*
G02*
X155256000Y-75500001I0J249999D01*
G01*
X155256000Y-74849999D01*
G75*
G02*
X155505999Y-74600000I249999J0D01*
G01*
X156406001Y-74600000D01*
G75*
G02*
X156656000Y-74849999I0J-249999D01*
G01*
X156656000Y-75500001D01*
G75*
G02*
X156406001Y-75750000I-249999J0D01*
G01*
G37*
G36*
G01*
X156406001Y-77800000D02*
X155505999Y-77800000D01*
G75*
G02*
X155256000Y-77550001I0J249999D01*
G01*
X155256000Y-76899999D01*
G75*
G02*
X155505999Y-76650000I249999J0D01*
G01*
X156406001Y-76650000D01*
G75*
G02*
X156656000Y-76899999I0J-249999D01*
G01*
X156656000Y-77550001D01*
G75*
G02*
X156406001Y-77800000I-249999J0D01*
G01*
G37*
%TD*%
%TO.C,R12*%
G36*
G01*
X140646999Y-81222000D02*
X141547001Y-81222000D01*
G75*
G02*
X141797000Y-81471999I0J-249999D01*
G01*
X141797000Y-82122001D01*
G75*
G02*
X141547001Y-82372000I-249999J0D01*
G01*
X140646999Y-82372000D01*
G75*
G02*
X140397000Y-82122001I0J249999D01*
G01*
X140397000Y-81471999D01*
G75*
G02*
X140646999Y-81222000I249999J0D01*
G01*
G37*
G36*
G01*
X140646999Y-79172000D02*
X141547001Y-79172000D01*
G75*
G02*
X141797000Y-79421999I0J-249999D01*
G01*
X141797000Y-80072001D01*
G75*
G02*
X141547001Y-80322000I-249999J0D01*
G01*
X140646999Y-80322000D01*
G75*
G02*
X140397000Y-80072001I0J249999D01*
G01*
X140397000Y-79421999D01*
G75*
G02*
X140646999Y-79172000I249999J0D01*
G01*
G37*
%TD*%
%TO.C,R11*%
G36*
G01*
X156406001Y-71178000D02*
X155505999Y-71178000D01*
G75*
G02*
X155256000Y-70928001I0J249999D01*
G01*
X155256000Y-70277999D01*
G75*
G02*
X155505999Y-70028000I249999J0D01*
G01*
X156406001Y-70028000D01*
G75*
G02*
X156656000Y-70277999I0J-249999D01*
G01*
X156656000Y-70928001D01*
G75*
G02*
X156406001Y-71178000I-249999J0D01*
G01*
G37*
G36*
G01*
X156406001Y-73228000D02*
X155505999Y-73228000D01*
G75*
G02*
X155256000Y-72978001I0J249999D01*
G01*
X155256000Y-72327999D01*
G75*
G02*
X155505999Y-72078000I249999J0D01*
G01*
X156406001Y-72078000D01*
G75*
G02*
X156656000Y-72327999I0J-249999D01*
G01*
X156656000Y-72978001D01*
G75*
G02*
X156406001Y-73228000I-249999J0D01*
G01*
G37*
%TD*%
%TO.C,R10*%
G36*
G01*
X161740000Y-102685001D02*
X161740000Y-101784999D01*
G75*
G02*
X161989999Y-101535000I249999J0D01*
G01*
X162640001Y-101535000D01*
G75*
G02*
X162890000Y-101784999I0J-249999D01*
G01*
X162890000Y-102685001D01*
G75*
G02*
X162640001Y-102935000I-249999J0D01*
G01*
X161989999Y-102935000D01*
G75*
G02*
X161740000Y-102685001I0J249999D01*
G01*
G37*
G36*
G01*
X159690000Y-102685001D02*
X159690000Y-101784999D01*
G75*
G02*
X159939999Y-101535000I249999J0D01*
G01*
X160590001Y-101535000D01*
G75*
G02*
X160840000Y-101784999I0J-249999D01*
G01*
X160840000Y-102685001D01*
G75*
G02*
X160590001Y-102935000I-249999J0D01*
G01*
X159939999Y-102935000D01*
G75*
G02*
X159690000Y-102685001I0J249999D01*
G01*
G37*
%TD*%
%TO.C,R9*%
G36*
G01*
X130625000Y-99256001D02*
X130625000Y-98355999D01*
G75*
G02*
X130874999Y-98106000I249999J0D01*
G01*
X131525001Y-98106000D01*
G75*
G02*
X131775000Y-98355999I0J-249999D01*
G01*
X131775000Y-99256001D01*
G75*
G02*
X131525001Y-99506000I-249999J0D01*
G01*
X130874999Y-99506000D01*
G75*
G02*
X130625000Y-99256001I0J249999D01*
G01*
G37*
G36*
G01*
X128575000Y-99256001D02*
X128575000Y-98355999D01*
G75*
G02*
X128824999Y-98106000I249999J0D01*
G01*
X129475001Y-98106000D01*
G75*
G02*
X129725000Y-98355999I0J-249999D01*
G01*
X129725000Y-99256001D01*
G75*
G02*
X129475001Y-99506000I-249999J0D01*
G01*
X128824999Y-99506000D01*
G75*
G02*
X128575000Y-99256001I0J249999D01*
G01*
G37*
%TD*%
%TO.C,R8*%
G36*
G01*
X180397999Y-108781000D02*
X181298001Y-108781000D01*
G75*
G02*
X181548000Y-109030999I0J-249999D01*
G01*
X181548000Y-109681001D01*
G75*
G02*
X181298001Y-109931000I-249999J0D01*
G01*
X180397999Y-109931000D01*
G75*
G02*
X180148000Y-109681001I0J249999D01*
G01*
X180148000Y-109030999D01*
G75*
G02*
X180397999Y-108781000I249999J0D01*
G01*
G37*
G36*
G01*
X180397999Y-106731000D02*
X181298001Y-106731000D01*
G75*
G02*
X181548000Y-106980999I0J-249999D01*
G01*
X181548000Y-107631001D01*
G75*
G02*
X181298001Y-107881000I-249999J0D01*
G01*
X180397999Y-107881000D01*
G75*
G02*
X180148000Y-107631001I0J249999D01*
G01*
X180148000Y-106980999D01*
G75*
G02*
X180397999Y-106731000I249999J0D01*
G01*
G37*
%TD*%
%TO.C,R7*%
G36*
G01*
X111309999Y-124910000D02*
X112210001Y-124910000D01*
G75*
G02*
X112460000Y-125159999I0J-249999D01*
G01*
X112460000Y-125810001D01*
G75*
G02*
X112210001Y-126060000I-249999J0D01*
G01*
X111309999Y-126060000D01*
G75*
G02*
X111060000Y-125810001I0J249999D01*
G01*
X111060000Y-125159999D01*
G75*
G02*
X111309999Y-124910000I249999J0D01*
G01*
G37*
G36*
G01*
X111309999Y-122860000D02*
X112210001Y-122860000D01*
G75*
G02*
X112460000Y-123109999I0J-249999D01*
G01*
X112460000Y-123760001D01*
G75*
G02*
X112210001Y-124010000I-249999J0D01*
G01*
X111309999Y-124010000D01*
G75*
G02*
X111060000Y-123760001I0J249999D01*
G01*
X111060000Y-123109999D01*
G75*
G02*
X111309999Y-122860000I249999J0D01*
G01*
G37*
%TD*%
%TO.C,R6*%
G36*
G01*
X98609999Y-119830000D02*
X99510001Y-119830000D01*
G75*
G02*
X99760000Y-120079999I0J-249999D01*
G01*
X99760000Y-120730001D01*
G75*
G02*
X99510001Y-120980000I-249999J0D01*
G01*
X98609999Y-120980000D01*
G75*
G02*
X98360000Y-120730001I0J249999D01*
G01*
X98360000Y-120079999D01*
G75*
G02*
X98609999Y-119830000I249999J0D01*
G01*
G37*
G36*
G01*
X98609999Y-117780000D02*
X99510001Y-117780000D01*
G75*
G02*
X99760000Y-118029999I0J-249999D01*
G01*
X99760000Y-118680001D01*
G75*
G02*
X99510001Y-118930000I-249999J0D01*
G01*
X98609999Y-118930000D01*
G75*
G02*
X98360000Y-118680001I0J249999D01*
G01*
X98360000Y-118029999D01*
G75*
G02*
X98609999Y-117780000I249999J0D01*
G01*
G37*
%TD*%
%TO.C,R5*%
G36*
G01*
X104590001Y-113850000D02*
X103689999Y-113850000D01*
G75*
G02*
X103440000Y-113600001I0J249999D01*
G01*
X103440000Y-112949999D01*
G75*
G02*
X103689999Y-112700000I249999J0D01*
G01*
X104590001Y-112700000D01*
G75*
G02*
X104840000Y-112949999I0J-249999D01*
G01*
X104840000Y-113600001D01*
G75*
G02*
X104590001Y-113850000I-249999J0D01*
G01*
G37*
G36*
G01*
X104590001Y-115900000D02*
X103689999Y-115900000D01*
G75*
G02*
X103440000Y-115650001I0J249999D01*
G01*
X103440000Y-114999999D01*
G75*
G02*
X103689999Y-114750000I249999J0D01*
G01*
X104590001Y-114750000D01*
G75*
G02*
X104840000Y-114999999I0J-249999D01*
G01*
X104840000Y-115650001D01*
G75*
G02*
X104590001Y-115900000I-249999J0D01*
G01*
G37*
%TD*%
%TO.C,R4*%
G36*
G01*
X192780500Y-112389499D02*
X192780500Y-113289501D01*
G75*
G02*
X192530501Y-113539500I-249999J0D01*
G01*
X191880499Y-113539500D01*
G75*
G02*
X191630500Y-113289501I0J249999D01*
G01*
X191630500Y-112389499D01*
G75*
G02*
X191880499Y-112139500I249999J0D01*
G01*
X192530501Y-112139500D01*
G75*
G02*
X192780500Y-112389499I0J-249999D01*
G01*
G37*
G36*
G01*
X194830500Y-112389499D02*
X194830500Y-113289501D01*
G75*
G02*
X194580501Y-113539500I-249999J0D01*
G01*
X193930499Y-113539500D01*
G75*
G02*
X193680500Y-113289501I0J249999D01*
G01*
X193680500Y-112389499D01*
G75*
G02*
X193930499Y-112139500I249999J0D01*
G01*
X194580501Y-112139500D01*
G75*
G02*
X194830500Y-112389499I0J-249999D01*
G01*
G37*
%TD*%
%TO.C,R3*%
G36*
G01*
X195712500Y-127005501D02*
X195712500Y-126105499D01*
G75*
G02*
X195962499Y-125855500I249999J0D01*
G01*
X196612501Y-125855500D01*
G75*
G02*
X196862500Y-126105499I0J-249999D01*
G01*
X196862500Y-127005501D01*
G75*
G02*
X196612501Y-127255500I-249999J0D01*
G01*
X195962499Y-127255500D01*
G75*
G02*
X195712500Y-127005501I0J249999D01*
G01*
G37*
G36*
G01*
X193662500Y-127005501D02*
X193662500Y-126105499D01*
G75*
G02*
X193912499Y-125855500I249999J0D01*
G01*
X194562501Y-125855500D01*
G75*
G02*
X194812500Y-126105499I0J-249999D01*
G01*
X194812500Y-127005501D01*
G75*
G02*
X194562501Y-127255500I-249999J0D01*
G01*
X193912499Y-127255500D01*
G75*
G02*
X193662500Y-127005501I0J249999D01*
G01*
G37*
%TD*%
%TO.C,R2*%
G36*
G01*
X188335499Y-113289500D02*
X189235501Y-113289500D01*
G75*
G02*
X189485500Y-113539499I0J-249999D01*
G01*
X189485500Y-114189501D01*
G75*
G02*
X189235501Y-114439500I-249999J0D01*
G01*
X188335499Y-114439500D01*
G75*
G02*
X188085500Y-114189501I0J249999D01*
G01*
X188085500Y-113539499D01*
G75*
G02*
X188335499Y-113289500I249999J0D01*
G01*
G37*
G36*
G01*
X188335499Y-111239500D02*
X189235501Y-111239500D01*
G75*
G02*
X189485500Y-111489499I0J-249999D01*
G01*
X189485500Y-112139501D01*
G75*
G02*
X189235501Y-112389500I-249999J0D01*
G01*
X188335499Y-112389500D01*
G75*
G02*
X188085500Y-112139501I0J249999D01*
G01*
X188085500Y-111489499D01*
G75*
G02*
X188335499Y-111239500I249999J0D01*
G01*
G37*
%TD*%
%TO.C,R1*%
G36*
G01*
X186060501Y-112389500D02*
X185160499Y-112389500D01*
G75*
G02*
X184910500Y-112139501I0J249999D01*
G01*
X184910500Y-111489499D01*
G75*
G02*
X185160499Y-111239500I249999J0D01*
G01*
X186060501Y-111239500D01*
G75*
G02*
X186310500Y-111489499I0J-249999D01*
G01*
X186310500Y-112139501D01*
G75*
G02*
X186060501Y-112389500I-249999J0D01*
G01*
G37*
G36*
G01*
X186060501Y-114439500D02*
X185160499Y-114439500D01*
G75*
G02*
X184910500Y-114189501I0J249999D01*
G01*
X184910500Y-113539499D01*
G75*
G02*
X185160499Y-113289500I249999J0D01*
G01*
X186060501Y-113289500D01*
G75*
G02*
X186310500Y-113539499I0J-249999D01*
G01*
X186310500Y-114189501D01*
G75*
G02*
X186060501Y-114439500I-249999J0D01*
G01*
G37*
%TD*%
%TO.C,FB2*%
G36*
G01*
X107499999Y-119830000D02*
X108400001Y-119830000D01*
G75*
G02*
X108650000Y-120079999I0J-249999D01*
G01*
X108650000Y-120730001D01*
G75*
G02*
X108400001Y-120980000I-249999J0D01*
G01*
X107499999Y-120980000D01*
G75*
G02*
X107250000Y-120730001I0J249999D01*
G01*
X107250000Y-120079999D01*
G75*
G02*
X107499999Y-119830000I249999J0D01*
G01*
G37*
G36*
G01*
X107499999Y-117780000D02*
X108400001Y-117780000D01*
G75*
G02*
X108650000Y-118029999I0J-249999D01*
G01*
X108650000Y-118680001D01*
G75*
G02*
X108400001Y-118930000I-249999J0D01*
G01*
X107499999Y-118930000D01*
G75*
G02*
X107250000Y-118680001I0J249999D01*
G01*
X107250000Y-118029999D01*
G75*
G02*
X107499999Y-117780000I249999J0D01*
G01*
G37*
%TD*%
%TO.C,FB1*%
G36*
G01*
X197225500Y-115564499D02*
X197225500Y-116464501D01*
G75*
G02*
X196975501Y-116714500I-249999J0D01*
G01*
X196325499Y-116714500D01*
G75*
G02*
X196075500Y-116464501I0J249999D01*
G01*
X196075500Y-115564499D01*
G75*
G02*
X196325499Y-115314500I249999J0D01*
G01*
X196975501Y-115314500D01*
G75*
G02*
X197225500Y-115564499I0J-249999D01*
G01*
G37*
G36*
G01*
X199275500Y-115564499D02*
X199275500Y-116464501D01*
G75*
G02*
X199025501Y-116714500I-249999J0D01*
G01*
X198375499Y-116714500D01*
G75*
G02*
X198125500Y-116464501I0J249999D01*
G01*
X198125500Y-115564499D01*
G75*
G02*
X198375499Y-115314500I249999J0D01*
G01*
X199025501Y-115314500D01*
G75*
G02*
X199275500Y-115564499I0J-249999D01*
G01*
G37*
%TD*%
D22*
%TO.C,D1*%
X100581000Y-69469000D03*
X103381000Y-69469000D03*
%TD*%
%TO.C,C33*%
G36*
G01*
X154870999Y-90874000D02*
X155771001Y-90874000D01*
G75*
G02*
X156021000Y-91123999I0J-249999D01*
G01*
X156021000Y-91774001D01*
G75*
G02*
X155771001Y-92024000I-249999J0D01*
G01*
X154870999Y-92024000D01*
G75*
G02*
X154621000Y-91774001I0J249999D01*
G01*
X154621000Y-91123999D01*
G75*
G02*
X154870999Y-90874000I249999J0D01*
G01*
G37*
G36*
G01*
X154870999Y-88824000D02*
X155771001Y-88824000D01*
G75*
G02*
X156021000Y-89073999I0J-249999D01*
G01*
X156021000Y-89724001D01*
G75*
G02*
X155771001Y-89974000I-249999J0D01*
G01*
X154870999Y-89974000D01*
G75*
G02*
X154621000Y-89724001I0J249999D01*
G01*
X154621000Y-89073999D01*
G75*
G02*
X154870999Y-88824000I249999J0D01*
G01*
G37*
%TD*%
%TO.C,C32*%
G36*
G01*
X141547001Y-71178000D02*
X140646999Y-71178000D01*
G75*
G02*
X140397000Y-70928001I0J249999D01*
G01*
X140397000Y-70277999D01*
G75*
G02*
X140646999Y-70028000I249999J0D01*
G01*
X141547001Y-70028000D01*
G75*
G02*
X141797000Y-70277999I0J-249999D01*
G01*
X141797000Y-70928001D01*
G75*
G02*
X141547001Y-71178000I-249999J0D01*
G01*
G37*
G36*
G01*
X141547001Y-73228000D02*
X140646999Y-73228000D01*
G75*
G02*
X140397000Y-72978001I0J249999D01*
G01*
X140397000Y-72327999D01*
G75*
G02*
X140646999Y-72078000I249999J0D01*
G01*
X141547001Y-72078000D01*
G75*
G02*
X141797000Y-72327999I0J-249999D01*
G01*
X141797000Y-72978001D01*
G75*
G02*
X141547001Y-73228000I-249999J0D01*
G01*
G37*
%TD*%
%TO.C,C31*%
G36*
G01*
X156406001Y-80322000D02*
X155505999Y-80322000D01*
G75*
G02*
X155256000Y-80072001I0J249999D01*
G01*
X155256000Y-79421999D01*
G75*
G02*
X155505999Y-79172000I249999J0D01*
G01*
X156406001Y-79172000D01*
G75*
G02*
X156656000Y-79421999I0J-249999D01*
G01*
X156656000Y-80072001D01*
G75*
G02*
X156406001Y-80322000I-249999J0D01*
G01*
G37*
G36*
G01*
X156406001Y-82372000D02*
X155505999Y-82372000D01*
G75*
G02*
X155256000Y-82122001I0J249999D01*
G01*
X155256000Y-81471999D01*
G75*
G02*
X155505999Y-81222000I249999J0D01*
G01*
X156406001Y-81222000D01*
G75*
G02*
X156656000Y-81471999I0J-249999D01*
G01*
X156656000Y-82122001D01*
G75*
G02*
X156406001Y-82372000I-249999J0D01*
G01*
G37*
%TD*%
%TO.C,C30*%
G36*
G01*
X180397999Y-104717000D02*
X181298001Y-104717000D01*
G75*
G02*
X181548000Y-104966999I0J-249999D01*
G01*
X181548000Y-105617001D01*
G75*
G02*
X181298001Y-105867000I-249999J0D01*
G01*
X180397999Y-105867000D01*
G75*
G02*
X180148000Y-105617001I0J249999D01*
G01*
X180148000Y-104966999D01*
G75*
G02*
X180397999Y-104717000I249999J0D01*
G01*
G37*
G36*
G01*
X180397999Y-102667000D02*
X181298001Y-102667000D01*
G75*
G02*
X181548000Y-102916999I0J-249999D01*
G01*
X181548000Y-103567001D01*
G75*
G02*
X181298001Y-103817000I-249999J0D01*
G01*
X180397999Y-103817000D01*
G75*
G02*
X180148000Y-103567001I0J249999D01*
G01*
X180148000Y-102916999D01*
G75*
G02*
X180397999Y-102667000I249999J0D01*
G01*
G37*
%TD*%
%TO.C,C29*%
G36*
G01*
X114059000Y-87366000D02*
X114059000Y-86116000D01*
G75*
G02*
X114309000Y-85866000I250000J0D01*
G01*
X115234000Y-85866000D01*
G75*
G02*
X115484000Y-86116000I0J-250000D01*
G01*
X115484000Y-87366000D01*
G75*
G02*
X115234000Y-87616000I-250000J0D01*
G01*
X114309000Y-87616000D01*
G75*
G02*
X114059000Y-87366000I0J250000D01*
G01*
G37*
G36*
G01*
X111084000Y-87366000D02*
X111084000Y-86116000D01*
G75*
G02*
X111334000Y-85866000I250000J0D01*
G01*
X112259000Y-85866000D01*
G75*
G02*
X112509000Y-86116000I0J-250000D01*
G01*
X112509000Y-87366000D01*
G75*
G02*
X112259000Y-87616000I-250000J0D01*
G01*
X111334000Y-87616000D01*
G75*
G02*
X111084000Y-87366000I0J250000D01*
G01*
G37*
%TD*%
%TO.C,C28*%
G36*
G01*
X114186000Y-58664000D02*
X114186000Y-57414000D01*
G75*
G02*
X114436000Y-57164000I250000J0D01*
G01*
X115361000Y-57164000D01*
G75*
G02*
X115611000Y-57414000I0J-250000D01*
G01*
X115611000Y-58664000D01*
G75*
G02*
X115361000Y-58914000I-250000J0D01*
G01*
X114436000Y-58914000D01*
G75*
G02*
X114186000Y-58664000I0J250000D01*
G01*
G37*
G36*
G01*
X111211000Y-58664000D02*
X111211000Y-57414000D01*
G75*
G02*
X111461000Y-57164000I250000J0D01*
G01*
X112386000Y-57164000D01*
G75*
G02*
X112636000Y-57414000I0J-250000D01*
G01*
X112636000Y-58664000D01*
G75*
G02*
X112386000Y-58914000I-250000J0D01*
G01*
X111461000Y-58914000D01*
G75*
G02*
X111211000Y-58664000I0J250000D01*
G01*
G37*
%TD*%
%TO.C,C22*%
G36*
G01*
X151834001Y-107500000D02*
X150933999Y-107500000D01*
G75*
G02*
X150684000Y-107250001I0J249999D01*
G01*
X150684000Y-106599999D01*
G75*
G02*
X150933999Y-106350000I249999J0D01*
G01*
X151834001Y-106350000D01*
G75*
G02*
X152084000Y-106599999I0J-249999D01*
G01*
X152084000Y-107250001D01*
G75*
G02*
X151834001Y-107500000I-249999J0D01*
G01*
G37*
G36*
G01*
X151834001Y-109550000D02*
X150933999Y-109550000D01*
G75*
G02*
X150684000Y-109300001I0J249999D01*
G01*
X150684000Y-108649999D01*
G75*
G02*
X150933999Y-108400000I249999J0D01*
G01*
X151834001Y-108400000D01*
G75*
G02*
X152084000Y-108649999I0J-249999D01*
G01*
X152084000Y-109300001D01*
G75*
G02*
X151834001Y-109550000I-249999J0D01*
G01*
G37*
%TD*%
%TO.C,C21*%
G36*
G01*
X147008001Y-87688000D02*
X146107999Y-87688000D01*
G75*
G02*
X145858000Y-87438001I0J249999D01*
G01*
X145858000Y-86787999D01*
G75*
G02*
X146107999Y-86538000I249999J0D01*
G01*
X147008001Y-86538000D01*
G75*
G02*
X147258000Y-86787999I0J-249999D01*
G01*
X147258000Y-87438001D01*
G75*
G02*
X147008001Y-87688000I-249999J0D01*
G01*
G37*
G36*
G01*
X147008001Y-89738000D02*
X146107999Y-89738000D01*
G75*
G02*
X145858000Y-89488001I0J249999D01*
G01*
X145858000Y-88837999D01*
G75*
G02*
X146107999Y-88588000I249999J0D01*
G01*
X147008001Y-88588000D01*
G75*
G02*
X147258000Y-88837999I0J-249999D01*
G01*
X147258000Y-89488001D01*
G75*
G02*
X147008001Y-89738000I-249999J0D01*
G01*
G37*
%TD*%
%TO.C,C20*%
G36*
G01*
X145091999Y-108400000D02*
X145992001Y-108400000D01*
G75*
G02*
X146242000Y-108649999I0J-249999D01*
G01*
X146242000Y-109300001D01*
G75*
G02*
X145992001Y-109550000I-249999J0D01*
G01*
X145091999Y-109550000D01*
G75*
G02*
X144842000Y-109300001I0J249999D01*
G01*
X144842000Y-108649999D01*
G75*
G02*
X145091999Y-108400000I249999J0D01*
G01*
G37*
G36*
G01*
X145091999Y-106350000D02*
X145992001Y-106350000D01*
G75*
G02*
X146242000Y-106599999I0J-249999D01*
G01*
X146242000Y-107250001D01*
G75*
G02*
X145992001Y-107500000I-249999J0D01*
G01*
X145091999Y-107500000D01*
G75*
G02*
X144842000Y-107250001I0J249999D01*
G01*
X144842000Y-106599999D01*
G75*
G02*
X145091999Y-106350000I249999J0D01*
G01*
G37*
%TD*%
%TO.C,C19*%
G36*
G01*
X152965999Y-108400000D02*
X153866001Y-108400000D01*
G75*
G02*
X154116000Y-108649999I0J-249999D01*
G01*
X154116000Y-109300001D01*
G75*
G02*
X153866001Y-109550000I-249999J0D01*
G01*
X152965999Y-109550000D01*
G75*
G02*
X152716000Y-109300001I0J249999D01*
G01*
X152716000Y-108649999D01*
G75*
G02*
X152965999Y-108400000I249999J0D01*
G01*
G37*
G36*
G01*
X152965999Y-106350000D02*
X153866001Y-106350000D01*
G75*
G02*
X154116000Y-106599999I0J-249999D01*
G01*
X154116000Y-107250001D01*
G75*
G02*
X153866001Y-107500000I-249999J0D01*
G01*
X152965999Y-107500000D01*
G75*
G02*
X152716000Y-107250001I0J249999D01*
G01*
X152716000Y-106599999D01*
G75*
G02*
X152965999Y-106350000I249999J0D01*
G01*
G37*
%TD*%
%TO.C,C18*%
G36*
G01*
X144468001Y-87688000D02*
X143567999Y-87688000D01*
G75*
G02*
X143318000Y-87438001I0J249999D01*
G01*
X143318000Y-86787999D01*
G75*
G02*
X143567999Y-86538000I249999J0D01*
G01*
X144468001Y-86538000D01*
G75*
G02*
X144718000Y-86787999I0J-249999D01*
G01*
X144718000Y-87438001D01*
G75*
G02*
X144468001Y-87688000I-249999J0D01*
G01*
G37*
G36*
G01*
X144468001Y-89738000D02*
X143567999Y-89738000D01*
G75*
G02*
X143318000Y-89488001I0J249999D01*
G01*
X143318000Y-88837999D01*
G75*
G02*
X143567999Y-88588000I249999J0D01*
G01*
X144468001Y-88588000D01*
G75*
G02*
X144718000Y-88837999I0J-249999D01*
G01*
X144718000Y-89488001D01*
G75*
G02*
X144468001Y-89738000I-249999J0D01*
G01*
G37*
%TD*%
%TO.C,C17*%
G36*
G01*
X115119999Y-119830000D02*
X116020001Y-119830000D01*
G75*
G02*
X116270000Y-120079999I0J-249999D01*
G01*
X116270000Y-120730001D01*
G75*
G02*
X116020001Y-120980000I-249999J0D01*
G01*
X115119999Y-120980000D01*
G75*
G02*
X114870000Y-120730001I0J249999D01*
G01*
X114870000Y-120079999D01*
G75*
G02*
X115119999Y-119830000I249999J0D01*
G01*
G37*
G36*
G01*
X115119999Y-117780000D02*
X116020001Y-117780000D01*
G75*
G02*
X116270000Y-118029999I0J-249999D01*
G01*
X116270000Y-118680001D01*
G75*
G02*
X116020001Y-118930000I-249999J0D01*
G01*
X115119999Y-118930000D01*
G75*
G02*
X114870000Y-118680001I0J249999D01*
G01*
X114870000Y-118029999D01*
G75*
G02*
X115119999Y-117780000I249999J0D01*
G01*
G37*
%TD*%
%TO.C,C16*%
G36*
G01*
X111309999Y-119830000D02*
X112210001Y-119830000D01*
G75*
G02*
X112460000Y-120079999I0J-249999D01*
G01*
X112460000Y-120730001D01*
G75*
G02*
X112210001Y-120980000I-249999J0D01*
G01*
X111309999Y-120980000D01*
G75*
G02*
X111060000Y-120730001I0J249999D01*
G01*
X111060000Y-120079999D01*
G75*
G02*
X111309999Y-119830000I249999J0D01*
G01*
G37*
G36*
G01*
X111309999Y-117780000D02*
X112210001Y-117780000D01*
G75*
G02*
X112460000Y-118029999I0J-249999D01*
G01*
X112460000Y-118680001D01*
G75*
G02*
X112210001Y-118930000I-249999J0D01*
G01*
X111309999Y-118930000D01*
G75*
G02*
X111060000Y-118680001I0J249999D01*
G01*
X111060000Y-118029999D01*
G75*
G02*
X111309999Y-117780000I249999J0D01*
G01*
G37*
%TD*%
%TO.C,C15*%
G36*
G01*
X107499999Y-124910000D02*
X108400001Y-124910000D01*
G75*
G02*
X108650000Y-125159999I0J-249999D01*
G01*
X108650000Y-125810001D01*
G75*
G02*
X108400001Y-126060000I-249999J0D01*
G01*
X107499999Y-126060000D01*
G75*
G02*
X107250000Y-125810001I0J249999D01*
G01*
X107250000Y-125159999D01*
G75*
G02*
X107499999Y-124910000I249999J0D01*
G01*
G37*
G36*
G01*
X107499999Y-122860000D02*
X108400001Y-122860000D01*
G75*
G02*
X108650000Y-123109999I0J-249999D01*
G01*
X108650000Y-123760001D01*
G75*
G02*
X108400001Y-124010000I-249999J0D01*
G01*
X107499999Y-124010000D01*
G75*
G02*
X107250000Y-123760001I0J249999D01*
G01*
X107250000Y-123109999D01*
G75*
G02*
X107499999Y-122860000I249999J0D01*
G01*
G37*
%TD*%
%TO.C,C14*%
G36*
G01*
X98609999Y-114750000D02*
X99510001Y-114750000D01*
G75*
G02*
X99760000Y-114999999I0J-249999D01*
G01*
X99760000Y-115650001D01*
G75*
G02*
X99510001Y-115900000I-249999J0D01*
G01*
X98609999Y-115900000D01*
G75*
G02*
X98360000Y-115650001I0J249999D01*
G01*
X98360000Y-114999999D01*
G75*
G02*
X98609999Y-114750000I249999J0D01*
G01*
G37*
G36*
G01*
X98609999Y-112700000D02*
X99510001Y-112700000D01*
G75*
G02*
X99760000Y-112949999I0J-249999D01*
G01*
X99760000Y-113600001D01*
G75*
G02*
X99510001Y-113850000I-249999J0D01*
G01*
X98609999Y-113850000D01*
G75*
G02*
X98360000Y-113600001I0J249999D01*
G01*
X98360000Y-112949999D01*
G75*
G02*
X98609999Y-112700000I249999J0D01*
G01*
G37*
%TD*%
%TO.C,C12*%
G36*
G01*
X103689999Y-119830000D02*
X104590001Y-119830000D01*
G75*
G02*
X104840000Y-120079999I0J-249999D01*
G01*
X104840000Y-120730001D01*
G75*
G02*
X104590001Y-120980000I-249999J0D01*
G01*
X103689999Y-120980000D01*
G75*
G02*
X103440000Y-120730001I0J249999D01*
G01*
X103440000Y-120079999D01*
G75*
G02*
X103689999Y-119830000I249999J0D01*
G01*
G37*
G36*
G01*
X103689999Y-117780000D02*
X104590001Y-117780000D01*
G75*
G02*
X104840000Y-118029999I0J-249999D01*
G01*
X104840000Y-118680001D01*
G75*
G02*
X104590001Y-118930000I-249999J0D01*
G01*
X103689999Y-118930000D01*
G75*
G02*
X103440000Y-118680001I0J249999D01*
G01*
X103440000Y-118029999D01*
G75*
G02*
X103689999Y-117780000I249999J0D01*
G01*
G37*
%TD*%
%TO.C,C9*%
G36*
G01*
X197225500Y-109214499D02*
X197225500Y-110114501D01*
G75*
G02*
X196975501Y-110364500I-249999J0D01*
G01*
X196325499Y-110364500D01*
G75*
G02*
X196075500Y-110114501I0J249999D01*
G01*
X196075500Y-109214499D01*
G75*
G02*
X196325499Y-108964500I249999J0D01*
G01*
X196975501Y-108964500D01*
G75*
G02*
X197225500Y-109214499I0J-249999D01*
G01*
G37*
G36*
G01*
X199275500Y-109214499D02*
X199275500Y-110114501D01*
G75*
G02*
X199025501Y-110364500I-249999J0D01*
G01*
X198375499Y-110364500D01*
G75*
G02*
X198125500Y-110114501I0J249999D01*
G01*
X198125500Y-109214499D01*
G75*
G02*
X198375499Y-108964500I249999J0D01*
G01*
X199025501Y-108964500D01*
G75*
G02*
X199275500Y-109214499I0J-249999D01*
G01*
G37*
%TD*%
%TO.C,C8*%
G36*
G01*
X197225500Y-112389499D02*
X197225500Y-113289501D01*
G75*
G02*
X196975501Y-113539500I-249999J0D01*
G01*
X196325499Y-113539500D01*
G75*
G02*
X196075500Y-113289501I0J249999D01*
G01*
X196075500Y-112389499D01*
G75*
G02*
X196325499Y-112139500I249999J0D01*
G01*
X196975501Y-112139500D01*
G75*
G02*
X197225500Y-112389499I0J-249999D01*
G01*
G37*
G36*
G01*
X199275500Y-112389499D02*
X199275500Y-113289501D01*
G75*
G02*
X199025501Y-113539500I-249999J0D01*
G01*
X198375499Y-113539500D01*
G75*
G02*
X198125500Y-113289501I0J249999D01*
G01*
X198125500Y-112389499D01*
G75*
G02*
X198375499Y-112139500I249999J0D01*
G01*
X199025501Y-112139500D01*
G75*
G02*
X199275500Y-112389499I0J-249999D01*
G01*
G37*
%TD*%
%TO.C,C7*%
G36*
G01*
X192780500Y-115564499D02*
X192780500Y-116464501D01*
G75*
G02*
X192530501Y-116714500I-249999J0D01*
G01*
X191880499Y-116714500D01*
G75*
G02*
X191630500Y-116464501I0J249999D01*
G01*
X191630500Y-115564499D01*
G75*
G02*
X191880499Y-115314500I249999J0D01*
G01*
X192530501Y-115314500D01*
G75*
G02*
X192780500Y-115564499I0J-249999D01*
G01*
G37*
G36*
G01*
X194830500Y-115564499D02*
X194830500Y-116464501D01*
G75*
G02*
X194580501Y-116714500I-249999J0D01*
G01*
X193930499Y-116714500D01*
G75*
G02*
X193680500Y-116464501I0J249999D01*
G01*
X193680500Y-115564499D01*
G75*
G02*
X193930499Y-115314500I249999J0D01*
G01*
X194580501Y-115314500D01*
G75*
G02*
X194830500Y-115564499I0J-249999D01*
G01*
G37*
%TD*%
%TO.C,C6*%
G36*
G01*
X199257499Y-122941500D02*
X200157501Y-122941500D01*
G75*
G02*
X200407500Y-123191499I0J-249999D01*
G01*
X200407500Y-123841501D01*
G75*
G02*
X200157501Y-124091500I-249999J0D01*
G01*
X199257499Y-124091500D01*
G75*
G02*
X199007500Y-123841501I0J249999D01*
G01*
X199007500Y-123191499D01*
G75*
G02*
X199257499Y-122941500I249999J0D01*
G01*
G37*
G36*
G01*
X199257499Y-120891500D02*
X200157501Y-120891500D01*
G75*
G02*
X200407500Y-121141499I0J-249999D01*
G01*
X200407500Y-121791501D01*
G75*
G02*
X200157501Y-122041500I-249999J0D01*
G01*
X199257499Y-122041500D01*
G75*
G02*
X199007500Y-121791501I0J249999D01*
G01*
X199007500Y-121141499D01*
G75*
G02*
X199257499Y-120891500I249999J0D01*
G01*
G37*
%TD*%
%TO.C,C5*%
G36*
G01*
X188335499Y-118369500D02*
X189235501Y-118369500D01*
G75*
G02*
X189485500Y-118619499I0J-249999D01*
G01*
X189485500Y-119269501D01*
G75*
G02*
X189235501Y-119519500I-249999J0D01*
G01*
X188335499Y-119519500D01*
G75*
G02*
X188085500Y-119269501I0J249999D01*
G01*
X188085500Y-118619499D01*
G75*
G02*
X188335499Y-118369500I249999J0D01*
G01*
G37*
G36*
G01*
X188335499Y-116319500D02*
X189235501Y-116319500D01*
G75*
G02*
X189485500Y-116569499I0J-249999D01*
G01*
X189485500Y-117219501D01*
G75*
G02*
X189235501Y-117469500I-249999J0D01*
G01*
X188335499Y-117469500D01*
G75*
G02*
X188085500Y-117219501I0J249999D01*
G01*
X188085500Y-116569499D01*
G75*
G02*
X188335499Y-116319500I249999J0D01*
G01*
G37*
%TD*%
%TO.C,C4*%
G36*
G01*
X186060501Y-117469500D02*
X185160499Y-117469500D01*
G75*
G02*
X184910500Y-117219501I0J249999D01*
G01*
X184910500Y-116569499D01*
G75*
G02*
X185160499Y-116319500I249999J0D01*
G01*
X186060501Y-116319500D01*
G75*
G02*
X186310500Y-116569499I0J-249999D01*
G01*
X186310500Y-117219501D01*
G75*
G02*
X186060501Y-117469500I-249999J0D01*
G01*
G37*
G36*
G01*
X186060501Y-119519500D02*
X185160499Y-119519500D01*
G75*
G02*
X184910500Y-119269501I0J249999D01*
G01*
X184910500Y-118619499D01*
G75*
G02*
X185160499Y-118369500I249999J0D01*
G01*
X186060501Y-118369500D01*
G75*
G02*
X186310500Y-118619499I0J-249999D01*
G01*
X186310500Y-119269501D01*
G75*
G02*
X186060501Y-119519500I-249999J0D01*
G01*
G37*
%TD*%
%TO.C,C3*%
G36*
G01*
X179826499Y-128402500D02*
X180726501Y-128402500D01*
G75*
G02*
X180976500Y-128652499I0J-249999D01*
G01*
X180976500Y-129302501D01*
G75*
G02*
X180726501Y-129552500I-249999J0D01*
G01*
X179826499Y-129552500D01*
G75*
G02*
X179576500Y-129302501I0J249999D01*
G01*
X179576500Y-128652499D01*
G75*
G02*
X179826499Y-128402500I249999J0D01*
G01*
G37*
G36*
G01*
X179826499Y-126352500D02*
X180726501Y-126352500D01*
G75*
G02*
X180976500Y-126602499I0J-249999D01*
G01*
X180976500Y-127252501D01*
G75*
G02*
X180726501Y-127502500I-249999J0D01*
G01*
X179826499Y-127502500D01*
G75*
G02*
X179576500Y-127252501I0J249999D01*
G01*
X179576500Y-126602499D01*
G75*
G02*
X179826499Y-126352500I249999J0D01*
G01*
G37*
%TD*%
M02*
