%TF.GenerationSoftware,KiCad,Pcbnew,5.1.6-c6e7f7d~87~ubuntu18.04.1*%
%TF.CreationDate,2020-11-06T01:01:49+00:00*%
%TF.ProjectId,CirrusDspPedal,43697272-7573-4447-9370-506564616c2e,rev?*%
%TF.SameCoordinates,Original*%
%TF.FileFunction,Paste,Bot*%
%TF.FilePolarity,Positive*%
%FSLAX46Y46*%
G04 Gerber Fmt 4.6, Leading zero omitted, Abs format (unit mm)*
G04 Created by KiCad (PCBNEW 5.1.6-c6e7f7d~87~ubuntu18.04.1) date 2020-11-06 01:01:49*
%MOMM*%
%LPD*%
G01*
G04 APERTURE LIST*
%ADD10R,1.900000X1.350000*%
%ADD11R,1.200000X1.000000*%
%ADD12R,1.550000X1.350000*%
%ADD13R,1.170000X1.800000*%
%ADD14R,0.850000X1.100000*%
%ADD15R,0.750000X1.100000*%
G04 APERTURE END LIST*
%TO.C,K1*%
G36*
G01*
X152690000Y-129858000D02*
X152690000Y-130258000D01*
G75*
G02*
X152490000Y-130458000I-200000J0D01*
G01*
X150830000Y-130458000D01*
G75*
G02*
X150630000Y-130258000I0J200000D01*
G01*
X150630000Y-129858000D01*
G75*
G02*
X150830000Y-129658000I200000J0D01*
G01*
X152490000Y-129658000D01*
G75*
G02*
X152690000Y-129858000I0J-200000D01*
G01*
G37*
G36*
G01*
X152690000Y-133058000D02*
X152690000Y-133458000D01*
G75*
G02*
X152490000Y-133658000I-200000J0D01*
G01*
X150830000Y-133658000D01*
G75*
G02*
X150630000Y-133458000I0J200000D01*
G01*
X150630000Y-133058000D01*
G75*
G02*
X150830000Y-132858000I200000J0D01*
G01*
X152490000Y-132858000D01*
G75*
G02*
X152690000Y-133058000I0J-200000D01*
G01*
G37*
G36*
G01*
X152690000Y-135258000D02*
X152690000Y-135658000D01*
G75*
G02*
X152490000Y-135858000I-200000J0D01*
G01*
X150830000Y-135858000D01*
G75*
G02*
X150630000Y-135658000I0J200000D01*
G01*
X150630000Y-135258000D01*
G75*
G02*
X150830000Y-135058000I200000J0D01*
G01*
X152490000Y-135058000D01*
G75*
G02*
X152690000Y-135258000I0J-200000D01*
G01*
G37*
G36*
G01*
X152690000Y-137458000D02*
X152690000Y-137858000D01*
G75*
G02*
X152490000Y-138058000I-200000J0D01*
G01*
X150830000Y-138058000D01*
G75*
G02*
X150630000Y-137858000I0J200000D01*
G01*
X150630000Y-137458000D01*
G75*
G02*
X150830000Y-137258000I200000J0D01*
G01*
X152490000Y-137258000D01*
G75*
G02*
X152690000Y-137458000I0J-200000D01*
G01*
G37*
G36*
G01*
X146550000Y-137458000D02*
X146550000Y-137858000D01*
G75*
G02*
X146350000Y-138058000I-200000J0D01*
G01*
X144690000Y-138058000D01*
G75*
G02*
X144490000Y-137858000I0J200000D01*
G01*
X144490000Y-137458000D01*
G75*
G02*
X144690000Y-137258000I200000J0D01*
G01*
X146350000Y-137258000D01*
G75*
G02*
X146550000Y-137458000I0J-200000D01*
G01*
G37*
G36*
G01*
X146550000Y-135258000D02*
X146550000Y-135658000D01*
G75*
G02*
X146350000Y-135858000I-200000J0D01*
G01*
X144690000Y-135858000D01*
G75*
G02*
X144490000Y-135658000I0J200000D01*
G01*
X144490000Y-135258000D01*
G75*
G02*
X144690000Y-135058000I200000J0D01*
G01*
X146350000Y-135058000D01*
G75*
G02*
X146550000Y-135258000I0J-200000D01*
G01*
G37*
G36*
G01*
X146550000Y-133058000D02*
X146550000Y-133458000D01*
G75*
G02*
X146350000Y-133658000I-200000J0D01*
G01*
X144690000Y-133658000D01*
G75*
G02*
X144490000Y-133458000I0J200000D01*
G01*
X144490000Y-133058000D01*
G75*
G02*
X144690000Y-132858000I200000J0D01*
G01*
X146350000Y-132858000D01*
G75*
G02*
X146550000Y-133058000I0J-200000D01*
G01*
G37*
G36*
G01*
X146550000Y-129858000D02*
X146550000Y-130258000D01*
G75*
G02*
X146350000Y-130458000I-200000J0D01*
G01*
X144690000Y-130458000D01*
G75*
G02*
X144490000Y-130258000I0J200000D01*
G01*
X144490000Y-129858000D01*
G75*
G02*
X144690000Y-129658000I200000J0D01*
G01*
X146350000Y-129658000D01*
G75*
G02*
X146550000Y-129858000I0J-200000D01*
G01*
G37*
%TD*%
%TO.C,L1*%
G36*
G01*
X141420001Y-118422000D02*
X140519999Y-118422000D01*
G75*
G02*
X140270000Y-118172001I0J249999D01*
G01*
X140270000Y-117521999D01*
G75*
G02*
X140519999Y-117272000I249999J0D01*
G01*
X141420001Y-117272000D01*
G75*
G02*
X141670000Y-117521999I0J-249999D01*
G01*
X141670000Y-118172001D01*
G75*
G02*
X141420001Y-118422000I-249999J0D01*
G01*
G37*
G36*
G01*
X141420001Y-120472000D02*
X140519999Y-120472000D01*
G75*
G02*
X140270000Y-120222001I0J249999D01*
G01*
X140270000Y-119571999D01*
G75*
G02*
X140519999Y-119322000I249999J0D01*
G01*
X141420001Y-119322000D01*
G75*
G02*
X141670000Y-119571999I0J-249999D01*
G01*
X141670000Y-120222001D01*
G75*
G02*
X141420001Y-120472000I-249999J0D01*
G01*
G37*
%TD*%
D10*
%TO.C,J6*%
X182165000Y-55839000D03*
X176195000Y-55839000D03*
D11*
X172695000Y-60514000D03*
X172695000Y-56814000D03*
D12*
X172870000Y-66539000D03*
D13*
X184190000Y-66314000D03*
D14*
X181930000Y-66664000D03*
X180830000Y-66664000D03*
X179730000Y-66664000D03*
X178630000Y-66664000D03*
X177530000Y-66664000D03*
X176430000Y-66664000D03*
D15*
X182980000Y-66664000D03*
D14*
X175330000Y-66664000D03*
%TD*%
%TO.C,C20*%
G36*
G01*
X147250999Y-125672000D02*
X148151001Y-125672000D01*
G75*
G02*
X148401000Y-125921999I0J-249999D01*
G01*
X148401000Y-126572001D01*
G75*
G02*
X148151001Y-126822000I-249999J0D01*
G01*
X147250999Y-126822000D01*
G75*
G02*
X147001000Y-126572001I0J249999D01*
G01*
X147001000Y-125921999D01*
G75*
G02*
X147250999Y-125672000I249999J0D01*
G01*
G37*
G36*
G01*
X147250999Y-123622000D02*
X148151001Y-123622000D01*
G75*
G02*
X148401000Y-123871999I0J-249999D01*
G01*
X148401000Y-124522001D01*
G75*
G02*
X148151001Y-124772000I-249999J0D01*
G01*
X147250999Y-124772000D01*
G75*
G02*
X147001000Y-124522001I0J249999D01*
G01*
X147001000Y-123871999D01*
G75*
G02*
X147250999Y-123622000I249999J0D01*
G01*
G37*
%TD*%
%TO.C,C13*%
G36*
G01*
X104325000Y-112579999D02*
X104325000Y-113480001D01*
G75*
G02*
X104075001Y-113730000I-249999J0D01*
G01*
X103424999Y-113730000D01*
G75*
G02*
X103175000Y-113480001I0J249999D01*
G01*
X103175000Y-112579999D01*
G75*
G02*
X103424999Y-112330000I249999J0D01*
G01*
X104075001Y-112330000D01*
G75*
G02*
X104325000Y-112579999I0J-249999D01*
G01*
G37*
G36*
G01*
X106375000Y-112579999D02*
X106375000Y-113480001D01*
G75*
G02*
X106125001Y-113730000I-249999J0D01*
G01*
X105474999Y-113730000D01*
G75*
G02*
X105225000Y-113480001I0J249999D01*
G01*
X105225000Y-112579999D01*
G75*
G02*
X105474999Y-112330000I249999J0D01*
G01*
X106125001Y-112330000D01*
G75*
G02*
X106375000Y-112579999I0J-249999D01*
G01*
G37*
%TD*%
%TO.C,C11*%
G36*
G01*
X117925000Y-110940001D02*
X117925000Y-110039999D01*
G75*
G02*
X118174999Y-109790000I249999J0D01*
G01*
X118825001Y-109790000D01*
G75*
G02*
X119075000Y-110039999I0J-249999D01*
G01*
X119075000Y-110940001D01*
G75*
G02*
X118825001Y-111190000I-249999J0D01*
G01*
X118174999Y-111190000D01*
G75*
G02*
X117925000Y-110940001I0J249999D01*
G01*
G37*
G36*
G01*
X115875000Y-110940001D02*
X115875000Y-110039999D01*
G75*
G02*
X116124999Y-109790000I249999J0D01*
G01*
X116775001Y-109790000D01*
G75*
G02*
X117025000Y-110039999I0J-249999D01*
G01*
X117025000Y-110940001D01*
G75*
G02*
X116775001Y-111190000I-249999J0D01*
G01*
X116124999Y-111190000D01*
G75*
G02*
X115875000Y-110940001I0J249999D01*
G01*
G37*
%TD*%
%TO.C,C10*%
G36*
G01*
X117925000Y-114115001D02*
X117925000Y-113214999D01*
G75*
G02*
X118174999Y-112965000I249999J0D01*
G01*
X118825001Y-112965000D01*
G75*
G02*
X119075000Y-113214999I0J-249999D01*
G01*
X119075000Y-114115001D01*
G75*
G02*
X118825001Y-114365000I-249999J0D01*
G01*
X118174999Y-114365000D01*
G75*
G02*
X117925000Y-114115001I0J249999D01*
G01*
G37*
G36*
G01*
X115875000Y-114115001D02*
X115875000Y-113214999D01*
G75*
G02*
X116124999Y-112965000I249999J0D01*
G01*
X116775001Y-112965000D01*
G75*
G02*
X117025000Y-113214999I0J-249999D01*
G01*
X117025000Y-114115001D01*
G75*
G02*
X116775001Y-114365000I-249999J0D01*
G01*
X116124999Y-114365000D01*
G75*
G02*
X115875000Y-114115001I0J249999D01*
G01*
G37*
%TD*%
%TO.C,C3*%
G36*
G01*
X177731000Y-126041999D02*
X177731000Y-126942001D01*
G75*
G02*
X177481001Y-127192000I-249999J0D01*
G01*
X176830999Y-127192000D01*
G75*
G02*
X176581000Y-126942001I0J249999D01*
G01*
X176581000Y-126041999D01*
G75*
G02*
X176830999Y-125792000I249999J0D01*
G01*
X177481001Y-125792000D01*
G75*
G02*
X177731000Y-126041999I0J-249999D01*
G01*
G37*
G36*
G01*
X179781000Y-126041999D02*
X179781000Y-126942001D01*
G75*
G02*
X179531001Y-127192000I-249999J0D01*
G01*
X178880999Y-127192000D01*
G75*
G02*
X178631000Y-126942001I0J249999D01*
G01*
X178631000Y-126041999D01*
G75*
G02*
X178880999Y-125792000I249999J0D01*
G01*
X179531001Y-125792000D01*
G75*
G02*
X179781000Y-126041999I0J-249999D01*
G01*
G37*
%TD*%
%TO.C,C2*%
G36*
G01*
X190569000Y-125926001D02*
X190569000Y-125025999D01*
G75*
G02*
X190818999Y-124776000I249999J0D01*
G01*
X191469001Y-124776000D01*
G75*
G02*
X191719000Y-125025999I0J-249999D01*
G01*
X191719000Y-125926001D01*
G75*
G02*
X191469001Y-126176000I-249999J0D01*
G01*
X190818999Y-126176000D01*
G75*
G02*
X190569000Y-125926001I0J249999D01*
G01*
G37*
G36*
G01*
X188519000Y-125926001D02*
X188519000Y-125025999D01*
G75*
G02*
X188768999Y-124776000I249999J0D01*
G01*
X189419001Y-124776000D01*
G75*
G02*
X189669000Y-125025999I0J-249999D01*
G01*
X189669000Y-125926001D01*
G75*
G02*
X189419001Y-126176000I-249999J0D01*
G01*
X188768999Y-126176000D01*
G75*
G02*
X188519000Y-125926001I0J249999D01*
G01*
G37*
%TD*%
%TO.C,C1*%
G36*
G01*
X190569000Y-123513001D02*
X190569000Y-122612999D01*
G75*
G02*
X190818999Y-122363000I249999J0D01*
G01*
X191469001Y-122363000D01*
G75*
G02*
X191719000Y-122612999I0J-249999D01*
G01*
X191719000Y-123513001D01*
G75*
G02*
X191469001Y-123763000I-249999J0D01*
G01*
X190818999Y-123763000D01*
G75*
G02*
X190569000Y-123513001I0J249999D01*
G01*
G37*
G36*
G01*
X188519000Y-123513001D02*
X188519000Y-122612999D01*
G75*
G02*
X188768999Y-122363000I249999J0D01*
G01*
X189419001Y-122363000D01*
G75*
G02*
X189669000Y-122612999I0J-249999D01*
G01*
X189669000Y-123513001D01*
G75*
G02*
X189419001Y-123763000I-249999J0D01*
G01*
X188768999Y-123763000D01*
G75*
G02*
X188519000Y-123513001I0J249999D01*
G01*
G37*
%TD*%
M02*
