%TF.GenerationSoftware,KiCad,Pcbnew,5.1.6-c6e7f7d~87~ubuntu18.04.1*%
%TF.CreationDate,2020-11-08T20:36:32+00:00*%
%TF.ProjectId,CirrusDspPedal,43697272-7573-4447-9370-506564616c2e,rev?*%
%TF.SameCoordinates,Original*%
%TF.FileFunction,Legend,Top*%
%TF.FilePolarity,Positive*%
%FSLAX46Y46*%
G04 Gerber Fmt 4.6, Leading zero omitted, Abs format (unit mm)*
G04 Created by KiCad (PCBNEW 5.1.6-c6e7f7d~87~ubuntu18.04.1) date 2020-11-08 20:36:32*
%MOMM*%
%LPD*%
G01*
G04 APERTURE LIST*
%ADD10C,0.120000*%
%ADD11C,1.000000*%
%ADD12C,0.500000*%
%ADD13C,0.150000*%
G04 APERTURE END LIST*
D10*
X175133000Y-58547000D02*
X176149000Y-57785000D01*
X174752000Y-60452000D02*
X177546000Y-58293000D01*
X174879000Y-61976000D02*
X177673000Y-59563000D01*
X175387000Y-63119000D02*
X180721000Y-58166000D01*
X176784000Y-63246000D02*
X182372000Y-58039000D01*
X178308000Y-63500000D02*
X184785000Y-57658000D01*
X179959000Y-63627000D02*
X184404000Y-59563000D01*
X181737000Y-63627000D02*
X184531000Y-60960000D01*
X183388000Y-64008000D02*
X184785000Y-62611000D01*
X185420000Y-54991000D02*
X185420000Y-64135000D01*
X174371000Y-54991000D02*
X185420000Y-54991000D01*
X174371000Y-64135000D02*
X174371000Y-54991000D01*
D11*
X183615000Y-115443000D02*
G75*
G03*
X183615000Y-115443000I-100000J0D01*
G01*
D12*
X137574285Y-132461142D02*
X137574285Y-129461142D01*
X138288571Y-129461142D01*
X138717142Y-129604000D01*
X139002857Y-129889714D01*
X139145714Y-130175428D01*
X139288571Y-130746857D01*
X139288571Y-131175428D01*
X139145714Y-131746857D01*
X139002857Y-132032571D01*
X138717142Y-132318285D01*
X138288571Y-132461142D01*
X137574285Y-132461142D01*
X140431428Y-132318285D02*
X140860000Y-132461142D01*
X141574285Y-132461142D01*
X141860000Y-132318285D01*
X142002857Y-132175428D01*
X142145714Y-131889714D01*
X142145714Y-131604000D01*
X142002857Y-131318285D01*
X141860000Y-131175428D01*
X141574285Y-131032571D01*
X141002857Y-130889714D01*
X140717142Y-130746857D01*
X140574285Y-130604000D01*
X140431428Y-130318285D01*
X140431428Y-130032571D01*
X140574285Y-129746857D01*
X140717142Y-129604000D01*
X141002857Y-129461142D01*
X141717142Y-129461142D01*
X142145714Y-129604000D01*
X143431428Y-132461142D02*
X143431428Y-129461142D01*
X144574285Y-129461142D01*
X144860000Y-129604000D01*
X145002857Y-129746857D01*
X145145714Y-130032571D01*
X145145714Y-130461142D01*
X145002857Y-130746857D01*
X144860000Y-130889714D01*
X144574285Y-131032571D01*
X143431428Y-131032571D01*
X148717142Y-132461142D02*
X148717142Y-129461142D01*
X149860000Y-129461142D01*
X150145714Y-129604000D01*
X150288571Y-129746857D01*
X150431428Y-130032571D01*
X150431428Y-130461142D01*
X150288571Y-130746857D01*
X150145714Y-130889714D01*
X149860000Y-131032571D01*
X148717142Y-131032571D01*
X152860000Y-132318285D02*
X152574285Y-132461142D01*
X152002857Y-132461142D01*
X151717142Y-132318285D01*
X151574285Y-132032571D01*
X151574285Y-130889714D01*
X151717142Y-130604000D01*
X152002857Y-130461142D01*
X152574285Y-130461142D01*
X152860000Y-130604000D01*
X153002857Y-130889714D01*
X153002857Y-131175428D01*
X151574285Y-131461142D01*
X155574285Y-132461142D02*
X155574285Y-129461142D01*
X155574285Y-132318285D02*
X155288571Y-132461142D01*
X154717142Y-132461142D01*
X154431428Y-132318285D01*
X154288571Y-132175428D01*
X154145714Y-131889714D01*
X154145714Y-131032571D01*
X154288571Y-130746857D01*
X154431428Y-130604000D01*
X154717142Y-130461142D01*
X155288571Y-130461142D01*
X155574285Y-130604000D01*
X158288571Y-132461142D02*
X158288571Y-130889714D01*
X158145714Y-130604000D01*
X157860000Y-130461142D01*
X157288571Y-130461142D01*
X157002857Y-130604000D01*
X158288571Y-132318285D02*
X158002857Y-132461142D01*
X157288571Y-132461142D01*
X157002857Y-132318285D01*
X156860000Y-132032571D01*
X156860000Y-131746857D01*
X157002857Y-131461142D01*
X157288571Y-131318285D01*
X158002857Y-131318285D01*
X158288571Y-131175428D01*
X160145714Y-132461142D02*
X159860000Y-132318285D01*
X159717142Y-132032571D01*
X159717142Y-129461142D01*
X144574285Y-137461142D02*
X143574285Y-136032571D01*
X142860000Y-137461142D02*
X142860000Y-134461142D01*
X144002857Y-134461142D01*
X144288571Y-134604000D01*
X144431428Y-134746857D01*
X144574285Y-135032571D01*
X144574285Y-135461142D01*
X144431428Y-135746857D01*
X144288571Y-135889714D01*
X144002857Y-136032571D01*
X142860000Y-136032571D01*
X147002857Y-137318285D02*
X146717142Y-137461142D01*
X146145714Y-137461142D01*
X145860000Y-137318285D01*
X145717142Y-137032571D01*
X145717142Y-135889714D01*
X145860000Y-135604000D01*
X146145714Y-135461142D01*
X146717142Y-135461142D01*
X147002857Y-135604000D01*
X147145714Y-135889714D01*
X147145714Y-136175428D01*
X145717142Y-136461142D01*
X148145714Y-135461142D02*
X148860000Y-137461142D01*
X149574285Y-135461142D01*
X151717142Y-135889714D02*
X152145714Y-136032571D01*
X152288571Y-136175428D01*
X152431428Y-136461142D01*
X152431428Y-136889714D01*
X152288571Y-137175428D01*
X152145714Y-137318285D01*
X151860000Y-137461142D01*
X150717142Y-137461142D01*
X150717142Y-134461142D01*
X151717142Y-134461142D01*
X152002857Y-134604000D01*
X152145714Y-134746857D01*
X152288571Y-135032571D01*
X152288571Y-135318285D01*
X152145714Y-135604000D01*
X152002857Y-135746857D01*
X151717142Y-135889714D01*
X150717142Y-135889714D01*
D11*
X115035000Y-115316000D02*
G75*
G03*
X115035000Y-115316000I-100000J0D01*
G01*
X180122500Y-122364500D02*
G75*
G03*
X180122500Y-122364500I-100000J0D01*
G01*
X150976000Y-76454000D02*
G75*
G03*
X150976000Y-76454000I-100000J0D01*
G01*
X142086000Y-92329000D02*
G75*
G03*
X142086000Y-92329000I-100000J0D01*
G01*
D10*
%TO.C,J6*%
X174244000Y-64185800D02*
X174244000Y-70078600D01*
X186029600Y-70078600D02*
X174244000Y-70078600D01*
X186029600Y-64185800D02*
X186029600Y-70078600D01*
%TO.C,J7*%
X171012000Y-55315000D02*
X173412000Y-55315000D01*
X173412000Y-55315000D02*
X173412000Y-57715000D01*
X173412000Y-57715000D02*
X171012000Y-57715000D01*
X171012000Y-57715000D02*
X171012000Y-55315000D01*
%TO.C,U7*%
X143226000Y-94138000D02*
X141886000Y-94138000D01*
X143226000Y-93188000D02*
X143226000Y-94138000D01*
X144176000Y-93188000D02*
X143226000Y-93188000D01*
X153446000Y-93188000D02*
X153446000Y-94138000D01*
X152496000Y-93188000D02*
X153446000Y-93188000D01*
X143226000Y-103408000D02*
X143226000Y-102458000D01*
X144176000Y-103408000D02*
X143226000Y-103408000D01*
X153446000Y-103408000D02*
X153446000Y-102458000D01*
X152496000Y-103408000D02*
X153446000Y-103408000D01*
%TO.C,U4*%
X101275000Y-86870000D02*
X101275000Y-88330000D01*
X98115000Y-86870000D02*
X98115000Y-89030000D01*
X98115000Y-86870000D02*
X99045000Y-86870000D01*
X101275000Y-86870000D02*
X100345000Y-86870000D01*
%TO.C,C24*%
X105050000Y-88232064D02*
X105050000Y-87027936D01*
X103230000Y-88232064D02*
X103230000Y-87027936D01*
%TO.C,C23*%
X94340000Y-87027936D02*
X94340000Y-88232064D01*
X96160000Y-87027936D02*
X96160000Y-88232064D01*
%TO.C,U5*%
X110835000Y-68345000D02*
X116845000Y-68345000D01*
X113085000Y-75165000D02*
X116845000Y-75165000D01*
X116845000Y-68345000D02*
X116845000Y-69605000D01*
X116845000Y-75165000D02*
X116845000Y-73905000D01*
%TO.C,LED1*%
X129519000Y-93428500D02*
X129984000Y-93428500D01*
X132144000Y-93428500D02*
X132609000Y-93428500D01*
X132144429Y-88614021D02*
G75*
G02*
X132144000Y-93123184I-1080429J-2254479D01*
G01*
X129983571Y-88614021D02*
G75*
G03*
X129984000Y-93123184I1080429J-2254479D01*
G01*
X132144827Y-88080685D02*
G75*
G02*
X132608830Y-93428500I-1080827J-2787815D01*
G01*
X129983173Y-88080685D02*
G75*
G03*
X129519170Y-93428500I1080827J-2787815D01*
G01*
%TO.C,LED2*%
X167661000Y-88308500D02*
X167196000Y-88308500D01*
X165036000Y-88308500D02*
X164571000Y-88308500D01*
X165035571Y-93122979D02*
G75*
G02*
X165036000Y-88613816I1080429J2254479D01*
G01*
X167196429Y-93122979D02*
G75*
G03*
X167196000Y-88613816I-1080429J2254479D01*
G01*
X165035173Y-93656315D02*
G75*
G02*
X164571170Y-88308500I1080827J2787815D01*
G01*
X167196827Y-93656315D02*
G75*
G03*
X167660830Y-88308500I-1080827J2787815D01*
G01*
%TO.C,J3*%
X145166000Y-80759000D02*
X145101000Y-80759000D01*
X145166000Y-77229000D02*
X145101000Y-77229000D01*
X151571000Y-80759000D02*
X151506000Y-80759000D01*
X151571000Y-77229000D02*
X151506000Y-77229000D01*
X151506000Y-75904000D02*
X151506000Y-77229000D01*
X145101000Y-77229000D02*
X145101000Y-80759000D01*
X151571000Y-77229000D02*
X151571000Y-80759000D01*
%TO.C,U6*%
X180075000Y-116037000D02*
X182525000Y-116037000D01*
X181875000Y-112817000D02*
X180075000Y-112817000D01*
D13*
%TO.C,U3*%
X112750000Y-115750000D02*
X113825000Y-115750000D01*
X112750000Y-112675000D02*
X109500000Y-112675000D01*
X112750000Y-115925000D02*
X109500000Y-115925000D01*
X112750000Y-112675000D02*
X112750000Y-112950000D01*
X109500000Y-112675000D02*
X109500000Y-112950000D01*
X109500000Y-115925000D02*
X109500000Y-115650000D01*
X112750000Y-115925000D02*
X112750000Y-115750000D01*
D10*
%TO.C,U2*%
X196872500Y-123667500D02*
X196872500Y-121217500D01*
X193652500Y-121867500D02*
X193652500Y-123667500D01*
D13*
%TO.C,U1*%
X182334500Y-121930500D02*
X181259500Y-121930500D01*
X182334500Y-125005500D02*
X185584500Y-125005500D01*
X182334500Y-121755500D02*
X185584500Y-121755500D01*
X182334500Y-125005500D02*
X182334500Y-124730500D01*
X185584500Y-125005500D02*
X185584500Y-124730500D01*
X185584500Y-121755500D02*
X185584500Y-122030500D01*
X182334500Y-121755500D02*
X182334500Y-121930500D01*
%TO.C,SW4*%
X125773000Y-59182000D02*
X139997000Y-59182000D01*
X139997000Y-65786000D02*
X125773000Y-65786000D01*
X126789000Y-65532000D02*
X126789000Y-59436000D01*
X139235000Y-65532000D02*
X139235000Y-59436000D01*
%TO.C,SW3*%
X157653000Y-59182000D02*
X171877000Y-59182000D01*
X171877000Y-65786000D02*
X157653000Y-65786000D01*
X158669000Y-65532000D02*
X158669000Y-59436000D01*
X171115000Y-65532000D02*
X171115000Y-59436000D01*
D10*
%TO.C,SW2*%
X164278000Y-102108000D02*
X164278000Y-100778000D01*
X164278000Y-100778000D02*
X165608000Y-100778000D01*
X166878000Y-100778000D02*
X169478000Y-100778000D01*
X169478000Y-103438000D02*
X169478000Y-100778000D01*
X166878000Y-103438000D02*
X169478000Y-103438000D01*
X166878000Y-103438000D02*
X166878000Y-100778000D01*
%TO.C,SW1*%
X127321000Y-102108000D02*
X127321000Y-100778000D01*
X127321000Y-100778000D02*
X128651000Y-100778000D01*
X129921000Y-100778000D02*
X132521000Y-100778000D01*
X132521000Y-103438000D02*
X132521000Y-100778000D01*
X129921000Y-103438000D02*
X132521000Y-103438000D01*
X129921000Y-103438000D02*
X129921000Y-100778000D01*
%TO.C,RV2*%
X125706000Y-81822000D02*
X125706000Y-69482000D01*
X137296000Y-72282000D02*
X137296000Y-69482000D01*
X137296000Y-74781000D02*
X137296000Y-74022000D01*
X137296000Y-77281000D02*
X137296000Y-76522000D01*
X137296000Y-81822000D02*
X137296000Y-79023000D01*
X128721000Y-69482000D02*
X125706000Y-69482000D01*
X137296000Y-69482000D02*
X132630000Y-69482000D01*
X128721000Y-81822000D02*
X125706000Y-81822000D01*
X137296000Y-81822000D02*
X132630000Y-81822000D01*
%TO.C,RV1*%
X171474000Y-69562000D02*
X171474000Y-81902000D01*
X159884000Y-79102000D02*
X159884000Y-81902000D01*
X159884000Y-76603000D02*
X159884000Y-77362000D01*
X159884000Y-74103000D02*
X159884000Y-74862000D01*
X159884000Y-69562000D02*
X159884000Y-72361000D01*
X168459000Y-81902000D02*
X171474000Y-81902000D01*
X159884000Y-81902000D02*
X164550000Y-81902000D01*
X168459000Y-69562000D02*
X171474000Y-69562000D01*
X159884000Y-69562000D02*
X164550000Y-69562000D01*
%TO.C,R22*%
X160453000Y-92702748D02*
X160453000Y-93225252D01*
X161873000Y-92702748D02*
X161873000Y-93225252D01*
%TO.C,R21*%
X172077748Y-94817000D02*
X172600252Y-94817000D01*
X172077748Y-93397000D02*
X172600252Y-93397000D01*
%TO.C,R20*%
X172077748Y-88340000D02*
X172600252Y-88340000D01*
X172077748Y-86920000D02*
X172600252Y-86920000D01*
%TO.C,R19*%
X125483252Y-87301000D02*
X124960748Y-87301000D01*
X125483252Y-88721000D02*
X124960748Y-88721000D01*
%TO.C,R18*%
X125483252Y-90349000D02*
X124960748Y-90349000D01*
X125483252Y-91769000D02*
X124960748Y-91769000D01*
%TO.C,R17*%
X125483252Y-93397000D02*
X124960748Y-93397000D01*
X125483252Y-94817000D02*
X124960748Y-94817000D01*
%TO.C,R16*%
X142546000Y-62095748D02*
X142546000Y-62618252D01*
X143966000Y-62095748D02*
X143966000Y-62618252D01*
%TO.C,R15*%
X153595000Y-62095748D02*
X153595000Y-62618252D01*
X155015000Y-62095748D02*
X155015000Y-62618252D01*
%TO.C,R14*%
X141807000Y-76461252D02*
X141807000Y-75938748D01*
X140387000Y-76461252D02*
X140387000Y-75938748D01*
%TO.C,R13*%
X156666000Y-76461252D02*
X156666000Y-75938748D01*
X155246000Y-76461252D02*
X155246000Y-75938748D01*
%TO.C,R12*%
X140387000Y-80510748D02*
X140387000Y-81033252D01*
X141807000Y-80510748D02*
X141807000Y-81033252D01*
%TO.C,R11*%
X156666000Y-71889252D02*
X156666000Y-71366748D01*
X155246000Y-71889252D02*
X155246000Y-71366748D01*
%TO.C,R10*%
X161028748Y-102945000D02*
X161551252Y-102945000D01*
X161028748Y-101525000D02*
X161551252Y-101525000D01*
%TO.C,R9*%
X129913748Y-99516000D02*
X130436252Y-99516000D01*
X129913748Y-98096000D02*
X130436252Y-98096000D01*
%TO.C,R8*%
X180138000Y-108069748D02*
X180138000Y-108592252D01*
X181558000Y-108069748D02*
X181558000Y-108592252D01*
%TO.C,R7*%
X111050000Y-124198748D02*
X111050000Y-124721252D01*
X112470000Y-124198748D02*
X112470000Y-124721252D01*
%TO.C,R6*%
X98350000Y-119118748D02*
X98350000Y-119641252D01*
X99770000Y-119118748D02*
X99770000Y-119641252D01*
%TO.C,R5*%
X104850000Y-114561252D02*
X104850000Y-114038748D01*
X103430000Y-114561252D02*
X103430000Y-114038748D01*
%TO.C,R4*%
X193491752Y-112129500D02*
X192969248Y-112129500D01*
X193491752Y-113549500D02*
X192969248Y-113549500D01*
%TO.C,R3*%
X195001248Y-127265500D02*
X195523752Y-127265500D01*
X195001248Y-125845500D02*
X195523752Y-125845500D01*
%TO.C,R2*%
X188075500Y-112578248D02*
X188075500Y-113100752D01*
X189495500Y-112578248D02*
X189495500Y-113100752D01*
%TO.C,R1*%
X186320500Y-113100752D02*
X186320500Y-112578248D01*
X184900500Y-113100752D02*
X184900500Y-112578248D01*
%TO.C,FB2*%
X107240000Y-119118748D02*
X107240000Y-119641252D01*
X108660000Y-119118748D02*
X108660000Y-119641252D01*
%TO.C,FB1*%
X197936752Y-115304500D02*
X197414248Y-115304500D01*
X197936752Y-116724500D02*
X197414248Y-116724500D01*
%TO.C,D1*%
X104181000Y-70469000D02*
X100331000Y-70469000D01*
X104181000Y-68469000D02*
X100331000Y-68469000D01*
X104181000Y-70469000D02*
X104181000Y-68469000D01*
%TO.C,C33*%
X154611000Y-90162748D02*
X154611000Y-90685252D01*
X156031000Y-90162748D02*
X156031000Y-90685252D01*
%TO.C,C32*%
X141807000Y-71889252D02*
X141807000Y-71366748D01*
X140387000Y-71889252D02*
X140387000Y-71366748D01*
%TO.C,C31*%
X156666000Y-81033252D02*
X156666000Y-80510748D01*
X155246000Y-81033252D02*
X155246000Y-80510748D01*
%TO.C,C30*%
X180138000Y-104005748D02*
X180138000Y-104528252D01*
X181558000Y-104005748D02*
X181558000Y-104528252D01*
%TO.C,C29*%
X112681936Y-87651000D02*
X113886064Y-87651000D01*
X112681936Y-85831000D02*
X113886064Y-85831000D01*
%TO.C,C28*%
X112808936Y-58949000D02*
X114013064Y-58949000D01*
X112808936Y-57129000D02*
X114013064Y-57129000D01*
%TO.C,C22*%
X152094000Y-108211252D02*
X152094000Y-107688748D01*
X150674000Y-108211252D02*
X150674000Y-107688748D01*
%TO.C,C21*%
X147268000Y-88399252D02*
X147268000Y-87876748D01*
X145848000Y-88399252D02*
X145848000Y-87876748D01*
%TO.C,C20*%
X144832000Y-107688748D02*
X144832000Y-108211252D01*
X146252000Y-107688748D02*
X146252000Y-108211252D01*
%TO.C,C19*%
X152706000Y-107688748D02*
X152706000Y-108211252D01*
X154126000Y-107688748D02*
X154126000Y-108211252D01*
%TO.C,C18*%
X144728000Y-88399252D02*
X144728000Y-87876748D01*
X143308000Y-88399252D02*
X143308000Y-87876748D01*
%TO.C,C17*%
X114860000Y-119118748D02*
X114860000Y-119641252D01*
X116280000Y-119118748D02*
X116280000Y-119641252D01*
%TO.C,C16*%
X111050000Y-119118748D02*
X111050000Y-119641252D01*
X112470000Y-119118748D02*
X112470000Y-119641252D01*
%TO.C,C15*%
X107240000Y-124198748D02*
X107240000Y-124721252D01*
X108660000Y-124198748D02*
X108660000Y-124721252D01*
%TO.C,C14*%
X98350000Y-114038748D02*
X98350000Y-114561252D01*
X99770000Y-114038748D02*
X99770000Y-114561252D01*
%TO.C,C12*%
X103430000Y-119118748D02*
X103430000Y-119641252D01*
X104850000Y-119118748D02*
X104850000Y-119641252D01*
%TO.C,C9*%
X197936752Y-108954500D02*
X197414248Y-108954500D01*
X197936752Y-110374500D02*
X197414248Y-110374500D01*
%TO.C,C8*%
X197936752Y-112129500D02*
X197414248Y-112129500D01*
X197936752Y-113549500D02*
X197414248Y-113549500D01*
%TO.C,C7*%
X193491752Y-115304500D02*
X192969248Y-115304500D01*
X193491752Y-116724500D02*
X192969248Y-116724500D01*
%TO.C,C6*%
X198997500Y-122230248D02*
X198997500Y-122752752D01*
X200417500Y-122230248D02*
X200417500Y-122752752D01*
%TO.C,C5*%
X188075500Y-117658248D02*
X188075500Y-118180752D01*
X189495500Y-117658248D02*
X189495500Y-118180752D01*
%TO.C,C4*%
X186320500Y-118180752D02*
X186320500Y-117658248D01*
X184900500Y-118180752D02*
X184900500Y-117658248D01*
%TO.C,C3*%
X179566500Y-127691248D02*
X179566500Y-128213752D01*
X180986500Y-127691248D02*
X180986500Y-128213752D01*
%TO.C,J6*%
D13*
X180133666Y-74636380D02*
X180133666Y-75350666D01*
X180086047Y-75493523D01*
X179990809Y-75588761D01*
X179847952Y-75636380D01*
X179752714Y-75636380D01*
X181038428Y-74636380D02*
X180847952Y-74636380D01*
X180752714Y-74684000D01*
X180705095Y-74731619D01*
X180609857Y-74874476D01*
X180562238Y-75064952D01*
X180562238Y-75445904D01*
X180609857Y-75541142D01*
X180657476Y-75588761D01*
X180752714Y-75636380D01*
X180943190Y-75636380D01*
X181038428Y-75588761D01*
X181086047Y-75541142D01*
X181133666Y-75445904D01*
X181133666Y-75207809D01*
X181086047Y-75112571D01*
X181038428Y-75064952D01*
X180943190Y-75017333D01*
X180752714Y-75017333D01*
X180657476Y-75064952D01*
X180609857Y-75112571D01*
X180562238Y-75207809D01*
X177371714Y-57427761D02*
X177514571Y-57475380D01*
X177752666Y-57475380D01*
X177847904Y-57427761D01*
X177895523Y-57380142D01*
X177943142Y-57284904D01*
X177943142Y-57189666D01*
X177895523Y-57094428D01*
X177847904Y-57046809D01*
X177752666Y-56999190D01*
X177562190Y-56951571D01*
X177466952Y-56903952D01*
X177419333Y-56856333D01*
X177371714Y-56761095D01*
X177371714Y-56665857D01*
X177419333Y-56570619D01*
X177466952Y-56523000D01*
X177562190Y-56475380D01*
X177800285Y-56475380D01*
X177943142Y-56523000D01*
X178371714Y-57475380D02*
X178371714Y-56475380D01*
X178609809Y-56475380D01*
X178752666Y-56523000D01*
X178847904Y-56618238D01*
X178895523Y-56713476D01*
X178943142Y-56903952D01*
X178943142Y-57046809D01*
X178895523Y-57237285D01*
X178847904Y-57332523D01*
X178752666Y-57427761D01*
X178609809Y-57475380D01*
X178371714Y-57475380D01*
X179943142Y-57380142D02*
X179895523Y-57427761D01*
X179752666Y-57475380D01*
X179657428Y-57475380D01*
X179514571Y-57427761D01*
X179419333Y-57332523D01*
X179371714Y-57237285D01*
X179324095Y-57046809D01*
X179324095Y-56903952D01*
X179371714Y-56713476D01*
X179419333Y-56618238D01*
X179514571Y-56523000D01*
X179657428Y-56475380D01*
X179752666Y-56475380D01*
X179895523Y-56523000D01*
X179943142Y-56570619D01*
X180324095Y-57189666D02*
X180800285Y-57189666D01*
X180228857Y-57475380D02*
X180562190Y-56475380D01*
X180895523Y-57475380D01*
X181800285Y-57475380D02*
X181466952Y-56999190D01*
X181228857Y-57475380D02*
X181228857Y-56475380D01*
X181609809Y-56475380D01*
X181705047Y-56523000D01*
X181752666Y-56570619D01*
X181800285Y-56665857D01*
X181800285Y-56808714D01*
X181752666Y-56903952D01*
X181705047Y-56951571D01*
X181609809Y-56999190D01*
X181228857Y-56999190D01*
X182228857Y-57475380D02*
X182228857Y-56475380D01*
X182466952Y-56475380D01*
X182609809Y-56523000D01*
X182705047Y-56618238D01*
X182752666Y-56713476D01*
X182800285Y-56903952D01*
X182800285Y-57046809D01*
X182752666Y-57237285D01*
X182705047Y-57332523D01*
X182609809Y-57427761D01*
X182466952Y-57475380D01*
X182228857Y-57475380D01*
%TO.C,J7*%
X169211666Y-55840380D02*
X169211666Y-56554666D01*
X169164047Y-56697523D01*
X169068809Y-56792761D01*
X168925952Y-56840380D01*
X168830714Y-56840380D01*
X169592619Y-55840380D02*
X170259285Y-55840380D01*
X169830714Y-56840380D01*
%TO.C,U7*%
X147574095Y-90350380D02*
X147574095Y-91159904D01*
X147621714Y-91255142D01*
X147669333Y-91302761D01*
X147764571Y-91350380D01*
X147955047Y-91350380D01*
X148050285Y-91302761D01*
X148097904Y-91255142D01*
X148145523Y-91159904D01*
X148145523Y-90350380D01*
X148526476Y-90350380D02*
X149193142Y-90350380D01*
X148764571Y-91350380D01*
%TO.C,U4*%
X98933095Y-83907380D02*
X98933095Y-84716904D01*
X98980714Y-84812142D01*
X99028333Y-84859761D01*
X99123571Y-84907380D01*
X99314047Y-84907380D01*
X99409285Y-84859761D01*
X99456904Y-84812142D01*
X99504523Y-84716904D01*
X99504523Y-83907380D01*
X100409285Y-84240714D02*
X100409285Y-84907380D01*
X100171190Y-83859761D02*
X99933095Y-84574047D01*
X100552142Y-84574047D01*
%TO.C,C24*%
X103497142Y-84812142D02*
X103449523Y-84859761D01*
X103306666Y-84907380D01*
X103211428Y-84907380D01*
X103068571Y-84859761D01*
X102973333Y-84764523D01*
X102925714Y-84669285D01*
X102878095Y-84478809D01*
X102878095Y-84335952D01*
X102925714Y-84145476D01*
X102973333Y-84050238D01*
X103068571Y-83955000D01*
X103211428Y-83907380D01*
X103306666Y-83907380D01*
X103449523Y-83955000D01*
X103497142Y-84002619D01*
X103878095Y-84002619D02*
X103925714Y-83955000D01*
X104020952Y-83907380D01*
X104259047Y-83907380D01*
X104354285Y-83955000D01*
X104401904Y-84002619D01*
X104449523Y-84097857D01*
X104449523Y-84193095D01*
X104401904Y-84335952D01*
X103830476Y-84907380D01*
X104449523Y-84907380D01*
X105306666Y-84240714D02*
X105306666Y-84907380D01*
X105068571Y-83859761D02*
X104830476Y-84574047D01*
X105449523Y-84574047D01*
%TO.C,C23*%
X94607142Y-84812142D02*
X94559523Y-84859761D01*
X94416666Y-84907380D01*
X94321428Y-84907380D01*
X94178571Y-84859761D01*
X94083333Y-84764523D01*
X94035714Y-84669285D01*
X93988095Y-84478809D01*
X93988095Y-84335952D01*
X94035714Y-84145476D01*
X94083333Y-84050238D01*
X94178571Y-83955000D01*
X94321428Y-83907380D01*
X94416666Y-83907380D01*
X94559523Y-83955000D01*
X94607142Y-84002619D01*
X94988095Y-84002619D02*
X95035714Y-83955000D01*
X95130952Y-83907380D01*
X95369047Y-83907380D01*
X95464285Y-83955000D01*
X95511904Y-84002619D01*
X95559523Y-84097857D01*
X95559523Y-84193095D01*
X95511904Y-84335952D01*
X94940476Y-84907380D01*
X95559523Y-84907380D01*
X95892857Y-83907380D02*
X96511904Y-83907380D01*
X96178571Y-84288333D01*
X96321428Y-84288333D01*
X96416666Y-84335952D01*
X96464285Y-84383571D01*
X96511904Y-84478809D01*
X96511904Y-84716904D01*
X96464285Y-84812142D01*
X96416666Y-84859761D01*
X96321428Y-84907380D01*
X96035714Y-84907380D01*
X95940476Y-84859761D01*
X95892857Y-84812142D01*
%TO.C,U5*%
X114173095Y-66707380D02*
X114173095Y-67516904D01*
X114220714Y-67612142D01*
X114268333Y-67659761D01*
X114363571Y-67707380D01*
X114554047Y-67707380D01*
X114649285Y-67659761D01*
X114696904Y-67612142D01*
X114744523Y-67516904D01*
X114744523Y-66707380D01*
X115696904Y-66707380D02*
X115220714Y-66707380D01*
X115173095Y-67183571D01*
X115220714Y-67135952D01*
X115315952Y-67088333D01*
X115554047Y-67088333D01*
X115649285Y-67135952D01*
X115696904Y-67183571D01*
X115744523Y-67278809D01*
X115744523Y-67516904D01*
X115696904Y-67612142D01*
X115649285Y-67659761D01*
X115554047Y-67707380D01*
X115315952Y-67707380D01*
X115220714Y-67659761D01*
X115173095Y-67612142D01*
%TO.C,LED1*%
X130198952Y-85923380D02*
X129722761Y-85923380D01*
X129722761Y-84923380D01*
X130532285Y-85399571D02*
X130865619Y-85399571D01*
X131008476Y-85923380D02*
X130532285Y-85923380D01*
X130532285Y-84923380D01*
X131008476Y-84923380D01*
X131437047Y-85923380D02*
X131437047Y-84923380D01*
X131675142Y-84923380D01*
X131818000Y-84971000D01*
X131913238Y-85066238D01*
X131960857Y-85161476D01*
X132008476Y-85351952D01*
X132008476Y-85494809D01*
X131960857Y-85685285D01*
X131913238Y-85780523D01*
X131818000Y-85875761D01*
X131675142Y-85923380D01*
X131437047Y-85923380D01*
X132960857Y-85923380D02*
X132389428Y-85923380D01*
X132675142Y-85923380D02*
X132675142Y-84923380D01*
X132579904Y-85066238D01*
X132484666Y-85161476D01*
X132389428Y-85209095D01*
%TO.C,LED2*%
X164996952Y-85923380D02*
X164520761Y-85923380D01*
X164520761Y-84923380D01*
X165330285Y-85399571D02*
X165663619Y-85399571D01*
X165806476Y-85923380D02*
X165330285Y-85923380D01*
X165330285Y-84923380D01*
X165806476Y-84923380D01*
X166235047Y-85923380D02*
X166235047Y-84923380D01*
X166473142Y-84923380D01*
X166616000Y-84971000D01*
X166711238Y-85066238D01*
X166758857Y-85161476D01*
X166806476Y-85351952D01*
X166806476Y-85494809D01*
X166758857Y-85685285D01*
X166711238Y-85780523D01*
X166616000Y-85875761D01*
X166473142Y-85923380D01*
X166235047Y-85923380D01*
X167187428Y-85018619D02*
X167235047Y-84971000D01*
X167330285Y-84923380D01*
X167568380Y-84923380D01*
X167663619Y-84971000D01*
X167711238Y-85018619D01*
X167758857Y-85113857D01*
X167758857Y-85209095D01*
X167711238Y-85351952D01*
X167139809Y-85923380D01*
X167758857Y-85923380D01*
%TO.C,J3*%
X148002666Y-73366380D02*
X148002666Y-74080666D01*
X147955047Y-74223523D01*
X147859809Y-74318761D01*
X147716952Y-74366380D01*
X147621714Y-74366380D01*
X148383619Y-73366380D02*
X149002666Y-73366380D01*
X148669333Y-73747333D01*
X148812190Y-73747333D01*
X148907428Y-73794952D01*
X148955047Y-73842571D01*
X149002666Y-73937809D01*
X149002666Y-74175904D01*
X148955047Y-74271142D01*
X148907428Y-74318761D01*
X148812190Y-74366380D01*
X148526476Y-74366380D01*
X148431238Y-74318761D01*
X148383619Y-74271142D01*
%TO.C,U6*%
X180213095Y-116673380D02*
X180213095Y-117482904D01*
X180260714Y-117578142D01*
X180308333Y-117625761D01*
X180403571Y-117673380D01*
X180594047Y-117673380D01*
X180689285Y-117625761D01*
X180736904Y-117578142D01*
X180784523Y-117482904D01*
X180784523Y-116673380D01*
X181689285Y-116673380D02*
X181498809Y-116673380D01*
X181403571Y-116721000D01*
X181355952Y-116768619D01*
X181260714Y-116911476D01*
X181213095Y-117101952D01*
X181213095Y-117482904D01*
X181260714Y-117578142D01*
X181308333Y-117625761D01*
X181403571Y-117673380D01*
X181594047Y-117673380D01*
X181689285Y-117625761D01*
X181736904Y-117578142D01*
X181784523Y-117482904D01*
X181784523Y-117244809D01*
X181736904Y-117149571D01*
X181689285Y-117101952D01*
X181594047Y-117054333D01*
X181403571Y-117054333D01*
X181308333Y-117101952D01*
X181260714Y-117149571D01*
X181213095Y-117244809D01*
%TO.C,U3*%
X110363095Y-111085380D02*
X110363095Y-111894904D01*
X110410714Y-111990142D01*
X110458333Y-112037761D01*
X110553571Y-112085380D01*
X110744047Y-112085380D01*
X110839285Y-112037761D01*
X110886904Y-111990142D01*
X110934523Y-111894904D01*
X110934523Y-111085380D01*
X111315476Y-111085380D02*
X111934523Y-111085380D01*
X111601190Y-111466333D01*
X111744047Y-111466333D01*
X111839285Y-111513952D01*
X111886904Y-111561571D01*
X111934523Y-111656809D01*
X111934523Y-111894904D01*
X111886904Y-111990142D01*
X111839285Y-112037761D01*
X111744047Y-112085380D01*
X111458333Y-112085380D01*
X111363095Y-112037761D01*
X111315476Y-111990142D01*
%TO.C,U2*%
X194373595Y-119149880D02*
X194373595Y-119959404D01*
X194421214Y-120054642D01*
X194468833Y-120102261D01*
X194564071Y-120149880D01*
X194754547Y-120149880D01*
X194849785Y-120102261D01*
X194897404Y-120054642D01*
X194945023Y-119959404D01*
X194945023Y-119149880D01*
X195373595Y-119245119D02*
X195421214Y-119197500D01*
X195516452Y-119149880D01*
X195754547Y-119149880D01*
X195849785Y-119197500D01*
X195897404Y-119245119D01*
X195945023Y-119340357D01*
X195945023Y-119435595D01*
X195897404Y-119578452D01*
X195325976Y-120149880D01*
X195945023Y-120149880D01*
%TO.C,U1*%
X183197595Y-125626880D02*
X183197595Y-126436404D01*
X183245214Y-126531642D01*
X183292833Y-126579261D01*
X183388071Y-126626880D01*
X183578547Y-126626880D01*
X183673785Y-126579261D01*
X183721404Y-126531642D01*
X183769023Y-126436404D01*
X183769023Y-125626880D01*
X184769023Y-126626880D02*
X184197595Y-126626880D01*
X184483309Y-126626880D02*
X184483309Y-125626880D01*
X184388071Y-125769738D01*
X184292833Y-125864976D01*
X184197595Y-125912595D01*
%TO.C,SW4*%
X131635666Y-58697761D02*
X131778523Y-58745380D01*
X132016619Y-58745380D01*
X132111857Y-58697761D01*
X132159476Y-58650142D01*
X132207095Y-58554904D01*
X132207095Y-58459666D01*
X132159476Y-58364428D01*
X132111857Y-58316809D01*
X132016619Y-58269190D01*
X131826142Y-58221571D01*
X131730904Y-58173952D01*
X131683285Y-58126333D01*
X131635666Y-58031095D01*
X131635666Y-57935857D01*
X131683285Y-57840619D01*
X131730904Y-57793000D01*
X131826142Y-57745380D01*
X132064238Y-57745380D01*
X132207095Y-57793000D01*
X132540428Y-57745380D02*
X132778523Y-58745380D01*
X132969000Y-58031095D01*
X133159476Y-58745380D01*
X133397571Y-57745380D01*
X134207095Y-58078714D02*
X134207095Y-58745380D01*
X133969000Y-57697761D02*
X133730904Y-58412047D01*
X134349952Y-58412047D01*
%TO.C,SW3*%
X164147666Y-58570761D02*
X164290523Y-58618380D01*
X164528619Y-58618380D01*
X164623857Y-58570761D01*
X164671476Y-58523142D01*
X164719095Y-58427904D01*
X164719095Y-58332666D01*
X164671476Y-58237428D01*
X164623857Y-58189809D01*
X164528619Y-58142190D01*
X164338142Y-58094571D01*
X164242904Y-58046952D01*
X164195285Y-57999333D01*
X164147666Y-57904095D01*
X164147666Y-57808857D01*
X164195285Y-57713619D01*
X164242904Y-57666000D01*
X164338142Y-57618380D01*
X164576238Y-57618380D01*
X164719095Y-57666000D01*
X165052428Y-57618380D02*
X165290523Y-58618380D01*
X165481000Y-57904095D01*
X165671476Y-58618380D01*
X165909571Y-57618380D01*
X166195285Y-57618380D02*
X166814333Y-57618380D01*
X166481000Y-57999333D01*
X166623857Y-57999333D01*
X166719095Y-58046952D01*
X166766714Y-58094571D01*
X166814333Y-58189809D01*
X166814333Y-58427904D01*
X166766714Y-58523142D01*
X166719095Y-58570761D01*
X166623857Y-58618380D01*
X166338142Y-58618380D01*
X166242904Y-58570761D01*
X166195285Y-58523142D01*
%TO.C,SW2*%
X170116666Y-102512761D02*
X170259523Y-102560380D01*
X170497619Y-102560380D01*
X170592857Y-102512761D01*
X170640476Y-102465142D01*
X170688095Y-102369904D01*
X170688095Y-102274666D01*
X170640476Y-102179428D01*
X170592857Y-102131809D01*
X170497619Y-102084190D01*
X170307142Y-102036571D01*
X170211904Y-101988952D01*
X170164285Y-101941333D01*
X170116666Y-101846095D01*
X170116666Y-101750857D01*
X170164285Y-101655619D01*
X170211904Y-101608000D01*
X170307142Y-101560380D01*
X170545238Y-101560380D01*
X170688095Y-101608000D01*
X171021428Y-101560380D02*
X171259523Y-102560380D01*
X171450000Y-101846095D01*
X171640476Y-102560380D01*
X171878571Y-101560380D01*
X172211904Y-101655619D02*
X172259523Y-101608000D01*
X172354761Y-101560380D01*
X172592857Y-101560380D01*
X172688095Y-101608000D01*
X172735714Y-101655619D01*
X172783333Y-101750857D01*
X172783333Y-101846095D01*
X172735714Y-101988952D01*
X172164285Y-102560380D01*
X172783333Y-102560380D01*
%TO.C,SW1*%
X123507666Y-102512761D02*
X123650523Y-102560380D01*
X123888619Y-102560380D01*
X123983857Y-102512761D01*
X124031476Y-102465142D01*
X124079095Y-102369904D01*
X124079095Y-102274666D01*
X124031476Y-102179428D01*
X123983857Y-102131809D01*
X123888619Y-102084190D01*
X123698142Y-102036571D01*
X123602904Y-101988952D01*
X123555285Y-101941333D01*
X123507666Y-101846095D01*
X123507666Y-101750857D01*
X123555285Y-101655619D01*
X123602904Y-101608000D01*
X123698142Y-101560380D01*
X123936238Y-101560380D01*
X124079095Y-101608000D01*
X124412428Y-101560380D02*
X124650523Y-102560380D01*
X124841000Y-101846095D01*
X125031476Y-102560380D01*
X125269571Y-101560380D01*
X126174333Y-102560380D02*
X125602904Y-102560380D01*
X125888619Y-102560380D02*
X125888619Y-101560380D01*
X125793380Y-101703238D01*
X125698142Y-101798476D01*
X125602904Y-101846095D01*
%TO.C,RV2*%
X131855761Y-68016380D02*
X131522428Y-67540190D01*
X131284333Y-68016380D02*
X131284333Y-67016380D01*
X131665285Y-67016380D01*
X131760523Y-67064000D01*
X131808142Y-67111619D01*
X131855761Y-67206857D01*
X131855761Y-67349714D01*
X131808142Y-67444952D01*
X131760523Y-67492571D01*
X131665285Y-67540190D01*
X131284333Y-67540190D01*
X132141476Y-67016380D02*
X132474809Y-68016380D01*
X132808142Y-67016380D01*
X133093857Y-67111619D02*
X133141476Y-67064000D01*
X133236714Y-67016380D01*
X133474809Y-67016380D01*
X133570047Y-67064000D01*
X133617666Y-67111619D01*
X133665285Y-67206857D01*
X133665285Y-67302095D01*
X133617666Y-67444952D01*
X133046238Y-68016380D01*
X133665285Y-68016380D01*
%TO.C,RV1*%
X158916761Y-68524380D02*
X158583428Y-68048190D01*
X158345333Y-68524380D02*
X158345333Y-67524380D01*
X158726285Y-67524380D01*
X158821523Y-67572000D01*
X158869142Y-67619619D01*
X158916761Y-67714857D01*
X158916761Y-67857714D01*
X158869142Y-67952952D01*
X158821523Y-68000571D01*
X158726285Y-68048190D01*
X158345333Y-68048190D01*
X159202476Y-67524380D02*
X159535809Y-68524380D01*
X159869142Y-67524380D01*
X160726285Y-68524380D02*
X160154857Y-68524380D01*
X160440571Y-68524380D02*
X160440571Y-67524380D01*
X160345333Y-67667238D01*
X160250095Y-67762476D01*
X160154857Y-67810095D01*
%TO.C,R22*%
X160012142Y-96337380D02*
X159678809Y-95861190D01*
X159440714Y-96337380D02*
X159440714Y-95337380D01*
X159821666Y-95337380D01*
X159916904Y-95385000D01*
X159964523Y-95432619D01*
X160012142Y-95527857D01*
X160012142Y-95670714D01*
X159964523Y-95765952D01*
X159916904Y-95813571D01*
X159821666Y-95861190D01*
X159440714Y-95861190D01*
X160393095Y-95432619D02*
X160440714Y-95385000D01*
X160535952Y-95337380D01*
X160774047Y-95337380D01*
X160869285Y-95385000D01*
X160916904Y-95432619D01*
X160964523Y-95527857D01*
X160964523Y-95623095D01*
X160916904Y-95765952D01*
X160345476Y-96337380D01*
X160964523Y-96337380D01*
X161345476Y-95432619D02*
X161393095Y-95385000D01*
X161488333Y-95337380D01*
X161726428Y-95337380D01*
X161821666Y-95385000D01*
X161869285Y-95432619D01*
X161916904Y-95527857D01*
X161916904Y-95623095D01*
X161869285Y-95765952D01*
X161297857Y-96337380D01*
X161916904Y-96337380D01*
%TO.C,R21*%
X175760142Y-94559380D02*
X175426809Y-94083190D01*
X175188714Y-94559380D02*
X175188714Y-93559380D01*
X175569666Y-93559380D01*
X175664904Y-93607000D01*
X175712523Y-93654619D01*
X175760142Y-93749857D01*
X175760142Y-93892714D01*
X175712523Y-93987952D01*
X175664904Y-94035571D01*
X175569666Y-94083190D01*
X175188714Y-94083190D01*
X176141095Y-93654619D02*
X176188714Y-93607000D01*
X176283952Y-93559380D01*
X176522047Y-93559380D01*
X176617285Y-93607000D01*
X176664904Y-93654619D01*
X176712523Y-93749857D01*
X176712523Y-93845095D01*
X176664904Y-93987952D01*
X176093476Y-94559380D01*
X176712523Y-94559380D01*
X177664904Y-94559380D02*
X177093476Y-94559380D01*
X177379190Y-94559380D02*
X177379190Y-93559380D01*
X177283952Y-93702238D01*
X177188714Y-93797476D01*
X177093476Y-93845095D01*
%TO.C,R20*%
X175760142Y-88082380D02*
X175426809Y-87606190D01*
X175188714Y-88082380D02*
X175188714Y-87082380D01*
X175569666Y-87082380D01*
X175664904Y-87130000D01*
X175712523Y-87177619D01*
X175760142Y-87272857D01*
X175760142Y-87415714D01*
X175712523Y-87510952D01*
X175664904Y-87558571D01*
X175569666Y-87606190D01*
X175188714Y-87606190D01*
X176141095Y-87177619D02*
X176188714Y-87130000D01*
X176283952Y-87082380D01*
X176522047Y-87082380D01*
X176617285Y-87130000D01*
X176664904Y-87177619D01*
X176712523Y-87272857D01*
X176712523Y-87368095D01*
X176664904Y-87510952D01*
X176093476Y-88082380D01*
X176712523Y-88082380D01*
X177331571Y-87082380D02*
X177426809Y-87082380D01*
X177522047Y-87130000D01*
X177569666Y-87177619D01*
X177617285Y-87272857D01*
X177664904Y-87463333D01*
X177664904Y-87701428D01*
X177617285Y-87891904D01*
X177569666Y-87987142D01*
X177522047Y-88034761D01*
X177426809Y-88082380D01*
X177331571Y-88082380D01*
X177236333Y-88034761D01*
X177188714Y-87987142D01*
X177141095Y-87891904D01*
X177093476Y-87701428D01*
X177093476Y-87463333D01*
X177141095Y-87272857D01*
X177188714Y-87177619D01*
X177236333Y-87130000D01*
X177331571Y-87082380D01*
%TO.C,R19*%
X120769142Y-88463380D02*
X120435809Y-87987190D01*
X120197714Y-88463380D02*
X120197714Y-87463380D01*
X120578666Y-87463380D01*
X120673904Y-87511000D01*
X120721523Y-87558619D01*
X120769142Y-87653857D01*
X120769142Y-87796714D01*
X120721523Y-87891952D01*
X120673904Y-87939571D01*
X120578666Y-87987190D01*
X120197714Y-87987190D01*
X121721523Y-88463380D02*
X121150095Y-88463380D01*
X121435809Y-88463380D02*
X121435809Y-87463380D01*
X121340571Y-87606238D01*
X121245333Y-87701476D01*
X121150095Y-87749095D01*
X122197714Y-88463380D02*
X122388190Y-88463380D01*
X122483428Y-88415761D01*
X122531047Y-88368142D01*
X122626285Y-88225285D01*
X122673904Y-88034809D01*
X122673904Y-87653857D01*
X122626285Y-87558619D01*
X122578666Y-87511000D01*
X122483428Y-87463380D01*
X122292952Y-87463380D01*
X122197714Y-87511000D01*
X122150095Y-87558619D01*
X122102476Y-87653857D01*
X122102476Y-87891952D01*
X122150095Y-87987190D01*
X122197714Y-88034809D01*
X122292952Y-88082428D01*
X122483428Y-88082428D01*
X122578666Y-88034809D01*
X122626285Y-87987190D01*
X122673904Y-87891952D01*
%TO.C,R18*%
X120769142Y-91511380D02*
X120435809Y-91035190D01*
X120197714Y-91511380D02*
X120197714Y-90511380D01*
X120578666Y-90511380D01*
X120673904Y-90559000D01*
X120721523Y-90606619D01*
X120769142Y-90701857D01*
X120769142Y-90844714D01*
X120721523Y-90939952D01*
X120673904Y-90987571D01*
X120578666Y-91035190D01*
X120197714Y-91035190D01*
X121721523Y-91511380D02*
X121150095Y-91511380D01*
X121435809Y-91511380D02*
X121435809Y-90511380D01*
X121340571Y-90654238D01*
X121245333Y-90749476D01*
X121150095Y-90797095D01*
X122292952Y-90939952D02*
X122197714Y-90892333D01*
X122150095Y-90844714D01*
X122102476Y-90749476D01*
X122102476Y-90701857D01*
X122150095Y-90606619D01*
X122197714Y-90559000D01*
X122292952Y-90511380D01*
X122483428Y-90511380D01*
X122578666Y-90559000D01*
X122626285Y-90606619D01*
X122673904Y-90701857D01*
X122673904Y-90749476D01*
X122626285Y-90844714D01*
X122578666Y-90892333D01*
X122483428Y-90939952D01*
X122292952Y-90939952D01*
X122197714Y-90987571D01*
X122150095Y-91035190D01*
X122102476Y-91130428D01*
X122102476Y-91320904D01*
X122150095Y-91416142D01*
X122197714Y-91463761D01*
X122292952Y-91511380D01*
X122483428Y-91511380D01*
X122578666Y-91463761D01*
X122626285Y-91416142D01*
X122673904Y-91320904D01*
X122673904Y-91130428D01*
X122626285Y-91035190D01*
X122578666Y-90987571D01*
X122483428Y-90939952D01*
%TO.C,R17*%
X120769142Y-94559380D02*
X120435809Y-94083190D01*
X120197714Y-94559380D02*
X120197714Y-93559380D01*
X120578666Y-93559380D01*
X120673904Y-93607000D01*
X120721523Y-93654619D01*
X120769142Y-93749857D01*
X120769142Y-93892714D01*
X120721523Y-93987952D01*
X120673904Y-94035571D01*
X120578666Y-94083190D01*
X120197714Y-94083190D01*
X121721523Y-94559380D02*
X121150095Y-94559380D01*
X121435809Y-94559380D02*
X121435809Y-93559380D01*
X121340571Y-93702238D01*
X121245333Y-93797476D01*
X121150095Y-93845095D01*
X122054857Y-93559380D02*
X122721523Y-93559380D01*
X122292952Y-94559380D01*
%TO.C,R16*%
X142613142Y-65730380D02*
X142279809Y-65254190D01*
X142041714Y-65730380D02*
X142041714Y-64730380D01*
X142422666Y-64730380D01*
X142517904Y-64778000D01*
X142565523Y-64825619D01*
X142613142Y-64920857D01*
X142613142Y-65063714D01*
X142565523Y-65158952D01*
X142517904Y-65206571D01*
X142422666Y-65254190D01*
X142041714Y-65254190D01*
X143565523Y-65730380D02*
X142994095Y-65730380D01*
X143279809Y-65730380D02*
X143279809Y-64730380D01*
X143184571Y-64873238D01*
X143089333Y-64968476D01*
X142994095Y-65016095D01*
X144422666Y-64730380D02*
X144232190Y-64730380D01*
X144136952Y-64778000D01*
X144089333Y-64825619D01*
X143994095Y-64968476D01*
X143946476Y-65158952D01*
X143946476Y-65539904D01*
X143994095Y-65635142D01*
X144041714Y-65682761D01*
X144136952Y-65730380D01*
X144327428Y-65730380D01*
X144422666Y-65682761D01*
X144470285Y-65635142D01*
X144517904Y-65539904D01*
X144517904Y-65301809D01*
X144470285Y-65206571D01*
X144422666Y-65158952D01*
X144327428Y-65111333D01*
X144136952Y-65111333D01*
X144041714Y-65158952D01*
X143994095Y-65206571D01*
X143946476Y-65301809D01*
%TO.C,R15*%
X153662142Y-65603380D02*
X153328809Y-65127190D01*
X153090714Y-65603380D02*
X153090714Y-64603380D01*
X153471666Y-64603380D01*
X153566904Y-64651000D01*
X153614523Y-64698619D01*
X153662142Y-64793857D01*
X153662142Y-64936714D01*
X153614523Y-65031952D01*
X153566904Y-65079571D01*
X153471666Y-65127190D01*
X153090714Y-65127190D01*
X154614523Y-65603380D02*
X154043095Y-65603380D01*
X154328809Y-65603380D02*
X154328809Y-64603380D01*
X154233571Y-64746238D01*
X154138333Y-64841476D01*
X154043095Y-64889095D01*
X155519285Y-64603380D02*
X155043095Y-64603380D01*
X154995476Y-65079571D01*
X155043095Y-65031952D01*
X155138333Y-64984333D01*
X155376428Y-64984333D01*
X155471666Y-65031952D01*
X155519285Y-65079571D01*
X155566904Y-65174809D01*
X155566904Y-65412904D01*
X155519285Y-65508142D01*
X155471666Y-65555761D01*
X155376428Y-65603380D01*
X155138333Y-65603380D01*
X155043095Y-65555761D01*
X154995476Y-65508142D01*
%TO.C,R14*%
X143200380Y-76842857D02*
X142724190Y-77176190D01*
X143200380Y-77414285D02*
X142200380Y-77414285D01*
X142200380Y-77033333D01*
X142248000Y-76938095D01*
X142295619Y-76890476D01*
X142390857Y-76842857D01*
X142533714Y-76842857D01*
X142628952Y-76890476D01*
X142676571Y-76938095D01*
X142724190Y-77033333D01*
X142724190Y-77414285D01*
X143200380Y-75890476D02*
X143200380Y-76461904D01*
X143200380Y-76176190D02*
X142200380Y-76176190D01*
X142343238Y-76271428D01*
X142438476Y-76366666D01*
X142486095Y-76461904D01*
X142533714Y-75033333D02*
X143200380Y-75033333D01*
X142152761Y-75271428D02*
X142867047Y-75509523D01*
X142867047Y-74890476D01*
%TO.C,R13*%
X154630380Y-76906357D02*
X154154190Y-77239690D01*
X154630380Y-77477785D02*
X153630380Y-77477785D01*
X153630380Y-77096833D01*
X153678000Y-77001595D01*
X153725619Y-76953976D01*
X153820857Y-76906357D01*
X153963714Y-76906357D01*
X154058952Y-76953976D01*
X154106571Y-77001595D01*
X154154190Y-77096833D01*
X154154190Y-77477785D01*
X154630380Y-75953976D02*
X154630380Y-76525404D01*
X154630380Y-76239690D02*
X153630380Y-76239690D01*
X153773238Y-76334928D01*
X153868476Y-76430166D01*
X153916095Y-76525404D01*
X153630380Y-75620642D02*
X153630380Y-75001595D01*
X154011333Y-75334928D01*
X154011333Y-75192071D01*
X154058952Y-75096833D01*
X154106571Y-75049214D01*
X154201809Y-75001595D01*
X154439904Y-75001595D01*
X154535142Y-75049214D01*
X154582761Y-75096833D01*
X154630380Y-75192071D01*
X154630380Y-75477785D01*
X154582761Y-75573023D01*
X154535142Y-75620642D01*
%TO.C,R12*%
X143200380Y-81414857D02*
X142724190Y-81748190D01*
X143200380Y-81986285D02*
X142200380Y-81986285D01*
X142200380Y-81605333D01*
X142248000Y-81510095D01*
X142295619Y-81462476D01*
X142390857Y-81414857D01*
X142533714Y-81414857D01*
X142628952Y-81462476D01*
X142676571Y-81510095D01*
X142724190Y-81605333D01*
X142724190Y-81986285D01*
X143200380Y-80462476D02*
X143200380Y-81033904D01*
X143200380Y-80748190D02*
X142200380Y-80748190D01*
X142343238Y-80843428D01*
X142438476Y-80938666D01*
X142486095Y-81033904D01*
X142295619Y-80081523D02*
X142248000Y-80033904D01*
X142200380Y-79938666D01*
X142200380Y-79700571D01*
X142248000Y-79605333D01*
X142295619Y-79557714D01*
X142390857Y-79510095D01*
X142486095Y-79510095D01*
X142628952Y-79557714D01*
X143200380Y-80129142D01*
X143200380Y-79510095D01*
%TO.C,R11*%
X154757380Y-72270857D02*
X154281190Y-72604190D01*
X154757380Y-72842285D02*
X153757380Y-72842285D01*
X153757380Y-72461333D01*
X153805000Y-72366095D01*
X153852619Y-72318476D01*
X153947857Y-72270857D01*
X154090714Y-72270857D01*
X154185952Y-72318476D01*
X154233571Y-72366095D01*
X154281190Y-72461333D01*
X154281190Y-72842285D01*
X154757380Y-71318476D02*
X154757380Y-71889904D01*
X154757380Y-71604190D02*
X153757380Y-71604190D01*
X153900238Y-71699428D01*
X153995476Y-71794666D01*
X154043095Y-71889904D01*
X154757380Y-70366095D02*
X154757380Y-70937523D01*
X154757380Y-70651809D02*
X153757380Y-70651809D01*
X153900238Y-70747047D01*
X153995476Y-70842285D01*
X154043095Y-70937523D01*
%TO.C,R10*%
X160647142Y-101037380D02*
X160313809Y-100561190D01*
X160075714Y-101037380D02*
X160075714Y-100037380D01*
X160456666Y-100037380D01*
X160551904Y-100085000D01*
X160599523Y-100132619D01*
X160647142Y-100227857D01*
X160647142Y-100370714D01*
X160599523Y-100465952D01*
X160551904Y-100513571D01*
X160456666Y-100561190D01*
X160075714Y-100561190D01*
X161599523Y-101037380D02*
X161028095Y-101037380D01*
X161313809Y-101037380D02*
X161313809Y-100037380D01*
X161218571Y-100180238D01*
X161123333Y-100275476D01*
X161028095Y-100323095D01*
X162218571Y-100037380D02*
X162313809Y-100037380D01*
X162409047Y-100085000D01*
X162456666Y-100132619D01*
X162504285Y-100227857D01*
X162551904Y-100418333D01*
X162551904Y-100656428D01*
X162504285Y-100846904D01*
X162456666Y-100942142D01*
X162409047Y-100989761D01*
X162313809Y-101037380D01*
X162218571Y-101037380D01*
X162123333Y-100989761D01*
X162075714Y-100942142D01*
X162028095Y-100846904D01*
X161980476Y-100656428D01*
X161980476Y-100418333D01*
X162028095Y-100227857D01*
X162075714Y-100132619D01*
X162123333Y-100085000D01*
X162218571Y-100037380D01*
%TO.C,R9*%
X130008333Y-97608380D02*
X129675000Y-97132190D01*
X129436904Y-97608380D02*
X129436904Y-96608380D01*
X129817857Y-96608380D01*
X129913095Y-96656000D01*
X129960714Y-96703619D01*
X130008333Y-96798857D01*
X130008333Y-96941714D01*
X129960714Y-97036952D01*
X129913095Y-97084571D01*
X129817857Y-97132190D01*
X129436904Y-97132190D01*
X130484523Y-97608380D02*
X130675000Y-97608380D01*
X130770238Y-97560761D01*
X130817857Y-97513142D01*
X130913095Y-97370285D01*
X130960714Y-97179809D01*
X130960714Y-96798857D01*
X130913095Y-96703619D01*
X130865476Y-96656000D01*
X130770238Y-96608380D01*
X130579761Y-96608380D01*
X130484523Y-96656000D01*
X130436904Y-96703619D01*
X130389285Y-96798857D01*
X130389285Y-97036952D01*
X130436904Y-97132190D01*
X130484523Y-97179809D01*
X130579761Y-97227428D01*
X130770238Y-97227428D01*
X130865476Y-97179809D01*
X130913095Y-97132190D01*
X130960714Y-97036952D01*
%TO.C,R8*%
X182840333Y-108783380D02*
X182507000Y-108307190D01*
X182268904Y-108783380D02*
X182268904Y-107783380D01*
X182649857Y-107783380D01*
X182745095Y-107831000D01*
X182792714Y-107878619D01*
X182840333Y-107973857D01*
X182840333Y-108116714D01*
X182792714Y-108211952D01*
X182745095Y-108259571D01*
X182649857Y-108307190D01*
X182268904Y-108307190D01*
X183411761Y-108211952D02*
X183316523Y-108164333D01*
X183268904Y-108116714D01*
X183221285Y-108021476D01*
X183221285Y-107973857D01*
X183268904Y-107878619D01*
X183316523Y-107831000D01*
X183411761Y-107783380D01*
X183602238Y-107783380D01*
X183697476Y-107831000D01*
X183745095Y-107878619D01*
X183792714Y-107973857D01*
X183792714Y-108021476D01*
X183745095Y-108116714D01*
X183697476Y-108164333D01*
X183602238Y-108211952D01*
X183411761Y-108211952D01*
X183316523Y-108259571D01*
X183268904Y-108307190D01*
X183221285Y-108402428D01*
X183221285Y-108592904D01*
X183268904Y-108688142D01*
X183316523Y-108735761D01*
X183411761Y-108783380D01*
X183602238Y-108783380D01*
X183697476Y-108735761D01*
X183745095Y-108688142D01*
X183792714Y-108592904D01*
X183792714Y-108402428D01*
X183745095Y-108307190D01*
X183697476Y-108259571D01*
X183602238Y-108211952D01*
%TO.C,R7*%
X111593333Y-127833380D02*
X111260000Y-127357190D01*
X111021904Y-127833380D02*
X111021904Y-126833380D01*
X111402857Y-126833380D01*
X111498095Y-126881000D01*
X111545714Y-126928619D01*
X111593333Y-127023857D01*
X111593333Y-127166714D01*
X111545714Y-127261952D01*
X111498095Y-127309571D01*
X111402857Y-127357190D01*
X111021904Y-127357190D01*
X111926666Y-126833380D02*
X112593333Y-126833380D01*
X112164761Y-127833380D01*
%TO.C,R6*%
X98893333Y-122499380D02*
X98560000Y-122023190D01*
X98321904Y-122499380D02*
X98321904Y-121499380D01*
X98702857Y-121499380D01*
X98798095Y-121547000D01*
X98845714Y-121594619D01*
X98893333Y-121689857D01*
X98893333Y-121832714D01*
X98845714Y-121927952D01*
X98798095Y-121975571D01*
X98702857Y-122023190D01*
X98321904Y-122023190D01*
X99750476Y-121499380D02*
X99560000Y-121499380D01*
X99464761Y-121547000D01*
X99417142Y-121594619D01*
X99321904Y-121737476D01*
X99274285Y-121927952D01*
X99274285Y-122308904D01*
X99321904Y-122404142D01*
X99369523Y-122451761D01*
X99464761Y-122499380D01*
X99655238Y-122499380D01*
X99750476Y-122451761D01*
X99798095Y-122404142D01*
X99845714Y-122308904D01*
X99845714Y-122070809D01*
X99798095Y-121975571D01*
X99750476Y-121927952D01*
X99655238Y-121880333D01*
X99464761Y-121880333D01*
X99369523Y-121927952D01*
X99321904Y-121975571D01*
X99274285Y-122070809D01*
%TO.C,R5*%
X103973333Y-111069380D02*
X103640000Y-110593190D01*
X103401904Y-111069380D02*
X103401904Y-110069380D01*
X103782857Y-110069380D01*
X103878095Y-110117000D01*
X103925714Y-110164619D01*
X103973333Y-110259857D01*
X103973333Y-110402714D01*
X103925714Y-110497952D01*
X103878095Y-110545571D01*
X103782857Y-110593190D01*
X103401904Y-110593190D01*
X104878095Y-110069380D02*
X104401904Y-110069380D01*
X104354285Y-110545571D01*
X104401904Y-110497952D01*
X104497142Y-110450333D01*
X104735238Y-110450333D01*
X104830476Y-110497952D01*
X104878095Y-110545571D01*
X104925714Y-110640809D01*
X104925714Y-110878904D01*
X104878095Y-110974142D01*
X104830476Y-111021761D01*
X104735238Y-111069380D01*
X104497142Y-111069380D01*
X104401904Y-111021761D01*
X104354285Y-110974142D01*
%TO.C,R4*%
X193063833Y-111640880D02*
X192730500Y-111164690D01*
X192492404Y-111640880D02*
X192492404Y-110640880D01*
X192873357Y-110640880D01*
X192968595Y-110688500D01*
X193016214Y-110736119D01*
X193063833Y-110831357D01*
X193063833Y-110974214D01*
X193016214Y-111069452D01*
X192968595Y-111117071D01*
X192873357Y-111164690D01*
X192492404Y-111164690D01*
X193920976Y-110974214D02*
X193920976Y-111640880D01*
X193682880Y-110593261D02*
X193444785Y-111307547D01*
X194063833Y-111307547D01*
%TO.C,R3*%
X195476833Y-128658880D02*
X195143500Y-128182690D01*
X194905404Y-128658880D02*
X194905404Y-127658880D01*
X195286357Y-127658880D01*
X195381595Y-127706500D01*
X195429214Y-127754119D01*
X195476833Y-127849357D01*
X195476833Y-127992214D01*
X195429214Y-128087452D01*
X195381595Y-128135071D01*
X195286357Y-128182690D01*
X194905404Y-128182690D01*
X195810166Y-127658880D02*
X196429214Y-127658880D01*
X196095880Y-128039833D01*
X196238738Y-128039833D01*
X196333976Y-128087452D01*
X196381595Y-128135071D01*
X196429214Y-128230309D01*
X196429214Y-128468404D01*
X196381595Y-128563642D01*
X196333976Y-128611261D01*
X196238738Y-128658880D01*
X195953023Y-128658880D01*
X195857785Y-128611261D01*
X195810166Y-128563642D01*
%TO.C,R2*%
X188618833Y-110751880D02*
X188285500Y-110275690D01*
X188047404Y-110751880D02*
X188047404Y-109751880D01*
X188428357Y-109751880D01*
X188523595Y-109799500D01*
X188571214Y-109847119D01*
X188618833Y-109942357D01*
X188618833Y-110085214D01*
X188571214Y-110180452D01*
X188523595Y-110228071D01*
X188428357Y-110275690D01*
X188047404Y-110275690D01*
X188999785Y-109847119D02*
X189047404Y-109799500D01*
X189142642Y-109751880D01*
X189380738Y-109751880D01*
X189475976Y-109799500D01*
X189523595Y-109847119D01*
X189571214Y-109942357D01*
X189571214Y-110037595D01*
X189523595Y-110180452D01*
X188952166Y-110751880D01*
X189571214Y-110751880D01*
%TO.C,R1*%
X185443833Y-110751880D02*
X185110500Y-110275690D01*
X184872404Y-110751880D02*
X184872404Y-109751880D01*
X185253357Y-109751880D01*
X185348595Y-109799500D01*
X185396214Y-109847119D01*
X185443833Y-109942357D01*
X185443833Y-110085214D01*
X185396214Y-110180452D01*
X185348595Y-110228071D01*
X185253357Y-110275690D01*
X184872404Y-110275690D01*
X186396214Y-110751880D02*
X185824785Y-110751880D01*
X186110500Y-110751880D02*
X186110500Y-109751880D01*
X186015261Y-109894738D01*
X185920023Y-109989976D01*
X185824785Y-110037595D01*
%TO.C,FB2*%
X106989666Y-116768571D02*
X106656333Y-116768571D01*
X106656333Y-117292380D02*
X106656333Y-116292380D01*
X107132523Y-116292380D01*
X107846809Y-116768571D02*
X107989666Y-116816190D01*
X108037285Y-116863809D01*
X108084904Y-116959047D01*
X108084904Y-117101904D01*
X108037285Y-117197142D01*
X107989666Y-117244761D01*
X107894428Y-117292380D01*
X107513476Y-117292380D01*
X107513476Y-116292380D01*
X107846809Y-116292380D01*
X107942047Y-116340000D01*
X107989666Y-116387619D01*
X108037285Y-116482857D01*
X108037285Y-116578095D01*
X107989666Y-116673333D01*
X107942047Y-116720952D01*
X107846809Y-116768571D01*
X107513476Y-116768571D01*
X108465857Y-116387619D02*
X108513476Y-116340000D01*
X108608714Y-116292380D01*
X108846809Y-116292380D01*
X108942047Y-116340000D01*
X108989666Y-116387619D01*
X109037285Y-116482857D01*
X109037285Y-116578095D01*
X108989666Y-116720952D01*
X108418238Y-117292380D01*
X109037285Y-117292380D01*
%TO.C,FB1*%
X200525166Y-115943071D02*
X200191833Y-115943071D01*
X200191833Y-116466880D02*
X200191833Y-115466880D01*
X200668023Y-115466880D01*
X201382309Y-115943071D02*
X201525166Y-115990690D01*
X201572785Y-116038309D01*
X201620404Y-116133547D01*
X201620404Y-116276404D01*
X201572785Y-116371642D01*
X201525166Y-116419261D01*
X201429928Y-116466880D01*
X201048976Y-116466880D01*
X201048976Y-115466880D01*
X201382309Y-115466880D01*
X201477547Y-115514500D01*
X201525166Y-115562119D01*
X201572785Y-115657357D01*
X201572785Y-115752595D01*
X201525166Y-115847833D01*
X201477547Y-115895452D01*
X201382309Y-115943071D01*
X201048976Y-115943071D01*
X202572785Y-116466880D02*
X202001357Y-116466880D01*
X202287071Y-116466880D02*
X202287071Y-115466880D01*
X202191833Y-115609738D01*
X202096595Y-115704976D01*
X202001357Y-115752595D01*
%TO.C,D1*%
X97432904Y-69921380D02*
X97432904Y-68921380D01*
X97671000Y-68921380D01*
X97813857Y-68969000D01*
X97909095Y-69064238D01*
X97956714Y-69159476D01*
X98004333Y-69349952D01*
X98004333Y-69492809D01*
X97956714Y-69683285D01*
X97909095Y-69778523D01*
X97813857Y-69873761D01*
X97671000Y-69921380D01*
X97432904Y-69921380D01*
X98956714Y-69921380D02*
X98385285Y-69921380D01*
X98671000Y-69921380D02*
X98671000Y-68921380D01*
X98575761Y-69064238D01*
X98480523Y-69159476D01*
X98385285Y-69207095D01*
%TO.C,C33*%
X154932142Y-87987142D02*
X154884523Y-88034761D01*
X154741666Y-88082380D01*
X154646428Y-88082380D01*
X154503571Y-88034761D01*
X154408333Y-87939523D01*
X154360714Y-87844285D01*
X154313095Y-87653809D01*
X154313095Y-87510952D01*
X154360714Y-87320476D01*
X154408333Y-87225238D01*
X154503571Y-87130000D01*
X154646428Y-87082380D01*
X154741666Y-87082380D01*
X154884523Y-87130000D01*
X154932142Y-87177619D01*
X155265476Y-87082380D02*
X155884523Y-87082380D01*
X155551190Y-87463333D01*
X155694047Y-87463333D01*
X155789285Y-87510952D01*
X155836904Y-87558571D01*
X155884523Y-87653809D01*
X155884523Y-87891904D01*
X155836904Y-87987142D01*
X155789285Y-88034761D01*
X155694047Y-88082380D01*
X155408333Y-88082380D01*
X155313095Y-88034761D01*
X155265476Y-87987142D01*
X156217857Y-87082380D02*
X156836904Y-87082380D01*
X156503571Y-87463333D01*
X156646428Y-87463333D01*
X156741666Y-87510952D01*
X156789285Y-87558571D01*
X156836904Y-87653809D01*
X156836904Y-87891904D01*
X156789285Y-87987142D01*
X156741666Y-88034761D01*
X156646428Y-88082380D01*
X156360714Y-88082380D01*
X156265476Y-88034761D01*
X156217857Y-87987142D01*
%TO.C,C32*%
X143105142Y-72270857D02*
X143152761Y-72318476D01*
X143200380Y-72461333D01*
X143200380Y-72556571D01*
X143152761Y-72699428D01*
X143057523Y-72794666D01*
X142962285Y-72842285D01*
X142771809Y-72889904D01*
X142628952Y-72889904D01*
X142438476Y-72842285D01*
X142343238Y-72794666D01*
X142248000Y-72699428D01*
X142200380Y-72556571D01*
X142200380Y-72461333D01*
X142248000Y-72318476D01*
X142295619Y-72270857D01*
X142200380Y-71937523D02*
X142200380Y-71318476D01*
X142581333Y-71651809D01*
X142581333Y-71508952D01*
X142628952Y-71413714D01*
X142676571Y-71366095D01*
X142771809Y-71318476D01*
X143009904Y-71318476D01*
X143105142Y-71366095D01*
X143152761Y-71413714D01*
X143200380Y-71508952D01*
X143200380Y-71794666D01*
X143152761Y-71889904D01*
X143105142Y-71937523D01*
X142295619Y-70937523D02*
X142248000Y-70889904D01*
X142200380Y-70794666D01*
X142200380Y-70556571D01*
X142248000Y-70461333D01*
X142295619Y-70413714D01*
X142390857Y-70366095D01*
X142486095Y-70366095D01*
X142628952Y-70413714D01*
X143200380Y-70985142D01*
X143200380Y-70366095D01*
%TO.C,C31*%
X154535142Y-81351357D02*
X154582761Y-81398976D01*
X154630380Y-81541833D01*
X154630380Y-81637071D01*
X154582761Y-81779928D01*
X154487523Y-81875166D01*
X154392285Y-81922785D01*
X154201809Y-81970404D01*
X154058952Y-81970404D01*
X153868476Y-81922785D01*
X153773238Y-81875166D01*
X153678000Y-81779928D01*
X153630380Y-81637071D01*
X153630380Y-81541833D01*
X153678000Y-81398976D01*
X153725619Y-81351357D01*
X153630380Y-81018023D02*
X153630380Y-80398976D01*
X154011333Y-80732309D01*
X154011333Y-80589452D01*
X154058952Y-80494214D01*
X154106571Y-80446595D01*
X154201809Y-80398976D01*
X154439904Y-80398976D01*
X154535142Y-80446595D01*
X154582761Y-80494214D01*
X154630380Y-80589452D01*
X154630380Y-80875166D01*
X154582761Y-80970404D01*
X154535142Y-81018023D01*
X154630380Y-79446595D02*
X154630380Y-80018023D01*
X154630380Y-79732309D02*
X153630380Y-79732309D01*
X153773238Y-79827547D01*
X153868476Y-79922785D01*
X153916095Y-80018023D01*
%TO.C,C30*%
X182745142Y-104624142D02*
X182697523Y-104671761D01*
X182554666Y-104719380D01*
X182459428Y-104719380D01*
X182316571Y-104671761D01*
X182221333Y-104576523D01*
X182173714Y-104481285D01*
X182126095Y-104290809D01*
X182126095Y-104147952D01*
X182173714Y-103957476D01*
X182221333Y-103862238D01*
X182316571Y-103767000D01*
X182459428Y-103719380D01*
X182554666Y-103719380D01*
X182697523Y-103767000D01*
X182745142Y-103814619D01*
X183078476Y-103719380D02*
X183697523Y-103719380D01*
X183364190Y-104100333D01*
X183507047Y-104100333D01*
X183602285Y-104147952D01*
X183649904Y-104195571D01*
X183697523Y-104290809D01*
X183697523Y-104528904D01*
X183649904Y-104624142D01*
X183602285Y-104671761D01*
X183507047Y-104719380D01*
X183221333Y-104719380D01*
X183126095Y-104671761D01*
X183078476Y-104624142D01*
X184316571Y-103719380D02*
X184411809Y-103719380D01*
X184507047Y-103767000D01*
X184554666Y-103814619D01*
X184602285Y-103909857D01*
X184649904Y-104100333D01*
X184649904Y-104338428D01*
X184602285Y-104528904D01*
X184554666Y-104624142D01*
X184507047Y-104671761D01*
X184411809Y-104719380D01*
X184316571Y-104719380D01*
X184221333Y-104671761D01*
X184173714Y-104624142D01*
X184126095Y-104528904D01*
X184078476Y-104338428D01*
X184078476Y-104100333D01*
X184126095Y-103909857D01*
X184173714Y-103814619D01*
X184221333Y-103767000D01*
X184316571Y-103719380D01*
%TO.C,C29*%
X113149142Y-89130142D02*
X113101523Y-89177761D01*
X112958666Y-89225380D01*
X112863428Y-89225380D01*
X112720571Y-89177761D01*
X112625333Y-89082523D01*
X112577714Y-88987285D01*
X112530095Y-88796809D01*
X112530095Y-88653952D01*
X112577714Y-88463476D01*
X112625333Y-88368238D01*
X112720571Y-88273000D01*
X112863428Y-88225380D01*
X112958666Y-88225380D01*
X113101523Y-88273000D01*
X113149142Y-88320619D01*
X113530095Y-88320619D02*
X113577714Y-88273000D01*
X113672952Y-88225380D01*
X113911047Y-88225380D01*
X114006285Y-88273000D01*
X114053904Y-88320619D01*
X114101523Y-88415857D01*
X114101523Y-88511095D01*
X114053904Y-88653952D01*
X113482476Y-89225380D01*
X114101523Y-89225380D01*
X114577714Y-89225380D02*
X114768190Y-89225380D01*
X114863428Y-89177761D01*
X114911047Y-89130142D01*
X115006285Y-88987285D01*
X115053904Y-88796809D01*
X115053904Y-88415857D01*
X115006285Y-88320619D01*
X114958666Y-88273000D01*
X114863428Y-88225380D01*
X114672952Y-88225380D01*
X114577714Y-88273000D01*
X114530095Y-88320619D01*
X114482476Y-88415857D01*
X114482476Y-88653952D01*
X114530095Y-88749190D01*
X114577714Y-88796809D01*
X114672952Y-88844428D01*
X114863428Y-88844428D01*
X114958666Y-88796809D01*
X115006285Y-88749190D01*
X115053904Y-88653952D01*
%TO.C,C28*%
X113022142Y-60428142D02*
X112974523Y-60475761D01*
X112831666Y-60523380D01*
X112736428Y-60523380D01*
X112593571Y-60475761D01*
X112498333Y-60380523D01*
X112450714Y-60285285D01*
X112403095Y-60094809D01*
X112403095Y-59951952D01*
X112450714Y-59761476D01*
X112498333Y-59666238D01*
X112593571Y-59571000D01*
X112736428Y-59523380D01*
X112831666Y-59523380D01*
X112974523Y-59571000D01*
X113022142Y-59618619D01*
X113403095Y-59618619D02*
X113450714Y-59571000D01*
X113545952Y-59523380D01*
X113784047Y-59523380D01*
X113879285Y-59571000D01*
X113926904Y-59618619D01*
X113974523Y-59713857D01*
X113974523Y-59809095D01*
X113926904Y-59951952D01*
X113355476Y-60523380D01*
X113974523Y-60523380D01*
X114545952Y-59951952D02*
X114450714Y-59904333D01*
X114403095Y-59856714D01*
X114355476Y-59761476D01*
X114355476Y-59713857D01*
X114403095Y-59618619D01*
X114450714Y-59571000D01*
X114545952Y-59523380D01*
X114736428Y-59523380D01*
X114831666Y-59571000D01*
X114879285Y-59618619D01*
X114926904Y-59713857D01*
X114926904Y-59761476D01*
X114879285Y-59856714D01*
X114831666Y-59904333D01*
X114736428Y-59951952D01*
X114545952Y-59951952D01*
X114450714Y-59999571D01*
X114403095Y-60047190D01*
X114355476Y-60142428D01*
X114355476Y-60332904D01*
X114403095Y-60428142D01*
X114450714Y-60475761D01*
X114545952Y-60523380D01*
X114736428Y-60523380D01*
X114831666Y-60475761D01*
X114879285Y-60428142D01*
X114926904Y-60332904D01*
X114926904Y-60142428D01*
X114879285Y-60047190D01*
X114831666Y-59999571D01*
X114736428Y-59951952D01*
%TO.C,C22*%
X151741142Y-111894857D02*
X151788761Y-111942476D01*
X151836380Y-112085333D01*
X151836380Y-112180571D01*
X151788761Y-112323428D01*
X151693523Y-112418666D01*
X151598285Y-112466285D01*
X151407809Y-112513904D01*
X151264952Y-112513904D01*
X151074476Y-112466285D01*
X150979238Y-112418666D01*
X150884000Y-112323428D01*
X150836380Y-112180571D01*
X150836380Y-112085333D01*
X150884000Y-111942476D01*
X150931619Y-111894857D01*
X150931619Y-111513904D02*
X150884000Y-111466285D01*
X150836380Y-111371047D01*
X150836380Y-111132952D01*
X150884000Y-111037714D01*
X150931619Y-110990095D01*
X151026857Y-110942476D01*
X151122095Y-110942476D01*
X151264952Y-110990095D01*
X151836380Y-111561523D01*
X151836380Y-110942476D01*
X150931619Y-110561523D02*
X150884000Y-110513904D01*
X150836380Y-110418666D01*
X150836380Y-110180571D01*
X150884000Y-110085333D01*
X150931619Y-110037714D01*
X151026857Y-109990095D01*
X151122095Y-109990095D01*
X151264952Y-110037714D01*
X151836380Y-110609142D01*
X151836380Y-109990095D01*
%TO.C,C21*%
X148709142Y-88622142D02*
X148661523Y-88669761D01*
X148518666Y-88717380D01*
X148423428Y-88717380D01*
X148280571Y-88669761D01*
X148185333Y-88574523D01*
X148137714Y-88479285D01*
X148090095Y-88288809D01*
X148090095Y-88145952D01*
X148137714Y-87955476D01*
X148185333Y-87860238D01*
X148280571Y-87765000D01*
X148423428Y-87717380D01*
X148518666Y-87717380D01*
X148661523Y-87765000D01*
X148709142Y-87812619D01*
X149090095Y-87812619D02*
X149137714Y-87765000D01*
X149232952Y-87717380D01*
X149471047Y-87717380D01*
X149566285Y-87765000D01*
X149613904Y-87812619D01*
X149661523Y-87907857D01*
X149661523Y-88003095D01*
X149613904Y-88145952D01*
X149042476Y-88717380D01*
X149661523Y-88717380D01*
X150613904Y-88717380D02*
X150042476Y-88717380D01*
X150328190Y-88717380D02*
X150328190Y-87717380D01*
X150232952Y-87860238D01*
X150137714Y-87955476D01*
X150042476Y-88003095D01*
%TO.C,C20*%
X142105142Y-107799142D02*
X142057523Y-107846761D01*
X141914666Y-107894380D01*
X141819428Y-107894380D01*
X141676571Y-107846761D01*
X141581333Y-107751523D01*
X141533714Y-107656285D01*
X141486095Y-107465809D01*
X141486095Y-107322952D01*
X141533714Y-107132476D01*
X141581333Y-107037238D01*
X141676571Y-106942000D01*
X141819428Y-106894380D01*
X141914666Y-106894380D01*
X142057523Y-106942000D01*
X142105142Y-106989619D01*
X142486095Y-106989619D02*
X142533714Y-106942000D01*
X142628952Y-106894380D01*
X142867047Y-106894380D01*
X142962285Y-106942000D01*
X143009904Y-106989619D01*
X143057523Y-107084857D01*
X143057523Y-107180095D01*
X143009904Y-107322952D01*
X142438476Y-107894380D01*
X143057523Y-107894380D01*
X143676571Y-106894380D02*
X143771809Y-106894380D01*
X143867047Y-106942000D01*
X143914666Y-106989619D01*
X143962285Y-107084857D01*
X144009904Y-107275333D01*
X144009904Y-107513428D01*
X143962285Y-107703904D01*
X143914666Y-107799142D01*
X143867047Y-107846761D01*
X143771809Y-107894380D01*
X143676571Y-107894380D01*
X143581333Y-107846761D01*
X143533714Y-107799142D01*
X143486095Y-107703904D01*
X143438476Y-107513428D01*
X143438476Y-107275333D01*
X143486095Y-107084857D01*
X143533714Y-106989619D01*
X143581333Y-106942000D01*
X143676571Y-106894380D01*
%TO.C,C19*%
X153773142Y-111894857D02*
X153820761Y-111942476D01*
X153868380Y-112085333D01*
X153868380Y-112180571D01*
X153820761Y-112323428D01*
X153725523Y-112418666D01*
X153630285Y-112466285D01*
X153439809Y-112513904D01*
X153296952Y-112513904D01*
X153106476Y-112466285D01*
X153011238Y-112418666D01*
X152916000Y-112323428D01*
X152868380Y-112180571D01*
X152868380Y-112085333D01*
X152916000Y-111942476D01*
X152963619Y-111894857D01*
X153868380Y-110942476D02*
X153868380Y-111513904D01*
X153868380Y-111228190D02*
X152868380Y-111228190D01*
X153011238Y-111323428D01*
X153106476Y-111418666D01*
X153154095Y-111513904D01*
X153868380Y-110466285D02*
X153868380Y-110275809D01*
X153820761Y-110180571D01*
X153773142Y-110132952D01*
X153630285Y-110037714D01*
X153439809Y-109990095D01*
X153058857Y-109990095D01*
X152963619Y-110037714D01*
X152916000Y-110085333D01*
X152868380Y-110180571D01*
X152868380Y-110371047D01*
X152916000Y-110466285D01*
X152963619Y-110513904D01*
X153058857Y-110561523D01*
X153296952Y-110561523D01*
X153392190Y-110513904D01*
X153439809Y-110466285D01*
X153487428Y-110371047D01*
X153487428Y-110180571D01*
X153439809Y-110085333D01*
X153392190Y-110037714D01*
X153296952Y-109990095D01*
%TO.C,C18*%
X140962142Y-88622142D02*
X140914523Y-88669761D01*
X140771666Y-88717380D01*
X140676428Y-88717380D01*
X140533571Y-88669761D01*
X140438333Y-88574523D01*
X140390714Y-88479285D01*
X140343095Y-88288809D01*
X140343095Y-88145952D01*
X140390714Y-87955476D01*
X140438333Y-87860238D01*
X140533571Y-87765000D01*
X140676428Y-87717380D01*
X140771666Y-87717380D01*
X140914523Y-87765000D01*
X140962142Y-87812619D01*
X141914523Y-88717380D02*
X141343095Y-88717380D01*
X141628809Y-88717380D02*
X141628809Y-87717380D01*
X141533571Y-87860238D01*
X141438333Y-87955476D01*
X141343095Y-88003095D01*
X142485952Y-88145952D02*
X142390714Y-88098333D01*
X142343095Y-88050714D01*
X142295476Y-87955476D01*
X142295476Y-87907857D01*
X142343095Y-87812619D01*
X142390714Y-87765000D01*
X142485952Y-87717380D01*
X142676428Y-87717380D01*
X142771666Y-87765000D01*
X142819285Y-87812619D01*
X142866904Y-87907857D01*
X142866904Y-87955476D01*
X142819285Y-88050714D01*
X142771666Y-88098333D01*
X142676428Y-88145952D01*
X142485952Y-88145952D01*
X142390714Y-88193571D01*
X142343095Y-88241190D01*
X142295476Y-88336428D01*
X142295476Y-88526904D01*
X142343095Y-88622142D01*
X142390714Y-88669761D01*
X142485952Y-88717380D01*
X142676428Y-88717380D01*
X142771666Y-88669761D01*
X142819285Y-88622142D01*
X142866904Y-88526904D01*
X142866904Y-88336428D01*
X142819285Y-88241190D01*
X142771666Y-88193571D01*
X142676428Y-88145952D01*
%TO.C,C17*%
X114927142Y-122531142D02*
X114879523Y-122578761D01*
X114736666Y-122626380D01*
X114641428Y-122626380D01*
X114498571Y-122578761D01*
X114403333Y-122483523D01*
X114355714Y-122388285D01*
X114308095Y-122197809D01*
X114308095Y-122054952D01*
X114355714Y-121864476D01*
X114403333Y-121769238D01*
X114498571Y-121674000D01*
X114641428Y-121626380D01*
X114736666Y-121626380D01*
X114879523Y-121674000D01*
X114927142Y-121721619D01*
X115879523Y-122626380D02*
X115308095Y-122626380D01*
X115593809Y-122626380D02*
X115593809Y-121626380D01*
X115498571Y-121769238D01*
X115403333Y-121864476D01*
X115308095Y-121912095D01*
X116212857Y-121626380D02*
X116879523Y-121626380D01*
X116450952Y-122626380D01*
%TO.C,C16*%
X111117142Y-117197142D02*
X111069523Y-117244761D01*
X110926666Y-117292380D01*
X110831428Y-117292380D01*
X110688571Y-117244761D01*
X110593333Y-117149523D01*
X110545714Y-117054285D01*
X110498095Y-116863809D01*
X110498095Y-116720952D01*
X110545714Y-116530476D01*
X110593333Y-116435238D01*
X110688571Y-116340000D01*
X110831428Y-116292380D01*
X110926666Y-116292380D01*
X111069523Y-116340000D01*
X111117142Y-116387619D01*
X112069523Y-117292380D02*
X111498095Y-117292380D01*
X111783809Y-117292380D02*
X111783809Y-116292380D01*
X111688571Y-116435238D01*
X111593333Y-116530476D01*
X111498095Y-116578095D01*
X112926666Y-116292380D02*
X112736190Y-116292380D01*
X112640952Y-116340000D01*
X112593333Y-116387619D01*
X112498095Y-116530476D01*
X112450476Y-116720952D01*
X112450476Y-117101904D01*
X112498095Y-117197142D01*
X112545714Y-117244761D01*
X112640952Y-117292380D01*
X112831428Y-117292380D01*
X112926666Y-117244761D01*
X112974285Y-117197142D01*
X113021904Y-117101904D01*
X113021904Y-116863809D01*
X112974285Y-116768571D01*
X112926666Y-116720952D01*
X112831428Y-116673333D01*
X112640952Y-116673333D01*
X112545714Y-116720952D01*
X112498095Y-116768571D01*
X112450476Y-116863809D01*
%TO.C,C15*%
X107434142Y-127484142D02*
X107386523Y-127531761D01*
X107243666Y-127579380D01*
X107148428Y-127579380D01*
X107005571Y-127531761D01*
X106910333Y-127436523D01*
X106862714Y-127341285D01*
X106815095Y-127150809D01*
X106815095Y-127007952D01*
X106862714Y-126817476D01*
X106910333Y-126722238D01*
X107005571Y-126627000D01*
X107148428Y-126579380D01*
X107243666Y-126579380D01*
X107386523Y-126627000D01*
X107434142Y-126674619D01*
X108386523Y-127579380D02*
X107815095Y-127579380D01*
X108100809Y-127579380D02*
X108100809Y-126579380D01*
X108005571Y-126722238D01*
X107910333Y-126817476D01*
X107815095Y-126865095D01*
X109291285Y-126579380D02*
X108815095Y-126579380D01*
X108767476Y-127055571D01*
X108815095Y-127007952D01*
X108910333Y-126960333D01*
X109148428Y-126960333D01*
X109243666Y-127007952D01*
X109291285Y-127055571D01*
X109338904Y-127150809D01*
X109338904Y-127388904D01*
X109291285Y-127484142D01*
X109243666Y-127531761D01*
X109148428Y-127579380D01*
X108910333Y-127579380D01*
X108815095Y-127531761D01*
X108767476Y-127484142D01*
%TO.C,C14*%
X98290142Y-110847142D02*
X98242523Y-110894761D01*
X98099666Y-110942380D01*
X98004428Y-110942380D01*
X97861571Y-110894761D01*
X97766333Y-110799523D01*
X97718714Y-110704285D01*
X97671095Y-110513809D01*
X97671095Y-110370952D01*
X97718714Y-110180476D01*
X97766333Y-110085238D01*
X97861571Y-109990000D01*
X98004428Y-109942380D01*
X98099666Y-109942380D01*
X98242523Y-109990000D01*
X98290142Y-110037619D01*
X99242523Y-110942380D02*
X98671095Y-110942380D01*
X98956809Y-110942380D02*
X98956809Y-109942380D01*
X98861571Y-110085238D01*
X98766333Y-110180476D01*
X98671095Y-110228095D01*
X100099666Y-110275714D02*
X100099666Y-110942380D01*
X99861571Y-109894761D02*
X99623476Y-110609047D01*
X100242523Y-110609047D01*
%TO.C,C12*%
X103497142Y-122404142D02*
X103449523Y-122451761D01*
X103306666Y-122499380D01*
X103211428Y-122499380D01*
X103068571Y-122451761D01*
X102973333Y-122356523D01*
X102925714Y-122261285D01*
X102878095Y-122070809D01*
X102878095Y-121927952D01*
X102925714Y-121737476D01*
X102973333Y-121642238D01*
X103068571Y-121547000D01*
X103211428Y-121499380D01*
X103306666Y-121499380D01*
X103449523Y-121547000D01*
X103497142Y-121594619D01*
X104449523Y-122499380D02*
X103878095Y-122499380D01*
X104163809Y-122499380D02*
X104163809Y-121499380D01*
X104068571Y-121642238D01*
X103973333Y-121737476D01*
X103878095Y-121785095D01*
X104830476Y-121594619D02*
X104878095Y-121547000D01*
X104973333Y-121499380D01*
X105211428Y-121499380D01*
X105306666Y-121547000D01*
X105354285Y-121594619D01*
X105401904Y-121689857D01*
X105401904Y-121785095D01*
X105354285Y-121927952D01*
X104782857Y-122499380D01*
X105401904Y-122499380D01*
%TO.C,C9*%
X200683833Y-110021642D02*
X200636214Y-110069261D01*
X200493357Y-110116880D01*
X200398119Y-110116880D01*
X200255261Y-110069261D01*
X200160023Y-109974023D01*
X200112404Y-109878785D01*
X200064785Y-109688309D01*
X200064785Y-109545452D01*
X200112404Y-109354976D01*
X200160023Y-109259738D01*
X200255261Y-109164500D01*
X200398119Y-109116880D01*
X200493357Y-109116880D01*
X200636214Y-109164500D01*
X200683833Y-109212119D01*
X201160023Y-110116880D02*
X201350500Y-110116880D01*
X201445738Y-110069261D01*
X201493357Y-110021642D01*
X201588595Y-109878785D01*
X201636214Y-109688309D01*
X201636214Y-109307357D01*
X201588595Y-109212119D01*
X201540976Y-109164500D01*
X201445738Y-109116880D01*
X201255261Y-109116880D01*
X201160023Y-109164500D01*
X201112404Y-109212119D01*
X201064785Y-109307357D01*
X201064785Y-109545452D01*
X201112404Y-109640690D01*
X201160023Y-109688309D01*
X201255261Y-109735928D01*
X201445738Y-109735928D01*
X201540976Y-109688309D01*
X201588595Y-109640690D01*
X201636214Y-109545452D01*
%TO.C,C8*%
X200683833Y-113196642D02*
X200636214Y-113244261D01*
X200493357Y-113291880D01*
X200398119Y-113291880D01*
X200255261Y-113244261D01*
X200160023Y-113149023D01*
X200112404Y-113053785D01*
X200064785Y-112863309D01*
X200064785Y-112720452D01*
X200112404Y-112529976D01*
X200160023Y-112434738D01*
X200255261Y-112339500D01*
X200398119Y-112291880D01*
X200493357Y-112291880D01*
X200636214Y-112339500D01*
X200683833Y-112387119D01*
X201255261Y-112720452D02*
X201160023Y-112672833D01*
X201112404Y-112625214D01*
X201064785Y-112529976D01*
X201064785Y-112482357D01*
X201112404Y-112387119D01*
X201160023Y-112339500D01*
X201255261Y-112291880D01*
X201445738Y-112291880D01*
X201540976Y-112339500D01*
X201588595Y-112387119D01*
X201636214Y-112482357D01*
X201636214Y-112529976D01*
X201588595Y-112625214D01*
X201540976Y-112672833D01*
X201445738Y-112720452D01*
X201255261Y-112720452D01*
X201160023Y-112768071D01*
X201112404Y-112815690D01*
X201064785Y-112910928D01*
X201064785Y-113101404D01*
X201112404Y-113196642D01*
X201160023Y-113244261D01*
X201255261Y-113291880D01*
X201445738Y-113291880D01*
X201540976Y-113244261D01*
X201588595Y-113196642D01*
X201636214Y-113101404D01*
X201636214Y-112910928D01*
X201588595Y-112815690D01*
X201540976Y-112768071D01*
X201445738Y-112720452D01*
%TO.C,C7*%
X193063833Y-118021642D02*
X193016214Y-118069261D01*
X192873357Y-118116880D01*
X192778119Y-118116880D01*
X192635261Y-118069261D01*
X192540023Y-117974023D01*
X192492404Y-117878785D01*
X192444785Y-117688309D01*
X192444785Y-117545452D01*
X192492404Y-117354976D01*
X192540023Y-117259738D01*
X192635261Y-117164500D01*
X192778119Y-117116880D01*
X192873357Y-117116880D01*
X193016214Y-117164500D01*
X193063833Y-117212119D01*
X193397166Y-117116880D02*
X194063833Y-117116880D01*
X193635261Y-118116880D01*
%TO.C,C6*%
X201572833Y-122848642D02*
X201525214Y-122896261D01*
X201382357Y-122943880D01*
X201287119Y-122943880D01*
X201144261Y-122896261D01*
X201049023Y-122801023D01*
X201001404Y-122705785D01*
X200953785Y-122515309D01*
X200953785Y-122372452D01*
X201001404Y-122181976D01*
X201049023Y-122086738D01*
X201144261Y-121991500D01*
X201287119Y-121943880D01*
X201382357Y-121943880D01*
X201525214Y-121991500D01*
X201572833Y-122039119D01*
X202429976Y-121943880D02*
X202239500Y-121943880D01*
X202144261Y-121991500D01*
X202096642Y-122039119D01*
X202001404Y-122181976D01*
X201953785Y-122372452D01*
X201953785Y-122753404D01*
X202001404Y-122848642D01*
X202049023Y-122896261D01*
X202144261Y-122943880D01*
X202334738Y-122943880D01*
X202429976Y-122896261D01*
X202477595Y-122848642D01*
X202525214Y-122753404D01*
X202525214Y-122515309D01*
X202477595Y-122420071D01*
X202429976Y-122372452D01*
X202334738Y-122324833D01*
X202144261Y-122324833D01*
X202049023Y-122372452D01*
X202001404Y-122420071D01*
X201953785Y-122515309D01*
%TO.C,C5*%
X188618833Y-120816642D02*
X188571214Y-120864261D01*
X188428357Y-120911880D01*
X188333119Y-120911880D01*
X188190261Y-120864261D01*
X188095023Y-120769023D01*
X188047404Y-120673785D01*
X187999785Y-120483309D01*
X187999785Y-120340452D01*
X188047404Y-120149976D01*
X188095023Y-120054738D01*
X188190261Y-119959500D01*
X188333119Y-119911880D01*
X188428357Y-119911880D01*
X188571214Y-119959500D01*
X188618833Y-120007119D01*
X189523595Y-119911880D02*
X189047404Y-119911880D01*
X188999785Y-120388071D01*
X189047404Y-120340452D01*
X189142642Y-120292833D01*
X189380738Y-120292833D01*
X189475976Y-120340452D01*
X189523595Y-120388071D01*
X189571214Y-120483309D01*
X189571214Y-120721404D01*
X189523595Y-120816642D01*
X189475976Y-120864261D01*
X189380738Y-120911880D01*
X189142642Y-120911880D01*
X189047404Y-120864261D01*
X188999785Y-120816642D01*
%TO.C,C4*%
X185443833Y-120816642D02*
X185396214Y-120864261D01*
X185253357Y-120911880D01*
X185158119Y-120911880D01*
X185015261Y-120864261D01*
X184920023Y-120769023D01*
X184872404Y-120673785D01*
X184824785Y-120483309D01*
X184824785Y-120340452D01*
X184872404Y-120149976D01*
X184920023Y-120054738D01*
X185015261Y-119959500D01*
X185158119Y-119911880D01*
X185253357Y-119911880D01*
X185396214Y-119959500D01*
X185443833Y-120007119D01*
X186300976Y-120245214D02*
X186300976Y-120911880D01*
X186062880Y-119864261D02*
X185824785Y-120578547D01*
X186443833Y-120578547D01*
%TO.C,C3*%
X177950833Y-128309642D02*
X177903214Y-128357261D01*
X177760357Y-128404880D01*
X177665119Y-128404880D01*
X177522261Y-128357261D01*
X177427023Y-128262023D01*
X177379404Y-128166785D01*
X177331785Y-127976309D01*
X177331785Y-127833452D01*
X177379404Y-127642976D01*
X177427023Y-127547738D01*
X177522261Y-127452500D01*
X177665119Y-127404880D01*
X177760357Y-127404880D01*
X177903214Y-127452500D01*
X177950833Y-127500119D01*
X178284166Y-127404880D02*
X178903214Y-127404880D01*
X178569880Y-127785833D01*
X178712738Y-127785833D01*
X178807976Y-127833452D01*
X178855595Y-127881071D01*
X178903214Y-127976309D01*
X178903214Y-128214404D01*
X178855595Y-128309642D01*
X178807976Y-128357261D01*
X178712738Y-128404880D01*
X178427023Y-128404880D01*
X178331785Y-128357261D01*
X178284166Y-128309642D01*
%TD*%
M02*
