%TF.GenerationSoftware,KiCad,Pcbnew,5.1.6-c6e7f7d~87~ubuntu18.04.1*%
%TF.CreationDate,2020-11-06T01:01:49+00:00*%
%TF.ProjectId,CirrusDspPedal,43697272-7573-4447-9370-506564616c2e,rev?*%
%TF.SameCoordinates,Original*%
%TF.FileFunction,Legend,Top*%
%TF.FilePolarity,Positive*%
%FSLAX46Y46*%
G04 Gerber Fmt 4.6, Leading zero omitted, Abs format (unit mm)*
G04 Created by KiCad (PCBNEW 5.1.6-c6e7f7d~87~ubuntu18.04.1) date 2020-11-06 01:01:49*
%MOMM*%
%LPD*%
G01*
G04 APERTURE LIST*
%ADD10C,1.000000*%
%ADD11C,0.500000*%
%ADD12C,0.120000*%
%ADD13C,0.150000*%
G04 APERTURE END LIST*
D10*
X183615000Y-115443000D02*
G75*
G03*
X183615000Y-115443000I-100000J0D01*
G01*
D11*
X130875714Y-140041142D02*
X130875714Y-137041142D01*
X131590000Y-137041142D01*
X132018571Y-137184000D01*
X132304285Y-137469714D01*
X132447142Y-137755428D01*
X132590000Y-138326857D01*
X132590000Y-138755428D01*
X132447142Y-139326857D01*
X132304285Y-139612571D01*
X132018571Y-139898285D01*
X131590000Y-140041142D01*
X130875714Y-140041142D01*
X133732857Y-139898285D02*
X134161428Y-140041142D01*
X134875714Y-140041142D01*
X135161428Y-139898285D01*
X135304285Y-139755428D01*
X135447142Y-139469714D01*
X135447142Y-139184000D01*
X135304285Y-138898285D01*
X135161428Y-138755428D01*
X134875714Y-138612571D01*
X134304285Y-138469714D01*
X134018571Y-138326857D01*
X133875714Y-138184000D01*
X133732857Y-137898285D01*
X133732857Y-137612571D01*
X133875714Y-137326857D01*
X134018571Y-137184000D01*
X134304285Y-137041142D01*
X135018571Y-137041142D01*
X135447142Y-137184000D01*
X136732857Y-140041142D02*
X136732857Y-137041142D01*
X137875714Y-137041142D01*
X138161428Y-137184000D01*
X138304285Y-137326857D01*
X138447142Y-137612571D01*
X138447142Y-138041142D01*
X138304285Y-138326857D01*
X138161428Y-138469714D01*
X137875714Y-138612571D01*
X136732857Y-138612571D01*
X142018571Y-140041142D02*
X142018571Y-137041142D01*
X143161428Y-137041142D01*
X143447142Y-137184000D01*
X143590000Y-137326857D01*
X143732857Y-137612571D01*
X143732857Y-138041142D01*
X143590000Y-138326857D01*
X143447142Y-138469714D01*
X143161428Y-138612571D01*
X142018571Y-138612571D01*
X146161428Y-139898285D02*
X145875714Y-140041142D01*
X145304285Y-140041142D01*
X145018571Y-139898285D01*
X144875714Y-139612571D01*
X144875714Y-138469714D01*
X145018571Y-138184000D01*
X145304285Y-138041142D01*
X145875714Y-138041142D01*
X146161428Y-138184000D01*
X146304285Y-138469714D01*
X146304285Y-138755428D01*
X144875714Y-139041142D01*
X148875714Y-140041142D02*
X148875714Y-137041142D01*
X148875714Y-139898285D02*
X148590000Y-140041142D01*
X148018571Y-140041142D01*
X147732857Y-139898285D01*
X147590000Y-139755428D01*
X147447142Y-139469714D01*
X147447142Y-138612571D01*
X147590000Y-138326857D01*
X147732857Y-138184000D01*
X148018571Y-138041142D01*
X148590000Y-138041142D01*
X148875714Y-138184000D01*
X151590000Y-140041142D02*
X151590000Y-138469714D01*
X151447142Y-138184000D01*
X151161428Y-138041142D01*
X150590000Y-138041142D01*
X150304285Y-138184000D01*
X151590000Y-139898285D02*
X151304285Y-140041142D01*
X150590000Y-140041142D01*
X150304285Y-139898285D01*
X150161428Y-139612571D01*
X150161428Y-139326857D01*
X150304285Y-139041142D01*
X150590000Y-138898285D01*
X151304285Y-138898285D01*
X151590000Y-138755428D01*
X153447142Y-140041142D02*
X153161428Y-139898285D01*
X153018571Y-139612571D01*
X153018571Y-137041142D01*
X158590000Y-140041142D02*
X157590000Y-138612571D01*
X156875714Y-140041142D02*
X156875714Y-137041142D01*
X158018571Y-137041142D01*
X158304285Y-137184000D01*
X158447142Y-137326857D01*
X158590000Y-137612571D01*
X158590000Y-138041142D01*
X158447142Y-138326857D01*
X158304285Y-138469714D01*
X158018571Y-138612571D01*
X156875714Y-138612571D01*
X161018571Y-139898285D02*
X160732857Y-140041142D01*
X160161428Y-140041142D01*
X159875714Y-139898285D01*
X159732857Y-139612571D01*
X159732857Y-138469714D01*
X159875714Y-138184000D01*
X160161428Y-138041142D01*
X160732857Y-138041142D01*
X161018571Y-138184000D01*
X161161428Y-138469714D01*
X161161428Y-138755428D01*
X159732857Y-139041142D01*
X162161428Y-138041142D02*
X162875714Y-140041142D01*
X163590000Y-138041142D01*
X165732857Y-138469714D02*
X166161428Y-138612571D01*
X166304285Y-138755428D01*
X166447142Y-139041142D01*
X166447142Y-139469714D01*
X166304285Y-139755428D01*
X166161428Y-139898285D01*
X165875714Y-140041142D01*
X164732857Y-140041142D01*
X164732857Y-137041142D01*
X165732857Y-137041142D01*
X166018571Y-137184000D01*
X166161428Y-137326857D01*
X166304285Y-137612571D01*
X166304285Y-137898285D01*
X166161428Y-138184000D01*
X166018571Y-138326857D01*
X165732857Y-138469714D01*
X164732857Y-138469714D01*
D10*
X115035000Y-115316000D02*
G75*
G03*
X115035000Y-115316000I-100000J0D01*
G01*
X180186000Y-123952000D02*
G75*
G03*
X180186000Y-123952000I-100000J0D01*
G01*
X153135000Y-93726000D02*
G75*
G03*
X153135000Y-93726000I-100000J0D01*
G01*
X144245000Y-109601000D02*
G75*
G03*
X144245000Y-109601000I-100000J0D01*
G01*
D12*
%TO.C,U4*%
X101275000Y-86870000D02*
X100345000Y-86870000D01*
X98115000Y-86870000D02*
X99045000Y-86870000D01*
X98115000Y-86870000D02*
X98115000Y-89030000D01*
X101275000Y-86870000D02*
X101275000Y-88330000D01*
%TO.C,C24*%
X103230000Y-88232064D02*
X103230000Y-87027936D01*
X105050000Y-88232064D02*
X105050000Y-87027936D01*
%TO.C,C23*%
X96160000Y-87027936D02*
X96160000Y-88232064D01*
X94340000Y-87027936D02*
X94340000Y-88232064D01*
%TO.C,D2*%
X146390000Y-129175000D02*
X146390000Y-131175000D01*
X146390000Y-131175000D02*
X150240000Y-131175000D01*
X146390000Y-129175000D02*
X150240000Y-129175000D01*
%TO.C,U5*%
X116845000Y-75165000D02*
X116845000Y-73905000D01*
X116845000Y-68345000D02*
X116845000Y-69605000D01*
X113085000Y-75165000D02*
X116845000Y-75165000D01*
X110835000Y-68345000D02*
X116845000Y-68345000D01*
%TO.C,LED1*%
X132144000Y-93428500D02*
X132609000Y-93428500D01*
X129519000Y-93428500D02*
X129984000Y-93428500D01*
X132144429Y-88614021D02*
G75*
G02*
X132144000Y-93123184I-1080429J-2254479D01*
G01*
X129983571Y-88614021D02*
G75*
G03*
X129984000Y-93123184I1080429J-2254479D01*
G01*
X132144827Y-88080685D02*
G75*
G02*
X132608830Y-93428500I-1080827J-2787815D01*
G01*
X129983173Y-88080685D02*
G75*
G03*
X129519170Y-93428500I1080827J-2787815D01*
G01*
%TO.C,LED2*%
X165036000Y-88308500D02*
X164571000Y-88308500D01*
X167661000Y-88308500D02*
X167196000Y-88308500D01*
X165035571Y-93122979D02*
G75*
G02*
X165036000Y-88613816I1080429J2254479D01*
G01*
X167196429Y-93122979D02*
G75*
G03*
X167196000Y-88613816I-1080429J2254479D01*
G01*
X165035173Y-93656315D02*
G75*
G02*
X164571170Y-88308500I1080827J2787815D01*
G01*
X167196827Y-93656315D02*
G75*
G03*
X167660830Y-88308500I-1080827J2787815D01*
G01*
%TO.C,U7*%
X154655000Y-120680000D02*
X155605000Y-120680000D01*
X155605000Y-120680000D02*
X155605000Y-119730000D01*
X146335000Y-120680000D02*
X145385000Y-120680000D01*
X145385000Y-120680000D02*
X145385000Y-119730000D01*
X154655000Y-110460000D02*
X155605000Y-110460000D01*
X155605000Y-110460000D02*
X155605000Y-111410000D01*
X146335000Y-110460000D02*
X145385000Y-110460000D01*
X145385000Y-110460000D02*
X145385000Y-111410000D01*
X145385000Y-111410000D02*
X144045000Y-111410000D01*
%TO.C,J3*%
X153730000Y-97041000D02*
X153730000Y-100571000D01*
X147260000Y-97041000D02*
X147260000Y-100571000D01*
X153665000Y-95716000D02*
X153665000Y-97041000D01*
X153730000Y-97041000D02*
X153665000Y-97041000D01*
X153730000Y-100571000D02*
X153665000Y-100571000D01*
X147325000Y-97041000D02*
X147260000Y-97041000D01*
X147325000Y-100571000D02*
X147260000Y-100571000D01*
%TO.C,U6*%
X181875000Y-112817000D02*
X180075000Y-112817000D01*
X180075000Y-116037000D02*
X182525000Y-116037000D01*
D13*
%TO.C,U3*%
X112750000Y-115925000D02*
X112750000Y-115750000D01*
X109500000Y-115925000D02*
X109500000Y-115650000D01*
X109500000Y-112675000D02*
X109500000Y-112950000D01*
X112750000Y-112675000D02*
X112750000Y-112950000D01*
X112750000Y-115925000D02*
X109500000Y-115925000D01*
X112750000Y-112675000D02*
X109500000Y-112675000D01*
X112750000Y-115750000D02*
X113825000Y-115750000D01*
D12*
%TO.C,U2*%
X193716000Y-123455000D02*
X193716000Y-125255000D01*
X196936000Y-125255000D02*
X196936000Y-122805000D01*
D13*
%TO.C,U1*%
X182398000Y-123343000D02*
X182398000Y-123518000D01*
X185648000Y-123343000D02*
X185648000Y-123618000D01*
X185648000Y-126593000D02*
X185648000Y-126318000D01*
X182398000Y-126593000D02*
X182398000Y-126318000D01*
X182398000Y-123343000D02*
X185648000Y-123343000D01*
X182398000Y-126593000D02*
X185648000Y-126593000D01*
X182398000Y-123518000D02*
X181323000Y-123518000D01*
%TO.C,SW4*%
X139235000Y-65532000D02*
X139235000Y-59436000D01*
X126789000Y-65532000D02*
X126789000Y-59436000D01*
X139997000Y-65786000D02*
X125773000Y-65786000D01*
X125773000Y-59182000D02*
X139997000Y-59182000D01*
%TO.C,SW3*%
X171115000Y-65532000D02*
X171115000Y-59436000D01*
X158669000Y-65532000D02*
X158669000Y-59436000D01*
X171877000Y-65786000D02*
X157653000Y-65786000D01*
X157653000Y-59182000D02*
X171877000Y-59182000D01*
D12*
%TO.C,SW2*%
X166878000Y-103438000D02*
X166878000Y-100778000D01*
X166878000Y-103438000D02*
X169478000Y-103438000D01*
X169478000Y-103438000D02*
X169478000Y-100778000D01*
X166878000Y-100778000D02*
X169478000Y-100778000D01*
X164278000Y-100778000D02*
X165608000Y-100778000D01*
X164278000Y-102108000D02*
X164278000Y-100778000D01*
%TO.C,SW1*%
X129921000Y-103438000D02*
X129921000Y-100778000D01*
X129921000Y-103438000D02*
X132521000Y-103438000D01*
X132521000Y-103438000D02*
X132521000Y-100778000D01*
X129921000Y-100778000D02*
X132521000Y-100778000D01*
X127321000Y-100778000D02*
X128651000Y-100778000D01*
X127321000Y-102108000D02*
X127321000Y-100778000D01*
%TO.C,RV2*%
X137296000Y-81822000D02*
X132630000Y-81822000D01*
X128721000Y-81822000D02*
X125706000Y-81822000D01*
X137296000Y-69482000D02*
X132630000Y-69482000D01*
X128721000Y-69482000D02*
X125706000Y-69482000D01*
X137296000Y-81822000D02*
X137296000Y-79023000D01*
X137296000Y-77281000D02*
X137296000Y-76522000D01*
X137296000Y-74781000D02*
X137296000Y-74022000D01*
X137296000Y-72282000D02*
X137296000Y-69482000D01*
X125706000Y-81822000D02*
X125706000Y-69482000D01*
%TO.C,RV1*%
X159884000Y-69562000D02*
X164550000Y-69562000D01*
X168459000Y-69562000D02*
X171474000Y-69562000D01*
X159884000Y-81902000D02*
X164550000Y-81902000D01*
X168459000Y-81902000D02*
X171474000Y-81902000D01*
X159884000Y-69562000D02*
X159884000Y-72361000D01*
X159884000Y-74103000D02*
X159884000Y-74862000D01*
X159884000Y-76603000D02*
X159884000Y-77362000D01*
X159884000Y-79102000D02*
X159884000Y-81902000D01*
X171474000Y-69562000D02*
X171474000Y-81902000D01*
%TO.C,R28*%
X184352000Y-61460748D02*
X184352000Y-61983252D01*
X182932000Y-61460748D02*
X182932000Y-61983252D01*
%TO.C,R27*%
X182320000Y-61469748D02*
X182320000Y-61992252D01*
X180900000Y-61469748D02*
X180900000Y-61992252D01*
%TO.C,R26*%
X180288000Y-61460748D02*
X180288000Y-61983252D01*
X178868000Y-61460748D02*
X178868000Y-61983252D01*
%TO.C,R25*%
X178256000Y-61460748D02*
X178256000Y-61983252D01*
X176836000Y-61460748D02*
X176836000Y-61983252D01*
%TO.C,R24*%
X176224000Y-61460748D02*
X176224000Y-61983252D01*
X174804000Y-61460748D02*
X174804000Y-61983252D01*
%TO.C,R23*%
X146296748Y-56059000D02*
X146819252Y-56059000D01*
X146296748Y-57479000D02*
X146819252Y-57479000D01*
%TO.C,R22*%
X161873000Y-92702748D02*
X161873000Y-93225252D01*
X160453000Y-92702748D02*
X160453000Y-93225252D01*
%TO.C,R21*%
X172077748Y-93397000D02*
X172600252Y-93397000D01*
X172077748Y-94817000D02*
X172600252Y-94817000D01*
%TO.C,R20*%
X172077748Y-86920000D02*
X172600252Y-86920000D01*
X172077748Y-88340000D02*
X172600252Y-88340000D01*
%TO.C,R19*%
X125483252Y-88721000D02*
X124960748Y-88721000D01*
X125483252Y-87301000D02*
X124960748Y-87301000D01*
%TO.C,R18*%
X125483252Y-91769000D02*
X124960748Y-91769000D01*
X125483252Y-90349000D02*
X124960748Y-90349000D01*
%TO.C,R17*%
X125483252Y-94817000D02*
X124960748Y-94817000D01*
X125483252Y-93397000D02*
X124960748Y-93397000D01*
%TO.C,R16*%
X143966000Y-62095748D02*
X143966000Y-62618252D01*
X142546000Y-62095748D02*
X142546000Y-62618252D01*
%TO.C,R15*%
X155015000Y-62095748D02*
X155015000Y-62618252D01*
X153595000Y-62095748D02*
X153595000Y-62618252D01*
%TO.C,R14*%
X143009252Y-76402000D02*
X142486748Y-76402000D01*
X143009252Y-74982000D02*
X142486748Y-74982000D01*
%TO.C,R13*%
X153916748Y-74982000D02*
X154439252Y-74982000D01*
X153916748Y-76402000D02*
X154439252Y-76402000D01*
%TO.C,R12*%
X142486748Y-77522000D02*
X143009252Y-77522000D01*
X142486748Y-78942000D02*
X143009252Y-78942000D01*
%TO.C,R11*%
X154439252Y-73862000D02*
X153916748Y-73862000D01*
X154439252Y-72442000D02*
X153916748Y-72442000D01*
%TO.C,R10*%
X166870748Y-98477000D02*
X167393252Y-98477000D01*
X166870748Y-99897000D02*
X167393252Y-99897000D01*
%TO.C,R9*%
X129913748Y-98096000D02*
X130436252Y-98096000D01*
X129913748Y-99516000D02*
X130436252Y-99516000D01*
%TO.C,R8*%
X181558000Y-108069748D02*
X181558000Y-108592252D01*
X180138000Y-108069748D02*
X180138000Y-108592252D01*
%TO.C,R7*%
X112470000Y-124198748D02*
X112470000Y-124721252D01*
X111050000Y-124198748D02*
X111050000Y-124721252D01*
%TO.C,R6*%
X99770000Y-119118748D02*
X99770000Y-119641252D01*
X98350000Y-119118748D02*
X98350000Y-119641252D01*
%TO.C,R5*%
X103430000Y-114561252D02*
X103430000Y-114038748D01*
X104850000Y-114561252D02*
X104850000Y-114038748D01*
%TO.C,R4*%
X193555252Y-115137000D02*
X193032748Y-115137000D01*
X193555252Y-113717000D02*
X193032748Y-113717000D01*
%TO.C,R3*%
X195064748Y-127433000D02*
X195587252Y-127433000D01*
X195064748Y-128853000D02*
X195587252Y-128853000D01*
%TO.C,R2*%
X189559000Y-114165748D02*
X189559000Y-114688252D01*
X188139000Y-114165748D02*
X188139000Y-114688252D01*
%TO.C,R1*%
X184964000Y-114688252D02*
X184964000Y-114165748D01*
X186384000Y-114688252D02*
X186384000Y-114165748D01*
%TO.C,JP1*%
X149984000Y-57769000D02*
X149984000Y-55769000D01*
X152784000Y-57769000D02*
X149984000Y-57769000D01*
X152784000Y-55769000D02*
X152784000Y-57769000D01*
X149984000Y-55769000D02*
X152784000Y-55769000D01*
%TO.C,J7*%
X185617000Y-54934000D02*
X188017000Y-54934000D01*
X188017000Y-54934000D02*
X188017000Y-57334000D01*
X188017000Y-57334000D02*
X185617000Y-57334000D01*
X185617000Y-57334000D02*
X185617000Y-54934000D01*
%TO.C,FB2*%
X108660000Y-119118748D02*
X108660000Y-119641252D01*
X107240000Y-119118748D02*
X107240000Y-119641252D01*
%TO.C,FB1*%
X198000252Y-118312000D02*
X197477748Y-118312000D01*
X198000252Y-116892000D02*
X197477748Y-116892000D01*
%TO.C,D1*%
X104181000Y-70469000D02*
X104181000Y-68469000D01*
X104181000Y-68469000D02*
X100331000Y-68469000D01*
X104181000Y-70469000D02*
X100331000Y-70469000D01*
%TO.C,C33*%
X157047000Y-107434748D02*
X157047000Y-107957252D01*
X155627000Y-107434748D02*
X155627000Y-107957252D01*
%TO.C,C32*%
X142486748Y-72442000D02*
X143009252Y-72442000D01*
X142486748Y-73862000D02*
X143009252Y-73862000D01*
%TO.C,C31*%
X154439252Y-78942000D02*
X153916748Y-78942000D01*
X154439252Y-77522000D02*
X153916748Y-77522000D01*
%TO.C,C30*%
X181558000Y-104005748D02*
X181558000Y-104528252D01*
X180138000Y-104005748D02*
X180138000Y-104528252D01*
%TO.C,C29*%
X112681936Y-85831000D02*
X113886064Y-85831000D01*
X112681936Y-87651000D02*
X113886064Y-87651000D01*
%TO.C,C28*%
X112808936Y-57129000D02*
X114013064Y-57129000D01*
X112808936Y-58949000D02*
X114013064Y-58949000D01*
%TO.C,C22*%
X152325000Y-125483252D02*
X152325000Y-124960748D01*
X153745000Y-125483252D02*
X153745000Y-124960748D01*
%TO.C,C21*%
X148007000Y-105671252D02*
X148007000Y-105148748D01*
X149427000Y-105671252D02*
X149427000Y-105148748D01*
%TO.C,C19*%
X156285000Y-124960748D02*
X156285000Y-125483252D01*
X154865000Y-124960748D02*
X154865000Y-125483252D01*
%TO.C,C18*%
X145467000Y-105671252D02*
X145467000Y-105148748D01*
X146887000Y-105671252D02*
X146887000Y-105148748D01*
%TO.C,C17*%
X116280000Y-119118748D02*
X116280000Y-119641252D01*
X114860000Y-119118748D02*
X114860000Y-119641252D01*
%TO.C,C16*%
X112470000Y-119118748D02*
X112470000Y-119641252D01*
X111050000Y-119118748D02*
X111050000Y-119641252D01*
%TO.C,C15*%
X108660000Y-124198748D02*
X108660000Y-124721252D01*
X107240000Y-124198748D02*
X107240000Y-124721252D01*
%TO.C,C14*%
X99770000Y-114038748D02*
X99770000Y-114561252D01*
X98350000Y-114038748D02*
X98350000Y-114561252D01*
%TO.C,C12*%
X104850000Y-119118748D02*
X104850000Y-119641252D01*
X103430000Y-119118748D02*
X103430000Y-119641252D01*
%TO.C,C9*%
X198000252Y-111962000D02*
X197477748Y-111962000D01*
X198000252Y-110542000D02*
X197477748Y-110542000D01*
%TO.C,C8*%
X198000252Y-115137000D02*
X197477748Y-115137000D01*
X198000252Y-113717000D02*
X197477748Y-113717000D01*
%TO.C,C7*%
X193555252Y-118312000D02*
X193032748Y-118312000D01*
X193555252Y-116892000D02*
X193032748Y-116892000D01*
%TO.C,C6*%
X200481000Y-123817748D02*
X200481000Y-124340252D01*
X199061000Y-123817748D02*
X199061000Y-124340252D01*
%TO.C,C5*%
X189559000Y-119245748D02*
X189559000Y-119768252D01*
X188139000Y-119245748D02*
X188139000Y-119768252D01*
%TO.C,C4*%
X184964000Y-119768252D02*
X184964000Y-119245748D01*
X186384000Y-119768252D02*
X186384000Y-119245748D01*
%TO.C,U4*%
D13*
X98933095Y-83907380D02*
X98933095Y-84716904D01*
X98980714Y-84812142D01*
X99028333Y-84859761D01*
X99123571Y-84907380D01*
X99314047Y-84907380D01*
X99409285Y-84859761D01*
X99456904Y-84812142D01*
X99504523Y-84716904D01*
X99504523Y-83907380D01*
X100409285Y-84240714D02*
X100409285Y-84907380D01*
X100171190Y-83859761D02*
X99933095Y-84574047D01*
X100552142Y-84574047D01*
%TO.C,C24*%
X103497142Y-84812142D02*
X103449523Y-84859761D01*
X103306666Y-84907380D01*
X103211428Y-84907380D01*
X103068571Y-84859761D01*
X102973333Y-84764523D01*
X102925714Y-84669285D01*
X102878095Y-84478809D01*
X102878095Y-84335952D01*
X102925714Y-84145476D01*
X102973333Y-84050238D01*
X103068571Y-83955000D01*
X103211428Y-83907380D01*
X103306666Y-83907380D01*
X103449523Y-83955000D01*
X103497142Y-84002619D01*
X103878095Y-84002619D02*
X103925714Y-83955000D01*
X104020952Y-83907380D01*
X104259047Y-83907380D01*
X104354285Y-83955000D01*
X104401904Y-84002619D01*
X104449523Y-84097857D01*
X104449523Y-84193095D01*
X104401904Y-84335952D01*
X103830476Y-84907380D01*
X104449523Y-84907380D01*
X105306666Y-84240714D02*
X105306666Y-84907380D01*
X105068571Y-83859761D02*
X104830476Y-84574047D01*
X105449523Y-84574047D01*
%TO.C,C23*%
X94607142Y-84812142D02*
X94559523Y-84859761D01*
X94416666Y-84907380D01*
X94321428Y-84907380D01*
X94178571Y-84859761D01*
X94083333Y-84764523D01*
X94035714Y-84669285D01*
X93988095Y-84478809D01*
X93988095Y-84335952D01*
X94035714Y-84145476D01*
X94083333Y-84050238D01*
X94178571Y-83955000D01*
X94321428Y-83907380D01*
X94416666Y-83907380D01*
X94559523Y-83955000D01*
X94607142Y-84002619D01*
X94988095Y-84002619D02*
X95035714Y-83955000D01*
X95130952Y-83907380D01*
X95369047Y-83907380D01*
X95464285Y-83955000D01*
X95511904Y-84002619D01*
X95559523Y-84097857D01*
X95559523Y-84193095D01*
X95511904Y-84335952D01*
X94940476Y-84907380D01*
X95559523Y-84907380D01*
X95892857Y-83907380D02*
X96511904Y-83907380D01*
X96178571Y-84288333D01*
X96321428Y-84288333D01*
X96416666Y-84335952D01*
X96464285Y-84383571D01*
X96511904Y-84478809D01*
X96511904Y-84716904D01*
X96464285Y-84812142D01*
X96416666Y-84859761D01*
X96321428Y-84907380D01*
X96035714Y-84907380D01*
X95940476Y-84859761D01*
X95892857Y-84812142D01*
%TO.C,D2*%
X144422904Y-130627380D02*
X144422904Y-129627380D01*
X144661000Y-129627380D01*
X144803857Y-129675000D01*
X144899095Y-129770238D01*
X144946714Y-129865476D01*
X144994333Y-130055952D01*
X144994333Y-130198809D01*
X144946714Y-130389285D01*
X144899095Y-130484523D01*
X144803857Y-130579761D01*
X144661000Y-130627380D01*
X144422904Y-130627380D01*
X145375285Y-129722619D02*
X145422904Y-129675000D01*
X145518142Y-129627380D01*
X145756238Y-129627380D01*
X145851476Y-129675000D01*
X145899095Y-129722619D01*
X145946714Y-129817857D01*
X145946714Y-129913095D01*
X145899095Y-130055952D01*
X145327666Y-130627380D01*
X145946714Y-130627380D01*
%TO.C,U5*%
X114173095Y-66707380D02*
X114173095Y-67516904D01*
X114220714Y-67612142D01*
X114268333Y-67659761D01*
X114363571Y-67707380D01*
X114554047Y-67707380D01*
X114649285Y-67659761D01*
X114696904Y-67612142D01*
X114744523Y-67516904D01*
X114744523Y-66707380D01*
X115696904Y-66707380D02*
X115220714Y-66707380D01*
X115173095Y-67183571D01*
X115220714Y-67135952D01*
X115315952Y-67088333D01*
X115554047Y-67088333D01*
X115649285Y-67135952D01*
X115696904Y-67183571D01*
X115744523Y-67278809D01*
X115744523Y-67516904D01*
X115696904Y-67612142D01*
X115649285Y-67659761D01*
X115554047Y-67707380D01*
X115315952Y-67707380D01*
X115220714Y-67659761D01*
X115173095Y-67612142D01*
%TO.C,LED1*%
X130198952Y-85923380D02*
X129722761Y-85923380D01*
X129722761Y-84923380D01*
X130532285Y-85399571D02*
X130865619Y-85399571D01*
X131008476Y-85923380D02*
X130532285Y-85923380D01*
X130532285Y-84923380D01*
X131008476Y-84923380D01*
X131437047Y-85923380D02*
X131437047Y-84923380D01*
X131675142Y-84923380D01*
X131818000Y-84971000D01*
X131913238Y-85066238D01*
X131960857Y-85161476D01*
X132008476Y-85351952D01*
X132008476Y-85494809D01*
X131960857Y-85685285D01*
X131913238Y-85780523D01*
X131818000Y-85875761D01*
X131675142Y-85923380D01*
X131437047Y-85923380D01*
X132960857Y-85923380D02*
X132389428Y-85923380D01*
X132675142Y-85923380D02*
X132675142Y-84923380D01*
X132579904Y-85066238D01*
X132484666Y-85161476D01*
X132389428Y-85209095D01*
%TO.C,LED2*%
X164996952Y-85923380D02*
X164520761Y-85923380D01*
X164520761Y-84923380D01*
X165330285Y-85399571D02*
X165663619Y-85399571D01*
X165806476Y-85923380D02*
X165330285Y-85923380D01*
X165330285Y-84923380D01*
X165806476Y-84923380D01*
X166235047Y-85923380D02*
X166235047Y-84923380D01*
X166473142Y-84923380D01*
X166616000Y-84971000D01*
X166711238Y-85066238D01*
X166758857Y-85161476D01*
X166806476Y-85351952D01*
X166806476Y-85494809D01*
X166758857Y-85685285D01*
X166711238Y-85780523D01*
X166616000Y-85875761D01*
X166473142Y-85923380D01*
X166235047Y-85923380D01*
X167187428Y-85018619D02*
X167235047Y-84971000D01*
X167330285Y-84923380D01*
X167568380Y-84923380D01*
X167663619Y-84971000D01*
X167711238Y-85018619D01*
X167758857Y-85113857D01*
X167758857Y-85209095D01*
X167711238Y-85351952D01*
X167139809Y-85923380D01*
X167758857Y-85923380D01*
%TO.C,U7*%
X149733095Y-107622380D02*
X149733095Y-108431904D01*
X149780714Y-108527142D01*
X149828333Y-108574761D01*
X149923571Y-108622380D01*
X150114047Y-108622380D01*
X150209285Y-108574761D01*
X150256904Y-108527142D01*
X150304523Y-108431904D01*
X150304523Y-107622380D01*
X150685476Y-107622380D02*
X151352142Y-107622380D01*
X150923571Y-108622380D01*
%TO.C,J3*%
X150161666Y-93178380D02*
X150161666Y-93892666D01*
X150114047Y-94035523D01*
X150018809Y-94130761D01*
X149875952Y-94178380D01*
X149780714Y-94178380D01*
X150542619Y-93178380D02*
X151161666Y-93178380D01*
X150828333Y-93559333D01*
X150971190Y-93559333D01*
X151066428Y-93606952D01*
X151114047Y-93654571D01*
X151161666Y-93749809D01*
X151161666Y-93987904D01*
X151114047Y-94083142D01*
X151066428Y-94130761D01*
X150971190Y-94178380D01*
X150685476Y-94178380D01*
X150590238Y-94130761D01*
X150542619Y-94083142D01*
%TO.C,U6*%
X180213095Y-111085380D02*
X180213095Y-111894904D01*
X180260714Y-111990142D01*
X180308333Y-112037761D01*
X180403571Y-112085380D01*
X180594047Y-112085380D01*
X180689285Y-112037761D01*
X180736904Y-111990142D01*
X180784523Y-111894904D01*
X180784523Y-111085380D01*
X181689285Y-111085380D02*
X181498809Y-111085380D01*
X181403571Y-111133000D01*
X181355952Y-111180619D01*
X181260714Y-111323476D01*
X181213095Y-111513952D01*
X181213095Y-111894904D01*
X181260714Y-111990142D01*
X181308333Y-112037761D01*
X181403571Y-112085380D01*
X181594047Y-112085380D01*
X181689285Y-112037761D01*
X181736904Y-111990142D01*
X181784523Y-111894904D01*
X181784523Y-111656809D01*
X181736904Y-111561571D01*
X181689285Y-111513952D01*
X181594047Y-111466333D01*
X181403571Y-111466333D01*
X181308333Y-111513952D01*
X181260714Y-111561571D01*
X181213095Y-111656809D01*
%TO.C,U3*%
X110363095Y-111085380D02*
X110363095Y-111894904D01*
X110410714Y-111990142D01*
X110458333Y-112037761D01*
X110553571Y-112085380D01*
X110744047Y-112085380D01*
X110839285Y-112037761D01*
X110886904Y-111990142D01*
X110934523Y-111894904D01*
X110934523Y-111085380D01*
X111315476Y-111085380D02*
X111934523Y-111085380D01*
X111601190Y-111466333D01*
X111744047Y-111466333D01*
X111839285Y-111513952D01*
X111886904Y-111561571D01*
X111934523Y-111656809D01*
X111934523Y-111894904D01*
X111886904Y-111990142D01*
X111839285Y-112037761D01*
X111744047Y-112085380D01*
X111458333Y-112085380D01*
X111363095Y-112037761D01*
X111315476Y-111990142D01*
%TO.C,U2*%
X194651380Y-121411904D02*
X195460904Y-121411904D01*
X195556142Y-121364285D01*
X195603761Y-121316666D01*
X195651380Y-121221428D01*
X195651380Y-121030952D01*
X195603761Y-120935714D01*
X195556142Y-120888095D01*
X195460904Y-120840476D01*
X194651380Y-120840476D01*
X194746619Y-120411904D02*
X194699000Y-120364285D01*
X194651380Y-120269047D01*
X194651380Y-120030952D01*
X194699000Y-119935714D01*
X194746619Y-119888095D01*
X194841857Y-119840476D01*
X194937095Y-119840476D01*
X195079952Y-119888095D01*
X195651380Y-120459523D01*
X195651380Y-119840476D01*
%TO.C,U1*%
X183261095Y-127214380D02*
X183261095Y-128023904D01*
X183308714Y-128119142D01*
X183356333Y-128166761D01*
X183451571Y-128214380D01*
X183642047Y-128214380D01*
X183737285Y-128166761D01*
X183784904Y-128119142D01*
X183832523Y-128023904D01*
X183832523Y-127214380D01*
X184832523Y-128214380D02*
X184261095Y-128214380D01*
X184546809Y-128214380D02*
X184546809Y-127214380D01*
X184451571Y-127357238D01*
X184356333Y-127452476D01*
X184261095Y-127500095D01*
%TO.C,SW4*%
X131635666Y-58697761D02*
X131778523Y-58745380D01*
X132016619Y-58745380D01*
X132111857Y-58697761D01*
X132159476Y-58650142D01*
X132207095Y-58554904D01*
X132207095Y-58459666D01*
X132159476Y-58364428D01*
X132111857Y-58316809D01*
X132016619Y-58269190D01*
X131826142Y-58221571D01*
X131730904Y-58173952D01*
X131683285Y-58126333D01*
X131635666Y-58031095D01*
X131635666Y-57935857D01*
X131683285Y-57840619D01*
X131730904Y-57793000D01*
X131826142Y-57745380D01*
X132064238Y-57745380D01*
X132207095Y-57793000D01*
X132540428Y-57745380D02*
X132778523Y-58745380D01*
X132969000Y-58031095D01*
X133159476Y-58745380D01*
X133397571Y-57745380D01*
X134207095Y-58078714D02*
X134207095Y-58745380D01*
X133969000Y-57697761D02*
X133730904Y-58412047D01*
X134349952Y-58412047D01*
%TO.C,SW3*%
X164147666Y-58570761D02*
X164290523Y-58618380D01*
X164528619Y-58618380D01*
X164623857Y-58570761D01*
X164671476Y-58523142D01*
X164719095Y-58427904D01*
X164719095Y-58332666D01*
X164671476Y-58237428D01*
X164623857Y-58189809D01*
X164528619Y-58142190D01*
X164338142Y-58094571D01*
X164242904Y-58046952D01*
X164195285Y-57999333D01*
X164147666Y-57904095D01*
X164147666Y-57808857D01*
X164195285Y-57713619D01*
X164242904Y-57666000D01*
X164338142Y-57618380D01*
X164576238Y-57618380D01*
X164719095Y-57666000D01*
X165052428Y-57618380D02*
X165290523Y-58618380D01*
X165481000Y-57904095D01*
X165671476Y-58618380D01*
X165909571Y-57618380D01*
X166195285Y-57618380D02*
X166814333Y-57618380D01*
X166481000Y-57999333D01*
X166623857Y-57999333D01*
X166719095Y-58046952D01*
X166766714Y-58094571D01*
X166814333Y-58189809D01*
X166814333Y-58427904D01*
X166766714Y-58523142D01*
X166719095Y-58570761D01*
X166623857Y-58618380D01*
X166338142Y-58618380D01*
X166242904Y-58570761D01*
X166195285Y-58523142D01*
%TO.C,SW2*%
X160718666Y-102512761D02*
X160861523Y-102560380D01*
X161099619Y-102560380D01*
X161194857Y-102512761D01*
X161242476Y-102465142D01*
X161290095Y-102369904D01*
X161290095Y-102274666D01*
X161242476Y-102179428D01*
X161194857Y-102131809D01*
X161099619Y-102084190D01*
X160909142Y-102036571D01*
X160813904Y-101988952D01*
X160766285Y-101941333D01*
X160718666Y-101846095D01*
X160718666Y-101750857D01*
X160766285Y-101655619D01*
X160813904Y-101608000D01*
X160909142Y-101560380D01*
X161147238Y-101560380D01*
X161290095Y-101608000D01*
X161623428Y-101560380D02*
X161861523Y-102560380D01*
X162052000Y-101846095D01*
X162242476Y-102560380D01*
X162480571Y-101560380D01*
X162813904Y-101655619D02*
X162861523Y-101608000D01*
X162956761Y-101560380D01*
X163194857Y-101560380D01*
X163290095Y-101608000D01*
X163337714Y-101655619D01*
X163385333Y-101750857D01*
X163385333Y-101846095D01*
X163337714Y-101988952D01*
X162766285Y-102560380D01*
X163385333Y-102560380D01*
%TO.C,SW1*%
X123507666Y-102512761D02*
X123650523Y-102560380D01*
X123888619Y-102560380D01*
X123983857Y-102512761D01*
X124031476Y-102465142D01*
X124079095Y-102369904D01*
X124079095Y-102274666D01*
X124031476Y-102179428D01*
X123983857Y-102131809D01*
X123888619Y-102084190D01*
X123698142Y-102036571D01*
X123602904Y-101988952D01*
X123555285Y-101941333D01*
X123507666Y-101846095D01*
X123507666Y-101750857D01*
X123555285Y-101655619D01*
X123602904Y-101608000D01*
X123698142Y-101560380D01*
X123936238Y-101560380D01*
X124079095Y-101608000D01*
X124412428Y-101560380D02*
X124650523Y-102560380D01*
X124841000Y-101846095D01*
X125031476Y-102560380D01*
X125269571Y-101560380D01*
X126174333Y-102560380D02*
X125602904Y-102560380D01*
X125888619Y-102560380D02*
X125888619Y-101560380D01*
X125793380Y-101703238D01*
X125698142Y-101798476D01*
X125602904Y-101846095D01*
%TO.C,RV2*%
X131855761Y-68016380D02*
X131522428Y-67540190D01*
X131284333Y-68016380D02*
X131284333Y-67016380D01*
X131665285Y-67016380D01*
X131760523Y-67064000D01*
X131808142Y-67111619D01*
X131855761Y-67206857D01*
X131855761Y-67349714D01*
X131808142Y-67444952D01*
X131760523Y-67492571D01*
X131665285Y-67540190D01*
X131284333Y-67540190D01*
X132141476Y-67016380D02*
X132474809Y-68016380D01*
X132808142Y-67016380D01*
X133093857Y-67111619D02*
X133141476Y-67064000D01*
X133236714Y-67016380D01*
X133474809Y-67016380D01*
X133570047Y-67064000D01*
X133617666Y-67111619D01*
X133665285Y-67206857D01*
X133665285Y-67302095D01*
X133617666Y-67444952D01*
X133046238Y-68016380D01*
X133665285Y-68016380D01*
%TO.C,RV1*%
X158916761Y-68524380D02*
X158583428Y-68048190D01*
X158345333Y-68524380D02*
X158345333Y-67524380D01*
X158726285Y-67524380D01*
X158821523Y-67572000D01*
X158869142Y-67619619D01*
X158916761Y-67714857D01*
X158916761Y-67857714D01*
X158869142Y-67952952D01*
X158821523Y-68000571D01*
X158726285Y-68048190D01*
X158345333Y-68048190D01*
X159202476Y-67524380D02*
X159535809Y-68524380D01*
X159869142Y-67524380D01*
X160726285Y-68524380D02*
X160154857Y-68524380D01*
X160440571Y-68524380D02*
X160440571Y-67524380D01*
X160345333Y-67667238D01*
X160250095Y-67762476D01*
X160154857Y-67810095D01*
%TO.C,R28*%
X184094380Y-59062857D02*
X183618190Y-59396190D01*
X184094380Y-59634285D02*
X183094380Y-59634285D01*
X183094380Y-59253333D01*
X183142000Y-59158095D01*
X183189619Y-59110476D01*
X183284857Y-59062857D01*
X183427714Y-59062857D01*
X183522952Y-59110476D01*
X183570571Y-59158095D01*
X183618190Y-59253333D01*
X183618190Y-59634285D01*
X183189619Y-58681904D02*
X183142000Y-58634285D01*
X183094380Y-58539047D01*
X183094380Y-58300952D01*
X183142000Y-58205714D01*
X183189619Y-58158095D01*
X183284857Y-58110476D01*
X183380095Y-58110476D01*
X183522952Y-58158095D01*
X184094380Y-58729523D01*
X184094380Y-58110476D01*
X183522952Y-57539047D02*
X183475333Y-57634285D01*
X183427714Y-57681904D01*
X183332476Y-57729523D01*
X183284857Y-57729523D01*
X183189619Y-57681904D01*
X183142000Y-57634285D01*
X183094380Y-57539047D01*
X183094380Y-57348571D01*
X183142000Y-57253333D01*
X183189619Y-57205714D01*
X183284857Y-57158095D01*
X183332476Y-57158095D01*
X183427714Y-57205714D01*
X183475333Y-57253333D01*
X183522952Y-57348571D01*
X183522952Y-57539047D01*
X183570571Y-57634285D01*
X183618190Y-57681904D01*
X183713428Y-57729523D01*
X183903904Y-57729523D01*
X183999142Y-57681904D01*
X184046761Y-57634285D01*
X184094380Y-57539047D01*
X184094380Y-57348571D01*
X184046761Y-57253333D01*
X183999142Y-57205714D01*
X183903904Y-57158095D01*
X183713428Y-57158095D01*
X183618190Y-57205714D01*
X183570571Y-57253333D01*
X183522952Y-57348571D01*
%TO.C,R27*%
X182062380Y-59062857D02*
X181586190Y-59396190D01*
X182062380Y-59634285D02*
X181062380Y-59634285D01*
X181062380Y-59253333D01*
X181110000Y-59158095D01*
X181157619Y-59110476D01*
X181252857Y-59062857D01*
X181395714Y-59062857D01*
X181490952Y-59110476D01*
X181538571Y-59158095D01*
X181586190Y-59253333D01*
X181586190Y-59634285D01*
X181157619Y-58681904D02*
X181110000Y-58634285D01*
X181062380Y-58539047D01*
X181062380Y-58300952D01*
X181110000Y-58205714D01*
X181157619Y-58158095D01*
X181252857Y-58110476D01*
X181348095Y-58110476D01*
X181490952Y-58158095D01*
X182062380Y-58729523D01*
X182062380Y-58110476D01*
X181062380Y-57777142D02*
X181062380Y-57110476D01*
X182062380Y-57539047D01*
%TO.C,R26*%
X180030380Y-58808857D02*
X179554190Y-59142190D01*
X180030380Y-59380285D02*
X179030380Y-59380285D01*
X179030380Y-58999333D01*
X179078000Y-58904095D01*
X179125619Y-58856476D01*
X179220857Y-58808857D01*
X179363714Y-58808857D01*
X179458952Y-58856476D01*
X179506571Y-58904095D01*
X179554190Y-58999333D01*
X179554190Y-59380285D01*
X179125619Y-58427904D02*
X179078000Y-58380285D01*
X179030380Y-58285047D01*
X179030380Y-58046952D01*
X179078000Y-57951714D01*
X179125619Y-57904095D01*
X179220857Y-57856476D01*
X179316095Y-57856476D01*
X179458952Y-57904095D01*
X180030380Y-58475523D01*
X180030380Y-57856476D01*
X179030380Y-56999333D02*
X179030380Y-57189809D01*
X179078000Y-57285047D01*
X179125619Y-57332666D01*
X179268476Y-57427904D01*
X179458952Y-57475523D01*
X179839904Y-57475523D01*
X179935142Y-57427904D01*
X179982761Y-57380285D01*
X180030380Y-57285047D01*
X180030380Y-57094571D01*
X179982761Y-56999333D01*
X179935142Y-56951714D01*
X179839904Y-56904095D01*
X179601809Y-56904095D01*
X179506571Y-56951714D01*
X179458952Y-56999333D01*
X179411333Y-57094571D01*
X179411333Y-57285047D01*
X179458952Y-57380285D01*
X179506571Y-57427904D01*
X179601809Y-57475523D01*
%TO.C,R25*%
X177998380Y-58808857D02*
X177522190Y-59142190D01*
X177998380Y-59380285D02*
X176998380Y-59380285D01*
X176998380Y-58999333D01*
X177046000Y-58904095D01*
X177093619Y-58856476D01*
X177188857Y-58808857D01*
X177331714Y-58808857D01*
X177426952Y-58856476D01*
X177474571Y-58904095D01*
X177522190Y-58999333D01*
X177522190Y-59380285D01*
X177093619Y-58427904D02*
X177046000Y-58380285D01*
X176998380Y-58285047D01*
X176998380Y-58046952D01*
X177046000Y-57951714D01*
X177093619Y-57904095D01*
X177188857Y-57856476D01*
X177284095Y-57856476D01*
X177426952Y-57904095D01*
X177998380Y-58475523D01*
X177998380Y-57856476D01*
X176998380Y-56951714D02*
X176998380Y-57427904D01*
X177474571Y-57475523D01*
X177426952Y-57427904D01*
X177379333Y-57332666D01*
X177379333Y-57094571D01*
X177426952Y-56999333D01*
X177474571Y-56951714D01*
X177569809Y-56904095D01*
X177807904Y-56904095D01*
X177903142Y-56951714D01*
X177950761Y-56999333D01*
X177998380Y-57094571D01*
X177998380Y-57332666D01*
X177950761Y-57427904D01*
X177903142Y-57475523D01*
%TO.C,R24*%
X175966380Y-58808857D02*
X175490190Y-59142190D01*
X175966380Y-59380285D02*
X174966380Y-59380285D01*
X174966380Y-58999333D01*
X175014000Y-58904095D01*
X175061619Y-58856476D01*
X175156857Y-58808857D01*
X175299714Y-58808857D01*
X175394952Y-58856476D01*
X175442571Y-58904095D01*
X175490190Y-58999333D01*
X175490190Y-59380285D01*
X175061619Y-58427904D02*
X175014000Y-58380285D01*
X174966380Y-58285047D01*
X174966380Y-58046952D01*
X175014000Y-57951714D01*
X175061619Y-57904095D01*
X175156857Y-57856476D01*
X175252095Y-57856476D01*
X175394952Y-57904095D01*
X175966380Y-58475523D01*
X175966380Y-57856476D01*
X175299714Y-56999333D02*
X175966380Y-56999333D01*
X174918761Y-57237428D02*
X175633047Y-57475523D01*
X175633047Y-56856476D01*
%TO.C,R23*%
X145915142Y-59126380D02*
X145581809Y-58650190D01*
X145343714Y-59126380D02*
X145343714Y-58126380D01*
X145724666Y-58126380D01*
X145819904Y-58174000D01*
X145867523Y-58221619D01*
X145915142Y-58316857D01*
X145915142Y-58459714D01*
X145867523Y-58554952D01*
X145819904Y-58602571D01*
X145724666Y-58650190D01*
X145343714Y-58650190D01*
X146296095Y-58221619D02*
X146343714Y-58174000D01*
X146438952Y-58126380D01*
X146677047Y-58126380D01*
X146772285Y-58174000D01*
X146819904Y-58221619D01*
X146867523Y-58316857D01*
X146867523Y-58412095D01*
X146819904Y-58554952D01*
X146248476Y-59126380D01*
X146867523Y-59126380D01*
X147200857Y-58126380D02*
X147819904Y-58126380D01*
X147486571Y-58507333D01*
X147629428Y-58507333D01*
X147724666Y-58554952D01*
X147772285Y-58602571D01*
X147819904Y-58697809D01*
X147819904Y-58935904D01*
X147772285Y-59031142D01*
X147724666Y-59078761D01*
X147629428Y-59126380D01*
X147343714Y-59126380D01*
X147248476Y-59078761D01*
X147200857Y-59031142D01*
%TO.C,R22*%
X157472142Y-93543380D02*
X157138809Y-93067190D01*
X156900714Y-93543380D02*
X156900714Y-92543380D01*
X157281666Y-92543380D01*
X157376904Y-92591000D01*
X157424523Y-92638619D01*
X157472142Y-92733857D01*
X157472142Y-92876714D01*
X157424523Y-92971952D01*
X157376904Y-93019571D01*
X157281666Y-93067190D01*
X156900714Y-93067190D01*
X157853095Y-92638619D02*
X157900714Y-92591000D01*
X157995952Y-92543380D01*
X158234047Y-92543380D01*
X158329285Y-92591000D01*
X158376904Y-92638619D01*
X158424523Y-92733857D01*
X158424523Y-92829095D01*
X158376904Y-92971952D01*
X157805476Y-93543380D01*
X158424523Y-93543380D01*
X158805476Y-92638619D02*
X158853095Y-92591000D01*
X158948333Y-92543380D01*
X159186428Y-92543380D01*
X159281666Y-92591000D01*
X159329285Y-92638619D01*
X159376904Y-92733857D01*
X159376904Y-92829095D01*
X159329285Y-92971952D01*
X158757857Y-93543380D01*
X159376904Y-93543380D01*
%TO.C,R21*%
X175760142Y-94559380D02*
X175426809Y-94083190D01*
X175188714Y-94559380D02*
X175188714Y-93559380D01*
X175569666Y-93559380D01*
X175664904Y-93607000D01*
X175712523Y-93654619D01*
X175760142Y-93749857D01*
X175760142Y-93892714D01*
X175712523Y-93987952D01*
X175664904Y-94035571D01*
X175569666Y-94083190D01*
X175188714Y-94083190D01*
X176141095Y-93654619D02*
X176188714Y-93607000D01*
X176283952Y-93559380D01*
X176522047Y-93559380D01*
X176617285Y-93607000D01*
X176664904Y-93654619D01*
X176712523Y-93749857D01*
X176712523Y-93845095D01*
X176664904Y-93987952D01*
X176093476Y-94559380D01*
X176712523Y-94559380D01*
X177664904Y-94559380D02*
X177093476Y-94559380D01*
X177379190Y-94559380D02*
X177379190Y-93559380D01*
X177283952Y-93702238D01*
X177188714Y-93797476D01*
X177093476Y-93845095D01*
%TO.C,R20*%
X175760142Y-88082380D02*
X175426809Y-87606190D01*
X175188714Y-88082380D02*
X175188714Y-87082380D01*
X175569666Y-87082380D01*
X175664904Y-87130000D01*
X175712523Y-87177619D01*
X175760142Y-87272857D01*
X175760142Y-87415714D01*
X175712523Y-87510952D01*
X175664904Y-87558571D01*
X175569666Y-87606190D01*
X175188714Y-87606190D01*
X176141095Y-87177619D02*
X176188714Y-87130000D01*
X176283952Y-87082380D01*
X176522047Y-87082380D01*
X176617285Y-87130000D01*
X176664904Y-87177619D01*
X176712523Y-87272857D01*
X176712523Y-87368095D01*
X176664904Y-87510952D01*
X176093476Y-88082380D01*
X176712523Y-88082380D01*
X177331571Y-87082380D02*
X177426809Y-87082380D01*
X177522047Y-87130000D01*
X177569666Y-87177619D01*
X177617285Y-87272857D01*
X177664904Y-87463333D01*
X177664904Y-87701428D01*
X177617285Y-87891904D01*
X177569666Y-87987142D01*
X177522047Y-88034761D01*
X177426809Y-88082380D01*
X177331571Y-88082380D01*
X177236333Y-88034761D01*
X177188714Y-87987142D01*
X177141095Y-87891904D01*
X177093476Y-87701428D01*
X177093476Y-87463333D01*
X177141095Y-87272857D01*
X177188714Y-87177619D01*
X177236333Y-87130000D01*
X177331571Y-87082380D01*
%TO.C,R19*%
X120769142Y-88463380D02*
X120435809Y-87987190D01*
X120197714Y-88463380D02*
X120197714Y-87463380D01*
X120578666Y-87463380D01*
X120673904Y-87511000D01*
X120721523Y-87558619D01*
X120769142Y-87653857D01*
X120769142Y-87796714D01*
X120721523Y-87891952D01*
X120673904Y-87939571D01*
X120578666Y-87987190D01*
X120197714Y-87987190D01*
X121721523Y-88463380D02*
X121150095Y-88463380D01*
X121435809Y-88463380D02*
X121435809Y-87463380D01*
X121340571Y-87606238D01*
X121245333Y-87701476D01*
X121150095Y-87749095D01*
X122197714Y-88463380D02*
X122388190Y-88463380D01*
X122483428Y-88415761D01*
X122531047Y-88368142D01*
X122626285Y-88225285D01*
X122673904Y-88034809D01*
X122673904Y-87653857D01*
X122626285Y-87558619D01*
X122578666Y-87511000D01*
X122483428Y-87463380D01*
X122292952Y-87463380D01*
X122197714Y-87511000D01*
X122150095Y-87558619D01*
X122102476Y-87653857D01*
X122102476Y-87891952D01*
X122150095Y-87987190D01*
X122197714Y-88034809D01*
X122292952Y-88082428D01*
X122483428Y-88082428D01*
X122578666Y-88034809D01*
X122626285Y-87987190D01*
X122673904Y-87891952D01*
%TO.C,R18*%
X120769142Y-91511380D02*
X120435809Y-91035190D01*
X120197714Y-91511380D02*
X120197714Y-90511380D01*
X120578666Y-90511380D01*
X120673904Y-90559000D01*
X120721523Y-90606619D01*
X120769142Y-90701857D01*
X120769142Y-90844714D01*
X120721523Y-90939952D01*
X120673904Y-90987571D01*
X120578666Y-91035190D01*
X120197714Y-91035190D01*
X121721523Y-91511380D02*
X121150095Y-91511380D01*
X121435809Y-91511380D02*
X121435809Y-90511380D01*
X121340571Y-90654238D01*
X121245333Y-90749476D01*
X121150095Y-90797095D01*
X122292952Y-90939952D02*
X122197714Y-90892333D01*
X122150095Y-90844714D01*
X122102476Y-90749476D01*
X122102476Y-90701857D01*
X122150095Y-90606619D01*
X122197714Y-90559000D01*
X122292952Y-90511380D01*
X122483428Y-90511380D01*
X122578666Y-90559000D01*
X122626285Y-90606619D01*
X122673904Y-90701857D01*
X122673904Y-90749476D01*
X122626285Y-90844714D01*
X122578666Y-90892333D01*
X122483428Y-90939952D01*
X122292952Y-90939952D01*
X122197714Y-90987571D01*
X122150095Y-91035190D01*
X122102476Y-91130428D01*
X122102476Y-91320904D01*
X122150095Y-91416142D01*
X122197714Y-91463761D01*
X122292952Y-91511380D01*
X122483428Y-91511380D01*
X122578666Y-91463761D01*
X122626285Y-91416142D01*
X122673904Y-91320904D01*
X122673904Y-91130428D01*
X122626285Y-91035190D01*
X122578666Y-90987571D01*
X122483428Y-90939952D01*
%TO.C,R17*%
X120769142Y-94559380D02*
X120435809Y-94083190D01*
X120197714Y-94559380D02*
X120197714Y-93559380D01*
X120578666Y-93559380D01*
X120673904Y-93607000D01*
X120721523Y-93654619D01*
X120769142Y-93749857D01*
X120769142Y-93892714D01*
X120721523Y-93987952D01*
X120673904Y-94035571D01*
X120578666Y-94083190D01*
X120197714Y-94083190D01*
X121721523Y-94559380D02*
X121150095Y-94559380D01*
X121435809Y-94559380D02*
X121435809Y-93559380D01*
X121340571Y-93702238D01*
X121245333Y-93797476D01*
X121150095Y-93845095D01*
X122054857Y-93559380D02*
X122721523Y-93559380D01*
X122292952Y-94559380D01*
%TO.C,R16*%
X142613142Y-65730380D02*
X142279809Y-65254190D01*
X142041714Y-65730380D02*
X142041714Y-64730380D01*
X142422666Y-64730380D01*
X142517904Y-64778000D01*
X142565523Y-64825619D01*
X142613142Y-64920857D01*
X142613142Y-65063714D01*
X142565523Y-65158952D01*
X142517904Y-65206571D01*
X142422666Y-65254190D01*
X142041714Y-65254190D01*
X143565523Y-65730380D02*
X142994095Y-65730380D01*
X143279809Y-65730380D02*
X143279809Y-64730380D01*
X143184571Y-64873238D01*
X143089333Y-64968476D01*
X142994095Y-65016095D01*
X144422666Y-64730380D02*
X144232190Y-64730380D01*
X144136952Y-64778000D01*
X144089333Y-64825619D01*
X143994095Y-64968476D01*
X143946476Y-65158952D01*
X143946476Y-65539904D01*
X143994095Y-65635142D01*
X144041714Y-65682761D01*
X144136952Y-65730380D01*
X144327428Y-65730380D01*
X144422666Y-65682761D01*
X144470285Y-65635142D01*
X144517904Y-65539904D01*
X144517904Y-65301809D01*
X144470285Y-65206571D01*
X144422666Y-65158952D01*
X144327428Y-65111333D01*
X144136952Y-65111333D01*
X144041714Y-65158952D01*
X143994095Y-65206571D01*
X143946476Y-65301809D01*
%TO.C,R15*%
X153662142Y-65603380D02*
X153328809Y-65127190D01*
X153090714Y-65603380D02*
X153090714Y-64603380D01*
X153471666Y-64603380D01*
X153566904Y-64651000D01*
X153614523Y-64698619D01*
X153662142Y-64793857D01*
X153662142Y-64936714D01*
X153614523Y-65031952D01*
X153566904Y-65079571D01*
X153471666Y-65127190D01*
X153090714Y-65127190D01*
X154614523Y-65603380D02*
X154043095Y-65603380D01*
X154328809Y-65603380D02*
X154328809Y-64603380D01*
X154233571Y-64746238D01*
X154138333Y-64841476D01*
X154043095Y-64889095D01*
X155519285Y-64603380D02*
X155043095Y-64603380D01*
X154995476Y-65079571D01*
X155043095Y-65031952D01*
X155138333Y-64984333D01*
X155376428Y-64984333D01*
X155471666Y-65031952D01*
X155519285Y-65079571D01*
X155566904Y-65174809D01*
X155566904Y-65412904D01*
X155519285Y-65508142D01*
X155471666Y-65555761D01*
X155376428Y-65603380D01*
X155138333Y-65603380D01*
X155043095Y-65555761D01*
X154995476Y-65508142D01*
%TO.C,R14*%
X145661142Y-76144380D02*
X145327809Y-75668190D01*
X145089714Y-76144380D02*
X145089714Y-75144380D01*
X145470666Y-75144380D01*
X145565904Y-75192000D01*
X145613523Y-75239619D01*
X145661142Y-75334857D01*
X145661142Y-75477714D01*
X145613523Y-75572952D01*
X145565904Y-75620571D01*
X145470666Y-75668190D01*
X145089714Y-75668190D01*
X146613523Y-76144380D02*
X146042095Y-76144380D01*
X146327809Y-76144380D02*
X146327809Y-75144380D01*
X146232571Y-75287238D01*
X146137333Y-75382476D01*
X146042095Y-75430095D01*
X147470666Y-75477714D02*
X147470666Y-76144380D01*
X147232571Y-75096761D02*
X146994476Y-75811047D01*
X147613523Y-75811047D01*
%TO.C,R13*%
X149979142Y-76144380D02*
X149645809Y-75668190D01*
X149407714Y-76144380D02*
X149407714Y-75144380D01*
X149788666Y-75144380D01*
X149883904Y-75192000D01*
X149931523Y-75239619D01*
X149979142Y-75334857D01*
X149979142Y-75477714D01*
X149931523Y-75572952D01*
X149883904Y-75620571D01*
X149788666Y-75668190D01*
X149407714Y-75668190D01*
X150931523Y-76144380D02*
X150360095Y-76144380D01*
X150645809Y-76144380D02*
X150645809Y-75144380D01*
X150550571Y-75287238D01*
X150455333Y-75382476D01*
X150360095Y-75430095D01*
X151264857Y-75144380D02*
X151883904Y-75144380D01*
X151550571Y-75525333D01*
X151693428Y-75525333D01*
X151788666Y-75572952D01*
X151836285Y-75620571D01*
X151883904Y-75715809D01*
X151883904Y-75953904D01*
X151836285Y-76049142D01*
X151788666Y-76096761D01*
X151693428Y-76144380D01*
X151407714Y-76144380D01*
X151312476Y-76096761D01*
X151264857Y-76049142D01*
%TO.C,R12*%
X145661142Y-78684380D02*
X145327809Y-78208190D01*
X145089714Y-78684380D02*
X145089714Y-77684380D01*
X145470666Y-77684380D01*
X145565904Y-77732000D01*
X145613523Y-77779619D01*
X145661142Y-77874857D01*
X145661142Y-78017714D01*
X145613523Y-78112952D01*
X145565904Y-78160571D01*
X145470666Y-78208190D01*
X145089714Y-78208190D01*
X146613523Y-78684380D02*
X146042095Y-78684380D01*
X146327809Y-78684380D02*
X146327809Y-77684380D01*
X146232571Y-77827238D01*
X146137333Y-77922476D01*
X146042095Y-77970095D01*
X146994476Y-77779619D02*
X147042095Y-77732000D01*
X147137333Y-77684380D01*
X147375428Y-77684380D01*
X147470666Y-77732000D01*
X147518285Y-77779619D01*
X147565904Y-77874857D01*
X147565904Y-77970095D01*
X147518285Y-78112952D01*
X146946857Y-78684380D01*
X147565904Y-78684380D01*
%TO.C,R11*%
X149979142Y-73604380D02*
X149645809Y-73128190D01*
X149407714Y-73604380D02*
X149407714Y-72604380D01*
X149788666Y-72604380D01*
X149883904Y-72652000D01*
X149931523Y-72699619D01*
X149979142Y-72794857D01*
X149979142Y-72937714D01*
X149931523Y-73032952D01*
X149883904Y-73080571D01*
X149788666Y-73128190D01*
X149407714Y-73128190D01*
X150931523Y-73604380D02*
X150360095Y-73604380D01*
X150645809Y-73604380D02*
X150645809Y-72604380D01*
X150550571Y-72747238D01*
X150455333Y-72842476D01*
X150360095Y-72890095D01*
X151883904Y-73604380D02*
X151312476Y-73604380D01*
X151598190Y-73604380D02*
X151598190Y-72604380D01*
X151502952Y-72747238D01*
X151407714Y-72842476D01*
X151312476Y-72890095D01*
%TO.C,R10*%
X166489142Y-97989380D02*
X166155809Y-97513190D01*
X165917714Y-97989380D02*
X165917714Y-96989380D01*
X166298666Y-96989380D01*
X166393904Y-97037000D01*
X166441523Y-97084619D01*
X166489142Y-97179857D01*
X166489142Y-97322714D01*
X166441523Y-97417952D01*
X166393904Y-97465571D01*
X166298666Y-97513190D01*
X165917714Y-97513190D01*
X167441523Y-97989380D02*
X166870095Y-97989380D01*
X167155809Y-97989380D02*
X167155809Y-96989380D01*
X167060571Y-97132238D01*
X166965333Y-97227476D01*
X166870095Y-97275095D01*
X168060571Y-96989380D02*
X168155809Y-96989380D01*
X168251047Y-97037000D01*
X168298666Y-97084619D01*
X168346285Y-97179857D01*
X168393904Y-97370333D01*
X168393904Y-97608428D01*
X168346285Y-97798904D01*
X168298666Y-97894142D01*
X168251047Y-97941761D01*
X168155809Y-97989380D01*
X168060571Y-97989380D01*
X167965333Y-97941761D01*
X167917714Y-97894142D01*
X167870095Y-97798904D01*
X167822476Y-97608428D01*
X167822476Y-97370333D01*
X167870095Y-97179857D01*
X167917714Y-97084619D01*
X167965333Y-97037000D01*
X168060571Y-96989380D01*
%TO.C,R9*%
X130008333Y-97608380D02*
X129675000Y-97132190D01*
X129436904Y-97608380D02*
X129436904Y-96608380D01*
X129817857Y-96608380D01*
X129913095Y-96656000D01*
X129960714Y-96703619D01*
X130008333Y-96798857D01*
X130008333Y-96941714D01*
X129960714Y-97036952D01*
X129913095Y-97084571D01*
X129817857Y-97132190D01*
X129436904Y-97132190D01*
X130484523Y-97608380D02*
X130675000Y-97608380D01*
X130770238Y-97560761D01*
X130817857Y-97513142D01*
X130913095Y-97370285D01*
X130960714Y-97179809D01*
X130960714Y-96798857D01*
X130913095Y-96703619D01*
X130865476Y-96656000D01*
X130770238Y-96608380D01*
X130579761Y-96608380D01*
X130484523Y-96656000D01*
X130436904Y-96703619D01*
X130389285Y-96798857D01*
X130389285Y-97036952D01*
X130436904Y-97132190D01*
X130484523Y-97179809D01*
X130579761Y-97227428D01*
X130770238Y-97227428D01*
X130865476Y-97179809D01*
X130913095Y-97132190D01*
X130960714Y-97036952D01*
%TO.C,R8*%
X180681333Y-111577380D02*
X180348000Y-111101190D01*
X180109904Y-111577380D02*
X180109904Y-110577380D01*
X180490857Y-110577380D01*
X180586095Y-110625000D01*
X180633714Y-110672619D01*
X180681333Y-110767857D01*
X180681333Y-110910714D01*
X180633714Y-111005952D01*
X180586095Y-111053571D01*
X180490857Y-111101190D01*
X180109904Y-111101190D01*
X181252761Y-111005952D02*
X181157523Y-110958333D01*
X181109904Y-110910714D01*
X181062285Y-110815476D01*
X181062285Y-110767857D01*
X181109904Y-110672619D01*
X181157523Y-110625000D01*
X181252761Y-110577380D01*
X181443238Y-110577380D01*
X181538476Y-110625000D01*
X181586095Y-110672619D01*
X181633714Y-110767857D01*
X181633714Y-110815476D01*
X181586095Y-110910714D01*
X181538476Y-110958333D01*
X181443238Y-111005952D01*
X181252761Y-111005952D01*
X181157523Y-111053571D01*
X181109904Y-111101190D01*
X181062285Y-111196428D01*
X181062285Y-111386904D01*
X181109904Y-111482142D01*
X181157523Y-111529761D01*
X181252761Y-111577380D01*
X181443238Y-111577380D01*
X181538476Y-111529761D01*
X181586095Y-111482142D01*
X181633714Y-111386904D01*
X181633714Y-111196428D01*
X181586095Y-111101190D01*
X181538476Y-111053571D01*
X181443238Y-111005952D01*
%TO.C,R7*%
X111593333Y-127833380D02*
X111260000Y-127357190D01*
X111021904Y-127833380D02*
X111021904Y-126833380D01*
X111402857Y-126833380D01*
X111498095Y-126881000D01*
X111545714Y-126928619D01*
X111593333Y-127023857D01*
X111593333Y-127166714D01*
X111545714Y-127261952D01*
X111498095Y-127309571D01*
X111402857Y-127357190D01*
X111021904Y-127357190D01*
X111926666Y-126833380D02*
X112593333Y-126833380D01*
X112164761Y-127833380D01*
%TO.C,R6*%
X98893333Y-122499380D02*
X98560000Y-122023190D01*
X98321904Y-122499380D02*
X98321904Y-121499380D01*
X98702857Y-121499380D01*
X98798095Y-121547000D01*
X98845714Y-121594619D01*
X98893333Y-121689857D01*
X98893333Y-121832714D01*
X98845714Y-121927952D01*
X98798095Y-121975571D01*
X98702857Y-122023190D01*
X98321904Y-122023190D01*
X99750476Y-121499380D02*
X99560000Y-121499380D01*
X99464761Y-121547000D01*
X99417142Y-121594619D01*
X99321904Y-121737476D01*
X99274285Y-121927952D01*
X99274285Y-122308904D01*
X99321904Y-122404142D01*
X99369523Y-122451761D01*
X99464761Y-122499380D01*
X99655238Y-122499380D01*
X99750476Y-122451761D01*
X99798095Y-122404142D01*
X99845714Y-122308904D01*
X99845714Y-122070809D01*
X99798095Y-121975571D01*
X99750476Y-121927952D01*
X99655238Y-121880333D01*
X99464761Y-121880333D01*
X99369523Y-121927952D01*
X99321904Y-121975571D01*
X99274285Y-122070809D01*
%TO.C,R5*%
X103973333Y-111069380D02*
X103640000Y-110593190D01*
X103401904Y-111069380D02*
X103401904Y-110069380D01*
X103782857Y-110069380D01*
X103878095Y-110117000D01*
X103925714Y-110164619D01*
X103973333Y-110259857D01*
X103973333Y-110402714D01*
X103925714Y-110497952D01*
X103878095Y-110545571D01*
X103782857Y-110593190D01*
X103401904Y-110593190D01*
X104878095Y-110069380D02*
X104401904Y-110069380D01*
X104354285Y-110545571D01*
X104401904Y-110497952D01*
X104497142Y-110450333D01*
X104735238Y-110450333D01*
X104830476Y-110497952D01*
X104878095Y-110545571D01*
X104925714Y-110640809D01*
X104925714Y-110878904D01*
X104878095Y-110974142D01*
X104830476Y-111021761D01*
X104735238Y-111069380D01*
X104497142Y-111069380D01*
X104401904Y-111021761D01*
X104354285Y-110974142D01*
%TO.C,R4*%
X193127333Y-113228380D02*
X192794000Y-112752190D01*
X192555904Y-113228380D02*
X192555904Y-112228380D01*
X192936857Y-112228380D01*
X193032095Y-112276000D01*
X193079714Y-112323619D01*
X193127333Y-112418857D01*
X193127333Y-112561714D01*
X193079714Y-112656952D01*
X193032095Y-112704571D01*
X192936857Y-112752190D01*
X192555904Y-112752190D01*
X193984476Y-112561714D02*
X193984476Y-113228380D01*
X193746380Y-112180761D02*
X193508285Y-112895047D01*
X194127333Y-112895047D01*
%TO.C,R3*%
X192079619Y-128103333D02*
X192555809Y-127770000D01*
X192079619Y-127531904D02*
X193079619Y-127531904D01*
X193079619Y-127912857D01*
X193032000Y-128008095D01*
X192984380Y-128055714D01*
X192889142Y-128103333D01*
X192746285Y-128103333D01*
X192651047Y-128055714D01*
X192603428Y-128008095D01*
X192555809Y-127912857D01*
X192555809Y-127531904D01*
X193079619Y-128436666D02*
X193079619Y-129055714D01*
X192698666Y-128722380D01*
X192698666Y-128865238D01*
X192651047Y-128960476D01*
X192603428Y-129008095D01*
X192508190Y-129055714D01*
X192270095Y-129055714D01*
X192174857Y-129008095D01*
X192127238Y-128960476D01*
X192079619Y-128865238D01*
X192079619Y-128579523D01*
X192127238Y-128484285D01*
X192174857Y-128436666D01*
%TO.C,R2*%
X188682333Y-112339380D02*
X188349000Y-111863190D01*
X188110904Y-112339380D02*
X188110904Y-111339380D01*
X188491857Y-111339380D01*
X188587095Y-111387000D01*
X188634714Y-111434619D01*
X188682333Y-111529857D01*
X188682333Y-111672714D01*
X188634714Y-111767952D01*
X188587095Y-111815571D01*
X188491857Y-111863190D01*
X188110904Y-111863190D01*
X189063285Y-111434619D02*
X189110904Y-111387000D01*
X189206142Y-111339380D01*
X189444238Y-111339380D01*
X189539476Y-111387000D01*
X189587095Y-111434619D01*
X189634714Y-111529857D01*
X189634714Y-111625095D01*
X189587095Y-111767952D01*
X189015666Y-112339380D01*
X189634714Y-112339380D01*
%TO.C,R1*%
X185507333Y-112339380D02*
X185174000Y-111863190D01*
X184935904Y-112339380D02*
X184935904Y-111339380D01*
X185316857Y-111339380D01*
X185412095Y-111387000D01*
X185459714Y-111434619D01*
X185507333Y-111529857D01*
X185507333Y-111672714D01*
X185459714Y-111767952D01*
X185412095Y-111815571D01*
X185316857Y-111863190D01*
X184935904Y-111863190D01*
X186459714Y-112339380D02*
X185888285Y-112339380D01*
X186174000Y-112339380D02*
X186174000Y-111339380D01*
X186078761Y-111482238D01*
X185983523Y-111577476D01*
X185888285Y-111625095D01*
%TO.C,JP1*%
X150550666Y-58253380D02*
X150550666Y-58967666D01*
X150503047Y-59110523D01*
X150407809Y-59205761D01*
X150264952Y-59253380D01*
X150169714Y-59253380D01*
X151026857Y-59253380D02*
X151026857Y-58253380D01*
X151407809Y-58253380D01*
X151503047Y-58301000D01*
X151550666Y-58348619D01*
X151598285Y-58443857D01*
X151598285Y-58586714D01*
X151550666Y-58681952D01*
X151503047Y-58729571D01*
X151407809Y-58777190D01*
X151026857Y-58777190D01*
X152550666Y-59253380D02*
X151979238Y-59253380D01*
X152264952Y-59253380D02*
X152264952Y-58253380D01*
X152169714Y-58396238D01*
X152074476Y-58491476D01*
X151979238Y-58539095D01*
%TO.C,J7*%
X168449666Y-55332380D02*
X168449666Y-56046666D01*
X168402047Y-56189523D01*
X168306809Y-56284761D01*
X168163952Y-56332380D01*
X168068714Y-56332380D01*
X168830619Y-55332380D02*
X169497285Y-55332380D01*
X169068714Y-56332380D01*
%TO.C,FB2*%
X106989666Y-116768571D02*
X106656333Y-116768571D01*
X106656333Y-117292380D02*
X106656333Y-116292380D01*
X107132523Y-116292380D01*
X107846809Y-116768571D02*
X107989666Y-116816190D01*
X108037285Y-116863809D01*
X108084904Y-116959047D01*
X108084904Y-117101904D01*
X108037285Y-117197142D01*
X107989666Y-117244761D01*
X107894428Y-117292380D01*
X107513476Y-117292380D01*
X107513476Y-116292380D01*
X107846809Y-116292380D01*
X107942047Y-116340000D01*
X107989666Y-116387619D01*
X108037285Y-116482857D01*
X108037285Y-116578095D01*
X107989666Y-116673333D01*
X107942047Y-116720952D01*
X107846809Y-116768571D01*
X107513476Y-116768571D01*
X108465857Y-116387619D02*
X108513476Y-116340000D01*
X108608714Y-116292380D01*
X108846809Y-116292380D01*
X108942047Y-116340000D01*
X108989666Y-116387619D01*
X109037285Y-116482857D01*
X109037285Y-116578095D01*
X108989666Y-116720952D01*
X108418238Y-117292380D01*
X109037285Y-117292380D01*
%TO.C,FB1*%
X200588666Y-117530571D02*
X200255333Y-117530571D01*
X200255333Y-118054380D02*
X200255333Y-117054380D01*
X200731523Y-117054380D01*
X201445809Y-117530571D02*
X201588666Y-117578190D01*
X201636285Y-117625809D01*
X201683904Y-117721047D01*
X201683904Y-117863904D01*
X201636285Y-117959142D01*
X201588666Y-118006761D01*
X201493428Y-118054380D01*
X201112476Y-118054380D01*
X201112476Y-117054380D01*
X201445809Y-117054380D01*
X201541047Y-117102000D01*
X201588666Y-117149619D01*
X201636285Y-117244857D01*
X201636285Y-117340095D01*
X201588666Y-117435333D01*
X201541047Y-117482952D01*
X201445809Y-117530571D01*
X201112476Y-117530571D01*
X202636285Y-118054380D02*
X202064857Y-118054380D01*
X202350571Y-118054380D02*
X202350571Y-117054380D01*
X202255333Y-117197238D01*
X202160095Y-117292476D01*
X202064857Y-117340095D01*
%TO.C,D1*%
X97432904Y-69921380D02*
X97432904Y-68921380D01*
X97671000Y-68921380D01*
X97813857Y-68969000D01*
X97909095Y-69064238D01*
X97956714Y-69159476D01*
X98004333Y-69349952D01*
X98004333Y-69492809D01*
X97956714Y-69683285D01*
X97909095Y-69778523D01*
X97813857Y-69873761D01*
X97671000Y-69921380D01*
X97432904Y-69921380D01*
X98956714Y-69921380D02*
X98385285Y-69921380D01*
X98671000Y-69921380D02*
X98671000Y-68921380D01*
X98575761Y-69064238D01*
X98480523Y-69159476D01*
X98385285Y-69207095D01*
%TO.C,C33*%
X156694142Y-104528857D02*
X156741761Y-104576476D01*
X156789380Y-104719333D01*
X156789380Y-104814571D01*
X156741761Y-104957428D01*
X156646523Y-105052666D01*
X156551285Y-105100285D01*
X156360809Y-105147904D01*
X156217952Y-105147904D01*
X156027476Y-105100285D01*
X155932238Y-105052666D01*
X155837000Y-104957428D01*
X155789380Y-104814571D01*
X155789380Y-104719333D01*
X155837000Y-104576476D01*
X155884619Y-104528857D01*
X155789380Y-104195523D02*
X155789380Y-103576476D01*
X156170333Y-103909809D01*
X156170333Y-103766952D01*
X156217952Y-103671714D01*
X156265571Y-103624095D01*
X156360809Y-103576476D01*
X156598904Y-103576476D01*
X156694142Y-103624095D01*
X156741761Y-103671714D01*
X156789380Y-103766952D01*
X156789380Y-104052666D01*
X156741761Y-104147904D01*
X156694142Y-104195523D01*
X155789380Y-103243142D02*
X155789380Y-102624095D01*
X156170333Y-102957428D01*
X156170333Y-102814571D01*
X156217952Y-102719333D01*
X156265571Y-102671714D01*
X156360809Y-102624095D01*
X156598904Y-102624095D01*
X156694142Y-102671714D01*
X156741761Y-102719333D01*
X156789380Y-102814571D01*
X156789380Y-103100285D01*
X156741761Y-103195523D01*
X156694142Y-103243142D01*
%TO.C,C32*%
X145661142Y-73509142D02*
X145613523Y-73556761D01*
X145470666Y-73604380D01*
X145375428Y-73604380D01*
X145232571Y-73556761D01*
X145137333Y-73461523D01*
X145089714Y-73366285D01*
X145042095Y-73175809D01*
X145042095Y-73032952D01*
X145089714Y-72842476D01*
X145137333Y-72747238D01*
X145232571Y-72652000D01*
X145375428Y-72604380D01*
X145470666Y-72604380D01*
X145613523Y-72652000D01*
X145661142Y-72699619D01*
X145994476Y-72604380D02*
X146613523Y-72604380D01*
X146280190Y-72985333D01*
X146423047Y-72985333D01*
X146518285Y-73032952D01*
X146565904Y-73080571D01*
X146613523Y-73175809D01*
X146613523Y-73413904D01*
X146565904Y-73509142D01*
X146518285Y-73556761D01*
X146423047Y-73604380D01*
X146137333Y-73604380D01*
X146042095Y-73556761D01*
X145994476Y-73509142D01*
X146994476Y-72699619D02*
X147042095Y-72652000D01*
X147137333Y-72604380D01*
X147375428Y-72604380D01*
X147470666Y-72652000D01*
X147518285Y-72699619D01*
X147565904Y-72794857D01*
X147565904Y-72890095D01*
X147518285Y-73032952D01*
X146946857Y-73604380D01*
X147565904Y-73604380D01*
%TO.C,C31*%
X149979142Y-78589142D02*
X149931523Y-78636761D01*
X149788666Y-78684380D01*
X149693428Y-78684380D01*
X149550571Y-78636761D01*
X149455333Y-78541523D01*
X149407714Y-78446285D01*
X149360095Y-78255809D01*
X149360095Y-78112952D01*
X149407714Y-77922476D01*
X149455333Y-77827238D01*
X149550571Y-77732000D01*
X149693428Y-77684380D01*
X149788666Y-77684380D01*
X149931523Y-77732000D01*
X149979142Y-77779619D01*
X150312476Y-77684380D02*
X150931523Y-77684380D01*
X150598190Y-78065333D01*
X150741047Y-78065333D01*
X150836285Y-78112952D01*
X150883904Y-78160571D01*
X150931523Y-78255809D01*
X150931523Y-78493904D01*
X150883904Y-78589142D01*
X150836285Y-78636761D01*
X150741047Y-78684380D01*
X150455333Y-78684380D01*
X150360095Y-78636761D01*
X150312476Y-78589142D01*
X151883904Y-78684380D02*
X151312476Y-78684380D01*
X151598190Y-78684380D02*
X151598190Y-77684380D01*
X151502952Y-77827238D01*
X151407714Y-77922476D01*
X151312476Y-77970095D01*
%TO.C,C30*%
X183110142Y-104909857D02*
X183157761Y-104957476D01*
X183205380Y-105100333D01*
X183205380Y-105195571D01*
X183157761Y-105338428D01*
X183062523Y-105433666D01*
X182967285Y-105481285D01*
X182776809Y-105528904D01*
X182633952Y-105528904D01*
X182443476Y-105481285D01*
X182348238Y-105433666D01*
X182253000Y-105338428D01*
X182205380Y-105195571D01*
X182205380Y-105100333D01*
X182253000Y-104957476D01*
X182300619Y-104909857D01*
X182205380Y-104576523D02*
X182205380Y-103957476D01*
X182586333Y-104290809D01*
X182586333Y-104147952D01*
X182633952Y-104052714D01*
X182681571Y-104005095D01*
X182776809Y-103957476D01*
X183014904Y-103957476D01*
X183110142Y-104005095D01*
X183157761Y-104052714D01*
X183205380Y-104147952D01*
X183205380Y-104433666D01*
X183157761Y-104528904D01*
X183110142Y-104576523D01*
X182205380Y-103338428D02*
X182205380Y-103243190D01*
X182253000Y-103147952D01*
X182300619Y-103100333D01*
X182395857Y-103052714D01*
X182586333Y-103005095D01*
X182824428Y-103005095D01*
X183014904Y-103052714D01*
X183110142Y-103100333D01*
X183157761Y-103147952D01*
X183205380Y-103243190D01*
X183205380Y-103338428D01*
X183157761Y-103433666D01*
X183110142Y-103481285D01*
X183014904Y-103528904D01*
X182824428Y-103576523D01*
X182586333Y-103576523D01*
X182395857Y-103528904D01*
X182300619Y-103481285D01*
X182253000Y-103433666D01*
X182205380Y-103338428D01*
%TO.C,C29*%
X113149142Y-89130142D02*
X113101523Y-89177761D01*
X112958666Y-89225380D01*
X112863428Y-89225380D01*
X112720571Y-89177761D01*
X112625333Y-89082523D01*
X112577714Y-88987285D01*
X112530095Y-88796809D01*
X112530095Y-88653952D01*
X112577714Y-88463476D01*
X112625333Y-88368238D01*
X112720571Y-88273000D01*
X112863428Y-88225380D01*
X112958666Y-88225380D01*
X113101523Y-88273000D01*
X113149142Y-88320619D01*
X113530095Y-88320619D02*
X113577714Y-88273000D01*
X113672952Y-88225380D01*
X113911047Y-88225380D01*
X114006285Y-88273000D01*
X114053904Y-88320619D01*
X114101523Y-88415857D01*
X114101523Y-88511095D01*
X114053904Y-88653952D01*
X113482476Y-89225380D01*
X114101523Y-89225380D01*
X114577714Y-89225380D02*
X114768190Y-89225380D01*
X114863428Y-89177761D01*
X114911047Y-89130142D01*
X115006285Y-88987285D01*
X115053904Y-88796809D01*
X115053904Y-88415857D01*
X115006285Y-88320619D01*
X114958666Y-88273000D01*
X114863428Y-88225380D01*
X114672952Y-88225380D01*
X114577714Y-88273000D01*
X114530095Y-88320619D01*
X114482476Y-88415857D01*
X114482476Y-88653952D01*
X114530095Y-88749190D01*
X114577714Y-88796809D01*
X114672952Y-88844428D01*
X114863428Y-88844428D01*
X114958666Y-88796809D01*
X115006285Y-88749190D01*
X115053904Y-88653952D01*
%TO.C,C28*%
X113022142Y-60428142D02*
X112974523Y-60475761D01*
X112831666Y-60523380D01*
X112736428Y-60523380D01*
X112593571Y-60475761D01*
X112498333Y-60380523D01*
X112450714Y-60285285D01*
X112403095Y-60094809D01*
X112403095Y-59951952D01*
X112450714Y-59761476D01*
X112498333Y-59666238D01*
X112593571Y-59571000D01*
X112736428Y-59523380D01*
X112831666Y-59523380D01*
X112974523Y-59571000D01*
X113022142Y-59618619D01*
X113403095Y-59618619D02*
X113450714Y-59571000D01*
X113545952Y-59523380D01*
X113784047Y-59523380D01*
X113879285Y-59571000D01*
X113926904Y-59618619D01*
X113974523Y-59713857D01*
X113974523Y-59809095D01*
X113926904Y-59951952D01*
X113355476Y-60523380D01*
X113974523Y-60523380D01*
X114545952Y-59951952D02*
X114450714Y-59904333D01*
X114403095Y-59856714D01*
X114355476Y-59761476D01*
X114355476Y-59713857D01*
X114403095Y-59618619D01*
X114450714Y-59571000D01*
X114545952Y-59523380D01*
X114736428Y-59523380D01*
X114831666Y-59571000D01*
X114879285Y-59618619D01*
X114926904Y-59713857D01*
X114926904Y-59761476D01*
X114879285Y-59856714D01*
X114831666Y-59904333D01*
X114736428Y-59951952D01*
X114545952Y-59951952D01*
X114450714Y-59999571D01*
X114403095Y-60047190D01*
X114355476Y-60142428D01*
X114355476Y-60332904D01*
X114403095Y-60428142D01*
X114450714Y-60475761D01*
X114545952Y-60523380D01*
X114736428Y-60523380D01*
X114831666Y-60475761D01*
X114879285Y-60428142D01*
X114926904Y-60332904D01*
X114926904Y-60142428D01*
X114879285Y-60047190D01*
X114831666Y-59999571D01*
X114736428Y-59951952D01*
%TO.C,C22*%
X150852142Y-121038857D02*
X150899761Y-121086476D01*
X150947380Y-121229333D01*
X150947380Y-121324571D01*
X150899761Y-121467428D01*
X150804523Y-121562666D01*
X150709285Y-121610285D01*
X150518809Y-121657904D01*
X150375952Y-121657904D01*
X150185476Y-121610285D01*
X150090238Y-121562666D01*
X149995000Y-121467428D01*
X149947380Y-121324571D01*
X149947380Y-121229333D01*
X149995000Y-121086476D01*
X150042619Y-121038857D01*
X150042619Y-120657904D02*
X149995000Y-120610285D01*
X149947380Y-120515047D01*
X149947380Y-120276952D01*
X149995000Y-120181714D01*
X150042619Y-120134095D01*
X150137857Y-120086476D01*
X150233095Y-120086476D01*
X150375952Y-120134095D01*
X150947380Y-120705523D01*
X150947380Y-120086476D01*
X150042619Y-119705523D02*
X149995000Y-119657904D01*
X149947380Y-119562666D01*
X149947380Y-119324571D01*
X149995000Y-119229333D01*
X150042619Y-119181714D01*
X150137857Y-119134095D01*
X150233095Y-119134095D01*
X150375952Y-119181714D01*
X150947380Y-119753142D01*
X150947380Y-119134095D01*
%TO.C,C21*%
X150868142Y-105894142D02*
X150820523Y-105941761D01*
X150677666Y-105989380D01*
X150582428Y-105989380D01*
X150439571Y-105941761D01*
X150344333Y-105846523D01*
X150296714Y-105751285D01*
X150249095Y-105560809D01*
X150249095Y-105417952D01*
X150296714Y-105227476D01*
X150344333Y-105132238D01*
X150439571Y-105037000D01*
X150582428Y-104989380D01*
X150677666Y-104989380D01*
X150820523Y-105037000D01*
X150868142Y-105084619D01*
X151249095Y-105084619D02*
X151296714Y-105037000D01*
X151391952Y-104989380D01*
X151630047Y-104989380D01*
X151725285Y-105037000D01*
X151772904Y-105084619D01*
X151820523Y-105179857D01*
X151820523Y-105275095D01*
X151772904Y-105417952D01*
X151201476Y-105989380D01*
X151820523Y-105989380D01*
X152772904Y-105989380D02*
X152201476Y-105989380D01*
X152487190Y-105989380D02*
X152487190Y-104989380D01*
X152391952Y-105132238D01*
X152296714Y-105227476D01*
X152201476Y-105275095D01*
%TO.C,C19*%
X158472142Y-121038857D02*
X158519761Y-121086476D01*
X158567380Y-121229333D01*
X158567380Y-121324571D01*
X158519761Y-121467428D01*
X158424523Y-121562666D01*
X158329285Y-121610285D01*
X158138809Y-121657904D01*
X157995952Y-121657904D01*
X157805476Y-121610285D01*
X157710238Y-121562666D01*
X157615000Y-121467428D01*
X157567380Y-121324571D01*
X157567380Y-121229333D01*
X157615000Y-121086476D01*
X157662619Y-121038857D01*
X158567380Y-120086476D02*
X158567380Y-120657904D01*
X158567380Y-120372190D02*
X157567380Y-120372190D01*
X157710238Y-120467428D01*
X157805476Y-120562666D01*
X157853095Y-120657904D01*
X158567380Y-119610285D02*
X158567380Y-119419809D01*
X158519761Y-119324571D01*
X158472142Y-119276952D01*
X158329285Y-119181714D01*
X158138809Y-119134095D01*
X157757857Y-119134095D01*
X157662619Y-119181714D01*
X157615000Y-119229333D01*
X157567380Y-119324571D01*
X157567380Y-119515047D01*
X157615000Y-119610285D01*
X157662619Y-119657904D01*
X157757857Y-119705523D01*
X157995952Y-119705523D01*
X158091190Y-119657904D01*
X158138809Y-119610285D01*
X158186428Y-119515047D01*
X158186428Y-119324571D01*
X158138809Y-119229333D01*
X158091190Y-119181714D01*
X157995952Y-119134095D01*
%TO.C,C18*%
X146534142Y-102242857D02*
X146581761Y-102290476D01*
X146629380Y-102433333D01*
X146629380Y-102528571D01*
X146581761Y-102671428D01*
X146486523Y-102766666D01*
X146391285Y-102814285D01*
X146200809Y-102861904D01*
X146057952Y-102861904D01*
X145867476Y-102814285D01*
X145772238Y-102766666D01*
X145677000Y-102671428D01*
X145629380Y-102528571D01*
X145629380Y-102433333D01*
X145677000Y-102290476D01*
X145724619Y-102242857D01*
X146629380Y-101290476D02*
X146629380Y-101861904D01*
X146629380Y-101576190D02*
X145629380Y-101576190D01*
X145772238Y-101671428D01*
X145867476Y-101766666D01*
X145915095Y-101861904D01*
X146057952Y-100719047D02*
X146010333Y-100814285D01*
X145962714Y-100861904D01*
X145867476Y-100909523D01*
X145819857Y-100909523D01*
X145724619Y-100861904D01*
X145677000Y-100814285D01*
X145629380Y-100719047D01*
X145629380Y-100528571D01*
X145677000Y-100433333D01*
X145724619Y-100385714D01*
X145819857Y-100338095D01*
X145867476Y-100338095D01*
X145962714Y-100385714D01*
X146010333Y-100433333D01*
X146057952Y-100528571D01*
X146057952Y-100719047D01*
X146105571Y-100814285D01*
X146153190Y-100861904D01*
X146248428Y-100909523D01*
X146438904Y-100909523D01*
X146534142Y-100861904D01*
X146581761Y-100814285D01*
X146629380Y-100719047D01*
X146629380Y-100528571D01*
X146581761Y-100433333D01*
X146534142Y-100385714D01*
X146438904Y-100338095D01*
X146248428Y-100338095D01*
X146153190Y-100385714D01*
X146105571Y-100433333D01*
X146057952Y-100528571D01*
%TO.C,C17*%
X114927142Y-122531142D02*
X114879523Y-122578761D01*
X114736666Y-122626380D01*
X114641428Y-122626380D01*
X114498571Y-122578761D01*
X114403333Y-122483523D01*
X114355714Y-122388285D01*
X114308095Y-122197809D01*
X114308095Y-122054952D01*
X114355714Y-121864476D01*
X114403333Y-121769238D01*
X114498571Y-121674000D01*
X114641428Y-121626380D01*
X114736666Y-121626380D01*
X114879523Y-121674000D01*
X114927142Y-121721619D01*
X115879523Y-122626380D02*
X115308095Y-122626380D01*
X115593809Y-122626380D02*
X115593809Y-121626380D01*
X115498571Y-121769238D01*
X115403333Y-121864476D01*
X115308095Y-121912095D01*
X116212857Y-121626380D02*
X116879523Y-121626380D01*
X116450952Y-122626380D01*
%TO.C,C16*%
X111117142Y-117197142D02*
X111069523Y-117244761D01*
X110926666Y-117292380D01*
X110831428Y-117292380D01*
X110688571Y-117244761D01*
X110593333Y-117149523D01*
X110545714Y-117054285D01*
X110498095Y-116863809D01*
X110498095Y-116720952D01*
X110545714Y-116530476D01*
X110593333Y-116435238D01*
X110688571Y-116340000D01*
X110831428Y-116292380D01*
X110926666Y-116292380D01*
X111069523Y-116340000D01*
X111117142Y-116387619D01*
X112069523Y-117292380D02*
X111498095Y-117292380D01*
X111783809Y-117292380D02*
X111783809Y-116292380D01*
X111688571Y-116435238D01*
X111593333Y-116530476D01*
X111498095Y-116578095D01*
X112926666Y-116292380D02*
X112736190Y-116292380D01*
X112640952Y-116340000D01*
X112593333Y-116387619D01*
X112498095Y-116530476D01*
X112450476Y-116720952D01*
X112450476Y-117101904D01*
X112498095Y-117197142D01*
X112545714Y-117244761D01*
X112640952Y-117292380D01*
X112831428Y-117292380D01*
X112926666Y-117244761D01*
X112974285Y-117197142D01*
X113021904Y-117101904D01*
X113021904Y-116863809D01*
X112974285Y-116768571D01*
X112926666Y-116720952D01*
X112831428Y-116673333D01*
X112640952Y-116673333D01*
X112545714Y-116720952D01*
X112498095Y-116768571D01*
X112450476Y-116863809D01*
%TO.C,C15*%
X107434142Y-127484142D02*
X107386523Y-127531761D01*
X107243666Y-127579380D01*
X107148428Y-127579380D01*
X107005571Y-127531761D01*
X106910333Y-127436523D01*
X106862714Y-127341285D01*
X106815095Y-127150809D01*
X106815095Y-127007952D01*
X106862714Y-126817476D01*
X106910333Y-126722238D01*
X107005571Y-126627000D01*
X107148428Y-126579380D01*
X107243666Y-126579380D01*
X107386523Y-126627000D01*
X107434142Y-126674619D01*
X108386523Y-127579380D02*
X107815095Y-127579380D01*
X108100809Y-127579380D02*
X108100809Y-126579380D01*
X108005571Y-126722238D01*
X107910333Y-126817476D01*
X107815095Y-126865095D01*
X109291285Y-126579380D02*
X108815095Y-126579380D01*
X108767476Y-127055571D01*
X108815095Y-127007952D01*
X108910333Y-126960333D01*
X109148428Y-126960333D01*
X109243666Y-127007952D01*
X109291285Y-127055571D01*
X109338904Y-127150809D01*
X109338904Y-127388904D01*
X109291285Y-127484142D01*
X109243666Y-127531761D01*
X109148428Y-127579380D01*
X108910333Y-127579380D01*
X108815095Y-127531761D01*
X108767476Y-127484142D01*
%TO.C,C14*%
X98290142Y-110847142D02*
X98242523Y-110894761D01*
X98099666Y-110942380D01*
X98004428Y-110942380D01*
X97861571Y-110894761D01*
X97766333Y-110799523D01*
X97718714Y-110704285D01*
X97671095Y-110513809D01*
X97671095Y-110370952D01*
X97718714Y-110180476D01*
X97766333Y-110085238D01*
X97861571Y-109990000D01*
X98004428Y-109942380D01*
X98099666Y-109942380D01*
X98242523Y-109990000D01*
X98290142Y-110037619D01*
X99242523Y-110942380D02*
X98671095Y-110942380D01*
X98956809Y-110942380D02*
X98956809Y-109942380D01*
X98861571Y-110085238D01*
X98766333Y-110180476D01*
X98671095Y-110228095D01*
X100099666Y-110275714D02*
X100099666Y-110942380D01*
X99861571Y-109894761D02*
X99623476Y-110609047D01*
X100242523Y-110609047D01*
%TO.C,C12*%
X103497142Y-122404142D02*
X103449523Y-122451761D01*
X103306666Y-122499380D01*
X103211428Y-122499380D01*
X103068571Y-122451761D01*
X102973333Y-122356523D01*
X102925714Y-122261285D01*
X102878095Y-122070809D01*
X102878095Y-121927952D01*
X102925714Y-121737476D01*
X102973333Y-121642238D01*
X103068571Y-121547000D01*
X103211428Y-121499380D01*
X103306666Y-121499380D01*
X103449523Y-121547000D01*
X103497142Y-121594619D01*
X104449523Y-122499380D02*
X103878095Y-122499380D01*
X104163809Y-122499380D02*
X104163809Y-121499380D01*
X104068571Y-121642238D01*
X103973333Y-121737476D01*
X103878095Y-121785095D01*
X104830476Y-121594619D02*
X104878095Y-121547000D01*
X104973333Y-121499380D01*
X105211428Y-121499380D01*
X105306666Y-121547000D01*
X105354285Y-121594619D01*
X105401904Y-121689857D01*
X105401904Y-121785095D01*
X105354285Y-121927952D01*
X104782857Y-122499380D01*
X105401904Y-122499380D01*
%TO.C,C9*%
X200747333Y-111609142D02*
X200699714Y-111656761D01*
X200556857Y-111704380D01*
X200461619Y-111704380D01*
X200318761Y-111656761D01*
X200223523Y-111561523D01*
X200175904Y-111466285D01*
X200128285Y-111275809D01*
X200128285Y-111132952D01*
X200175904Y-110942476D01*
X200223523Y-110847238D01*
X200318761Y-110752000D01*
X200461619Y-110704380D01*
X200556857Y-110704380D01*
X200699714Y-110752000D01*
X200747333Y-110799619D01*
X201223523Y-111704380D02*
X201414000Y-111704380D01*
X201509238Y-111656761D01*
X201556857Y-111609142D01*
X201652095Y-111466285D01*
X201699714Y-111275809D01*
X201699714Y-110894857D01*
X201652095Y-110799619D01*
X201604476Y-110752000D01*
X201509238Y-110704380D01*
X201318761Y-110704380D01*
X201223523Y-110752000D01*
X201175904Y-110799619D01*
X201128285Y-110894857D01*
X201128285Y-111132952D01*
X201175904Y-111228190D01*
X201223523Y-111275809D01*
X201318761Y-111323428D01*
X201509238Y-111323428D01*
X201604476Y-111275809D01*
X201652095Y-111228190D01*
X201699714Y-111132952D01*
%TO.C,C8*%
X200747333Y-114784142D02*
X200699714Y-114831761D01*
X200556857Y-114879380D01*
X200461619Y-114879380D01*
X200318761Y-114831761D01*
X200223523Y-114736523D01*
X200175904Y-114641285D01*
X200128285Y-114450809D01*
X200128285Y-114307952D01*
X200175904Y-114117476D01*
X200223523Y-114022238D01*
X200318761Y-113927000D01*
X200461619Y-113879380D01*
X200556857Y-113879380D01*
X200699714Y-113927000D01*
X200747333Y-113974619D01*
X201318761Y-114307952D02*
X201223523Y-114260333D01*
X201175904Y-114212714D01*
X201128285Y-114117476D01*
X201128285Y-114069857D01*
X201175904Y-113974619D01*
X201223523Y-113927000D01*
X201318761Y-113879380D01*
X201509238Y-113879380D01*
X201604476Y-113927000D01*
X201652095Y-113974619D01*
X201699714Y-114069857D01*
X201699714Y-114117476D01*
X201652095Y-114212714D01*
X201604476Y-114260333D01*
X201509238Y-114307952D01*
X201318761Y-114307952D01*
X201223523Y-114355571D01*
X201175904Y-114403190D01*
X201128285Y-114498428D01*
X201128285Y-114688904D01*
X201175904Y-114784142D01*
X201223523Y-114831761D01*
X201318761Y-114879380D01*
X201509238Y-114879380D01*
X201604476Y-114831761D01*
X201652095Y-114784142D01*
X201699714Y-114688904D01*
X201699714Y-114498428D01*
X201652095Y-114403190D01*
X201604476Y-114355571D01*
X201509238Y-114307952D01*
%TO.C,C7*%
X193127333Y-119609142D02*
X193079714Y-119656761D01*
X192936857Y-119704380D01*
X192841619Y-119704380D01*
X192698761Y-119656761D01*
X192603523Y-119561523D01*
X192555904Y-119466285D01*
X192508285Y-119275809D01*
X192508285Y-119132952D01*
X192555904Y-118942476D01*
X192603523Y-118847238D01*
X192698761Y-118752000D01*
X192841619Y-118704380D01*
X192936857Y-118704380D01*
X193079714Y-118752000D01*
X193127333Y-118799619D01*
X193460666Y-118704380D02*
X194127333Y-118704380D01*
X193698761Y-119704380D01*
%TO.C,C6*%
X201778142Y-124245666D02*
X201825761Y-124293285D01*
X201873380Y-124436142D01*
X201873380Y-124531380D01*
X201825761Y-124674238D01*
X201730523Y-124769476D01*
X201635285Y-124817095D01*
X201444809Y-124864714D01*
X201301952Y-124864714D01*
X201111476Y-124817095D01*
X201016238Y-124769476D01*
X200921000Y-124674238D01*
X200873380Y-124531380D01*
X200873380Y-124436142D01*
X200921000Y-124293285D01*
X200968619Y-124245666D01*
X200873380Y-123388523D02*
X200873380Y-123579000D01*
X200921000Y-123674238D01*
X200968619Y-123721857D01*
X201111476Y-123817095D01*
X201301952Y-123864714D01*
X201682904Y-123864714D01*
X201778142Y-123817095D01*
X201825761Y-123769476D01*
X201873380Y-123674238D01*
X201873380Y-123483761D01*
X201825761Y-123388523D01*
X201778142Y-123340904D01*
X201682904Y-123293285D01*
X201444809Y-123293285D01*
X201349571Y-123340904D01*
X201301952Y-123388523D01*
X201254333Y-123483761D01*
X201254333Y-123674238D01*
X201301952Y-123769476D01*
X201349571Y-123817095D01*
X201444809Y-123864714D01*
%TO.C,C5*%
X188682333Y-122404142D02*
X188634714Y-122451761D01*
X188491857Y-122499380D01*
X188396619Y-122499380D01*
X188253761Y-122451761D01*
X188158523Y-122356523D01*
X188110904Y-122261285D01*
X188063285Y-122070809D01*
X188063285Y-121927952D01*
X188110904Y-121737476D01*
X188158523Y-121642238D01*
X188253761Y-121547000D01*
X188396619Y-121499380D01*
X188491857Y-121499380D01*
X188634714Y-121547000D01*
X188682333Y-121594619D01*
X189587095Y-121499380D02*
X189110904Y-121499380D01*
X189063285Y-121975571D01*
X189110904Y-121927952D01*
X189206142Y-121880333D01*
X189444238Y-121880333D01*
X189539476Y-121927952D01*
X189587095Y-121975571D01*
X189634714Y-122070809D01*
X189634714Y-122308904D01*
X189587095Y-122404142D01*
X189539476Y-122451761D01*
X189444238Y-122499380D01*
X189206142Y-122499380D01*
X189110904Y-122451761D01*
X189063285Y-122404142D01*
%TO.C,C4*%
X185507333Y-122404142D02*
X185459714Y-122451761D01*
X185316857Y-122499380D01*
X185221619Y-122499380D01*
X185078761Y-122451761D01*
X184983523Y-122356523D01*
X184935904Y-122261285D01*
X184888285Y-122070809D01*
X184888285Y-121927952D01*
X184935904Y-121737476D01*
X184983523Y-121642238D01*
X185078761Y-121547000D01*
X185221619Y-121499380D01*
X185316857Y-121499380D01*
X185459714Y-121547000D01*
X185507333Y-121594619D01*
X186364476Y-121832714D02*
X186364476Y-122499380D01*
X186126380Y-121451761D02*
X185888285Y-122166047D01*
X186507333Y-122166047D01*
%TD*%
M02*
