M48
; DRILL file {KiCad (5.1.6-0-10_14)} date Monday, October 19, 2020 at 02:03:34 AM
; FORMAT={-:-/ absolute / inch / decimal}
; #@! TF.CreationDate,2020-10-19T02:03:34+01:00
; #@! TF.GenerationSoftware,Kicad,Pcbnew,(5.1.6-0-10_14)
; #@! TF.FileFunction,Plated,1,2,PTH
FMAT,2
INCH
T1C0.0079
T2C0.0236
T3C0.0354
T4C0.0394
T5C0.0787
T6C0.1575
%
G90
G05
T1
X3.8Y-4.4
X4.0Y-4.4
X4.0804Y-4.9404
X4.125Y-4.45
X4.125Y-4.5006
X4.325Y-3.305
X4.425Y-4.475
X4.59Y-2.735
X4.92Y-2.97
X5.485Y-4.7
X5.5225Y-4.465
X5.545Y-4.54
X5.5708Y-4.5392
X5.5796Y-2.8204
X5.6452Y-5.3298
X5.65Y-4.59
X5.65Y-4.6386
X5.65Y-4.735
X5.65Y-5.12
X5.65Y-4.5595
X5.6524Y-4.4024
X5.6525Y-4.435
X5.6604Y-3.1396
X5.7483Y-4.4417
X5.7483Y-4.6583
X5.7489Y-4.6189
X5.75Y-4.25
X5.795Y-4.4417
X5.797Y-4.823
X5.797Y-4.275
X5.8Y-5.4164
X5.825Y-4.85
X5.8561Y-4.275
X5.875Y-5.12
X5.9014Y-5.4164
X5.925Y-3.74
X5.9742Y-4.2558
X5.9939Y-4.2739
X6.0136Y-4.2136
X6.025Y-4.85
X6.0296Y-2.8204
X6.0333Y-4.1867
X6.0548Y-5.3298
X6.075Y-4.85
X6.08Y-4.455
X6.1104Y-3.1396
X6.195Y-4.985
X6.195Y-5.08
X6.225Y-4.4
X6.235Y-4.985
X6.235Y-5.08
X6.2498Y-4.5603
X6.2744Y-5.03
X6.275Y-4.985
X6.31Y-4.54
X6.315Y-3.8132
X6.3217Y-4.6583
X6.335Y-4.455
X6.39Y-3.8132
X6.415Y-4.985
X6.415Y-5.05
X6.7232Y-2.2368
X6.91Y-2.54
X6.96Y-2.54
X7.0327Y-2.6977
X7.07Y-2.54
X7.0817Y-4.5933
X7.085Y-4.655
X7.085Y-5.365
X7.15Y-2.54
X7.225Y-4.505
X7.23Y-2.54
X7.2423Y-5.1073
X7.27Y-2.21
X7.3556Y-4.98
X7.435Y-4.605
X7.6347Y-4.9003
X7.6347Y-4.9397
X7.745Y-4.695
X7.87Y-4.74
T2
X7.4569Y-2.3975
X7.4915Y-2.314
X7.4915Y-2.481
X7.575Y-2.2794
X7.575Y-2.5156
X7.6585Y-2.314
X7.6585Y-2.481
X7.6931Y-2.3975
X4.0069Y-5.3
X4.0415Y-5.2165
X4.0415Y-5.3835
X4.125Y-5.1819
X4.125Y-5.4181
X4.2085Y-5.2165
X4.2085Y-5.3835
X4.2431Y-5.3
X4.0069Y-2.3975
X4.0415Y-2.314
X4.0415Y-2.481
X4.125Y-2.2794
X4.125Y-2.5156
X4.2085Y-2.314
X4.2085Y-2.481
X4.2431Y-2.3975
X5.7569Y-3.47
X5.7915Y-3.3865
X5.7915Y-3.5535
X5.875Y-3.3519
X5.875Y-3.5881
X5.9585Y-3.3865
X5.9585Y-3.5535
X5.9931Y-3.47
X7.4569Y-5.3
X7.4915Y-5.2165
X7.4915Y-5.3835
X7.575Y-5.1819
X7.575Y-5.4181
X7.6585Y-5.2165
X7.6585Y-5.3835
X7.6931Y-5.3
T3
X6.54Y-3.45
X6.54Y-3.535
X6.54Y-3.62
X6.54Y-3.705
X5.16Y-3.45
X5.16Y-3.535
X5.16Y-3.62
X5.16Y-3.705
T4
X5.44Y-2.88
X5.44Y-2.9784
X5.44Y-3.0769
X6.26Y-2.8831
X6.26Y-2.9816
X6.26Y-3.08
X5.065Y-4.02
X5.165Y-4.02
X6.52Y-4.02
X6.62Y-4.02
T5
X3.8125Y-3.675
X3.8125Y-4.125
X4.3125Y-3.675
X4.3125Y-4.125
X7.3775Y-2.875
X7.3775Y-3.325
X7.8775Y-2.875
X7.8775Y-3.325
X7.3775Y-3.675
X7.3775Y-4.125
X7.8775Y-3.675
X7.8775Y-4.125
T6
X7.575Y-2.3975
X4.125Y-5.3
X4.125Y-2.3975
X5.875Y-3.47
X7.575Y-5.3
T4
G00X3.9588Y-3.0806
M15
G01X3.9588Y-3.1594
M16
G05
G00X4.0375Y-2.935
M15
G01X4.1163Y-2.935
M16
G05
G00X4.195Y-3.0806
M15
G01X4.195Y-3.1594
M16
G05
G00X5.0467Y-2.4797
M15
G01X5.0467Y-2.4403
M16
G05
G00X5.2317Y-2.4797
M15
G01X5.2317Y-2.4403
M16
G05
G00X5.4167Y-2.4797
M15
G01X5.4167Y-2.4403
M16
G05
G00X6.3018Y-2.4797
M15
G01X6.3018Y-2.4403
M16
G05
G00X6.4868Y-2.4797
M15
G01X6.4868Y-2.4403
M16
G05
G00X6.6719Y-2.4797
M15
G01X6.6719Y-2.4403
M16
G05
T0
M30
