%TF.GenerationSoftware,KiCad,Pcbnew,(5.1.6-0-10_14)*%
%TF.CreationDate,2020-10-19T02:03:32+01:00*%
%TF.ProjectId,CirrusDspPedal,43697272-7573-4447-9370-506564616c2e,rev?*%
%TF.SameCoordinates,Original*%
%TF.FileFunction,Copper,L1,Top*%
%TF.FilePolarity,Positive*%
%FSLAX46Y46*%
G04 Gerber Fmt 4.6, Leading zero omitted, Abs format (unit mm)*
G04 Created by KiCad (PCBNEW (5.1.6-0-10_14)) date 2020-10-19 02:03:32*
%MOMM*%
%LPD*%
G01*
G04 APERTURE LIST*
%TA.AperFunction,EtchedComponent*%
%ADD10C,0.100000*%
%TD*%
%TA.AperFunction,ComponentPad*%
%ADD11C,0.900000*%
%TD*%
%TA.AperFunction,ComponentPad*%
%ADD12C,8.000000*%
%TD*%
%TA.AperFunction,SMDPad,CuDef*%
%ADD13R,1.100000X1.100000*%
%TD*%
%TA.AperFunction,SMDPad,CuDef*%
%ADD14R,0.740000X2.400000*%
%TD*%
%TA.AperFunction,SMDPad,CuDef*%
%ADD15R,1.060000X0.650000*%
%TD*%
%TA.AperFunction,SMDPad,CuDef*%
%ADD16R,0.800000X0.900000*%
%TD*%
%TA.AperFunction,SMDPad,CuDef*%
%ADD17R,1.100000X0.250000*%
%TD*%
%TA.AperFunction,SMDPad,CuDef*%
%ADD18R,1.560000X0.650000*%
%TD*%
%TA.AperFunction,ComponentPad*%
%ADD19O,3.000000X4.000000*%
%TD*%
%TA.AperFunction,ComponentPad*%
%ADD20O,1.700000X1.700000*%
%TD*%
%TA.AperFunction,ComponentPad*%
%ADD21R,1.700000X1.700000*%
%TD*%
%TA.AperFunction,WasherPad*%
%ADD22C,4.000000*%
%TD*%
%TA.AperFunction,ComponentPad*%
%ADD23C,1.800000*%
%TD*%
%TA.AperFunction,ComponentPad*%
%ADD24R,1.800000X1.800000*%
%TD*%
%TA.AperFunction,SMDPad,CuDef*%
%ADD25R,1.000000X1.500000*%
%TD*%
%TA.AperFunction,SMDPad,CuDef*%
%ADD26R,2.000000X2.000000*%
%TD*%
%TA.AperFunction,ComponentPad*%
%ADD27C,3.000000*%
%TD*%
%TA.AperFunction,ComponentPad*%
%ADD28R,3.500000X3.500000*%
%TD*%
%TA.AperFunction,ViaPad*%
%ADD29C,0.450000*%
%TD*%
%TA.AperFunction,Conductor*%
%ADD30C,0.250000*%
%TD*%
%TA.AperFunction,Conductor*%
%ADD31C,0.500000*%
%TD*%
%TA.AperFunction,Conductor*%
%ADD32C,1.000000*%
%TD*%
G04 APERTURE END LIST*
D10*
%TO.C,JP1*%
G36*
X151134000Y-56469000D02*
G01*
X151634000Y-56469000D01*
X151634000Y-57069000D01*
X151134000Y-57069000D01*
X151134000Y-56469000D01*
G37*
%TD*%
D11*
%TO.P,REF\u002A\u002A,1*%
%TO.N,N/C*%
X151346320Y-86016680D03*
X149225000Y-85138000D03*
X147103680Y-86016680D03*
X146225000Y-88138000D03*
X147103680Y-90259320D03*
X149225000Y-91138000D03*
X151346320Y-90259320D03*
X152225000Y-88138000D03*
D12*
X149225000Y-88138000D03*
%TD*%
%TO.P,U7,64*%
%TO.N,+3V3*%
%TA.AperFunction,SMDPad,CuDef*%
G36*
G01*
X146595000Y-110595000D02*
X146595000Y-109195000D01*
G75*
G02*
X146670000Y-109120000I75000J0D01*
G01*
X146820000Y-109120000D01*
G75*
G02*
X146895000Y-109195000I0J-75000D01*
G01*
X146895000Y-110595000D01*
G75*
G02*
X146820000Y-110670000I-75000J0D01*
G01*
X146670000Y-110670000D01*
G75*
G02*
X146595000Y-110595000I0J75000D01*
G01*
G37*
%TD.AperFunction*%
%TO.P,U7,63*%
%TO.N,GND*%
%TA.AperFunction,SMDPad,CuDef*%
G36*
G01*
X147095000Y-110595000D02*
X147095000Y-109195000D01*
G75*
G02*
X147170000Y-109120000I75000J0D01*
G01*
X147320000Y-109120000D01*
G75*
G02*
X147395000Y-109195000I0J-75000D01*
G01*
X147395000Y-110595000D01*
G75*
G02*
X147320000Y-110670000I-75000J0D01*
G01*
X147170000Y-110670000D01*
G75*
G02*
X147095000Y-110595000I0J75000D01*
G01*
G37*
%TD.AperFunction*%
%TO.P,U7,62*%
%TO.N,Net-(U7-Pad62)*%
%TA.AperFunction,SMDPad,CuDef*%
G36*
G01*
X147595000Y-110595000D02*
X147595000Y-109195000D01*
G75*
G02*
X147670000Y-109120000I75000J0D01*
G01*
X147820000Y-109120000D01*
G75*
G02*
X147895000Y-109195000I0J-75000D01*
G01*
X147895000Y-110595000D01*
G75*
G02*
X147820000Y-110670000I-75000J0D01*
G01*
X147670000Y-110670000D01*
G75*
G02*
X147595000Y-110595000I0J75000D01*
G01*
G37*
%TD.AperFunction*%
%TO.P,U7,61*%
%TO.N,Net-(U7-Pad61)*%
%TA.AperFunction,SMDPad,CuDef*%
G36*
G01*
X148095000Y-110595000D02*
X148095000Y-109195000D01*
G75*
G02*
X148170000Y-109120000I75000J0D01*
G01*
X148320000Y-109120000D01*
G75*
G02*
X148395000Y-109195000I0J-75000D01*
G01*
X148395000Y-110595000D01*
G75*
G02*
X148320000Y-110670000I-75000J0D01*
G01*
X148170000Y-110670000D01*
G75*
G02*
X148095000Y-110595000I0J75000D01*
G01*
G37*
%TD.AperFunction*%
%TO.P,U7,60*%
%TO.N,GND*%
%TA.AperFunction,SMDPad,CuDef*%
G36*
G01*
X148595000Y-110595000D02*
X148595000Y-109195000D01*
G75*
G02*
X148670000Y-109120000I75000J0D01*
G01*
X148820000Y-109120000D01*
G75*
G02*
X148895000Y-109195000I0J-75000D01*
G01*
X148895000Y-110595000D01*
G75*
G02*
X148820000Y-110670000I-75000J0D01*
G01*
X148670000Y-110670000D01*
G75*
G02*
X148595000Y-110595000I0J75000D01*
G01*
G37*
%TD.AperFunction*%
%TO.P,U7,59*%
%TO.N,Net-(U7-Pad59)*%
%TA.AperFunction,SMDPad,CuDef*%
G36*
G01*
X149095000Y-110595000D02*
X149095000Y-109195000D01*
G75*
G02*
X149170000Y-109120000I75000J0D01*
G01*
X149320000Y-109120000D01*
G75*
G02*
X149395000Y-109195000I0J-75000D01*
G01*
X149395000Y-110595000D01*
G75*
G02*
X149320000Y-110670000I-75000J0D01*
G01*
X149170000Y-110670000D01*
G75*
G02*
X149095000Y-110595000I0J75000D01*
G01*
G37*
%TD.AperFunction*%
%TO.P,U7,58*%
%TO.N,Net-(U7-Pad58)*%
%TA.AperFunction,SMDPad,CuDef*%
G36*
G01*
X149595000Y-110595000D02*
X149595000Y-109195000D01*
G75*
G02*
X149670000Y-109120000I75000J0D01*
G01*
X149820000Y-109120000D01*
G75*
G02*
X149895000Y-109195000I0J-75000D01*
G01*
X149895000Y-110595000D01*
G75*
G02*
X149820000Y-110670000I-75000J0D01*
G01*
X149670000Y-110670000D01*
G75*
G02*
X149595000Y-110595000I0J75000D01*
G01*
G37*
%TD.AperFunction*%
%TO.P,U7,57*%
%TO.N,Net-(U7-Pad57)*%
%TA.AperFunction,SMDPad,CuDef*%
G36*
G01*
X150095000Y-110595000D02*
X150095000Y-109195000D01*
G75*
G02*
X150170000Y-109120000I75000J0D01*
G01*
X150320000Y-109120000D01*
G75*
G02*
X150395000Y-109195000I0J-75000D01*
G01*
X150395000Y-110595000D01*
G75*
G02*
X150320000Y-110670000I-75000J0D01*
G01*
X150170000Y-110670000D01*
G75*
G02*
X150095000Y-110595000I0J75000D01*
G01*
G37*
%TD.AperFunction*%
%TO.P,U7,56*%
%TO.N,Net-(U7-Pad56)*%
%TA.AperFunction,SMDPad,CuDef*%
G36*
G01*
X150595000Y-110595000D02*
X150595000Y-109195000D01*
G75*
G02*
X150670000Y-109120000I75000J0D01*
G01*
X150820000Y-109120000D01*
G75*
G02*
X150895000Y-109195000I0J-75000D01*
G01*
X150895000Y-110595000D01*
G75*
G02*
X150820000Y-110670000I-75000J0D01*
G01*
X150670000Y-110670000D01*
G75*
G02*
X150595000Y-110595000I0J75000D01*
G01*
G37*
%TD.AperFunction*%
%TO.P,U7,55*%
%TO.N,/SignalProcessing/SWO*%
%TA.AperFunction,SMDPad,CuDef*%
G36*
G01*
X151095000Y-110595000D02*
X151095000Y-109195000D01*
G75*
G02*
X151170000Y-109120000I75000J0D01*
G01*
X151320000Y-109120000D01*
G75*
G02*
X151395000Y-109195000I0J-75000D01*
G01*
X151395000Y-110595000D01*
G75*
G02*
X151320000Y-110670000I-75000J0D01*
G01*
X151170000Y-110670000D01*
G75*
G02*
X151095000Y-110595000I0J75000D01*
G01*
G37*
%TD.AperFunction*%
%TO.P,U7,54*%
%TO.N,/MicroSD/uSD_CMD*%
%TA.AperFunction,SMDPad,CuDef*%
G36*
G01*
X151595000Y-110595000D02*
X151595000Y-109195000D01*
G75*
G02*
X151670000Y-109120000I75000J0D01*
G01*
X151820000Y-109120000D01*
G75*
G02*
X151895000Y-109195000I0J-75000D01*
G01*
X151895000Y-110595000D01*
G75*
G02*
X151820000Y-110670000I-75000J0D01*
G01*
X151670000Y-110670000D01*
G75*
G02*
X151595000Y-110595000I0J75000D01*
G01*
G37*
%TD.AperFunction*%
%TO.P,U7,53*%
%TO.N,/MicroSD/uSD_CLK*%
%TA.AperFunction,SMDPad,CuDef*%
G36*
G01*
X152095000Y-110595000D02*
X152095000Y-109195000D01*
G75*
G02*
X152170000Y-109120000I75000J0D01*
G01*
X152320000Y-109120000D01*
G75*
G02*
X152395000Y-109195000I0J-75000D01*
G01*
X152395000Y-110595000D01*
G75*
G02*
X152320000Y-110670000I-75000J0D01*
G01*
X152170000Y-110670000D01*
G75*
G02*
X152095000Y-110595000I0J75000D01*
G01*
G37*
%TD.AperFunction*%
%TO.P,U7,52*%
%TO.N,/MicroSD/uSD_D3*%
%TA.AperFunction,SMDPad,CuDef*%
G36*
G01*
X152595000Y-110595000D02*
X152595000Y-109195000D01*
G75*
G02*
X152670000Y-109120000I75000J0D01*
G01*
X152820000Y-109120000D01*
G75*
G02*
X152895000Y-109195000I0J-75000D01*
G01*
X152895000Y-110595000D01*
G75*
G02*
X152820000Y-110670000I-75000J0D01*
G01*
X152670000Y-110670000D01*
G75*
G02*
X152595000Y-110595000I0J75000D01*
G01*
G37*
%TD.AperFunction*%
%TO.P,U7,51*%
%TO.N,/MicroSD/uSD_D2*%
%TA.AperFunction,SMDPad,CuDef*%
G36*
G01*
X153095000Y-110595000D02*
X153095000Y-109195000D01*
G75*
G02*
X153170000Y-109120000I75000J0D01*
G01*
X153320000Y-109120000D01*
G75*
G02*
X153395000Y-109195000I0J-75000D01*
G01*
X153395000Y-110595000D01*
G75*
G02*
X153320000Y-110670000I-75000J0D01*
G01*
X153170000Y-110670000D01*
G75*
G02*
X153095000Y-110595000I0J75000D01*
G01*
G37*
%TD.AperFunction*%
%TO.P,U7,50*%
%TO.N,Net-(U7-Pad50)*%
%TA.AperFunction,SMDPad,CuDef*%
G36*
G01*
X153595000Y-110595000D02*
X153595000Y-109195000D01*
G75*
G02*
X153670000Y-109120000I75000J0D01*
G01*
X153820000Y-109120000D01*
G75*
G02*
X153895000Y-109195000I0J-75000D01*
G01*
X153895000Y-110595000D01*
G75*
G02*
X153820000Y-110670000I-75000J0D01*
G01*
X153670000Y-110670000D01*
G75*
G02*
X153595000Y-110595000I0J75000D01*
G01*
G37*
%TD.AperFunction*%
%TO.P,U7,49*%
%TO.N,/SignalProcessing/SWCLK*%
%TA.AperFunction,SMDPad,CuDef*%
G36*
G01*
X154095000Y-110595000D02*
X154095000Y-109195000D01*
G75*
G02*
X154170000Y-109120000I75000J0D01*
G01*
X154320000Y-109120000D01*
G75*
G02*
X154395000Y-109195000I0J-75000D01*
G01*
X154395000Y-110595000D01*
G75*
G02*
X154320000Y-110670000I-75000J0D01*
G01*
X154170000Y-110670000D01*
G75*
G02*
X154095000Y-110595000I0J75000D01*
G01*
G37*
%TD.AperFunction*%
%TO.P,U7,48*%
%TO.N,+3V3*%
%TA.AperFunction,SMDPad,CuDef*%
G36*
G01*
X155395000Y-111895000D02*
X155395000Y-111745000D01*
G75*
G02*
X155470000Y-111670000I75000J0D01*
G01*
X156870000Y-111670000D01*
G75*
G02*
X156945000Y-111745000I0J-75000D01*
G01*
X156945000Y-111895000D01*
G75*
G02*
X156870000Y-111970000I-75000J0D01*
G01*
X155470000Y-111970000D01*
G75*
G02*
X155395000Y-111895000I0J75000D01*
G01*
G37*
%TD.AperFunction*%
%TO.P,U7,47*%
%TO.N,/SignalProcessing/VCAP2*%
%TA.AperFunction,SMDPad,CuDef*%
G36*
G01*
X155395000Y-112395000D02*
X155395000Y-112245000D01*
G75*
G02*
X155470000Y-112170000I75000J0D01*
G01*
X156870000Y-112170000D01*
G75*
G02*
X156945000Y-112245000I0J-75000D01*
G01*
X156945000Y-112395000D01*
G75*
G02*
X156870000Y-112470000I-75000J0D01*
G01*
X155470000Y-112470000D01*
G75*
G02*
X155395000Y-112395000I0J75000D01*
G01*
G37*
%TD.AperFunction*%
%TO.P,U7,46*%
%TO.N,/SignalProcessing/SWDIO*%
%TA.AperFunction,SMDPad,CuDef*%
G36*
G01*
X155395000Y-112895000D02*
X155395000Y-112745000D01*
G75*
G02*
X155470000Y-112670000I75000J0D01*
G01*
X156870000Y-112670000D01*
G75*
G02*
X156945000Y-112745000I0J-75000D01*
G01*
X156945000Y-112895000D01*
G75*
G02*
X156870000Y-112970000I-75000J0D01*
G01*
X155470000Y-112970000D01*
G75*
G02*
X155395000Y-112895000I0J75000D01*
G01*
G37*
%TD.AperFunction*%
%TO.P,U7,45*%
%TO.N,/SignalProcessing/LEDB_B*%
%TA.AperFunction,SMDPad,CuDef*%
G36*
G01*
X155395000Y-113395000D02*
X155395000Y-113245000D01*
G75*
G02*
X155470000Y-113170000I75000J0D01*
G01*
X156870000Y-113170000D01*
G75*
G02*
X156945000Y-113245000I0J-75000D01*
G01*
X156945000Y-113395000D01*
G75*
G02*
X156870000Y-113470000I-75000J0D01*
G01*
X155470000Y-113470000D01*
G75*
G02*
X155395000Y-113395000I0J75000D01*
G01*
G37*
%TD.AperFunction*%
%TO.P,U7,44*%
%TO.N,/SignalProcessing/LEDB_G*%
%TA.AperFunction,SMDPad,CuDef*%
G36*
G01*
X155395000Y-113895000D02*
X155395000Y-113745000D01*
G75*
G02*
X155470000Y-113670000I75000J0D01*
G01*
X156870000Y-113670000D01*
G75*
G02*
X156945000Y-113745000I0J-75000D01*
G01*
X156945000Y-113895000D01*
G75*
G02*
X156870000Y-113970000I-75000J0D01*
G01*
X155470000Y-113970000D01*
G75*
G02*
X155395000Y-113895000I0J75000D01*
G01*
G37*
%TD.AperFunction*%
%TO.P,U7,43*%
%TO.N,/SignalProcessing/LEDB_R*%
%TA.AperFunction,SMDPad,CuDef*%
G36*
G01*
X155395000Y-114395000D02*
X155395000Y-114245000D01*
G75*
G02*
X155470000Y-114170000I75000J0D01*
G01*
X156870000Y-114170000D01*
G75*
G02*
X156945000Y-114245000I0J-75000D01*
G01*
X156945000Y-114395000D01*
G75*
G02*
X156870000Y-114470000I-75000J0D01*
G01*
X155470000Y-114470000D01*
G75*
G02*
X155395000Y-114395000I0J75000D01*
G01*
G37*
%TD.AperFunction*%
%TO.P,U7,42*%
%TO.N,Net-(U7-Pad42)*%
%TA.AperFunction,SMDPad,CuDef*%
G36*
G01*
X155395000Y-114895000D02*
X155395000Y-114745000D01*
G75*
G02*
X155470000Y-114670000I75000J0D01*
G01*
X156870000Y-114670000D01*
G75*
G02*
X156945000Y-114745000I0J-75000D01*
G01*
X156945000Y-114895000D01*
G75*
G02*
X156870000Y-114970000I-75000J0D01*
G01*
X155470000Y-114970000D01*
G75*
G02*
X155395000Y-114895000I0J75000D01*
G01*
G37*
%TD.AperFunction*%
%TO.P,U7,41*%
%TO.N,/MicroSD/uSD_Detect*%
%TA.AperFunction,SMDPad,CuDef*%
G36*
G01*
X155395000Y-115395000D02*
X155395000Y-115245000D01*
G75*
G02*
X155470000Y-115170000I75000J0D01*
G01*
X156870000Y-115170000D01*
G75*
G02*
X156945000Y-115245000I0J-75000D01*
G01*
X156945000Y-115395000D01*
G75*
G02*
X156870000Y-115470000I-75000J0D01*
G01*
X155470000Y-115470000D01*
G75*
G02*
X155395000Y-115395000I0J75000D01*
G01*
G37*
%TD.AperFunction*%
%TO.P,U7,40*%
%TO.N,/MicroSD/uSD_D1*%
%TA.AperFunction,SMDPad,CuDef*%
G36*
G01*
X155395000Y-115895000D02*
X155395000Y-115745000D01*
G75*
G02*
X155470000Y-115670000I75000J0D01*
G01*
X156870000Y-115670000D01*
G75*
G02*
X156945000Y-115745000I0J-75000D01*
G01*
X156945000Y-115895000D01*
G75*
G02*
X156870000Y-115970000I-75000J0D01*
G01*
X155470000Y-115970000D01*
G75*
G02*
X155395000Y-115895000I0J75000D01*
G01*
G37*
%TD.AperFunction*%
%TO.P,U7,39*%
%TO.N,/MicroSD/uSD_D0*%
%TA.AperFunction,SMDPad,CuDef*%
G36*
G01*
X155395000Y-116395000D02*
X155395000Y-116245000D01*
G75*
G02*
X155470000Y-116170000I75000J0D01*
G01*
X156870000Y-116170000D01*
G75*
G02*
X156945000Y-116245000I0J-75000D01*
G01*
X156945000Y-116395000D01*
G75*
G02*
X156870000Y-116470000I-75000J0D01*
G01*
X155470000Y-116470000D01*
G75*
G02*
X155395000Y-116395000I0J75000D01*
G01*
G37*
%TD.AperFunction*%
%TO.P,U7,38*%
%TO.N,Net-(U7-Pad38)*%
%TA.AperFunction,SMDPad,CuDef*%
G36*
G01*
X155395000Y-116895000D02*
X155395000Y-116745000D01*
G75*
G02*
X155470000Y-116670000I75000J0D01*
G01*
X156870000Y-116670000D01*
G75*
G02*
X156945000Y-116745000I0J-75000D01*
G01*
X156945000Y-116895000D01*
G75*
G02*
X156870000Y-116970000I-75000J0D01*
G01*
X155470000Y-116970000D01*
G75*
G02*
X155395000Y-116895000I0J75000D01*
G01*
G37*
%TD.AperFunction*%
%TO.P,U7,37*%
%TO.N,/InputSignal/ADIN_MCLK*%
%TA.AperFunction,SMDPad,CuDef*%
G36*
G01*
X155395000Y-117395000D02*
X155395000Y-117245000D01*
G75*
G02*
X155470000Y-117170000I75000J0D01*
G01*
X156870000Y-117170000D01*
G75*
G02*
X156945000Y-117245000I0J-75000D01*
G01*
X156945000Y-117395000D01*
G75*
G02*
X156870000Y-117470000I-75000J0D01*
G01*
X155470000Y-117470000D01*
G75*
G02*
X155395000Y-117395000I0J75000D01*
G01*
G37*
%TD.AperFunction*%
%TO.P,U7,36*%
%TO.N,/SignalRelay/FX_OUT*%
%TA.AperFunction,SMDPad,CuDef*%
G36*
G01*
X155395000Y-117895000D02*
X155395000Y-117745000D01*
G75*
G02*
X155470000Y-117670000I75000J0D01*
G01*
X156870000Y-117670000D01*
G75*
G02*
X156945000Y-117745000I0J-75000D01*
G01*
X156945000Y-117895000D01*
G75*
G02*
X156870000Y-117970000I-75000J0D01*
G01*
X155470000Y-117970000D01*
G75*
G02*
X155395000Y-117895000I0J75000D01*
G01*
G37*
%TD.AperFunction*%
%TO.P,U7,35*%
%TO.N,/SignalRelay/FX_IN*%
%TA.AperFunction,SMDPad,CuDef*%
G36*
G01*
X155395000Y-118395000D02*
X155395000Y-118245000D01*
G75*
G02*
X155470000Y-118170000I75000J0D01*
G01*
X156870000Y-118170000D01*
G75*
G02*
X156945000Y-118245000I0J-75000D01*
G01*
X156945000Y-118395000D01*
G75*
G02*
X156870000Y-118470000I-75000J0D01*
G01*
X155470000Y-118470000D01*
G75*
G02*
X155395000Y-118395000I0J75000D01*
G01*
G37*
%TD.AperFunction*%
%TO.P,U7,34*%
%TO.N,/InputSignal/ADIN_SCLK*%
%TA.AperFunction,SMDPad,CuDef*%
G36*
G01*
X155395000Y-118895000D02*
X155395000Y-118745000D01*
G75*
G02*
X155470000Y-118670000I75000J0D01*
G01*
X156870000Y-118670000D01*
G75*
G02*
X156945000Y-118745000I0J-75000D01*
G01*
X156945000Y-118895000D01*
G75*
G02*
X156870000Y-118970000I-75000J0D01*
G01*
X155470000Y-118970000D01*
G75*
G02*
X155395000Y-118895000I0J75000D01*
G01*
G37*
%TD.AperFunction*%
%TO.P,U7,33*%
%TO.N,/InputSignal/ADIN_LRCK*%
%TA.AperFunction,SMDPad,CuDef*%
G36*
G01*
X155395000Y-119395000D02*
X155395000Y-119245000D01*
G75*
G02*
X155470000Y-119170000I75000J0D01*
G01*
X156870000Y-119170000D01*
G75*
G02*
X156945000Y-119245000I0J-75000D01*
G01*
X156945000Y-119395000D01*
G75*
G02*
X156870000Y-119470000I-75000J0D01*
G01*
X155470000Y-119470000D01*
G75*
G02*
X155395000Y-119395000I0J75000D01*
G01*
G37*
%TD.AperFunction*%
%TO.P,U7,32*%
%TO.N,+3V3*%
%TA.AperFunction,SMDPad,CuDef*%
G36*
G01*
X154095000Y-121945000D02*
X154095000Y-120545000D01*
G75*
G02*
X154170000Y-120470000I75000J0D01*
G01*
X154320000Y-120470000D01*
G75*
G02*
X154395000Y-120545000I0J-75000D01*
G01*
X154395000Y-121945000D01*
G75*
G02*
X154320000Y-122020000I-75000J0D01*
G01*
X154170000Y-122020000D01*
G75*
G02*
X154095000Y-121945000I0J75000D01*
G01*
G37*
%TD.AperFunction*%
%TO.P,U7,31*%
%TO.N,/SignalProcessing/VCAP1*%
%TA.AperFunction,SMDPad,CuDef*%
G36*
G01*
X153595000Y-121945000D02*
X153595000Y-120545000D01*
G75*
G02*
X153670000Y-120470000I75000J0D01*
G01*
X153820000Y-120470000D01*
G75*
G02*
X153895000Y-120545000I0J-75000D01*
G01*
X153895000Y-121945000D01*
G75*
G02*
X153820000Y-122020000I-75000J0D01*
G01*
X153670000Y-122020000D01*
G75*
G02*
X153595000Y-121945000I0J75000D01*
G01*
G37*
%TD.AperFunction*%
%TO.P,U7,30*%
%TO.N,Net-(U7-Pad30)*%
%TA.AperFunction,SMDPad,CuDef*%
G36*
G01*
X153095000Y-121945000D02*
X153095000Y-120545000D01*
G75*
G02*
X153170000Y-120470000I75000J0D01*
G01*
X153320000Y-120470000D01*
G75*
G02*
X153395000Y-120545000I0J-75000D01*
G01*
X153395000Y-121945000D01*
G75*
G02*
X153320000Y-122020000I-75000J0D01*
G01*
X153170000Y-122020000D01*
G75*
G02*
X153095000Y-121945000I0J75000D01*
G01*
G37*
%TD.AperFunction*%
%TO.P,U7,29*%
%TO.N,Net-(U7-Pad29)*%
%TA.AperFunction,SMDPad,CuDef*%
G36*
G01*
X152595000Y-121945000D02*
X152595000Y-120545000D01*
G75*
G02*
X152670000Y-120470000I75000J0D01*
G01*
X152820000Y-120470000D01*
G75*
G02*
X152895000Y-120545000I0J-75000D01*
G01*
X152895000Y-121945000D01*
G75*
G02*
X152820000Y-122020000I-75000J0D01*
G01*
X152670000Y-122020000D01*
G75*
G02*
X152595000Y-121945000I0J75000D01*
G01*
G37*
%TD.AperFunction*%
%TO.P,U7,28*%
%TO.N,/SignalProcessing/LEDA_B*%
%TA.AperFunction,SMDPad,CuDef*%
G36*
G01*
X152095000Y-121945000D02*
X152095000Y-120545000D01*
G75*
G02*
X152170000Y-120470000I75000J0D01*
G01*
X152320000Y-120470000D01*
G75*
G02*
X152395000Y-120545000I0J-75000D01*
G01*
X152395000Y-121945000D01*
G75*
G02*
X152320000Y-122020000I-75000J0D01*
G01*
X152170000Y-122020000D01*
G75*
G02*
X152095000Y-121945000I0J75000D01*
G01*
G37*
%TD.AperFunction*%
%TO.P,U7,27*%
%TO.N,/SignalProcessing/LEDA_G*%
%TA.AperFunction,SMDPad,CuDef*%
G36*
G01*
X151595000Y-121945000D02*
X151595000Y-120545000D01*
G75*
G02*
X151670000Y-120470000I75000J0D01*
G01*
X151820000Y-120470000D01*
G75*
G02*
X151895000Y-120545000I0J-75000D01*
G01*
X151895000Y-121945000D01*
G75*
G02*
X151820000Y-122020000I-75000J0D01*
G01*
X151670000Y-122020000D01*
G75*
G02*
X151595000Y-121945000I0J75000D01*
G01*
G37*
%TD.AperFunction*%
%TO.P,U7,26*%
%TO.N,/SignalProcessing/LEDA_R*%
%TA.AperFunction,SMDPad,CuDef*%
G36*
G01*
X151095000Y-121945000D02*
X151095000Y-120545000D01*
G75*
G02*
X151170000Y-120470000I75000J0D01*
G01*
X151320000Y-120470000D01*
G75*
G02*
X151395000Y-120545000I0J-75000D01*
G01*
X151395000Y-121945000D01*
G75*
G02*
X151320000Y-122020000I-75000J0D01*
G01*
X151170000Y-122020000D01*
G75*
G02*
X151095000Y-121945000I0J75000D01*
G01*
G37*
%TD.AperFunction*%
%TO.P,U7,25*%
%TO.N,Net-(U7-Pad25)*%
%TA.AperFunction,SMDPad,CuDef*%
G36*
G01*
X150595000Y-121945000D02*
X150595000Y-120545000D01*
G75*
G02*
X150670000Y-120470000I75000J0D01*
G01*
X150820000Y-120470000D01*
G75*
G02*
X150895000Y-120545000I0J-75000D01*
G01*
X150895000Y-121945000D01*
G75*
G02*
X150820000Y-122020000I-75000J0D01*
G01*
X150670000Y-122020000D01*
G75*
G02*
X150595000Y-121945000I0J75000D01*
G01*
G37*
%TD.AperFunction*%
%TO.P,U7,24*%
%TO.N,Net-(U7-Pad24)*%
%TA.AperFunction,SMDPad,CuDef*%
G36*
G01*
X150095000Y-121945000D02*
X150095000Y-120545000D01*
G75*
G02*
X150170000Y-120470000I75000J0D01*
G01*
X150320000Y-120470000D01*
G75*
G02*
X150395000Y-120545000I0J-75000D01*
G01*
X150395000Y-121945000D01*
G75*
G02*
X150320000Y-122020000I-75000J0D01*
G01*
X150170000Y-122020000D01*
G75*
G02*
X150095000Y-121945000I0J75000D01*
G01*
G37*
%TD.AperFunction*%
%TO.P,U7,23*%
%TO.N,Net-(U7-Pad23)*%
%TA.AperFunction,SMDPad,CuDef*%
G36*
G01*
X149595000Y-121945000D02*
X149595000Y-120545000D01*
G75*
G02*
X149670000Y-120470000I75000J0D01*
G01*
X149820000Y-120470000D01*
G75*
G02*
X149895000Y-120545000I0J-75000D01*
G01*
X149895000Y-121945000D01*
G75*
G02*
X149820000Y-122020000I-75000J0D01*
G01*
X149670000Y-122020000D01*
G75*
G02*
X149595000Y-121945000I0J75000D01*
G01*
G37*
%TD.AperFunction*%
%TO.P,U7,22*%
%TO.N,Net-(U7-Pad22)*%
%TA.AperFunction,SMDPad,CuDef*%
G36*
G01*
X149095000Y-121945000D02*
X149095000Y-120545000D01*
G75*
G02*
X149170000Y-120470000I75000J0D01*
G01*
X149320000Y-120470000D01*
G75*
G02*
X149395000Y-120545000I0J-75000D01*
G01*
X149395000Y-121945000D01*
G75*
G02*
X149320000Y-122020000I-75000J0D01*
G01*
X149170000Y-122020000D01*
G75*
G02*
X149095000Y-121945000I0J75000D01*
G01*
G37*
%TD.AperFunction*%
%TO.P,U7,21*%
%TO.N,Net-(U7-Pad21)*%
%TA.AperFunction,SMDPad,CuDef*%
G36*
G01*
X148595000Y-121945000D02*
X148595000Y-120545000D01*
G75*
G02*
X148670000Y-120470000I75000J0D01*
G01*
X148820000Y-120470000D01*
G75*
G02*
X148895000Y-120545000I0J-75000D01*
G01*
X148895000Y-121945000D01*
G75*
G02*
X148820000Y-122020000I-75000J0D01*
G01*
X148670000Y-122020000D01*
G75*
G02*
X148595000Y-121945000I0J75000D01*
G01*
G37*
%TD.AperFunction*%
%TO.P,U7,20*%
%TO.N,Net-(U7-Pad20)*%
%TA.AperFunction,SMDPad,CuDef*%
G36*
G01*
X148095000Y-121945000D02*
X148095000Y-120545000D01*
G75*
G02*
X148170000Y-120470000I75000J0D01*
G01*
X148320000Y-120470000D01*
G75*
G02*
X148395000Y-120545000I0J-75000D01*
G01*
X148395000Y-121945000D01*
G75*
G02*
X148320000Y-122020000I-75000J0D01*
G01*
X148170000Y-122020000D01*
G75*
G02*
X148095000Y-121945000I0J75000D01*
G01*
G37*
%TD.AperFunction*%
%TO.P,U7,19*%
%TO.N,+3V3*%
%TA.AperFunction,SMDPad,CuDef*%
G36*
G01*
X147595000Y-121945000D02*
X147595000Y-120545000D01*
G75*
G02*
X147670000Y-120470000I75000J0D01*
G01*
X147820000Y-120470000D01*
G75*
G02*
X147895000Y-120545000I0J-75000D01*
G01*
X147895000Y-121945000D01*
G75*
G02*
X147820000Y-122020000I-75000J0D01*
G01*
X147670000Y-122020000D01*
G75*
G02*
X147595000Y-121945000I0J75000D01*
G01*
G37*
%TD.AperFunction*%
%TO.P,U7,18*%
%TO.N,GND*%
%TA.AperFunction,SMDPad,CuDef*%
G36*
G01*
X147095000Y-121945000D02*
X147095000Y-120545000D01*
G75*
G02*
X147170000Y-120470000I75000J0D01*
G01*
X147320000Y-120470000D01*
G75*
G02*
X147395000Y-120545000I0J-75000D01*
G01*
X147395000Y-121945000D01*
G75*
G02*
X147320000Y-122020000I-75000J0D01*
G01*
X147170000Y-122020000D01*
G75*
G02*
X147095000Y-121945000I0J75000D01*
G01*
G37*
%TD.AperFunction*%
%TO.P,U7,17*%
%TO.N,Net-(U7-Pad17)*%
%TA.AperFunction,SMDPad,CuDef*%
G36*
G01*
X146595000Y-121945000D02*
X146595000Y-120545000D01*
G75*
G02*
X146670000Y-120470000I75000J0D01*
G01*
X146820000Y-120470000D01*
G75*
G02*
X146895000Y-120545000I0J-75000D01*
G01*
X146895000Y-121945000D01*
G75*
G02*
X146820000Y-122020000I-75000J0D01*
G01*
X146670000Y-122020000D01*
G75*
G02*
X146595000Y-121945000I0J75000D01*
G01*
G37*
%TD.AperFunction*%
%TO.P,U7,16*%
%TO.N,/ExtInput/UserPotB_IN*%
%TA.AperFunction,SMDPad,CuDef*%
G36*
G01*
X144045000Y-119395000D02*
X144045000Y-119245000D01*
G75*
G02*
X144120000Y-119170000I75000J0D01*
G01*
X145520000Y-119170000D01*
G75*
G02*
X145595000Y-119245000I0J-75000D01*
G01*
X145595000Y-119395000D01*
G75*
G02*
X145520000Y-119470000I-75000J0D01*
G01*
X144120000Y-119470000D01*
G75*
G02*
X144045000Y-119395000I0J75000D01*
G01*
G37*
%TD.AperFunction*%
%TO.P,U7,15*%
%TO.N,/ExtInput/UserPotA_IN*%
%TA.AperFunction,SMDPad,CuDef*%
G36*
G01*
X144045000Y-118895000D02*
X144045000Y-118745000D01*
G75*
G02*
X144120000Y-118670000I75000J0D01*
G01*
X145520000Y-118670000D01*
G75*
G02*
X145595000Y-118745000I0J-75000D01*
G01*
X145595000Y-118895000D01*
G75*
G02*
X145520000Y-118970000I-75000J0D01*
G01*
X144120000Y-118970000D01*
G75*
G02*
X144045000Y-118895000I0J75000D01*
G01*
G37*
%TD.AperFunction*%
%TO.P,U7,14*%
%TO.N,/ExtInput/FootExp_IN*%
%TA.AperFunction,SMDPad,CuDef*%
G36*
G01*
X144045000Y-118395000D02*
X144045000Y-118245000D01*
G75*
G02*
X144120000Y-118170000I75000J0D01*
G01*
X145520000Y-118170000D01*
G75*
G02*
X145595000Y-118245000I0J-75000D01*
G01*
X145595000Y-118395000D01*
G75*
G02*
X145520000Y-118470000I-75000J0D01*
G01*
X144120000Y-118470000D01*
G75*
G02*
X144045000Y-118395000I0J75000D01*
G01*
G37*
%TD.AperFunction*%
%TO.P,U7,13*%
%TO.N,/SignalProcessing/VDDA*%
%TA.AperFunction,SMDPad,CuDef*%
G36*
G01*
X144045000Y-117895000D02*
X144045000Y-117745000D01*
G75*
G02*
X144120000Y-117670000I75000J0D01*
G01*
X145520000Y-117670000D01*
G75*
G02*
X145595000Y-117745000I0J-75000D01*
G01*
X145595000Y-117895000D01*
G75*
G02*
X145520000Y-117970000I-75000J0D01*
G01*
X144120000Y-117970000D01*
G75*
G02*
X144045000Y-117895000I0J75000D01*
G01*
G37*
%TD.AperFunction*%
%TO.P,U7,12*%
%TO.N,GND*%
%TA.AperFunction,SMDPad,CuDef*%
G36*
G01*
X144045000Y-117395000D02*
X144045000Y-117245000D01*
G75*
G02*
X144120000Y-117170000I75000J0D01*
G01*
X145520000Y-117170000D01*
G75*
G02*
X145595000Y-117245000I0J-75000D01*
G01*
X145595000Y-117395000D01*
G75*
G02*
X145520000Y-117470000I-75000J0D01*
G01*
X144120000Y-117470000D01*
G75*
G02*
X144045000Y-117395000I0J75000D01*
G01*
G37*
%TD.AperFunction*%
%TO.P,U7,11*%
%TO.N,Net-(U7-Pad11)*%
%TA.AperFunction,SMDPad,CuDef*%
G36*
G01*
X144045000Y-116895000D02*
X144045000Y-116745000D01*
G75*
G02*
X144120000Y-116670000I75000J0D01*
G01*
X145520000Y-116670000D01*
G75*
G02*
X145595000Y-116745000I0J-75000D01*
G01*
X145595000Y-116895000D01*
G75*
G02*
X145520000Y-116970000I-75000J0D01*
G01*
X144120000Y-116970000D01*
G75*
G02*
X144045000Y-116895000I0J75000D01*
G01*
G37*
%TD.AperFunction*%
%TO.P,U7,10*%
%TO.N,/ExtInput/UserSwitchB_IN*%
%TA.AperFunction,SMDPad,CuDef*%
G36*
G01*
X144045000Y-116395000D02*
X144045000Y-116245000D01*
G75*
G02*
X144120000Y-116170000I75000J0D01*
G01*
X145520000Y-116170000D01*
G75*
G02*
X145595000Y-116245000I0J-75000D01*
G01*
X145595000Y-116395000D01*
G75*
G02*
X145520000Y-116470000I-75000J0D01*
G01*
X144120000Y-116470000D01*
G75*
G02*
X144045000Y-116395000I0J75000D01*
G01*
G37*
%TD.AperFunction*%
%TO.P,U7,9*%
%TO.N,/ExtInput/UserSwitchA_IN*%
%TA.AperFunction,SMDPad,CuDef*%
G36*
G01*
X144045000Y-115895000D02*
X144045000Y-115745000D01*
G75*
G02*
X144120000Y-115670000I75000J0D01*
G01*
X145520000Y-115670000D01*
G75*
G02*
X145595000Y-115745000I0J-75000D01*
G01*
X145595000Y-115895000D01*
G75*
G02*
X145520000Y-115970000I-75000J0D01*
G01*
X144120000Y-115970000D01*
G75*
G02*
X144045000Y-115895000I0J75000D01*
G01*
G37*
%TD.AperFunction*%
%TO.P,U7,8*%
%TO.N,/SignalProcessing/RelayCoil_OUT*%
%TA.AperFunction,SMDPad,CuDef*%
G36*
G01*
X144045000Y-115395000D02*
X144045000Y-115245000D01*
G75*
G02*
X144120000Y-115170000I75000J0D01*
G01*
X145520000Y-115170000D01*
G75*
G02*
X145595000Y-115245000I0J-75000D01*
G01*
X145595000Y-115395000D01*
G75*
G02*
X145520000Y-115470000I-75000J0D01*
G01*
X144120000Y-115470000D01*
G75*
G02*
X144045000Y-115395000I0J75000D01*
G01*
G37*
%TD.AperFunction*%
%TO.P,U7,7*%
%TO.N,/SignalProcessing/NRST*%
%TA.AperFunction,SMDPad,CuDef*%
G36*
G01*
X144045000Y-114895000D02*
X144045000Y-114745000D01*
G75*
G02*
X144120000Y-114670000I75000J0D01*
G01*
X145520000Y-114670000D01*
G75*
G02*
X145595000Y-114745000I0J-75000D01*
G01*
X145595000Y-114895000D01*
G75*
G02*
X145520000Y-114970000I-75000J0D01*
G01*
X144120000Y-114970000D01*
G75*
G02*
X144045000Y-114895000I0J75000D01*
G01*
G37*
%TD.AperFunction*%
%TO.P,U7,6*%
%TO.N,Net-(U7-Pad6)*%
%TA.AperFunction,SMDPad,CuDef*%
G36*
G01*
X144045000Y-114395000D02*
X144045000Y-114245000D01*
G75*
G02*
X144120000Y-114170000I75000J0D01*
G01*
X145520000Y-114170000D01*
G75*
G02*
X145595000Y-114245000I0J-75000D01*
G01*
X145595000Y-114395000D01*
G75*
G02*
X145520000Y-114470000I-75000J0D01*
G01*
X144120000Y-114470000D01*
G75*
G02*
X144045000Y-114395000I0J75000D01*
G01*
G37*
%TD.AperFunction*%
%TO.P,U7,5*%
%TO.N,Net-(U7-Pad5)*%
%TA.AperFunction,SMDPad,CuDef*%
G36*
G01*
X144045000Y-113895000D02*
X144045000Y-113745000D01*
G75*
G02*
X144120000Y-113670000I75000J0D01*
G01*
X145520000Y-113670000D01*
G75*
G02*
X145595000Y-113745000I0J-75000D01*
G01*
X145595000Y-113895000D01*
G75*
G02*
X145520000Y-113970000I-75000J0D01*
G01*
X144120000Y-113970000D01*
G75*
G02*
X144045000Y-113895000I0J75000D01*
G01*
G37*
%TD.AperFunction*%
%TO.P,U7,4*%
%TO.N,Net-(U7-Pad4)*%
%TA.AperFunction,SMDPad,CuDef*%
G36*
G01*
X144045000Y-113395000D02*
X144045000Y-113245000D01*
G75*
G02*
X144120000Y-113170000I75000J0D01*
G01*
X145520000Y-113170000D01*
G75*
G02*
X145595000Y-113245000I0J-75000D01*
G01*
X145595000Y-113395000D01*
G75*
G02*
X145520000Y-113470000I-75000J0D01*
G01*
X144120000Y-113470000D01*
G75*
G02*
X144045000Y-113395000I0J75000D01*
G01*
G37*
%TD.AperFunction*%
%TO.P,U7,3*%
%TO.N,/ExtInput/FootSwitchB_IN*%
%TA.AperFunction,SMDPad,CuDef*%
G36*
G01*
X144045000Y-112895000D02*
X144045000Y-112745000D01*
G75*
G02*
X144120000Y-112670000I75000J0D01*
G01*
X145520000Y-112670000D01*
G75*
G02*
X145595000Y-112745000I0J-75000D01*
G01*
X145595000Y-112895000D01*
G75*
G02*
X145520000Y-112970000I-75000J0D01*
G01*
X144120000Y-112970000D01*
G75*
G02*
X144045000Y-112895000I0J75000D01*
G01*
G37*
%TD.AperFunction*%
%TO.P,U7,2*%
%TO.N,/ExtInput/FootSwitchA_IN*%
%TA.AperFunction,SMDPad,CuDef*%
G36*
G01*
X144045000Y-112395000D02*
X144045000Y-112245000D01*
G75*
G02*
X144120000Y-112170000I75000J0D01*
G01*
X145520000Y-112170000D01*
G75*
G02*
X145595000Y-112245000I0J-75000D01*
G01*
X145595000Y-112395000D01*
G75*
G02*
X145520000Y-112470000I-75000J0D01*
G01*
X144120000Y-112470000D01*
G75*
G02*
X144045000Y-112395000I0J75000D01*
G01*
G37*
%TD.AperFunction*%
%TO.P,U7,1*%
%TO.N,+3V3*%
%TA.AperFunction,SMDPad,CuDef*%
G36*
G01*
X144045000Y-111895000D02*
X144045000Y-111745000D01*
G75*
G02*
X144120000Y-111670000I75000J0D01*
G01*
X145520000Y-111670000D01*
G75*
G02*
X145595000Y-111745000I0J-75000D01*
G01*
X145595000Y-111895000D01*
G75*
G02*
X145520000Y-111970000I-75000J0D01*
G01*
X144120000Y-111970000D01*
G75*
G02*
X144045000Y-111895000I0J75000D01*
G01*
G37*
%TD.AperFunction*%
%TD*%
D13*
%TO.P,D2,2*%
%TO.N,GND*%
X150244000Y-130048000D03*
%TO.P,D2,1*%
%TO.N,/SignalProcessing/RelayCoil_OUT*%
X147444000Y-130048000D03*
%TD*%
D14*
%TO.P,J3,10*%
%TO.N,/SignalProcessing/NRST*%
X147955000Y-100756000D03*
%TO.P,J3,9*%
%TO.N,GND*%
X147955000Y-96856000D03*
%TO.P,J3,8*%
%TO.N,Net-(J3-Pad8)*%
X149225000Y-100756000D03*
%TO.P,J3,7*%
%TO.N,Net-(J3-Pad7)*%
X149225000Y-96856000D03*
%TO.P,J3,6*%
%TO.N,/SignalProcessing/SWO*%
X150495000Y-100756000D03*
%TO.P,J3,5*%
%TO.N,GND*%
X150495000Y-96856000D03*
%TO.P,J3,4*%
%TO.N,/SignalProcessing/SWCLK*%
X151765000Y-100756000D03*
%TO.P,J3,3*%
%TO.N,GND*%
X151765000Y-96856000D03*
%TO.P,J3,2*%
%TO.N,/SignalProcessing/SWDIO*%
X153035000Y-100756000D03*
%TO.P,J3,1*%
%TO.N,+3V3*%
X153035000Y-96856000D03*
%TD*%
D15*
%TO.P,U6,5*%
%TO.N,+3V3*%
X179875000Y-115377000D03*
%TO.P,U6,4*%
%TO.N,Net-(R8-Pad2)*%
X179875000Y-113477000D03*
%TO.P,U6,3*%
%TO.N,Net-(J5-Pad1)*%
X182075000Y-113477000D03*
%TO.P,U6,2*%
%TO.N,GND*%
X182075000Y-114427000D03*
%TO.P,U6,1*%
%TO.N,Net-(R8-Pad2)*%
X182075000Y-115377000D03*
%TD*%
D16*
%TO.P,U5,3*%
%TO.N,Net-(C28-Pad1)*%
X113538000Y-76470000D03*
%TO.P,U5,2*%
%TO.N,+3V3*%
X114488000Y-78470000D03*
%TO.P,U5,1*%
%TO.N,GND*%
X112588000Y-78470000D03*
%TD*%
D17*
%TO.P,U3,10*%
%TO.N,Net-(C12-Pad2)*%
X106435000Y-115300000D03*
%TO.P,U3,9*%
%TO.N,/OutputSignal/VA*%
X106435000Y-114800000D03*
%TO.P,U3,8*%
%TO.N,GND*%
X106435000Y-114300000D03*
%TO.P,U3,7*%
%TO.N,Net-(U3-Pad7)*%
X106435000Y-113800000D03*
%TO.P,U3,6*%
%TO.N,/OutputSignal/FILT*%
X106435000Y-113300000D03*
%TO.P,U3,5*%
%TO.N,/OutputSignal/VQ*%
X110735000Y-113300000D03*
%TO.P,U3,4*%
%TO.N,/InputSignal/ADIN_MCLK*%
X110735000Y-113800000D03*
%TO.P,U3,3*%
%TO.N,/InputSignal/ADIN_LRCK*%
X110735000Y-114300000D03*
%TO.P,U3,2*%
%TO.N,/InputSignal/ADIN_SCLK*%
X110735000Y-114800000D03*
%TO.P,U3,1*%
%TO.N,/OutputSignal/ADOUT_SDIN*%
X110735000Y-115300000D03*
%TD*%
D18*
%TO.P,U2,5*%
%TO.N,+3V3*%
X181254000Y-132776000D03*
%TO.P,U2,4*%
%TO.N,/InputSignal/ADIN_SDOUT*%
X181254000Y-130876000D03*
%TO.P,U2,3*%
%TO.N,GND*%
X183954000Y-130876000D03*
%TO.P,U2,2*%
%TO.N,/InputSignal/SDOUT*%
X183954000Y-131826000D03*
%TO.P,U2,1*%
%TO.N,+3V3*%
X183954000Y-132776000D03*
%TD*%
D17*
%TO.P,U1,10*%
%TO.N,/InputSignal/VA*%
X192523000Y-123968000D03*
%TO.P,U1,9*%
%TO.N,GND*%
X192523000Y-124468000D03*
%TO.P,U1,8*%
%TO.N,Net-(U1-Pad8)*%
X192523000Y-124968000D03*
%TO.P,U1,7*%
%TO.N,/InputSignal/VQ*%
X192523000Y-125468000D03*
%TO.P,U1,6*%
%TO.N,Net-(C4-Pad1)*%
X192523000Y-125968000D03*
%TO.P,U1,5*%
%TO.N,/InputSignal/FILT*%
X188223000Y-125968000D03*
%TO.P,U1,4*%
%TO.N,/InputSignal/ADIN_MCLK*%
X188223000Y-125468000D03*
%TO.P,U1,3*%
%TO.N,/InputSignal/ADIN_LRCK*%
X188223000Y-124968000D03*
%TO.P,U1,2*%
%TO.N,/InputSignal/ADIN_SCLK*%
X188223000Y-124468000D03*
%TO.P,U1,1*%
%TO.N,/InputSignal/SDOUT*%
X188223000Y-123968000D03*
%TD*%
D19*
%TO.P,SW4,3*%
%TO.N,N/C*%
X137585000Y-62484000D03*
%TO.P,SW4,1*%
%TO.N,GND*%
X128185000Y-62484000D03*
%TO.P,SW4,2*%
%TO.N,/ExtInput/UserSwitchB_IN*%
X132885000Y-62484000D03*
%TD*%
%TO.P,SW3,3*%
%TO.N,N/C*%
X169465000Y-62484000D03*
%TO.P,SW3,1*%
%TO.N,GND*%
X160065000Y-62484000D03*
%TO.P,SW3,2*%
%TO.N,/ExtInput/UserSwitchA_IN*%
X164765000Y-62484000D03*
%TD*%
D20*
%TO.P,SW2,2*%
%TO.N,/ExtInput/FootSwitchB_IN*%
X168148000Y-102108000D03*
D21*
%TO.P,SW2,1*%
%TO.N,GND*%
X165608000Y-102108000D03*
%TD*%
D20*
%TO.P,SW1,2*%
%TO.N,/ExtInput/FootSwitchA_IN*%
X131191000Y-102108000D03*
D21*
%TO.P,SW1,1*%
%TO.N,GND*%
X128651000Y-102108000D03*
%TD*%
D22*
%TO.P,RV2,*%
%TO.N,*%
X130676000Y-70902000D03*
X130676000Y-80402000D03*
D23*
%TO.P,RV2,1*%
%TO.N,+3V3*%
X138176000Y-73152000D03*
%TO.P,RV2,2*%
%TO.N,Net-(R14-Pad2)*%
X138176000Y-75652000D03*
%TO.P,RV2,3*%
%TO.N,Net-(R12-Pad1)*%
X138176000Y-78152000D03*
%TD*%
D22*
%TO.P,RV1,*%
%TO.N,*%
X166504000Y-80482000D03*
X166504000Y-70982000D03*
D23*
%TO.P,RV1,1*%
%TO.N,+3V3*%
X159004000Y-78232000D03*
%TO.P,RV1,2*%
%TO.N,Net-(R13-Pad2)*%
X159004000Y-75732000D03*
%TO.P,RV1,3*%
%TO.N,Net-(R11-Pad1)*%
X159004000Y-73232000D03*
%TD*%
%TO.P,R28,2*%
%TO.N,/MicroSD/uSD_D1*%
%TA.AperFunction,SMDPad,CuDef*%
G36*
G01*
X183191999Y-62172000D02*
X184092001Y-62172000D01*
G75*
G02*
X184342000Y-62421999I0J-249999D01*
G01*
X184342000Y-63072001D01*
G75*
G02*
X184092001Y-63322000I-249999J0D01*
G01*
X183191999Y-63322000D01*
G75*
G02*
X182942000Y-63072001I0J249999D01*
G01*
X182942000Y-62421999D01*
G75*
G02*
X183191999Y-62172000I249999J0D01*
G01*
G37*
%TD.AperFunction*%
%TO.P,R28,1*%
%TO.N,+3V3*%
%TA.AperFunction,SMDPad,CuDef*%
G36*
G01*
X183191999Y-60122000D02*
X184092001Y-60122000D01*
G75*
G02*
X184342000Y-60371999I0J-249999D01*
G01*
X184342000Y-61022001D01*
G75*
G02*
X184092001Y-61272000I-249999J0D01*
G01*
X183191999Y-61272000D01*
G75*
G02*
X182942000Y-61022001I0J249999D01*
G01*
X182942000Y-60371999D01*
G75*
G02*
X183191999Y-60122000I249999J0D01*
G01*
G37*
%TD.AperFunction*%
%TD*%
%TO.P,R27,2*%
%TO.N,/MicroSD/uSD_D0*%
%TA.AperFunction,SMDPad,CuDef*%
G36*
G01*
X181159999Y-62181000D02*
X182060001Y-62181000D01*
G75*
G02*
X182310000Y-62430999I0J-249999D01*
G01*
X182310000Y-63081001D01*
G75*
G02*
X182060001Y-63331000I-249999J0D01*
G01*
X181159999Y-63331000D01*
G75*
G02*
X180910000Y-63081001I0J249999D01*
G01*
X180910000Y-62430999D01*
G75*
G02*
X181159999Y-62181000I249999J0D01*
G01*
G37*
%TD.AperFunction*%
%TO.P,R27,1*%
%TO.N,+3V3*%
%TA.AperFunction,SMDPad,CuDef*%
G36*
G01*
X181159999Y-60131000D02*
X182060001Y-60131000D01*
G75*
G02*
X182310000Y-60380999I0J-249999D01*
G01*
X182310000Y-61031001D01*
G75*
G02*
X182060001Y-61281000I-249999J0D01*
G01*
X181159999Y-61281000D01*
G75*
G02*
X180910000Y-61031001I0J249999D01*
G01*
X180910000Y-60380999D01*
G75*
G02*
X181159999Y-60131000I249999J0D01*
G01*
G37*
%TD.AperFunction*%
%TD*%
%TO.P,R26,2*%
%TO.N,/MicroSD/uSD_CMD*%
%TA.AperFunction,SMDPad,CuDef*%
G36*
G01*
X179127999Y-62172000D02*
X180028001Y-62172000D01*
G75*
G02*
X180278000Y-62421999I0J-249999D01*
G01*
X180278000Y-63072001D01*
G75*
G02*
X180028001Y-63322000I-249999J0D01*
G01*
X179127999Y-63322000D01*
G75*
G02*
X178878000Y-63072001I0J249999D01*
G01*
X178878000Y-62421999D01*
G75*
G02*
X179127999Y-62172000I249999J0D01*
G01*
G37*
%TD.AperFunction*%
%TO.P,R26,1*%
%TO.N,+3V3*%
%TA.AperFunction,SMDPad,CuDef*%
G36*
G01*
X179127999Y-60122000D02*
X180028001Y-60122000D01*
G75*
G02*
X180278000Y-60371999I0J-249999D01*
G01*
X180278000Y-61022001D01*
G75*
G02*
X180028001Y-61272000I-249999J0D01*
G01*
X179127999Y-61272000D01*
G75*
G02*
X178878000Y-61022001I0J249999D01*
G01*
X178878000Y-60371999D01*
G75*
G02*
X179127999Y-60122000I249999J0D01*
G01*
G37*
%TD.AperFunction*%
%TD*%
%TO.P,R25,2*%
%TO.N,/MicroSD/uSD_D3*%
%TA.AperFunction,SMDPad,CuDef*%
G36*
G01*
X177095999Y-62172000D02*
X177996001Y-62172000D01*
G75*
G02*
X178246000Y-62421999I0J-249999D01*
G01*
X178246000Y-63072001D01*
G75*
G02*
X177996001Y-63322000I-249999J0D01*
G01*
X177095999Y-63322000D01*
G75*
G02*
X176846000Y-63072001I0J249999D01*
G01*
X176846000Y-62421999D01*
G75*
G02*
X177095999Y-62172000I249999J0D01*
G01*
G37*
%TD.AperFunction*%
%TO.P,R25,1*%
%TO.N,+3V3*%
%TA.AperFunction,SMDPad,CuDef*%
G36*
G01*
X177095999Y-60122000D02*
X177996001Y-60122000D01*
G75*
G02*
X178246000Y-60371999I0J-249999D01*
G01*
X178246000Y-61022001D01*
G75*
G02*
X177996001Y-61272000I-249999J0D01*
G01*
X177095999Y-61272000D01*
G75*
G02*
X176846000Y-61022001I0J249999D01*
G01*
X176846000Y-60371999D01*
G75*
G02*
X177095999Y-60122000I249999J0D01*
G01*
G37*
%TD.AperFunction*%
%TD*%
%TO.P,R24,2*%
%TO.N,/MicroSD/uSD_D2*%
%TA.AperFunction,SMDPad,CuDef*%
G36*
G01*
X175063999Y-62172000D02*
X175964001Y-62172000D01*
G75*
G02*
X176214000Y-62421999I0J-249999D01*
G01*
X176214000Y-63072001D01*
G75*
G02*
X175964001Y-63322000I-249999J0D01*
G01*
X175063999Y-63322000D01*
G75*
G02*
X174814000Y-63072001I0J249999D01*
G01*
X174814000Y-62421999D01*
G75*
G02*
X175063999Y-62172000I249999J0D01*
G01*
G37*
%TD.AperFunction*%
%TO.P,R24,1*%
%TO.N,+3V3*%
%TA.AperFunction,SMDPad,CuDef*%
G36*
G01*
X175063999Y-60122000D02*
X175964001Y-60122000D01*
G75*
G02*
X176214000Y-60371999I0J-249999D01*
G01*
X176214000Y-61022001D01*
G75*
G02*
X175964001Y-61272000I-249999J0D01*
G01*
X175063999Y-61272000D01*
G75*
G02*
X174814000Y-61022001I0J249999D01*
G01*
X174814000Y-60371999D01*
G75*
G02*
X175063999Y-60122000I249999J0D01*
G01*
G37*
%TD.AperFunction*%
%TD*%
%TO.P,R23,2*%
%TO.N,/MicroSD/uSD_Detect*%
%TA.AperFunction,SMDPad,CuDef*%
G36*
G01*
X147008000Y-57219001D02*
X147008000Y-56318999D01*
G75*
G02*
X147257999Y-56069000I249999J0D01*
G01*
X147908001Y-56069000D01*
G75*
G02*
X148158000Y-56318999I0J-249999D01*
G01*
X148158000Y-57219001D01*
G75*
G02*
X147908001Y-57469000I-249999J0D01*
G01*
X147257999Y-57469000D01*
G75*
G02*
X147008000Y-57219001I0J249999D01*
G01*
G37*
%TD.AperFunction*%
%TO.P,R23,1*%
%TO.N,+3V3*%
%TA.AperFunction,SMDPad,CuDef*%
G36*
G01*
X144958000Y-57219001D02*
X144958000Y-56318999D01*
G75*
G02*
X145207999Y-56069000I249999J0D01*
G01*
X145858001Y-56069000D01*
G75*
G02*
X146108000Y-56318999I0J-249999D01*
G01*
X146108000Y-57219001D01*
G75*
G02*
X145858001Y-57469000I-249999J0D01*
G01*
X145207999Y-57469000D01*
G75*
G02*
X144958000Y-57219001I0J249999D01*
G01*
G37*
%TD.AperFunction*%
%TD*%
%TO.P,R22,2*%
%TO.N,/SignalProcessing/LEDB_B*%
%TA.AperFunction,SMDPad,CuDef*%
G36*
G01*
X160712999Y-93414000D02*
X161613001Y-93414000D01*
G75*
G02*
X161863000Y-93663999I0J-249999D01*
G01*
X161863000Y-94314001D01*
G75*
G02*
X161613001Y-94564000I-249999J0D01*
G01*
X160712999Y-94564000D01*
G75*
G02*
X160463000Y-94314001I0J249999D01*
G01*
X160463000Y-93663999D01*
G75*
G02*
X160712999Y-93414000I249999J0D01*
G01*
G37*
%TD.AperFunction*%
%TO.P,R22,1*%
%TO.N,Net-(LED2-Pad3)*%
%TA.AperFunction,SMDPad,CuDef*%
G36*
G01*
X160712999Y-91364000D02*
X161613001Y-91364000D01*
G75*
G02*
X161863000Y-91613999I0J-249999D01*
G01*
X161863000Y-92264001D01*
G75*
G02*
X161613001Y-92514000I-249999J0D01*
G01*
X160712999Y-92514000D01*
G75*
G02*
X160463000Y-92264001I0J249999D01*
G01*
X160463000Y-91613999D01*
G75*
G02*
X160712999Y-91364000I249999J0D01*
G01*
G37*
%TD.AperFunction*%
%TD*%
%TO.P,R21,2*%
%TO.N,/SignalProcessing/LEDB_G*%
%TA.AperFunction,SMDPad,CuDef*%
G36*
G01*
X172789000Y-94557001D02*
X172789000Y-93656999D01*
G75*
G02*
X173038999Y-93407000I249999J0D01*
G01*
X173689001Y-93407000D01*
G75*
G02*
X173939000Y-93656999I0J-249999D01*
G01*
X173939000Y-94557001D01*
G75*
G02*
X173689001Y-94807000I-249999J0D01*
G01*
X173038999Y-94807000D01*
G75*
G02*
X172789000Y-94557001I0J249999D01*
G01*
G37*
%TD.AperFunction*%
%TO.P,R21,1*%
%TO.N,Net-(LED2-Pad4)*%
%TA.AperFunction,SMDPad,CuDef*%
G36*
G01*
X170739000Y-94557001D02*
X170739000Y-93656999D01*
G75*
G02*
X170988999Y-93407000I249999J0D01*
G01*
X171639001Y-93407000D01*
G75*
G02*
X171889000Y-93656999I0J-249999D01*
G01*
X171889000Y-94557001D01*
G75*
G02*
X171639001Y-94807000I-249999J0D01*
G01*
X170988999Y-94807000D01*
G75*
G02*
X170739000Y-94557001I0J249999D01*
G01*
G37*
%TD.AperFunction*%
%TD*%
%TO.P,R20,2*%
%TO.N,/SignalProcessing/LEDB_R*%
%TA.AperFunction,SMDPad,CuDef*%
G36*
G01*
X172789000Y-88080001D02*
X172789000Y-87179999D01*
G75*
G02*
X173038999Y-86930000I249999J0D01*
G01*
X173689001Y-86930000D01*
G75*
G02*
X173939000Y-87179999I0J-249999D01*
G01*
X173939000Y-88080001D01*
G75*
G02*
X173689001Y-88330000I-249999J0D01*
G01*
X173038999Y-88330000D01*
G75*
G02*
X172789000Y-88080001I0J249999D01*
G01*
G37*
%TD.AperFunction*%
%TO.P,R20,1*%
%TO.N,Net-(LED2-Pad1)*%
%TA.AperFunction,SMDPad,CuDef*%
G36*
G01*
X170739000Y-88080001D02*
X170739000Y-87179999D01*
G75*
G02*
X170988999Y-86930000I249999J0D01*
G01*
X171639001Y-86930000D01*
G75*
G02*
X171889000Y-87179999I0J-249999D01*
G01*
X171889000Y-88080001D01*
G75*
G02*
X171639001Y-88330000I-249999J0D01*
G01*
X170988999Y-88330000D01*
G75*
G02*
X170739000Y-88080001I0J249999D01*
G01*
G37*
%TD.AperFunction*%
%TD*%
%TO.P,R19,2*%
%TO.N,/SignalProcessing/LEDA_B*%
%TA.AperFunction,SMDPad,CuDef*%
G36*
G01*
X124772000Y-87560999D02*
X124772000Y-88461001D01*
G75*
G02*
X124522001Y-88711000I-249999J0D01*
G01*
X123871999Y-88711000D01*
G75*
G02*
X123622000Y-88461001I0J249999D01*
G01*
X123622000Y-87560999D01*
G75*
G02*
X123871999Y-87311000I249999J0D01*
G01*
X124522001Y-87311000D01*
G75*
G02*
X124772000Y-87560999I0J-249999D01*
G01*
G37*
%TD.AperFunction*%
%TO.P,R19,1*%
%TO.N,Net-(LED1-Pad3)*%
%TA.AperFunction,SMDPad,CuDef*%
G36*
G01*
X126822000Y-87560999D02*
X126822000Y-88461001D01*
G75*
G02*
X126572001Y-88711000I-249999J0D01*
G01*
X125921999Y-88711000D01*
G75*
G02*
X125672000Y-88461001I0J249999D01*
G01*
X125672000Y-87560999D01*
G75*
G02*
X125921999Y-87311000I249999J0D01*
G01*
X126572001Y-87311000D01*
G75*
G02*
X126822000Y-87560999I0J-249999D01*
G01*
G37*
%TD.AperFunction*%
%TD*%
%TO.P,R18,2*%
%TO.N,/SignalProcessing/LEDA_G*%
%TA.AperFunction,SMDPad,CuDef*%
G36*
G01*
X124772000Y-90608999D02*
X124772000Y-91509001D01*
G75*
G02*
X124522001Y-91759000I-249999J0D01*
G01*
X123871999Y-91759000D01*
G75*
G02*
X123622000Y-91509001I0J249999D01*
G01*
X123622000Y-90608999D01*
G75*
G02*
X123871999Y-90359000I249999J0D01*
G01*
X124522001Y-90359000D01*
G75*
G02*
X124772000Y-90608999I0J-249999D01*
G01*
G37*
%TD.AperFunction*%
%TO.P,R18,1*%
%TO.N,Net-(LED1-Pad4)*%
%TA.AperFunction,SMDPad,CuDef*%
G36*
G01*
X126822000Y-90608999D02*
X126822000Y-91509001D01*
G75*
G02*
X126572001Y-91759000I-249999J0D01*
G01*
X125921999Y-91759000D01*
G75*
G02*
X125672000Y-91509001I0J249999D01*
G01*
X125672000Y-90608999D01*
G75*
G02*
X125921999Y-90359000I249999J0D01*
G01*
X126572001Y-90359000D01*
G75*
G02*
X126822000Y-90608999I0J-249999D01*
G01*
G37*
%TD.AperFunction*%
%TD*%
%TO.P,R17,2*%
%TO.N,/SignalProcessing/LEDA_R*%
%TA.AperFunction,SMDPad,CuDef*%
G36*
G01*
X124772000Y-93656999D02*
X124772000Y-94557001D01*
G75*
G02*
X124522001Y-94807000I-249999J0D01*
G01*
X123871999Y-94807000D01*
G75*
G02*
X123622000Y-94557001I0J249999D01*
G01*
X123622000Y-93656999D01*
G75*
G02*
X123871999Y-93407000I249999J0D01*
G01*
X124522001Y-93407000D01*
G75*
G02*
X124772000Y-93656999I0J-249999D01*
G01*
G37*
%TD.AperFunction*%
%TO.P,R17,1*%
%TO.N,Net-(LED1-Pad1)*%
%TA.AperFunction,SMDPad,CuDef*%
G36*
G01*
X126822000Y-93656999D02*
X126822000Y-94557001D01*
G75*
G02*
X126572001Y-94807000I-249999J0D01*
G01*
X125921999Y-94807000D01*
G75*
G02*
X125672000Y-94557001I0J249999D01*
G01*
X125672000Y-93656999D01*
G75*
G02*
X125921999Y-93407000I249999J0D01*
G01*
X126572001Y-93407000D01*
G75*
G02*
X126822000Y-93656999I0J-249999D01*
G01*
G37*
%TD.AperFunction*%
%TD*%
%TO.P,R16,2*%
%TO.N,/ExtInput/UserSwitchB_IN*%
%TA.AperFunction,SMDPad,CuDef*%
G36*
G01*
X142805999Y-62807000D02*
X143706001Y-62807000D01*
G75*
G02*
X143956000Y-63056999I0J-249999D01*
G01*
X143956000Y-63707001D01*
G75*
G02*
X143706001Y-63957000I-249999J0D01*
G01*
X142805999Y-63957000D01*
G75*
G02*
X142556000Y-63707001I0J249999D01*
G01*
X142556000Y-63056999D01*
G75*
G02*
X142805999Y-62807000I249999J0D01*
G01*
G37*
%TD.AperFunction*%
%TO.P,R16,1*%
%TO.N,+3V3*%
%TA.AperFunction,SMDPad,CuDef*%
G36*
G01*
X142805999Y-60757000D02*
X143706001Y-60757000D01*
G75*
G02*
X143956000Y-61006999I0J-249999D01*
G01*
X143956000Y-61657001D01*
G75*
G02*
X143706001Y-61907000I-249999J0D01*
G01*
X142805999Y-61907000D01*
G75*
G02*
X142556000Y-61657001I0J249999D01*
G01*
X142556000Y-61006999D01*
G75*
G02*
X142805999Y-60757000I249999J0D01*
G01*
G37*
%TD.AperFunction*%
%TD*%
%TO.P,R15,2*%
%TO.N,/ExtInput/UserSwitchA_IN*%
%TA.AperFunction,SMDPad,CuDef*%
G36*
G01*
X153854999Y-62807000D02*
X154755001Y-62807000D01*
G75*
G02*
X155005000Y-63056999I0J-249999D01*
G01*
X155005000Y-63707001D01*
G75*
G02*
X154755001Y-63957000I-249999J0D01*
G01*
X153854999Y-63957000D01*
G75*
G02*
X153605000Y-63707001I0J249999D01*
G01*
X153605000Y-63056999D01*
G75*
G02*
X153854999Y-62807000I249999J0D01*
G01*
G37*
%TD.AperFunction*%
%TO.P,R15,1*%
%TO.N,+3V3*%
%TA.AperFunction,SMDPad,CuDef*%
G36*
G01*
X153854999Y-60757000D02*
X154755001Y-60757000D01*
G75*
G02*
X155005000Y-61006999I0J-249999D01*
G01*
X155005000Y-61657001D01*
G75*
G02*
X154755001Y-61907000I-249999J0D01*
G01*
X153854999Y-61907000D01*
G75*
G02*
X153605000Y-61657001I0J249999D01*
G01*
X153605000Y-61006999D01*
G75*
G02*
X153854999Y-60757000I249999J0D01*
G01*
G37*
%TD.AperFunction*%
%TD*%
%TO.P,R14,2*%
%TO.N,Net-(R14-Pad2)*%
%TA.AperFunction,SMDPad,CuDef*%
G36*
G01*
X142298000Y-75241999D02*
X142298000Y-76142001D01*
G75*
G02*
X142048001Y-76392000I-249999J0D01*
G01*
X141397999Y-76392000D01*
G75*
G02*
X141148000Y-76142001I0J249999D01*
G01*
X141148000Y-75241999D01*
G75*
G02*
X141397999Y-74992000I249999J0D01*
G01*
X142048001Y-74992000D01*
G75*
G02*
X142298000Y-75241999I0J-249999D01*
G01*
G37*
%TD.AperFunction*%
%TO.P,R14,1*%
%TO.N,/ExtInput/UserPotB_IN*%
%TA.AperFunction,SMDPad,CuDef*%
G36*
G01*
X144348000Y-75241999D02*
X144348000Y-76142001D01*
G75*
G02*
X144098001Y-76392000I-249999J0D01*
G01*
X143447999Y-76392000D01*
G75*
G02*
X143198000Y-76142001I0J249999D01*
G01*
X143198000Y-75241999D01*
G75*
G02*
X143447999Y-74992000I249999J0D01*
G01*
X144098001Y-74992000D01*
G75*
G02*
X144348000Y-75241999I0J-249999D01*
G01*
G37*
%TD.AperFunction*%
%TD*%
%TO.P,R13,2*%
%TO.N,Net-(R13-Pad2)*%
%TA.AperFunction,SMDPad,CuDef*%
G36*
G01*
X154628000Y-76142001D02*
X154628000Y-75241999D01*
G75*
G02*
X154877999Y-74992000I249999J0D01*
G01*
X155528001Y-74992000D01*
G75*
G02*
X155778000Y-75241999I0J-249999D01*
G01*
X155778000Y-76142001D01*
G75*
G02*
X155528001Y-76392000I-249999J0D01*
G01*
X154877999Y-76392000D01*
G75*
G02*
X154628000Y-76142001I0J249999D01*
G01*
G37*
%TD.AperFunction*%
%TO.P,R13,1*%
%TO.N,/ExtInput/UserPotA_IN*%
%TA.AperFunction,SMDPad,CuDef*%
G36*
G01*
X152578000Y-76142001D02*
X152578000Y-75241999D01*
G75*
G02*
X152827999Y-74992000I249999J0D01*
G01*
X153478001Y-74992000D01*
G75*
G02*
X153728000Y-75241999I0J-249999D01*
G01*
X153728000Y-76142001D01*
G75*
G02*
X153478001Y-76392000I-249999J0D01*
G01*
X152827999Y-76392000D01*
G75*
G02*
X152578000Y-76142001I0J249999D01*
G01*
G37*
%TD.AperFunction*%
%TD*%
%TO.P,R12,2*%
%TO.N,GND*%
%TA.AperFunction,SMDPad,CuDef*%
G36*
G01*
X143198000Y-78682001D02*
X143198000Y-77781999D01*
G75*
G02*
X143447999Y-77532000I249999J0D01*
G01*
X144098001Y-77532000D01*
G75*
G02*
X144348000Y-77781999I0J-249999D01*
G01*
X144348000Y-78682001D01*
G75*
G02*
X144098001Y-78932000I-249999J0D01*
G01*
X143447999Y-78932000D01*
G75*
G02*
X143198000Y-78682001I0J249999D01*
G01*
G37*
%TD.AperFunction*%
%TO.P,R12,1*%
%TO.N,Net-(R12-Pad1)*%
%TA.AperFunction,SMDPad,CuDef*%
G36*
G01*
X141148000Y-78682001D02*
X141148000Y-77781999D01*
G75*
G02*
X141397999Y-77532000I249999J0D01*
G01*
X142048001Y-77532000D01*
G75*
G02*
X142298000Y-77781999I0J-249999D01*
G01*
X142298000Y-78682001D01*
G75*
G02*
X142048001Y-78932000I-249999J0D01*
G01*
X141397999Y-78932000D01*
G75*
G02*
X141148000Y-78682001I0J249999D01*
G01*
G37*
%TD.AperFunction*%
%TD*%
%TO.P,R11,2*%
%TO.N,GND*%
%TA.AperFunction,SMDPad,CuDef*%
G36*
G01*
X153728000Y-72701999D02*
X153728000Y-73602001D01*
G75*
G02*
X153478001Y-73852000I-249999J0D01*
G01*
X152827999Y-73852000D01*
G75*
G02*
X152578000Y-73602001I0J249999D01*
G01*
X152578000Y-72701999D01*
G75*
G02*
X152827999Y-72452000I249999J0D01*
G01*
X153478001Y-72452000D01*
G75*
G02*
X153728000Y-72701999I0J-249999D01*
G01*
G37*
%TD.AperFunction*%
%TO.P,R11,1*%
%TO.N,Net-(R11-Pad1)*%
%TA.AperFunction,SMDPad,CuDef*%
G36*
G01*
X155778000Y-72701999D02*
X155778000Y-73602001D01*
G75*
G02*
X155528001Y-73852000I-249999J0D01*
G01*
X154877999Y-73852000D01*
G75*
G02*
X154628000Y-73602001I0J249999D01*
G01*
X154628000Y-72701999D01*
G75*
G02*
X154877999Y-72452000I249999J0D01*
G01*
X155528001Y-72452000D01*
G75*
G02*
X155778000Y-72701999I0J-249999D01*
G01*
G37*
%TD.AperFunction*%
%TD*%
%TO.P,R10,2*%
%TO.N,/ExtInput/FootSwitchB_IN*%
%TA.AperFunction,SMDPad,CuDef*%
G36*
G01*
X167582000Y-99002001D02*
X167582000Y-98101999D01*
G75*
G02*
X167831999Y-97852000I249999J0D01*
G01*
X168482001Y-97852000D01*
G75*
G02*
X168732000Y-98101999I0J-249999D01*
G01*
X168732000Y-99002001D01*
G75*
G02*
X168482001Y-99252000I-249999J0D01*
G01*
X167831999Y-99252000D01*
G75*
G02*
X167582000Y-99002001I0J249999D01*
G01*
G37*
%TD.AperFunction*%
%TO.P,R10,1*%
%TO.N,+3V3*%
%TA.AperFunction,SMDPad,CuDef*%
G36*
G01*
X165532000Y-99002001D02*
X165532000Y-98101999D01*
G75*
G02*
X165781999Y-97852000I249999J0D01*
G01*
X166432001Y-97852000D01*
G75*
G02*
X166682000Y-98101999I0J-249999D01*
G01*
X166682000Y-99002001D01*
G75*
G02*
X166432001Y-99252000I-249999J0D01*
G01*
X165781999Y-99252000D01*
G75*
G02*
X165532000Y-99002001I0J249999D01*
G01*
G37*
%TD.AperFunction*%
%TD*%
%TO.P,R9,2*%
%TO.N,/ExtInput/FootSwitchA_IN*%
%TA.AperFunction,SMDPad,CuDef*%
G36*
G01*
X130625000Y-99256001D02*
X130625000Y-98355999D01*
G75*
G02*
X130874999Y-98106000I249999J0D01*
G01*
X131525001Y-98106000D01*
G75*
G02*
X131775000Y-98355999I0J-249999D01*
G01*
X131775000Y-99256001D01*
G75*
G02*
X131525001Y-99506000I-249999J0D01*
G01*
X130874999Y-99506000D01*
G75*
G02*
X130625000Y-99256001I0J249999D01*
G01*
G37*
%TD.AperFunction*%
%TO.P,R9,1*%
%TO.N,+3V3*%
%TA.AperFunction,SMDPad,CuDef*%
G36*
G01*
X128575000Y-99256001D02*
X128575000Y-98355999D01*
G75*
G02*
X128824999Y-98106000I249999J0D01*
G01*
X129475001Y-98106000D01*
G75*
G02*
X129725000Y-98355999I0J-249999D01*
G01*
X129725000Y-99256001D01*
G75*
G02*
X129475001Y-99506000I-249999J0D01*
G01*
X128824999Y-99506000D01*
G75*
G02*
X128575000Y-99256001I0J249999D01*
G01*
G37*
%TD.AperFunction*%
%TD*%
%TO.P,R8,2*%
%TO.N,Net-(R8-Pad2)*%
%TA.AperFunction,SMDPad,CuDef*%
G36*
G01*
X177107001Y-113977000D02*
X176206999Y-113977000D01*
G75*
G02*
X175957000Y-113727001I0J249999D01*
G01*
X175957000Y-113076999D01*
G75*
G02*
X176206999Y-112827000I249999J0D01*
G01*
X177107001Y-112827000D01*
G75*
G02*
X177357000Y-113076999I0J-249999D01*
G01*
X177357000Y-113727001D01*
G75*
G02*
X177107001Y-113977000I-249999J0D01*
G01*
G37*
%TD.AperFunction*%
%TO.P,R8,1*%
%TO.N,/ExtInput/FootExp_IN*%
%TA.AperFunction,SMDPad,CuDef*%
G36*
G01*
X177107001Y-116027000D02*
X176206999Y-116027000D01*
G75*
G02*
X175957000Y-115777001I0J249999D01*
G01*
X175957000Y-115126999D01*
G75*
G02*
X176206999Y-114877000I249999J0D01*
G01*
X177107001Y-114877000D01*
G75*
G02*
X177357000Y-115126999I0J-249999D01*
G01*
X177357000Y-115777001D01*
G75*
G02*
X177107001Y-116027000I-249999J0D01*
G01*
G37*
%TD.AperFunction*%
%TD*%
%TO.P,R7,2*%
%TO.N,GND*%
%TA.AperFunction,SMDPad,CuDef*%
G36*
G01*
X108769999Y-124910000D02*
X109670001Y-124910000D01*
G75*
G02*
X109920000Y-125159999I0J-249999D01*
G01*
X109920000Y-125810001D01*
G75*
G02*
X109670001Y-126060000I-249999J0D01*
G01*
X108769999Y-126060000D01*
G75*
G02*
X108520000Y-125810001I0J249999D01*
G01*
X108520000Y-125159999D01*
G75*
G02*
X108769999Y-124910000I249999J0D01*
G01*
G37*
%TD.AperFunction*%
%TO.P,R7,1*%
%TO.N,Net-(C16-Pad2)*%
%TA.AperFunction,SMDPad,CuDef*%
G36*
G01*
X108769999Y-122860000D02*
X109670001Y-122860000D01*
G75*
G02*
X109920000Y-123109999I0J-249999D01*
G01*
X109920000Y-123760001D01*
G75*
G02*
X109670001Y-124010000I-249999J0D01*
G01*
X108769999Y-124010000D01*
G75*
G02*
X108520000Y-123760001I0J249999D01*
G01*
X108520000Y-123109999D01*
G75*
G02*
X108769999Y-122860000I249999J0D01*
G01*
G37*
%TD.AperFunction*%
%TD*%
%TO.P,R6,2*%
%TO.N,Net-(C12-Pad1)*%
%TA.AperFunction,SMDPad,CuDef*%
G36*
G01*
X96069999Y-119830000D02*
X96970001Y-119830000D01*
G75*
G02*
X97220000Y-120079999I0J-249999D01*
G01*
X97220000Y-120730001D01*
G75*
G02*
X96970001Y-120980000I-249999J0D01*
G01*
X96069999Y-120980000D01*
G75*
G02*
X95820000Y-120730001I0J249999D01*
G01*
X95820000Y-120079999D01*
G75*
G02*
X96069999Y-119830000I249999J0D01*
G01*
G37*
%TD.AperFunction*%
%TO.P,R6,1*%
%TO.N,Net-(C14-Pad2)*%
%TA.AperFunction,SMDPad,CuDef*%
G36*
G01*
X96069999Y-117780000D02*
X96970001Y-117780000D01*
G75*
G02*
X97220000Y-118029999I0J-249999D01*
G01*
X97220000Y-118680001D01*
G75*
G02*
X96970001Y-118930000I-249999J0D01*
G01*
X96069999Y-118930000D01*
G75*
G02*
X95820000Y-118680001I0J249999D01*
G01*
X95820000Y-118029999D01*
G75*
G02*
X96069999Y-117780000I249999J0D01*
G01*
G37*
%TD.AperFunction*%
%TD*%
%TO.P,R5,2*%
%TO.N,GND*%
%TA.AperFunction,SMDPad,CuDef*%
G36*
G01*
X102050001Y-113850000D02*
X101149999Y-113850000D01*
G75*
G02*
X100900000Y-113600001I0J249999D01*
G01*
X100900000Y-112949999D01*
G75*
G02*
X101149999Y-112700000I249999J0D01*
G01*
X102050001Y-112700000D01*
G75*
G02*
X102300000Y-112949999I0J-249999D01*
G01*
X102300000Y-113600001D01*
G75*
G02*
X102050001Y-113850000I-249999J0D01*
G01*
G37*
%TD.AperFunction*%
%TO.P,R5,1*%
%TO.N,Net-(C12-Pad1)*%
%TA.AperFunction,SMDPad,CuDef*%
G36*
G01*
X102050001Y-115900000D02*
X101149999Y-115900000D01*
G75*
G02*
X100900000Y-115650001I0J249999D01*
G01*
X100900000Y-114999999D01*
G75*
G02*
X101149999Y-114750000I249999J0D01*
G01*
X102050001Y-114750000D01*
G75*
G02*
X102300000Y-114999999I0J-249999D01*
G01*
X102300000Y-115650001D01*
G75*
G02*
X102050001Y-115900000I-249999J0D01*
G01*
G37*
%TD.AperFunction*%
%TD*%
%TO.P,R4,2*%
%TO.N,GND*%
%TA.AperFunction,SMDPad,CuDef*%
G36*
G01*
X192844000Y-113976999D02*
X192844000Y-114877001D01*
G75*
G02*
X192594001Y-115127000I-249999J0D01*
G01*
X191943999Y-115127000D01*
G75*
G02*
X191694000Y-114877001I0J249999D01*
G01*
X191694000Y-113976999D01*
G75*
G02*
X191943999Y-113727000I249999J0D01*
G01*
X192594001Y-113727000D01*
G75*
G02*
X192844000Y-113976999I0J-249999D01*
G01*
G37*
%TD.AperFunction*%
%TO.P,R4,1*%
%TO.N,Net-(C8-Pad2)*%
%TA.AperFunction,SMDPad,CuDef*%
G36*
G01*
X194894000Y-113976999D02*
X194894000Y-114877001D01*
G75*
G02*
X194644001Y-115127000I-249999J0D01*
G01*
X193993999Y-115127000D01*
G75*
G02*
X193744000Y-114877001I0J249999D01*
G01*
X193744000Y-113976999D01*
G75*
G02*
X193993999Y-113727000I249999J0D01*
G01*
X194644001Y-113727000D01*
G75*
G02*
X194894000Y-113976999I0J-249999D01*
G01*
G37*
%TD.AperFunction*%
%TD*%
%TO.P,R3,2*%
%TO.N,+3V3*%
%TA.AperFunction,SMDPad,CuDef*%
G36*
G01*
X177603999Y-132276000D02*
X178504001Y-132276000D01*
G75*
G02*
X178754000Y-132525999I0J-249999D01*
G01*
X178754000Y-133176001D01*
G75*
G02*
X178504001Y-133426000I-249999J0D01*
G01*
X177603999Y-133426000D01*
G75*
G02*
X177354000Y-133176001I0J249999D01*
G01*
X177354000Y-132525999D01*
G75*
G02*
X177603999Y-132276000I249999J0D01*
G01*
G37*
%TD.AperFunction*%
%TO.P,R3,1*%
%TO.N,/InputSignal/ADIN_SDOUT*%
%TA.AperFunction,SMDPad,CuDef*%
G36*
G01*
X177603999Y-130226000D02*
X178504001Y-130226000D01*
G75*
G02*
X178754000Y-130475999I0J-249999D01*
G01*
X178754000Y-131126001D01*
G75*
G02*
X178504001Y-131376000I-249999J0D01*
G01*
X177603999Y-131376000D01*
G75*
G02*
X177354000Y-131126001I0J249999D01*
G01*
X177354000Y-130475999D01*
G75*
G02*
X177603999Y-130226000I249999J0D01*
G01*
G37*
%TD.AperFunction*%
%TD*%
%TO.P,R2,2*%
%TO.N,Net-(C4-Pad2)*%
%TA.AperFunction,SMDPad,CuDef*%
G36*
G01*
X188398999Y-114877000D02*
X189299001Y-114877000D01*
G75*
G02*
X189549000Y-115126999I0J-249999D01*
G01*
X189549000Y-115777001D01*
G75*
G02*
X189299001Y-116027000I-249999J0D01*
G01*
X188398999Y-116027000D01*
G75*
G02*
X188149000Y-115777001I0J249999D01*
G01*
X188149000Y-115126999D01*
G75*
G02*
X188398999Y-114877000I249999J0D01*
G01*
G37*
%TD.AperFunction*%
%TO.P,R2,1*%
%TO.N,GND*%
%TA.AperFunction,SMDPad,CuDef*%
G36*
G01*
X188398999Y-112827000D02*
X189299001Y-112827000D01*
G75*
G02*
X189549000Y-113076999I0J-249999D01*
G01*
X189549000Y-113727001D01*
G75*
G02*
X189299001Y-113977000I-249999J0D01*
G01*
X188398999Y-113977000D01*
G75*
G02*
X188149000Y-113727001I0J249999D01*
G01*
X188149000Y-113076999D01*
G75*
G02*
X188398999Y-112827000I249999J0D01*
G01*
G37*
%TD.AperFunction*%
%TD*%
%TO.P,R1,2*%
%TO.N,Net-(J1-Pad1)*%
%TA.AperFunction,SMDPad,CuDef*%
G36*
G01*
X186124001Y-113977000D02*
X185223999Y-113977000D01*
G75*
G02*
X184974000Y-113727001I0J249999D01*
G01*
X184974000Y-113076999D01*
G75*
G02*
X185223999Y-112827000I249999J0D01*
G01*
X186124001Y-112827000D01*
G75*
G02*
X186374000Y-113076999I0J-249999D01*
G01*
X186374000Y-113727001D01*
G75*
G02*
X186124001Y-113977000I-249999J0D01*
G01*
G37*
%TD.AperFunction*%
%TO.P,R1,1*%
%TO.N,Net-(C4-Pad2)*%
%TA.AperFunction,SMDPad,CuDef*%
G36*
G01*
X186124001Y-116027000D02*
X185223999Y-116027000D01*
G75*
G02*
X184974000Y-115777001I0J249999D01*
G01*
X184974000Y-115126999D01*
G75*
G02*
X185223999Y-114877000I249999J0D01*
G01*
X186124001Y-114877000D01*
G75*
G02*
X186374000Y-115126999I0J-249999D01*
G01*
X186374000Y-115777001D01*
G75*
G02*
X186124001Y-116027000I-249999J0D01*
G01*
G37*
%TD.AperFunction*%
%TD*%
%TO.P,LED2,4*%
%TO.N,Net-(LED2-Pad4)*%
X166116000Y-94107000D03*
%TO.P,LED2,3*%
%TO.N,Net-(LED2-Pad3)*%
X166116000Y-91948000D03*
%TO.P,LED2,2*%
%TO.N,GND*%
X166116000Y-89789000D03*
D24*
%TO.P,LED2,1*%
%TO.N,Net-(LED2-Pad1)*%
X166116000Y-87630000D03*
%TD*%
D23*
%TO.P,LED1,4*%
%TO.N,Net-(LED1-Pad4)*%
X131064000Y-87630000D03*
%TO.P,LED1,3*%
%TO.N,Net-(LED1-Pad3)*%
X131064000Y-89789000D03*
%TO.P,LED1,2*%
%TO.N,GND*%
X131064000Y-91948000D03*
D24*
%TO.P,LED1,1*%
%TO.N,Net-(LED1-Pad1)*%
X131064000Y-94107000D03*
%TD*%
D25*
%TO.P,JP1,2*%
%TO.N,Net-(J6-Pad10)*%
X152034000Y-56769000D03*
%TO.P,JP1,1*%
%TO.N,/MicroSD/uSD_Detect*%
X150734000Y-56769000D03*
%TD*%
D26*
%TO.P,J7,1*%
%TO.N,GNDPWR*%
X186817000Y-56134000D03*
%TD*%
D27*
%TO.P,J5,1*%
%TO.N,Net-(J5-Pad1)*%
X187388500Y-84455000D03*
%TO.P,J5,2*%
%TO.N,GND*%
X187388500Y-73025000D03*
%TO.P,J5,3*%
X200088500Y-73025000D03*
%TO.P,J5,4*%
X200088500Y-84455000D03*
%TD*%
%TO.P,J4,3*%
%TO.N,GND*%
%TA.AperFunction,ComponentPad*%
G36*
G01*
X101803000Y-75423000D02*
X101803000Y-73673000D01*
G75*
G02*
X102678000Y-72798000I875000J0D01*
G01*
X104428000Y-72798000D01*
G75*
G02*
X105303000Y-73673000I0J-875000D01*
G01*
X105303000Y-75423000D01*
G75*
G02*
X104428000Y-76298000I-875000J0D01*
G01*
X102678000Y-76298000D01*
G75*
G02*
X101803000Y-75423000I0J875000D01*
G01*
G37*
%TD.AperFunction*%
%TO.P,J4,2*%
%TO.N,Net-(D1-Pad2)*%
%TA.AperFunction,ComponentPad*%
G36*
G01*
X99053000Y-80248000D02*
X99053000Y-78248000D01*
G75*
G02*
X99803000Y-77498000I750000J0D01*
G01*
X101303000Y-77498000D01*
G75*
G02*
X102053000Y-78248000I0J-750000D01*
G01*
X102053000Y-80248000D01*
G75*
G02*
X101303000Y-80998000I-750000J0D01*
G01*
X99803000Y-80998000D01*
G75*
G02*
X99053000Y-80248000I0J750000D01*
G01*
G37*
%TD.AperFunction*%
D28*
%TO.P,J4,1*%
%TO.N,GND*%
X106553000Y-79248000D03*
%TD*%
D27*
%TO.P,J2,1*%
%TO.N,Net-(C14-Pad2)*%
X109537500Y-93345000D03*
%TO.P,J2,2*%
%TO.N,GND*%
X109537500Y-104775000D03*
%TO.P,J2,3*%
X96837500Y-104775000D03*
%TO.P,J2,4*%
X96837500Y-93345000D03*
%TD*%
%TO.P,J1,1*%
%TO.N,Net-(J1-Pad1)*%
X187388500Y-104775000D03*
%TO.P,J1,2*%
%TO.N,GND*%
X187388500Y-93345000D03*
%TO.P,J1,3*%
X200088500Y-93345000D03*
%TO.P,J1,4*%
X200088500Y-104775000D03*
%TD*%
%TO.P,FB2,2*%
%TO.N,+3V3*%
%TA.AperFunction,SMDPad,CuDef*%
G36*
G01*
X104959999Y-119830000D02*
X105860001Y-119830000D01*
G75*
G02*
X106110000Y-120079999I0J-249999D01*
G01*
X106110000Y-120730001D01*
G75*
G02*
X105860001Y-120980000I-249999J0D01*
G01*
X104959999Y-120980000D01*
G75*
G02*
X104710000Y-120730001I0J249999D01*
G01*
X104710000Y-120079999D01*
G75*
G02*
X104959999Y-119830000I249999J0D01*
G01*
G37*
%TD.AperFunction*%
%TO.P,FB2,1*%
%TO.N,/OutputSignal/VA*%
%TA.AperFunction,SMDPad,CuDef*%
G36*
G01*
X104959999Y-117780000D02*
X105860001Y-117780000D01*
G75*
G02*
X106110000Y-118029999I0J-249999D01*
G01*
X106110000Y-118680001D01*
G75*
G02*
X105860001Y-118930000I-249999J0D01*
G01*
X104959999Y-118930000D01*
G75*
G02*
X104710000Y-118680001I0J249999D01*
G01*
X104710000Y-118029999D01*
G75*
G02*
X104959999Y-117780000I249999J0D01*
G01*
G37*
%TD.AperFunction*%
%TD*%
%TO.P,FB1,2*%
%TO.N,+3V3*%
%TA.AperFunction,SMDPad,CuDef*%
G36*
G01*
X197289000Y-117151999D02*
X197289000Y-118052001D01*
G75*
G02*
X197039001Y-118302000I-249999J0D01*
G01*
X196388999Y-118302000D01*
G75*
G02*
X196139000Y-118052001I0J249999D01*
G01*
X196139000Y-117151999D01*
G75*
G02*
X196388999Y-116902000I249999J0D01*
G01*
X197039001Y-116902000D01*
G75*
G02*
X197289000Y-117151999I0J-249999D01*
G01*
G37*
%TD.AperFunction*%
%TO.P,FB1,1*%
%TO.N,/InputSignal/VA*%
%TA.AperFunction,SMDPad,CuDef*%
G36*
G01*
X199339000Y-117151999D02*
X199339000Y-118052001D01*
G75*
G02*
X199089001Y-118302000I-249999J0D01*
G01*
X198438999Y-118302000D01*
G75*
G02*
X198189000Y-118052001I0J249999D01*
G01*
X198189000Y-117151999D01*
G75*
G02*
X198438999Y-116902000I249999J0D01*
G01*
X199089001Y-116902000D01*
G75*
G02*
X199339000Y-117151999I0J-249999D01*
G01*
G37*
%TD.AperFunction*%
%TD*%
D13*
%TO.P,D1,2*%
%TO.N,Net-(D1-Pad2)*%
X100581000Y-69469000D03*
%TO.P,D1,1*%
%TO.N,Net-(C28-Pad1)*%
X103381000Y-69469000D03*
%TD*%
%TO.P,C32,2*%
%TO.N,/ExtInput/UserPotB_IN*%
%TA.AperFunction,SMDPad,CuDef*%
G36*
G01*
X143198000Y-73602001D02*
X143198000Y-72701999D01*
G75*
G02*
X143447999Y-72452000I249999J0D01*
G01*
X144098001Y-72452000D01*
G75*
G02*
X144348000Y-72701999I0J-249999D01*
G01*
X144348000Y-73602001D01*
G75*
G02*
X144098001Y-73852000I-249999J0D01*
G01*
X143447999Y-73852000D01*
G75*
G02*
X143198000Y-73602001I0J249999D01*
G01*
G37*
%TD.AperFunction*%
%TO.P,C32,1*%
%TO.N,GND*%
%TA.AperFunction,SMDPad,CuDef*%
G36*
G01*
X141148000Y-73602001D02*
X141148000Y-72701999D01*
G75*
G02*
X141397999Y-72452000I249999J0D01*
G01*
X142048001Y-72452000D01*
G75*
G02*
X142298000Y-72701999I0J-249999D01*
G01*
X142298000Y-73602001D01*
G75*
G02*
X142048001Y-73852000I-249999J0D01*
G01*
X141397999Y-73852000D01*
G75*
G02*
X141148000Y-73602001I0J249999D01*
G01*
G37*
%TD.AperFunction*%
%TD*%
%TO.P,C31,2*%
%TO.N,/ExtInput/UserPotA_IN*%
%TA.AperFunction,SMDPad,CuDef*%
G36*
G01*
X153728000Y-77781999D02*
X153728000Y-78682001D01*
G75*
G02*
X153478001Y-78932000I-249999J0D01*
G01*
X152827999Y-78932000D01*
G75*
G02*
X152578000Y-78682001I0J249999D01*
G01*
X152578000Y-77781999D01*
G75*
G02*
X152827999Y-77532000I249999J0D01*
G01*
X153478001Y-77532000D01*
G75*
G02*
X153728000Y-77781999I0J-249999D01*
G01*
G37*
%TD.AperFunction*%
%TO.P,C31,1*%
%TO.N,GND*%
%TA.AperFunction,SMDPad,CuDef*%
G36*
G01*
X155778000Y-77781999D02*
X155778000Y-78682001D01*
G75*
G02*
X155528001Y-78932000I-249999J0D01*
G01*
X154877999Y-78932000D01*
G75*
G02*
X154628000Y-78682001I0J249999D01*
G01*
X154628000Y-77781999D01*
G75*
G02*
X154877999Y-77532000I249999J0D01*
G01*
X155528001Y-77532000D01*
G75*
G02*
X155778000Y-77781999I0J-249999D01*
G01*
G37*
%TD.AperFunction*%
%TD*%
%TO.P,C30,2*%
%TO.N,/ExtInput/FootExp_IN*%
%TA.AperFunction,SMDPad,CuDef*%
G36*
G01*
X177223000Y-117786999D02*
X177223000Y-118687001D01*
G75*
G02*
X176973001Y-118937000I-249999J0D01*
G01*
X176322999Y-118937000D01*
G75*
G02*
X176073000Y-118687001I0J249999D01*
G01*
X176073000Y-117786999D01*
G75*
G02*
X176322999Y-117537000I249999J0D01*
G01*
X176973001Y-117537000D01*
G75*
G02*
X177223000Y-117786999I0J-249999D01*
G01*
G37*
%TD.AperFunction*%
%TO.P,C30,1*%
%TO.N,GND*%
%TA.AperFunction,SMDPad,CuDef*%
G36*
G01*
X179273000Y-117786999D02*
X179273000Y-118687001D01*
G75*
G02*
X179023001Y-118937000I-249999J0D01*
G01*
X178372999Y-118937000D01*
G75*
G02*
X178123000Y-118687001I0J249999D01*
G01*
X178123000Y-117786999D01*
G75*
G02*
X178372999Y-117537000I249999J0D01*
G01*
X179023001Y-117537000D01*
G75*
G02*
X179273000Y-117786999I0J-249999D01*
G01*
G37*
%TD.AperFunction*%
%TD*%
%TO.P,C29,2*%
%TO.N,GND*%
%TA.AperFunction,SMDPad,CuDef*%
G36*
G01*
X112255000Y-83322000D02*
X112255000Y-84572000D01*
G75*
G02*
X112005000Y-84822000I-250000J0D01*
G01*
X111080000Y-84822000D01*
G75*
G02*
X110830000Y-84572000I0J250000D01*
G01*
X110830000Y-83322000D01*
G75*
G02*
X111080000Y-83072000I250000J0D01*
G01*
X112005000Y-83072000D01*
G75*
G02*
X112255000Y-83322000I0J-250000D01*
G01*
G37*
%TD.AperFunction*%
%TO.P,C29,1*%
%TO.N,+3V3*%
%TA.AperFunction,SMDPad,CuDef*%
G36*
G01*
X115230000Y-83322000D02*
X115230000Y-84572000D01*
G75*
G02*
X114980000Y-84822000I-250000J0D01*
G01*
X114055000Y-84822000D01*
G75*
G02*
X113805000Y-84572000I0J250000D01*
G01*
X113805000Y-83322000D01*
G75*
G02*
X114055000Y-83072000I250000J0D01*
G01*
X114980000Y-83072000D01*
G75*
G02*
X115230000Y-83322000I0J-250000D01*
G01*
G37*
%TD.AperFunction*%
%TD*%
%TO.P,C28,2*%
%TO.N,GND*%
%TA.AperFunction,SMDPad,CuDef*%
G36*
G01*
X114186000Y-70094000D02*
X114186000Y-68844000D01*
G75*
G02*
X114436000Y-68594000I250000J0D01*
G01*
X115361000Y-68594000D01*
G75*
G02*
X115611000Y-68844000I0J-250000D01*
G01*
X115611000Y-70094000D01*
G75*
G02*
X115361000Y-70344000I-250000J0D01*
G01*
X114436000Y-70344000D01*
G75*
G02*
X114186000Y-70094000I0J250000D01*
G01*
G37*
%TD.AperFunction*%
%TO.P,C28,1*%
%TO.N,Net-(C28-Pad1)*%
%TA.AperFunction,SMDPad,CuDef*%
G36*
G01*
X111211000Y-70094000D02*
X111211000Y-68844000D01*
G75*
G02*
X111461000Y-68594000I250000J0D01*
G01*
X112386000Y-68594000D01*
G75*
G02*
X112636000Y-68844000I0J-250000D01*
G01*
X112636000Y-70094000D01*
G75*
G02*
X112386000Y-70344000I-250000J0D01*
G01*
X111461000Y-70344000D01*
G75*
G02*
X111211000Y-70094000I0J250000D01*
G01*
G37*
%TD.AperFunction*%
%TD*%
%TO.P,C17,2*%
%TO.N,GND*%
%TA.AperFunction,SMDPad,CuDef*%
G36*
G01*
X112579999Y-119830000D02*
X113480001Y-119830000D01*
G75*
G02*
X113730000Y-120079999I0J-249999D01*
G01*
X113730000Y-120730001D01*
G75*
G02*
X113480001Y-120980000I-249999J0D01*
G01*
X112579999Y-120980000D01*
G75*
G02*
X112330000Y-120730001I0J249999D01*
G01*
X112330000Y-120079999D01*
G75*
G02*
X112579999Y-119830000I249999J0D01*
G01*
G37*
%TD.AperFunction*%
%TO.P,C17,1*%
%TO.N,/OutputSignal/VA*%
%TA.AperFunction,SMDPad,CuDef*%
G36*
G01*
X112579999Y-117780000D02*
X113480001Y-117780000D01*
G75*
G02*
X113730000Y-118029999I0J-249999D01*
G01*
X113730000Y-118680001D01*
G75*
G02*
X113480001Y-118930000I-249999J0D01*
G01*
X112579999Y-118930000D01*
G75*
G02*
X112330000Y-118680001I0J249999D01*
G01*
X112330000Y-118029999D01*
G75*
G02*
X112579999Y-117780000I249999J0D01*
G01*
G37*
%TD.AperFunction*%
%TD*%
%TO.P,C16,2*%
%TO.N,Net-(C16-Pad2)*%
%TA.AperFunction,SMDPad,CuDef*%
G36*
G01*
X108769999Y-119830000D02*
X109670001Y-119830000D01*
G75*
G02*
X109920000Y-120079999I0J-249999D01*
G01*
X109920000Y-120730001D01*
G75*
G02*
X109670001Y-120980000I-249999J0D01*
G01*
X108769999Y-120980000D01*
G75*
G02*
X108520000Y-120730001I0J249999D01*
G01*
X108520000Y-120079999D01*
G75*
G02*
X108769999Y-119830000I249999J0D01*
G01*
G37*
%TD.AperFunction*%
%TO.P,C16,1*%
%TO.N,/OutputSignal/VA*%
%TA.AperFunction,SMDPad,CuDef*%
G36*
G01*
X108769999Y-117780000D02*
X109670001Y-117780000D01*
G75*
G02*
X109920000Y-118029999I0J-249999D01*
G01*
X109920000Y-118680001D01*
G75*
G02*
X109670001Y-118930000I-249999J0D01*
G01*
X108769999Y-118930000D01*
G75*
G02*
X108520000Y-118680001I0J249999D01*
G01*
X108520000Y-118029999D01*
G75*
G02*
X108769999Y-117780000I249999J0D01*
G01*
G37*
%TD.AperFunction*%
%TD*%
%TO.P,C15,2*%
%TO.N,GND*%
%TA.AperFunction,SMDPad,CuDef*%
G36*
G01*
X104959999Y-124910000D02*
X105860001Y-124910000D01*
G75*
G02*
X106110000Y-125159999I0J-249999D01*
G01*
X106110000Y-125810001D01*
G75*
G02*
X105860001Y-126060000I-249999J0D01*
G01*
X104959999Y-126060000D01*
G75*
G02*
X104710000Y-125810001I0J249999D01*
G01*
X104710000Y-125159999D01*
G75*
G02*
X104959999Y-124910000I249999J0D01*
G01*
G37*
%TD.AperFunction*%
%TO.P,C15,1*%
%TO.N,+3V3*%
%TA.AperFunction,SMDPad,CuDef*%
G36*
G01*
X104959999Y-122860000D02*
X105860001Y-122860000D01*
G75*
G02*
X106110000Y-123109999I0J-249999D01*
G01*
X106110000Y-123760001D01*
G75*
G02*
X105860001Y-124010000I-249999J0D01*
G01*
X104959999Y-124010000D01*
G75*
G02*
X104710000Y-123760001I0J249999D01*
G01*
X104710000Y-123109999D01*
G75*
G02*
X104959999Y-122860000I249999J0D01*
G01*
G37*
%TD.AperFunction*%
%TD*%
%TO.P,C14,2*%
%TO.N,Net-(C14-Pad2)*%
%TA.AperFunction,SMDPad,CuDef*%
G36*
G01*
X96069999Y-114750000D02*
X96970001Y-114750000D01*
G75*
G02*
X97220000Y-114999999I0J-249999D01*
G01*
X97220000Y-115650001D01*
G75*
G02*
X96970001Y-115900000I-249999J0D01*
G01*
X96069999Y-115900000D01*
G75*
G02*
X95820000Y-115650001I0J249999D01*
G01*
X95820000Y-114999999D01*
G75*
G02*
X96069999Y-114750000I249999J0D01*
G01*
G37*
%TD.AperFunction*%
%TO.P,C14,1*%
%TO.N,GND*%
%TA.AperFunction,SMDPad,CuDef*%
G36*
G01*
X96069999Y-112700000D02*
X96970001Y-112700000D01*
G75*
G02*
X97220000Y-112949999I0J-249999D01*
G01*
X97220000Y-113600001D01*
G75*
G02*
X96970001Y-113850000I-249999J0D01*
G01*
X96069999Y-113850000D01*
G75*
G02*
X95820000Y-113600001I0J249999D01*
G01*
X95820000Y-112949999D01*
G75*
G02*
X96069999Y-112700000I249999J0D01*
G01*
G37*
%TD.AperFunction*%
%TD*%
%TO.P,C12,2*%
%TO.N,Net-(C12-Pad2)*%
%TA.AperFunction,SMDPad,CuDef*%
G36*
G01*
X101149999Y-119830000D02*
X102050001Y-119830000D01*
G75*
G02*
X102300000Y-120079999I0J-249999D01*
G01*
X102300000Y-120730001D01*
G75*
G02*
X102050001Y-120980000I-249999J0D01*
G01*
X101149999Y-120980000D01*
G75*
G02*
X100900000Y-120730001I0J249999D01*
G01*
X100900000Y-120079999D01*
G75*
G02*
X101149999Y-119830000I249999J0D01*
G01*
G37*
%TD.AperFunction*%
%TO.P,C12,1*%
%TO.N,Net-(C12-Pad1)*%
%TA.AperFunction,SMDPad,CuDef*%
G36*
G01*
X101149999Y-117780000D02*
X102050001Y-117780000D01*
G75*
G02*
X102300000Y-118029999I0J-249999D01*
G01*
X102300000Y-118680001D01*
G75*
G02*
X102050001Y-118930000I-249999J0D01*
G01*
X101149999Y-118930000D01*
G75*
G02*
X100900000Y-118680001I0J249999D01*
G01*
X100900000Y-118029999D01*
G75*
G02*
X101149999Y-117780000I249999J0D01*
G01*
G37*
%TD.AperFunction*%
%TD*%
%TO.P,C9,2*%
%TO.N,GND*%
%TA.AperFunction,SMDPad,CuDef*%
G36*
G01*
X197289000Y-110801999D02*
X197289000Y-111702001D01*
G75*
G02*
X197039001Y-111952000I-249999J0D01*
G01*
X196388999Y-111952000D01*
G75*
G02*
X196139000Y-111702001I0J249999D01*
G01*
X196139000Y-110801999D01*
G75*
G02*
X196388999Y-110552000I249999J0D01*
G01*
X197039001Y-110552000D01*
G75*
G02*
X197289000Y-110801999I0J-249999D01*
G01*
G37*
%TD.AperFunction*%
%TO.P,C9,1*%
%TO.N,/InputSignal/VA*%
%TA.AperFunction,SMDPad,CuDef*%
G36*
G01*
X199339000Y-110801999D02*
X199339000Y-111702001D01*
G75*
G02*
X199089001Y-111952000I-249999J0D01*
G01*
X198438999Y-111952000D01*
G75*
G02*
X198189000Y-111702001I0J249999D01*
G01*
X198189000Y-110801999D01*
G75*
G02*
X198438999Y-110552000I249999J0D01*
G01*
X199089001Y-110552000D01*
G75*
G02*
X199339000Y-110801999I0J-249999D01*
G01*
G37*
%TD.AperFunction*%
%TD*%
%TO.P,C8,2*%
%TO.N,Net-(C8-Pad2)*%
%TA.AperFunction,SMDPad,CuDef*%
G36*
G01*
X197289000Y-113976999D02*
X197289000Y-114877001D01*
G75*
G02*
X197039001Y-115127000I-249999J0D01*
G01*
X196388999Y-115127000D01*
G75*
G02*
X196139000Y-114877001I0J249999D01*
G01*
X196139000Y-113976999D01*
G75*
G02*
X196388999Y-113727000I249999J0D01*
G01*
X197039001Y-113727000D01*
G75*
G02*
X197289000Y-113976999I0J-249999D01*
G01*
G37*
%TD.AperFunction*%
%TO.P,C8,1*%
%TO.N,/InputSignal/VA*%
%TA.AperFunction,SMDPad,CuDef*%
G36*
G01*
X199339000Y-113976999D02*
X199339000Y-114877001D01*
G75*
G02*
X199089001Y-115127000I-249999J0D01*
G01*
X198438999Y-115127000D01*
G75*
G02*
X198189000Y-114877001I0J249999D01*
G01*
X198189000Y-113976999D01*
G75*
G02*
X198438999Y-113727000I249999J0D01*
G01*
X199089001Y-113727000D01*
G75*
G02*
X199339000Y-113976999I0J-249999D01*
G01*
G37*
%TD.AperFunction*%
%TD*%
%TO.P,C7,2*%
%TO.N,GND*%
%TA.AperFunction,SMDPad,CuDef*%
G36*
G01*
X192844000Y-117151999D02*
X192844000Y-118052001D01*
G75*
G02*
X192594001Y-118302000I-249999J0D01*
G01*
X191943999Y-118302000D01*
G75*
G02*
X191694000Y-118052001I0J249999D01*
G01*
X191694000Y-117151999D01*
G75*
G02*
X191943999Y-116902000I249999J0D01*
G01*
X192594001Y-116902000D01*
G75*
G02*
X192844000Y-117151999I0J-249999D01*
G01*
G37*
%TD.AperFunction*%
%TO.P,C7,1*%
%TO.N,+3V3*%
%TA.AperFunction,SMDPad,CuDef*%
G36*
G01*
X194894000Y-117151999D02*
X194894000Y-118052001D01*
G75*
G02*
X194644001Y-118302000I-249999J0D01*
G01*
X193993999Y-118302000D01*
G75*
G02*
X193744000Y-118052001I0J249999D01*
G01*
X193744000Y-117151999D01*
G75*
G02*
X193993999Y-116902000I249999J0D01*
G01*
X194644001Y-116902000D01*
G75*
G02*
X194894000Y-117151999I0J-249999D01*
G01*
G37*
%TD.AperFunction*%
%TD*%
%TO.P,C6,2*%
%TO.N,GND*%
%TA.AperFunction,SMDPad,CuDef*%
G36*
G01*
X182049000Y-135820999D02*
X182049000Y-136721001D01*
G75*
G02*
X181799001Y-136971000I-249999J0D01*
G01*
X181148999Y-136971000D01*
G75*
G02*
X180899000Y-136721001I0J249999D01*
G01*
X180899000Y-135820999D01*
G75*
G02*
X181148999Y-135571000I249999J0D01*
G01*
X181799001Y-135571000D01*
G75*
G02*
X182049000Y-135820999I0J-249999D01*
G01*
G37*
%TD.AperFunction*%
%TO.P,C6,1*%
%TO.N,+3V3*%
%TA.AperFunction,SMDPad,CuDef*%
G36*
G01*
X184099000Y-135820999D02*
X184099000Y-136721001D01*
G75*
G02*
X183849001Y-136971000I-249999J0D01*
G01*
X183198999Y-136971000D01*
G75*
G02*
X182949000Y-136721001I0J249999D01*
G01*
X182949000Y-135820999D01*
G75*
G02*
X183198999Y-135571000I249999J0D01*
G01*
X183849001Y-135571000D01*
G75*
G02*
X184099000Y-135820999I0J-249999D01*
G01*
G37*
%TD.AperFunction*%
%TD*%
%TO.P,C5,2*%
%TO.N,Net-(C4-Pad1)*%
%TA.AperFunction,SMDPad,CuDef*%
G36*
G01*
X188398999Y-119957000D02*
X189299001Y-119957000D01*
G75*
G02*
X189549000Y-120206999I0J-249999D01*
G01*
X189549000Y-120857001D01*
G75*
G02*
X189299001Y-121107000I-249999J0D01*
G01*
X188398999Y-121107000D01*
G75*
G02*
X188149000Y-120857001I0J249999D01*
G01*
X188149000Y-120206999D01*
G75*
G02*
X188398999Y-119957000I249999J0D01*
G01*
G37*
%TD.AperFunction*%
%TO.P,C5,1*%
%TO.N,GND*%
%TA.AperFunction,SMDPad,CuDef*%
G36*
G01*
X188398999Y-117907000D02*
X189299001Y-117907000D01*
G75*
G02*
X189549000Y-118156999I0J-249999D01*
G01*
X189549000Y-118807001D01*
G75*
G02*
X189299001Y-119057000I-249999J0D01*
G01*
X188398999Y-119057000D01*
G75*
G02*
X188149000Y-118807001I0J249999D01*
G01*
X188149000Y-118156999D01*
G75*
G02*
X188398999Y-117907000I249999J0D01*
G01*
G37*
%TD.AperFunction*%
%TD*%
%TO.P,C4,2*%
%TO.N,Net-(C4-Pad2)*%
%TA.AperFunction,SMDPad,CuDef*%
G36*
G01*
X186124001Y-119057000D02*
X185223999Y-119057000D01*
G75*
G02*
X184974000Y-118807001I0J249999D01*
G01*
X184974000Y-118156999D01*
G75*
G02*
X185223999Y-117907000I249999J0D01*
G01*
X186124001Y-117907000D01*
G75*
G02*
X186374000Y-118156999I0J-249999D01*
G01*
X186374000Y-118807001D01*
G75*
G02*
X186124001Y-119057000I-249999J0D01*
G01*
G37*
%TD.AperFunction*%
%TO.P,C4,1*%
%TO.N,Net-(C4-Pad1)*%
%TA.AperFunction,SMDPad,CuDef*%
G36*
G01*
X186124001Y-121107000D02*
X185223999Y-121107000D01*
G75*
G02*
X184974000Y-120857001I0J249999D01*
G01*
X184974000Y-120206999D01*
G75*
G02*
X185223999Y-119957000I249999J0D01*
G01*
X186124001Y-119957000D01*
G75*
G02*
X186374000Y-120206999I0J-249999D01*
G01*
X186374000Y-120857001D01*
G75*
G02*
X186124001Y-121107000I-249999J0D01*
G01*
G37*
%TD.AperFunction*%
%TD*%
D12*
%TO.P,REF\u002A\u002A,1*%
%TO.N,N/C*%
X192405000Y-60896500D03*
D11*
X195405000Y-60896500D03*
X194526320Y-63017820D03*
X192405000Y-63896500D03*
X190283680Y-63017820D03*
X189405000Y-60896500D03*
X190283680Y-58775180D03*
X192405000Y-57896500D03*
X194526320Y-58775180D03*
%TD*%
D12*
%TO.P,REF\u002A\u002A,1*%
%TO.N,N/C*%
X104775000Y-60896500D03*
D11*
X107775000Y-60896500D03*
X106896320Y-63017820D03*
X104775000Y-63896500D03*
X102653680Y-63017820D03*
X101775000Y-60896500D03*
X102653680Y-58775180D03*
X104775000Y-57896500D03*
X106896320Y-58775180D03*
%TD*%
D12*
%TO.P,REF\u002A\u002A,1*%
%TO.N,N/C*%
X104775000Y-134620000D03*
D11*
X107775000Y-134620000D03*
X106896320Y-136741320D03*
X104775000Y-137620000D03*
X102653680Y-136741320D03*
X101775000Y-134620000D03*
X102653680Y-132498680D03*
X104775000Y-131620000D03*
X106896320Y-132498680D03*
%TD*%
%TO.P,REF\u002A\u002A,1*%
%TO.N,N/C*%
X194526320Y-132498680D03*
X192405000Y-131620000D03*
X190283680Y-132498680D03*
X189405000Y-134620000D03*
X190283680Y-136741320D03*
X192405000Y-137620000D03*
X194526320Y-136741320D03*
X195405000Y-134620000D03*
D12*
X192405000Y-134620000D03*
%TD*%
D29*
%TO.N,GND*%
X193921000Y-124468000D03*
X188849000Y-116967000D03*
X179959000Y-136271000D03*
X101600000Y-111760000D03*
X96520000Y-111760000D03*
X104775000Y-114315013D03*
X148745000Y-108585000D03*
X147245000Y-108585000D03*
X147244998Y-122505008D03*
X179959000Y-118237000D03*
X116586000Y-69469000D03*
X109855000Y-83947000D03*
X183515000Y-114427000D03*
X153153000Y-71637000D03*
X155203000Y-79747000D03*
X143773000Y-79747000D03*
X141723000Y-71637000D03*
X150495000Y-94996000D03*
X146022002Y-117320000D03*
X103641000Y-125485000D03*
X149225000Y-130048000D03*
X183954000Y-129725000D03*
%TO.N,/InputSignal/VQ*%
X193921000Y-125468000D03*
%TO.N,/InputSignal/FILT*%
X186833000Y-126492000D03*
%TO.N,+3V3*%
X154305000Y-123190000D03*
X146050000Y-107950000D03*
X147955000Y-123189990D03*
X178630000Y-68521000D03*
X139319000Y-119380000D03*
X199898000Y-120396000D03*
X196723000Y-119253000D03*
X179875007Y-116669991D03*
X124968000Y-75438000D03*
X160401000Y-96856002D03*
X162306000Y-96856002D03*
X143569994Y-111820000D03*
%TO.N,/OutputSignal/VQ*%
X112395000Y-113665000D03*
%TO.N,/OutputSignal/FILT*%
X104775000Y-113030012D03*
%TO.N,/SignalProcessing/VCAP1*%
X153035000Y-123190000D03*
%TO.N,/ExtInput/FootExp_IN*%
X160572000Y-118320000D03*
X146006000Y-118320000D03*
%TO.N,/SignalProcessing/VCAP2*%
X158115000Y-111760000D03*
%TO.N,/SignalProcessing/RelayCoil_OUT*%
X143510000Y-130047992D03*
X143510000Y-120269000D03*
%TO.N,GNDPWR*%
X184658000Y-56134000D03*
%TO.N,Net-(J6-Pad10)*%
X170770000Y-56814000D03*
%TO.N,/MicroSD/uSD_D0*%
X160274000Y-115315982D03*
X181610000Y-64516000D03*
%TO.N,/MicroSD/uSD_CLK*%
X152245000Y-108557000D03*
%TO.N,/MicroSD/uSD_CMD*%
X179578000Y-64516000D03*
X151745000Y-108097000D03*
%TO.N,/MicroSD/uSD_D3*%
X176784002Y-64515998D03*
X152745000Y-107025000D03*
%TO.N,/MicroSD/uSD_D1*%
X158745953Y-115832095D03*
X183642000Y-64516000D03*
%TO.N,/MicroSD/uSD_D2*%
X175514000Y-64516000D03*
X153245000Y-106343000D03*
%TO.N,/InputSignal/ADIN_SDOUT*%
X153791000Y-135376000D03*
%TO.N,/SignalRelay/FX_IN*%
X149895000Y-137576000D03*
X158369000Y-129032000D03*
X158369000Y-126619000D03*
%TO.N,/SignalRelay/FX_OUT*%
X147320000Y-137576000D03*
X157353000Y-129032000D03*
X157353000Y-126619000D03*
%TO.N,/OutputSignal/ADOUT_SDIN*%
X143389000Y-135376000D03*
%TO.N,/SignalProcessing/VDDA*%
X143510000Y-117820000D03*
%TO.N,/ExtInput/FootSwitchA_IN*%
X143573500Y-112649000D03*
X140271500Y-113411000D03*
%TO.N,/ExtInput/FootSwitchB_IN*%
X160909000Y-113157000D03*
X146006000Y-112820000D03*
X154432000Y-113157000D03*
X147193000Y-112820000D03*
%TO.N,/ExtInput/UserSwitchA_IN*%
X143510004Y-115812285D03*
X141497798Y-115296202D03*
%TO.N,/ExtInput/UserSwitchB_IN*%
X143510000Y-116585992D03*
X140843000Y-115316000D03*
%TO.N,/InputSignal/ADIN_MCLK*%
X162941000Y-128270000D03*
X162941000Y-126619004D03*
%TO.N,/InputSignal/ADIN_LRCK*%
X159368843Y-127762000D03*
X159385000Y-126619000D03*
%TD*%
D30*
%TO.N,GND*%
X192523000Y-124468000D02*
X193921000Y-124468000D01*
D31*
X188849000Y-118482000D02*
X189874000Y-118482000D01*
X190754000Y-117602000D02*
X192269000Y-117602000D01*
X189874000Y-118482000D02*
X190754000Y-117602000D01*
X192269000Y-117602000D02*
X192269000Y-114427000D01*
X192269000Y-114427000D02*
X191389000Y-114427000D01*
X190364000Y-113402000D02*
X188849000Y-113402000D01*
X191389000Y-114427000D02*
X190364000Y-113402000D01*
X192269000Y-114427000D02*
X192269000Y-112912000D01*
X193929000Y-111252000D02*
X196714000Y-111252000D01*
X192269000Y-112912000D02*
X193929000Y-111252000D01*
X188849000Y-118482000D02*
X188849000Y-116967000D01*
X181474000Y-136271000D02*
X179959000Y-136271000D01*
X101600000Y-113275000D02*
X101600000Y-111760000D01*
X96520000Y-113275000D02*
X96520000Y-111760000D01*
D30*
X104790013Y-114300000D02*
X104775000Y-114315013D01*
X106435000Y-114300000D02*
X104790013Y-114300000D01*
D31*
X105410000Y-125485000D02*
X109220000Y-125485000D01*
X112640000Y-125485000D02*
X113030000Y-125095000D01*
X113030000Y-125095000D02*
X113030000Y-120405000D01*
X109220000Y-125485000D02*
X112640000Y-125485000D01*
D30*
X148745000Y-109895000D02*
X148745000Y-108585000D01*
X147245000Y-109895000D02*
X147245000Y-108660000D01*
X147245000Y-108660000D02*
X147245000Y-108585000D01*
X147245000Y-121245000D02*
X147245000Y-122505006D01*
X147245000Y-122505006D02*
X147244998Y-122505008D01*
X178698000Y-118237000D02*
X179959000Y-118237000D01*
D32*
X111542500Y-81878500D02*
X111542500Y-83947000D01*
X112588000Y-80833000D02*
X111542500Y-81878500D01*
X112588000Y-78470000D02*
X112588000Y-80833000D01*
D31*
X114898500Y-69469000D02*
X116586000Y-69469000D01*
X111542500Y-83947000D02*
X109855000Y-83947000D01*
D30*
X182075000Y-114427000D02*
X183515000Y-114427000D01*
D31*
X153153000Y-73152000D02*
X153153000Y-71637000D01*
X155203000Y-78232000D02*
X155203000Y-79747000D01*
X143773000Y-78232000D02*
X143773000Y-79747000D01*
X141723000Y-73152000D02*
X141723000Y-71637000D01*
D30*
X147955000Y-96856000D02*
X147955000Y-98806000D01*
X151765000Y-98806000D02*
X151765000Y-96856000D01*
X150495000Y-98806000D02*
X150495000Y-96856000D01*
X147955000Y-98806000D02*
X150495000Y-98806000D01*
X150495000Y-98806000D02*
X151765000Y-98806000D01*
X150495000Y-96856000D02*
X150495000Y-94996000D01*
X144820000Y-117320000D02*
X146022002Y-117320000D01*
D31*
X105410000Y-125485000D02*
X103641000Y-125485000D01*
X150244000Y-130048000D02*
X149225000Y-130048000D01*
X183954000Y-130876000D02*
X183954000Y-129725000D01*
D30*
%TO.N,/InputSignal/VQ*%
X192523000Y-125468000D02*
X193921000Y-125468000D01*
%TO.N,/InputSignal/FILT*%
X188223000Y-125968000D02*
X187357000Y-125968000D01*
X187357000Y-125968000D02*
X186833000Y-126492000D01*
D31*
%TO.N,Net-(C4-Pad2)*%
X188849000Y-115452000D02*
X185674000Y-115452000D01*
X185674000Y-115452000D02*
X185674000Y-118482000D01*
%TO.N,Net-(C4-Pad1)*%
X188849000Y-120532000D02*
X185674000Y-120532000D01*
D30*
X190128000Y-120532000D02*
X188849000Y-120532000D01*
X191135000Y-121539000D02*
X190128000Y-120532000D01*
X192135000Y-125968000D02*
X192085001Y-125918001D01*
X191135000Y-125857000D02*
X191135000Y-121539000D01*
X191196001Y-125918001D02*
X191135000Y-125857000D01*
X192085001Y-125918001D02*
X191196001Y-125918001D01*
X192523000Y-125968000D02*
X192135000Y-125968000D01*
D32*
%TO.N,+3V3*%
X196714000Y-117602000D02*
X194319000Y-117602000D01*
D31*
X178129000Y-132776000D02*
X178054000Y-132851000D01*
X181254000Y-132776000D02*
X178129000Y-132776000D01*
X183954000Y-132776000D02*
X181254000Y-132776000D01*
X183954000Y-132776000D02*
X183954000Y-134181000D01*
X183524000Y-134611000D02*
X183524000Y-136271000D01*
X183954000Y-134181000D02*
X183524000Y-134611000D01*
X105410000Y-120405000D02*
X105410000Y-123435000D01*
D30*
X154245000Y-123130000D02*
X154245000Y-121245000D01*
X154305000Y-123190000D02*
X154245000Y-123130000D01*
X146050000Y-109855000D02*
X146050000Y-107950000D01*
X146090000Y-109895000D02*
X146050000Y-109855000D01*
X146745000Y-109895000D02*
X146090000Y-109895000D01*
X147745000Y-121245000D02*
X147745000Y-122191004D01*
X147955000Y-122401004D02*
X147955000Y-123189990D01*
X147745000Y-122191004D02*
X147955000Y-122401004D01*
D31*
X183642000Y-60697000D02*
X175514000Y-60697000D01*
D32*
X114488000Y-83790500D02*
X114644500Y-83947000D01*
X114488000Y-78470000D02*
X114488000Y-83790500D01*
D31*
X183651000Y-60706000D02*
X183642000Y-60697000D01*
X185928000Y-68453000D02*
X185928000Y-60706000D01*
X185860000Y-68521000D02*
X185928000Y-68453000D01*
X185928000Y-60706000D02*
X183651000Y-60706000D01*
X178630000Y-68521000D02*
X185860000Y-68521000D01*
D32*
X114517500Y-83947000D02*
X119507000Y-83947000D01*
X93980000Y-102743000D02*
X93980000Y-123444000D01*
X107823000Y-88900000D02*
X93980000Y-102743000D01*
X114517500Y-86958500D02*
X112576000Y-88900000D01*
X112576000Y-88900000D02*
X107823000Y-88900000D01*
X105401000Y-123444000D02*
X105410000Y-123435000D01*
X114517500Y-83947000D02*
X114517500Y-86958500D01*
D30*
X147955000Y-123189990D02*
X140842990Y-123189990D01*
X140842990Y-123189990D02*
X139319000Y-121666000D01*
X139319000Y-121666000D02*
X139319000Y-119380000D01*
X146745000Y-111312000D02*
X146745000Y-109895000D01*
X147253000Y-111820000D02*
X146745000Y-111312000D01*
X153035000Y-96856000D02*
X156255000Y-96856000D01*
X154245000Y-120107172D02*
X153603000Y-119465172D01*
X154245000Y-121245000D02*
X154245000Y-120107172D01*
X153603000Y-111820000D02*
X147253000Y-111820000D01*
D32*
X100457000Y-123444000D02*
X105401000Y-123444000D01*
X93980000Y-123444000D02*
X100457000Y-123444000D01*
D31*
X102870000Y-128397000D02*
X100457000Y-125984000D01*
X107696000Y-128397000D02*
X102870000Y-128397000D01*
X178054000Y-132851000D02*
X178054000Y-134239000D01*
X118745000Y-139446000D02*
X107696000Y-128397000D01*
X100457000Y-125984000D02*
X100457000Y-123444000D01*
X178054000Y-134239000D02*
X172847000Y-139446000D01*
X172847000Y-139446000D02*
X118745000Y-139446000D01*
X172847000Y-139446000D02*
X184531000Y-139446000D01*
X186817000Y-137160000D02*
X186817000Y-132842000D01*
X184531000Y-139446000D02*
X186817000Y-137160000D01*
X186817000Y-132842000D02*
X190881000Y-128778000D01*
X190881000Y-128778000D02*
X195834000Y-128778000D01*
X195834000Y-128778000D02*
X199898000Y-124714000D01*
X199898000Y-124714000D02*
X199898000Y-120396000D01*
X196723000Y-117611000D02*
X196714000Y-117602000D01*
X196723000Y-119253000D02*
X196723000Y-117611000D01*
X179875000Y-115377000D02*
X179875000Y-116669984D01*
X179875000Y-116669984D02*
X179875007Y-116669991D01*
D32*
X132842000Y-56769000D02*
X145533000Y-56769000D01*
X124841000Y-56769000D02*
X132842000Y-56769000D01*
X122682000Y-58928000D02*
X124841000Y-56769000D01*
D31*
X143265000Y-61341000D02*
X143256000Y-61332000D01*
X145533000Y-61341000D02*
X143265000Y-61341000D01*
X154296000Y-61341000D02*
X154305000Y-61332000D01*
X145533000Y-61341000D02*
X154296000Y-61341000D01*
X124968000Y-75438000D02*
X122809000Y-75438000D01*
X122809000Y-75438000D02*
X122682000Y-75311000D01*
D32*
X122682000Y-75311000D02*
X122682000Y-58928000D01*
D31*
X145533000Y-56769000D02*
X145533000Y-61341000D01*
D30*
X154305000Y-61332000D02*
X154305000Y-59182000D01*
X173999000Y-59182000D02*
X175514000Y-60697000D01*
X154305000Y-59182000D02*
X173999000Y-59182000D01*
X147745000Y-121245000D02*
X147745000Y-119971000D01*
X148250828Y-119465172D02*
X153603000Y-119465172D01*
X147745000Y-119971000D02*
X148250828Y-119465172D01*
D31*
X135382000Y-83947000D02*
X119507000Y-83947000D01*
X135382000Y-97028000D02*
X135382000Y-83947000D01*
X129286000Y-97028000D02*
X135382000Y-97028000D01*
X129150000Y-97164000D02*
X129286000Y-97028000D01*
X129150000Y-98806000D02*
X129150000Y-97164000D01*
D32*
X122682000Y-83947000D02*
X122682000Y-75311000D01*
X119507000Y-83947000D02*
X122682000Y-83947000D01*
D30*
X159004000Y-96856000D02*
X159004000Y-78232000D01*
X156255000Y-96856000D02*
X159004000Y-96856000D01*
X156255000Y-96856000D02*
X160400998Y-96856000D01*
X160400998Y-96856000D02*
X160401000Y-96856002D01*
X164411002Y-96856002D02*
X166107000Y-98552000D01*
X162306000Y-96856002D02*
X164411002Y-96856002D01*
X146304000Y-94234000D02*
X143569994Y-96968006D01*
X144820000Y-111820000D02*
X143569994Y-111820000D01*
X153035000Y-95406000D02*
X151863000Y-94234000D01*
X143569994Y-96968006D02*
X143569994Y-111820000D01*
X151863000Y-94234000D02*
X146304000Y-94234000D01*
X153035000Y-96856000D02*
X153035000Y-95406000D01*
X155007000Y-111820000D02*
X155007000Y-117281000D01*
X156170000Y-111820000D02*
X155007000Y-111820000D01*
X155007000Y-111820000D02*
X153603000Y-111820000D01*
X155000000Y-117288000D02*
X153603000Y-117288000D01*
X155007000Y-117281000D02*
X155000000Y-117288000D01*
X153603000Y-119465172D02*
X153603000Y-117288000D01*
D32*
%TO.N,Net-(C8-Pad2)*%
X194319000Y-114427000D02*
X196714000Y-114427000D01*
%TO.N,/InputSignal/VA*%
X198764000Y-111252000D02*
X198764000Y-114427000D01*
X198764000Y-114427000D02*
X198764000Y-117602000D01*
D30*
X193929000Y-120904000D02*
X197104000Y-120904000D01*
X198764000Y-119244000D02*
X198764000Y-117602000D01*
X197104000Y-120904000D02*
X198764000Y-119244000D01*
X192523000Y-122310000D02*
X193929000Y-120904000D01*
X192523000Y-123968000D02*
X192523000Y-122310000D01*
%TO.N,/OutputSignal/VQ*%
X110735000Y-113300000D02*
X112030000Y-113300000D01*
X112030000Y-113300000D02*
X112395000Y-113665000D01*
%TO.N,Net-(C12-Pad2)*%
X103505000Y-120015000D02*
X103115000Y-120405000D01*
X103505000Y-115570000D02*
X103505000Y-120015000D01*
X103775000Y-115300000D02*
X103505000Y-115570000D01*
X103115000Y-120405000D02*
X101600000Y-120405000D01*
X106435000Y-115300000D02*
X103775000Y-115300000D01*
D31*
%TO.N,Net-(C12-Pad1)*%
X101600000Y-115325000D02*
X101600000Y-118355000D01*
X100085000Y-118355000D02*
X101600000Y-118355000D01*
X99695000Y-118745000D02*
X100085000Y-118355000D01*
X99305000Y-120405000D02*
X99695000Y-120015000D01*
X99695000Y-120015000D02*
X99695000Y-118745000D01*
X96520000Y-120405000D02*
X99305000Y-120405000D01*
D30*
%TO.N,/OutputSignal/FILT*%
X105044988Y-113300000D02*
X104775000Y-113030012D01*
X106435000Y-113300000D02*
X105044988Y-113300000D01*
D31*
%TO.N,Net-(C14-Pad2)*%
X96520000Y-115325000D02*
X96520000Y-118355000D01*
D32*
X99060000Y-110236000D02*
X109537500Y-99758500D01*
X109537500Y-99758500D02*
X109537500Y-93345000D01*
X99060000Y-115080000D02*
X99060000Y-110236000D01*
X98815000Y-115325000D02*
X99060000Y-115080000D01*
X96520000Y-115325000D02*
X98815000Y-115325000D01*
D31*
%TO.N,Net-(C16-Pad2)*%
X109220000Y-120405000D02*
X109220000Y-123435000D01*
D30*
%TO.N,/OutputSignal/VA*%
X107815000Y-114800000D02*
X107950000Y-114935000D01*
X106435000Y-114800000D02*
X107815000Y-114800000D01*
X107950000Y-114935000D02*
X107950000Y-118355000D01*
D31*
X113030000Y-118355000D02*
X109220000Y-118355000D01*
X109220000Y-118355000D02*
X105410000Y-118355000D01*
D30*
%TO.N,/SignalProcessing/VCAP1*%
X153745000Y-122480000D02*
X153035000Y-123190000D01*
X153745000Y-121245000D02*
X153745000Y-122480000D01*
D32*
%TO.N,Net-(C28-Pad1)*%
X103381000Y-69469000D02*
X111923500Y-69469000D01*
X113538000Y-76470000D02*
X113538000Y-74295000D01*
X111923500Y-72680500D02*
X111923500Y-69469000D01*
X113538000Y-74295000D02*
X111923500Y-72680500D01*
D31*
%TO.N,/ExtInput/FootExp_IN*%
X176657000Y-118228000D02*
X176648000Y-118237000D01*
X176657000Y-115452000D02*
X176657000Y-118228000D01*
D30*
X176648000Y-118237000D02*
X176438000Y-118447000D01*
X160655000Y-118237000D02*
X160572000Y-118320000D01*
X176648000Y-118237000D02*
X160655000Y-118237000D01*
X144820000Y-118320000D02*
X146006000Y-118320000D01*
D31*
%TO.N,/ExtInput/UserPotA_IN*%
X153153000Y-78232000D02*
X153153000Y-75692000D01*
D30*
X143204000Y-118820000D02*
X144820000Y-118820000D01*
X142748000Y-118364000D02*
X143204000Y-118820000D01*
X142748000Y-84963000D02*
X142748000Y-118364000D01*
X149479000Y-78232000D02*
X142748000Y-84963000D01*
X153153000Y-78232000D02*
X149479000Y-78232000D01*
D31*
%TO.N,/ExtInput/UserPotB_IN*%
X143773000Y-73152000D02*
X143773000Y-75692000D01*
D30*
X143773000Y-72452000D02*
X143773000Y-73152000D01*
X136652000Y-71501000D02*
X137541000Y-70612000D01*
X141933000Y-70612000D02*
X143773000Y-72452000D01*
X142113000Y-85090000D02*
X136652000Y-79629000D01*
X136652000Y-79629000D02*
X136652000Y-71501000D01*
X137541000Y-70612000D02*
X141933000Y-70612000D01*
X142113000Y-118491000D02*
X142113000Y-85090000D01*
X142942000Y-119320000D02*
X142113000Y-118491000D01*
X144820000Y-119320000D02*
X142942000Y-119320000D01*
%TO.N,/SignalProcessing/VCAP2*%
X156170000Y-112320000D02*
X157555000Y-112320000D01*
X157555000Y-112320000D02*
X158115000Y-111760000D01*
D32*
%TO.N,Net-(D1-Pad2)*%
X100581000Y-77371000D02*
X100680000Y-77470000D01*
X100581000Y-69469000D02*
X100581000Y-77371000D01*
D30*
%TO.N,/SignalProcessing/RelayCoil_OUT*%
X144530000Y-115320000D02*
X144526000Y-115316000D01*
X144820000Y-115320000D02*
X144530000Y-115320000D01*
X147444000Y-130048000D02*
X143510008Y-130048000D01*
X143510008Y-130048000D02*
X143510000Y-130047992D01*
X145669000Y-120269000D02*
X143510000Y-120269000D01*
X146685000Y-115697000D02*
X146685000Y-119253000D01*
X146308000Y-115320000D02*
X146685000Y-115697000D01*
X146685000Y-119253000D02*
X145669000Y-120269000D01*
X144820000Y-115320000D02*
X146308000Y-115320000D01*
D32*
%TO.N,Net-(J1-Pad1)*%
X187452000Y-104838500D02*
X187388500Y-104775000D01*
X187452000Y-108204000D02*
X187452000Y-104838500D01*
X185674000Y-109982000D02*
X187452000Y-108204000D01*
X185674000Y-113402000D02*
X185674000Y-109982000D01*
D30*
%TO.N,/SignalProcessing/NRST*%
X144832000Y-114808000D02*
X144820000Y-114820000D01*
X146132000Y-100756000D02*
X144526000Y-102362000D01*
X146558000Y-111887000D02*
X146558000Y-114808000D01*
X146558000Y-114808000D02*
X144832000Y-114808000D01*
X144526000Y-109855000D02*
X146558000Y-111887000D01*
X144526000Y-102362000D02*
X144526000Y-109855000D01*
X147955000Y-100756000D02*
X146132000Y-100756000D01*
%TO.N,/SignalProcessing/SWO*%
X151245000Y-109895000D02*
X151245000Y-105017000D01*
X150495000Y-104267000D02*
X150495000Y-100756000D01*
X151245000Y-105017000D02*
X150495000Y-104267000D01*
%TO.N,/SignalProcessing/SWCLK*%
X151765000Y-100756000D02*
X151765000Y-102997000D01*
X154245000Y-105477000D02*
X154245000Y-109895000D01*
X151765000Y-102997000D02*
X154245000Y-105477000D01*
%TO.N,/SignalProcessing/SWDIO*%
X159385000Y-109220000D02*
X153035000Y-102870000D01*
X159385000Y-111633000D02*
X159385000Y-109220000D01*
X153035000Y-102870000D02*
X153035000Y-100756000D01*
X158198000Y-112820000D02*
X159385000Y-111633000D01*
X156170000Y-112820000D02*
X158198000Y-112820000D01*
%TO.N,Net-(J5-Pad1)*%
X187452000Y-84455000D02*
X187388500Y-84455000D01*
X192278000Y-89281000D02*
X187452000Y-84455000D01*
X192278000Y-96139000D02*
X192278000Y-89281000D01*
X182075000Y-106342000D02*
X192278000Y-96139000D01*
X182075000Y-113477000D02*
X182075000Y-106342000D01*
D32*
%TO.N,GNDPWR*%
X186817000Y-56134000D02*
X184658000Y-56134000D01*
D31*
%TO.N,Net-(J6-Pad10)*%
X170725000Y-56769000D02*
X170770000Y-56814000D01*
X152034000Y-56769000D02*
X170725000Y-56769000D01*
D30*
%TO.N,/MicroSD/uSD_D0*%
X159269982Y-116320000D02*
X160274000Y-115315982D01*
X156170000Y-116320000D02*
X159269982Y-116320000D01*
D31*
X181610000Y-64516000D02*
X181610000Y-62756000D01*
D30*
%TO.N,/MicroSD/uSD_CLK*%
X152245000Y-109895000D02*
X152245000Y-108557000D01*
D31*
%TO.N,/MicroSD/uSD_CMD*%
X179578000Y-62747000D02*
X179578000Y-64262000D01*
X179578000Y-64262000D02*
X179578000Y-64516000D01*
D30*
X151745000Y-109895000D02*
X151745000Y-108097000D01*
D31*
%TO.N,/MicroSD/uSD_D3*%
X177546000Y-62747000D02*
X177546000Y-63754000D01*
X177546000Y-63754000D02*
X176784002Y-64515998D01*
D30*
X152745000Y-109895000D02*
X152745000Y-107025000D01*
%TO.N,/MicroSD/uSD_D1*%
X156170000Y-115820000D02*
X158733858Y-115820000D01*
X158733858Y-115820000D02*
X158745953Y-115832095D01*
D31*
X183642000Y-64516000D02*
X183642000Y-62747000D01*
%TO.N,/MicroSD/uSD_D2*%
X175514000Y-62747000D02*
X175514000Y-64516000D01*
D30*
X153245000Y-109895000D02*
X153245000Y-106343000D01*
X153162000Y-106260000D02*
X153245000Y-106343000D01*
D31*
%TO.N,/MicroSD/uSD_Detect*%
X147583000Y-56769000D02*
X150734000Y-56769000D01*
D30*
X150749000Y-58039000D02*
X150749000Y-56784000D01*
X157857000Y-115320000D02*
X158369000Y-114808000D01*
X150876000Y-58166000D02*
X150749000Y-58039000D01*
X187071000Y-59563000D02*
X185674000Y-58166000D01*
X187071000Y-69342000D02*
X187071000Y-59563000D01*
X180594000Y-75819000D02*
X187071000Y-69342000D01*
X180594000Y-100203000D02*
X180594000Y-75819000D01*
X185674000Y-58166000D02*
X150876000Y-58166000D01*
X150749000Y-56784000D02*
X150734000Y-56769000D01*
X165989000Y-114808000D02*
X180594000Y-100203000D01*
X158369000Y-114808000D02*
X165989000Y-114808000D01*
X156170000Y-115320000D02*
X157857000Y-115320000D01*
D31*
%TO.N,/InputSignal/ADIN_SDOUT*%
X178129000Y-130876000D02*
X178054000Y-130801000D01*
X181254000Y-130876000D02*
X178129000Y-130876000D01*
X153791000Y-135376000D02*
X171837000Y-135376000D01*
X176412000Y-130801000D02*
X178054000Y-130801000D01*
X171837000Y-135376000D02*
X176412000Y-130801000D01*
D30*
%TO.N,/SignalRelay/FX_IN*%
X155321000Y-130048000D02*
X158369000Y-130048000D01*
X158369000Y-130048000D02*
X158369000Y-129032000D01*
X149895000Y-135474000D02*
X155321000Y-130048000D01*
X149895000Y-137576000D02*
X149895000Y-135474000D01*
X158369000Y-122936000D02*
X158369000Y-126619000D01*
X154813000Y-119380000D02*
X158369000Y-122936000D01*
X154813000Y-118902000D02*
X154813000Y-119380000D01*
X156170000Y-118320000D02*
X155395000Y-118320000D01*
X155395000Y-118320000D02*
X154813000Y-118902000D01*
%TO.N,/SignalRelay/FX_OUT*%
X147320000Y-137576000D02*
X147320000Y-136017000D01*
X147320000Y-136017000D02*
X154305000Y-129032000D01*
X154305000Y-129032000D02*
X157353000Y-129032000D01*
X156170000Y-117820000D02*
X154305000Y-117820000D01*
X154305000Y-117820000D02*
X154305000Y-119507000D01*
X157353000Y-122555000D02*
X157353000Y-126619000D01*
X154305000Y-119507000D02*
X157353000Y-122555000D01*
%TO.N,/OutputSignal/ADOUT_SDIN*%
X110735000Y-115300000D02*
X113300000Y-115300000D01*
X113300000Y-115300000D02*
X113363500Y-115363500D01*
D31*
X114935000Y-116935000D02*
X113363500Y-115363500D01*
X114935000Y-129794000D02*
X114935000Y-116935000D01*
X120517000Y-135376000D02*
X114935000Y-129794000D01*
X143389000Y-135376000D02*
X120517000Y-135376000D01*
D30*
%TO.N,/SignalProcessing/VDDA*%
X144820000Y-117820000D02*
X143510000Y-117820000D01*
D31*
%TO.N,Net-(LED1-Pad4)*%
X128397000Y-91059000D02*
X126247000Y-91059000D01*
X128397000Y-88011000D02*
X128397000Y-91059000D01*
X128778000Y-87630000D02*
X128397000Y-88011000D01*
X131064000Y-87630000D02*
X128778000Y-87630000D01*
D30*
%TO.N,Net-(LED1-Pad3)*%
X126247000Y-88011000D02*
X126247000Y-87240000D01*
X126247000Y-87240000D02*
X128016000Y-85471000D01*
X128016000Y-85471000D02*
X132207000Y-85471000D01*
X132207000Y-85471000D02*
X133604000Y-86868000D01*
X133604000Y-86868000D02*
X133604000Y-89789000D01*
X133604000Y-89789000D02*
X131064000Y-89789000D01*
D31*
%TO.N,Net-(LED1-Pad1)*%
X131064000Y-94107000D02*
X126247000Y-94107000D01*
D30*
%TO.N,Net-(LED2-Pad4)*%
X166116000Y-94107000D02*
X171314000Y-94107000D01*
%TO.N,Net-(LED2-Pad3)*%
X160909000Y-91948000D02*
X166107000Y-91948000D01*
%TO.N,Net-(LED2-Pad1)*%
X166116000Y-87630000D02*
X171314000Y-87630000D01*
D31*
%TO.N,Net-(R8-Pad2)*%
X176732000Y-113477000D02*
X176657000Y-113402000D01*
X179875000Y-113477000D02*
X176732000Y-113477000D01*
D30*
X180975000Y-115189000D02*
X181163000Y-115377000D01*
X180975000Y-113543000D02*
X180975000Y-115189000D01*
X181163000Y-115377000D02*
X182075000Y-115377000D01*
X180909000Y-113477000D02*
X180975000Y-113543000D01*
X179875000Y-113477000D02*
X180909000Y-113477000D01*
D31*
%TO.N,/ExtInput/FootSwitchA_IN*%
X131200000Y-102099000D02*
X131191000Y-102108000D01*
X131200000Y-98806000D02*
X131200000Y-102099000D01*
D30*
X144820000Y-112320000D02*
X143902500Y-112320000D01*
X143902500Y-112320000D02*
X143573500Y-112649000D01*
X139065000Y-102108000D02*
X140271500Y-103314500D01*
X140271500Y-103314500D02*
X140271500Y-113411000D01*
X131191000Y-102108000D02*
X139065000Y-102108000D01*
%TO.N,/ExtInput/FootSwitchB_IN*%
X168148000Y-102108000D02*
X168148000Y-110109000D01*
X168148000Y-110109000D02*
X165100000Y-113157000D01*
X165100000Y-113157000D02*
X160909000Y-113157000D01*
X144820000Y-112820000D02*
X146006000Y-112820000D01*
D31*
X168157000Y-102099000D02*
X168148000Y-102108000D01*
X168157000Y-98552000D02*
X168157000Y-102099000D01*
D30*
X154432000Y-113157000D02*
X147530000Y-113157000D01*
X147530000Y-113157000D02*
X147193000Y-112820000D01*
D31*
%TO.N,Net-(R11-Pad1)*%
X155283000Y-73232000D02*
X155203000Y-73152000D01*
X159004000Y-73232000D02*
X155283000Y-73232000D01*
%TO.N,Net-(R12-Pad1)*%
X141643000Y-78152000D02*
X141723000Y-78232000D01*
X138176000Y-78152000D02*
X141643000Y-78152000D01*
%TO.N,Net-(R13-Pad2)*%
X155243000Y-75732000D02*
X155203000Y-75692000D01*
X159004000Y-75732000D02*
X155243000Y-75732000D01*
%TO.N,Net-(R14-Pad2)*%
X141683000Y-75652000D02*
X141723000Y-75692000D01*
X138176000Y-75652000D02*
X141683000Y-75652000D01*
D30*
%TO.N,/ExtInput/UserSwitchA_IN*%
X144820000Y-115820000D02*
X143517719Y-115820000D01*
X143517719Y-115820000D02*
X143510004Y-115812285D01*
X141497798Y-85871798D02*
X141497798Y-115296202D01*
X154305000Y-63382000D02*
X154305000Y-68199000D01*
X137033000Y-68326000D02*
X135636000Y-69723000D01*
X154178000Y-68326000D02*
X137033000Y-68326000D01*
X135636000Y-80010000D02*
X141497798Y-85871798D01*
X154305000Y-68199000D02*
X154178000Y-68326000D01*
X135636000Y-69723000D02*
X135636000Y-80010000D01*
X164765000Y-65636000D02*
X164765000Y-62484000D01*
X163472000Y-66929000D02*
X164765000Y-65636000D01*
X154305000Y-66929000D02*
X163472000Y-66929000D01*
X154305000Y-63382000D02*
X154305000Y-66929000D01*
%TO.N,/ExtInput/UserSwitchB_IN*%
X134493000Y-67183000D02*
X141351000Y-67183000D01*
X143256000Y-65278000D02*
X143256000Y-63382000D01*
X141351000Y-67183000D02*
X143256000Y-65278000D01*
X132885000Y-65575000D02*
X134493000Y-67183000D01*
X132885000Y-62484000D02*
X132885000Y-65575000D01*
X143775992Y-116320000D02*
X143510000Y-116585992D01*
X144820000Y-116320000D02*
X143775992Y-116320000D01*
X134493000Y-67183000D02*
X134493000Y-80264000D01*
X140843000Y-86614000D02*
X140843000Y-115316000D01*
X134493000Y-80264000D02*
X140843000Y-86614000D01*
%TO.N,/SignalProcessing/LEDA_R*%
X151257000Y-121257000D02*
X151245000Y-121245000D01*
X151257000Y-122936000D02*
X151257000Y-121257000D01*
X150241000Y-123952000D02*
X151257000Y-122936000D01*
X139446000Y-123952000D02*
X150241000Y-123952000D01*
X121031000Y-105537000D02*
X139446000Y-123952000D01*
X121031000Y-97273000D02*
X121031000Y-105537000D01*
X124197000Y-94107000D02*
X121031000Y-97273000D01*
%TO.N,/SignalProcessing/LEDA_G*%
X122428000Y-91059000D02*
X124197000Y-91059000D01*
X120269000Y-106045000D02*
X120269000Y-93218000D01*
X150622000Y-124714000D02*
X138938000Y-124714000D01*
X120269000Y-93218000D02*
X122428000Y-91059000D01*
X151745000Y-121245000D02*
X151745000Y-123591000D01*
X138938000Y-124714000D02*
X120269000Y-106045000D01*
X151745000Y-123591000D02*
X150622000Y-124714000D01*
%TO.N,/SignalProcessing/LEDA_B*%
X152245000Y-123980000D02*
X152245000Y-121245000D01*
X150622000Y-125603000D02*
X152245000Y-123980000D01*
X124197000Y-88011000D02*
X122428000Y-88011000D01*
X138684000Y-125603000D02*
X150622000Y-125603000D01*
X119507000Y-90932000D02*
X119507000Y-106426000D01*
X122428000Y-88011000D02*
X119507000Y-90932000D01*
X119507000Y-106426000D02*
X138684000Y-125603000D01*
%TO.N,/SignalProcessing/LEDB_R*%
X165588000Y-114320000D02*
X156170000Y-114320000D01*
X179832000Y-100076000D02*
X165588000Y-114320000D01*
X179832000Y-93218000D02*
X179832000Y-100076000D01*
X174244000Y-87630000D02*
X179832000Y-93218000D01*
X173364000Y-87630000D02*
X174244000Y-87630000D01*
%TO.N,/SignalProcessing/LEDB_G*%
X179197000Y-97155000D02*
X179197000Y-99822000D01*
X165199000Y-113820000D02*
X156170000Y-113820000D01*
X179197000Y-99822000D02*
X165199000Y-113820000D01*
X176149000Y-94107000D02*
X179197000Y-97155000D01*
X173364000Y-94107000D02*
X176149000Y-94107000D01*
%TO.N,/SignalProcessing/LEDB_B*%
X158841000Y-113320000D02*
X161163000Y-110998000D01*
X161163000Y-110998000D02*
X161163000Y-93989000D01*
X156170000Y-113320000D02*
X158841000Y-113320000D01*
%TO.N,/InputSignal/ADIN_MCLK*%
X156170000Y-117320000D02*
X158341000Y-117320000D01*
X162941000Y-121920000D02*
X162941000Y-126619004D01*
X158341000Y-117320000D02*
X162941000Y-121920000D01*
X186825000Y-125468000D02*
X188223000Y-125468000D01*
X109728000Y-112776000D02*
X120269000Y-112776000D01*
X109728000Y-113792000D02*
X109728000Y-112776000D01*
X184023000Y-128270000D02*
X186825000Y-125468000D01*
X135763000Y-128270000D02*
X184023000Y-128270000D01*
X109736000Y-113800000D02*
X109728000Y-113792000D01*
X120269000Y-112776000D02*
X135763000Y-128270000D01*
X110735000Y-113800000D02*
X109736000Y-113800000D01*
%TO.N,/InputSignal/ADIN_LRCK*%
X136144000Y-127762000D02*
X159368843Y-127762000D01*
X120396000Y-112014000D02*
X136144000Y-127762000D01*
X110735000Y-114300000D02*
X109599590Y-114300000D01*
X109220000Y-113920410D02*
X109220000Y-112268000D01*
X109220000Y-112268000D02*
X109474000Y-112014000D01*
X109599590Y-114300000D02*
X109220000Y-113920410D01*
X109474000Y-112014000D02*
X120396000Y-112014000D01*
X183735828Y-127762000D02*
X159368843Y-127762000D01*
X186406837Y-125090991D02*
X183735828Y-127762000D01*
X188100010Y-125090990D02*
X186406837Y-125090991D01*
X188223000Y-124968000D02*
X188100010Y-125090990D01*
X156170000Y-119320000D02*
X159385000Y-122535000D01*
X159385000Y-122535000D02*
X159385000Y-126619000D01*
%TO.N,/InputSignal/ADIN_SCLK*%
X158444000Y-118820000D02*
X161155000Y-121531000D01*
X156170000Y-118820000D02*
X158444000Y-118820000D01*
X161155000Y-127246000D02*
X161163000Y-127254000D01*
X161155000Y-121531000D02*
X161155000Y-127246000D01*
X136525000Y-127254000D02*
X161163000Y-127254000D01*
X109220000Y-111252000D02*
X120523000Y-111252000D01*
X110735000Y-114800000D02*
X108958000Y-114800000D01*
X108458000Y-114300000D02*
X108458000Y-112014000D01*
X108458000Y-112014000D02*
X109220000Y-111252000D01*
X120523000Y-111252000D02*
X136525000Y-127254000D01*
X108958000Y-114800000D02*
X108458000Y-114300000D01*
X183523000Y-127254000D02*
X186309000Y-124468000D01*
X186309000Y-124468000D02*
X188223000Y-124468000D01*
X161163000Y-127254000D02*
X183523000Y-127254000D01*
%TO.N,/InputSignal/SDOUT*%
X183963000Y-131817000D02*
X183954000Y-131826000D01*
X188983002Y-123968000D02*
X188223000Y-123968000D01*
X189738000Y-124722998D02*
X188983002Y-123968000D01*
X189738000Y-127000000D02*
X189738000Y-124722998D01*
X184912000Y-131826000D02*
X189738000Y-127000000D01*
X183954000Y-131826000D02*
X184912000Y-131826000D01*
%TD*%
M02*
