<?xml version="1.0" standalone="no"?>
 <!DOCTYPE svg PUBLIC "-//W3C//DTD SVG 1.1//EN" 
 "http://www.w3.org/Graphics/SVG/1.1/DTD/svg11.dtd"> 
<svg
  xmlns:svg="http://www.w3.org/2000/svg"
  xmlns="http://www.w3.org/2000/svg"
  xmlns:xlink="http://www.w3.org/1999/xlink"
  version="1.1"
  width="29.700220cm" height="21.000720cm" viewBox="0 0 116930 82680">
<title>SVG Picture created as CirrusDspPedal.svg date 2020/10/11 22:39:10 </title>
  <desc>Picture generated by Eeschema-SVG </desc>
<g style="fill:#000000; fill-opacity:1;stroke:#000000; stroke-opacity:1;
stroke-linecap:round; stroke-linejoin:round;"
 transform="translate(0 0) scale(1 1)">
</g>
<g style="fill:#000000; fill-opacity:0.0; 
stroke:#000000; stroke-width:-10; stroke-opacity:1; 
stroke-linecap:round; stroke-linejoin:round;">
</g>
<g style="fill:#840000; fill-opacity:0.0; 
stroke:#840000; stroke-width:-10; stroke-opacity:1; 
stroke-linecap:round; stroke-linejoin:round;">
</g>
<g style="fill:#840000; fill-opacity:0.0; 
stroke:#840000; stroke-width:100; stroke-opacity:1; 
stroke-linecap:round; stroke-linejoin:round;">
</g>
<g style="fill:#840000; fill-opacity:0.0; 
stroke:#840000; stroke-width:60; stroke-opacity:1; 
stroke-linecap:round; stroke-linejoin:round;">
<rect x="69690" y="65360" width="42520" height="12600" rx="0" />
</g>
<g style="fill:#840000; fill-opacity:0.0; 
stroke:#840000; stroke-width:100; stroke-opacity:1; 
stroke-linecap:round; stroke-linejoin:round;">
</g>
<g style="fill:#840000; fill-opacity:0.0; 
stroke:#840000; stroke-width:60; stroke-opacity:1; 
stroke-linecap:round; stroke-linejoin:round;">
<rect x="3940" y="3940" width="109050" height="74800" rx="0" />
</g>
<g style="fill:#840000; fill-opacity:0.0; 
stroke:#840000; stroke-width:100; stroke-opacity:1; 
stroke-linecap:round; stroke-linejoin:round;">
</g>
<g style="fill:#840000; fill-opacity:0.0; 
stroke:#840000; stroke-width:60; stroke-opacity:1; 
stroke-linecap:round; stroke-linejoin:round;">
<rect x="4720" y="4720" width="107490" height="73240" rx="0" />
</g>
<g style="fill:#840000; fill-opacity:0.0; 
stroke:#840000; stroke-width:100; stroke-opacity:1; 
stroke-linecap:round; stroke-linejoin:round;">
</g>
<g style="fill:#840000; fill-opacity:0.0; 
stroke:#840000; stroke-width:60; stroke-opacity:1; 
stroke-linecap:round; stroke-linejoin:round;">
<path d="M23620 4720
L23620 3940
" />
</g>
<g style="fill:#840000; fill-opacity:0.0; 
stroke:#840000; stroke-width:100; stroke-opacity:1; 
stroke-linecap:round; stroke-linejoin:round;">
</g>
<g style="fill:#840000; fill-opacity:0.0; 
stroke:#840000; stroke-width:60; stroke-opacity:1; 
stroke-linecap:round; stroke-linejoin:round;">
<path d="M43310 4720
L43310 3940
" />
</g>
<g style="fill:#840000; fill-opacity:0.0; 
stroke:#840000; stroke-width:100; stroke-opacity:1; 
stroke-linecap:round; stroke-linejoin:round;">
</g>
<g style="fill:#840000; fill-opacity:0.0; 
stroke:#840000; stroke-width:60; stroke-opacity:1; 
stroke-linecap:round; stroke-linejoin:round;">
<path d="M62990 4720
L62990 3940
" />
</g>
<g style="fill:#840000; fill-opacity:0.0; 
stroke:#840000; stroke-width:100; stroke-opacity:1; 
stroke-linecap:round; stroke-linejoin:round;">
</g>
<g style="fill:#840000; fill-opacity:0.0; 
stroke:#840000; stroke-width:60; stroke-opacity:1; 
stroke-linecap:round; stroke-linejoin:round;">
<path d="M82680 4720
L82680 3940
" />
</g>
<g style="fill:#840000; fill-opacity:0.0; 
stroke:#840000; stroke-width:100; stroke-opacity:1; 
stroke-linecap:round; stroke-linejoin:round;">
</g>
<g style="fill:#840000; fill-opacity:0.0; 
stroke:#840000; stroke-width:60; stroke-opacity:1; 
stroke-linecap:round; stroke-linejoin:round;">
<path d="M102360 4720
L102360 3940
" />
</g>
<g style="fill:#840000; fill-opacity:0.0; 
stroke:#840000; stroke-width:100; stroke-opacity:1; 
stroke-linecap:round; stroke-linejoin:round;">
</g>
<g style="fill:#840000; fill-opacity:0.0; 
stroke:#840000; stroke-width:60; stroke-opacity:1; 
stroke-linecap:round; stroke-linejoin:round;">
<text x="13780" y="4580"
textLength="550" font-size="680" lengthAdjust="spacingAndGlyphs"
text-anchor="start" opacity="0">1</text>
<path d="M14190 4560
L13900 4560
" />
<path d="M14050 4560
L14050 4050
L14000 4120
L13950 4170
L13900 4190
" />
</g>
<g style="fill:#840000; fill-opacity:0.0; 
stroke:#840000; stroke-width:100; stroke-opacity:1; 
stroke-linecap:round; stroke-linejoin:round;">
</g>
<g style="fill:#840000; fill-opacity:0.0; 
stroke:#840000; stroke-width:60; stroke-opacity:1; 
stroke-linecap:round; stroke-linejoin:round;">
<text x="33460" y="4580"
textLength="550" font-size="680" lengthAdjust="spacingAndGlyphs"
text-anchor="start" opacity="0">2</text>
<path d="M33580 4090
L33610 4070
L33660 4050
L33780 4050
L33830 4070
L33850 4090
L33870 4140
L33870 4190
L33850 4260
L33560 4560
L33870 4560
" />
</g>
<g style="fill:#840000; fill-opacity:0.0; 
stroke:#840000; stroke-width:100; stroke-opacity:1; 
stroke-linecap:round; stroke-linejoin:round;">
</g>
<g style="fill:#840000; fill-opacity:0.0; 
stroke:#840000; stroke-width:60; stroke-opacity:1; 
stroke-linecap:round; stroke-linejoin:round;">
<text x="53150" y="4580"
textLength="550" font-size="680" lengthAdjust="spacingAndGlyphs"
text-anchor="start" opacity="0">3</text>
<path d="M53250 4050
L53560 4050
L53390 4240
L53470 4240
L53520 4260
L53540 4290
L53560 4340
L53560 4460
L53540 4510
L53520 4530
L53470 4560
L53320 4560
L53270 4530
L53250 4510
" />
</g>
<g style="fill:#840000; fill-opacity:0.0; 
stroke:#840000; stroke-width:100; stroke-opacity:1; 
stroke-linecap:round; stroke-linejoin:round;">
</g>
<g style="fill:#840000; fill-opacity:0.0; 
stroke:#840000; stroke-width:60; stroke-opacity:1; 
stroke-linecap:round; stroke-linejoin:round;">
<text x="72830" y="4580"
textLength="550" font-size="680" lengthAdjust="spacingAndGlyphs"
text-anchor="start" opacity="0">4</text>
<path d="M73200 4220
L73200 4560
" />
<path d="M73070 4020
L72950 4390
L73270 4390
" />
</g>
<g style="fill:#840000; fill-opacity:0.0; 
stroke:#840000; stroke-width:100; stroke-opacity:1; 
stroke-linecap:round; stroke-linejoin:round;">
</g>
<g style="fill:#840000; fill-opacity:0.0; 
stroke:#840000; stroke-width:60; stroke-opacity:1; 
stroke-linecap:round; stroke-linejoin:round;">
<text x="92520" y="4580"
textLength="550" font-size="680" lengthAdjust="spacingAndGlyphs"
text-anchor="start" opacity="0">5</text>
<path d="M92910 4050
L92670 4050
L92640 4290
L92670 4260
L92720 4240
L92840 4240
L92890 4260
L92910 4290
L92930 4340
L92930 4460
L92910 4510
L92890 4530
L92840 4560
L92720 4560
L92670 4530
L92640 4510
" />
</g>
<g style="fill:#840000; fill-opacity:0.0; 
stroke:#840000; stroke-width:100; stroke-opacity:1; 
stroke-linecap:round; stroke-linejoin:round;">
</g>
<g style="fill:#840000; fill-opacity:0.0; 
stroke:#840000; stroke-width:60; stroke-opacity:1; 
stroke-linecap:round; stroke-linejoin:round;">
<text x="112200" y="4580"
textLength="550" font-size="680" lengthAdjust="spacingAndGlyphs"
text-anchor="start" opacity="0">6</text>
<path d="M112570 4050
L112470 4050
L112420 4070
L112400 4090
L112350 4170
L112320 4260
L112320 4460
L112350 4510
L112370 4530
L112420 4560
L112520 4560
L112570 4530
L112590 4510
L112610 4460
L112610 4340
L112590 4290
L112570 4260
L112520 4240
L112420 4240
L112370 4260
L112350 4290
L112320 4340
" />
</g>
<g style="fill:#840000; fill-opacity:0.0; 
stroke:#840000; stroke-width:100; stroke-opacity:1; 
stroke-linecap:round; stroke-linejoin:round;">
</g>
<g style="fill:#840000; fill-opacity:0.0; 
stroke:#840000; stroke-width:60; stroke-opacity:1; 
stroke-linecap:round; stroke-linejoin:round;">
<path d="M23620 77960
L23620 78740
" />
</g>
<g style="fill:#840000; fill-opacity:0.0; 
stroke:#840000; stroke-width:100; stroke-opacity:1; 
stroke-linecap:round; stroke-linejoin:round;">
</g>
<g style="fill:#840000; fill-opacity:0.0; 
stroke:#840000; stroke-width:60; stroke-opacity:1; 
stroke-linecap:round; stroke-linejoin:round;">
<path d="M43310 77960
L43310 78740
" />
</g>
<g style="fill:#840000; fill-opacity:0.0; 
stroke:#840000; stroke-width:100; stroke-opacity:1; 
stroke-linecap:round; stroke-linejoin:round;">
</g>
<g style="fill:#840000; fill-opacity:0.0; 
stroke:#840000; stroke-width:60; stroke-opacity:1; 
stroke-linecap:round; stroke-linejoin:round;">
<path d="M62990 77960
L62990 78740
" />
</g>
<g style="fill:#840000; fill-opacity:0.0; 
stroke:#840000; stroke-width:100; stroke-opacity:1; 
stroke-linecap:round; stroke-linejoin:round;">
</g>
<g style="fill:#840000; fill-opacity:0.0; 
stroke:#840000; stroke-width:60; stroke-opacity:1; 
stroke-linecap:round; stroke-linejoin:round;">
<path d="M82680 77960
L82680 78740
" />
</g>
<g style="fill:#840000; fill-opacity:0.0; 
stroke:#840000; stroke-width:100; stroke-opacity:1; 
stroke-linecap:round; stroke-linejoin:round;">
</g>
<g style="fill:#840000; fill-opacity:0.0; 
stroke:#840000; stroke-width:60; stroke-opacity:1; 
stroke-linecap:round; stroke-linejoin:round;">
<path d="M102360 77960
L102360 78740
" />
</g>
<g style="fill:#840000; fill-opacity:0.0; 
stroke:#840000; stroke-width:100; stroke-opacity:1; 
stroke-linecap:round; stroke-linejoin:round;">
</g>
<g style="fill:#840000; fill-opacity:0.0; 
stroke:#840000; stroke-width:60; stroke-opacity:1; 
stroke-linecap:round; stroke-linejoin:round;">
<text x="13780" y="78600"
textLength="550" font-size="680" lengthAdjust="spacingAndGlyphs"
text-anchor="start" opacity="0">1</text>
<path d="M14190 78580
L13900 78580
" />
<path d="M14050 78580
L14050 78070
L14000 78140
L13950 78190
L13900 78210
" />
</g>
<g style="fill:#840000; fill-opacity:0.0; 
stroke:#840000; stroke-width:100; stroke-opacity:1; 
stroke-linecap:round; stroke-linejoin:round;">
</g>
<g style="fill:#840000; fill-opacity:0.0; 
stroke:#840000; stroke-width:60; stroke-opacity:1; 
stroke-linecap:round; stroke-linejoin:round;">
<text x="33460" y="78600"
textLength="550" font-size="680" lengthAdjust="spacingAndGlyphs"
text-anchor="start" opacity="0">2</text>
<path d="M33580 78110
L33610 78090
L33660 78070
L33780 78070
L33830 78090
L33850 78110
L33870 78160
L33870 78210
L33850 78280
L33560 78580
L33870 78580
" />
</g>
<g style="fill:#840000; fill-opacity:0.0; 
stroke:#840000; stroke-width:100; stroke-opacity:1; 
stroke-linecap:round; stroke-linejoin:round;">
</g>
<g style="fill:#840000; fill-opacity:0.0; 
stroke:#840000; stroke-width:60; stroke-opacity:1; 
stroke-linecap:round; stroke-linejoin:round;">
<text x="53150" y="78600"
textLength="550" font-size="680" lengthAdjust="spacingAndGlyphs"
text-anchor="start" opacity="0">3</text>
<path d="M53250 78070
L53560 78070
L53390 78260
L53470 78260
L53520 78280
L53540 78310
L53560 78360
L53560 78480
L53540 78530
L53520 78550
L53470 78580
L53320 78580
L53270 78550
L53250 78530
" />
</g>
<g style="fill:#840000; fill-opacity:0.0; 
stroke:#840000; stroke-width:100; stroke-opacity:1; 
stroke-linecap:round; stroke-linejoin:round;">
</g>
<g style="fill:#840000; fill-opacity:0.0; 
stroke:#840000; stroke-width:60; stroke-opacity:1; 
stroke-linecap:round; stroke-linejoin:round;">
<text x="72830" y="78600"
textLength="550" font-size="680" lengthAdjust="spacingAndGlyphs"
text-anchor="start" opacity="0">4</text>
<path d="M73200 78240
L73200 78580
" />
<path d="M73070 78040
L72950 78410
L73270 78410
" />
</g>
<g style="fill:#840000; fill-opacity:0.0; 
stroke:#840000; stroke-width:100; stroke-opacity:1; 
stroke-linecap:round; stroke-linejoin:round;">
</g>
<g style="fill:#840000; fill-opacity:0.0; 
stroke:#840000; stroke-width:60; stroke-opacity:1; 
stroke-linecap:round; stroke-linejoin:round;">
<text x="92520" y="78600"
textLength="550" font-size="680" lengthAdjust="spacingAndGlyphs"
text-anchor="start" opacity="0">5</text>
<path d="M92910 78070
L92670 78070
L92640 78310
L92670 78280
L92720 78260
L92840 78260
L92890 78280
L92910 78310
L92930 78360
L92930 78480
L92910 78530
L92890 78550
L92840 78580
L92720 78580
L92670 78550
L92640 78530
" />
</g>
<g style="fill:#840000; fill-opacity:0.0; 
stroke:#840000; stroke-width:100; stroke-opacity:1; 
stroke-linecap:round; stroke-linejoin:round;">
</g>
<g style="fill:#840000; fill-opacity:0.0; 
stroke:#840000; stroke-width:60; stroke-opacity:1; 
stroke-linecap:round; stroke-linejoin:round;">
<text x="112200" y="78600"
textLength="550" font-size="680" lengthAdjust="spacingAndGlyphs"
text-anchor="start" opacity="0">6</text>
<path d="M112570 78070
L112470 78070
L112420 78090
L112400 78110
L112350 78190
L112320 78280
L112320 78480
L112350 78530
L112370 78550
L112420 78580
L112520 78580
L112570 78550
L112590 78530
L112610 78480
L112610 78360
L112590 78310
L112570 78280
L112520 78260
L112420 78260
L112370 78280
L112350 78310
L112320 78360
" />
</g>
<g style="fill:#840000; fill-opacity:0.0; 
stroke:#840000; stroke-width:100; stroke-opacity:1; 
stroke-linecap:round; stroke-linejoin:round;">
</g>
<g style="fill:#840000; fill-opacity:0.0; 
stroke:#840000; stroke-width:60; stroke-opacity:1; 
stroke-linecap:round; stroke-linejoin:round;">
<path d="M3940 23620
L4720 23620
" />
</g>
<g style="fill:#840000; fill-opacity:0.0; 
stroke:#840000; stroke-width:100; stroke-opacity:1; 
stroke-linecap:round; stroke-linejoin:round;">
</g>
<g style="fill:#840000; fill-opacity:0.0; 
stroke:#840000; stroke-width:60; stroke-opacity:1; 
stroke-linecap:round; stroke-linejoin:round;">
<path d="M3940 43310
L4720 43310
" />
</g>
<g style="fill:#840000; fill-opacity:0.0; 
stroke:#840000; stroke-width:100; stroke-opacity:1; 
stroke-linecap:round; stroke-linejoin:round;">
</g>
<g style="fill:#840000; fill-opacity:0.0; 
stroke:#840000; stroke-width:60; stroke-opacity:1; 
stroke-linecap:round; stroke-linejoin:round;">
<path d="M3940 62990
L4720 62990
" />
</g>
<g style="fill:#840000; fill-opacity:0.0; 
stroke:#840000; stroke-width:100; stroke-opacity:1; 
stroke-linecap:round; stroke-linejoin:round;">
</g>
<g style="fill:#840000; fill-opacity:0.0; 
stroke:#840000; stroke-width:60; stroke-opacity:1; 
stroke-linecap:round; stroke-linejoin:round;">
<text x="4330" y="14030"
textLength="500" font-size="680" lengthAdjust="spacingAndGlyphs"
text-anchor="middle" opacity="0">A</text>
<path d="M4200 13860
L4450 13860
" />
<path d="M4160 14010
L4330 13500
L4500 14010
" />
</g>
<g style="fill:#840000; fill-opacity:0.0; 
stroke:#840000; stroke-width:100; stroke-opacity:1; 
stroke-linecap:round; stroke-linejoin:round;">
</g>
<g style="fill:#840000; fill-opacity:0.0; 
stroke:#840000; stroke-width:60; stroke-opacity:1; 
stroke-linecap:round; stroke-linejoin:round;">
<text x="4330" y="33710"
textLength="570" font-size="680" lengthAdjust="spacingAndGlyphs"
text-anchor="middle" opacity="0">B</text>
<path d="M4360 33420
L4430 33440
L4460 33470
L4480 33520
L4480 33590
L4460 33640
L4430 33660
L4390 33690
L4190 33690
L4190 33180
L4360 33180
L4410 33200
L4430 33220
L4460 33270
L4460 33320
L4430 33370
L4410 33390
L4360 33420
L4190 33420
" />
</g>
<g style="fill:#840000; fill-opacity:0.0; 
stroke:#840000; stroke-width:100; stroke-opacity:1; 
stroke-linecap:round; stroke-linejoin:round;">
</g>
<g style="fill:#840000; fill-opacity:0.0; 
stroke:#840000; stroke-width:60; stroke-opacity:1; 
stroke-linecap:round; stroke-linejoin:round;">
<text x="4330" y="53400"
textLength="570" font-size="680" lengthAdjust="spacingAndGlyphs"
text-anchor="middle" opacity="0">C</text>
<path d="M4480 53330
L4460 53350
L4390 53380
L4340 53380
L4260 53350
L4220 53300
L4190 53250
L4170 53160
L4170 53080
L4190 52990
L4220 52940
L4260 52890
L4340 52870
L4390 52870
L4460 52890
L4480 52910
" />
</g>
<g style="fill:#840000; fill-opacity:0.0; 
stroke:#840000; stroke-width:100; stroke-opacity:1; 
stroke-linecap:round; stroke-linejoin:round;">
</g>
<g style="fill:#840000; fill-opacity:0.0; 
stroke:#840000; stroke-width:60; stroke-opacity:1; 
stroke-linecap:round; stroke-linejoin:round;">
<text x="4330" y="73080"
textLength="570" font-size="680" lengthAdjust="spacingAndGlyphs"
text-anchor="middle" opacity="0">D</text>
<path d="M4190 73060
L4190 72550
L4310 72550
L4390 72570
L4430 72620
L4460 72670
L4480 72760
L4480 72840
L4460 72930
L4430 72980
L4390 73030
L4310 73060
L4190 73060
" />
</g>
<g style="fill:#840000; fill-opacity:0.0; 
stroke:#840000; stroke-width:100; stroke-opacity:1; 
stroke-linecap:round; stroke-linejoin:round;">
</g>
<g style="fill:#840000; fill-opacity:0.0; 
stroke:#840000; stroke-width:60; stroke-opacity:1; 
stroke-linecap:round; stroke-linejoin:round;">
<path d="M112990 23620
L112210 23620
" />
</g>
<g style="fill:#840000; fill-opacity:0.0; 
stroke:#840000; stroke-width:100; stroke-opacity:1; 
stroke-linecap:round; stroke-linejoin:round;">
</g>
<g style="fill:#840000; fill-opacity:0.0; 
stroke:#840000; stroke-width:60; stroke-opacity:1; 
stroke-linecap:round; stroke-linejoin:round;">
<path d="M112990 43310
L112210 43310
" />
</g>
<g style="fill:#840000; fill-opacity:0.0; 
stroke:#840000; stroke-width:100; stroke-opacity:1; 
stroke-linecap:round; stroke-linejoin:round;">
</g>
<g style="fill:#840000; fill-opacity:0.0; 
stroke:#840000; stroke-width:60; stroke-opacity:1; 
stroke-linecap:round; stroke-linejoin:round;">
<path d="M112990 62990
L112210 62990
" />
</g>
<g style="fill:#840000; fill-opacity:0.0; 
stroke:#840000; stroke-width:100; stroke-opacity:1; 
stroke-linecap:round; stroke-linejoin:round;">
</g>
<g style="fill:#840000; fill-opacity:0.0; 
stroke:#840000; stroke-width:60; stroke-opacity:1; 
stroke-linecap:round; stroke-linejoin:round;">
<text x="112600" y="14030"
textLength="500" font-size="680" lengthAdjust="spacingAndGlyphs"
text-anchor="middle" opacity="0">A</text>
<path d="M112470 13860
L112720 13860
" />
<path d="M112430 14010
L112600 13500
L112770 14010
" />
</g>
<g style="fill:#840000; fill-opacity:0.0; 
stroke:#840000; stroke-width:100; stroke-opacity:1; 
stroke-linecap:round; stroke-linejoin:round;">
</g>
<g style="fill:#840000; fill-opacity:0.0; 
stroke:#840000; stroke-width:60; stroke-opacity:1; 
stroke-linecap:round; stroke-linejoin:round;">
<text x="112600" y="33710"
textLength="570" font-size="680" lengthAdjust="spacingAndGlyphs"
text-anchor="middle" opacity="0">B</text>
<path d="M112630 33420
L112700 33440
L112730 33470
L112750 33520
L112750 33590
L112730 33640
L112700 33660
L112660 33690
L112460 33690
L112460 33180
L112630 33180
L112680 33200
L112700 33220
L112730 33270
L112730 33320
L112700 33370
L112680 33390
L112630 33420
L112460 33420
" />
</g>
<g style="fill:#840000; fill-opacity:0.0; 
stroke:#840000; stroke-width:100; stroke-opacity:1; 
stroke-linecap:round; stroke-linejoin:round;">
</g>
<g style="fill:#840000; fill-opacity:0.0; 
stroke:#840000; stroke-width:60; stroke-opacity:1; 
stroke-linecap:round; stroke-linejoin:round;">
<text x="112600" y="53400"
textLength="570" font-size="680" lengthAdjust="spacingAndGlyphs"
text-anchor="middle" opacity="0">C</text>
<path d="M112750 53330
L112730 53350
L112660 53380
L112610 53380
L112530 53350
L112490 53300
L112460 53250
L112440 53160
L112440 53080
L112460 52990
L112490 52940
L112530 52890
L112610 52870
L112660 52870
L112730 52890
L112750 52910
" />
</g>
<g style="fill:#840000; fill-opacity:0.0; 
stroke:#840000; stroke-width:100; stroke-opacity:1; 
stroke-linecap:round; stroke-linejoin:round;">
</g>
<g style="fill:#840000; fill-opacity:0.0; 
stroke:#840000; stroke-width:60; stroke-opacity:1; 
stroke-linecap:round; stroke-linejoin:round;">
<text x="112600" y="73080"
textLength="570" font-size="680" lengthAdjust="spacingAndGlyphs"
text-anchor="middle" opacity="0">D</text>
<path d="M112460 73060
L112460 72550
L112580 72550
L112660 72570
L112700 72620
L112730 72670
L112750 72760
L112750 72840
L112730 72930
L112700 72980
L112660 73030
L112580 73060
L112460 73060
" />
</g>
<g style="fill:#840000; fill-opacity:0.0; 
stroke:#840000; stroke-width:100; stroke-opacity:1; 
stroke-linecap:round; stroke-linejoin:round;">
</g>
<g style="fill:#840000; fill-opacity:0.0; 
stroke:#840000; stroke-width:60; stroke-opacity:1; 
stroke-linecap:round; stroke-linejoin:round;">
<text x="78740" y="76320"
textLength="2760" font-size="780" lengthAdjust="spacingAndGlyphs"
text-anchor="start" opacity="0">Date: </text>
<path d="M78910 76290
L78910 75700
L79050 75700
L79130 75730
L79190 75790
L79210 75840
L79240 75950
L79240 76040
L79210 76150
L79190 76210
L79130 76260
L79050 76290
L78910 76290
" />
<path d="M79750 76290
L79750 75980
L79720 75930
L79660 75900
L79550 75900
L79500 75930
" />
<path d="M79750 76260
L79690 76290
L79550 76290
L79500 76260
L79470 76210
L79470 76150
L79500 76100
L79550 76070
L79690 76070
L79750 76040
" />
<path d="M79950 75900
L80170 75900
" />
<path d="M80030 75700
L80030 76210
L80060 76260
L80110 76290
L80170 76290
" />
<path d="M80590 76260
L80540 76290
L80420 76290
L80370 76260
L80340 76210
L80340 75980
L80370 75930
L80420 75900
L80540 75900
L80590 75930
L80620 75980
L80620 76040
L80340 76100
" />
<path d="M80870 76240
L80900 76260
L80870 76290
L80840 76260
L80870 76240
L80870 76290
" />
<path d="M80870 75930
L80900 75950
L80870 75980
L80840 75950
L80870 75930
L80870 75980
" />
</g>
<g style="fill:#840000; fill-opacity:0.0; 
stroke:#840000; stroke-width:100; stroke-opacity:1; 
stroke-linecap:round; stroke-linejoin:round;">
</g>
<g style="fill:#840000; fill-opacity:0.0; 
stroke:#840000; stroke-width:60; stroke-opacity:1; 
stroke-linecap:round; stroke-linejoin:round;">
<path d="M69690 76580
L112210 76580
" />
</g>
<g style="fill:#840000; fill-opacity:0.0; 
stroke:#840000; stroke-width:100; stroke-opacity:1; 
stroke-linecap:round; stroke-linejoin:round;">
</g>
<g style="fill:#840000; fill-opacity:0.0; 
stroke:#840000; stroke-width:60; stroke-opacity:1; 
stroke-linecap:round; stroke-linejoin:round;">
<text x="70080" y="77420"
textLength="16950" font-size="780" lengthAdjust="spacingAndGlyphs"
text-anchor="start" opacity="0">KiCad E.D.A.  kicad (5.1.6-0-10_14)</text>
<path d="M70250 77390
L70250 76800
" />
<path d="M70580 77390
L70330 77050
" />
<path d="M70580 76800
L70250 77140
" />
<path d="M70840 77390
L70840 77000
" />
<path d="M70840 76800
L70810 76830
L70840 76860
L70860 76830
L70840 76800
L70840 76860
" />
<path d="M71450 77340
L71430 77360
L71340 77390
L71290 77390
L71200 77360
L71140 77310
L71120 77250
L71090 77140
L71090 77050
L71120 76940
L71140 76890
L71200 76830
L71290 76800
L71340 76800
L71430 76830
L71450 76860
" />
<path d="M71960 77390
L71960 77080
L71930 77030
L71880 77000
L71760 77000
L71710 77030
" />
<path d="M71960 77360
L71900 77390
L71760 77390
L71710 77360
L71680 77310
L71680 77250
L71710 77200
L71760 77170
L71900 77170
L71960 77140
" />
<path d="M72490 77390
L72490 76800
" />
<path d="M72490 77360
L72440 77390
L72320 77390
L72270 77360
L72240 77340
L72210 77280
L72210 77110
L72240 77050
L72270 77030
L72320 77000
L72440 77000
L72490 77030
" />
<path d="M73220 77080
L73420 77080
" />
<path d="M73500 77390
L73220 77390
L73220 76800
L73500 76800
" />
<path d="M73760 77340
L73790 77360
L73760 77390
L73730 77360
L73760 77340
L73760 77390
" />
<path d="M74040 77390
L74040 76800
L74180 76800
L74260 76830
L74320 76890
L74350 76940
L74380 77050
L74380 77140
L74350 77250
L74320 77310
L74260 77360
L74180 77390
L74040 77390
" />
<path d="M74630 77340
L74660 77360
L74630 77390
L74600 77360
L74630 77340
L74630 77390
" />
<path d="M74880 77220
L75160 77220
" />
<path d="M74830 77390
L75020 76800
L75220 77390
" />
<path d="M75420 77340
L75440 77360
L75420 77390
L75390 77360
L75420 77340
L75420 77390
" />
<path d="M76600 77390
L76600 76800
" />
<path d="M76650 77170
L76820 77390
" />
<path d="M76820 77000
L76600 77220
" />
<path d="M77070 77390
L77070 77000
" />
<path d="M77070 76800
L77040 76830
L77070 76860
L77100 76830
L77070 76800
L77070 76860
" />
<path d="M77610 77360
L77550 77390
L77440 77390
L77380 77360
L77350 77340
L77330 77280
L77330 77110
L77350 77050
L77380 77030
L77440 77000
L77550 77000
L77610 77030
" />
<path d="M78110 77390
L78110 77080
L78080 77030
L78030 77000
L77920 77000
L77860 77030
" />
<path d="M78110 77360
L78060 77390
L77920 77390
L77860 77360
L77830 77310
L77830 77250
L77860 77200
L77920 77170
L78060 77170
L78110 77140
" />
<path d="M78650 77390
L78650 76800
" />
<path d="M78650 77360
L78590 77390
L78480 77390
L78420 77360
L78390 77340
L78370 77280
L78370 77110
L78390 77050
L78420 77030
L78480 77000
L78590 77000
L78650 77030
" />
<path d="M79550 77620
L79520 77590
L79460 77500
L79430 77450
L79400 77360
L79380 77220
L79380 77110
L79400 76970
L79430 76890
L79460 76830
L79520 76750
L79550 76720
" />
<path d="M80050 76800
L79770 76800
L79740 77080
L79770 77050
L79830 77030
L79970 77030
L80020 77050
L80050 77080
L80080 77140
L80080 77280
L80050 77340
L80020 77360
L79970 77390
L79830 77390
L79770 77360
L79740 77340
" />
<path d="M80330 77340
L80360 77360
L80330 77390
L80300 77360
L80330 77340
L80330 77390
" />
<path d="M80920 77390
L80580 77390
" />
<path d="M80750 77390
L80750 76800
L80700 76890
L80640 76940
L80580 76970
" />
<path d="M81170 77340
L81200 77360
L81170 77390
L81150 77360
L81170 77340
L81170 77390
" />
<path d="M81710 76800
L81600 76800
L81540 76830
L81510 76860
L81460 76940
L81430 77050
L81430 77280
L81460 77340
L81480 77360
L81540 77390
L81650 77390
L81710 77360
L81740 77340
L81760 77280
L81760 77140
L81740 77080
L81710 77050
L81650 77030
L81540 77030
L81480 77050
L81460 77080
L81430 77140
" />
<path d="M82020 77170
L82470 77170
" />
<path d="M82860 76800
L82920 76800
L82970 76830
L83000 76860
L83030 76910
L83060 77030
L83060 77170
L83030 77280
L83000 77340
L82970 77360
L82920 77390
L82860 77390
L82800 77360
L82780 77340
L82750 77280
L82720 77170
L82720 77030
L82750 76910
L82780 76860
L82800 76830
L82860 76800
" />
<path d="M83310 77170
L83760 77170
" />
<path d="M84350 77390
L84010 77390
" />
<path d="M84180 77390
L84180 76800
L84120 76890
L84070 76940
L84010 76970
" />
<path d="M84710 76800
L84770 76800
L84830 76830
L84860 76860
L84880 76910
L84910 77030
L84910 77170
L84880 77280
L84860 77340
L84830 77360
L84770 77390
L84710 77390
L84660 77360
L84630 77340
L84600 77280
L84570 77170
L84570 77030
L84600 76910
L84630 76860
L84660 76830
L84710 76800
" />
<path d="M85020 77450
L85470 77450
" />
<path d="M85920 77390
L85590 77390
" />
<path d="M85750 77390
L85750 76800
L85700 76890
L85640 76940
L85590 76970
" />
<path d="M86430 77000
L86430 77390
" />
<path d="M86290 76770
L86150 77200
L86510 77200
" />
<path d="M86680 77620
L86710 77590
L86770 77500
L86790 77450
L86820 77360
L86850 77220
L86850 77110
L86820 76970
L86790 76890
L86770 76830
L86710 76750
L86680 76720
" />
</g>
<g style="fill:#840000; fill-opacity:0.0; 
stroke:#840000; stroke-width:100; stroke-opacity:1; 
stroke-linecap:round; stroke-linejoin:round;">
</g>
<g style="fill:#840000; fill-opacity:0.0; 
stroke:#840000; stroke-width:60; stroke-opacity:1; 
stroke-linecap:round; stroke-linejoin:round;">
<path d="M69690 75400
L112210 75400
" />
</g>
<g style="fill:#840000; fill-opacity:0.0; 
stroke:#840000; stroke-width:100; stroke-opacity:1; 
stroke-linecap:round; stroke-linejoin:round;">
</g>
<g style="fill:#840000; fill-opacity:0.0; 
stroke:#840000; stroke-width:120; stroke-opacity:1; 
stroke-linecap:round; stroke-linejoin:round;">
<text x="103540" y="76320"
textLength="2340" font-size="780" lengthAdjust="spacingAndGlyphs"
text-anchor="start" opacity="0">Rev: </text>
<path d="M104090 76290
L103890 76010
" />
<path d="M103750 76290
L103750 75700
L103980 75700
L104030 75730
L104060 75760
L104090 75810
L104090 75900
L104060 75950
L104030 75980
L103980 76010
L103750 76010
" />
<path d="M104570 76260
L104510 76290
L104400 76290
L104340 76260
L104320 76210
L104320 75980
L104340 75930
L104400 75900
L104510 75900
L104570 75930
L104600 75980
L104600 76040
L104320 76100
" />
<path d="M104790 75900
L104930 76290
L105070 75900
" />
<path d="M105300 76240
L105330 76260
L105300 76290
L105270 76260
L105300 76240
L105300 76290
" />
<path d="M105300 75930
L105330 75950
L105300 75980
L105270 75950
L105300 75930
L105300 75980
" />
</g>
<g style="fill:#840000; fill-opacity:0.0; 
stroke:#840000; stroke-width:100; stroke-opacity:1; 
stroke-linecap:round; stroke-linejoin:round;">
</g>
<g style="fill:#840000; fill-opacity:0.0; 
stroke:#840000; stroke-width:60; stroke-opacity:1; 
stroke-linecap:round; stroke-linejoin:round;">
<text x="70080" y="76320"
textLength="3780" font-size="780" lengthAdjust="spacingAndGlyphs"
text-anchor="start" opacity="0">Size: A4</text>
<path d="M70220 76260
L70300 76290
L70440 76290
L70500 76260
L70530 76240
L70550 76180
L70550 76120
L70530 76070
L70500 76040
L70440 76010
L70330 75980
L70270 75950
L70250 75930
L70220 75870
L70220 75810
L70250 75760
L70270 75730
L70330 75700
L70470 75700
L70550 75730
" />
<path d="M70810 76290
L70810 75900
" />
<path d="M70810 75700
L70780 75730
L70810 75760
L70840 75730
L70810 75700
L70810 75760
" />
<path d="M71030 75900
L71340 75900
L71030 76290
L71340 76290
" />
<path d="M71790 76260
L71730 76290
L71620 76290
L71570 76260
L71540 76210
L71540 75980
L71570 75930
L71620 75900
L71730 75900
L71790 75930
L71820 75980
L71820 76040
L71540 76100
" />
<path d="M72070 76240
L72100 76260
L72070 76290
L72040 76260
L72070 76240
L72070 76290
" />
<path d="M72070 75930
L72100 75950
L72070 75980
L72040 75950
L72070 75930
L72070 75980
" />
<path d="M72770 76120
L73060 76120
" />
<path d="M72720 76290
L72910 75700
L73110 76290
" />
<path d="M73560 75900
L73560 76290
" />
<path d="M73420 75670
L73280 76100
L73650 76100
" />
</g>
<g style="fill:#840000; fill-opacity:0.0; 
stroke:#840000; stroke-width:100; stroke-opacity:1; 
stroke-linecap:round; stroke-linejoin:round;">
</g>
<g style="fill:#840000; fill-opacity:0.0; 
stroke:#840000; stroke-width:60; stroke-opacity:1; 
stroke-linecap:round; stroke-linejoin:round;">
<text x="103540" y="77420"
textLength="3350" font-size="780" lengthAdjust="spacingAndGlyphs"
text-anchor="start" opacity="0">Id: 1/8</text>
<path d="M103710 77390
L103710 76800
" />
<path d="M104240 77390
L104240 76800
" />
<path d="M104240 77360
L104180 77390
L104070 77390
L104010 77360
L103990 77340
L103960 77280
L103960 77110
L103990 77050
L104010 77030
L104070 77000
L104180 77000
L104240 77030
" />
<path d="M104520 77340
L104550 77360
L104520 77390
L104490 77360
L104520 77340
L104520 77390
" />
<path d="M104520 77030
L104550 77050
L104520 77080
L104490 77050
L104520 77030
L104520 77080
" />
<path d="M105560 77390
L105220 77390
" />
<path d="M105390 77390
L105390 76800
L105340 76890
L105280 76940
L105220 76970
" />
<path d="M106230 76770
L105730 77530
" />
<path d="M106520 77050
L106460 77030
L106430 77000
L106400 76940
L106400 76910
L106430 76860
L106460 76830
L106520 76800
L106630 76800
L106680 76830
L106710 76860
L106740 76910
L106740 76940
L106710 77000
L106680 77030
L106630 77050
L106520 77050
L106460 77080
L106430 77110
L106400 77170
L106400 77280
L106430 77340
L106460 77360
L106520 77390
L106630 77390
L106680 77360
L106710 77340
L106740 77280
L106740 77170
L106710 77110
L106680 77080
L106630 77050
" />
</g>
<g style="fill:#840000; fill-opacity:0.0; 
stroke:#840000; stroke-width:100; stroke-opacity:1; 
stroke-linecap:round; stroke-linejoin:round;">
</g>
<g style="fill:#840000; fill-opacity:0.0; 
stroke:#840000; stroke-width:60; stroke-opacity:1; 
stroke-linecap:round; stroke-linejoin:round;">
<path d="M69690 73820
L112210 73820
" />
</g>
<g style="fill:#840000; fill-opacity:0.0; 
stroke:#840000; stroke-width:100; stroke-opacity:1; 
stroke-linecap:round; stroke-linejoin:round;">
</g>
<g style="fill:#840000; fill-opacity:0.0; 
stroke:#840000; stroke-width:160; stroke-opacity:1; 
stroke-linecap:round; stroke-linejoin:round;">
<text x="70080" y="74920"
textLength="3710" font-size="1050" lengthAdjust="spacingAndGlyphs"
text-anchor="start" opacity="0">Title: </text>
<path d="M70360 74090
L70810 74090
" />
<path d="M70480 74880
L70580 74090
" />
<path d="M70970 74880
L71040 74360
" />
<path d="M71070 74090
L71030 74130
L71060 74170
L71110 74130
L71070 74090
L71060 74170
" />
<path d="M71300 74360
L71600 74360
" />
<path d="M71450 74090
L71360 74770
L71390 74840
L71460 74880
L71540 74880
" />
<path d="M71910 74880
L71840 74840
L71820 74770
L71900 74090
" />
<path d="M72520 74840
L72440 74880
L72290 74880
L72220 74840
L72190 74770
L72230 74470
L72280 74390
L72360 74360
L72510 74360
L72580 74390
L72610 74470
L72600 74540
L72210 74620
" />
<path d="M72900 74810
L72930 74840
L72890 74880
L72860 74840
L72900 74810
L72890 74880
" />
<path d="M72950 74390
L72990 74430
L72940 74470
L72910 74430
L72950 74390
L72940 74470
" />
</g>
<g style="fill:#840000; fill-opacity:0.0; 
stroke:#840000; stroke-width:100; stroke-opacity:1; 
stroke-linecap:round; stroke-linejoin:round;">
</g>
<g style="fill:#840000; fill-opacity:0.0; 
stroke:#840000; stroke-width:60; stroke-opacity:1; 
stroke-linecap:round; stroke-linejoin:round;">
<text x="70080" y="73400"
textLength="11020" font-size="780" lengthAdjust="spacingAndGlyphs"
text-anchor="start" opacity="0">File: CirrusDspPedal.sch</text>
<path d="M70440 73060
L70250 73060
" />
<path d="M70250 73370
L70250 72780
L70530 72780
" />
<path d="M70750 73370
L70750 72980
" />
<path d="M70750 72780
L70720 72810
L70750 72840
L70780 72810
L70750 72780
L70750 72840
" />
<path d="M71120 73370
L71060 73340
L71030 73290
L71030 72780
" />
<path d="M71570 73340
L71510 73370
L71400 73370
L71340 73340
L71310 73290
L71310 73060
L71340 73010
L71400 72980
L71510 72980
L71570 73010
L71590 73060
L71590 73120
L71310 73180
" />
<path d="M71850 73320
L71880 73340
L71850 73370
L71820 73340
L71850 73320
L71850 73370
" />
<path d="M71850 73010
L71880 73030
L71850 73060
L71820 73030
L71850 73010
L71850 73060
" />
<path d="M72910 73320
L72890 73340
L72800 73370
L72750 73370
L72660 73340
L72610 73290
L72580 73230
L72550 73120
L72550 73030
L72580 72920
L72610 72870
L72660 72810
L72750 72780
L72800 72780
L72890 72810
L72910 72840
" />
<path d="M73170 73370
L73170 72980
" />
<path d="M73170 72780
L73140 72810
L73170 72840
L73200 72810
L73170 72780
L73170 72840
" />
<path d="M73450 73370
L73450 72980
" />
<path d="M73450 73090
L73480 73030
L73500 73010
L73560 72980
L73620 72980
" />
<path d="M73810 73370
L73810 72980
" />
<path d="M73810 73090
L73840 73030
L73870 73010
L73930 72980
L73980 72980
" />
<path d="M74430 72980
L74430 73370
" />
<path d="M74180 72980
L74180 73290
L74210 73340
L74260 73370
L74350 73370
L74400 73340
L74430 73320
" />
<path d="M74680 73340
L74740 73370
L74850 73370
L74910 73340
L74940 73290
L74940 73260
L74910 73200
L74850 73180
L74770 73180
L74710 73150
L74680 73090
L74680 73060
L74710 73010
L74770 72980
L74850 72980
L74910 73010
" />
<path d="M75190 73370
L75190 72780
L75330 72780
L75420 72810
L75470 72870
L75500 72920
L75530 73030
L75530 73120
L75500 73230
L75470 73290
L75420 73340
L75330 73370
L75190 73370
" />
<path d="M75750 73340
L75810 73370
L75920 73370
L75980 73340
L76010 73290
L76010 73260
L75980 73200
L75920 73180
L75840 73180
L75780 73150
L75750 73090
L75750 73060
L75780 73010
L75840 72980
L75920 72980
L75980 73010
" />
<path d="M76260 72980
L76260 73570
" />
<path d="M76260 73010
L76310 72980
L76430 72980
L76480 73010
L76510 73030
L76540 73090
L76540 73260
L76510 73320
L76480 73340
L76430 73370
L76310 73370
L76260 73340
" />
<path d="M76790 73370
L76790 72780
L77020 72780
L77070 72810
L77100 72840
L77130 72890
L77130 72980
L77100 73030
L77070 73060
L77020 73090
L76790 73090
" />
<path d="M77610 73340
L77550 73370
L77440 73370
L77380 73340
L77350 73290
L77350 73060
L77380 73010
L77440 72980
L77550 72980
L77610 73010
L77630 73060
L77630 73120
L77350 73180
" />
<path d="M78140 73370
L78140 72780
" />
<path d="M78140 73340
L78080 73370
L77970 73370
L77920 73340
L77890 73320
L77860 73260
L77860 73090
L77890 73030
L77920 73010
L77970 72980
L78080 72980
L78140 73010
" />
<path d="M78670 73370
L78670 73060
L78650 73010
L78590 72980
L78480 72980
L78420 73010
" />
<path d="M78670 73340
L78620 73370
L78480 73370
L78420 73340
L78390 73290
L78390 73230
L78420 73180
L78480 73150
L78620 73150
L78670 73120
" />
<path d="M79040 73370
L78980 73340
L78960 73290
L78960 72780
" />
<path d="M79260 73320
L79290 73340
L79260 73370
L79240 73340
L79260 73320
L79260 73370
" />
<path d="M79520 73340
L79570 73370
L79690 73370
L79740 73340
L79770 73290
L79770 73260
L79740 73200
L79690 73180
L79600 73180
L79550 73150
L79520 73090
L79520 73060
L79550 73010
L79600 72980
L79690 72980
L79740 73010
" />
<path d="M80280 73340
L80220 73370
L80110 73370
L80050 73340
L80020 73320
L79990 73260
L79990 73090
L80020 73030
L80050 73010
L80110 72980
L80220 72980
L80280 73010
" />
<path d="M80530 73370
L80530 72780
" />
<path d="M80780 73370
L80780 73060
L80750 73010
L80700 72980
L80610 72980
L80560 73010
L80530 73030
" />
</g>
<g style="fill:#840000; fill-opacity:0.0; 
stroke:#840000; stroke-width:100; stroke-opacity:1; 
stroke-linecap:round; stroke-linejoin:round;">
</g>
<g style="fill:#840000; fill-opacity:0.0; 
stroke:#840000; stroke-width:60; stroke-opacity:1; 
stroke-linecap:round; stroke-linejoin:round;">
<path d="M69690 71460
L112210 71460
" />
</g>
<g style="fill:#840000; fill-opacity:0.0; 
stroke:#840000; stroke-width:100; stroke-opacity:1; 
stroke-linecap:round; stroke-linejoin:round;">
</g>
<g style="fill:#840000; fill-opacity:0.0; 
stroke:#840000; stroke-width:60; stroke-opacity:1; 
stroke-linecap:round; stroke-linejoin:round;">
<text x="70080" y="72340"
textLength="3850" font-size="780" lengthAdjust="spacingAndGlyphs"
text-anchor="start" opacity="0">Sheet: /</text>
<path d="M70220 72280
L70300 72310
L70440 72310
L70500 72280
L70530 72260
L70550 72200
L70550 72140
L70530 72090
L70500 72060
L70440 72030
L70330 72000
L70270 71970
L70250 71950
L70220 71890
L70220 71830
L70250 71780
L70270 71750
L70330 71720
L70470 71720
L70550 71750
" />
<path d="M70810 72310
L70810 71720
" />
<path d="M71060 72310
L71060 72000
L71030 71950
L70980 71920
L70890 71920
L70840 71950
L70810 71970
" />
<path d="M71570 72280
L71510 72310
L71400 72310
L71340 72280
L71310 72230
L71310 72000
L71340 71950
L71400 71920
L71510 71920
L71570 71950
L71590 72000
L71590 72060
L71310 72120
" />
<path d="M72070 72280
L72020 72310
L71900 72310
L71850 72280
L71820 72230
L71820 72000
L71850 71950
L71900 71920
L72020 71920
L72070 71950
L72100 72000
L72100 72060
L71820 72120
" />
<path d="M72270 71920
L72490 71920
" />
<path d="M72350 71720
L72350 72230
L72380 72280
L72440 72310
L72490 72310
" />
<path d="M72690 72260
L72720 72280
L72690 72310
L72660 72280
L72690 72260
L72690 72310
" />
<path d="M72690 71950
L72720 71970
L72690 72000
L72660 71970
L72690 71950
L72690 72000
" />
<path d="M73840 71690
L73340 72450
" />
</g>
<g style="fill:#840000; fill-opacity:0.0; 
stroke:#840000; stroke-width:100; stroke-opacity:1; 
stroke-linecap:round; stroke-linejoin:round;">
</g>
<g style="fill:#840000; fill-opacity:0.0; 
stroke:#840000; stroke-width:60; stroke-opacity:1; 
stroke-linecap:round; stroke-linejoin:round;">
<path d="M77560 75400
L77560 76580
" />
</g>
<g style="fill:#840000; fill-opacity:0.0; 
stroke:#840000; stroke-width:100; stroke-opacity:1; 
stroke-linecap:round; stroke-linejoin:round;">
</g>
<g style="fill:#840000; fill-opacity:0.0; 
stroke:#840000; stroke-width:60; stroke-opacity:1; 
stroke-linecap:round; stroke-linejoin:round;">
<path d="M102760 75400
L102760 77960
" />
</g>
<g style="fill:#840084; fill-opacity:0.0; 
stroke:#840084; stroke-width:60; stroke-opacity:1; 
stroke-linecap:round; stroke-linejoin:round;">
<path d="M18000 33250
L35250 33250
L35250 45500
L18000 45500
L18000 33250
" />
</g>
<g style="fill:#008484; fill-opacity:0.0; 
stroke:#008484; stroke-width:60; stroke-opacity:1; 
stroke-linecap:round; stroke-linejoin:round;">
</g>
<g style="fill:#000000; fill-opacity:0.0; 
stroke:#000000; stroke-width:60; stroke-opacity:1; 
stroke-linecap:round; stroke-linejoin:round;">
<text x="18000" y="33210"
textLength="6960" font-size="660" lengthAdjust="spacingAndGlyphs"
text-anchor="start" opacity="0">Sheet: InputSignal</text>
<path d="M18120 33160
L18190 33180
L18310 33180
L18360 33160
L18380 33130
L18410 33090
L18410 33040
L18380 32990
L18360 32970
L18310 32940
L18220 32920
L18170 32900
L18140 32870
L18120 32820
L18120 32780
L18140 32730
L18170 32710
L18220 32680
L18330 32680
L18410 32710
" />
<path d="M18620 33180
L18620 32680
" />
<path d="M18830 33180
L18830 32920
L18810 32870
L18760 32850
L18690 32850
L18640 32870
L18620 32900
" />
<path d="M19260 33160
L19220 33180
L19120 33180
L19070 33160
L19050 33110
L19050 32920
L19070 32870
L19120 32850
L19220 32850
L19260 32870
L19290 32920
L19290 32970
L19050 33010
" />
<path d="M19690 33160
L19640 33180
L19550 33180
L19500 33160
L19480 33110
L19480 32920
L19500 32870
L19550 32850
L19640 32850
L19690 32870
L19720 32920
L19720 32970
L19480 33010
" />
<path d="M19860 32850
L20050 32850
" />
<path d="M19930 32680
L19930 33110
L19950 33160
L20000 33180
L20050 33180
" />
<path d="M20220 33130
L20240 33160
L20220 33180
L20190 33160
L20220 33130
L20220 33180
" />
<path d="M20220 32870
L20240 32900
L20220 32920
L20190 32900
L20220 32870
L20220 32920
" />
<path d="M20830 33180
L20830 32680
" />
<path d="M21070 32850
L21070 33180
" />
<path d="M21070 32900
L21100 32870
L21140 32850
L21220 32850
L21260 32870
L21290 32920
L21290 33180
" />
<path d="M21530 32850
L21530 33350
" />
<path d="M21530 32870
L21570 32850
L21670 32850
L21720 32870
L21740 32900
L21760 32940
L21760 33090
L21740 33130
L21720 33160
L21670 33180
L21570 33180
L21530 33160
" />
<path d="M22190 32850
L22190 33180
" />
<path d="M21980 32850
L21980 33110
L22000 33160
L22050 33180
L22120 33180
L22170 33160
L22190 33130
" />
<path d="M22360 32850
L22550 32850
" />
<path d="M22430 32680
L22430 33110
L22450 33160
L22500 33180
L22550 33180
" />
<path d="M22690 33160
L22760 33180
L22880 33180
L22930 33160
L22950 33130
L22980 33090
L22980 33040
L22950 32990
L22930 32970
L22880 32940
L22790 32920
L22740 32900
L22720 32870
L22690 32820
L22690 32780
L22720 32730
L22740 32710
L22790 32680
L22910 32680
L22980 32710
" />
<path d="M23190 33180
L23190 32850
" />
<path d="M23190 32680
L23170 32710
L23190 32730
L23220 32710
L23190 32680
L23190 32730
" />
<path d="M23640 32850
L23640 33250
L23620 33300
L23600 33320
L23550 33350
L23480 33350
L23430 33320
" />
<path d="M23640 33160
L23600 33180
L23500 33180
L23450 33160
L23430 33130
L23410 33090
L23410 32940
L23430 32900
L23450 32870
L23500 32850
L23600 32850
L23640 32870
" />
<path d="M23880 32850
L23880 33180
" />
<path d="M23880 32900
L23910 32870
L23950 32850
L24030 32850
L24070 32870
L24100 32920
L24100 33180
" />
<path d="M24550 33180
L24550 32920
L24530 32870
L24480 32850
L24380 32850
L24330 32870
" />
<path d="M24550 33160
L24500 33180
L24380 33180
L24330 33160
L24310 33110
L24310 33060
L24330 33010
L24380 32990
L24500 32990
L24550 32970
" />
<path d="M24860 33180
L24810 33160
L24790 33110
L24790 32680
" />
</g>
<g style="fill:#848400; fill-opacity:0.0; 
stroke:#848400; stroke-width:60; stroke-opacity:1; 
stroke-linecap:round; stroke-linejoin:round;">
</g>
<g style="fill:#000000; fill-opacity:0.0; 
stroke:#000000; stroke-width:60; stroke-opacity:1; 
stroke-linecap:round; stroke-linejoin:round;">
<text x="18000" y="46040"
textLength="7770" font-size="660" lengthAdjust="spacingAndGlyphs"
text-anchor="start" opacity="0">File: InputSignal.sch</text>
<path d="M18310 45750
L18140 45750
" />
<path d="M18140 46010
L18140 45510
L18380 45510
" />
<path d="M18570 46010
L18570 45680
" />
<path d="M18570 45510
L18550 45540
L18570 45560
L18600 45540
L18570 45510
L18570 45560
" />
<path d="M18880 46010
L18830 45990
L18810 45940
L18810 45510
" />
<path d="M19260 45990
L19220 46010
L19120 46010
L19070 45990
L19050 45940
L19050 45750
L19070 45700
L19120 45680
L19220 45680
L19260 45700
L19290 45750
L19290 45800
L19050 45840
" />
<path d="M19500 45960
L19530 45990
L19500 46010
L19480 45990
L19500 45960
L19500 46010
" />
<path d="M19500 45700
L19530 45730
L19500 45750
L19480 45730
L19500 45700
L19500 45750
" />
<path d="M20120 46010
L20120 45510
" />
<path d="M20360 45680
L20360 46010
" />
<path d="M20360 45730
L20380 45700
L20430 45680
L20500 45680
L20550 45700
L20570 45750
L20570 46010
" />
<path d="M20810 45680
L20810 46180
" />
<path d="M20810 45700
L20860 45680
L20950 45680
L21000 45700
L21030 45730
L21050 45770
L21050 45920
L21030 45960
L21000 45990
L20950 46010
L20860 46010
L20810 45990
" />
<path d="M21480 45680
L21480 46010
" />
<path d="M21260 45680
L21260 45940
L21290 45990
L21330 46010
L21410 46010
L21450 45990
L21480 45960
" />
<path d="M21640 45680
L21830 45680
" />
<path d="M21720 45510
L21720 45940
L21740 45990
L21790 46010
L21830 46010
" />
<path d="M21980 45990
L22050 46010
L22170 46010
L22220 45990
L22240 45960
L22260 45920
L22260 45870
L22240 45820
L22220 45800
L22170 45770
L22070 45750
L22030 45730
L22000 45700
L21980 45650
L21980 45610
L22000 45560
L22030 45540
L22070 45510
L22190 45510
L22260 45540
" />
<path d="M22480 46010
L22480 45680
" />
<path d="M22480 45510
L22450 45540
L22480 45560
L22500 45540
L22480 45510
L22480 45560
" />
<path d="M22930 45680
L22930 46080
L22910 46130
L22880 46150
L22830 46180
L22760 46180
L22720 46150
" />
<path d="M22930 45990
L22880 46010
L22790 46010
L22740 45990
L22720 45960
L22690 45920
L22690 45770
L22720 45730
L22740 45700
L22790 45680
L22880 45680
L22930 45700
" />
<path d="M23170 45680
L23170 46010
" />
<path d="M23170 45730
L23190 45700
L23240 45680
L23310 45680
L23360 45700
L23380 45750
L23380 46010
" />
<path d="M23830 46010
L23830 45750
L23810 45700
L23760 45680
L23670 45680
L23620 45700
" />
<path d="M23830 45990
L23790 46010
L23670 46010
L23620 45990
L23600 45940
L23600 45890
L23620 45840
L23670 45820
L23790 45820
L23830 45800
" />
<path d="M24140 46010
L24100 45990
L24070 45940
L24070 45510
" />
<path d="M24330 45960
L24360 45990
L24330 46010
L24310 45990
L24330 45960
L24330 46010
" />
<path d="M24550 45990
L24600 46010
L24690 46010
L24740 45990
L24760 45940
L24760 45920
L24740 45870
L24690 45840
L24620 45840
L24570 45820
L24550 45770
L24550 45750
L24570 45700
L24620 45680
L24690 45680
L24740 45700
" />
<path d="M25190 45990
L25140 46010
L25050 46010
L25000 45990
L24980 45960
L24950 45920
L24950 45770
L24980 45730
L25000 45700
L25050 45680
L25140 45680
L25190 45700
" />
<path d="M25410 46010
L25410 45510
" />
<path d="M25620 46010
L25620 45750
L25600 45700
L25550 45680
L25480 45680
L25430 45700
L25410 45730
" />
</g>
<g style="fill:#840084; fill-opacity:0.0; 
stroke:#840084; stroke-width:60; stroke-opacity:1; 
stroke-linecap:round; stroke-linejoin:round;">
</g>
<g style="fill:#848400; fill-opacity:0.0; 
stroke:#848400; stroke-width:60; stroke-opacity:1; 
stroke-linecap:round; stroke-linejoin:round;">
<text x="34650" y="36750"
textLength="4540" font-size="660" lengthAdjust="spacingAndGlyphs"
text-anchor="end" opacity="0">ADIN_SDOUT</text>
<path d="M30230 36580
L30470 36580
" />
<path d="M30190 36720
L30350 36220
L30520 36720
" />
<path d="M30690 36720
L30690 36220
L30810 36220
L30880 36250
L30920 36290
L30950 36340
L30970 36440
L30970 36510
L30950 36600
L30920 36650
L30880 36700
L30810 36720
L30690 36720
" />
<path d="M31190 36720
L31190 36220
" />
<path d="M31420 36720
L31420 36220
L31710 36720
L31710 36220
" />
<path d="M31830 36770
L32210 36770
" />
<path d="M32310 36700
L32380 36720
L32500 36720
L32540 36700
L32570 36670
L32590 36630
L32590 36580
L32570 36530
L32540 36510
L32500 36480
L32400 36460
L32350 36440
L32330 36410
L32310 36360
L32310 36320
L32330 36270
L32350 36250
L32400 36220
L32520 36220
L32590 36250
" />
<path d="M32810 36720
L32810 36220
L32920 36220
L33000 36250
L33040 36290
L33070 36340
L33090 36440
L33090 36510
L33070 36600
L33040 36650
L33000 36700
L32920 36720
L32810 36720
" />
<path d="M33400 36220
L33500 36220
L33540 36250
L33590 36290
L33620 36390
L33620 36550
L33590 36650
L33540 36700
L33500 36720
L33400 36720
L33350 36700
L33310 36650
L33280 36550
L33280 36390
L33310 36290
L33350 36250
L33400 36220
" />
<path d="M33830 36220
L33830 36630
L33850 36670
L33880 36700
L33920 36720
L34020 36720
L34070 36700
L34090 36670
L34120 36630
L34120 36220
" />
<path d="M34280 36220
L34570 36220
" />
<path d="M34420 36720
L34420 36220
" />
</g>
<g style="fill:#848400; fill-opacity:0.0; 
stroke:#848400; stroke-width:100; stroke-opacity:1; 
stroke-linecap:round; stroke-linejoin:round;">
<path style="fill:#848400; fill-opacity:0.0; 
stroke:#848400; stroke-width:100; stroke-opacity:1; 
stroke-linecap:round; stroke-linejoin:round;fill:none"
d="M 34750,36500
35000,36750
35250,36750
35250,36250
35000,36250
Z" /> 
</g>
<g style="fill:#848400; fill-opacity:0.0; 
stroke:#848400; stroke-width:60; stroke-opacity:1; 
stroke-linecap:round; stroke-linejoin:round;">
<text x="34650" y="40500"
textLength="4010" font-size="660" lengthAdjust="spacingAndGlyphs"
text-anchor="end" opacity="0">ADIN_SCLK</text>
<path d="M30760 40330
L31000 40330
" />
<path d="M30710 40470
L30880 39970
L31040 40470
" />
<path d="M31210 40470
L31210 39970
L31330 39970
L31400 40000
L31450 40040
L31470 40090
L31500 40190
L31500 40260
L31470 40350
L31450 40400
L31400 40450
L31330 40470
L31210 40470
" />
<path d="M31710 40470
L31710 39970
" />
<path d="M31950 40470
L31950 39970
L32230 40470
L32230 39970
" />
<path d="M32350 40520
L32730 40520
" />
<path d="M32830 40450
L32900 40470
L33020 40470
L33070 40450
L33090 40420
L33120 40380
L33120 40330
L33090 40280
L33070 40260
L33020 40230
L32920 40210
L32880 40190
L32850 40160
L32830 40110
L32830 40070
L32850 40020
L32880 40000
L32920 39970
L33040 39970
L33120 40000
" />
<path d="M33620 40420
L33590 40450
L33520 40470
L33470 40470
L33400 40450
L33350 40400
L33330 40350
L33310 40260
L33310 40190
L33330 40090
L33350 40040
L33400 40000
L33470 39970
L33520 39970
L33590 40000
L33620 40020
" />
<path d="M34070 40470
L33830 40470
L33830 39970
" />
<path d="M34230 40470
L34230 39970
" />
<path d="M34520 40470
L34310 40190
" />
<path d="M34520 39970
L34230 40260
" />
</g>
<g style="fill:#848400; fill-opacity:0.0; 
stroke:#848400; stroke-width:100; stroke-opacity:1; 
stroke-linecap:round; stroke-linejoin:round;">
<path style="fill:#848400; fill-opacity:0.0; 
stroke:#848400; stroke-width:100; stroke-opacity:1; 
stroke-linecap:round; stroke-linejoin:round;fill:none"
d="M 34750,40250
35000,40500
35250,40500
35250,40000
35000,40000
Z" /> 
</g>
<g style="fill:#848400; fill-opacity:0.0; 
stroke:#848400; stroke-width:60; stroke-opacity:1; 
stroke-linecap:round; stroke-linejoin:round;">
<text x="34650" y="42000"
textLength="4040" font-size="660" lengthAdjust="spacingAndGlyphs"
text-anchor="end" opacity="0">ADIN_LRCK</text>
<path d="M30730 41830
L30970 41830
" />
<path d="M30690 41970
L30850 41470
L31020 41970
" />
<path d="M31190 41970
L31190 41470
L31310 41470
L31380 41500
L31420 41540
L31450 41590
L31470 41690
L31470 41760
L31450 41850
L31420 41900
L31380 41950
L31310 41970
L31190 41970
" />
<path d="M31690 41970
L31690 41470
" />
<path d="M31920 41970
L31920 41470
L32210 41970
L32210 41470
" />
<path d="M32330 42020
L32710 42020
" />
<path d="M33070 41970
L32830 41970
L32830 41470
" />
<path d="M33520 41970
L33350 41730
" />
<path d="M33230 41970
L33230 41470
L33420 41470
L33470 41500
L33500 41520
L33520 41570
L33520 41640
L33500 41690
L33470 41710
L33420 41730
L33230 41730
" />
<path d="M34020 41920
L34000 41950
L33920 41970
L33880 41970
L33810 41950
L33760 41900
L33730 41850
L33710 41760
L33710 41690
L33730 41590
L33760 41540
L33810 41500
L33880 41470
L33920 41470
L34000 41500
L34020 41520
" />
<path d="M34230 41970
L34230 41470
" />
<path d="M34520 41970
L34310 41690
" />
<path d="M34520 41470
L34230 41760
" />
</g>
<g style="fill:#848400; fill-opacity:0.0; 
stroke:#848400; stroke-width:100; stroke-opacity:1; 
stroke-linecap:round; stroke-linejoin:round;">
<path style="fill:#848400; fill-opacity:0.0; 
stroke:#848400; stroke-width:100; stroke-opacity:1; 
stroke-linecap:round; stroke-linejoin:round;fill:none"
d="M 34750,41750
35000,42000
35250,42000
35250,41500
35000,41500
Z" /> 
</g>
<g style="fill:#848400; fill-opacity:0.0; 
stroke:#848400; stroke-width:60; stroke-opacity:1; 
stroke-linecap:round; stroke-linejoin:round;">
<text x="34650" y="43500"
textLength="4110" font-size="660" lengthAdjust="spacingAndGlyphs"
text-anchor="end" opacity="0">ADIN_MCLK</text>
<path d="M30660 43330
L30900 43330
" />
<path d="M30620 43470
L30780 42970
L30950 43470
" />
<path d="M31120 43470
L31120 42970
L31230 42970
L31310 43000
L31350 43040
L31380 43090
L31400 43190
L31400 43260
L31380 43350
L31350 43400
L31310 43450
L31230 43470
L31120 43470
" />
<path d="M31620 43470
L31620 42970
" />
<path d="M31850 43470
L31850 42970
L32140 43470
L32140 42970
" />
<path d="M32260 43520
L32640 43520
" />
<path d="M32760 43470
L32760 42970
L32920 43330
L33090 42970
L33090 43470
" />
<path d="M33620 43420
L33590 43450
L33520 43470
L33470 43470
L33400 43450
L33350 43400
L33330 43350
L33310 43260
L33310 43190
L33330 43090
L33350 43040
L33400 43000
L33470 42970
L33520 42970
L33590 43000
L33620 43020
" />
<path d="M34070 43470
L33830 43470
L33830 42970
" />
<path d="M34230 43470
L34230 42970
" />
<path d="M34520 43470
L34310 43190
" />
<path d="M34520 42970
L34230 43260
" />
</g>
<g style="fill:#848400; fill-opacity:0.0; 
stroke:#848400; stroke-width:100; stroke-opacity:1; 
stroke-linecap:round; stroke-linejoin:round;">
<path style="fill:#848400; fill-opacity:0.0; 
stroke:#848400; stroke-width:100; stroke-opacity:1; 
stroke-linecap:round; stroke-linejoin:round;fill:none"
d="M 34750,43250
35000,43500
35250,43500
35250,43000
35000,43000
Z" /> 
</g>
<g style="fill:#848400; fill-opacity:0.0; 
stroke:#848400; stroke-width:60; stroke-opacity:1; 
stroke-linecap:round; stroke-linejoin:round;">
</g>
<g style="fill:#840084; fill-opacity:0.0; 
stroke:#840084; stroke-width:60; stroke-opacity:1; 
stroke-linecap:round; stroke-linejoin:round;">
<path d="M83000 33250
L100000 33250
L100000 45500
L83000 45500
L83000 33250
" />
</g>
<g style="fill:#008484; fill-opacity:0.0; 
stroke:#008484; stroke-width:60; stroke-opacity:1; 
stroke-linecap:round; stroke-linejoin:round;">
</g>
<g style="fill:#000000; fill-opacity:0.0; 
stroke:#000000; stroke-width:60; stroke-opacity:1; 
stroke-linecap:round; stroke-linejoin:round;">
<text x="83000" y="33210"
textLength="7540" font-size="660" lengthAdjust="spacingAndGlyphs"
text-anchor="start" opacity="0">Sheet: OutputSignal</text>
<path d="M83120 33160
L83190 33180
L83310 33180
L83360 33160
L83380 33130
L83410 33090
L83410 33040
L83380 32990
L83360 32970
L83310 32940
L83220 32920
L83170 32900
L83140 32870
L83120 32820
L83120 32780
L83140 32730
L83170 32710
L83220 32680
L83330 32680
L83410 32710
" />
<path d="M83620 33180
L83620 32680
" />
<path d="M83830 33180
L83830 32920
L83810 32870
L83760 32850
L83690 32850
L83640 32870
L83620 32900
" />
<path d="M84260 33160
L84220 33180
L84120 33180
L84070 33160
L84050 33110
L84050 32920
L84070 32870
L84120 32850
L84220 32850
L84260 32870
L84290 32920
L84290 32970
L84050 33010
" />
<path d="M84690 33160
L84640 33180
L84550 33180
L84500 33160
L84480 33110
L84480 32920
L84500 32870
L84550 32850
L84640 32850
L84690 32870
L84720 32920
L84720 32970
L84480 33010
" />
<path d="M84860 32850
L85050 32850
" />
<path d="M84930 32680
L84930 33110
L84950 33160
L85000 33180
L85050 33180
" />
<path d="M85220 33130
L85240 33160
L85220 33180
L85190 33160
L85220 33130
L85220 33180
" />
<path d="M85220 32870
L85240 32900
L85220 32920
L85190 32900
L85220 32870
L85220 32920
" />
<path d="M85930 32680
L86030 32680
L86070 32710
L86120 32750
L86140 32850
L86140 33010
L86120 33110
L86070 33160
L86030 33180
L85930 33180
L85880 33160
L85830 33110
L85810 33010
L85810 32850
L85830 32750
L85880 32710
L85930 32680
" />
<path d="M86570 32850
L86570 33180
" />
<path d="M86360 32850
L86360 33110
L86380 33160
L86430 33180
L86500 33180
L86550 33160
L86570 33130
" />
<path d="M86740 32850
L86930 32850
" />
<path d="M86810 32680
L86810 33110
L86830 33160
L86880 33180
L86930 33180
" />
<path d="M87100 32850
L87100 33350
" />
<path d="M87100 32870
L87140 32850
L87240 32850
L87290 32870
L87310 32900
L87330 32940
L87330 33090
L87310 33130
L87290 33160
L87240 33180
L87140 33180
L87100 33160
" />
<path d="M87760 32850
L87760 33180
" />
<path d="M87550 32850
L87550 33110
L87570 33160
L87620 33180
L87690 33180
L87740 33160
L87760 33130
" />
<path d="M87930 32850
L88120 32850
" />
<path d="M88000 32680
L88000 33110
L88030 33160
L88070 33180
L88120 33180
" />
<path d="M88260 33160
L88330 33180
L88450 33180
L88500 33160
L88530 33130
L88550 33090
L88550 33040
L88530 32990
L88500 32970
L88450 32940
L88360 32920
L88310 32900
L88290 32870
L88260 32820
L88260 32780
L88290 32730
L88310 32710
L88360 32680
L88480 32680
L88550 32710
" />
<path d="M88760 33180
L88760 32850
" />
<path d="M88760 32680
L88740 32710
L88760 32730
L88790 32710
L88760 32680
L88760 32730
" />
<path d="M89220 32850
L89220 33250
L89190 33300
L89170 33320
L89120 33350
L89050 33350
L89000 33320
" />
<path d="M89220 33160
L89170 33180
L89070 33180
L89030 33160
L89000 33130
L88980 33090
L88980 32940
L89000 32900
L89030 32870
L89070 32850
L89170 32850
L89220 32870
" />
<path d="M89450 32850
L89450 33180
" />
<path d="M89450 32900
L89480 32870
L89530 32850
L89600 32850
L89640 32870
L89670 32920
L89670 33180
" />
<path d="M90120 33180
L90120 32920
L90100 32870
L90050 32850
L89950 32850
L89910 32870
" />
<path d="M90120 33160
L90070 33180
L89950 33180
L89910 33160
L89880 33110
L89880 33060
L89910 33010
L89950 32990
L90070 32990
L90120 32970
" />
<path d="M90430 33180
L90380 33160
L90360 33110
L90360 32680
" />
</g>
<g style="fill:#848400; fill-opacity:0.0; 
stroke:#848400; stroke-width:60; stroke-opacity:1; 
stroke-linecap:round; stroke-linejoin:round;">
</g>
<g style="fill:#000000; fill-opacity:0.0; 
stroke:#000000; stroke-width:60; stroke-opacity:1; 
stroke-linecap:round; stroke-linejoin:round;">
<text x="83000" y="46040"
textLength="8350" font-size="660" lengthAdjust="spacingAndGlyphs"
text-anchor="start" opacity="0">File: OutputSignal.sch</text>
<path d="M83310 45750
L83140 45750
" />
<path d="M83140 46010
L83140 45510
L83380 45510
" />
<path d="M83570 46010
L83570 45680
" />
<path d="M83570 45510
L83550 45540
L83570 45560
L83600 45540
L83570 45510
L83570 45560
" />
<path d="M83880 46010
L83830 45990
L83810 45940
L83810 45510
" />
<path d="M84260 45990
L84220 46010
L84120 46010
L84070 45990
L84050 45940
L84050 45750
L84070 45700
L84120 45680
L84220 45680
L84260 45700
L84290 45750
L84290 45800
L84050 45840
" />
<path d="M84500 45960
L84530 45990
L84500 46010
L84480 45990
L84500 45960
L84500 46010
" />
<path d="M84500 45700
L84530 45730
L84500 45750
L84480 45730
L84500 45700
L84500 45750
" />
<path d="M85220 45510
L85310 45510
L85360 45540
L85410 45580
L85430 45680
L85430 45840
L85410 45940
L85360 45990
L85310 46010
L85220 46010
L85170 45990
L85120 45940
L85100 45840
L85100 45680
L85120 45580
L85170 45540
L85220 45510
" />
<path d="M85860 45680
L85860 46010
" />
<path d="M85640 45680
L85640 45940
L85670 45990
L85720 46010
L85790 46010
L85830 45990
L85860 45960
" />
<path d="M86030 45680
L86220 45680
" />
<path d="M86100 45510
L86100 45940
L86120 45990
L86170 46010
L86220 46010
" />
<path d="M86380 45680
L86380 46180
" />
<path d="M86380 45700
L86430 45680
L86530 45680
L86570 45700
L86600 45730
L86620 45770
L86620 45920
L86600 45960
L86570 45990
L86530 46010
L86430 46010
L86380 45990
" />
<path d="M87050 45680
L87050 46010
" />
<path d="M86830 45680
L86830 45940
L86860 45990
L86910 46010
L86980 46010
L87030 45990
L87050 45960
" />
<path d="M87220 45680
L87410 45680
" />
<path d="M87290 45510
L87290 45940
L87310 45990
L87360 46010
L87410 46010
" />
<path d="M87550 45990
L87620 46010
L87740 46010
L87790 45990
L87810 45960
L87830 45920
L87830 45870
L87810 45820
L87790 45800
L87740 45770
L87640 45750
L87600 45730
L87570 45700
L87550 45650
L87550 45610
L87570 45560
L87600 45540
L87640 45510
L87760 45510
L87830 45540
" />
<path d="M88050 46010
L88050 45680
" />
<path d="M88050 45510
L88030 45540
L88050 45560
L88070 45540
L88050 45510
L88050 45560
" />
<path d="M88500 45680
L88500 46080
L88480 46130
L88450 46150
L88410 46180
L88330 46180
L88290 46150
" />
<path d="M88500 45990
L88450 46010
L88360 46010
L88310 45990
L88290 45960
L88260 45920
L88260 45770
L88290 45730
L88310 45700
L88360 45680
L88450 45680
L88500 45700
" />
<path d="M88740 45680
L88740 46010
" />
<path d="M88740 45730
L88760 45700
L88810 45680
L88880 45680
L88930 45700
L88950 45750
L88950 46010
" />
<path d="M89410 46010
L89410 45750
L89380 45700
L89330 45680
L89240 45680
L89190 45700
" />
<path d="M89410 45990
L89360 46010
L89240 46010
L89190 45990
L89170 45940
L89170 45890
L89190 45840
L89240 45820
L89360 45820
L89410 45800
" />
<path d="M89720 46010
L89670 45990
L89640 45940
L89640 45510
" />
<path d="M89910 45960
L89930 45990
L89910 46010
L89880 45990
L89910 45960
L89910 46010
" />
<path d="M90120 45990
L90170 46010
L90260 46010
L90310 45990
L90330 45940
L90330 45920
L90310 45870
L90260 45840
L90190 45840
L90140 45820
L90120 45770
L90120 45750
L90140 45700
L90190 45680
L90260 45680
L90310 45700
" />
<path d="M90760 45990
L90720 46010
L90620 46010
L90570 45990
L90550 45960
L90530 45920
L90530 45770
L90550 45730
L90570 45700
L90620 45680
L90720 45680
L90760 45700
" />
<path d="M90980 46010
L90980 45510
" />
<path d="M91190 46010
L91190 45750
L91170 45700
L91120 45680
L91050 45680
L91000 45700
L90980 45730
" />
</g>
<g style="fill:#840084; fill-opacity:0.0; 
stroke:#840084; stroke-width:60; stroke-opacity:1; 
stroke-linecap:round; stroke-linejoin:round;">
</g>
<g style="fill:#848400; fill-opacity:0.0; 
stroke:#848400; stroke-width:60; stroke-opacity:1; 
stroke-linecap:round; stroke-linejoin:round;">
<text x="83600" y="36750"
textLength="4540" font-size="660" lengthAdjust="spacingAndGlyphs"
text-anchor="start" opacity="0">ADOUT_SDIN</text>
<path d="M83720 36580
L83960 36580
" />
<path d="M83670 36720
L83840 36220
L84010 36720
" />
<path d="M84170 36720
L84170 36220
L84290 36220
L84360 36250
L84410 36290
L84430 36340
L84460 36440
L84460 36510
L84430 36600
L84410 36650
L84360 36700
L84290 36720
L84170 36720
" />
<path d="M84770 36220
L84860 36220
L84910 36250
L84960 36290
L84980 36390
L84980 36550
L84960 36650
L84910 36700
L84860 36720
L84770 36720
L84720 36700
L84670 36650
L84650 36550
L84650 36390
L84670 36290
L84720 36250
L84770 36220
" />
<path d="M85200 36220
L85200 36630
L85220 36670
L85240 36700
L85290 36720
L85390 36720
L85430 36700
L85460 36670
L85480 36630
L85480 36220
" />
<path d="M85650 36220
L85930 36220
" />
<path d="M85790 36720
L85790 36220
" />
<path d="M85980 36770
L86360 36770
" />
<path d="M86460 36700
L86530 36720
L86650 36720
L86700 36700
L86720 36670
L86740 36630
L86740 36580
L86720 36530
L86700 36510
L86650 36480
L86550 36460
L86510 36440
L86480 36410
L86460 36360
L86460 36320
L86480 36270
L86510 36250
L86550 36220
L86670 36220
L86740 36250
" />
<path d="M86960 36720
L86960 36220
L87080 36220
L87150 36250
L87200 36290
L87220 36340
L87240 36440
L87240 36510
L87220 36600
L87200 36650
L87150 36700
L87080 36720
L86960 36720
" />
<path d="M87460 36720
L87460 36220
" />
<path d="M87700 36720
L87700 36220
L87980 36720
L87980 36220
" />
</g>
<g style="fill:#848400; fill-opacity:0.0; 
stroke:#848400; stroke-width:100; stroke-opacity:1; 
stroke-linecap:round; stroke-linejoin:round;">
<path style="fill:#848400; fill-opacity:0.0; 
stroke:#848400; stroke-width:100; stroke-opacity:1; 
stroke-linecap:round; stroke-linejoin:round;fill:none"
d="M 83500,36500
83250,36250
83000,36250
83000,36750
83250,36750
Z" /> 
</g>
<g style="fill:#848400; fill-opacity:0.0; 
stroke:#848400; stroke-width:60; stroke-opacity:1; 
stroke-linecap:round; stroke-linejoin:round;">
<text x="83600" y="40500"
textLength="4680" font-size="660" lengthAdjust="spacingAndGlyphs"
text-anchor="start" opacity="0">ADOUT_SCLK</text>
<path d="M83720 40330
L83960 40330
" />
<path d="M83670 40470
L83840 39970
L84010 40470
" />
<path d="M84170 40470
L84170 39970
L84290 39970
L84360 40000
L84410 40040
L84430 40090
L84460 40190
L84460 40260
L84430 40350
L84410 40400
L84360 40450
L84290 40470
L84170 40470
" />
<path d="M84770 39970
L84860 39970
L84910 40000
L84960 40040
L84980 40140
L84980 40300
L84960 40400
L84910 40450
L84860 40470
L84770 40470
L84720 40450
L84670 40400
L84650 40300
L84650 40140
L84670 40040
L84720 40000
L84770 39970
" />
<path d="M85200 39970
L85200 40380
L85220 40420
L85240 40450
L85290 40470
L85390 40470
L85430 40450
L85460 40420
L85480 40380
L85480 39970
" />
<path d="M85650 39970
L85930 39970
" />
<path d="M85790 40470
L85790 39970
" />
<path d="M85980 40520
L86360 40520
" />
<path d="M86460 40450
L86530 40470
L86650 40470
L86700 40450
L86720 40420
L86740 40380
L86740 40330
L86720 40280
L86700 40260
L86650 40230
L86550 40210
L86510 40190
L86480 40160
L86460 40110
L86460 40070
L86480 40020
L86510 40000
L86550 39970
L86670 39970
L86740 40000
" />
<path d="M87240 40420
L87220 40450
L87150 40470
L87100 40470
L87030 40450
L86980 40400
L86960 40350
L86930 40260
L86930 40190
L86960 40090
L86980 40040
L87030 40000
L87100 39970
L87150 39970
L87220 40000
L87240 40020
" />
<path d="M87700 40470
L87460 40470
L87460 39970
" />
<path d="M87860 40470
L87860 39970
" />
<path d="M88150 40470
L87930 40190
" />
<path d="M88150 39970
L87860 40260
" />
</g>
<g style="fill:#848400; fill-opacity:0.0; 
stroke:#848400; stroke-width:100; stroke-opacity:1; 
stroke-linecap:round; stroke-linejoin:round;">
<path style="fill:#848400; fill-opacity:0.0; 
stroke:#848400; stroke-width:100; stroke-opacity:1; 
stroke-linecap:round; stroke-linejoin:round;fill:none"
d="M 83500,40250
83250,40000
83000,40000
83000,40500
83250,40500
Z" /> 
</g>
<g style="fill:#848400; fill-opacity:0.0; 
stroke:#848400; stroke-width:60; stroke-opacity:1; 
stroke-linecap:round; stroke-linejoin:round;">
<text x="83600" y="42000"
textLength="4700" font-size="660" lengthAdjust="spacingAndGlyphs"
text-anchor="start" opacity="0">ADOUT_LRCK</text>
<path d="M83720 41830
L83960 41830
" />
<path d="M83670 41970
L83840 41470
L84010 41970
" />
<path d="M84170 41970
L84170 41470
L84290 41470
L84360 41500
L84410 41540
L84430 41590
L84460 41690
L84460 41760
L84430 41850
L84410 41900
L84360 41950
L84290 41970
L84170 41970
" />
<path d="M84770 41470
L84860 41470
L84910 41500
L84960 41540
L84980 41640
L84980 41800
L84960 41900
L84910 41950
L84860 41970
L84770 41970
L84720 41950
L84670 41900
L84650 41800
L84650 41640
L84670 41540
L84720 41500
L84770 41470
" />
<path d="M85200 41470
L85200 41880
L85220 41920
L85240 41950
L85290 41970
L85390 41970
L85430 41950
L85460 41920
L85480 41880
L85480 41470
" />
<path d="M85650 41470
L85930 41470
" />
<path d="M85790 41970
L85790 41470
" />
<path d="M85980 42020
L86360 42020
" />
<path d="M86720 41970
L86480 41970
L86480 41470
" />
<path d="M87170 41970
L87010 41730
" />
<path d="M86890 41970
L86890 41470
L87080 41470
L87130 41500
L87150 41520
L87170 41570
L87170 41640
L87150 41690
L87130 41710
L87080 41730
L86890 41730
" />
<path d="M87670 41920
L87650 41950
L87580 41970
L87530 41970
L87460 41950
L87410 41900
L87390 41850
L87360 41760
L87360 41690
L87390 41590
L87410 41540
L87460 41500
L87530 41470
L87580 41470
L87650 41500
L87670 41520
" />
<path d="M87890 41970
L87890 41470
" />
<path d="M88170 41970
L87960 41690
" />
<path d="M88170 41470
L87890 41760
" />
</g>
<g style="fill:#848400; fill-opacity:0.0; 
stroke:#848400; stroke-width:100; stroke-opacity:1; 
stroke-linecap:round; stroke-linejoin:round;">
<path style="fill:#848400; fill-opacity:0.0; 
stroke:#848400; stroke-width:100; stroke-opacity:1; 
stroke-linecap:round; stroke-linejoin:round;fill:none"
d="M 83500,41750
83250,41500
83000,41500
83000,42000
83250,42000
Z" /> 
</g>
<g style="fill:#848400; fill-opacity:0.0; 
stroke:#848400; stroke-width:60; stroke-opacity:1; 
stroke-linecap:round; stroke-linejoin:round;">
<text x="83600" y="43500"
textLength="4770" font-size="660" lengthAdjust="spacingAndGlyphs"
text-anchor="start" opacity="0">ADOUT_MCLK</text>
<path d="M83720 43330
L83960 43330
" />
<path d="M83670 43470
L83840 42970
L84010 43470
" />
<path d="M84170 43470
L84170 42970
L84290 42970
L84360 43000
L84410 43040
L84430 43090
L84460 43190
L84460 43260
L84430 43350
L84410 43400
L84360 43450
L84290 43470
L84170 43470
" />
<path d="M84770 42970
L84860 42970
L84910 43000
L84960 43040
L84980 43140
L84980 43300
L84960 43400
L84910 43450
L84860 43470
L84770 43470
L84720 43450
L84670 43400
L84650 43300
L84650 43140
L84670 43040
L84720 43000
L84770 42970
" />
<path d="M85200 42970
L85200 43380
L85220 43420
L85240 43450
L85290 43470
L85390 43470
L85430 43450
L85460 43420
L85480 43380
L85480 42970
" />
<path d="M85650 42970
L85930 42970
" />
<path d="M85790 43470
L85790 42970
" />
<path d="M85980 43520
L86360 43520
" />
<path d="M86480 43470
L86480 42970
L86650 43330
L86820 42970
L86820 43470
" />
<path d="M87340 43420
L87320 43450
L87240 43470
L87200 43470
L87130 43450
L87080 43400
L87050 43350
L87030 43260
L87030 43190
L87050 43090
L87080 43040
L87130 43000
L87200 42970
L87240 42970
L87320 43000
L87340 43020
" />
<path d="M87790 43470
L87550 43470
L87550 42970
" />
<path d="M87960 43470
L87960 42970
" />
<path d="M88240 43470
L88030 43190
" />
<path d="M88240 42970
L87960 43260
" />
</g>
<g style="fill:#848400; fill-opacity:0.0; 
stroke:#848400; stroke-width:100; stroke-opacity:1; 
stroke-linecap:round; stroke-linejoin:round;">
<path style="fill:#848400; fill-opacity:0.0; 
stroke:#848400; stroke-width:100; stroke-opacity:1; 
stroke-linecap:round; stroke-linejoin:round;fill:none"
d="M 83500,43250
83250,43000
83000,43000
83000,43500
83250,43500
Z" /> 
</g>
<g style="fill:#848400; fill-opacity:0.0; 
stroke:#848400; stroke-width:60; stroke-opacity:1; 
stroke-linecap:round; stroke-linejoin:round;">
</g>
<g style="fill:#840084; fill-opacity:0.0; 
stroke:#840084; stroke-width:60; stroke-opacity:1; 
stroke-linecap:round; stroke-linejoin:round;">
<path d="M46000 33250
L66000 33250
L66000 45500
L46000 45500
L46000 33250
" />
</g>
<g style="fill:#008484; fill-opacity:0.0; 
stroke:#008484; stroke-width:60; stroke-opacity:1; 
stroke-linecap:round; stroke-linejoin:round;">
</g>
<g style="fill:#000000; fill-opacity:0.0; 
stroke:#000000; stroke-width:60; stroke-opacity:1; 
stroke-linecap:round; stroke-linejoin:round;">
<text x="46000" y="33210"
textLength="9160" font-size="660" lengthAdjust="spacingAndGlyphs"
text-anchor="start" opacity="0">Sheet: SignalProcessing</text>
<path d="M46120 33160
L46190 33180
L46310 33180
L46360 33160
L46380 33130
L46410 33090
L46410 33040
L46380 32990
L46360 32970
L46310 32940
L46220 32920
L46170 32900
L46140 32870
L46120 32820
L46120 32780
L46140 32730
L46170 32710
L46220 32680
L46330 32680
L46410 32710
" />
<path d="M46620 33180
L46620 32680
" />
<path d="M46830 33180
L46830 32920
L46810 32870
L46760 32850
L46690 32850
L46640 32870
L46620 32900
" />
<path d="M47260 33160
L47220 33180
L47120 33180
L47070 33160
L47050 33110
L47050 32920
L47070 32870
L47120 32850
L47220 32850
L47260 32870
L47290 32920
L47290 32970
L47050 33010
" />
<path d="M47690 33160
L47640 33180
L47550 33180
L47500 33160
L47480 33110
L47480 32920
L47500 32870
L47550 32850
L47640 32850
L47690 32870
L47720 32920
L47720 32970
L47480 33010
" />
<path d="M47860 32850
L48050 32850
" />
<path d="M47930 32680
L47930 33110
L47950 33160
L48000 33180
L48050 33180
" />
<path d="M48220 33130
L48240 33160
L48220 33180
L48190 33160
L48220 33130
L48220 33180
" />
<path d="M48220 32870
L48240 32900
L48220 32920
L48190 32900
L48220 32870
L48220 32920
" />
<path d="M48810 33160
L48880 33180
L49000 33180
L49050 33160
L49070 33130
L49100 33090
L49100 33040
L49070 32990
L49050 32970
L49000 32940
L48910 32920
L48860 32900
L48830 32870
L48810 32820
L48810 32780
L48830 32730
L48860 32710
L48910 32680
L49030 32680
L49100 32710
" />
<path d="M49310 33180
L49310 32850
" />
<path d="M49310 32680
L49290 32710
L49310 32730
L49330 32710
L49310 32680
L49310 32730
" />
<path d="M49760 32850
L49760 33250
L49740 33300
L49720 33320
L49670 33350
L49600 33350
L49550 33320
" />
<path d="M49760 33160
L49720 33180
L49620 33180
L49570 33160
L49550 33130
L49530 33090
L49530 32940
L49550 32900
L49570 32870
L49620 32850
L49720 32850
L49760 32870
" />
<path d="M50000 32850
L50000 33180
" />
<path d="M50000 32900
L50030 32870
L50070 32850
L50140 32850
L50190 32870
L50220 32920
L50220 33180
" />
<path d="M50670 33180
L50670 32920
L50640 32870
L50600 32850
L50500 32850
L50450 32870
" />
<path d="M50670 33160
L50620 33180
L50500 33180
L50450 33160
L50430 33110
L50430 33060
L50450 33010
L50500 32990
L50620 32990
L50670 32970
" />
<path d="M50980 33180
L50930 33160
L50910 33110
L50910 32680
" />
<path d="M51170 33180
L51170 32680
L51360 32680
L51410 32710
L51430 32730
L51450 32780
L51450 32850
L51430 32900
L51410 32920
L51360 32940
L51170 32940
" />
<path d="M51670 33180
L51670 32850
" />
<path d="M51670 32940
L51690 32900
L51720 32870
L51760 32850
L51810 32850
" />
<path d="M52050 33180
L52000 33160
L51980 33130
L51950 33090
L51950 32940
L51980 32900
L52000 32870
L52050 32850
L52120 32850
L52170 32870
L52190 32900
L52220 32940
L52220 33090
L52190 33130
L52170 33160
L52120 33180
L52050 33180
" />
<path d="M52640 33160
L52600 33180
L52500 33180
L52450 33160
L52430 33130
L52410 33090
L52410 32940
L52430 32900
L52450 32870
L52500 32850
L52600 32850
L52640 32870
" />
<path d="M53050 33160
L53000 33180
L52910 33180
L52860 33160
L52830 33110
L52830 32920
L52860 32870
L52910 32850
L53000 32850
L53050 32870
L53070 32920
L53070 32970
L52830 33010
" />
<path d="M53260 33160
L53310 33180
L53410 33180
L53450 33160
L53480 33110
L53480 33090
L53450 33040
L53410 33010
L53330 33010
L53290 32990
L53260 32940
L53260 32920
L53290 32870
L53330 32850
L53410 32850
L53450 32870
" />
<path d="M53670 33160
L53720 33180
L53810 33180
L53860 33160
L53880 33110
L53880 33090
L53860 33040
L53810 33010
L53740 33010
L53690 32990
L53670 32940
L53670 32920
L53690 32870
L53740 32850
L53810 32850
L53860 32870
" />
<path d="M54100 33180
L54100 32850
" />
<path d="M54100 32680
L54070 32710
L54100 32730
L54120 32710
L54100 32680
L54100 32730
" />
<path d="M54330 32850
L54330 33180
" />
<path d="M54330 32900
L54360 32870
L54410 32850
L54480 32850
L54530 32870
L54550 32920
L54550 33180
" />
<path d="M55000 32850
L55000 33250
L54980 33300
L54950 33320
L54910 33350
L54830 33350
L54790 33320
" />
<path d="M55000 33160
L54950 33180
L54860 33180
L54810 33160
L54790 33130
L54760 33090
L54760 32940
L54790 32900
L54810 32870
L54860 32850
L54950 32850
L55000 32870
" />
</g>
<g style="fill:#848400; fill-opacity:0.0; 
stroke:#848400; stroke-width:60; stroke-opacity:1; 
stroke-linecap:round; stroke-linejoin:round;">
</g>
<g style="fill:#000000; fill-opacity:0.0; 
stroke:#000000; stroke-width:60; stroke-opacity:1; 
stroke-linecap:round; stroke-linejoin:round;">
<text x="46000" y="46040"
textLength="9960" font-size="660" lengthAdjust="spacingAndGlyphs"
text-anchor="start" opacity="0">File: SignalProcessing.sch</text>
<path d="M46310 45750
L46140 45750
" />
<path d="M46140 46010
L46140 45510
L46380 45510
" />
<path d="M46570 46010
L46570 45680
" />
<path d="M46570 45510
L46550 45540
L46570 45560
L46600 45540
L46570 45510
L46570 45560
" />
<path d="M46880 46010
L46830 45990
L46810 45940
L46810 45510
" />
<path d="M47260 45990
L47220 46010
L47120 46010
L47070 45990
L47050 45940
L47050 45750
L47070 45700
L47120 45680
L47220 45680
L47260 45700
L47290 45750
L47290 45800
L47050 45840
" />
<path d="M47500 45960
L47530 45990
L47500 46010
L47480 45990
L47500 45960
L47500 46010
" />
<path d="M47500 45700
L47530 45730
L47500 45750
L47480 45730
L47500 45700
L47500 45750
" />
<path d="M48100 45990
L48170 46010
L48290 46010
L48330 45990
L48360 45960
L48380 45920
L48380 45870
L48360 45820
L48330 45800
L48290 45770
L48190 45750
L48140 45730
L48120 45700
L48100 45650
L48100 45610
L48120 45560
L48140 45540
L48190 45510
L48310 45510
L48380 45540
" />
<path d="M48600 46010
L48600 45680
" />
<path d="M48600 45510
L48570 45540
L48600 45560
L48620 45540
L48600 45510
L48600 45560
" />
<path d="M49050 45680
L49050 46080
L49030 46130
L49000 46150
L48950 46180
L48880 46180
L48830 46150
" />
<path d="M49050 45990
L49000 46010
L48910 46010
L48860 45990
L48830 45960
L48810 45920
L48810 45770
L48830 45730
L48860 45700
L48910 45680
L49000 45680
L49050 45700
" />
<path d="M49290 45680
L49290 46010
" />
<path d="M49290 45730
L49310 45700
L49360 45680
L49430 45680
L49480 45700
L49500 45750
L49500 46010
" />
<path d="M49950 46010
L49950 45750
L49930 45700
L49880 45680
L49790 45680
L49740 45700
" />
<path d="M49950 45990
L49910 46010
L49790 46010
L49740 45990
L49720 45940
L49720 45890
L49740 45840
L49790 45820
L49910 45820
L49950 45800
" />
<path d="M50260 46010
L50220 45990
L50190 45940
L50190 45510
" />
<path d="M50450 46010
L50450 45510
L50640 45510
L50690 45540
L50720 45560
L50740 45610
L50740 45680
L50720 45730
L50690 45750
L50640 45770
L50450 45770
" />
<path d="M50950 46010
L50950 45680
" />
<path d="M50950 45770
L50980 45730
L51000 45700
L51050 45680
L51100 45680
" />
<path d="M51330 46010
L51290 45990
L51260 45960
L51240 45920
L51240 45770
L51260 45730
L51290 45700
L51330 45680
L51410 45680
L51450 45700
L51480 45730
L51500 45770
L51500 45920
L51480 45960
L51450 45990
L51410 46010
L51330 46010
" />
<path d="M51930 45990
L51880 46010
L51790 46010
L51740 45990
L51720 45960
L51690 45920
L51690 45770
L51720 45730
L51740 45700
L51790 45680
L51880 45680
L51930 45700
" />
<path d="M52330 45990
L52290 46010
L52190 46010
L52140 45990
L52120 45940
L52120 45750
L52140 45700
L52190 45680
L52290 45680
L52330 45700
L52360 45750
L52360 45800
L52120 45840
" />
<path d="M52550 45990
L52600 46010
L52690 46010
L52740 45990
L52760 45940
L52760 45920
L52740 45870
L52690 45840
L52620 45840
L52570 45820
L52550 45770
L52550 45750
L52570 45700
L52620 45680
L52690 45680
L52740 45700
" />
<path d="M52950 45990
L53000 46010
L53100 46010
L53140 45990
L53170 45940
L53170 45920
L53140 45870
L53100 45840
L53030 45840
L52980 45820
L52950 45770
L52950 45750
L52980 45700
L53030 45680
L53100 45680
L53140 45700
" />
<path d="M53380 46010
L53380 45680
" />
<path d="M53380 45510
L53360 45540
L53380 45560
L53410 45540
L53380 45510
L53380 45560
" />
<path d="M53620 45680
L53620 46010
" />
<path d="M53620 45730
L53640 45700
L53690 45680
L53760 45680
L53810 45700
L53830 45750
L53830 46010
" />
<path d="M54290 45680
L54290 46080
L54260 46130
L54240 46150
L54190 46180
L54120 46180
L54070 46150
" />
<path d="M54290 45990
L54240 46010
L54140 46010
L54100 45990
L54070 45960
L54050 45920
L54050 45770
L54070 45730
L54100 45700
L54140 45680
L54240 45680
L54290 45700
" />
<path d="M54530 45960
L54550 45990
L54530 46010
L54500 45990
L54530 45960
L54530 46010
" />
<path d="M54740 45990
L54790 46010
L54880 46010
L54930 45990
L54950 45940
L54950 45920
L54930 45870
L54880 45840
L54810 45840
L54760 45820
L54740 45770
L54740 45750
L54760 45700
L54810 45680
L54880 45680
L54930 45700
" />
<path d="M55380 45990
L55330 46010
L55240 46010
L55190 45990
L55170 45960
L55140 45920
L55140 45770
L55170 45730
L55190 45700
L55240 45680
L55330 45680
L55380 45700
" />
<path d="M55600 46010
L55600 45510
" />
<path d="M55810 46010
L55810 45750
L55790 45700
L55740 45680
L55670 45680
L55620 45700
L55600 45730
" />
</g>
<g style="fill:#840084; fill-opacity:0.0; 
stroke:#840084; stroke-width:60; stroke-opacity:1; 
stroke-linecap:round; stroke-linejoin:round;">
</g>
<g style="fill:#848400; fill-opacity:0.0; 
stroke:#848400; stroke-width:60; stroke-opacity:1; 
stroke-linecap:round; stroke-linejoin:round;">
<text x="46600" y="36750"
textLength="2390" font-size="660" lengthAdjust="spacingAndGlyphs"
text-anchor="start" opacity="0">I2S_IN</text>
<path d="M46740 36720
L46740 36220
" />
<path d="M46960 36270
L46980 36250
L47030 36220
L47150 36220
L47200 36250
L47220 36270
L47240 36320
L47240 36360
L47220 36440
L46930 36720
L47240 36720
" />
<path d="M47430 36700
L47510 36720
L47630 36720
L47670 36700
L47700 36670
L47720 36630
L47720 36580
L47700 36530
L47670 36510
L47630 36480
L47530 36460
L47480 36440
L47460 36410
L47430 36360
L47430 36320
L47460 36270
L47480 36250
L47530 36220
L47650 36220
L47720 36250
" />
<path d="M47820 36770
L48200 36770
" />
<path d="M48320 36720
L48320 36220
" />
<path d="M48550 36720
L48550 36220
L48840 36720
L48840 36220
" />
</g>
<g style="fill:#848400; fill-opacity:0.0; 
stroke:#848400; stroke-width:100; stroke-opacity:1; 
stroke-linecap:round; stroke-linejoin:round;">
<path style="fill:#848400; fill-opacity:0.0; 
stroke:#848400; stroke-width:100; stroke-opacity:1; 
stroke-linecap:round; stroke-linejoin:round;fill:none"
d="M 46500,36500
46250,36250
46000,36250
46000,36750
46250,36750
Z" /> 
</g>
<g style="fill:#848400; fill-opacity:0.0; 
stroke:#848400; stroke-width:60; stroke-opacity:1; 
stroke-linecap:round; stroke-linejoin:round;">
<text x="65400" y="36750"
textLength="3060" font-size="660" lengthAdjust="spacingAndGlyphs"
text-anchor="end" opacity="0">I2S_OUT</text>
<path d="M62480 36720
L62480 36220
" />
<path d="M62700 36270
L62720 36250
L62770 36220
L62890 36220
L62940 36250
L62960 36270
L62980 36320
L62980 36360
L62960 36440
L62670 36720
L62980 36720
" />
<path d="M63170 36700
L63250 36720
L63370 36720
L63410 36700
L63440 36670
L63460 36630
L63460 36580
L63440 36530
L63410 36510
L63370 36480
L63270 36460
L63220 36440
L63200 36410
L63170 36360
L63170 36320
L63200 36270
L63220 36250
L63270 36220
L63390 36220
L63460 36250
" />
<path d="M63560 36770
L63940 36770
" />
<path d="M64150 36220
L64250 36220
L64290 36250
L64340 36290
L64370 36390
L64370 36550
L64340 36650
L64290 36700
L64250 36720
L64150 36720
L64100 36700
L64060 36650
L64030 36550
L64030 36390
L64060 36290
L64100 36250
L64150 36220
" />
<path d="M64580 36220
L64580 36630
L64600 36670
L64630 36700
L64670 36720
L64770 36720
L64820 36700
L64840 36670
L64870 36630
L64870 36220
" />
<path d="M65030 36220
L65320 36220
" />
<path d="M65170 36720
L65170 36220
" />
</g>
<g style="fill:#848400; fill-opacity:0.0; 
stroke:#848400; stroke-width:100; stroke-opacity:1; 
stroke-linecap:round; stroke-linejoin:round;">
<path style="fill:#848400; fill-opacity:0.0; 
stroke:#848400; stroke-width:100; stroke-opacity:1; 
stroke-linecap:round; stroke-linejoin:round;fill:none"
d="M 65500,36500
65750,36750
66000,36750
66000,36250
65750,36250
Z" /> 
</g>
<g style="fill:#848400; fill-opacity:0.0; 
stroke:#848400; stroke-width:60; stroke-opacity:1; 
stroke-linecap:round; stroke-linejoin:round;">
<text x="46600" y="43500"
textLength="4750" font-size="660" lengthAdjust="spacingAndGlyphs"
text-anchor="start" opacity="0">I2S_MCLK_IN</text>
<path d="M46740 43470
L46740 42970
" />
<path d="M46960 43020
L46980 43000
L47030 42970
L47150 42970
L47200 43000
L47220 43020
L47240 43070
L47240 43110
L47220 43190
L46930 43470
L47240 43470
" />
<path d="M47430 43450
L47510 43470
L47630 43470
L47670 43450
L47700 43420
L47720 43380
L47720 43330
L47700 43280
L47670 43260
L47630 43230
L47530 43210
L47480 43190
L47460 43160
L47430 43110
L47430 43070
L47460 43020
L47480 43000
L47530 42970
L47650 42970
L47720 43000
" />
<path d="M47820 43520
L48200 43520
" />
<path d="M48320 43470
L48320 42970
L48480 43330
L48650 42970
L48650 43470
" />
<path d="M49170 43420
L49150 43450
L49080 43470
L49030 43470
L48960 43450
L48910 43400
L48890 43350
L48860 43260
L48860 43190
L48890 43090
L48910 43040
L48960 43000
L49030 42970
L49080 42970
L49150 43000
L49170 43020
" />
<path d="M49630 43470
L49390 43470
L49390 42970
" />
<path d="M49790 43470
L49790 42970
" />
<path d="M50080 43470
L49860 43190
" />
<path d="M50080 42970
L49790 43260
" />
<path d="M50170 43520
L50550 43520
" />
<path d="M50670 43470
L50670 42970
" />
<path d="M50910 43470
L50910 42970
L51200 43470
L51200 42970
" />
</g>
<g style="fill:#848400; fill-opacity:0.0; 
stroke:#848400; stroke-width:100; stroke-opacity:1; 
stroke-linecap:round; stroke-linejoin:round;">
<path style="fill:#848400; fill-opacity:0.0; 
stroke:#848400; stroke-width:100; stroke-opacity:1; 
stroke-linecap:round; stroke-linejoin:round;fill:none"
d="M 46500,43250
46250,43000
46000,43000
46000,43500
46250,43500
Z" /> 
</g>
<g style="fill:#848400; fill-opacity:0.0; 
stroke:#848400; stroke-width:60; stroke-opacity:1; 
stroke-linecap:round; stroke-linejoin:round;">
<text x="65400" y="40500"
textLength="5320" font-size="660" lengthAdjust="spacingAndGlyphs"
text-anchor="end" opacity="0">I2S_SCLK_OUT</text>
<path d="M60220 40470
L60220 39970
" />
<path d="M60440 40020
L60460 40000
L60510 39970
L60630 39970
L60670 40000
L60700 40020
L60720 40070
L60720 40110
L60700 40190
L60410 40470
L60720 40470
" />
<path d="M60910 40450
L60980 40470
L61100 40470
L61150 40450
L61170 40420
L61200 40380
L61200 40330
L61170 40280
L61150 40260
L61100 40230
L61010 40210
L60960 40190
L60940 40160
L60910 40110
L60910 40070
L60940 40020
L60960 40000
L61010 39970
L61130 39970
L61200 40000
" />
<path d="M61290 40520
L61670 40520
" />
<path d="M61770 40450
L61840 40470
L61960 40470
L62010 40450
L62030 40420
L62060 40380
L62060 40330
L62030 40280
L62010 40260
L61960 40230
L61870 40210
L61820 40190
L61790 40160
L61770 40110
L61770 40070
L61790 40020
L61820 40000
L61870 39970
L61980 39970
L62060 40000
" />
<path d="M62560 40420
L62530 40450
L62460 40470
L62410 40470
L62340 40450
L62290 40400
L62270 40350
L62250 40260
L62250 40190
L62270 40090
L62290 40040
L62340 40000
L62410 39970
L62460 39970
L62530 40000
L62560 40020
" />
<path d="M63010 40470
L62770 40470
L62770 39970
" />
<path d="M63170 40470
L63170 39970
" />
<path d="M63460 40470
L63250 40190
" />
<path d="M63460 39970
L63170 40260
" />
<path d="M63560 40520
L63940 40520
" />
<path d="M64150 39970
L64250 39970
L64290 40000
L64340 40040
L64370 40140
L64370 40300
L64340 40400
L64290 40450
L64250 40470
L64150 40470
L64100 40450
L64060 40400
L64030 40300
L64030 40140
L64060 40040
L64100 40000
L64150 39970
" />
<path d="M64580 39970
L64580 40380
L64600 40420
L64630 40450
L64670 40470
L64770 40470
L64820 40450
L64840 40420
L64870 40380
L64870 39970
" />
<path d="M65030 39970
L65320 39970
" />
<path d="M65170 40470
L65170 39970
" />
</g>
<g style="fill:#848400; fill-opacity:0.0; 
stroke:#848400; stroke-width:100; stroke-opacity:1; 
stroke-linecap:round; stroke-linejoin:round;">
<path style="fill:#848400; fill-opacity:0.0; 
stroke:#848400; stroke-width:100; stroke-opacity:1; 
stroke-linecap:round; stroke-linejoin:round;fill:none"
d="M 65500,40250
65750,40500
66000,40500
66000,40000
65750,40000
Z" /> 
</g>
<g style="fill:#848400; fill-opacity:0.0; 
stroke:#848400; stroke-width:60; stroke-opacity:1; 
stroke-linecap:round; stroke-linejoin:round;">
<text x="65400" y="43500"
textLength="5420" font-size="660" lengthAdjust="spacingAndGlyphs"
text-anchor="end" opacity="0">I2S_MCLK_OUT</text>
<path d="M60130 43470
L60130 42970
" />
<path d="M60340 43020
L60370 43000
L60410 42970
L60530 42970
L60580 43000
L60600 43020
L60630 43070
L60630 43110
L60600 43190
L60320 43470
L60630 43470
" />
<path d="M60820 43450
L60890 43470
L61010 43470
L61060 43450
L61080 43420
L61100 43380
L61100 43330
L61080 43280
L61060 43260
L61010 43230
L60910 43210
L60870 43190
L60840 43160
L60820 43110
L60820 43070
L60840 43020
L60870 43000
L60910 42970
L61030 42970
L61100 43000
" />
<path d="M61200 43520
L61580 43520
" />
<path d="M61700 43470
L61700 42970
L61870 43330
L62030 42970
L62030 43470
" />
<path d="M62560 43420
L62530 43450
L62460 43470
L62410 43470
L62340 43450
L62290 43400
L62270 43350
L62250 43260
L62250 43190
L62270 43090
L62290 43040
L62340 43000
L62410 42970
L62460 42970
L62530 43000
L62560 43020
" />
<path d="M63010 43470
L62770 43470
L62770 42970
" />
<path d="M63170 43470
L63170 42970
" />
<path d="M63460 43470
L63250 43190
" />
<path d="M63460 42970
L63170 43260
" />
<path d="M63560 43520
L63940 43520
" />
<path d="M64150 42970
L64250 42970
L64290 43000
L64340 43040
L64370 43140
L64370 43300
L64340 43400
L64290 43450
L64250 43470
L64150 43470
L64100 43450
L64060 43400
L64030 43300
L64030 43140
L64060 43040
L64100 43000
L64150 42970
" />
<path d="M64580 42970
L64580 43380
L64600 43420
L64630 43450
L64670 43470
L64770 43470
L64820 43450
L64840 43420
L64870 43380
L64870 42970
" />
<path d="M65030 42970
L65320 42970
" />
<path d="M65170 43470
L65170 42970
" />
</g>
<g style="fill:#848400; fill-opacity:0.0; 
stroke:#848400; stroke-width:100; stroke-opacity:1; 
stroke-linecap:round; stroke-linejoin:round;">
<path style="fill:#848400; fill-opacity:0.0; 
stroke:#848400; stroke-width:100; stroke-opacity:1; 
stroke-linecap:round; stroke-linejoin:round;fill:none"
d="M 65500,43250
65750,43500
66000,43500
66000,43000
65750,43000
Z" /> 
</g>
<g style="fill:#848400; fill-opacity:0.0; 
stroke:#848400; stroke-width:60; stroke-opacity:1; 
stroke-linecap:round; stroke-linejoin:round;">
<text x="46600" y="40500"
textLength="4660" font-size="660" lengthAdjust="spacingAndGlyphs"
text-anchor="start" opacity="0">I2S_SCLK_IN</text>
<path d="M46740 40470
L46740 39970
" />
<path d="M46960 40020
L46980 40000
L47030 39970
L47150 39970
L47200 40000
L47220 40020
L47240 40070
L47240 40110
L47220 40190
L46930 40470
L47240 40470
" />
<path d="M47430 40450
L47510 40470
L47630 40470
L47670 40450
L47700 40420
L47720 40380
L47720 40330
L47700 40280
L47670 40260
L47630 40230
L47530 40210
L47480 40190
L47460 40160
L47430 40110
L47430 40070
L47460 40020
L47480 40000
L47530 39970
L47650 39970
L47720 40000
" />
<path d="M47820 40520
L48200 40520
" />
<path d="M48290 40450
L48360 40470
L48480 40470
L48530 40450
L48550 40420
L48580 40380
L48580 40330
L48550 40280
L48530 40260
L48480 40230
L48390 40210
L48340 40190
L48320 40160
L48290 40110
L48290 40070
L48320 40020
L48340 40000
L48390 39970
L48510 39970
L48580 40000
" />
<path d="M49080 40420
L49050 40450
L48980 40470
L48930 40470
L48860 40450
L48820 40400
L48790 40350
L48770 40260
L48770 40190
L48790 40090
L48820 40040
L48860 40000
L48930 39970
L48980 39970
L49050 40000
L49080 40020
" />
<path d="M49530 40470
L49290 40470
L49290 39970
" />
<path d="M49700 40470
L49700 39970
" />
<path d="M49980 40470
L49770 40190
" />
<path d="M49980 39970
L49700 40260
" />
<path d="M50080 40520
L50460 40520
" />
<path d="M50580 40470
L50580 39970
" />
<path d="M50820 40470
L50820 39970
L51100 40470
L51100 39970
" />
</g>
<g style="fill:#848400; fill-opacity:0.0; 
stroke:#848400; stroke-width:100; stroke-opacity:1; 
stroke-linecap:round; stroke-linejoin:round;">
<path style="fill:#848400; fill-opacity:0.0; 
stroke:#848400; stroke-width:100; stroke-opacity:1; 
stroke-linecap:round; stroke-linejoin:round;fill:none"
d="M 46500,40250
46250,40000
46000,40000
46000,40500
46250,40500
Z" /> 
</g>
<g style="fill:#848400; fill-opacity:0.0; 
stroke:#848400; stroke-width:60; stroke-opacity:1; 
stroke-linecap:round; stroke-linejoin:round;">
<text x="65400" y="42000"
textLength="5350" font-size="660" lengthAdjust="spacingAndGlyphs"
text-anchor="end" opacity="0">I2S_LRCK_OUT</text>
<path d="M60200 41970
L60200 41470
" />
<path d="M60410 41520
L60440 41500
L60480 41470
L60600 41470
L60650 41500
L60670 41520
L60700 41570
L60700 41610
L60670 41690
L60390 41970
L60700 41970
" />
<path d="M60890 41950
L60960 41970
L61080 41970
L61130 41950
L61150 41920
L61170 41880
L61170 41830
L61150 41780
L61130 41760
L61080 41730
L60980 41710
L60940 41690
L60910 41660
L60890 41610
L60890 41570
L60910 41520
L60940 41500
L60980 41470
L61100 41470
L61170 41500
" />
<path d="M61270 42020
L61650 42020
" />
<path d="M62010 41970
L61770 41970
L61770 41470
" />
<path d="M62460 41970
L62290 41730
" />
<path d="M62170 41970
L62170 41470
L62370 41470
L62410 41500
L62440 41520
L62460 41570
L62460 41640
L62440 41690
L62410 41710
L62370 41730
L62170 41730
" />
<path d="M62960 41920
L62940 41950
L62870 41970
L62820 41970
L62750 41950
L62700 41900
L62670 41850
L62650 41760
L62650 41690
L62670 41590
L62700 41540
L62750 41500
L62820 41470
L62870 41470
L62940 41500
L62960 41520
" />
<path d="M63170 41970
L63170 41470
" />
<path d="M63460 41970
L63250 41690
" />
<path d="M63460 41470
L63170 41760
" />
<path d="M63560 42020
L63940 42020
" />
<path d="M64150 41470
L64250 41470
L64290 41500
L64340 41540
L64370 41640
L64370 41800
L64340 41900
L64290 41950
L64250 41970
L64150 41970
L64100 41950
L64060 41900
L64030 41800
L64030 41640
L64060 41540
L64100 41500
L64150 41470
" />
<path d="M64580 41470
L64580 41880
L64600 41920
L64630 41950
L64670 41970
L64770 41970
L64820 41950
L64840 41920
L64870 41880
L64870 41470
" />
<path d="M65030 41470
L65320 41470
" />
<path d="M65170 41970
L65170 41470
" />
</g>
<g style="fill:#848400; fill-opacity:0.0; 
stroke:#848400; stroke-width:100; stroke-opacity:1; 
stroke-linecap:round; stroke-linejoin:round;">
<path style="fill:#848400; fill-opacity:0.0; 
stroke:#848400; stroke-width:100; stroke-opacity:1; 
stroke-linecap:round; stroke-linejoin:round;fill:none"
d="M 65500,41750
65750,42000
66000,42000
66000,41500
65750,41500
Z" /> 
</g>
<g style="fill:#848400; fill-opacity:0.0; 
stroke:#848400; stroke-width:60; stroke-opacity:1; 
stroke-linecap:round; stroke-linejoin:round;">
<text x="46600" y="42000"
textLength="4680" font-size="660" lengthAdjust="spacingAndGlyphs"
text-anchor="start" opacity="0">I2S_LRCK_IN</text>
<path d="M46740 41970
L46740 41470
" />
<path d="M46960 41520
L46980 41500
L47030 41470
L47150 41470
L47200 41500
L47220 41520
L47240 41570
L47240 41610
L47220 41690
L46930 41970
L47240 41970
" />
<path d="M47430 41950
L47510 41970
L47630 41970
L47670 41950
L47700 41920
L47720 41880
L47720 41830
L47700 41780
L47670 41760
L47630 41730
L47530 41710
L47480 41690
L47460 41660
L47430 41610
L47430 41570
L47460 41520
L47480 41500
L47530 41470
L47650 41470
L47720 41500
" />
<path d="M47820 42020
L48200 42020
" />
<path d="M48550 41970
L48320 41970
L48320 41470
" />
<path d="M49010 41970
L48840 41730
" />
<path d="M48720 41970
L48720 41470
L48910 41470
L48960 41500
L48980 41520
L49010 41570
L49010 41640
L48980 41690
L48960 41710
L48910 41730
L48720 41730
" />
<path d="M49510 41920
L49480 41950
L49410 41970
L49360 41970
L49290 41950
L49240 41900
L49220 41850
L49200 41760
L49200 41690
L49220 41590
L49240 41540
L49290 41500
L49360 41470
L49410 41470
L49480 41500
L49510 41520
" />
<path d="M49720 41970
L49720 41470
" />
<path d="M50010 41970
L49790 41690
" />
<path d="M50010 41470
L49720 41760
" />
<path d="M50100 42020
L50480 42020
" />
<path d="M50600 41970
L50600 41470
" />
<path d="M50840 41970
L50840 41470
L51130 41970
L51130 41470
" />
</g>
<g style="fill:#848400; fill-opacity:0.0; 
stroke:#848400; stroke-width:100; stroke-opacity:1; 
stroke-linecap:round; stroke-linejoin:round;">
<path style="fill:#848400; fill-opacity:0.0; 
stroke:#848400; stroke-width:100; stroke-opacity:1; 
stroke-linecap:round; stroke-linejoin:round;fill:none"
d="M 46500,41750
46250,41500
46000,41500
46000,42000
46250,42000
Z" /> 
</g>
<g style="fill:#848400; fill-opacity:0.0; 
stroke:#848400; stroke-width:60; stroke-opacity:1; 
stroke-linecap:round; stroke-linejoin:round;">
</g>
<g style="fill:#840084; fill-opacity:0.0; 
stroke:#840084; stroke-width:60; stroke-opacity:1; 
stroke-linecap:round; stroke-linejoin:round;">
<path d="M46000 13250
L66000 13250
L66000 21000
L46000 21000
L46000 13250
" />
</g>
<g style="fill:#008484; fill-opacity:0.0; 
stroke:#008484; stroke-width:60; stroke-opacity:1; 
stroke-linecap:round; stroke-linejoin:round;">
</g>
<g style="fill:#000000; fill-opacity:0.0; 
stroke:#000000; stroke-width:60; stroke-opacity:1; 
stroke-linecap:round; stroke-linejoin:round;">
<text x="46000" y="13210"
textLength="4250" font-size="660" lengthAdjust="spacingAndGlyphs"
text-anchor="start" opacity="0">Sheet: PSU</text>
<path d="M46120 13160
L46190 13180
L46310 13180
L46360 13160
L46380 13130
L46410 13090
L46410 13040
L46380 12990
L46360 12970
L46310 12940
L46220 12920
L46170 12900
L46140 12870
L46120 12820
L46120 12780
L46140 12730
L46170 12710
L46220 12680
L46330 12680
L46410 12710
" />
<path d="M46620 13180
L46620 12680
" />
<path d="M46830 13180
L46830 12920
L46810 12870
L46760 12850
L46690 12850
L46640 12870
L46620 12900
" />
<path d="M47260 13160
L47220 13180
L47120 13180
L47070 13160
L47050 13110
L47050 12920
L47070 12870
L47120 12850
L47220 12850
L47260 12870
L47290 12920
L47290 12970
L47050 13010
" />
<path d="M47690 13160
L47640 13180
L47550 13180
L47500 13160
L47480 13110
L47480 12920
L47500 12870
L47550 12850
L47640 12850
L47690 12870
L47720 12920
L47720 12970
L47480 13010
" />
<path d="M47860 12850
L48050 12850
" />
<path d="M47930 12680
L47930 13110
L47950 13160
L48000 13180
L48050 13180
" />
<path d="M48220 13130
L48240 13160
L48220 13180
L48190 13160
L48220 13130
L48220 13180
" />
<path d="M48220 12870
L48240 12900
L48220 12920
L48190 12900
L48220 12870
L48220 12920
" />
<path d="M48830 13180
L48830 12680
L49030 12680
L49070 12710
L49100 12730
L49120 12780
L49120 12850
L49100 12900
L49070 12920
L49030 12940
L48830 12940
" />
<path d="M49310 13160
L49380 13180
L49500 13180
L49550 13160
L49570 13130
L49600 13090
L49600 13040
L49570 12990
L49550 12970
L49500 12940
L49410 12920
L49360 12900
L49330 12870
L49310 12820
L49310 12780
L49330 12730
L49360 12710
L49410 12680
L49530 12680
L49600 12710
" />
<path d="M49810 12680
L49810 13090
L49830 13130
L49860 13160
L49910 13180
L50000 13180
L50050 13160
L50070 13130
L50100 13090
L50100 12680
" />
</g>
<g style="fill:#848400; fill-opacity:0.0; 
stroke:#848400; stroke-width:60; stroke-opacity:1; 
stroke-linecap:round; stroke-linejoin:round;">
</g>
<g style="fill:#000000; fill-opacity:0.0; 
stroke:#000000; stroke-width:60; stroke-opacity:1; 
stroke-linecap:round; stroke-linejoin:round;">
<text x="46000" y="21540"
textLength="5060" font-size="660" lengthAdjust="spacingAndGlyphs"
text-anchor="start" opacity="0">File: PSU.sch</text>
<path d="M46310 21250
L46140 21250
" />
<path d="M46140 21510
L46140 21010
L46380 21010
" />
<path d="M46570 21510
L46570 21180
" />
<path d="M46570 21010
L46550 21040
L46570 21060
L46600 21040
L46570 21010
L46570 21060
" />
<path d="M46880 21510
L46830 21490
L46810 21440
L46810 21010
" />
<path d="M47260 21490
L47220 21510
L47120 21510
L47070 21490
L47050 21440
L47050 21250
L47070 21200
L47120 21180
L47220 21180
L47260 21200
L47290 21250
L47290 21300
L47050 21340
" />
<path d="M47500 21460
L47530 21490
L47500 21510
L47480 21490
L47500 21460
L47500 21510
" />
<path d="M47500 21200
L47530 21230
L47500 21250
L47480 21230
L47500 21200
L47500 21250
" />
<path d="M48120 21510
L48120 21010
L48310 21010
L48360 21040
L48380 21060
L48410 21110
L48410 21180
L48380 21230
L48360 21250
L48310 21270
L48120 21270
" />
<path d="M48600 21490
L48670 21510
L48790 21510
L48830 21490
L48860 21460
L48880 21420
L48880 21370
L48860 21320
L48830 21300
L48790 21270
L48690 21250
L48640 21230
L48620 21200
L48600 21150
L48600 21110
L48620 21060
L48640 21040
L48690 21010
L48810 21010
L48880 21040
" />
<path d="M49100 21010
L49100 21420
L49120 21460
L49140 21490
L49190 21510
L49290 21510
L49330 21490
L49360 21460
L49380 21420
L49380 21010
" />
<path d="M49620 21460
L49640 21490
L49620 21510
L49600 21490
L49620 21460
L49620 21510
" />
<path d="M49830 21490
L49880 21510
L49980 21510
L50030 21490
L50050 21440
L50050 21420
L50030 21370
L49980 21340
L49910 21340
L49860 21320
L49830 21270
L49830 21250
L49860 21200
L49910 21180
L49980 21180
L50030 21200
" />
<path d="M50480 21490
L50430 21510
L50330 21510
L50290 21490
L50260 21460
L50240 21420
L50240 21270
L50260 21230
L50290 21200
L50330 21180
L50430 21180
L50480 21200
" />
<path d="M50690 21510
L50690 21010
" />
<path d="M50910 21510
L50910 21250
L50880 21200
L50830 21180
L50760 21180
L50720 21200
L50690 21230
" />
</g>
<g style="fill:#840084; fill-opacity:0.0; 
stroke:#840084; stroke-width:60; stroke-opacity:1; 
stroke-linecap:round; stroke-linejoin:round;">
</g>
<g style="fill:#008400; fill-opacity:0.0; 
stroke:#008400; stroke-width:60; stroke-opacity:1; 
stroke-linecap:round; stroke-linejoin:round;">
<path d="M35250 43250
L46000 43250
" />
<path d="M35250 41750
L46000 41750
" />
<path d="M35250 40250
L46000 40250
" />
<path d="M46000 36500
L35250 36500
" />
<path d="M66000 36500
L83000 36500
" />
<path d="M66000 40250
L83000 40250
" />
<path d="M66000 41750
L83000 41750
" />
<path d="M66000 43250
L83000 43250
" />
</g> 
</svg>
