<?xml version="1.0" standalone="no"?>
 <!DOCTYPE svg PUBLIC "-//W3C//DTD SVG 1.1//EN" 
 "http://www.w3.org/Graphics/SVG/1.1/DTD/svg11.dtd"> 
<svg
  xmlns:svg="http://www.w3.org/2000/svg"
  xmlns="http://www.w3.org/2000/svg"
  xmlns:xlink="http://www.w3.org/1999/xlink"
  version="1.1"
  width="29.700220cm" height="21.000720cm" viewBox="0 0 116930 82680">
<title>SVG Picture created as ExtInput-ExtInput.svg date 2020/10/13 00:13:09 </title>
  <desc>Picture generated by Eeschema-SVG </desc>
<g style="fill:#000000; fill-opacity:1;stroke:#000000; stroke-opacity:1;
stroke-linecap:round; stroke-linejoin:round;"
 transform="translate(0 0) scale(1 1)">
</g>
<g style="fill:#000000; fill-opacity:0.0; 
stroke:#000000; stroke-width:-10; stroke-opacity:1; 
stroke-linecap:round; stroke-linejoin:round;">
</g>
<g style="fill:#840000; fill-opacity:0.0; 
stroke:#840000; stroke-width:-10; stroke-opacity:1; 
stroke-linecap:round; stroke-linejoin:round;">
</g>
<g style="fill:#840000; fill-opacity:0.0; 
stroke:#840000; stroke-width:100; stroke-opacity:1; 
stroke-linecap:round; stroke-linejoin:round;">
</g>
<g style="fill:#840000; fill-opacity:0.0; 
stroke:#840000; stroke-width:60; stroke-opacity:1; 
stroke-linecap:round; stroke-linejoin:round;">
<rect x="69690" y="65360" width="42520" height="12600" rx="0" />
</g>
<g style="fill:#840000; fill-opacity:0.0; 
stroke:#840000; stroke-width:100; stroke-opacity:1; 
stroke-linecap:round; stroke-linejoin:round;">
</g>
<g style="fill:#840000; fill-opacity:0.0; 
stroke:#840000; stroke-width:60; stroke-opacity:1; 
stroke-linecap:round; stroke-linejoin:round;">
<rect x="3940" y="3940" width="109050" height="74800" rx="0" />
</g>
<g style="fill:#840000; fill-opacity:0.0; 
stroke:#840000; stroke-width:100; stroke-opacity:1; 
stroke-linecap:round; stroke-linejoin:round;">
</g>
<g style="fill:#840000; fill-opacity:0.0; 
stroke:#840000; stroke-width:60; stroke-opacity:1; 
stroke-linecap:round; stroke-linejoin:round;">
<rect x="4720" y="4720" width="107490" height="73240" rx="0" />
</g>
<g style="fill:#840000; fill-opacity:0.0; 
stroke:#840000; stroke-width:100; stroke-opacity:1; 
stroke-linecap:round; stroke-linejoin:round;">
</g>
<g style="fill:#840000; fill-opacity:0.0; 
stroke:#840000; stroke-width:60; stroke-opacity:1; 
stroke-linecap:round; stroke-linejoin:round;">
<path d="M23620 4720
L23620 3940
" />
</g>
<g style="fill:#840000; fill-opacity:0.0; 
stroke:#840000; stroke-width:100; stroke-opacity:1; 
stroke-linecap:round; stroke-linejoin:round;">
</g>
<g style="fill:#840000; fill-opacity:0.0; 
stroke:#840000; stroke-width:60; stroke-opacity:1; 
stroke-linecap:round; stroke-linejoin:round;">
<path d="M43310 4720
L43310 3940
" />
</g>
<g style="fill:#840000; fill-opacity:0.0; 
stroke:#840000; stroke-width:100; stroke-opacity:1; 
stroke-linecap:round; stroke-linejoin:round;">
</g>
<g style="fill:#840000; fill-opacity:0.0; 
stroke:#840000; stroke-width:60; stroke-opacity:1; 
stroke-linecap:round; stroke-linejoin:round;">
<path d="M62990 4720
L62990 3940
" />
</g>
<g style="fill:#840000; fill-opacity:0.0; 
stroke:#840000; stroke-width:100; stroke-opacity:1; 
stroke-linecap:round; stroke-linejoin:round;">
</g>
<g style="fill:#840000; fill-opacity:0.0; 
stroke:#840000; stroke-width:60; stroke-opacity:1; 
stroke-linecap:round; stroke-linejoin:round;">
<path d="M82680 4720
L82680 3940
" />
</g>
<g style="fill:#840000; fill-opacity:0.0; 
stroke:#840000; stroke-width:100; stroke-opacity:1; 
stroke-linecap:round; stroke-linejoin:round;">
</g>
<g style="fill:#840000; fill-opacity:0.0; 
stroke:#840000; stroke-width:60; stroke-opacity:1; 
stroke-linecap:round; stroke-linejoin:round;">
<path d="M102360 4720
L102360 3940
" />
</g>
<g style="fill:#840000; fill-opacity:0.0; 
stroke:#840000; stroke-width:100; stroke-opacity:1; 
stroke-linecap:round; stroke-linejoin:round;">
</g>
<g style="fill:#840000; fill-opacity:0.0; 
stroke:#840000; stroke-width:60; stroke-opacity:1; 
stroke-linecap:round; stroke-linejoin:round;">
<text x="13780" y="4580"
textLength="550" font-size="680" lengthAdjust="spacingAndGlyphs"
text-anchor="start" opacity="0">1</text>
<path d="M14190 4560
L13900 4560
" />
<path d="M14050 4560
L14050 4050
L14000 4120
L13950 4170
L13900 4190
" />
</g>
<g style="fill:#840000; fill-opacity:0.0; 
stroke:#840000; stroke-width:100; stroke-opacity:1; 
stroke-linecap:round; stroke-linejoin:round;">
</g>
<g style="fill:#840000; fill-opacity:0.0; 
stroke:#840000; stroke-width:60; stroke-opacity:1; 
stroke-linecap:round; stroke-linejoin:round;">
<text x="33460" y="4580"
textLength="550" font-size="680" lengthAdjust="spacingAndGlyphs"
text-anchor="start" opacity="0">2</text>
<path d="M33580 4090
L33610 4070
L33660 4050
L33780 4050
L33830 4070
L33850 4090
L33870 4140
L33870 4190
L33850 4260
L33560 4560
L33870 4560
" />
</g>
<g style="fill:#840000; fill-opacity:0.0; 
stroke:#840000; stroke-width:100; stroke-opacity:1; 
stroke-linecap:round; stroke-linejoin:round;">
</g>
<g style="fill:#840000; fill-opacity:0.0; 
stroke:#840000; stroke-width:60; stroke-opacity:1; 
stroke-linecap:round; stroke-linejoin:round;">
<text x="53150" y="4580"
textLength="550" font-size="680" lengthAdjust="spacingAndGlyphs"
text-anchor="start" opacity="0">3</text>
<path d="M53250 4050
L53560 4050
L53390 4240
L53470 4240
L53520 4260
L53540 4290
L53560 4340
L53560 4460
L53540 4510
L53520 4530
L53470 4560
L53320 4560
L53270 4530
L53250 4510
" />
</g>
<g style="fill:#840000; fill-opacity:0.0; 
stroke:#840000; stroke-width:100; stroke-opacity:1; 
stroke-linecap:round; stroke-linejoin:round;">
</g>
<g style="fill:#840000; fill-opacity:0.0; 
stroke:#840000; stroke-width:60; stroke-opacity:1; 
stroke-linecap:round; stroke-linejoin:round;">
<text x="72830" y="4580"
textLength="550" font-size="680" lengthAdjust="spacingAndGlyphs"
text-anchor="start" opacity="0">4</text>
<path d="M73200 4220
L73200 4560
" />
<path d="M73070 4020
L72950 4390
L73270 4390
" />
</g>
<g style="fill:#840000; fill-opacity:0.0; 
stroke:#840000; stroke-width:100; stroke-opacity:1; 
stroke-linecap:round; stroke-linejoin:round;">
</g>
<g style="fill:#840000; fill-opacity:0.0; 
stroke:#840000; stroke-width:60; stroke-opacity:1; 
stroke-linecap:round; stroke-linejoin:round;">
<text x="92520" y="4580"
textLength="550" font-size="680" lengthAdjust="spacingAndGlyphs"
text-anchor="start" opacity="0">5</text>
<path d="M92910 4050
L92670 4050
L92640 4290
L92670 4260
L92720 4240
L92840 4240
L92890 4260
L92910 4290
L92930 4340
L92930 4460
L92910 4510
L92890 4530
L92840 4560
L92720 4560
L92670 4530
L92640 4510
" />
</g>
<g style="fill:#840000; fill-opacity:0.0; 
stroke:#840000; stroke-width:100; stroke-opacity:1; 
stroke-linecap:round; stroke-linejoin:round;">
</g>
<g style="fill:#840000; fill-opacity:0.0; 
stroke:#840000; stroke-width:60; stroke-opacity:1; 
stroke-linecap:round; stroke-linejoin:round;">
<text x="112200" y="4580"
textLength="550" font-size="680" lengthAdjust="spacingAndGlyphs"
text-anchor="start" opacity="0">6</text>
<path d="M112570 4050
L112470 4050
L112420 4070
L112400 4090
L112350 4170
L112320 4260
L112320 4460
L112350 4510
L112370 4530
L112420 4560
L112520 4560
L112570 4530
L112590 4510
L112610 4460
L112610 4340
L112590 4290
L112570 4260
L112520 4240
L112420 4240
L112370 4260
L112350 4290
L112320 4340
" />
</g>
<g style="fill:#840000; fill-opacity:0.0; 
stroke:#840000; stroke-width:100; stroke-opacity:1; 
stroke-linecap:round; stroke-linejoin:round;">
</g>
<g style="fill:#840000; fill-opacity:0.0; 
stroke:#840000; stroke-width:60; stroke-opacity:1; 
stroke-linecap:round; stroke-linejoin:round;">
<path d="M23620 77960
L23620 78740
" />
</g>
<g style="fill:#840000; fill-opacity:0.0; 
stroke:#840000; stroke-width:100; stroke-opacity:1; 
stroke-linecap:round; stroke-linejoin:round;">
</g>
<g style="fill:#840000; fill-opacity:0.0; 
stroke:#840000; stroke-width:60; stroke-opacity:1; 
stroke-linecap:round; stroke-linejoin:round;">
<path d="M43310 77960
L43310 78740
" />
</g>
<g style="fill:#840000; fill-opacity:0.0; 
stroke:#840000; stroke-width:100; stroke-opacity:1; 
stroke-linecap:round; stroke-linejoin:round;">
</g>
<g style="fill:#840000; fill-opacity:0.0; 
stroke:#840000; stroke-width:60; stroke-opacity:1; 
stroke-linecap:round; stroke-linejoin:round;">
<path d="M62990 77960
L62990 78740
" />
</g>
<g style="fill:#840000; fill-opacity:0.0; 
stroke:#840000; stroke-width:100; stroke-opacity:1; 
stroke-linecap:round; stroke-linejoin:round;">
</g>
<g style="fill:#840000; fill-opacity:0.0; 
stroke:#840000; stroke-width:60; stroke-opacity:1; 
stroke-linecap:round; stroke-linejoin:round;">
<path d="M82680 77960
L82680 78740
" />
</g>
<g style="fill:#840000; fill-opacity:0.0; 
stroke:#840000; stroke-width:100; stroke-opacity:1; 
stroke-linecap:round; stroke-linejoin:round;">
</g>
<g style="fill:#840000; fill-opacity:0.0; 
stroke:#840000; stroke-width:60; stroke-opacity:1; 
stroke-linecap:round; stroke-linejoin:round;">
<path d="M102360 77960
L102360 78740
" />
</g>
<g style="fill:#840000; fill-opacity:0.0; 
stroke:#840000; stroke-width:100; stroke-opacity:1; 
stroke-linecap:round; stroke-linejoin:round;">
</g>
<g style="fill:#840000; fill-opacity:0.0; 
stroke:#840000; stroke-width:60; stroke-opacity:1; 
stroke-linecap:round; stroke-linejoin:round;">
<text x="13780" y="78600"
textLength="550" font-size="680" lengthAdjust="spacingAndGlyphs"
text-anchor="start" opacity="0">1</text>
<path d="M14190 78580
L13900 78580
" />
<path d="M14050 78580
L14050 78070
L14000 78140
L13950 78190
L13900 78210
" />
</g>
<g style="fill:#840000; fill-opacity:0.0; 
stroke:#840000; stroke-width:100; stroke-opacity:1; 
stroke-linecap:round; stroke-linejoin:round;">
</g>
<g style="fill:#840000; fill-opacity:0.0; 
stroke:#840000; stroke-width:60; stroke-opacity:1; 
stroke-linecap:round; stroke-linejoin:round;">
<text x="33460" y="78600"
textLength="550" font-size="680" lengthAdjust="spacingAndGlyphs"
text-anchor="start" opacity="0">2</text>
<path d="M33580 78110
L33610 78090
L33660 78070
L33780 78070
L33830 78090
L33850 78110
L33870 78160
L33870 78210
L33850 78280
L33560 78580
L33870 78580
" />
</g>
<g style="fill:#840000; fill-opacity:0.0; 
stroke:#840000; stroke-width:100; stroke-opacity:1; 
stroke-linecap:round; stroke-linejoin:round;">
</g>
<g style="fill:#840000; fill-opacity:0.0; 
stroke:#840000; stroke-width:60; stroke-opacity:1; 
stroke-linecap:round; stroke-linejoin:round;">
<text x="53150" y="78600"
textLength="550" font-size="680" lengthAdjust="spacingAndGlyphs"
text-anchor="start" opacity="0">3</text>
<path d="M53250 78070
L53560 78070
L53390 78260
L53470 78260
L53520 78280
L53540 78310
L53560 78360
L53560 78480
L53540 78530
L53520 78550
L53470 78580
L53320 78580
L53270 78550
L53250 78530
" />
</g>
<g style="fill:#840000; fill-opacity:0.0; 
stroke:#840000; stroke-width:100; stroke-opacity:1; 
stroke-linecap:round; stroke-linejoin:round;">
</g>
<g style="fill:#840000; fill-opacity:0.0; 
stroke:#840000; stroke-width:60; stroke-opacity:1; 
stroke-linecap:round; stroke-linejoin:round;">
<text x="72830" y="78600"
textLength="550" font-size="680" lengthAdjust="spacingAndGlyphs"
text-anchor="start" opacity="0">4</text>
<path d="M73200 78240
L73200 78580
" />
<path d="M73070 78040
L72950 78410
L73270 78410
" />
</g>
<g style="fill:#840000; fill-opacity:0.0; 
stroke:#840000; stroke-width:100; stroke-opacity:1; 
stroke-linecap:round; stroke-linejoin:round;">
</g>
<g style="fill:#840000; fill-opacity:0.0; 
stroke:#840000; stroke-width:60; stroke-opacity:1; 
stroke-linecap:round; stroke-linejoin:round;">
<text x="92520" y="78600"
textLength="550" font-size="680" lengthAdjust="spacingAndGlyphs"
text-anchor="start" opacity="0">5</text>
<path d="M92910 78070
L92670 78070
L92640 78310
L92670 78280
L92720 78260
L92840 78260
L92890 78280
L92910 78310
L92930 78360
L92930 78480
L92910 78530
L92890 78550
L92840 78580
L92720 78580
L92670 78550
L92640 78530
" />
</g>
<g style="fill:#840000; fill-opacity:0.0; 
stroke:#840000; stroke-width:100; stroke-opacity:1; 
stroke-linecap:round; stroke-linejoin:round;">
</g>
<g style="fill:#840000; fill-opacity:0.0; 
stroke:#840000; stroke-width:60; stroke-opacity:1; 
stroke-linecap:round; stroke-linejoin:round;">
<text x="112200" y="78600"
textLength="550" font-size="680" lengthAdjust="spacingAndGlyphs"
text-anchor="start" opacity="0">6</text>
<path d="M112570 78070
L112470 78070
L112420 78090
L112400 78110
L112350 78190
L112320 78280
L112320 78480
L112350 78530
L112370 78550
L112420 78580
L112520 78580
L112570 78550
L112590 78530
L112610 78480
L112610 78360
L112590 78310
L112570 78280
L112520 78260
L112420 78260
L112370 78280
L112350 78310
L112320 78360
" />
</g>
<g style="fill:#840000; fill-opacity:0.0; 
stroke:#840000; stroke-width:100; stroke-opacity:1; 
stroke-linecap:round; stroke-linejoin:round;">
</g>
<g style="fill:#840000; fill-opacity:0.0; 
stroke:#840000; stroke-width:60; stroke-opacity:1; 
stroke-linecap:round; stroke-linejoin:round;">
<path d="M3940 23620
L4720 23620
" />
</g>
<g style="fill:#840000; fill-opacity:0.0; 
stroke:#840000; stroke-width:100; stroke-opacity:1; 
stroke-linecap:round; stroke-linejoin:round;">
</g>
<g style="fill:#840000; fill-opacity:0.0; 
stroke:#840000; stroke-width:60; stroke-opacity:1; 
stroke-linecap:round; stroke-linejoin:round;">
<path d="M3940 43310
L4720 43310
" />
</g>
<g style="fill:#840000; fill-opacity:0.0; 
stroke:#840000; stroke-width:100; stroke-opacity:1; 
stroke-linecap:round; stroke-linejoin:round;">
</g>
<g style="fill:#840000; fill-opacity:0.0; 
stroke:#840000; stroke-width:60; stroke-opacity:1; 
stroke-linecap:round; stroke-linejoin:round;">
<path d="M3940 62990
L4720 62990
" />
</g>
<g style="fill:#840000; fill-opacity:0.0; 
stroke:#840000; stroke-width:100; stroke-opacity:1; 
stroke-linecap:round; stroke-linejoin:round;">
</g>
<g style="fill:#840000; fill-opacity:0.0; 
stroke:#840000; stroke-width:60; stroke-opacity:1; 
stroke-linecap:round; stroke-linejoin:round;">
<text x="4330" y="14030"
textLength="500" font-size="680" lengthAdjust="spacingAndGlyphs"
text-anchor="middle" opacity="0">A</text>
<path d="M4200 13860
L4450 13860
" />
<path d="M4160 14010
L4330 13500
L4500 14010
" />
</g>
<g style="fill:#840000; fill-opacity:0.0; 
stroke:#840000; stroke-width:100; stroke-opacity:1; 
stroke-linecap:round; stroke-linejoin:round;">
</g>
<g style="fill:#840000; fill-opacity:0.0; 
stroke:#840000; stroke-width:60; stroke-opacity:1; 
stroke-linecap:round; stroke-linejoin:round;">
<text x="4330" y="33710"
textLength="570" font-size="680" lengthAdjust="spacingAndGlyphs"
text-anchor="middle" opacity="0">B</text>
<path d="M4360 33420
L4430 33440
L4460 33470
L4480 33520
L4480 33590
L4460 33640
L4430 33660
L4390 33690
L4190 33690
L4190 33180
L4360 33180
L4410 33200
L4430 33220
L4460 33270
L4460 33320
L4430 33370
L4410 33390
L4360 33420
L4190 33420
" />
</g>
<g style="fill:#840000; fill-opacity:0.0; 
stroke:#840000; stroke-width:100; stroke-opacity:1; 
stroke-linecap:round; stroke-linejoin:round;">
</g>
<g style="fill:#840000; fill-opacity:0.0; 
stroke:#840000; stroke-width:60; stroke-opacity:1; 
stroke-linecap:round; stroke-linejoin:round;">
<text x="4330" y="53400"
textLength="570" font-size="680" lengthAdjust="spacingAndGlyphs"
text-anchor="middle" opacity="0">C</text>
<path d="M4480 53330
L4460 53350
L4390 53380
L4340 53380
L4260 53350
L4220 53300
L4190 53250
L4170 53160
L4170 53080
L4190 52990
L4220 52940
L4260 52890
L4340 52870
L4390 52870
L4460 52890
L4480 52910
" />
</g>
<g style="fill:#840000; fill-opacity:0.0; 
stroke:#840000; stroke-width:100; stroke-opacity:1; 
stroke-linecap:round; stroke-linejoin:round;">
</g>
<g style="fill:#840000; fill-opacity:0.0; 
stroke:#840000; stroke-width:60; stroke-opacity:1; 
stroke-linecap:round; stroke-linejoin:round;">
<text x="4330" y="73080"
textLength="570" font-size="680" lengthAdjust="spacingAndGlyphs"
text-anchor="middle" opacity="0">D</text>
<path d="M4190 73060
L4190 72550
L4310 72550
L4390 72570
L4430 72620
L4460 72670
L4480 72760
L4480 72840
L4460 72930
L4430 72980
L4390 73030
L4310 73060
L4190 73060
" />
</g>
<g style="fill:#840000; fill-opacity:0.0; 
stroke:#840000; stroke-width:100; stroke-opacity:1; 
stroke-linecap:round; stroke-linejoin:round;">
</g>
<g style="fill:#840000; fill-opacity:0.0; 
stroke:#840000; stroke-width:60; stroke-opacity:1; 
stroke-linecap:round; stroke-linejoin:round;">
<path d="M112990 23620
L112210 23620
" />
</g>
<g style="fill:#840000; fill-opacity:0.0; 
stroke:#840000; stroke-width:100; stroke-opacity:1; 
stroke-linecap:round; stroke-linejoin:round;">
</g>
<g style="fill:#840000; fill-opacity:0.0; 
stroke:#840000; stroke-width:60; stroke-opacity:1; 
stroke-linecap:round; stroke-linejoin:round;">
<path d="M112990 43310
L112210 43310
" />
</g>
<g style="fill:#840000; fill-opacity:0.0; 
stroke:#840000; stroke-width:100; stroke-opacity:1; 
stroke-linecap:round; stroke-linejoin:round;">
</g>
<g style="fill:#840000; fill-opacity:0.0; 
stroke:#840000; stroke-width:60; stroke-opacity:1; 
stroke-linecap:round; stroke-linejoin:round;">
<path d="M112990 62990
L112210 62990
" />
</g>
<g style="fill:#840000; fill-opacity:0.0; 
stroke:#840000; stroke-width:100; stroke-opacity:1; 
stroke-linecap:round; stroke-linejoin:round;">
</g>
<g style="fill:#840000; fill-opacity:0.0; 
stroke:#840000; stroke-width:60; stroke-opacity:1; 
stroke-linecap:round; stroke-linejoin:round;">
<text x="112600" y="14030"
textLength="500" font-size="680" lengthAdjust="spacingAndGlyphs"
text-anchor="middle" opacity="0">A</text>
<path d="M112470 13860
L112720 13860
" />
<path d="M112430 14010
L112600 13500
L112770 14010
" />
</g>
<g style="fill:#840000; fill-opacity:0.0; 
stroke:#840000; stroke-width:100; stroke-opacity:1; 
stroke-linecap:round; stroke-linejoin:round;">
</g>
<g style="fill:#840000; fill-opacity:0.0; 
stroke:#840000; stroke-width:60; stroke-opacity:1; 
stroke-linecap:round; stroke-linejoin:round;">
<text x="112600" y="33710"
textLength="570" font-size="680" lengthAdjust="spacingAndGlyphs"
text-anchor="middle" opacity="0">B</text>
<path d="M112630 33420
L112700 33440
L112730 33470
L112750 33520
L112750 33590
L112730 33640
L112700 33660
L112660 33690
L112460 33690
L112460 33180
L112630 33180
L112680 33200
L112700 33220
L112730 33270
L112730 33320
L112700 33370
L112680 33390
L112630 33420
L112460 33420
" />
</g>
<g style="fill:#840000; fill-opacity:0.0; 
stroke:#840000; stroke-width:100; stroke-opacity:1; 
stroke-linecap:round; stroke-linejoin:round;">
</g>
<g style="fill:#840000; fill-opacity:0.0; 
stroke:#840000; stroke-width:60; stroke-opacity:1; 
stroke-linecap:round; stroke-linejoin:round;">
<text x="112600" y="53400"
textLength="570" font-size="680" lengthAdjust="spacingAndGlyphs"
text-anchor="middle" opacity="0">C</text>
<path d="M112750 53330
L112730 53350
L112660 53380
L112610 53380
L112530 53350
L112490 53300
L112460 53250
L112440 53160
L112440 53080
L112460 52990
L112490 52940
L112530 52890
L112610 52870
L112660 52870
L112730 52890
L112750 52910
" />
</g>
<g style="fill:#840000; fill-opacity:0.0; 
stroke:#840000; stroke-width:100; stroke-opacity:1; 
stroke-linecap:round; stroke-linejoin:round;">
</g>
<g style="fill:#840000; fill-opacity:0.0; 
stroke:#840000; stroke-width:60; stroke-opacity:1; 
stroke-linecap:round; stroke-linejoin:round;">
<text x="112600" y="73080"
textLength="570" font-size="680" lengthAdjust="spacingAndGlyphs"
text-anchor="middle" opacity="0">D</text>
<path d="M112460 73060
L112460 72550
L112580 72550
L112660 72570
L112700 72620
L112730 72670
L112750 72760
L112750 72840
L112730 72930
L112700 72980
L112660 73030
L112580 73060
L112460 73060
" />
</g>
<g style="fill:#840000; fill-opacity:0.0; 
stroke:#840000; stroke-width:100; stroke-opacity:1; 
stroke-linecap:round; stroke-linejoin:round;">
</g>
<g style="fill:#840000; fill-opacity:0.0; 
stroke:#840000; stroke-width:60; stroke-opacity:1; 
stroke-linecap:round; stroke-linejoin:round;">
<text x="78740" y="76320"
textLength="2760" font-size="780" lengthAdjust="spacingAndGlyphs"
text-anchor="start" opacity="0">Date: </text>
<path d="M78910 76290
L78910 75700
L79050 75700
L79130 75730
L79190 75790
L79210 75840
L79240 75950
L79240 76040
L79210 76150
L79190 76210
L79130 76260
L79050 76290
L78910 76290
" />
<path d="M79750 76290
L79750 75980
L79720 75930
L79660 75900
L79550 75900
L79500 75930
" />
<path d="M79750 76260
L79690 76290
L79550 76290
L79500 76260
L79470 76210
L79470 76150
L79500 76100
L79550 76070
L79690 76070
L79750 76040
" />
<path d="M79950 75900
L80170 75900
" />
<path d="M80030 75700
L80030 76210
L80060 76260
L80110 76290
L80170 76290
" />
<path d="M80590 76260
L80540 76290
L80420 76290
L80370 76260
L80340 76210
L80340 75980
L80370 75930
L80420 75900
L80540 75900
L80590 75930
L80620 75980
L80620 76040
L80340 76100
" />
<path d="M80870 76240
L80900 76260
L80870 76290
L80840 76260
L80870 76240
L80870 76290
" />
<path d="M80870 75930
L80900 75950
L80870 75980
L80840 75950
L80870 75930
L80870 75980
" />
</g>
<g style="fill:#840000; fill-opacity:0.0; 
stroke:#840000; stroke-width:100; stroke-opacity:1; 
stroke-linecap:round; stroke-linejoin:round;">
</g>
<g style="fill:#840000; fill-opacity:0.0; 
stroke:#840000; stroke-width:60; stroke-opacity:1; 
stroke-linecap:round; stroke-linejoin:round;">
<path d="M69690 76580
L112210 76580
" />
</g>
<g style="fill:#840000; fill-opacity:0.0; 
stroke:#840000; stroke-width:100; stroke-opacity:1; 
stroke-linecap:round; stroke-linejoin:round;">
</g>
<g style="fill:#840000; fill-opacity:0.0; 
stroke:#840000; stroke-width:60; stroke-opacity:1; 
stroke-linecap:round; stroke-linejoin:round;">
<text x="70080" y="77420"
textLength="16950" font-size="780" lengthAdjust="spacingAndGlyphs"
text-anchor="start" opacity="0">KiCad E.D.A.  kicad (5.1.6-0-10_14)</text>
<path d="M70250 77390
L70250 76800
" />
<path d="M70580 77390
L70330 77050
" />
<path d="M70580 76800
L70250 77140
" />
<path d="M70840 77390
L70840 77000
" />
<path d="M70840 76800
L70810 76830
L70840 76860
L70860 76830
L70840 76800
L70840 76860
" />
<path d="M71450 77340
L71430 77360
L71340 77390
L71290 77390
L71200 77360
L71140 77310
L71120 77250
L71090 77140
L71090 77050
L71120 76940
L71140 76890
L71200 76830
L71290 76800
L71340 76800
L71430 76830
L71450 76860
" />
<path d="M71960 77390
L71960 77080
L71930 77030
L71880 77000
L71760 77000
L71710 77030
" />
<path d="M71960 77360
L71900 77390
L71760 77390
L71710 77360
L71680 77310
L71680 77250
L71710 77200
L71760 77170
L71900 77170
L71960 77140
" />
<path d="M72490 77390
L72490 76800
" />
<path d="M72490 77360
L72440 77390
L72320 77390
L72270 77360
L72240 77340
L72210 77280
L72210 77110
L72240 77050
L72270 77030
L72320 77000
L72440 77000
L72490 77030
" />
<path d="M73220 77080
L73420 77080
" />
<path d="M73500 77390
L73220 77390
L73220 76800
L73500 76800
" />
<path d="M73760 77340
L73790 77360
L73760 77390
L73730 77360
L73760 77340
L73760 77390
" />
<path d="M74040 77390
L74040 76800
L74180 76800
L74260 76830
L74320 76890
L74350 76940
L74380 77050
L74380 77140
L74350 77250
L74320 77310
L74260 77360
L74180 77390
L74040 77390
" />
<path d="M74630 77340
L74660 77360
L74630 77390
L74600 77360
L74630 77340
L74630 77390
" />
<path d="M74880 77220
L75160 77220
" />
<path d="M74830 77390
L75020 76800
L75220 77390
" />
<path d="M75420 77340
L75440 77360
L75420 77390
L75390 77360
L75420 77340
L75420 77390
" />
<path d="M76600 77390
L76600 76800
" />
<path d="M76650 77170
L76820 77390
" />
<path d="M76820 77000
L76600 77220
" />
<path d="M77070 77390
L77070 77000
" />
<path d="M77070 76800
L77040 76830
L77070 76860
L77100 76830
L77070 76800
L77070 76860
" />
<path d="M77610 77360
L77550 77390
L77440 77390
L77380 77360
L77350 77340
L77330 77280
L77330 77110
L77350 77050
L77380 77030
L77440 77000
L77550 77000
L77610 77030
" />
<path d="M78110 77390
L78110 77080
L78080 77030
L78030 77000
L77920 77000
L77860 77030
" />
<path d="M78110 77360
L78060 77390
L77920 77390
L77860 77360
L77830 77310
L77830 77250
L77860 77200
L77920 77170
L78060 77170
L78110 77140
" />
<path d="M78650 77390
L78650 76800
" />
<path d="M78650 77360
L78590 77390
L78480 77390
L78420 77360
L78390 77340
L78370 77280
L78370 77110
L78390 77050
L78420 77030
L78480 77000
L78590 77000
L78650 77030
" />
<path d="M79550 77620
L79520 77590
L79460 77500
L79430 77450
L79400 77360
L79380 77220
L79380 77110
L79400 76970
L79430 76890
L79460 76830
L79520 76750
L79550 76720
" />
<path d="M80050 76800
L79770 76800
L79740 77080
L79770 77050
L79830 77030
L79970 77030
L80020 77050
L80050 77080
L80080 77140
L80080 77280
L80050 77340
L80020 77360
L79970 77390
L79830 77390
L79770 77360
L79740 77340
" />
<path d="M80330 77340
L80360 77360
L80330 77390
L80300 77360
L80330 77340
L80330 77390
" />
<path d="M80920 77390
L80580 77390
" />
<path d="M80750 77390
L80750 76800
L80700 76890
L80640 76940
L80580 76970
" />
<path d="M81170 77340
L81200 77360
L81170 77390
L81150 77360
L81170 77340
L81170 77390
" />
<path d="M81710 76800
L81600 76800
L81540 76830
L81510 76860
L81460 76940
L81430 77050
L81430 77280
L81460 77340
L81480 77360
L81540 77390
L81650 77390
L81710 77360
L81740 77340
L81760 77280
L81760 77140
L81740 77080
L81710 77050
L81650 77030
L81540 77030
L81480 77050
L81460 77080
L81430 77140
" />
<path d="M82020 77170
L82470 77170
" />
<path d="M82860 76800
L82920 76800
L82970 76830
L83000 76860
L83030 76910
L83060 77030
L83060 77170
L83030 77280
L83000 77340
L82970 77360
L82920 77390
L82860 77390
L82800 77360
L82780 77340
L82750 77280
L82720 77170
L82720 77030
L82750 76910
L82780 76860
L82800 76830
L82860 76800
" />
<path d="M83310 77170
L83760 77170
" />
<path d="M84350 77390
L84010 77390
" />
<path d="M84180 77390
L84180 76800
L84120 76890
L84070 76940
L84010 76970
" />
<path d="M84710 76800
L84770 76800
L84830 76830
L84860 76860
L84880 76910
L84910 77030
L84910 77170
L84880 77280
L84860 77340
L84830 77360
L84770 77390
L84710 77390
L84660 77360
L84630 77340
L84600 77280
L84570 77170
L84570 77030
L84600 76910
L84630 76860
L84660 76830
L84710 76800
" />
<path d="M85020 77450
L85470 77450
" />
<path d="M85920 77390
L85590 77390
" />
<path d="M85750 77390
L85750 76800
L85700 76890
L85640 76940
L85590 76970
" />
<path d="M86430 77000
L86430 77390
" />
<path d="M86290 76770
L86150 77200
L86510 77200
" />
<path d="M86680 77620
L86710 77590
L86770 77500
L86790 77450
L86820 77360
L86850 77220
L86850 77110
L86820 76970
L86790 76890
L86770 76830
L86710 76750
L86680 76720
" />
</g>
<g style="fill:#840000; fill-opacity:0.0; 
stroke:#840000; stroke-width:100; stroke-opacity:1; 
stroke-linecap:round; stroke-linejoin:round;">
</g>
<g style="fill:#840000; fill-opacity:0.0; 
stroke:#840000; stroke-width:60; stroke-opacity:1; 
stroke-linecap:round; stroke-linejoin:round;">
<path d="M69690 75400
L112210 75400
" />
</g>
<g style="fill:#840000; fill-opacity:0.0; 
stroke:#840000; stroke-width:100; stroke-opacity:1; 
stroke-linecap:round; stroke-linejoin:round;">
</g>
<g style="fill:#840000; fill-opacity:0.0; 
stroke:#840000; stroke-width:120; stroke-opacity:1; 
stroke-linecap:round; stroke-linejoin:round;">
<text x="103540" y="76320"
textLength="2340" font-size="780" lengthAdjust="spacingAndGlyphs"
text-anchor="start" opacity="0">Rev: </text>
<path d="M104090 76290
L103890 76010
" />
<path d="M103750 76290
L103750 75700
L103980 75700
L104030 75730
L104060 75760
L104090 75810
L104090 75900
L104060 75950
L104030 75980
L103980 76010
L103750 76010
" />
<path d="M104570 76260
L104510 76290
L104400 76290
L104340 76260
L104320 76210
L104320 75980
L104340 75930
L104400 75900
L104510 75900
L104570 75930
L104600 75980
L104600 76040
L104320 76100
" />
<path d="M104790 75900
L104930 76290
L105070 75900
" />
<path d="M105300 76240
L105330 76260
L105300 76290
L105270 76260
L105300 76240
L105300 76290
" />
<path d="M105300 75930
L105330 75950
L105300 75980
L105270 75950
L105300 75930
L105300 75980
" />
</g>
<g style="fill:#840000; fill-opacity:0.0; 
stroke:#840000; stroke-width:100; stroke-opacity:1; 
stroke-linecap:round; stroke-linejoin:round;">
</g>
<g style="fill:#840000; fill-opacity:0.0; 
stroke:#840000; stroke-width:60; stroke-opacity:1; 
stroke-linecap:round; stroke-linejoin:round;">
<text x="70080" y="76320"
textLength="3780" font-size="780" lengthAdjust="spacingAndGlyphs"
text-anchor="start" opacity="0">Size: A4</text>
<path d="M70220 76260
L70300 76290
L70440 76290
L70500 76260
L70530 76240
L70550 76180
L70550 76120
L70530 76070
L70500 76040
L70440 76010
L70330 75980
L70270 75950
L70250 75930
L70220 75870
L70220 75810
L70250 75760
L70270 75730
L70330 75700
L70470 75700
L70550 75730
" />
<path d="M70810 76290
L70810 75900
" />
<path d="M70810 75700
L70780 75730
L70810 75760
L70840 75730
L70810 75700
L70810 75760
" />
<path d="M71030 75900
L71340 75900
L71030 76290
L71340 76290
" />
<path d="M71790 76260
L71730 76290
L71620 76290
L71570 76260
L71540 76210
L71540 75980
L71570 75930
L71620 75900
L71730 75900
L71790 75930
L71820 75980
L71820 76040
L71540 76100
" />
<path d="M72070 76240
L72100 76260
L72070 76290
L72040 76260
L72070 76240
L72070 76290
" />
<path d="M72070 75930
L72100 75950
L72070 75980
L72040 75950
L72070 75930
L72070 75980
" />
<path d="M72770 76120
L73060 76120
" />
<path d="M72720 76290
L72910 75700
L73110 76290
" />
<path d="M73560 75900
L73560 76290
" />
<path d="M73420 75670
L73280 76100
L73650 76100
" />
</g>
<g style="fill:#840000; fill-opacity:0.0; 
stroke:#840000; stroke-width:100; stroke-opacity:1; 
stroke-linecap:round; stroke-linejoin:round;">
</g>
<g style="fill:#840000; fill-opacity:0.0; 
stroke:#840000; stroke-width:60; stroke-opacity:1; 
stroke-linecap:round; stroke-linejoin:round;">
<text x="103540" y="77420"
textLength="3910" font-size="780" lengthAdjust="spacingAndGlyphs"
text-anchor="start" opacity="0">Id: 9/10</text>
<path d="M103710 77390
L103710 76800
" />
<path d="M104240 77390
L104240 76800
" />
<path d="M104240 77360
L104180 77390
L104070 77390
L104010 77360
L103990 77340
L103960 77280
L103960 77110
L103990 77050
L104010 77030
L104070 77000
L104180 77000
L104240 77030
" />
<path d="M104520 77340
L104550 77360
L104520 77390
L104490 77360
L104520 77340
L104520 77390
" />
<path d="M104520 77030
L104550 77050
L104520 77080
L104490 77050
L104520 77030
L104520 77080
" />
<path d="M105280 77390
L105390 77390
L105450 77360
L105480 77340
L105530 77250
L105560 77140
L105560 76910
L105530 76860
L105500 76830
L105450 76800
L105340 76800
L105280 76830
L105250 76860
L105220 76910
L105220 77050
L105250 77110
L105280 77140
L105340 77170
L105450 77170
L105500 77140
L105530 77110
L105560 77050
" />
<path d="M106230 76770
L105730 77530
" />
<path d="M106740 77390
L106400 77390
" />
<path d="M106570 77390
L106570 76800
L106520 76890
L106460 76940
L106400 76970
" />
<path d="M107110 76800
L107160 76800
L107220 76830
L107250 76860
L107270 76910
L107300 77030
L107300 77170
L107270 77280
L107250 77340
L107220 77360
L107160 77390
L107110 77390
L107050 77360
L107020 77340
L106990 77280
L106960 77170
L106960 77030
L106990 76910
L107020 76860
L107050 76830
L107110 76800
" />
</g>
<g style="fill:#840000; fill-opacity:0.0; 
stroke:#840000; stroke-width:100; stroke-opacity:1; 
stroke-linecap:round; stroke-linejoin:round;">
</g>
<g style="fill:#840000; fill-opacity:0.0; 
stroke:#840000; stroke-width:60; stroke-opacity:1; 
stroke-linecap:round; stroke-linejoin:round;">
<path d="M69690 73820
L112210 73820
" />
</g>
<g style="fill:#840000; fill-opacity:0.0; 
stroke:#840000; stroke-width:100; stroke-opacity:1; 
stroke-linecap:round; stroke-linejoin:round;">
</g>
<g style="fill:#840000; fill-opacity:0.0; 
stroke:#840000; stroke-width:160; stroke-opacity:1; 
stroke-linecap:round; stroke-linejoin:round;">
<text x="70080" y="74920"
textLength="3710" font-size="1050" lengthAdjust="spacingAndGlyphs"
text-anchor="start" opacity="0">Title: </text>
<path d="M70360 74090
L70810 74090
" />
<path d="M70480 74880
L70580 74090
" />
<path d="M70970 74880
L71040 74360
" />
<path d="M71070 74090
L71030 74130
L71060 74170
L71110 74130
L71070 74090
L71060 74170
" />
<path d="M71300 74360
L71600 74360
" />
<path d="M71450 74090
L71360 74770
L71390 74840
L71460 74880
L71540 74880
" />
<path d="M71910 74880
L71840 74840
L71820 74770
L71900 74090
" />
<path d="M72520 74840
L72440 74880
L72290 74880
L72220 74840
L72190 74770
L72230 74470
L72280 74390
L72360 74360
L72510 74360
L72580 74390
L72610 74470
L72600 74540
L72210 74620
" />
<path d="M72900 74810
L72930 74840
L72890 74880
L72860 74840
L72900 74810
L72890 74880
" />
<path d="M72950 74390
L72990 74430
L72940 74470
L72910 74430
L72950 74390
L72940 74470
" />
</g>
<g style="fill:#840000; fill-opacity:0.0; 
stroke:#840000; stroke-width:100; stroke-opacity:1; 
stroke-linecap:round; stroke-linejoin:round;">
</g>
<g style="fill:#840000; fill-opacity:0.0; 
stroke:#840000; stroke-width:60; stroke-opacity:1; 
stroke-linecap:round; stroke-linejoin:round;">
<text x="70080" y="73400"
textLength="7910" font-size="780" lengthAdjust="spacingAndGlyphs"
text-anchor="start" opacity="0">File: ExtInput.sch</text>
<path d="M70440 73060
L70250 73060
" />
<path d="M70250 73370
L70250 72780
L70530 72780
" />
<path d="M70750 73370
L70750 72980
" />
<path d="M70750 72780
L70720 72810
L70750 72840
L70780 72810
L70750 72780
L70750 72840
" />
<path d="M71120 73370
L71060 73340
L71030 73290
L71030 72780
" />
<path d="M71570 73340
L71510 73370
L71400 73370
L71340 73340
L71310 73290
L71310 73060
L71340 73010
L71400 72980
L71510 72980
L71570 73010
L71590 73060
L71590 73120
L71310 73180
" />
<path d="M71850 73320
L71880 73340
L71850 73370
L71820 73340
L71850 73320
L71850 73370
" />
<path d="M71850 73010
L71880 73030
L71850 73060
L71820 73030
L71850 73010
L71850 73060
" />
<path d="M72580 73060
L72770 73060
" />
<path d="M72860 73370
L72580 73370
L72580 72780
L72860 72780
" />
<path d="M73060 73370
L73360 72980
" />
<path d="M73060 72980
L73360 73370
" />
<path d="M73500 72980
L73730 72980
" />
<path d="M73590 72780
L73590 73290
L73620 73340
L73670 73370
L73730 73370
" />
<path d="M73930 73370
L73930 72780
" />
<path d="M74210 72980
L74210 73370
" />
<path d="M74210 73030
L74240 73010
L74290 72980
L74380 72980
L74430 73010
L74460 73060
L74460 73370
" />
<path d="M74740 72980
L74740 73570
" />
<path d="M74740 73010
L74800 72980
L74910 72980
L74970 73010
L74990 73030
L75020 73090
L75020 73260
L74990 73320
L74970 73340
L74910 73370
L74800 73370
L74740 73340
" />
<path d="M75530 72980
L75530 73370
" />
<path d="M75270 72980
L75270 73290
L75300 73340
L75360 73370
L75440 73370
L75500 73340
L75530 73320
" />
<path d="M75720 72980
L75950 72980
" />
<path d="M75810 72780
L75810 73290
L75840 73340
L75890 73370
L75950 73370
" />
<path d="M76150 73320
L76170 73340
L76150 73370
L76120 73340
L76150 73320
L76150 73370
" />
<path d="M76400 73340
L76450 73370
L76570 73370
L76620 73340
L76650 73290
L76650 73260
L76620 73200
L76570 73180
L76480 73180
L76430 73150
L76400 73090
L76400 73060
L76430 73010
L76480 72980
L76570 72980
L76620 73010
" />
<path d="M77160 73340
L77100 73370
L76990 73370
L76930 73340
L76900 73320
L76880 73260
L76880 73090
L76900 73030
L76930 73010
L76990 72980
L77100 72980
L77160 73010
" />
<path d="M77410 73370
L77410 72780
" />
<path d="M77660 73370
L77660 73060
L77630 73010
L77580 72980
L77490 72980
L77440 73010
L77410 73030
" />
</g>
<g style="fill:#840000; fill-opacity:0.0; 
stroke:#840000; stroke-width:100; stroke-opacity:1; 
stroke-linecap:round; stroke-linejoin:round;">
</g>
<g style="fill:#840000; fill-opacity:0.0; 
stroke:#840000; stroke-width:60; stroke-opacity:1; 
stroke-linecap:round; stroke-linejoin:round;">
<path d="M69690 71460
L112210 71460
" />
</g>
<g style="fill:#840000; fill-opacity:0.0; 
stroke:#840000; stroke-width:100; stroke-opacity:1; 
stroke-linecap:round; stroke-linejoin:round;">
</g>
<g style="fill:#840000; fill-opacity:0.0; 
stroke:#840000; stroke-width:60; stroke-opacity:1; 
stroke-linecap:round; stroke-linejoin:round;">
<text x="70080" y="72340"
textLength="8040" font-size="780" lengthAdjust="spacingAndGlyphs"
text-anchor="start" opacity="0">Sheet: /ExtInput/</text>
<path d="M70220 72280
L70300 72310
L70440 72310
L70500 72280
L70530 72260
L70550 72200
L70550 72140
L70530 72090
L70500 72060
L70440 72030
L70330 72000
L70270 71970
L70250 71950
L70220 71890
L70220 71830
L70250 71780
L70270 71750
L70330 71720
L70470 71720
L70550 71750
" />
<path d="M70810 72310
L70810 71720
" />
<path d="M71060 72310
L71060 72000
L71030 71950
L70980 71920
L70890 71920
L70840 71950
L70810 71970
" />
<path d="M71570 72280
L71510 72310
L71400 72310
L71340 72280
L71310 72230
L71310 72000
L71340 71950
L71400 71920
L71510 71920
L71570 71950
L71590 72000
L71590 72060
L71310 72120
" />
<path d="M72070 72280
L72020 72310
L71900 72310
L71850 72280
L71820 72230
L71820 72000
L71850 71950
L71900 71920
L72020 71920
L72070 71950
L72100 72000
L72100 72060
L71820 72120
" />
<path d="M72270 71920
L72490 71920
" />
<path d="M72350 71720
L72350 72230
L72380 72280
L72440 72310
L72490 72310
" />
<path d="M72690 72260
L72720 72280
L72690 72310
L72660 72280
L72690 72260
L72690 72310
" />
<path d="M72690 71950
L72720 71970
L72690 72000
L72660 71970
L72690 71950
L72690 72000
" />
<path d="M73840 71690
L73340 72450
" />
<path d="M74040 72000
L74240 72000
" />
<path d="M74320 72310
L74040 72310
L74040 71720
L74320 71720
" />
<path d="M74520 72310
L74830 71920
" />
<path d="M74520 71920
L74830 72310
" />
<path d="M74970 71920
L75190 71920
" />
<path d="M75050 71720
L75050 72230
L75080 72280
L75130 72310
L75190 72310
" />
<path d="M75390 72310
L75390 71720
" />
<path d="M75670 71920
L75670 72310
" />
<path d="M75670 71970
L75700 71950
L75750 71920
L75840 71920
L75890 71950
L75920 72000
L75920 72310
" />
<path d="M76200 71920
L76200 72510
" />
<path d="M76200 71950
L76260 71920
L76370 71920
L76430 71950
L76450 71970
L76480 72030
L76480 72200
L76450 72260
L76430 72280
L76370 72310
L76260 72310
L76200 72280
" />
<path d="M76990 71920
L76990 72310
" />
<path d="M76740 71920
L76740 72230
L76760 72280
L76820 72310
L76900 72310
L76960 72280
L76990 72260
" />
<path d="M77190 71920
L77410 71920
" />
<path d="M77270 71720
L77270 72230
L77300 72280
L77350 72310
L77410 72310
" />
<path d="M78030 71690
L77520 72450
" />
</g>
<g style="fill:#840000; fill-opacity:0.0; 
stroke:#840000; stroke-width:100; stroke-opacity:1; 
stroke-linecap:round; stroke-linejoin:round;">
</g>
<g style="fill:#840000; fill-opacity:0.0; 
stroke:#840000; stroke-width:60; stroke-opacity:1; 
stroke-linecap:round; stroke-linejoin:round;">
<path d="M77560 75400
L77560 76580
" />
</g>
<g style="fill:#840000; fill-opacity:0.0; 
stroke:#840000; stroke-width:100; stroke-opacity:1; 
stroke-linecap:round; stroke-linejoin:round;">
</g>
<g style="fill:#840000; fill-opacity:0.0; 
stroke:#840000; stroke-width:60; stroke-opacity:1; 
stroke-linecap:round; stroke-linejoin:round;">
<path d="M102760 75400
L102760 77960
" />
</g>
<g style="fill:#840000; fill-opacity:0.0; 
stroke:#840000; stroke-width:0; stroke-opacity:1; 
stroke-linecap:round; stroke-linejoin:round;">
<g >
</g>
<g style="fill:#840000; fill-opacity:1.0; 
stroke:#840000; stroke-width:60; stroke-opacity:1; 
stroke-linecap:round; stroke-linejoin:round;">
<rect x="24250" y="16250" width="500" height="2500" rx="0" />
</g>
<g style="fill:#840000; fill-opacity:0.0; 
stroke:#840000; stroke-width:60; stroke-opacity:1; 
stroke-linecap:round; stroke-linejoin:round;">
<rect x="24750" y="15500" width="5250" height="4000" rx="0" />
<path style="fill:#840000; fill-opacity:0.0; 
stroke:#840000; stroke-width:60; stroke-opacity:1; 
stroke-linecap:round; stroke-linejoin:round;fill:none"
d="M 28000,19000
27500,18500
" /> 
<path style="fill:#840000; fill-opacity:0.0; 
stroke:#840000; stroke-width:60; stroke-opacity:1; 
stroke-linecap:round; stroke-linejoin:round;fill:none"
d="M 28500,17000
30000,17000
30000,17000
" /> 
<path style="fill:#840000; fill-opacity:0.0; 
stroke:#840000; stroke-width:60; stroke-opacity:1; 
stroke-linecap:round; stroke-linejoin:round;fill:none"
d="M 27000,16000
26500,16500
26000,16000
26000,16000
" /> 
<path style="fill:#840000; fill-opacity:0.0; 
stroke:#840000; stroke-width:60; stroke-opacity:1; 
stroke-linecap:round; stroke-linejoin:round;fill:none"
d="M 27000,16000
30000,16000
30000,16000
30000,16000
" /> 
<path style="fill:#840000; fill-opacity:0.0; 
stroke:#840000; stroke-width:60; stroke-opacity:1; 
stroke-linecap:round; stroke-linejoin:round;fill:none"
d="M 27500,16500
28000,16000
28500,16500
28500,16500
" /> 
<path style="fill:#840000; fill-opacity:0.0; 
stroke:#840000; stroke-width:60; stroke-opacity:1; 
stroke-linecap:round; stroke-linejoin:round;fill:none"
d="M 28500,17000
28000,17000
28000,16000
28000,16000
" /> 
<path style="fill:#840000; fill-opacity:0.0; 
stroke:#840000; stroke-width:60; stroke-opacity:1; 
stroke-linecap:round; stroke-linejoin:round;fill:none"
d="M 30000,18000
28000,18000
28000,19000
28500,18500
" /> 
<path style="fill:#840000; fill-opacity:0.0; 
stroke:#840000; stroke-width:60; stroke-opacity:1; 
stroke-linecap:round; stroke-linejoin:round;fill:none"
d="M 31500,19000
27500,19000
26000,19000
25500,18500
25000,19000
25000,19000
" /> 
<path d="M30000 16000
L31500 16000
" />
</g>
<g style="fill:#008484; fill-opacity:0.0; 
stroke:#008484; stroke-width:60; stroke-opacity:1; 
stroke-linecap:round; stroke-linejoin:round;">
<text x="29600" y="16250"
textLength="1180" font-size="660" lengthAdjust="spacingAndGlyphs"
text-anchor="end" opacity="0">TIP</text>
<path d="M28490 15720
L28780 15720
" />
<path d="M28640 16220
L28640 15720
" />
<path d="M28950 16220
L28950 15720
" />
<path d="M29180 16220
L29180 15720
L29370 15720
L29420 15750
L29450 15770
L29470 15820
L29470 15890
L29450 15940
L29420 15960
L29370 15980
L29180 15980
" />
</g>
<g style="fill:#840000; fill-opacity:0.0; 
stroke:#840000; stroke-width:60; stroke-opacity:1; 
stroke-linecap:round; stroke-linejoin:round;">
<text x="30750" y="15900"
textLength="540" font-size="660" lengthAdjust="spacingAndGlyphs"
text-anchor="middle" opacity="0">1</text>
<path d="M30890 15870
L30600 15870
" />
<path d="M30750 15870
L30750 15370
L30700 15440
L30650 15490
L30600 15510
" />
<path d="M30000 17000
L31500 17000
" />
</g>
<g style="fill:#008484; fill-opacity:0.0; 
stroke:#008484; stroke-width:60; stroke-opacity:1; 
stroke-linecap:round; stroke-linejoin:round;">
<text x="29600" y="17250"
textLength="2580" font-size="660" lengthAdjust="spacingAndGlyphs"
text-anchor="end" opacity="0">TIP_NC</text>
<path d="M27090 16720
L27370 16720
" />
<path d="M27230 17220
L27230 16720
" />
<path d="M27540 17220
L27540 16720
" />
<path d="M27780 17220
L27780 16720
L27970 16720
L28020 16750
L28040 16770
L28070 16820
L28070 16890
L28040 16940
L28020 16960
L27970 16980
L27780 16980
" />
<path d="M28160 17270
L28540 17270
" />
<path d="M28660 17220
L28660 16720
L28950 17220
L28950 16720
" />
<path d="M29470 17170
L29450 17200
L29370 17220
L29330 17220
L29260 17200
L29210 17150
L29180 17100
L29160 17010
L29160 16940
L29180 16840
L29210 16790
L29260 16750
L29330 16720
L29370 16720
L29450 16750
L29470 16770
" />
</g>
<g style="fill:#840000; fill-opacity:0.0; 
stroke:#840000; stroke-width:60; stroke-opacity:1; 
stroke-linecap:round; stroke-linejoin:round;">
<text x="30750" y="16900"
textLength="540" font-size="660" lengthAdjust="spacingAndGlyphs"
text-anchor="middle" opacity="0">2</text>
<path d="M30600 16420
L30630 16400
L30670 16370
L30790 16370
L30840 16400
L30860 16420
L30890 16470
L30890 16510
L30860 16590
L30580 16870
L30890 16870
" />
<path d="M30000 18000
L31500 18000
" />
</g>
<g style="fill:#008484; fill-opacity:0.0; 
stroke:#008484; stroke-width:60; stroke-opacity:1; 
stroke-linecap:round; stroke-linejoin:round;">
<text x="29600" y="18250"
textLength="4130" font-size="660" lengthAdjust="spacingAndGlyphs"
text-anchor="end" opacity="0">SLEEVE_NC</text>
<path d="M25590 18200
L25660 18220
L25780 18220
L25830 18200
L25850 18170
L25870 18130
L25870 18080
L25850 18030
L25830 18010
L25780 17980
L25680 17960
L25640 17940
L25610 17910
L25590 17860
L25590 17820
L25610 17770
L25640 17750
L25680 17720
L25800 17720
L25870 17750
" />
<path d="M26330 18220
L26090 18220
L26090 17720
" />
<path d="M26490 17960
L26660 17960
" />
<path d="M26730 18220
L26490 18220
L26490 17720
L26730 17720
" />
<path d="M26950 17960
L27110 17960
" />
<path d="M27180 18220
L26950 18220
L26950 17720
L27180 17720
" />
<path d="M27330 17720
L27490 18220
L27660 17720
" />
<path d="M27830 17960
L27990 17960
" />
<path d="M28070 18220
L27830 18220
L27830 17720
L28070 17720
" />
<path d="M28160 18270
L28540 18270
" />
<path d="M28660 18220
L28660 17720
L28950 18220
L28950 17720
" />
<path d="M29470 18170
L29450 18200
L29370 18220
L29330 18220
L29260 18200
L29210 18150
L29180 18100
L29160 18010
L29160 17940
L29180 17840
L29210 17790
L29260 17750
L29330 17720
L29370 17720
L29450 17750
L29470 17770
" />
</g>
<g style="fill:#840000; fill-opacity:0.0; 
stroke:#840000; stroke-width:60; stroke-opacity:1; 
stroke-linecap:round; stroke-linejoin:round;">
<text x="30750" y="17900"
textLength="540" font-size="660" lengthAdjust="spacingAndGlyphs"
text-anchor="middle" opacity="0">3</text>
<path d="M30580 17370
L30890 17370
L30720 17560
L30790 17560
L30840 17590
L30860 17610
L30890 17660
L30890 17780
L30860 17820
L30840 17850
L30790 17870
L30650 17870
L30600 17850
L30580 17820
" />
<path d="M30000 19000
L31500 19000
" />
</g>
<g style="fill:#008484; fill-opacity:0.0; 
stroke:#008484; stroke-width:60; stroke-opacity:1; 
stroke-linecap:round; stroke-linejoin:round;">
<text x="29600" y="19250"
textLength="2730" font-size="660" lengthAdjust="spacingAndGlyphs"
text-anchor="end" opacity="0">SLEEVE</text>
<path d="M26990 19200
L27070 19220
L27180 19220
L27230 19200
L27260 19170
L27280 19130
L27280 19080
L27260 19030
L27230 19010
L27180 18980
L27090 18960
L27040 18940
L27020 18910
L26990 18860
L26990 18820
L27020 18770
L27040 18750
L27090 18720
L27210 18720
L27280 18750
" />
<path d="M27730 19220
L27490 19220
L27490 18720
" />
<path d="M27900 18960
L28070 18960
" />
<path d="M28140 19220
L27900 19220
L27900 18720
L28140 18720
" />
<path d="M28350 18960
L28520 18960
" />
<path d="M28590 19220
L28350 19220
L28350 18720
L28590 18720
" />
<path d="M28730 18720
L28900 19220
L29070 18720
" />
<path d="M29230 18960
L29400 18960
" />
<path d="M29470 19220
L29230 19220
L29230 18720
L29470 18720
" />
</g>
<g style="fill:#840000; fill-opacity:0.0; 
stroke:#840000; stroke-width:60; stroke-opacity:1; 
stroke-linecap:round; stroke-linejoin:round;">
<text x="30750" y="18900"
textLength="540" font-size="660" lengthAdjust="spacingAndGlyphs"
text-anchor="middle" opacity="0">4</text>
<path d="M30840 18540
L30840 18870
" />
<path d="M30720 18350
L30600 18700
L30910 18700
" />
</g>
<g style="fill:#008484; fill-opacity:0.0; 
stroke:#008484; stroke-width:60; stroke-opacity:1; 
stroke-linecap:round; stroke-linejoin:round;">
<text x="27950" y="14020"
textLength="920" font-size="660" lengthAdjust="spacingAndGlyphs"
text-anchor="middle" opacity="0">J5</text>
<path d="M27780 13490
L27780 13850
L27750 13920
L27710 13970
L27640 13990
L27590 13990
" />
<path d="M28250 13490
L28020 13490
L27990 13730
L28020 13710
L28060 13680
L28180 13680
L28230 13710
L28250 13730
L28280 13780
L28280 13900
L28250 13940
L28230 13970
L28180 13990
L28060 13990
L28020 13970
L27990 13940
" />
<text x="27950" y="14930"
textLength="6540" font-size="660" lengthAdjust="spacingAndGlyphs"
text-anchor="middle" opacity="0">MonoJack2Switch</text>
<path d="M24830 14900
L24830 14400
L24990 14760
L25160 14400
L25160 14900
" />
<path d="M25470 14900
L25420 14880
L25400 14850
L25370 14810
L25370 14660
L25400 14620
L25420 14590
L25470 14570
L25540 14570
L25590 14590
L25610 14620
L25640 14660
L25640 14810
L25610 14850
L25590 14880
L25540 14900
L25470 14900
" />
<path d="M25850 14570
L25850 14900
" />
<path d="M25850 14620
L25870 14590
L25920 14570
L25990 14570
L26040 14590
L26060 14640
L26060 14900
" />
<path d="M26370 14900
L26330 14880
L26300 14850
L26280 14810
L26280 14660
L26300 14620
L26330 14590
L26370 14570
L26450 14570
L26490 14590
L26520 14620
L26540 14660
L26540 14810
L26520 14850
L26490 14880
L26450 14900
L26370 14900
" />
<path d="M26900 14400
L26900 14760
L26870 14830
L26830 14880
L26750 14900
L26710 14900
" />
<path d="M27350 14900
L27350 14640
L27330 14590
L27280 14570
L27180 14570
L27140 14590
" />
<path d="M27350 14880
L27300 14900
L27180 14900
L27140 14880
L27110 14830
L27110 14780
L27140 14730
L27180 14710
L27300 14710
L27350 14690
" />
<path d="M27800 14880
L27750 14900
L27660 14900
L27610 14880
L27590 14850
L27560 14810
L27560 14660
L27590 14620
L27610 14590
L27660 14570
L27750 14570
L27800 14590
" />
<path d="M28020 14900
L28020 14400
" />
<path d="M28060 14710
L28210 14900
" />
<path d="M28210 14570
L28020 14760
" />
<path d="M28400 14450
L28420 14430
L28470 14400
L28590 14400
L28640 14430
L28660 14450
L28680 14500
L28680 14540
L28660 14620
L28370 14900
L28680 14900
" />
<path d="M28870 14880
L28950 14900
L29060 14900
L29110 14880
L29140 14850
L29160 14810
L29160 14760
L29140 14710
L29110 14690
L29060 14660
L28970 14640
L28920 14620
L28900 14590
L28870 14540
L28870 14500
L28900 14450
L28920 14430
L28970 14400
L29090 14400
L29160 14430
" />
<path d="M29330 14570
L29420 14900
L29520 14660
L29610 14900
L29710 14570
" />
<path d="M29900 14900
L29900 14570
" />
<path d="M29900 14400
L29870 14430
L29900 14450
L29920 14430
L29900 14400
L29900 14450
" />
<path d="M30060 14570
L30250 14570
" />
<path d="M30140 14400
L30140 14830
L30160 14880
L30210 14900
L30250 14900
" />
<path d="M30640 14880
L30590 14900
L30490 14900
L30450 14880
L30420 14850
L30400 14810
L30400 14660
L30420 14620
L30450 14590
L30490 14570
L30590 14570
L30640 14590
" />
<path d="M30850 14900
L30850 14400
" />
<path d="M31060 14900
L31060 14640
L31040 14590
L30990 14570
L30920 14570
L30870 14590
L30850 14620
" />
</g>
</g>
<g style="fill:#008484; fill-opacity:0.0; 
stroke:#008484; stroke-width:0; stroke-opacity:1; 
stroke-linecap:round; stroke-linejoin:round;">
<g >
</g>
<g style="fill:#840000; fill-opacity:0.0; 
stroke:#840000; stroke-width:0; stroke-opacity:1; 
stroke-linecap:round; stroke-linejoin:round;">
</g>
<g style="fill:#840000; fill-opacity:0.0; 
stroke:#840000; stroke-width:100; stroke-opacity:1; 
stroke-linecap:round; stroke-linejoin:round;">
<rect x="60600" y="53000" width="800" height="2000" rx="0" />
</g>
<g style="fill:#840000; fill-opacity:0.0; 
stroke:#840000; stroke-width:60; stroke-opacity:1; 
stroke-linecap:round; stroke-linejoin:round;">
<path d="M61000 53000
L61000 52500
" />
<path d="M61000 55000
L61000 55500
" />
</g>
<g style="fill:#008484; fill-opacity:0.0; 
stroke:#008484; stroke-width:60; stroke-opacity:1; 
stroke-linecap:round; stroke-linejoin:round;">
<text x="62450" y="53810"
textLength="1510" font-size="660" lengthAdjust="spacingAndGlyphs"
text-anchor="middle" opacity="0">R10</text>
<path d="M62120 53780
L61960 53540
" />
<path d="M61840 53780
L61840 53280
L62030 53280
L62080 53310
L62100 53330
L62120 53380
L62120 53450
L62100 53500
L62080 53520
L62030 53540
L61840 53540
" />
<path d="M62600 53780
L62310 53780
" />
<path d="M62460 53780
L62460 53280
L62410 53350
L62360 53400
L62310 53420
" />
<path d="M62910 53280
L62960 53280
L63000 53310
L63030 53330
L63050 53380
L63080 53470
L63080 53590
L63050 53690
L63030 53730
L63000 53760
L62960 53780
L62910 53780
L62860 53760
L62840 53730
L62810 53690
L62790 53590
L62790 53470
L62810 53380
L62840 53330
L62860 53310
L62910 53280
" />
<text x="62220" y="54720"
textLength="1040" font-size="660" lengthAdjust="spacingAndGlyphs"
text-anchor="middle" opacity="0">1K</text>
<path d="M62110 54690
L61820 54690
" />
<path d="M61970 54690
L61970 54190
L61920 54260
L61870 54310
L61820 54330
" />
<path d="M62320 54690
L62320 54190
" />
<path d="M62610 54690
L62390 54410
" />
<path d="M62610 54190
L62320 54480
" />
</g>
</g>
<g style="fill:#008484; fill-opacity:0.0; 
stroke:#008484; stroke-width:0; stroke-opacity:1; 
stroke-linecap:round; stroke-linejoin:round;">
<g >
</g>
<g style="fill:#840000; fill-opacity:0.0; 
stroke:#840000; stroke-width:0; stroke-opacity:1; 
stroke-linecap:round; stroke-linejoin:round;">
</g>
<g style="fill:#840000; fill-opacity:0.0; 
stroke:#840000; stroke-width:60; stroke-opacity:1; 
stroke-linecap:round; stroke-linejoin:round;">
<path style="fill:#840000; fill-opacity:0.0; 
stroke:#840000; stroke-width:60; stroke-opacity:1; 
stroke-linecap:round; stroke-linejoin:round;fill:none"
d="M 60700,51000
61000,50500
" /> 
<path style="fill:#840000; fill-opacity:0.0; 
stroke:#840000; stroke-width:60; stroke-opacity:1; 
stroke-linecap:round; stroke-linejoin:round;fill:none"
d="M 61000,51500
61000,50500
" /> 
<path style="fill:#840000; fill-opacity:0.0; 
stroke:#840000; stroke-width:60; stroke-opacity:1; 
stroke-linecap:round; stroke-linejoin:round;fill:none"
d="M 61000,50500
61300,51000
" /> 
</g>
<g style="fill:#008484; fill-opacity:0.0; 
stroke:#008484; stroke-width:60; stroke-opacity:1; 
stroke-linecap:round; stroke-linejoin:round;">
<text x="61150" y="50040"
textLength="2300" font-size="660" lengthAdjust="spacingAndGlyphs"
text-anchor="middle" opacity="0">+3.3V</text>
<path d="M60150 49820
L60530 49820
" />
<path d="M60340 50010
L60340 49630
" />
<path d="M60720 49510
L61030 49510
L60860 49700
L60930 49700
L60980 49730
L61000 49750
L61030 49800
L61030 49920
L61000 49960
L60980 49990
L60930 50010
L60790 50010
L60740 49990
L60720 49960
" />
<path d="M61240 49960
L61260 49990
L61240 50010
L61220 49990
L61240 49960
L61240 50010
" />
<path d="M61430 49510
L61740 49510
L61570 49700
L61650 49700
L61690 49730
L61720 49750
L61740 49800
L61740 49920
L61720 49960
L61690 49990
L61650 50010
L61500 50010
L61450 49990
L61430 49960
" />
<path d="M61880 49510
L62050 50010
L62220 49510
" />
</g>
</g>
<g style="fill:#008484; fill-opacity:0.0; 
stroke:#008484; stroke-width:0; stroke-opacity:1; 
stroke-linecap:round; stroke-linejoin:round;">
<g >
</g>
<g style="fill:#840000; fill-opacity:0.0; 
stroke:#840000; stroke-width:0; stroke-opacity:1; 
stroke-linecap:round; stroke-linejoin:round;">
</g>
<g style="fill:#840000; fill-opacity:0.0; 
stroke:#840000; stroke-width:60; stroke-opacity:1; 
stroke-linecap:round; stroke-linejoin:round;">
<path style="fill:#840000; fill-opacity:0.0; 
stroke:#840000; stroke-width:60; stroke-opacity:1; 
stroke-linecap:round; stroke-linejoin:round;fill:none"
d="M 34250,30000
34250,30500
34750,30500
34250,31000
33750,30500
34250,30500
" /> 
</g>
<g style="fill:#008484; fill-opacity:0.0; 
stroke:#008484; stroke-width:60; stroke-opacity:1; 
stroke-linecap:round; stroke-linejoin:round;">
<text x="34300" y="32000"
textLength="2060" font-size="660" lengthAdjust="spacingAndGlyphs"
text-anchor="middle" opacity="0">GNDS</text>
<path d="M33680 31500
L33630 31470
L33560 31470
L33490 31500
L33440 31540
L33410 31590
L33390 31690
L33390 31760
L33410 31850
L33440 31900
L33490 31950
L33560 31970
L33600 31970
L33680 31950
L33700 31920
L33700 31760
L33600 31760
" />
<path d="M33910 31970
L33910 31470
L34200 31970
L34200 31470
" />
<path d="M34440 31970
L34440 31470
L34560 31470
L34630 31500
L34680 31540
L34700 31590
L34720 31690
L34720 31760
L34700 31850
L34680 31900
L34630 31950
L34560 31970
L34440 31970
" />
<path d="M34910 31950
L34990 31970
L35100 31970
L35150 31950
L35180 31920
L35200 31880
L35200 31830
L35180 31780
L35150 31760
L35100 31730
L35010 31710
L34960 31690
L34940 31660
L34910 31610
L34910 31570
L34940 31520
L34960 31500
L35010 31470
L35130 31470
L35200 31500
" />
</g>
</g>
<g style="fill:#008484; fill-opacity:0.0; 
stroke:#008484; stroke-width:0; stroke-opacity:1; 
stroke-linecap:round; stroke-linejoin:round;">
<g >
</g>
<g style="fill:#840000; fill-opacity:0.0; 
stroke:#840000; stroke-width:0; stroke-opacity:1; 
stroke-linecap:round; stroke-linejoin:round;">
</g>
<g style="fill:#840000; fill-opacity:0.0; 
stroke:#840000; stroke-width:60; stroke-opacity:1; 
stroke-linecap:round; stroke-linejoin:round;">
<path style="fill:#840000; fill-opacity:0.0; 
stroke:#840000; stroke-width:60; stroke-opacity:1; 
stroke-linecap:round; stroke-linejoin:round;fill:none"
d="M 37250,58000
37250,58500
37750,58500
37250,59000
36750,58500
37250,58500
" /> 
</g>
<g style="fill:#008484; fill-opacity:0.0; 
stroke:#008484; stroke-width:60; stroke-opacity:1; 
stroke-linecap:round; stroke-linejoin:round;">
<text x="37300" y="60000"
textLength="2060" font-size="660" lengthAdjust="spacingAndGlyphs"
text-anchor="middle" opacity="0">GNDS</text>
<path d="M36680 59500
L36630 59470
L36560 59470
L36490 59500
L36440 59540
L36410 59590
L36390 59690
L36390 59760
L36410 59850
L36440 59900
L36490 59950
L36560 59970
L36600 59970
L36680 59950
L36700 59920
L36700 59760
L36600 59760
" />
<path d="M36910 59970
L36910 59470
L37200 59970
L37200 59470
" />
<path d="M37440 59970
L37440 59470
L37560 59470
L37630 59500
L37680 59540
L37700 59590
L37720 59690
L37720 59760
L37700 59850
L37680 59900
L37630 59950
L37560 59970
L37440 59970
" />
<path d="M37910 59950
L37990 59970
L38100 59970
L38150 59950
L38180 59920
L38200 59880
L38200 59830
L38180 59780
L38150 59760
L38100 59730
L38010 59710
L37960 59690
L37940 59660
L37910 59610
L37910 59570
L37940 59520
L37960 59500
L38010 59470
L38130 59470
L38200 59500
" />
</g>
</g>
<g style="fill:#008484; fill-opacity:0.0; 
stroke:#008484; stroke-width:0; stroke-opacity:1; 
stroke-linecap:round; stroke-linejoin:round;">
<g >
</g>
<g style="fill:#840000; fill-opacity:0.0; 
stroke:#840000; stroke-width:0; stroke-opacity:1; 
stroke-linecap:round; stroke-linejoin:round;">
</g>
<g style="fill:#840000; fill-opacity:0.0; 
stroke:#840000; stroke-width:60; stroke-opacity:1; 
stroke-linecap:round; stroke-linejoin:round;">
<circle cx="51450" cy="57000" r="200" /> 
<circle cx="53050" cy="57000" r="200" /> 
<path style="fill:#840000; fill-opacity:0.0; 
stroke:#840000; stroke-width:60; stroke-opacity:1; 
stroke-linecap:round; stroke-linejoin:round;fill:none"
d="M 51650,56900
52850,56300
" /> 
<path d="M51250 57000
L50250 57000
" />
<text x="50750" y="57600"
textLength="540" font-size="660" lengthAdjust="spacingAndGlyphs"
text-anchor="middle" opacity="0">1</text>
<path d="M50890 57570
L50600 57570
" />
<path d="M50750 57570
L50750 57070
L50700 57140
L50650 57190
L50600 57210
" />
<path d="M53250 57000
L54250 57000
" />
<text x="53750" y="57600"
textLength="540" font-size="660" lengthAdjust="spacingAndGlyphs"
text-anchor="middle" opacity="0">2</text>
<path d="M53600 57120
L53630 57100
L53670 57070
L53790 57070
L53840 57100
L53860 57120
L53890 57170
L53890 57210
L53860 57290
L53580 57570
L53890 57570
" />
</g>
<g style="fill:#008484; fill-opacity:0.0; 
stroke:#008484; stroke-width:60; stroke-opacity:1; 
stroke-linecap:round; stroke-linejoin:round;">
<text x="52250" y="54920"
textLength="1580" font-size="660" lengthAdjust="spacingAndGlyphs"
text-anchor="middle" opacity="0">SW2</text>
<path d="M51580 54870
L51650 54890
L51770 54890
L51820 54870
L51840 54840
L51860 54800
L51860 54750
L51840 54700
L51820 54680
L51770 54650
L51670 54630
L51630 54610
L51600 54580
L51580 54530
L51580 54490
L51600 54440
L51630 54420
L51670 54390
L51790 54390
L51860 54420
" />
<path d="M52030 54390
L52150 54890
L52250 54530
L52340 54890
L52460 54390
" />
<path d="M52630 54440
L52650 54420
L52700 54390
L52820 54390
L52860 54420
L52890 54440
L52910 54490
L52910 54530
L52890 54610
L52600 54890
L52910 54890
" />
<text x="52250" y="55830"
textLength="7390" font-size="660" lengthAdjust="spacingAndGlyphs"
text-anchor="middle" opacity="0">P26L-1D-RND MTL</text>
<path d="M48700 55800
L48700 55300
L48890 55300
L48940 55330
L48960 55350
L48980 55400
L48980 55470
L48960 55520
L48940 55540
L48890 55560
L48700 55560
" />
<path d="M49170 55350
L49200 55330
L49250 55300
L49360 55300
L49410 55330
L49440 55350
L49460 55400
L49460 55440
L49440 55520
L49150 55800
L49460 55800
" />
<path d="M49890 55300
L49790 55300
L49750 55330
L49720 55350
L49670 55420
L49650 55520
L49650 55710
L49670 55750
L49700 55780
L49750 55800
L49840 55800
L49890 55780
L49910 55750
L49940 55710
L49940 55590
L49910 55540
L49890 55520
L49840 55490
L49750 55490
L49700 55520
L49670 55540
L49650 55590
" />
<path d="M50390 55800
L50150 55800
L50150 55300
" />
<path d="M50550 55610
L50940 55610
" />
<path d="M51440 55800
L51150 55800
" />
<path d="M51290 55800
L51290 55300
L51250 55370
L51200 55420
L51150 55440
" />
<path d="M51650 55800
L51650 55300
L51770 55300
L51840 55330
L51890 55370
L51910 55420
L51940 55520
L51940 55590
L51910 55680
L51890 55730
L51840 55780
L51770 55800
L51650 55800
" />
<path d="M52150 55610
L52530 55610
" />
<path d="M53050 55800
L52890 55560
" />
<path d="M52770 55800
L52770 55300
L52960 55300
L53010 55330
L53030 55350
L53050 55400
L53050 55470
L53030 55520
L53010 55540
L52960 55560
L52770 55560
" />
<path d="M53270 55800
L53270 55300
L53550 55800
L53550 55300
" />
<path d="M53790 55800
L53790 55300
L53910 55300
L53980 55330
L54030 55370
L54050 55420
L54080 55520
L54080 55590
L54050 55680
L54030 55730
L53980 55780
L53910 55800
L53790 55800
" />
<path d="M54670 55800
L54670 55300
L54840 55660
L55010 55300
L55010 55800
" />
<path d="M55170 55300
L55460 55300
" />
<path d="M55320 55800
L55320 55300
" />
<path d="M55860 55800
L55630 55800
L55630 55300
" />
</g>
</g>
<g style="fill:#008484; fill-opacity:0.0; 
stroke:#008484; stroke-width:0; stroke-opacity:1; 
stroke-linecap:round; stroke-linejoin:round;">
<g >
</g>
<g style="fill:#840000; fill-opacity:0.0; 
stroke:#840000; stroke-width:0; stroke-opacity:1; 
stroke-linecap:round; stroke-linejoin:round;">
</g>
<g style="fill:#840000; fill-opacity:0.0; 
stroke:#840000; stroke-width:100; stroke-opacity:1; 
stroke-linecap:round; stroke-linejoin:round;">
<rect x="60600" y="41250" width="800" height="2000" rx="0" />
</g>
<g style="fill:#840000; fill-opacity:0.0; 
stroke:#840000; stroke-width:60; stroke-opacity:1; 
stroke-linecap:round; stroke-linejoin:round;">
<path d="M61000 41250
L61000 40750
" />
<path d="M61000 43250
L61000 43750
" />
</g>
<g style="fill:#008484; fill-opacity:0.0; 
stroke:#008484; stroke-width:60; stroke-opacity:1; 
stroke-linecap:round; stroke-linejoin:round;">
<text x="62220" y="42060"
textLength="1040" font-size="660" lengthAdjust="spacingAndGlyphs"
text-anchor="middle" opacity="0">R9</text>
<path d="M62130 42030
L61970 41790
" />
<path d="M61850 42030
L61850 41530
L62040 41530
L62080 41560
L62110 41580
L62130 41630
L62130 41700
L62110 41750
L62080 41770
L62040 41790
L61850 41790
" />
<path d="M62370 42030
L62470 42030
L62510 42010
L62540 41980
L62580 41910
L62610 41820
L62610 41630
L62580 41580
L62560 41560
L62510 41530
L62420 41530
L62370 41560
L62350 41580
L62320 41630
L62320 41750
L62350 41790
L62370 41820
L62420 41840
L62510 41840
L62560 41820
L62580 41790
L62610 41750
" />
<text x="62220" y="42970"
textLength="1040" font-size="660" lengthAdjust="spacingAndGlyphs"
text-anchor="middle" opacity="0">1K</text>
<path d="M62110 42940
L61820 42940
" />
<path d="M61970 42940
L61970 42440
L61920 42510
L61870 42560
L61820 42580
" />
<path d="M62320 42940
L62320 42440
" />
<path d="M62610 42940
L62390 42660
" />
<path d="M62610 42440
L62320 42730
" />
</g>
</g>
<g style="fill:#008484; fill-opacity:0.0; 
stroke:#008484; stroke-width:0; stroke-opacity:1; 
stroke-linecap:round; stroke-linejoin:round;">
<g >
</g>
<g style="fill:#840000; fill-opacity:0.0; 
stroke:#840000; stroke-width:0; stroke-opacity:1; 
stroke-linecap:round; stroke-linejoin:round;">
</g>
<g style="fill:#840000; fill-opacity:0.0; 
stroke:#840000; stroke-width:60; stroke-opacity:1; 
stroke-linecap:round; stroke-linejoin:round;">
<path style="fill:#840000; fill-opacity:0.0; 
stroke:#840000; stroke-width:60; stroke-opacity:1; 
stroke-linecap:round; stroke-linejoin:round;fill:none"
d="M 60700,39250
61000,38750
" /> 
<path style="fill:#840000; fill-opacity:0.0; 
stroke:#840000; stroke-width:60; stroke-opacity:1; 
stroke-linecap:round; stroke-linejoin:round;fill:none"
d="M 61000,39750
61000,38750
" /> 
<path style="fill:#840000; fill-opacity:0.0; 
stroke:#840000; stroke-width:60; stroke-opacity:1; 
stroke-linecap:round; stroke-linejoin:round;fill:none"
d="M 61000,38750
61300,39250
" /> 
</g>
<g style="fill:#008484; fill-opacity:0.0; 
stroke:#008484; stroke-width:60; stroke-opacity:1; 
stroke-linecap:round; stroke-linejoin:round;">
<text x="61150" y="38290"
textLength="2300" font-size="660" lengthAdjust="spacingAndGlyphs"
text-anchor="middle" opacity="0">+3.3V</text>
<path d="M60150 38070
L60530 38070
" />
<path d="M60340 38260
L60340 37880
" />
<path d="M60720 37760
L61030 37760
L60860 37950
L60930 37950
L60980 37980
L61000 38000
L61030 38050
L61030 38170
L61000 38210
L60980 38240
L60930 38260
L60790 38260
L60740 38240
L60720 38210
" />
<path d="M61240 38210
L61260 38240
L61240 38260
L61220 38240
L61240 38210
L61240 38260
" />
<path d="M61430 37760
L61740 37760
L61570 37950
L61650 37950
L61690 37980
L61720 38000
L61740 38050
L61740 38170
L61720 38210
L61690 38240
L61650 38260
L61500 38260
L61450 38240
L61430 38210
" />
<path d="M61880 37760
L62050 38260
L62220 37760
" />
</g>
</g>
<g style="fill:#008484; fill-opacity:0.0; 
stroke:#008484; stroke-width:0; stroke-opacity:1; 
stroke-linecap:round; stroke-linejoin:round;">
<g >
</g>
<g style="fill:#840000; fill-opacity:0.0; 
stroke:#840000; stroke-width:0; stroke-opacity:1; 
stroke-linecap:round; stroke-linejoin:round;">
</g>
<g style="fill:#840000; fill-opacity:0.0; 
stroke:#840000; stroke-width:60; stroke-opacity:1; 
stroke-linecap:round; stroke-linejoin:round;">
<path style="fill:#840000; fill-opacity:0.0; 
stroke:#840000; stroke-width:60; stroke-opacity:1; 
stroke-linecap:round; stroke-linejoin:round;fill:none"
d="M 37250,46250
37250,46750
37750,46750
37250,47250
36750,46750
37250,46750
" /> 
</g>
<g style="fill:#008484; fill-opacity:0.0; 
stroke:#008484; stroke-width:60; stroke-opacity:1; 
stroke-linecap:round; stroke-linejoin:round;">
<text x="37300" y="48250"
textLength="2060" font-size="660" lengthAdjust="spacingAndGlyphs"
text-anchor="middle" opacity="0">GNDS</text>
<path d="M36680 47750
L36630 47720
L36560 47720
L36490 47750
L36440 47790
L36410 47840
L36390 47940
L36390 48010
L36410 48100
L36440 48150
L36490 48200
L36560 48220
L36600 48220
L36680 48200
L36700 48170
L36700 48010
L36600 48010
" />
<path d="M36910 48220
L36910 47720
L37200 48220
L37200 47720
" />
<path d="M37440 48220
L37440 47720
L37560 47720
L37630 47750
L37680 47790
L37700 47840
L37720 47940
L37720 48010
L37700 48100
L37680 48150
L37630 48200
L37560 48220
L37440 48220
" />
<path d="M37910 48200
L37990 48220
L38100 48220
L38150 48200
L38180 48170
L38200 48130
L38200 48080
L38180 48030
L38150 48010
L38100 47980
L38010 47960
L37960 47940
L37940 47910
L37910 47860
L37910 47820
L37940 47770
L37960 47750
L38010 47720
L38130 47720
L38200 47750
" />
</g>
</g>
<g style="fill:#008484; fill-opacity:0.0; 
stroke:#008484; stroke-width:0; stroke-opacity:1; 
stroke-linecap:round; stroke-linejoin:round;">
<g >
</g>
<g style="fill:#840000; fill-opacity:0.0; 
stroke:#840000; stroke-width:0; stroke-opacity:1; 
stroke-linecap:round; stroke-linejoin:round;">
</g>
<g style="fill:#840000; fill-opacity:0.0; 
stroke:#840000; stroke-width:60; stroke-opacity:1; 
stroke-linecap:round; stroke-linejoin:round;">
<circle cx="51450" cy="45250" r="200" /> 
<circle cx="53050" cy="45250" r="200" /> 
<path style="fill:#840000; fill-opacity:0.0; 
stroke:#840000; stroke-width:60; stroke-opacity:1; 
stroke-linecap:round; stroke-linejoin:round;fill:none"
d="M 51650,45150
52850,44550
" /> 
<path d="M51250 45250
L50250 45250
" />
<text x="50750" y="45850"
textLength="540" font-size="660" lengthAdjust="spacingAndGlyphs"
text-anchor="middle" opacity="0">1</text>
<path d="M50890 45820
L50600 45820
" />
<path d="M50750 45820
L50750 45320
L50700 45390
L50650 45440
L50600 45460
" />
<path d="M53250 45250
L54250 45250
" />
<text x="53750" y="45850"
textLength="540" font-size="660" lengthAdjust="spacingAndGlyphs"
text-anchor="middle" opacity="0">2</text>
<path d="M53600 45370
L53630 45350
L53670 45320
L53790 45320
L53840 45350
L53860 45370
L53890 45420
L53890 45460
L53860 45540
L53580 45820
L53890 45820
" />
</g>
<g style="fill:#008484; fill-opacity:0.0; 
stroke:#008484; stroke-width:60; stroke-opacity:1; 
stroke-linecap:round; stroke-linejoin:round;">
<text x="52250" y="43170"
textLength="1580" font-size="660" lengthAdjust="spacingAndGlyphs"
text-anchor="middle" opacity="0">SW1</text>
<path d="M51580 43120
L51650 43140
L51770 43140
L51820 43120
L51840 43090
L51860 43050
L51860 43000
L51840 42950
L51820 42930
L51770 42900
L51670 42880
L51630 42860
L51600 42830
L51580 42780
L51580 42740
L51600 42690
L51630 42670
L51670 42640
L51790 42640
L51860 42670
" />
<path d="M52030 42640
L52150 43140
L52250 42780
L52340 43140
L52460 42640
" />
<path d="M52910 43140
L52630 43140
" />
<path d="M52770 43140
L52770 42640
L52720 42710
L52670 42760
L52630 42780
" />
<text x="52250" y="44080"
textLength="7390" font-size="660" lengthAdjust="spacingAndGlyphs"
text-anchor="middle" opacity="0">P26L-1D-RND MTL</text>
<path d="M48700 44050
L48700 43550
L48890 43550
L48940 43580
L48960 43600
L48980 43650
L48980 43720
L48960 43770
L48940 43790
L48890 43810
L48700 43810
" />
<path d="M49170 43600
L49200 43580
L49250 43550
L49360 43550
L49410 43580
L49440 43600
L49460 43650
L49460 43690
L49440 43770
L49150 44050
L49460 44050
" />
<path d="M49890 43550
L49790 43550
L49750 43580
L49720 43600
L49670 43670
L49650 43770
L49650 43960
L49670 44000
L49700 44030
L49750 44050
L49840 44050
L49890 44030
L49910 44000
L49940 43960
L49940 43840
L49910 43790
L49890 43770
L49840 43740
L49750 43740
L49700 43770
L49670 43790
L49650 43840
" />
<path d="M50390 44050
L50150 44050
L50150 43550
" />
<path d="M50550 43860
L50940 43860
" />
<path d="M51440 44050
L51150 44050
" />
<path d="M51290 44050
L51290 43550
L51250 43620
L51200 43670
L51150 43690
" />
<path d="M51650 44050
L51650 43550
L51770 43550
L51840 43580
L51890 43620
L51910 43670
L51940 43770
L51940 43840
L51910 43930
L51890 43980
L51840 44030
L51770 44050
L51650 44050
" />
<path d="M52150 43860
L52530 43860
" />
<path d="M53050 44050
L52890 43810
" />
<path d="M52770 44050
L52770 43550
L52960 43550
L53010 43580
L53030 43600
L53050 43650
L53050 43720
L53030 43770
L53010 43790
L52960 43810
L52770 43810
" />
<path d="M53270 44050
L53270 43550
L53550 44050
L53550 43550
" />
<path d="M53790 44050
L53790 43550
L53910 43550
L53980 43580
L54030 43620
L54050 43670
L54080 43770
L54080 43840
L54050 43930
L54030 43980
L53980 44030
L53910 44050
L53790 44050
" />
<path d="M54670 44050
L54670 43550
L54840 43910
L55010 43550
L55010 44050
" />
<path d="M55170 43550
L55460 43550
" />
<path d="M55320 44050
L55320 43550
" />
<path d="M55860 44050
L55630 44050
L55630 43550
" />
</g>
</g>
<g style="fill:#008484; fill-opacity:0.0; 
stroke:#008484; stroke-width:0; stroke-opacity:1; 
stroke-linecap:round; stroke-linejoin:round;">
<g >
</g>
<g style="fill:#840000; fill-opacity:0.0; 
stroke:#840000; stroke-width:0; stroke-opacity:1; 
stroke-linecap:round; stroke-linejoin:round;">
</g>
<g style="fill:#840000; fill-opacity:0.0; 
stroke:#840000; stroke-width:100; stroke-opacity:1; 
stroke-linecap:round; stroke-linejoin:round;">
<rect x="61500" y="16600" width="2000" height="800" rx="0" />
</g>
<g style="fill:#840000; fill-opacity:0.0; 
stroke:#840000; stroke-width:60; stroke-opacity:1; 
stroke-linecap:round; stroke-linejoin:round;">
<path d="M63500 17000
L64000 17000
" />
<path d="M61500 17000
L61000 17000
" />
</g>
<g style="fill:#008484; fill-opacity:0.0; 
stroke:#008484; stroke-width:60; stroke-opacity:1; 
stroke-linecap:round; stroke-linejoin:round;">
<text x="62500" y="15200"
textLength="1040" font-size="660" lengthAdjust="spacingAndGlyphs"
text-anchor="middle" opacity="0">R8</text>
<path d="M62410 15170
L62250 14930
" />
<path d="M62130 15170
L62130 14670
L62320 14670
L62360 14700
L62390 14720
L62410 14770
L62410 14840
L62390 14890
L62360 14910
L62320 14930
L62130 14930
" />
<path d="M62700 14890
L62650 14860
L62630 14840
L62600 14790
L62600 14770
L62630 14720
L62650 14700
L62700 14670
L62790 14670
L62840 14700
L62860 14720
L62890 14770
L62890 14790
L62860 14840
L62840 14860
L62790 14890
L62700 14890
L62650 14910
L62630 14930
L62600 14980
L62600 15080
L62630 15120
L62650 15150
L62700 15170
L62790 15170
L62840 15150
L62860 15120
L62890 15080
L62890 14980
L62860 14930
L62840 14910
L62790 14890
" />
<text x="62500" y="16110"
textLength="1510" font-size="660" lengthAdjust="spacingAndGlyphs"
text-anchor="middle" opacity="0">50R</text>
<path d="M62130 15580
L61890 15580
L61860 15820
L61890 15800
L61940 15770
L62050 15770
L62100 15800
L62130 15820
L62150 15870
L62150 15990
L62130 16030
L62100 16060
L62050 16080
L61940 16080
L61890 16060
L61860 16030
" />
<path d="M62460 15580
L62510 15580
L62550 15610
L62580 15630
L62600 15680
L62630 15770
L62630 15890
L62600 15990
L62580 16030
L62550 16060
L62510 16080
L62460 16080
L62410 16060
L62390 16030
L62360 15990
L62340 15890
L62340 15770
L62360 15680
L62390 15630
L62410 15610
L62460 15580
" />
<path d="M63130 16080
L62960 15840
" />
<path d="M62840 16080
L62840 15580
L63030 15580
L63080 15610
L63100 15630
L63130 15680
L63130 15750
L63100 15800
L63080 15820
L63030 15840
L62840 15840
" />
</g>
</g>
<g style="fill:#008484; fill-opacity:0.0; 
stroke:#008484; stroke-width:0; stroke-opacity:1; 
stroke-linecap:round; stroke-linejoin:round;">
<g >
</g>
<g style="fill:#840000; fill-opacity:0.0; 
stroke:#840000; stroke-width:0; stroke-opacity:1; 
stroke-linecap:round; stroke-linejoin:round;">
</g>
<g style="fill:#840000; fill-opacity:0.0; 
stroke:#840000; stroke-width:60; stroke-opacity:1; 
stroke-linecap:round; stroke-linejoin:round;">
<path style="fill:#840000; fill-opacity:0.0; 
stroke:#840000; stroke-width:60; stroke-opacity:1; 
stroke-linecap:round; stroke-linejoin:round;fill:none"
d="M 50950,11000
51250,10500
" /> 
<path style="fill:#840000; fill-opacity:0.0; 
stroke:#840000; stroke-width:60; stroke-opacity:1; 
stroke-linecap:round; stroke-linejoin:round;fill:none"
d="M 51250,11500
51250,10500
" /> 
<path style="fill:#840000; fill-opacity:0.0; 
stroke:#840000; stroke-width:60; stroke-opacity:1; 
stroke-linecap:round; stroke-linejoin:round;fill:none"
d="M 51250,10500
51550,11000
" /> 
</g>
<g style="fill:#008484; fill-opacity:0.0; 
stroke:#008484; stroke-width:60; stroke-opacity:1; 
stroke-linecap:round; stroke-linejoin:round;">
<text x="51400" y="10040"
textLength="2300" font-size="660" lengthAdjust="spacingAndGlyphs"
text-anchor="middle" opacity="0">+3.3V</text>
<path d="M50400 9820
L50780 9820
" />
<path d="M50590 10010
L50590 9630
" />
<path d="M50970 9510
L51280 9510
L51110 9700
L51180 9700
L51230 9730
L51250 9750
L51280 9800
L51280 9920
L51250 9960
L51230 9990
L51180 10010
L51040 10010
L50990 9990
L50970 9960
" />
<path d="M51490 9960
L51510 9990
L51490 10010
L51470 9990
L51490 9960
L51490 10010
" />
<path d="M51680 9510
L51990 9510
L51820 9700
L51900 9700
L51940 9730
L51970 9750
L51990 9800
L51990 9920
L51970 9960
L51940 9990
L51900 10010
L51750 10010
L51700 9990
L51680 9960
" />
<path d="M52130 9510
L52300 10010
L52470 9510
" />
</g>
</g>
<g style="fill:#008484; fill-opacity:0.0; 
stroke:#008484; stroke-width:0; stroke-opacity:1; 
stroke-linecap:round; stroke-linejoin:round;">
<g >
</g>
<g style="fill:#840000; fill-opacity:0.0; 
stroke:#840000; stroke-width:0; stroke-opacity:1; 
stroke-linecap:round; stroke-linejoin:round;">
</g>
<g style="fill:#840000; fill-opacity:0.0; 
stroke:#840000; stroke-width:60; stroke-opacity:1; 
stroke-linecap:round; stroke-linejoin:round;">
<path style="fill:#840000; fill-opacity:0.0; 
stroke:#840000; stroke-width:60; stroke-opacity:1; 
stroke-linecap:round; stroke-linejoin:round;fill:none"
d="M 51250,22000
51250,22500
51750,22500
51250,23000
50750,22500
51250,22500
" /> 
</g>
<g style="fill:#008484; fill-opacity:0.0; 
stroke:#008484; stroke-width:60; stroke-opacity:1; 
stroke-linecap:round; stroke-linejoin:round;">
<text x="51300" y="24000"
textLength="2060" font-size="660" lengthAdjust="spacingAndGlyphs"
text-anchor="middle" opacity="0">GNDS</text>
<path d="M50680 23500
L50630 23470
L50560 23470
L50490 23500
L50440 23540
L50410 23590
L50390 23690
L50390 23760
L50410 23850
L50440 23900
L50490 23950
L50560 23970
L50600 23970
L50680 23950
L50700 23920
L50700 23760
L50600 23760
" />
<path d="M50910 23970
L50910 23470
L51200 23970
L51200 23470
" />
<path d="M51440 23970
L51440 23470
L51560 23470
L51630 23500
L51680 23540
L51700 23590
L51720 23690
L51720 23760
L51700 23850
L51680 23900
L51630 23950
L51560 23970
L51440 23970
" />
<path d="M51910 23950
L51990 23970
L52100 23970
L52150 23950
L52180 23920
L52200 23880
L52200 23830
L52180 23780
L52150 23760
L52100 23730
L52010 23710
L51960 23690
L51940 23660
L51910 23610
L51910 23570
L51940 23520
L51960 23500
L52010 23470
L52130 23470
L52200 23500
" />
</g>
</g>
<g style="fill:#008484; fill-opacity:0.0; 
stroke:#008484; stroke-width:0; stroke-opacity:1; 
stroke-linecap:round; stroke-linejoin:round;">
<g >
</g>
<g style="fill:#840000; fill-opacity:0.0; 
stroke:#840000; stroke-width:0; stroke-opacity:1; 
stroke-linecap:round; stroke-linejoin:round;">
</g>
<g style="fill:#840000; fill-opacity:0.0; 
stroke:#840000; stroke-width:200; stroke-opacity:1; 
stroke-linecap:round; stroke-linejoin:round;">
<path style="fill:#840000; fill-opacity:0.0; 
stroke:#840000; stroke-width:200; stroke-opacity:1; 
stroke-linecap:round; stroke-linejoin:round;fill:none"
d="M 66800,19700
65200,19700
" /> 
<path style="fill:#840000; fill-opacity:0.0; 
stroke:#840000; stroke-width:200; stroke-opacity:1; 
stroke-linecap:round; stroke-linejoin:round;fill:none"
d="M 66800,20300
65200,20300
" /> 
</g>
<g style="fill:#840000; fill-opacity:0.0; 
stroke:#840000; stroke-width:60; stroke-opacity:1; 
stroke-linecap:round; stroke-linejoin:round;">
<path d="M66000 20400
L66000 21500
" />
<path d="M66000 19600
L66000 18500
" />
</g>
<g style="fill:#008484; fill-opacity:0.0; 
stroke:#008484; stroke-width:60; stroke-opacity:1; 
stroke-linecap:round; stroke-linejoin:round;">
<text x="67900" y="19760"
textLength="1510" font-size="660" lengthAdjust="spacingAndGlyphs"
text-anchor="middle" opacity="0">C30</text>
<path d="M67570 19680
L67550 19710
L67480 19730
L67430 19730
L67360 19710
L67310 19660
L67290 19610
L67260 19520
L67260 19450
L67290 19350
L67310 19300
L67360 19260
L67430 19230
L67480 19230
L67550 19260
L67570 19280
" />
<path d="M67740 19230
L68050 19230
L67880 19420
L67950 19420
L68000 19450
L68030 19470
L68050 19520
L68050 19640
L68030 19680
L68000 19710
L67950 19730
L67810 19730
L67760 19710
L67740 19680
" />
<path d="M68360 19230
L68410 19230
L68450 19260
L68480 19280
L68500 19330
L68530 19420
L68530 19540
L68500 19640
L68480 19680
L68450 19710
L68410 19730
L68360 19730
L68310 19710
L68290 19680
L68260 19640
L68240 19540
L68240 19420
L68260 19330
L68290 19280
L68310 19260
L68360 19230
" />
<text x="69260" y="20670"
textLength="4230" font-size="660" lengthAdjust="spacingAndGlyphs"
text-anchor="middle" opacity="0">180pF C0G</text>
<path d="M67550 20640
L67270 20640
" />
<path d="M67410 20640
L67410 20140
L67360 20210
L67310 20260
L67270 20280
" />
<path d="M67840 20360
L67790 20330
L67770 20310
L67740 20260
L67740 20240
L67770 20190
L67790 20170
L67840 20140
L67930 20140
L67980 20170
L68010 20190
L68030 20240
L68030 20260
L68010 20310
L67980 20330
L67930 20360
L67840 20360
L67790 20380
L67770 20400
L67740 20450
L67740 20550
L67770 20590
L67790 20620
L67840 20640
L67930 20640
L67980 20620
L68010 20590
L68030 20550
L68030 20450
L68010 20400
L67980 20380
L67930 20360
" />
<path d="M68340 20140
L68390 20140
L68430 20170
L68460 20190
L68480 20240
L68510 20330
L68510 20450
L68480 20550
L68460 20590
L68430 20620
L68390 20640
L68340 20640
L68290 20620
L68270 20590
L68240 20550
L68220 20450
L68220 20330
L68240 20240
L68270 20190
L68290 20170
L68340 20140
" />
<path d="M68720 20310
L68720 20810
" />
<path d="M68720 20330
L68770 20310
L68860 20310
L68910 20330
L68930 20360
L68960 20400
L68960 20550
L68930 20590
L68910 20620
L68860 20640
L68770 20640
L68720 20620
" />
<path d="M69340 20380
L69170 20380
" />
<path d="M69170 20640
L69170 20140
L69410 20140
" />
<path d="M70270 20590
L70240 20620
L70170 20640
L70120 20640
L70050 20620
L70010 20570
L69980 20520
L69960 20430
L69960 20360
L69980 20260
L70010 20210
L70050 20170
L70120 20140
L70170 20140
L70240 20170
L70270 20190
" />
<path d="M70580 20140
L70620 20140
L70670 20170
L70700 20190
L70720 20240
L70740 20330
L70740 20450
L70720 20550
L70700 20590
L70670 20620
L70620 20640
L70580 20640
L70530 20620
L70510 20590
L70480 20550
L70460 20450
L70460 20330
L70480 20240
L70510 20190
L70530 20170
L70580 20140
" />
<path d="M71220 20170
L71170 20140
L71100 20140
L71030 20170
L70980 20210
L70960 20260
L70930 20360
L70930 20430
L70960 20520
L70980 20570
L71030 20620
L71100 20640
L71150 20640
L71220 20620
L71240 20590
L71240 20430
L71150 20430
" />
</g>
</g>
<g style="fill:#008484; fill-opacity:0.0; 
stroke:#008484; stroke-width:0; stroke-opacity:1; 
stroke-linecap:round; stroke-linejoin:round;">
<g >
</g>
<g style="fill:#840000; fill-opacity:0.0; 
stroke:#840000; stroke-width:0; stroke-opacity:1; 
stroke-linecap:round; stroke-linejoin:round;">
</g>
<g style="fill:#FFFFC2; fill-opacity:0.0; 
stroke:#FFFFC2; stroke-width:0; stroke-opacity:1; 
stroke-linecap:round; stroke-linejoin:round;">
</g>
<g style="fill:#FFFFC2; fill-opacity:0.6; 
stroke:#FFFFC2; stroke-width:0; stroke-opacity:1; 
stroke-linecap:round; stroke-linejoin:round;">
<path style="fill:#FFFFC2; fill-opacity:0.6; 
stroke:#FFFFC2; stroke-width:0; stroke-opacity:1; 
stroke-linecap:round; stroke-linejoin:round;fill-rule:evenodd;"
d="M 50250,15000
54250,17000
50250,19000
Z" /> 
</g>
<g style="fill:#840000; fill-opacity:0.6; 
stroke:#840000; stroke-width:0; stroke-opacity:1; 
stroke-linecap:round; stroke-linejoin:round;">
</g>
<g style="fill:#840000; fill-opacity:0.0; 
stroke:#840000; stroke-width:100; stroke-opacity:1; 
stroke-linecap:round; stroke-linejoin:round;">
<path style="fill:#840000; fill-opacity:0.0; 
stroke:#840000; stroke-width:100; stroke-opacity:1; 
stroke-linecap:round; stroke-linejoin:round;fill:none"
d="M 50250,15000
54250,17000
50250,19000
Z" /> 
<path style="fill:#840000; fill-opacity:0.0; 
stroke:#840000; stroke-width:100; stroke-opacity:1; 
stroke-linecap:round; stroke-linejoin:round;fill:none"
d="M 50250,15000
54250,17000
50250,19000
Z" /> 
</g>
<g style="fill:#840000; fill-opacity:0.0; 
stroke:#840000; stroke-width:60; stroke-opacity:1; 
stroke-linecap:round; stroke-linejoin:round;">
<path d="M51250 18500
L51250 20000
" />
</g>
<g style="fill:#008484; fill-opacity:0.0; 
stroke:#008484; stroke-width:60; stroke-opacity:1; 
stroke-linecap:round; stroke-linejoin:round;">
<g transform="rotate(-90 51250 18450)">
<text x="51250" y="18700"
textLength="1110" font-size="660" lengthAdjust="spacingAndGlyphs"
text-anchor="start" opacity="0">V-</text>
</g>
<path d="M50970 18370
L51470 18200
L50970 18030
" />
<path d="M51280 17870
L51280 17490
" />
</g>
<g style="fill:#840000; fill-opacity:0.0; 
stroke:#840000; stroke-width:60; stroke-opacity:1; 
stroke-linecap:round; stroke-linejoin:round;">
<g transform="rotate(-90 51150 19250)">
<text x="51150" y="19250"
textLength="540" font-size="660" lengthAdjust="spacingAndGlyphs"
text-anchor="middle" opacity="0">2</text>
</g>
<path d="M50670 19390
L50650 19360
L50620 19320
L50620 19200
L50650 19150
L50670 19130
L50720 19100
L50760 19100
L50840 19130
L51120 19410
L51120 19100
" />
<path d="M51250 15500
L51250 14000
" />
</g>
<g style="fill:#008484; fill-opacity:0.0; 
stroke:#008484; stroke-width:60; stroke-opacity:1; 
stroke-linecap:round; stroke-linejoin:round;">
<g transform="rotate(-90 51250 15550)">
<text x="51250" y="15800"
textLength="1110" font-size="660" lengthAdjust="spacingAndGlyphs"
text-anchor="end" opacity="0">V+</text>
</g>
<path d="M50970 16580
L51470 16410
L50970 16240
" />
<path d="M51280 16080
L51280 15690
" />
<path d="M51470 15880
L51090 15880
" />
</g>
<g style="fill:#840000; fill-opacity:0.0; 
stroke:#840000; stroke-width:60; stroke-opacity:1; 
stroke-linecap:round; stroke-linejoin:round;">
<g transform="rotate(-90 51150 14750)">
<text x="51150" y="14750"
textLength="540" font-size="660" lengthAdjust="spacingAndGlyphs"
text-anchor="middle" opacity="0">5</text>
</g>
<path d="M50620 14630
L50620 14860
L50860 14890
L50840 14860
L50810 14820
L50810 14700
L50840 14650
L50860 14630
L50910 14600
L51030 14600
L51070 14630
L51100 14650
L51120 14700
L51120 14820
L51100 14860
L51070 14890
" />
<path d="M54250 17000
L55250 17000
" />
<text x="54750" y="16900"
textLength="540" font-size="660" lengthAdjust="spacingAndGlyphs"
text-anchor="middle" opacity="0">1</text>
<path d="M54890 16870
L54600 16870
" />
<path d="M54750 16870
L54750 16370
L54700 16440
L54650 16490
L54600 16510
" />
<path d="M50250 16000
L49250 16000
" />
</g>
<g style="fill:#008484; fill-opacity:0.0; 
stroke:#008484; stroke-width:60; stroke-opacity:1; 
stroke-linecap:round; stroke-linejoin:round;">
<text x="50300" y="16250"
textLength="680" font-size="660" lengthAdjust="spacingAndGlyphs"
text-anchor="start" opacity="0">+</text>
<path d="M50440 16030
L50830 16030
" />
<path d="M50630 16220
L50630 15840
" />
</g>
<g style="fill:#840000; fill-opacity:0.0; 
stroke:#840000; stroke-width:60; stroke-opacity:1; 
stroke-linecap:round; stroke-linejoin:round;">
<text x="49750" y="15900"
textLength="540" font-size="660" lengthAdjust="spacingAndGlyphs"
text-anchor="middle" opacity="0">3</text>
<path d="M49580 15370
L49890 15370
L49720 15560
L49790 15560
L49840 15590
L49860 15610
L49890 15660
L49890 15780
L49860 15820
L49840 15850
L49790 15870
L49650 15870
L49600 15850
L49580 15820
" />
<path d="M50250 18000
L49250 18000
" />
</g>
<g style="fill:#008484; fill-opacity:0.0; 
stroke:#008484; stroke-width:60; stroke-opacity:1; 
stroke-linecap:round; stroke-linejoin:round;">
<text x="50300" y="18250"
textLength="680" font-size="660" lengthAdjust="spacingAndGlyphs"
text-anchor="start" opacity="0">-</text>
<path d="M50440 18030
L50830 18030
" />
</g>
<g style="fill:#840000; fill-opacity:0.0; 
stroke:#840000; stroke-width:60; stroke-opacity:1; 
stroke-linecap:round; stroke-linejoin:round;">
<text x="49750" y="17900"
textLength="540" font-size="660" lengthAdjust="spacingAndGlyphs"
text-anchor="middle" opacity="0">4</text>
<path d="M49840 17540
L49840 17870
" />
<path d="M49720 17350
L49600 17700
L49910 17700
" />
</g>
<g style="fill:#008484; fill-opacity:0.0; 
stroke:#008484; stroke-width:60; stroke-opacity:1; 
stroke-linecap:round; stroke-linejoin:round;">
<text x="54780" y="12520"
textLength="1060" font-size="660" lengthAdjust="spacingAndGlyphs"
text-anchor="middle" opacity="0">U6</text>
<path d="M54390 11990
L54390 12400
L54420 12440
L54440 12470
L54490 12490
L54580 12490
L54630 12470
L54660 12440
L54680 12400
L54680 11990
" />
<path d="M55130 11990
L55040 11990
L54990 12020
L54970 12040
L54920 12110
L54890 12210
L54890 12400
L54920 12440
L54940 12470
L54990 12490
L55080 12490
L55130 12470
L55160 12440
L55180 12400
L55180 12280
L55160 12230
L55130 12210
L55080 12180
L54990 12180
L54940 12210
L54920 12230
L54890 12280
" />
<text x="56490" y="13520"
textLength="4990" font-size="660" lengthAdjust="spacingAndGlyphs"
text-anchor="middle" opacity="0">MCP601-xOT</text>
<path d="M54140 13490
L54140 12990
L54310 13350
L54470 12990
L54470 13490
" />
<path d="M55000 13440
L54970 13470
L54900 13490
L54850 13490
L54780 13470
L54740 13420
L54710 13370
L54690 13280
L54690 13210
L54710 13110
L54740 13060
L54780 13020
L54850 12990
L54900 12990
L54970 13020
L55000 13040
" />
<path d="M55210 13490
L55210 12990
L55400 12990
L55450 13020
L55470 13040
L55500 13090
L55500 13160
L55470 13210
L55450 13230
L55400 13250
L55210 13250
" />
<path d="M55930 12990
L55830 12990
L55780 13020
L55760 13040
L55710 13110
L55690 13210
L55690 13400
L55710 13440
L55740 13470
L55780 13490
L55880 13490
L55930 13470
L55950 13440
L55970 13400
L55970 13280
L55950 13230
L55930 13210
L55880 13180
L55780 13180
L55740 13210
L55710 13230
L55690 13280
" />
<path d="M56280 12990
L56330 12990
L56380 13020
L56400 13040
L56430 13090
L56450 13180
L56450 13300
L56430 13400
L56400 13440
L56380 13470
L56330 13490
L56280 13490
L56240 13470
L56210 13440
L56190 13400
L56160 13300
L56160 13180
L56190 13090
L56210 13040
L56240 13020
L56280 12990
" />
<path d="M56930 13490
L56640 13490
" />
<path d="M56780 13490
L56780 12990
L56740 13060
L56690 13110
L56640 13130
" />
<path d="M57140 13300
L57520 13300
" />
<path d="M57710 13490
L57970 13160
" />
<path d="M57710 13160
L57970 13490
" />
<path d="M58260 12990
L58350 12990
L58400 13020
L58450 13060
L58470 13160
L58470 13320
L58450 13420
L58400 13470
L58350 13490
L58260 13490
L58210 13470
L58160 13420
L58140 13320
L58140 13160
L58160 13060
L58210 13020
L58260 12990
" />
<path d="M58620 12990
L58900 12990
" />
<path d="M58760 13490
L58760 12990
" />
</g>
</g>
<g style="fill:#008484; fill-opacity:0.0; 
stroke:#008484; stroke-width:60; stroke-opacity:1; 
stroke-linecap:round; stroke-linejoin:round;">
</g>
<g style="fill:#008400; fill-opacity:0.0; 
stroke:#008400; stroke-width:60; stroke-opacity:1; 
stroke-linecap:round; stroke-linejoin:round;">
<path d="M51250 20000
L51250 22000
" />
<path d="M66000 17000
L84750 17000
" />
<path d="M66000 21500
L66000 28750
" />
<path d="M66000 18500
L66000 17000
" />
<path d="M34250 28750
L66000 28750
" />
<path d="M64000 17000
L66000 17000
" />
<path d="M55250 17000
L58750 17000
" />
<path d="M49250 16000
L31500 16000
" />
<path d="M49250 18000
L45250 18000
" />
<path d="M45250 18000
L45250 25750
" />
<path d="M45250 25750
L58750 25750
" />
<path d="M58750 25750
L58750 17000
" />
<path d="M61000 52500
L61000 51500
" />
<path d="M58750 17000
L61000 17000
" />
<path d="M61000 57000
L68500 57000
" />
<path d="M34250 28750
L34250 30000
" />
<path d="M51250 14000
L51250 11500
" />
<path d="M31500 19000
L34250 19000
" />
<path d="M34250 19000
L34250 28750
" />
<path d="M61000 57000
L61000 55500
" />
<path d="M50250 45250
L37250 45250
" />
<path d="M37250 45250
L37250 46250
" />
<path d="M34250 17000
L34250 18000
" />
<path d="M54250 45250
L61000 45250
" />
<path d="M54250 57000
L61000 57000
" />
<path d="M61000 45250
L61000 43750
" />
<path d="M31500 17000
L34250 17000
" />
<path d="M31500 18000
L34250 18000
" />
<path d="M37250 57000
L37250 58000
" />
<path d="M61000 45250
L68500 45250
" />
<path d="M61000 40750
L61000 39750
" />
<path d="M34250 18000
L34250 19000
" />
<path d="M50250 57000
L37250 57000
" />
</g>
<g style="fill:#848400; fill-opacity:0.0; 
stroke:#848400; stroke-width:60; stroke-opacity:1; 
stroke-linecap:round; stroke-linejoin:round;">
<text x="69100" y="45500"
textLength="4510" font-size="660" lengthAdjust="spacingAndGlyphs"
text-anchor="start" opacity="0">FootSwitchA</text>
<path d="M69410 45210
L69240 45210
" />
<path d="M69240 45470
L69240 44970
L69480 44970
" />
<path d="M69740 45470
L69700 45450
L69670 45420
L69650 45380
L69650 45230
L69670 45190
L69700 45160
L69740 45140
L69820 45140
L69860 45160
L69890 45190
L69910 45230
L69910 45380
L69890 45420
L69860 45450
L69820 45470
L69740 45470
" />
<path d="M70200 45470
L70150 45450
L70130 45420
L70100 45380
L70100 45230
L70130 45190
L70150 45160
L70200 45140
L70270 45140
L70320 45160
L70340 45190
L70360 45230
L70360 45380
L70340 45420
L70320 45450
L70270 45470
L70200 45470
" />
<path d="M70510 45140
L70700 45140
" />
<path d="M70580 44970
L70580 45400
L70600 45450
L70650 45470
L70700 45470
" />
<path d="M70840 45450
L70910 45470
L71030 45470
L71080 45450
L71100 45420
L71130 45380
L71130 45330
L71100 45280
L71080 45260
L71030 45230
L70930 45210
L70890 45190
L70860 45160
L70840 45110
L70840 45070
L70860 45020
L70890 45000
L70930 44970
L71050 44970
L71130 45000
" />
<path d="M71290 45140
L71390 45470
L71480 45230
L71580 45470
L71670 45140
" />
<path d="M71860 45470
L71860 45140
" />
<path d="M71860 44970
L71840 45000
L71860 45020
L71890 45000
L71860 44970
L71860 45020
" />
<path d="M72030 45140
L72220 45140
" />
<path d="M72100 44970
L72100 45400
L72130 45450
L72170 45470
L72220 45470
" />
<path d="M72600 45450
L72550 45470
L72460 45470
L72410 45450
L72390 45420
L72360 45380
L72360 45230
L72390 45190
L72410 45160
L72460 45140
L72550 45140
L72600 45160
" />
<path d="M72820 45470
L72820 44970
" />
<path d="M73030 45470
L73030 45210
L73010 45160
L72960 45140
L72890 45140
L72840 45160
L72820 45190
" />
<path d="M73240 45330
L73480 45330
" />
<path d="M73200 45470
L73360 44970
L73530 45470
" />
</g>
<g style="fill:#848400; fill-opacity:0.0; 
stroke:#848400; stroke-width:100; stroke-opacity:1; 
stroke-linecap:round; stroke-linejoin:round;">
<path style="fill:#848400; fill-opacity:0.0; 
stroke:#848400; stroke-width:100; stroke-opacity:1; 
stroke-linecap:round; stroke-linejoin:round;fill:none"
d="M 68500,45250
68750,45500
69000,45500
69000,45000
68750,45000
Z" /> 
</g>
<g style="fill:#848400; fill-opacity:0.0; 
stroke:#848400; stroke-width:60; stroke-opacity:1; 
stroke-linecap:round; stroke-linejoin:round;">
<text x="69100" y="57250"
textLength="4580" font-size="660" lengthAdjust="spacingAndGlyphs"
text-anchor="start" opacity="0">FootSwitchB</text>
<path d="M69410 56960
L69240 56960
" />
<path d="M69240 57220
L69240 56720
L69480 56720
" />
<path d="M69740 57220
L69700 57200
L69670 57170
L69650 57130
L69650 56980
L69670 56940
L69700 56910
L69740 56890
L69820 56890
L69860 56910
L69890 56940
L69910 56980
L69910 57130
L69890 57170
L69860 57200
L69820 57220
L69740 57220
" />
<path d="M70200 57220
L70150 57200
L70130 57170
L70100 57130
L70100 56980
L70130 56940
L70150 56910
L70200 56890
L70270 56890
L70320 56910
L70340 56940
L70360 56980
L70360 57130
L70340 57170
L70320 57200
L70270 57220
L70200 57220
" />
<path d="M70510 56890
L70700 56890
" />
<path d="M70580 56720
L70580 57150
L70600 57200
L70650 57220
L70700 57220
" />
<path d="M70840 57200
L70910 57220
L71030 57220
L71080 57200
L71100 57170
L71130 57130
L71130 57080
L71100 57030
L71080 57010
L71030 56980
L70930 56960
L70890 56940
L70860 56910
L70840 56860
L70840 56820
L70860 56770
L70890 56750
L70930 56720
L71050 56720
L71130 56750
" />
<path d="M71290 56890
L71390 57220
L71480 56980
L71580 57220
L71670 56890
" />
<path d="M71860 57220
L71860 56890
" />
<path d="M71860 56720
L71840 56750
L71860 56770
L71890 56750
L71860 56720
L71860 56770
" />
<path d="M72030 56890
L72220 56890
" />
<path d="M72100 56720
L72100 57150
L72130 57200
L72170 57220
L72220 57220
" />
<path d="M72600 57200
L72550 57220
L72460 57220
L72410 57200
L72390 57170
L72360 57130
L72360 56980
L72390 56940
L72410 56910
L72460 56890
L72550 56890
L72600 56910
" />
<path d="M72820 57220
L72820 56720
" />
<path d="M73030 57220
L73030 56960
L73010 56910
L72960 56890
L72890 56890
L72840 56910
L72820 56940
" />
<path d="M73430 56960
L73510 56980
L73530 57010
L73550 57050
L73550 57130
L73530 57170
L73510 57200
L73460 57220
L73270 57220
L73270 56720
L73430 56720
L73480 56750
L73510 56770
L73530 56820
L73530 56860
L73510 56910
L73480 56940
L73430 56960
L73270 56960
" />
</g>
<g style="fill:#848400; fill-opacity:0.0; 
stroke:#848400; stroke-width:100; stroke-opacity:1; 
stroke-linecap:round; stroke-linejoin:round;">
<path style="fill:#848400; fill-opacity:0.0; 
stroke:#848400; stroke-width:100; stroke-opacity:1; 
stroke-linecap:round; stroke-linejoin:round;fill:none"
d="M 68500,57000
68750,57250
69000,57250
69000,56750
68750,56750
Z" /> 
</g>
<g style="fill:#848400; fill-opacity:0.0; 
stroke:#848400; stroke-width:60; stroke-opacity:1; 
stroke-linecap:round; stroke-linejoin:round;">
<text x="85350" y="17250"
textLength="3250" font-size="660" lengthAdjust="spacingAndGlyphs"
text-anchor="start" opacity="0">ExpInput</text>
<path d="M85490 16960
L85660 16960
" />
<path d="M85730 17220
L85490 17220
L85490 16720
L85730 16720
" />
<path d="M85900 17220
L86160 16890
" />
<path d="M85900 16890
L86160 17220
" />
<path d="M86350 16890
L86350 17390
" />
<path d="M86350 16910
L86400 16890
L86490 16890
L86540 16910
L86570 16940
L86590 16980
L86590 17130
L86570 17170
L86540 17200
L86490 17220
L86400 17220
L86350 17200
" />
<path d="M86800 17220
L86800 16720
" />
<path d="M87040 16890
L87040 17220
" />
<path d="M87040 16940
L87070 16910
L87110 16890
L87180 16890
L87230 16910
L87260 16960
L87260 17220
" />
<path d="M87490 16890
L87490 17390
" />
<path d="M87490 16910
L87540 16890
L87640 16890
L87680 16910
L87710 16940
L87730 16980
L87730 17130
L87710 17170
L87680 17200
L87640 17220
L87540 17220
L87490 17200
" />
<path d="M88160 16890
L88160 17220
" />
<path d="M87950 16890
L87950 17150
L87970 17200
L88020 17220
L88090 17220
L88140 17200
L88160 17170
" />
<path d="M88330 16890
L88520 16890
" />
<path d="M88400 16720
L88400 17150
L88420 17200
L88470 17220
L88520 17220
" />
</g>
<g style="fill:#848400; fill-opacity:0.0; 
stroke:#848400; stroke-width:100; stroke-opacity:1; 
stroke-linecap:round; stroke-linejoin:round;">
<path style="fill:#848400; fill-opacity:0.0; 
stroke:#848400; stroke-width:100; stroke-opacity:1; 
stroke-linecap:round; stroke-linejoin:round;fill:none"
d="M 84750,17000
85000,17250
85250,17250
85250,16750
85000,16750
Z" /> 
</g>
<g style="fill:#848400; fill-opacity:0.0; 
stroke:#848400; stroke-width:0; stroke-opacity:1; 
stroke-linecap:round; stroke-linejoin:round;">
</g>
<g style="fill:#008400; fill-opacity:0.0; 
stroke:#008400; stroke-width:0; stroke-opacity:1; 
stroke-linecap:round; stroke-linejoin:round;">
</g>
<g style="fill:#008400; fill-opacity:1.0; 
stroke:#008400; stroke-width:100; stroke-opacity:1; 
stroke-linecap:round; stroke-linejoin:round;">
<circle cx="61000" cy="45250" r="200" /> 
</g>
<g style="fill:#008400; fill-opacity:1.0; 
stroke:#008400; stroke-width:0; stroke-opacity:1; 
stroke-linecap:round; stroke-linejoin:round;">
</g>
<g style="fill:#008400; fill-opacity:1.0; 
stroke:#008400; stroke-width:100; stroke-opacity:1; 
stroke-linecap:round; stroke-linejoin:round;">
<circle cx="34250" cy="19000" r="200" /> 
</g>
<g style="fill:#008400; fill-opacity:1.0; 
stroke:#008400; stroke-width:0; stroke-opacity:1; 
stroke-linecap:round; stroke-linejoin:round;">
</g>
<g style="fill:#008400; fill-opacity:1.0; 
stroke:#008400; stroke-width:100; stroke-opacity:1; 
stroke-linecap:round; stroke-linejoin:round;">
<circle cx="34250" cy="18000" r="200" /> 
</g>
<g style="fill:#008400; fill-opacity:1.0; 
stroke:#008400; stroke-width:0; stroke-opacity:1; 
stroke-linecap:round; stroke-linejoin:round;">
</g>
<g style="fill:#008400; fill-opacity:1.0; 
stroke:#008400; stroke-width:100; stroke-opacity:1; 
stroke-linecap:round; stroke-linejoin:round;">
<circle cx="34250" cy="28750" r="200" /> 
</g>
<g style="fill:#008400; fill-opacity:1.0; 
stroke:#008400; stroke-width:0; stroke-opacity:1; 
stroke-linecap:round; stroke-linejoin:round;">
</g>
<g style="fill:#008400; fill-opacity:1.0; 
stroke:#008400; stroke-width:100; stroke-opacity:1; 
stroke-linecap:round; stroke-linejoin:round;">
<circle cx="61000" cy="57000" r="200" /> 
</g>
<g style="fill:#008400; fill-opacity:1.0; 
stroke:#008400; stroke-width:0; stroke-opacity:1; 
stroke-linecap:round; stroke-linejoin:round;">
</g>
<g style="fill:#008400; fill-opacity:1.0; 
stroke:#008400; stroke-width:100; stroke-opacity:1; 
stroke-linecap:round; stroke-linejoin:round;">
<circle cx="66000" cy="17000" r="200" /> 
</g>
<g style="fill:#008400; fill-opacity:1.0; 
stroke:#008400; stroke-width:0; stroke-opacity:1; 
stroke-linecap:round; stroke-linejoin:round;">
</g>
<g style="fill:#008400; fill-opacity:1.0; 
stroke:#008400; stroke-width:100; stroke-opacity:1; 
stroke-linecap:round; stroke-linejoin:round;">
<circle cx="58750" cy="17000" r="200" /> 
</g> 
</svg>
