<?xml version="1.0" standalone="no"?>
 <!DOCTYPE svg PUBLIC "-//W3C//DTD SVG 1.1//EN" 
 "http://www.w3.org/Graphics/SVG/1.1/DTD/svg11.dtd"> 
<svg
  xmlns:svg="http://www.w3.org/2000/svg"
  xmlns="http://www.w3.org/2000/svg"
  xmlns:xlink="http://www.w3.org/1999/xlink"
  version="1.1"
  width="29.700220cm" height="21.000720cm" viewBox="0 0 116930 82680">
<title>SVG Picture created as PowerFiltering-InputSignal-PwrFilter_CS5343.svg date 2020/10/29 02:56:45 </title>
  <desc>Picture generated by Eeschema-SVG </desc>
<g style="fill:#000000; fill-opacity:1;stroke:#000000; stroke-opacity:1;
stroke-linecap:round; stroke-linejoin:round;"
 transform="translate(0 0) scale(1 1)">
</g>
<g style="fill:#000000; fill-opacity:0.0; 
stroke:#000000; stroke-width:-10; stroke-opacity:1; 
stroke-linecap:round; stroke-linejoin:round;">
</g>
<g style="fill:#840000; fill-opacity:0.0; 
stroke:#840000; stroke-width:-10; stroke-opacity:1; 
stroke-linecap:round; stroke-linejoin:round;">
</g>
<g style="fill:#840000; fill-opacity:0.0; 
stroke:#840000; stroke-width:100; stroke-opacity:1; 
stroke-linecap:round; stroke-linejoin:round;">
</g>
<g style="fill:#840000; fill-opacity:0.0; 
stroke:#840000; stroke-width:60; stroke-opacity:1; 
stroke-linecap:round; stroke-linejoin:round;">
<rect x="69690" y="65360" width="42520" height="12600" rx="0" />
</g>
<g style="fill:#840000; fill-opacity:0.0; 
stroke:#840000; stroke-width:100; stroke-opacity:1; 
stroke-linecap:round; stroke-linejoin:round;">
</g>
<g style="fill:#840000; fill-opacity:0.0; 
stroke:#840000; stroke-width:60; stroke-opacity:1; 
stroke-linecap:round; stroke-linejoin:round;">
<rect x="3940" y="3940" width="109050" height="74800" rx="0" />
</g>
<g style="fill:#840000; fill-opacity:0.0; 
stroke:#840000; stroke-width:100; stroke-opacity:1; 
stroke-linecap:round; stroke-linejoin:round;">
</g>
<g style="fill:#840000; fill-opacity:0.0; 
stroke:#840000; stroke-width:60; stroke-opacity:1; 
stroke-linecap:round; stroke-linejoin:round;">
<rect x="4720" y="4720" width="107490" height="73240" rx="0" />
</g>
<g style="fill:#840000; fill-opacity:0.0; 
stroke:#840000; stroke-width:100; stroke-opacity:1; 
stroke-linecap:round; stroke-linejoin:round;">
</g>
<g style="fill:#840000; fill-opacity:0.0; 
stroke:#840000; stroke-width:60; stroke-opacity:1; 
stroke-linecap:round; stroke-linejoin:round;">
<path d="M23620 4720
L23620 3940
" />
</g>
<g style="fill:#840000; fill-opacity:0.0; 
stroke:#840000; stroke-width:100; stroke-opacity:1; 
stroke-linecap:round; stroke-linejoin:round;">
</g>
<g style="fill:#840000; fill-opacity:0.0; 
stroke:#840000; stroke-width:60; stroke-opacity:1; 
stroke-linecap:round; stroke-linejoin:round;">
<path d="M43310 4720
L43310 3940
" />
</g>
<g style="fill:#840000; fill-opacity:0.0; 
stroke:#840000; stroke-width:100; stroke-opacity:1; 
stroke-linecap:round; stroke-linejoin:round;">
</g>
<g style="fill:#840000; fill-opacity:0.0; 
stroke:#840000; stroke-width:60; stroke-opacity:1; 
stroke-linecap:round; stroke-linejoin:round;">
<path d="M62990 4720
L62990 3940
" />
</g>
<g style="fill:#840000; fill-opacity:0.0; 
stroke:#840000; stroke-width:100; stroke-opacity:1; 
stroke-linecap:round; stroke-linejoin:round;">
</g>
<g style="fill:#840000; fill-opacity:0.0; 
stroke:#840000; stroke-width:60; stroke-opacity:1; 
stroke-linecap:round; stroke-linejoin:round;">
<path d="M82680 4720
L82680 3940
" />
</g>
<g style="fill:#840000; fill-opacity:0.0; 
stroke:#840000; stroke-width:100; stroke-opacity:1; 
stroke-linecap:round; stroke-linejoin:round;">
</g>
<g style="fill:#840000; fill-opacity:0.0; 
stroke:#840000; stroke-width:60; stroke-opacity:1; 
stroke-linecap:round; stroke-linejoin:round;">
<path d="M102360 4720
L102360 3940
" />
</g>
<g style="fill:#840000; fill-opacity:0.0; 
stroke:#840000; stroke-width:100; stroke-opacity:1; 
stroke-linecap:round; stroke-linejoin:round;">
</g>
<g style="fill:#840000; fill-opacity:0.0; 
stroke:#840000; stroke-width:60; stroke-opacity:1; 
stroke-linecap:round; stroke-linejoin:round;">
<text x="13780" y="4580"
textLength="550" font-size="680" lengthAdjust="spacingAndGlyphs"
text-anchor="start" opacity="0">1</text>
<path d="M14190 4560
L13900 4560
" />
<path d="M14050 4560
L14050 4050
L14000 4120
L13950 4170
L13900 4190
" />
</g>
<g style="fill:#840000; fill-opacity:0.0; 
stroke:#840000; stroke-width:100; stroke-opacity:1; 
stroke-linecap:round; stroke-linejoin:round;">
</g>
<g style="fill:#840000; fill-opacity:0.0; 
stroke:#840000; stroke-width:60; stroke-opacity:1; 
stroke-linecap:round; stroke-linejoin:round;">
<text x="33460" y="4580"
textLength="550" font-size="680" lengthAdjust="spacingAndGlyphs"
text-anchor="start" opacity="0">2</text>
<path d="M33580 4090
L33610 4070
L33660 4050
L33780 4050
L33830 4070
L33850 4090
L33870 4140
L33870 4190
L33850 4260
L33560 4560
L33870 4560
" />
</g>
<g style="fill:#840000; fill-opacity:0.0; 
stroke:#840000; stroke-width:100; stroke-opacity:1; 
stroke-linecap:round; stroke-linejoin:round;">
</g>
<g style="fill:#840000; fill-opacity:0.0; 
stroke:#840000; stroke-width:60; stroke-opacity:1; 
stroke-linecap:round; stroke-linejoin:round;">
<text x="53150" y="4580"
textLength="550" font-size="680" lengthAdjust="spacingAndGlyphs"
text-anchor="start" opacity="0">3</text>
<path d="M53250 4050
L53560 4050
L53390 4240
L53470 4240
L53520 4260
L53540 4290
L53560 4340
L53560 4460
L53540 4510
L53520 4530
L53470 4560
L53320 4560
L53270 4530
L53250 4510
" />
</g>
<g style="fill:#840000; fill-opacity:0.0; 
stroke:#840000; stroke-width:100; stroke-opacity:1; 
stroke-linecap:round; stroke-linejoin:round;">
</g>
<g style="fill:#840000; fill-opacity:0.0; 
stroke:#840000; stroke-width:60; stroke-opacity:1; 
stroke-linecap:round; stroke-linejoin:round;">
<text x="72830" y="4580"
textLength="550" font-size="680" lengthAdjust="spacingAndGlyphs"
text-anchor="start" opacity="0">4</text>
<path d="M73200 4220
L73200 4560
" />
<path d="M73070 4020
L72950 4390
L73270 4390
" />
</g>
<g style="fill:#840000; fill-opacity:0.0; 
stroke:#840000; stroke-width:100; stroke-opacity:1; 
stroke-linecap:round; stroke-linejoin:round;">
</g>
<g style="fill:#840000; fill-opacity:0.0; 
stroke:#840000; stroke-width:60; stroke-opacity:1; 
stroke-linecap:round; stroke-linejoin:round;">
<text x="92520" y="4580"
textLength="550" font-size="680" lengthAdjust="spacingAndGlyphs"
text-anchor="start" opacity="0">5</text>
<path d="M92910 4050
L92670 4050
L92640 4290
L92670 4260
L92720 4240
L92840 4240
L92890 4260
L92910 4290
L92930 4340
L92930 4460
L92910 4510
L92890 4530
L92840 4560
L92720 4560
L92670 4530
L92640 4510
" />
</g>
<g style="fill:#840000; fill-opacity:0.0; 
stroke:#840000; stroke-width:100; stroke-opacity:1; 
stroke-linecap:round; stroke-linejoin:round;">
</g>
<g style="fill:#840000; fill-opacity:0.0; 
stroke:#840000; stroke-width:60; stroke-opacity:1; 
stroke-linecap:round; stroke-linejoin:round;">
<text x="112200" y="4580"
textLength="550" font-size="680" lengthAdjust="spacingAndGlyphs"
text-anchor="start" opacity="0">6</text>
<path d="M112570 4050
L112470 4050
L112420 4070
L112400 4090
L112350 4170
L112320 4260
L112320 4460
L112350 4510
L112370 4530
L112420 4560
L112520 4560
L112570 4530
L112590 4510
L112610 4460
L112610 4340
L112590 4290
L112570 4260
L112520 4240
L112420 4240
L112370 4260
L112350 4290
L112320 4340
" />
</g>
<g style="fill:#840000; fill-opacity:0.0; 
stroke:#840000; stroke-width:100; stroke-opacity:1; 
stroke-linecap:round; stroke-linejoin:round;">
</g>
<g style="fill:#840000; fill-opacity:0.0; 
stroke:#840000; stroke-width:60; stroke-opacity:1; 
stroke-linecap:round; stroke-linejoin:round;">
<path d="M23620 77960
L23620 78740
" />
</g>
<g style="fill:#840000; fill-opacity:0.0; 
stroke:#840000; stroke-width:100; stroke-opacity:1; 
stroke-linecap:round; stroke-linejoin:round;">
</g>
<g style="fill:#840000; fill-opacity:0.0; 
stroke:#840000; stroke-width:60; stroke-opacity:1; 
stroke-linecap:round; stroke-linejoin:round;">
<path d="M43310 77960
L43310 78740
" />
</g>
<g style="fill:#840000; fill-opacity:0.0; 
stroke:#840000; stroke-width:100; stroke-opacity:1; 
stroke-linecap:round; stroke-linejoin:round;">
</g>
<g style="fill:#840000; fill-opacity:0.0; 
stroke:#840000; stroke-width:60; stroke-opacity:1; 
stroke-linecap:round; stroke-linejoin:round;">
<path d="M62990 77960
L62990 78740
" />
</g>
<g style="fill:#840000; fill-opacity:0.0; 
stroke:#840000; stroke-width:100; stroke-opacity:1; 
stroke-linecap:round; stroke-linejoin:round;">
</g>
<g style="fill:#840000; fill-opacity:0.0; 
stroke:#840000; stroke-width:60; stroke-opacity:1; 
stroke-linecap:round; stroke-linejoin:round;">
<path d="M82680 77960
L82680 78740
" />
</g>
<g style="fill:#840000; fill-opacity:0.0; 
stroke:#840000; stroke-width:100; stroke-opacity:1; 
stroke-linecap:round; stroke-linejoin:round;">
</g>
<g style="fill:#840000; fill-opacity:0.0; 
stroke:#840000; stroke-width:60; stroke-opacity:1; 
stroke-linecap:round; stroke-linejoin:round;">
<path d="M102360 77960
L102360 78740
" />
</g>
<g style="fill:#840000; fill-opacity:0.0; 
stroke:#840000; stroke-width:100; stroke-opacity:1; 
stroke-linecap:round; stroke-linejoin:round;">
</g>
<g style="fill:#840000; fill-opacity:0.0; 
stroke:#840000; stroke-width:60; stroke-opacity:1; 
stroke-linecap:round; stroke-linejoin:round;">
<text x="13780" y="78600"
textLength="550" font-size="680" lengthAdjust="spacingAndGlyphs"
text-anchor="start" opacity="0">1</text>
<path d="M14190 78580
L13900 78580
" />
<path d="M14050 78580
L14050 78070
L14000 78140
L13950 78190
L13900 78210
" />
</g>
<g style="fill:#840000; fill-opacity:0.0; 
stroke:#840000; stroke-width:100; stroke-opacity:1; 
stroke-linecap:round; stroke-linejoin:round;">
</g>
<g style="fill:#840000; fill-opacity:0.0; 
stroke:#840000; stroke-width:60; stroke-opacity:1; 
stroke-linecap:round; stroke-linejoin:round;">
<text x="33460" y="78600"
textLength="550" font-size="680" lengthAdjust="spacingAndGlyphs"
text-anchor="start" opacity="0">2</text>
<path d="M33580 78110
L33610 78090
L33660 78070
L33780 78070
L33830 78090
L33850 78110
L33870 78160
L33870 78210
L33850 78280
L33560 78580
L33870 78580
" />
</g>
<g style="fill:#840000; fill-opacity:0.0; 
stroke:#840000; stroke-width:100; stroke-opacity:1; 
stroke-linecap:round; stroke-linejoin:round;">
</g>
<g style="fill:#840000; fill-opacity:0.0; 
stroke:#840000; stroke-width:60; stroke-opacity:1; 
stroke-linecap:round; stroke-linejoin:round;">
<text x="53150" y="78600"
textLength="550" font-size="680" lengthAdjust="spacingAndGlyphs"
text-anchor="start" opacity="0">3</text>
<path d="M53250 78070
L53560 78070
L53390 78260
L53470 78260
L53520 78280
L53540 78310
L53560 78360
L53560 78480
L53540 78530
L53520 78550
L53470 78580
L53320 78580
L53270 78550
L53250 78530
" />
</g>
<g style="fill:#840000; fill-opacity:0.0; 
stroke:#840000; stroke-width:100; stroke-opacity:1; 
stroke-linecap:round; stroke-linejoin:round;">
</g>
<g style="fill:#840000; fill-opacity:0.0; 
stroke:#840000; stroke-width:60; stroke-opacity:1; 
stroke-linecap:round; stroke-linejoin:round;">
<text x="72830" y="78600"
textLength="550" font-size="680" lengthAdjust="spacingAndGlyphs"
text-anchor="start" opacity="0">4</text>
<path d="M73200 78240
L73200 78580
" />
<path d="M73070 78040
L72950 78410
L73270 78410
" />
</g>
<g style="fill:#840000; fill-opacity:0.0; 
stroke:#840000; stroke-width:100; stroke-opacity:1; 
stroke-linecap:round; stroke-linejoin:round;">
</g>
<g style="fill:#840000; fill-opacity:0.0; 
stroke:#840000; stroke-width:60; stroke-opacity:1; 
stroke-linecap:round; stroke-linejoin:round;">
<text x="92520" y="78600"
textLength="550" font-size="680" lengthAdjust="spacingAndGlyphs"
text-anchor="start" opacity="0">5</text>
<path d="M92910 78070
L92670 78070
L92640 78310
L92670 78280
L92720 78260
L92840 78260
L92890 78280
L92910 78310
L92930 78360
L92930 78480
L92910 78530
L92890 78550
L92840 78580
L92720 78580
L92670 78550
L92640 78530
" />
</g>
<g style="fill:#840000; fill-opacity:0.0; 
stroke:#840000; stroke-width:100; stroke-opacity:1; 
stroke-linecap:round; stroke-linejoin:round;">
</g>
<g style="fill:#840000; fill-opacity:0.0; 
stroke:#840000; stroke-width:60; stroke-opacity:1; 
stroke-linecap:round; stroke-linejoin:round;">
<text x="112200" y="78600"
textLength="550" font-size="680" lengthAdjust="spacingAndGlyphs"
text-anchor="start" opacity="0">6</text>
<path d="M112570 78070
L112470 78070
L112420 78090
L112400 78110
L112350 78190
L112320 78280
L112320 78480
L112350 78530
L112370 78550
L112420 78580
L112520 78580
L112570 78550
L112590 78530
L112610 78480
L112610 78360
L112590 78310
L112570 78280
L112520 78260
L112420 78260
L112370 78280
L112350 78310
L112320 78360
" />
</g>
<g style="fill:#840000; fill-opacity:0.0; 
stroke:#840000; stroke-width:100; stroke-opacity:1; 
stroke-linecap:round; stroke-linejoin:round;">
</g>
<g style="fill:#840000; fill-opacity:0.0; 
stroke:#840000; stroke-width:60; stroke-opacity:1; 
stroke-linecap:round; stroke-linejoin:round;">
<path d="M3940 23620
L4720 23620
" />
</g>
<g style="fill:#840000; fill-opacity:0.0; 
stroke:#840000; stroke-width:100; stroke-opacity:1; 
stroke-linecap:round; stroke-linejoin:round;">
</g>
<g style="fill:#840000; fill-opacity:0.0; 
stroke:#840000; stroke-width:60; stroke-opacity:1; 
stroke-linecap:round; stroke-linejoin:round;">
<path d="M3940 43310
L4720 43310
" />
</g>
<g style="fill:#840000; fill-opacity:0.0; 
stroke:#840000; stroke-width:100; stroke-opacity:1; 
stroke-linecap:round; stroke-linejoin:round;">
</g>
<g style="fill:#840000; fill-opacity:0.0; 
stroke:#840000; stroke-width:60; stroke-opacity:1; 
stroke-linecap:round; stroke-linejoin:round;">
<path d="M3940 62990
L4720 62990
" />
</g>
<g style="fill:#840000; fill-opacity:0.0; 
stroke:#840000; stroke-width:100; stroke-opacity:1; 
stroke-linecap:round; stroke-linejoin:round;">
</g>
<g style="fill:#840000; fill-opacity:0.0; 
stroke:#840000; stroke-width:60; stroke-opacity:1; 
stroke-linecap:round; stroke-linejoin:round;">
<text x="4330" y="14030"
textLength="500" font-size="680" lengthAdjust="spacingAndGlyphs"
text-anchor="middle" opacity="0">A</text>
<path d="M4200 13860
L4450 13860
" />
<path d="M4160 14010
L4330 13500
L4500 14010
" />
</g>
<g style="fill:#840000; fill-opacity:0.0; 
stroke:#840000; stroke-width:100; stroke-opacity:1; 
stroke-linecap:round; stroke-linejoin:round;">
</g>
<g style="fill:#840000; fill-opacity:0.0; 
stroke:#840000; stroke-width:60; stroke-opacity:1; 
stroke-linecap:round; stroke-linejoin:round;">
<text x="4330" y="33710"
textLength="570" font-size="680" lengthAdjust="spacingAndGlyphs"
text-anchor="middle" opacity="0">B</text>
<path d="M4360 33420
L4430 33440
L4460 33470
L4480 33520
L4480 33590
L4460 33640
L4430 33660
L4390 33690
L4190 33690
L4190 33180
L4360 33180
L4410 33200
L4430 33220
L4460 33270
L4460 33320
L4430 33370
L4410 33390
L4360 33420
L4190 33420
" />
</g>
<g style="fill:#840000; fill-opacity:0.0; 
stroke:#840000; stroke-width:100; stroke-opacity:1; 
stroke-linecap:round; stroke-linejoin:round;">
</g>
<g style="fill:#840000; fill-opacity:0.0; 
stroke:#840000; stroke-width:60; stroke-opacity:1; 
stroke-linecap:round; stroke-linejoin:round;">
<text x="4330" y="53400"
textLength="570" font-size="680" lengthAdjust="spacingAndGlyphs"
text-anchor="middle" opacity="0">C</text>
<path d="M4480 53330
L4460 53350
L4390 53380
L4340 53380
L4260 53350
L4220 53300
L4190 53250
L4170 53160
L4170 53080
L4190 52990
L4220 52940
L4260 52890
L4340 52870
L4390 52870
L4460 52890
L4480 52910
" />
</g>
<g style="fill:#840000; fill-opacity:0.0; 
stroke:#840000; stroke-width:100; stroke-opacity:1; 
stroke-linecap:round; stroke-linejoin:round;">
</g>
<g style="fill:#840000; fill-opacity:0.0; 
stroke:#840000; stroke-width:60; stroke-opacity:1; 
stroke-linecap:round; stroke-linejoin:round;">
<text x="4330" y="73080"
textLength="570" font-size="680" lengthAdjust="spacingAndGlyphs"
text-anchor="middle" opacity="0">D</text>
<path d="M4190 73060
L4190 72550
L4310 72550
L4390 72570
L4430 72620
L4460 72670
L4480 72760
L4480 72840
L4460 72930
L4430 72980
L4390 73030
L4310 73060
L4190 73060
" />
</g>
<g style="fill:#840000; fill-opacity:0.0; 
stroke:#840000; stroke-width:100; stroke-opacity:1; 
stroke-linecap:round; stroke-linejoin:round;">
</g>
<g style="fill:#840000; fill-opacity:0.0; 
stroke:#840000; stroke-width:60; stroke-opacity:1; 
stroke-linecap:round; stroke-linejoin:round;">
<path d="M112990 23620
L112210 23620
" />
</g>
<g style="fill:#840000; fill-opacity:0.0; 
stroke:#840000; stroke-width:100; stroke-opacity:1; 
stroke-linecap:round; stroke-linejoin:round;">
</g>
<g style="fill:#840000; fill-opacity:0.0; 
stroke:#840000; stroke-width:60; stroke-opacity:1; 
stroke-linecap:round; stroke-linejoin:round;">
<path d="M112990 43310
L112210 43310
" />
</g>
<g style="fill:#840000; fill-opacity:0.0; 
stroke:#840000; stroke-width:100; stroke-opacity:1; 
stroke-linecap:round; stroke-linejoin:round;">
</g>
<g style="fill:#840000; fill-opacity:0.0; 
stroke:#840000; stroke-width:60; stroke-opacity:1; 
stroke-linecap:round; stroke-linejoin:round;">
<path d="M112990 62990
L112210 62990
" />
</g>
<g style="fill:#840000; fill-opacity:0.0; 
stroke:#840000; stroke-width:100; stroke-opacity:1; 
stroke-linecap:round; stroke-linejoin:round;">
</g>
<g style="fill:#840000; fill-opacity:0.0; 
stroke:#840000; stroke-width:60; stroke-opacity:1; 
stroke-linecap:round; stroke-linejoin:round;">
<text x="112600" y="14030"
textLength="500" font-size="680" lengthAdjust="spacingAndGlyphs"
text-anchor="middle" opacity="0">A</text>
<path d="M112470 13860
L112720 13860
" />
<path d="M112430 14010
L112600 13500
L112770 14010
" />
</g>
<g style="fill:#840000; fill-opacity:0.0; 
stroke:#840000; stroke-width:100; stroke-opacity:1; 
stroke-linecap:round; stroke-linejoin:round;">
</g>
<g style="fill:#840000; fill-opacity:0.0; 
stroke:#840000; stroke-width:60; stroke-opacity:1; 
stroke-linecap:round; stroke-linejoin:round;">
<text x="112600" y="33710"
textLength="570" font-size="680" lengthAdjust="spacingAndGlyphs"
text-anchor="middle" opacity="0">B</text>
<path d="M112630 33420
L112700 33440
L112730 33470
L112750 33520
L112750 33590
L112730 33640
L112700 33660
L112660 33690
L112460 33690
L112460 33180
L112630 33180
L112680 33200
L112700 33220
L112730 33270
L112730 33320
L112700 33370
L112680 33390
L112630 33420
L112460 33420
" />
</g>
<g style="fill:#840000; fill-opacity:0.0; 
stroke:#840000; stroke-width:100; stroke-opacity:1; 
stroke-linecap:round; stroke-linejoin:round;">
</g>
<g style="fill:#840000; fill-opacity:0.0; 
stroke:#840000; stroke-width:60; stroke-opacity:1; 
stroke-linecap:round; stroke-linejoin:round;">
<text x="112600" y="53400"
textLength="570" font-size="680" lengthAdjust="spacingAndGlyphs"
text-anchor="middle" opacity="0">C</text>
<path d="M112750 53330
L112730 53350
L112660 53380
L112610 53380
L112530 53350
L112490 53300
L112460 53250
L112440 53160
L112440 53080
L112460 52990
L112490 52940
L112530 52890
L112610 52870
L112660 52870
L112730 52890
L112750 52910
" />
</g>
<g style="fill:#840000; fill-opacity:0.0; 
stroke:#840000; stroke-width:100; stroke-opacity:1; 
stroke-linecap:round; stroke-linejoin:round;">
</g>
<g style="fill:#840000; fill-opacity:0.0; 
stroke:#840000; stroke-width:60; stroke-opacity:1; 
stroke-linecap:round; stroke-linejoin:round;">
<text x="112600" y="73080"
textLength="570" font-size="680" lengthAdjust="spacingAndGlyphs"
text-anchor="middle" opacity="0">D</text>
<path d="M112460 73060
L112460 72550
L112580 72550
L112660 72570
L112700 72620
L112730 72670
L112750 72760
L112750 72840
L112730 72930
L112700 72980
L112660 73030
L112580 73060
L112460 73060
" />
</g>
<g style="fill:#840000; fill-opacity:0.0; 
stroke:#840000; stroke-width:100; stroke-opacity:1; 
stroke-linecap:round; stroke-linejoin:round;">
</g>
<g style="fill:#840000; fill-opacity:0.0; 
stroke:#840000; stroke-width:60; stroke-opacity:1; 
stroke-linecap:round; stroke-linejoin:round;">
<text x="78740" y="76320"
textLength="2760" font-size="780" lengthAdjust="spacingAndGlyphs"
text-anchor="start" opacity="0">Date: </text>
<path d="M78910 76290
L78910 75700
L79050 75700
L79130 75730
L79190 75790
L79210 75840
L79240 75950
L79240 76040
L79210 76150
L79190 76210
L79130 76260
L79050 76290
L78910 76290
" />
<path d="M79750 76290
L79750 75980
L79720 75930
L79660 75900
L79550 75900
L79500 75930
" />
<path d="M79750 76260
L79690 76290
L79550 76290
L79500 76260
L79470 76210
L79470 76150
L79500 76100
L79550 76070
L79690 76070
L79750 76040
" />
<path d="M79950 75900
L80170 75900
" />
<path d="M80030 75700
L80030 76210
L80060 76260
L80110 76290
L80170 76290
" />
<path d="M80590 76260
L80540 76290
L80420 76290
L80370 76260
L80340 76210
L80340 75980
L80370 75930
L80420 75900
L80540 75900
L80590 75930
L80620 75980
L80620 76040
L80340 76100
" />
<path d="M80870 76240
L80900 76260
L80870 76290
L80840 76260
L80870 76240
L80870 76290
" />
<path d="M80870 75930
L80900 75950
L80870 75980
L80840 75950
L80870 75930
L80870 75980
" />
</g>
<g style="fill:#840000; fill-opacity:0.0; 
stroke:#840000; stroke-width:100; stroke-opacity:1; 
stroke-linecap:round; stroke-linejoin:round;">
</g>
<g style="fill:#840000; fill-opacity:0.0; 
stroke:#840000; stroke-width:60; stroke-opacity:1; 
stroke-linecap:round; stroke-linejoin:round;">
<path d="M69690 76580
L112210 76580
" />
</g>
<g style="fill:#840000; fill-opacity:0.0; 
stroke:#840000; stroke-width:100; stroke-opacity:1; 
stroke-linecap:round; stroke-linejoin:round;">
</g>
<g style="fill:#840000; fill-opacity:0.0; 
stroke:#840000; stroke-width:60; stroke-opacity:1; 
stroke-linecap:round; stroke-linejoin:round;">
<text x="70080" y="77420"
textLength="23240" font-size="780" lengthAdjust="spacingAndGlyphs"
text-anchor="start" opacity="0">KiCad E.D.A.  kicad 5.1.6-c6e7f7d~87~ubuntu18.04.1</text>
<path d="M70250 77390
L70250 76800
" />
<path d="M70580 77390
L70330 77050
" />
<path d="M70580 76800
L70250 77140
" />
<path d="M70840 77390
L70840 77000
" />
<path d="M70840 76800
L70810 76830
L70840 76860
L70860 76830
L70840 76800
L70840 76860
" />
<path d="M71450 77340
L71430 77360
L71340 77390
L71290 77390
L71200 77360
L71140 77310
L71120 77250
L71090 77140
L71090 77050
L71120 76940
L71140 76890
L71200 76830
L71290 76800
L71340 76800
L71430 76830
L71450 76860
" />
<path d="M71960 77390
L71960 77080
L71930 77030
L71880 77000
L71760 77000
L71710 77030
" />
<path d="M71960 77360
L71900 77390
L71760 77390
L71710 77360
L71680 77310
L71680 77250
L71710 77200
L71760 77170
L71900 77170
L71960 77140
" />
<path d="M72490 77390
L72490 76800
" />
<path d="M72490 77360
L72440 77390
L72320 77390
L72270 77360
L72240 77340
L72210 77280
L72210 77110
L72240 77050
L72270 77030
L72320 77000
L72440 77000
L72490 77030
" />
<path d="M73220 77080
L73420 77080
" />
<path d="M73500 77390
L73220 77390
L73220 76800
L73500 76800
" />
<path d="M73760 77340
L73790 77360
L73760 77390
L73730 77360
L73760 77340
L73760 77390
" />
<path d="M74040 77390
L74040 76800
L74180 76800
L74260 76830
L74320 76890
L74350 76940
L74380 77050
L74380 77140
L74350 77250
L74320 77310
L74260 77360
L74180 77390
L74040 77390
" />
<path d="M74630 77340
L74660 77360
L74630 77390
L74600 77360
L74630 77340
L74630 77390
" />
<path d="M74880 77220
L75160 77220
" />
<path d="M74830 77390
L75020 76800
L75220 77390
" />
<path d="M75420 77340
L75440 77360
L75420 77390
L75390 77360
L75420 77340
L75420 77390
" />
<path d="M76600 77390
L76600 76800
" />
<path d="M76650 77170
L76820 77390
" />
<path d="M76820 77000
L76600 77220
" />
<path d="M77070 77390
L77070 77000
" />
<path d="M77070 76800
L77040 76830
L77070 76860
L77100 76830
L77070 76800
L77070 76860
" />
<path d="M77610 77360
L77550 77390
L77440 77390
L77380 77360
L77350 77340
L77330 77280
L77330 77110
L77350 77050
L77380 77030
L77440 77000
L77550 77000
L77610 77030
" />
<path d="M78110 77390
L78110 77080
L78080 77030
L78030 77000
L77920 77000
L77860 77030
" />
<path d="M78110 77360
L78060 77390
L77920 77390
L77860 77360
L77830 77310
L77830 77250
L77860 77200
L77920 77170
L78060 77170
L78110 77140
" />
<path d="M78650 77390
L78650 76800
" />
<path d="M78650 77360
L78590 77390
L78480 77390
L78420 77360
L78390 77340
L78370 77280
L78370 77110
L78390 77050
L78420 77030
L78480 77000
L78590 77000
L78650 77030
" />
<path d="M79660 76800
L79380 76800
L79350 77080
L79380 77050
L79430 77030
L79570 77030
L79630 77050
L79660 77080
L79690 77140
L79690 77280
L79660 77340
L79630 77360
L79570 77390
L79430 77390
L79380 77360
L79350 77340
" />
<path d="M79940 77340
L79970 77360
L79940 77390
L79910 77360
L79940 77340
L79940 77390
" />
<path d="M80530 77390
L80190 77390
" />
<path d="M80360 77390
L80360 76800
L80300 76890
L80250 76940
L80190 76970
" />
<path d="M80780 77340
L80810 77360
L80780 77390
L80750 77360
L80780 77340
L80780 77390
" />
<path d="M81320 76800
L81200 76800
L81150 76830
L81120 76860
L81060 76940
L81030 77050
L81030 77280
L81060 77340
L81090 77360
L81150 77390
L81260 77390
L81320 77360
L81340 77340
L81370 77280
L81370 77140
L81340 77080
L81320 77050
L81260 77030
L81150 77030
L81090 77050
L81060 77080
L81030 77140
" />
<path d="M81620 77170
L82070 77170
" />
<path d="M82610 77360
L82550 77390
L82440 77390
L82380 77360
L82350 77340
L82330 77280
L82330 77110
L82350 77050
L82380 77030
L82440 77000
L82550 77000
L82610 77030
" />
<path d="M83110 76800
L83000 76800
L82940 76830
L82920 76860
L82860 76940
L82830 77050
L82830 77280
L82860 77340
L82890 77360
L82940 77390
L83060 77390
L83110 77360
L83140 77340
L83170 77280
L83170 77140
L83140 77080
L83110 77050
L83060 77030
L82940 77030
L82890 77050
L82860 77080
L82830 77140
" />
<path d="M83650 77360
L83590 77390
L83480 77390
L83420 77360
L83390 77310
L83390 77080
L83420 77030
L83480 77000
L83590 77000
L83650 77030
L83680 77080
L83680 77140
L83390 77200
" />
<path d="M83870 76800
L84270 76800
L84010 77390
" />
<path d="M84410 77000
L84630 77000
" />
<path d="M84490 77390
L84490 76890
L84520 76830
L84570 76800
L84630 76800
" />
<path d="M84770 76800
L85160 76800
L84910 77390
" />
<path d="M85640 77390
L85640 76800
" />
<path d="M85640 77360
L85590 77390
L85470 77390
L85420 77360
L85390 77340
L85360 77280
L85360 77110
L85390 77050
L85420 77030
L85470 77000
L85590 77000
L85640 77030
" />
<path d="M85780 76640
L86340 76640
" />
<path d="M86010 77050
L85950 77030
L85920 77000
L85890 76940
L85890 76910
L85920 76860
L85950 76830
L86010 76800
L86120 76800
L86180 76830
L86200 76860
L86230 76910
L86230 76940
L86200 77000
L86180 77030
L86120 77050
L86010 77050
L85950 77080
L85920 77110
L85890 77170
L85890 77280
L85920 77340
L85950 77360
L86010 77390
L86120 77390
L86180 77360
L86200 77340
L86230 77280
L86230 77170
L86200 77110
L86180 77080
L86120 77050
" />
<path d="M86340 76640
L86910 76640
" />
<path d="M86430 76800
L86820 76800
L86570 77390
" />
<path d="M87300 77000
L87300 77390
" />
<path d="M87050 77000
L87050 77310
L87070 77360
L87130 77390
L87220 77390
L87270 77360
L87300 77340
" />
<path d="M87580 77390
L87580 76800
" />
<path d="M87580 77030
L87640 77000
L87750 77000
L87810 77030
L87830 77050
L87860 77110
L87860 77280
L87830 77340
L87810 77360
L87750 77390
L87640 77390
L87580 77360
" />
<path d="M88370 77000
L88370 77390
" />
<path d="M88110 77000
L88110 77310
L88140 77360
L88200 77390
L88280 77390
L88340 77360
L88370 77340
" />
<path d="M88650 77000
L88650 77390
" />
<path d="M88650 77050
L88680 77030
L88730 77000
L88820 77000
L88870 77030
L88900 77080
L88900 77390
" />
<path d="M89100 77000
L89320 77000
" />
<path d="M89180 76800
L89180 77310
L89210 77360
L89270 77390
L89320 77390
" />
<path d="M89770 77000
L89770 77390
" />
<path d="M89520 77000
L89520 77310
L89550 77360
L89600 77390
L89690 77390
L89740 77360
L89770 77340
" />
<path d="M90360 77390
L90020 77390
" />
<path d="M90190 77390
L90190 76800
L90140 76890
L90080 76940
L90020 76970
" />
<path d="M90700 77050
L90640 77030
L90610 77000
L90590 76940
L90590 76910
L90610 76860
L90640 76830
L90700 76800
L90810 76800
L90870 76830
L90900 76860
L90920 76910
L90920 76940
L90900 77000
L90870 77030
L90810 77050
L90700 77050
L90640 77080
L90610 77110
L90590 77170
L90590 77280
L90610 77340
L90640 77360
L90700 77390
L90810 77390
L90870 77360
L90900 77340
L90920 77280
L90920 77170
L90900 77110
L90870 77080
L90810 77050
" />
<path d="M91180 77340
L91200 77360
L91180 77390
L91150 77360
L91180 77340
L91180 77390
" />
<path d="M91570 76800
L91630 76800
L91680 76830
L91710 76860
L91740 76910
L91770 77030
L91770 77170
L91740 77280
L91710 77340
L91680 77360
L91630 77390
L91570 77390
L91510 77360
L91490 77340
L91460 77280
L91430 77170
L91430 77030
L91460 76910
L91490 76860
L91510 76830
L91570 76800
" />
<path d="M92270 77000
L92270 77390
" />
<path d="M92130 76770
L91990 77200
L92360 77200
" />
<path d="M92580 77340
L92610 77360
L92580 77390
L92550 77360
L92580 77340
L92580 77390
" />
<path d="M93170 77390
L92830 77390
" />
<path d="M93000 77390
L93000 76800
L92950 76890
L92890 76940
L92830 76970
" />
</g>
<g style="fill:#840000; fill-opacity:0.0; 
stroke:#840000; stroke-width:100; stroke-opacity:1; 
stroke-linecap:round; stroke-linejoin:round;">
</g>
<g style="fill:#840000; fill-opacity:0.0; 
stroke:#840000; stroke-width:60; stroke-opacity:1; 
stroke-linecap:round; stroke-linejoin:round;">
<path d="M69690 75400
L112210 75400
" />
</g>
<g style="fill:#840000; fill-opacity:0.0; 
stroke:#840000; stroke-width:100; stroke-opacity:1; 
stroke-linecap:round; stroke-linejoin:round;">
</g>
<g style="fill:#840000; fill-opacity:0.0; 
stroke:#840000; stroke-width:120; stroke-opacity:1; 
stroke-linecap:round; stroke-linejoin:round;">
<text x="103540" y="76320"
textLength="2340" font-size="780" lengthAdjust="spacingAndGlyphs"
text-anchor="start" opacity="0">Rev: </text>
<path d="M104090 76290
L103890 76010
" />
<path d="M103750 76290
L103750 75700
L103980 75700
L104030 75730
L104060 75760
L104090 75810
L104090 75900
L104060 75950
L104030 75980
L103980 76010
L103750 76010
" />
<path d="M104570 76260
L104510 76290
L104400 76290
L104340 76260
L104320 76210
L104320 75980
L104340 75930
L104400 75900
L104510 75900
L104570 75930
L104600 75980
L104600 76040
L104320 76100
" />
<path d="M104790 75900
L104930 76290
L105070 75900
" />
<path d="M105300 76240
L105330 76260
L105300 76290
L105270 76260
L105300 76240
L105300 76290
" />
<path d="M105300 75930
L105330 75950
L105300 75980
L105270 75950
L105300 75930
L105300 75980
" />
</g>
<g style="fill:#840000; fill-opacity:0.0; 
stroke:#840000; stroke-width:100; stroke-opacity:1; 
stroke-linecap:round; stroke-linejoin:round;">
</g>
<g style="fill:#840000; fill-opacity:0.0; 
stroke:#840000; stroke-width:60; stroke-opacity:1; 
stroke-linecap:round; stroke-linejoin:round;">
<text x="70080" y="76320"
textLength="3780" font-size="780" lengthAdjust="spacingAndGlyphs"
text-anchor="start" opacity="0">Size: A4</text>
<path d="M70220 76260
L70300 76290
L70440 76290
L70500 76260
L70530 76240
L70550 76180
L70550 76120
L70530 76070
L70500 76040
L70440 76010
L70330 75980
L70270 75950
L70250 75930
L70220 75870
L70220 75810
L70250 75760
L70270 75730
L70330 75700
L70470 75700
L70550 75730
" />
<path d="M70810 76290
L70810 75900
" />
<path d="M70810 75700
L70780 75730
L70810 75760
L70840 75730
L70810 75700
L70810 75760
" />
<path d="M71030 75900
L71340 75900
L71030 76290
L71340 76290
" />
<path d="M71790 76260
L71730 76290
L71620 76290
L71570 76260
L71540 76210
L71540 75980
L71570 75930
L71620 75900
L71730 75900
L71790 75930
L71820 75980
L71820 76040
L71540 76100
" />
<path d="M72070 76240
L72100 76260
L72070 76290
L72040 76260
L72070 76240
L72070 76290
" />
<path d="M72070 75930
L72100 75950
L72070 75980
L72040 75950
L72070 75930
L72070 75980
" />
<path d="M72770 76120
L73060 76120
" />
<path d="M72720 76290
L72910 75700
L73110 76290
" />
<path d="M73560 75900
L73560 76290
" />
<path d="M73420 75670
L73280 76100
L73650 76100
" />
</g>
<g style="fill:#840000; fill-opacity:0.0; 
stroke:#840000; stroke-width:100; stroke-opacity:1; 
stroke-linecap:round; stroke-linejoin:round;">
</g>
<g style="fill:#840000; fill-opacity:0.0; 
stroke:#840000; stroke-width:60; stroke-opacity:1; 
stroke-linecap:round; stroke-linejoin:round;">
<text x="103540" y="77420"
textLength="3910" font-size="780" lengthAdjust="spacingAndGlyphs"
text-anchor="start" opacity="0">Id: 3/10</text>
<path d="M103710 77390
L103710 76800
" />
<path d="M104240 77390
L104240 76800
" />
<path d="M104240 77360
L104180 77390
L104070 77390
L104010 77360
L103990 77340
L103960 77280
L103960 77110
L103990 77050
L104010 77030
L104070 77000
L104180 77000
L104240 77030
" />
<path d="M104520 77340
L104550 77360
L104520 77390
L104490 77360
L104520 77340
L104520 77390
" />
<path d="M104520 77030
L104550 77050
L104520 77080
L104490 77050
L104520 77030
L104520 77080
" />
<path d="M105190 76800
L105560 76800
L105360 77030
L105450 77030
L105500 77050
L105530 77080
L105560 77140
L105560 77280
L105530 77340
L105500 77360
L105450 77390
L105280 77390
L105220 77360
L105190 77340
" />
<path d="M106230 76770
L105730 77530
" />
<path d="M106740 77390
L106400 77390
" />
<path d="M106570 77390
L106570 76800
L106520 76890
L106460 76940
L106400 76970
" />
<path d="M107110 76800
L107160 76800
L107220 76830
L107250 76860
L107270 76910
L107300 77030
L107300 77170
L107270 77280
L107250 77340
L107220 77360
L107160 77390
L107110 77390
L107050 77360
L107020 77340
L106990 77280
L106960 77170
L106960 77030
L106990 76910
L107020 76860
L107050 76830
L107110 76800
" />
</g>
<g style="fill:#840000; fill-opacity:0.0; 
stroke:#840000; stroke-width:100; stroke-opacity:1; 
stroke-linecap:round; stroke-linejoin:round;">
</g>
<g style="fill:#840000; fill-opacity:0.0; 
stroke:#840000; stroke-width:60; stroke-opacity:1; 
stroke-linecap:round; stroke-linejoin:round;">
<path d="M69690 73820
L112210 73820
" />
</g>
<g style="fill:#840000; fill-opacity:0.0; 
stroke:#840000; stroke-width:100; stroke-opacity:1; 
stroke-linecap:round; stroke-linejoin:round;">
</g>
<g style="fill:#840000; fill-opacity:0.0; 
stroke:#840000; stroke-width:160; stroke-opacity:1; 
stroke-linecap:round; stroke-linejoin:round;">
<text x="70080" y="74920"
textLength="3710" font-size="1050" lengthAdjust="spacingAndGlyphs"
text-anchor="start" opacity="0">Title: </text>
<path d="M70360 74090
L70810 74090
" />
<path d="M70480 74880
L70580 74090
" />
<path d="M70970 74880
L71040 74360
" />
<path d="M71070 74090
L71030 74130
L71060 74170
L71110 74130
L71070 74090
L71060 74170
" />
<path d="M71300 74360
L71600 74360
" />
<path d="M71450 74090
L71360 74770
L71390 74840
L71460 74880
L71540 74880
" />
<path d="M71910 74880
L71840 74840
L71820 74770
L71900 74090
" />
<path d="M72520 74840
L72440 74880
L72290 74880
L72220 74840
L72190 74770
L72230 74470
L72280 74390
L72360 74360
L72510 74360
L72580 74390
L72610 74470
L72600 74540
L72210 74620
" />
<path d="M72900 74810
L72930 74840
L72890 74880
L72860 74840
L72900 74810
L72890 74880
" />
<path d="M72950 74390
L72990 74430
L72940 74470
L72910 74430
L72950 74390
L72940 74470
" />
</g>
<g style="fill:#840000; fill-opacity:0.0; 
stroke:#840000; stroke-width:100; stroke-opacity:1; 
stroke-linecap:round; stroke-linejoin:round;">
</g>
<g style="fill:#840000; fill-opacity:0.0; 
stroke:#840000; stroke-width:60; stroke-opacity:1; 
stroke-linecap:round; stroke-linejoin:round;">
<text x="70080" y="73400"
textLength="10600" font-size="780" lengthAdjust="spacingAndGlyphs"
text-anchor="start" opacity="0">File: PowerFiltering.sch</text>
<path d="M70440 73060
L70250 73060
" />
<path d="M70250 73370
L70250 72780
L70530 72780
" />
<path d="M70750 73370
L70750 72980
" />
<path d="M70750 72780
L70720 72810
L70750 72840
L70780 72810
L70750 72780
L70750 72840
" />
<path d="M71120 73370
L71060 73340
L71030 73290
L71030 72780
" />
<path d="M71570 73340
L71510 73370
L71400 73370
L71340 73340
L71310 73290
L71310 73060
L71340 73010
L71400 72980
L71510 72980
L71570 73010
L71590 73060
L71590 73120
L71310 73180
" />
<path d="M71850 73320
L71880 73340
L71850 73370
L71820 73340
L71850 73320
L71850 73370
" />
<path d="M71850 73010
L71880 73030
L71850 73060
L71820 73030
L71850 73010
L71850 73060
" />
<path d="M72580 73370
L72580 72780
L72800 72780
L72860 72810
L72890 72840
L72910 72890
L72910 72980
L72890 73030
L72860 73060
L72800 73090
L72580 73090
" />
<path d="M73250 73370
L73200 73340
L73170 73320
L73140 73260
L73140 73090
L73170 73030
L73200 73010
L73250 72980
L73340 72980
L73390 73010
L73420 73030
L73450 73090
L73450 73260
L73420 73320
L73390 73340
L73340 73370
L73250 73370
" />
<path d="M73650 72980
L73760 73370
L73870 73090
L73980 73370
L74090 72980
" />
<path d="M74540 73340
L74490 73370
L74380 73370
L74320 73340
L74290 73290
L74290 73060
L74320 73010
L74380 72980
L74490 72980
L74540 73010
L74570 73060
L74570 73120
L74290 73180
" />
<path d="M74830 73370
L74830 72980
" />
<path d="M74830 73090
L74850 73030
L74880 73010
L74940 72980
L74990 72980
" />
<path d="M75390 73060
L75190 73060
" />
<path d="M75190 73370
L75190 72780
L75470 72780
" />
<path d="M75700 73370
L75700 72980
" />
<path d="M75700 72780
L75670 72810
L75700 72840
L75720 72810
L75700 72780
L75700 72840
" />
<path d="M76060 73370
L76010 73340
L75980 73290
L75980 72780
" />
<path d="M76200 72980
L76430 72980
" />
<path d="M76290 72780
L76290 73290
L76310 73340
L76370 73370
L76430 73370
" />
<path d="M76850 73340
L76790 73370
L76680 73370
L76620 73340
L76600 73290
L76600 73060
L76620 73010
L76680 72980
L76790 72980
L76850 73010
L76880 73060
L76880 73120
L76600 73180
" />
<path d="M77130 73370
L77130 72980
" />
<path d="M77130 73090
L77160 73030
L77190 73010
L77240 72980
L77300 72980
" />
<path d="M77490 73370
L77490 72980
" />
<path d="M77490 72780
L77470 72810
L77490 72840
L77520 72810
L77490 72780
L77490 72840
" />
<path d="M77780 72980
L77780 73370
" />
<path d="M77780 73030
L77800 73010
L77860 72980
L77940 72980
L78000 73010
L78030 73060
L78030 73370
" />
<path d="M78560 72980
L78560 73460
L78530 73510
L78510 73540
L78450 73570
L78370 73570
L78310 73540
" />
<path d="M78560 73340
L78510 73370
L78390 73370
L78340 73340
L78310 73320
L78280 73260
L78280 73090
L78310 73030
L78340 73010
L78390 72980
L78510 72980
L78560 73010
" />
<path d="M78840 73320
L78870 73340
L78840 73370
L78810 73340
L78840 73320
L78840 73370
" />
<path d="M79100 73340
L79150 73370
L79260 73370
L79320 73340
L79350 73290
L79350 73260
L79320 73200
L79260 73180
L79180 73180
L79120 73150
L79100 73090
L79100 73060
L79120 73010
L79180 72980
L79260 72980
L79320 73010
" />
<path d="M79850 73340
L79800 73370
L79690 73370
L79630 73340
L79600 73320
L79570 73260
L79570 73090
L79600 73030
L79630 73010
L79690 72980
L79800 72980
L79850 73010
" />
<path d="M80110 73370
L80110 72780
" />
<path d="M80360 73370
L80360 73060
L80330 73010
L80280 72980
L80190 72980
L80140 73010
L80110 73030
" />
</g>
<g style="fill:#840000; fill-opacity:0.0; 
stroke:#840000; stroke-width:100; stroke-opacity:1; 
stroke-linecap:round; stroke-linejoin:round;">
</g>
<g style="fill:#840000; fill-opacity:0.0; 
stroke:#840000; stroke-width:60; stroke-opacity:1; 
stroke-linecap:round; stroke-linejoin:round;">
<path d="M69690 71460
L112210 71460
" />
</g>
<g style="fill:#840000; fill-opacity:0.0; 
stroke:#840000; stroke-width:100; stroke-opacity:1; 
stroke-linecap:round; stroke-linejoin:round;">
</g>
<g style="fill:#840000; fill-opacity:0.0; 
stroke:#840000; stroke-width:60; stroke-opacity:1; 
stroke-linecap:round; stroke-linejoin:round;">
<text x="70080" y="72340"
textLength="17790" font-size="780" lengthAdjust="spacingAndGlyphs"
text-anchor="start" opacity="0">Sheet: /InputSignal/PwrFilter_CS5343/</text>
<path d="M70220 72280
L70300 72310
L70440 72310
L70500 72280
L70530 72260
L70550 72200
L70550 72140
L70530 72090
L70500 72060
L70440 72030
L70330 72000
L70270 71970
L70250 71950
L70220 71890
L70220 71830
L70250 71780
L70270 71750
L70330 71720
L70470 71720
L70550 71750
" />
<path d="M70810 72310
L70810 71720
" />
<path d="M71060 72310
L71060 72000
L71030 71950
L70980 71920
L70890 71920
L70840 71950
L70810 71970
" />
<path d="M71570 72280
L71510 72310
L71400 72310
L71340 72280
L71310 72230
L71310 72000
L71340 71950
L71400 71920
L71510 71920
L71570 71950
L71590 72000
L71590 72060
L71310 72120
" />
<path d="M72070 72280
L72020 72310
L71900 72310
L71850 72280
L71820 72230
L71820 72000
L71850 71950
L71900 71920
L72020 71920
L72070 71950
L72100 72000
L72100 72060
L71820 72120
" />
<path d="M72270 71920
L72490 71920
" />
<path d="M72350 71720
L72350 72230
L72380 72280
L72440 72310
L72490 72310
" />
<path d="M72690 72260
L72720 72280
L72690 72310
L72660 72280
L72690 72260
L72690 72310
" />
<path d="M72690 71950
L72720 71970
L72690 72000
L72660 71970
L72690 71950
L72690 72000
" />
<path d="M73840 71690
L73340 72450
" />
<path d="M74040 72310
L74040 71720
" />
<path d="M74320 71920
L74320 72310
" />
<path d="M74320 71970
L74350 71950
L74400 71920
L74490 71920
L74540 71950
L74570 72000
L74570 72310
" />
<path d="M74850 71920
L74850 72510
" />
<path d="M74850 71950
L74910 71920
L75020 71920
L75080 71950
L75110 71970
L75130 72030
L75130 72200
L75110 72260
L75080 72280
L75020 72310
L74910 72310
L74850 72280
" />
<path d="M75640 71920
L75640 72310
" />
<path d="M75390 71920
L75390 72230
L75420 72280
L75470 72310
L75560 72310
L75610 72280
L75640 72260
" />
<path d="M75840 71920
L76060 71920
" />
<path d="M75920 71720
L75920 72230
L75950 72280
L76010 72310
L76060 72310
" />
<path d="M76230 72280
L76310 72310
L76450 72310
L76510 72280
L76540 72260
L76570 72200
L76570 72140
L76540 72090
L76510 72060
L76450 72030
L76340 72000
L76290 71970
L76260 71950
L76230 71890
L76230 71830
L76260 71780
L76290 71750
L76340 71720
L76480 71720
L76570 71750
" />
<path d="M76820 72310
L76820 71920
" />
<path d="M76820 71720
L76790 71750
L76820 71780
L76850 71750
L76820 71720
L76820 71780
" />
<path d="M77350 71920
L77350 72400
L77330 72450
L77300 72480
L77240 72510
L77160 72510
L77100 72480
" />
<path d="M77350 72280
L77300 72310
L77190 72310
L77130 72280
L77100 72260
L77070 72200
L77070 72030
L77100 71970
L77130 71950
L77190 71920
L77300 71920
L77350 71950
" />
<path d="M77630 71920
L77630 72310
" />
<path d="M77630 71970
L77660 71950
L77720 71920
L77800 71920
L77860 71950
L77890 72000
L77890 72310
" />
<path d="M78420 72310
L78420 72000
L78390 71950
L78340 71920
L78220 71920
L78170 71950
" />
<path d="M78420 72280
L78370 72310
L78220 72310
L78170 72280
L78140 72230
L78140 72170
L78170 72120
L78220 72090
L78370 72090
L78420 72060
" />
<path d="M78790 72310
L78730 72280
L78700 72230
L78700 71720
" />
<path d="M79430 71690
L78930 72450
" />
<path d="M79630 72310
L79630 71720
L79850 71720
L79910 71750
L79940 71780
L79970 71830
L79970 71920
L79940 71970
L79910 72000
L79850 72030
L79630 72030
" />
<path d="M80160 71920
L80280 72310
L80390 72030
L80500 72310
L80610 71920
" />
<path d="M80840 72310
L80840 71920
" />
<path d="M80840 72030
L80870 71970
L80890 71950
L80950 71920
L81010 71920
" />
<path d="M81400 72000
L81200 72000
" />
<path d="M81200 72310
L81200 71720
L81480 71720
" />
<path d="M81710 72310
L81710 71920
" />
<path d="M81710 71720
L81680 71750
L81710 71780
L81740 71750
L81710 71720
L81710 71780
" />
<path d="M82070 72310
L82020 72280
L81990 72230
L81990 71720
" />
<path d="M82210 71920
L82440 71920
" />
<path d="M82300 71720
L82300 72230
L82330 72280
L82380 72310
L82440 72310
" />
<path d="M82860 72280
L82800 72310
L82690 72310
L82640 72280
L82610 72230
L82610 72000
L82640 71950
L82690 71920
L82800 71920
L82860 71950
L82890 72000
L82890 72060
L82610 72120
" />
<path d="M83140 72310
L83140 71920
" />
<path d="M83140 72030
L83170 71970
L83200 71950
L83250 71920
L83310 71920
" />
<path d="M83370 72370
L83820 72370
" />
<path d="M84290 72260
L84270 72280
L84180 72310
L84120 72310
L84040 72280
L83980 72230
L83960 72170
L83930 72060
L83930 71970
L83960 71860
L83980 71810
L84040 71750
L84120 71720
L84180 71720
L84270 71750
L84290 71780
" />
<path d="M84520 72280
L84600 72310
L84740 72310
L84800 72280
L84830 72260
L84860 72200
L84860 72140
L84830 72090
L84800 72060
L84740 72030
L84630 72000
L84570 71970
L84550 71950
L84520 71890
L84520 71830
L84550 71780
L84570 71750
L84630 71720
L84770 71720
L84860 71750
" />
<path d="M85390 71720
L85110 71720
L85080 72000
L85110 71970
L85160 71950
L85300 71950
L85360 71970
L85390 72000
L85420 72060
L85420 72200
L85390 72260
L85360 72280
L85300 72310
L85160 72310
L85110 72280
L85080 72260
" />
<path d="M85610 71720
L85980 71720
L85780 71950
L85870 71950
L85920 71970
L85950 72000
L85980 72060
L85980 72200
L85950 72260
L85920 72280
L85870 72310
L85700 72310
L85640 72280
L85610 72260
" />
<path d="M86480 71920
L86480 72310
" />
<path d="M86340 71690
L86200 72120
L86570 72120
" />
<path d="M86740 71720
L87100 71720
L86910 71950
L86990 71950
L87050 71970
L87070 72000
L87100 72060
L87100 72200
L87070 72260
L87050 72280
L86990 72310
L86820 72310
L86770 72280
L86740 72260
" />
<path d="M87780 71690
L87270 72450
" />
</g>
<g style="fill:#840000; fill-opacity:0.0; 
stroke:#840000; stroke-width:100; stroke-opacity:1; 
stroke-linecap:round; stroke-linejoin:round;">
</g>
<g style="fill:#840000; fill-opacity:0.0; 
stroke:#840000; stroke-width:60; stroke-opacity:1; 
stroke-linecap:round; stroke-linejoin:round;">
<path d="M77560 75400
L77560 76580
" />
</g>
<g style="fill:#840000; fill-opacity:0.0; 
stroke:#840000; stroke-width:100; stroke-opacity:1; 
stroke-linecap:round; stroke-linejoin:round;">
</g>
<g style="fill:#840000; fill-opacity:0.0; 
stroke:#840000; stroke-width:60; stroke-opacity:1; 
stroke-linecap:round; stroke-linejoin:round;">
<path d="M102760 75400
L102760 77960
" />
</g>
<g style="fill:#840000; fill-opacity:0.0; 
stroke:#840000; stroke-width:0; stroke-opacity:1; 
stroke-linecap:round; stroke-linejoin:round;">
<g >
</g>
<g style="fill:#840000; fill-opacity:0.0; 
stroke:#840000; stroke-width:200; stroke-opacity:1; 
stroke-linecap:round; stroke-linejoin:round;">
<path style="fill:#840000; fill-opacity:0.0; 
stroke:#840000; stroke-width:200; stroke-opacity:1; 
stroke-linecap:round; stroke-linejoin:round;fill:none"
d="M 41950,37300
43550,37300
" /> 
<path style="fill:#840000; fill-opacity:0.0; 
stroke:#840000; stroke-width:200; stroke-opacity:1; 
stroke-linecap:round; stroke-linejoin:round;fill:none"
d="M 41950,36700
43550,36700
" /> 
</g>
<g style="fill:#840000; fill-opacity:0.0; 
stroke:#840000; stroke-width:60; stroke-opacity:1; 
stroke-linecap:round; stroke-linejoin:round;">
<path d="M42750 36600
L42750 35500
" />
<path d="M42750 37400
L42750 38500
" />
</g>
<g style="fill:#008484; fill-opacity:0.0; 
stroke:#008484; stroke-width:60; stroke-opacity:1; 
stroke-linecap:round; stroke-linejoin:round;">
<text x="44420" y="36810"
textLength="1040" font-size="660" lengthAdjust="spacingAndGlyphs"
text-anchor="middle" opacity="0">C7</text>
<path d="M44330 36730
L44310 36760
L44240 36780
L44190 36780
L44120 36760
L44070 36710
L44050 36660
L44020 36570
L44020 36500
L44050 36400
L44070 36350
L44120 36310
L44190 36280
L44240 36280
L44310 36310
L44330 36330
" />
<path d="M44500 36280
L44830 36280
L44620 36780
" />
<text x="45080" y="37720"
textLength="2370" font-size="660" lengthAdjust="spacingAndGlyphs"
text-anchor="middle" opacity="0">100nF</text>
<path d="M44300 37690
L44020 37690
" />
<path d="M44160 37690
L44160 37190
L44110 37260
L44060 37310
L44020 37330
" />
<path d="M44610 37190
L44660 37190
L44710 37220
L44730 37240
L44750 37290
L44780 37380
L44780 37500
L44750 37600
L44730 37640
L44710 37670
L44660 37690
L44610 37690
L44560 37670
L44540 37640
L44520 37600
L44490 37500
L44490 37380
L44520 37290
L44540 37240
L44560 37220
L44610 37190
" />
<path d="M45090 37190
L45130 37190
L45180 37220
L45210 37240
L45230 37290
L45250 37380
L45250 37500
L45230 37600
L45210 37640
L45180 37670
L45130 37690
L45090 37690
L45040 37670
L45020 37640
L44990 37600
L44970 37500
L44970 37380
L44990 37290
L45020 37240
L45040 37220
L45090 37190
" />
<path d="M45470 37360
L45470 37690
" />
<path d="M45470 37410
L45490 37380
L45540 37360
L45610 37360
L45660 37380
L45680 37430
L45680 37690
" />
<path d="M46090 37430
L45920 37430
" />
<path d="M45920 37690
L45920 37190
L46160 37190
" />
</g>
</g>
<g style="fill:#008484; fill-opacity:0.0; 
stroke:#008484; stroke-width:0; stroke-opacity:1; 
stroke-linecap:round; stroke-linejoin:round;">
<g >
</g>
<g style="fill:#840000; fill-opacity:0.0; 
stroke:#840000; stroke-width:0; stroke-opacity:1; 
stroke-linecap:round; stroke-linejoin:round;">
</g>
<g style="fill:#840000; fill-opacity:0.0; 
stroke:#840000; stroke-width:200; stroke-opacity:1; 
stroke-linecap:round; stroke-linejoin:round;">
<path style="fill:#840000; fill-opacity:0.0; 
stroke:#840000; stroke-width:200; stroke-opacity:1; 
stroke-linecap:round; stroke-linejoin:round;fill:none"
d="M 55950,33800
57550,33800
" /> 
<path style="fill:#840000; fill-opacity:0.0; 
stroke:#840000; stroke-width:200; stroke-opacity:1; 
stroke-linecap:round; stroke-linejoin:round;fill:none"
d="M 55950,33200
57550,33200
" /> 
</g>
<g style="fill:#840000; fill-opacity:0.0; 
stroke:#840000; stroke-width:60; stroke-opacity:1; 
stroke-linecap:round; stroke-linejoin:round;">
<path d="M56750 33100
L56750 32000
" />
<path d="M56750 33900
L56750 35000
" />
</g>
<g style="fill:#008484; fill-opacity:0.0; 
stroke:#008484; stroke-width:60; stroke-opacity:1; 
stroke-linecap:round; stroke-linejoin:round;">
<text x="58420" y="33310"
textLength="1040" font-size="660" lengthAdjust="spacingAndGlyphs"
text-anchor="middle" opacity="0">C8</text>
<path d="M58330 33230
L58310 33260
L58240 33280
L58190 33280
L58120 33260
L58070 33210
L58050 33160
L58020 33070
L58020 33000
L58050 32900
L58070 32850
L58120 32810
L58190 32780
L58240 32780
L58310 32810
L58330 32830
" />
<path d="M58620 33000
L58570 32970
L58550 32950
L58520 32900
L58520 32880
L58550 32830
L58570 32810
L58620 32780
L58710 32780
L58760 32810
L58780 32830
L58810 32880
L58810 32900
L58780 32950
L58760 32970
L58710 33000
L58620 33000
L58570 33020
L58550 33040
L58520 33090
L58520 33190
L58550 33230
L58570 33260
L58620 33280
L58710 33280
L58760 33260
L58780 33230
L58810 33190
L58810 33090
L58780 33040
L58760 33020
L58710 33000
" />
<text x="59080" y="34220"
textLength="2370" font-size="660" lengthAdjust="spacingAndGlyphs"
text-anchor="middle" opacity="0">100nF</text>
<path d="M58300 34190
L58020 34190
" />
<path d="M58160 34190
L58160 33690
L58110 33760
L58060 33810
L58020 33830
" />
<path d="M58610 33690
L58660 33690
L58710 33720
L58730 33740
L58750 33790
L58780 33880
L58780 34000
L58750 34100
L58730 34140
L58710 34170
L58660 34190
L58610 34190
L58560 34170
L58540 34140
L58520 34100
L58490 34000
L58490 33880
L58520 33790
L58540 33740
L58560 33720
L58610 33690
" />
<path d="M59090 33690
L59130 33690
L59180 33720
L59210 33740
L59230 33790
L59250 33880
L59250 34000
L59230 34100
L59210 34140
L59180 34170
L59130 34190
L59090 34190
L59040 34170
L59020 34140
L58990 34100
L58970 34000
L58970 33880
L58990 33790
L59020 33740
L59040 33720
L59090 33690
" />
<path d="M59470 33860
L59470 34190
" />
<path d="M59470 33910
L59490 33880
L59540 33860
L59610 33860
L59660 33880
L59680 33930
L59680 34190
" />
<path d="M60090 33930
L59920 33930
" />
<path d="M59920 34190
L59920 33690
L60160 33690
" />
</g>
</g>
<g style="fill:#008484; fill-opacity:0.0; 
stroke:#008484; stroke-width:0; stroke-opacity:1; 
stroke-linecap:round; stroke-linejoin:round;">
<g >
</g>
<g style="fill:#840000; fill-opacity:0.0; 
stroke:#840000; stroke-width:0; stroke-opacity:1; 
stroke-linecap:round; stroke-linejoin:round;">
</g>
<g style="fill:#840000; fill-opacity:0.0; 
stroke:#840000; stroke-width:100; stroke-opacity:1; 
stroke-linecap:round; stroke-linejoin:round;">
<rect x="56350" y="40000" width="800" height="2000" rx="0" />
</g>
<g style="fill:#840000; fill-opacity:0.0; 
stroke:#840000; stroke-width:60; stroke-opacity:1; 
stroke-linecap:round; stroke-linejoin:round;">
<path d="M56750 40000
L56750 39500
" />
<path d="M56750 42000
L56750 42500
" />
</g>
<g style="fill:#008484; fill-opacity:0.0; 
stroke:#008484; stroke-width:60; stroke-opacity:1; 
stroke-linecap:round; stroke-linejoin:round;">
<text x="57970" y="40810"
textLength="1040" font-size="660" lengthAdjust="spacingAndGlyphs"
text-anchor="middle" opacity="0">R4</text>
<path d="M57880 40780
L57720 40540
" />
<path d="M57600 40780
L57600 40280
L57790 40280
L57830 40310
L57860 40330
L57880 40380
L57880 40450
L57860 40500
L57830 40520
L57790 40540
L57600 40540
" />
<path d="M58310 40450
L58310 40780
" />
<path d="M58190 40260
L58070 40610
L58380 40610
" />
<text x="58680" y="41720"
textLength="2460" font-size="660" lengthAdjust="spacingAndGlyphs"
text-anchor="middle" opacity="0">1R 1%</text>
<path d="M57850 41690
L57570 41690
" />
<path d="M57710 41690
L57710 41190
L57660 41260
L57620 41310
L57570 41330
" />
<path d="M58350 41690
L58190 41450
" />
<path d="M58070 41690
L58070 41190
L58260 41190
L58310 41220
L58330 41240
L58350 41290
L58350 41360
L58330 41410
L58310 41430
L58260 41450
L58070 41450
" />
<path d="M59210 41690
L58930 41690
" />
<path d="M59070 41690
L59070 41190
L59020 41260
L58970 41310
L58930 41330
" />
<path d="M59400 41690
L59780 41190
" />
<path d="M59470 41190
L59520 41220
L59540 41260
L59520 41310
L59470 41330
L59430 41310
L59400 41260
L59430 41220
L59470 41190
" />
<path d="M59760 41670
L59780 41620
L59760 41570
L59710 41550
L59660 41570
L59640 41620
L59660 41670
L59710 41690
L59760 41670
" />
</g>
</g>
<g style="fill:#008484; fill-opacity:0.0; 
stroke:#008484; stroke-width:0; stroke-opacity:1; 
stroke-linecap:round; stroke-linejoin:round;">
<g >
</g>
<g style="fill:#840000; fill-opacity:0.0; 
stroke:#840000; stroke-width:0; stroke-opacity:1; 
stroke-linecap:round; stroke-linejoin:round;">
</g>
<g style="fill:#840000; fill-opacity:0.0; 
stroke:#840000; stroke-width:60; stroke-opacity:1; 
stroke-linecap:round; stroke-linejoin:round;">
<path style="fill:#840000; fill-opacity:0.0; 
stroke:#840000; stroke-width:60; stroke-opacity:1; 
stroke-linecap:round; stroke-linejoin:round;fill:none"
d="M 39000,49250
39000,49750
39500,49750
39000,50250
38500,49750
39000,49750
" /> 
</g>
<g style="fill:#008484; fill-opacity:0.0; 
stroke:#008484; stroke-width:60; stroke-opacity:1; 
stroke-linecap:round; stroke-linejoin:round;">
<text x="39050" y="51250"
textLength="2060" font-size="660" lengthAdjust="spacingAndGlyphs"
text-anchor="middle" opacity="0">GNDS</text>
<path d="M38430 50750
L38380 50720
L38310 50720
L38240 50750
L38190 50790
L38160 50840
L38140 50940
L38140 51010
L38160 51100
L38190 51150
L38240 51200
L38310 51220
L38350 51220
L38430 51200
L38450 51170
L38450 51010
L38350 51010
" />
<path d="M38660 51220
L38660 50720
L38950 51220
L38950 50720
" />
<path d="M39190 51220
L39190 50720
L39310 50720
L39380 50750
L39430 50790
L39450 50840
L39470 50940
L39470 51010
L39450 51100
L39430 51150
L39380 51200
L39310 51220
L39190 51220
" />
<path d="M39660 51200
L39740 51220
L39850 51220
L39900 51200
L39930 51170
L39950 51130
L39950 51080
L39930 51030
L39900 51010
L39850 50980
L39760 50960
L39710 50940
L39690 50910
L39660 50860
L39660 50820
L39690 50770
L39710 50750
L39760 50720
L39880 50720
L39950 50750
" />
</g>
</g>
<g style="fill:#008484; fill-opacity:0.0; 
stroke:#008484; stroke-width:0; stroke-opacity:1; 
stroke-linecap:round; stroke-linejoin:round;">
<g >
</g>
<g style="fill:#840000; fill-opacity:0.0; 
stroke:#840000; stroke-width:0; stroke-opacity:1; 
stroke-linecap:round; stroke-linejoin:round;">
</g>
<g style="fill:#840000; fill-opacity:0.0; 
stroke:#840000; stroke-width:60; stroke-opacity:1; 
stroke-linecap:round; stroke-linejoin:round;">
<path style="fill:#840000; fill-opacity:0.0; 
stroke:#840000; stroke-width:60; stroke-opacity:1; 
stroke-linecap:round; stroke-linejoin:round;fill:none"
d="M 49750,29000
49940,29000
" /> 
<path style="fill:#840000; fill-opacity:0.0; 
stroke:#840000; stroke-width:60; stroke-opacity:1; 
stroke-linecap:round; stroke-linejoin:round;fill:none"
d="M 50600,29000
50760,29000
" /> 
<path style="fill:#840000; fill-opacity:0.0; 
stroke:#840000; stroke-width:60; stroke-opacity:1; 
stroke-linecap:round; stroke-linejoin:round;fill:none"
d="M 50360,28280
50840,28560
50170,29720
49690,29440
Z" /> 
<path d="M50750 29000
L51250 29000
" />
<path d="M49750 29000
L49250 29000
" />
</g>
<g style="fill:#008484; fill-opacity:0.0; 
stroke:#008484; stroke-width:60; stroke-opacity:1; 
stroke-linecap:round; stroke-linejoin:round;">
<text x="50250" y="26900"
textLength="1460" font-size="660" lengthAdjust="spacingAndGlyphs"
text-anchor="middle" opacity="0">FB1</text>
<path d="M49830 26610
L49660 26610
" />
<path d="M49660 26870
L49660 26370
L49900 26370
" />
<path d="M50260 26610
L50330 26630
L50350 26660
L50380 26700
L50380 26780
L50350 26820
L50330 26850
L50280 26870
L50090 26870
L50090 26370
L50260 26370
L50300 26400
L50330 26420
L50350 26470
L50350 26510
L50330 26560
L50300 26590
L50260 26610
L50090 26610
" />
<path d="M50850 26870
L50570 26870
" />
<path d="M50710 26870
L50710 26370
L50660 26440
L50610 26490
L50570 26510
" />
<text x="50250" y="27810"
textLength="1490" font-size="660" lengthAdjust="spacingAndGlyphs"
text-anchor="middle" opacity="0">600</text>
<path d="M49860 27280
L49770 27280
L49720 27310
L49700 27330
L49650 27400
L49630 27500
L49630 27690
L49650 27730
L49670 27760
L49720 27780
L49820 27780
L49860 27760
L49890 27730
L49910 27690
L49910 27570
L49890 27520
L49860 27500
L49820 27470
L49720 27470
L49670 27500
L49650 27520
L49630 27570
" />
<path d="M50220 27280
L50270 27280
L50320 27310
L50340 27330
L50360 27380
L50390 27470
L50390 27590
L50360 27690
L50340 27730
L50320 27760
L50270 27780
L50220 27780
L50170 27760
L50150 27730
L50130 27690
L50100 27590
L50100 27470
L50130 27380
L50150 27330
L50170 27310
L50220 27280
" />
<path d="M50700 27280
L50750 27280
L50790 27310
L50820 27330
L50840 27380
L50860 27470
L50860 27590
L50840 27690
L50820 27730
L50790 27760
L50750 27780
L50700 27780
L50650 27760
L50630 27730
L50600 27690
L50580 27590
L50580 27470
L50600 27380
L50630 27330
L50650 27310
L50700 27280
" />
</g>
</g>
<g style="fill:#008484; fill-opacity:0.0; 
stroke:#008484; stroke-width:0; stroke-opacity:1; 
stroke-linecap:round; stroke-linejoin:round;">
<g >
</g>
<g style="fill:#840000; fill-opacity:0.0; 
stroke:#840000; stroke-width:0; stroke-opacity:1; 
stroke-linecap:round; stroke-linejoin:round;">
</g>
<g style="fill:#840000; fill-opacity:0.0; 
stroke:#840000; stroke-width:200; stroke-opacity:1; 
stroke-linecap:round; stroke-linejoin:round;">
<path style="fill:#840000; fill-opacity:0.0; 
stroke:#840000; stroke-width:200; stroke-opacity:1; 
stroke-linecap:round; stroke-linejoin:round;fill:none"
d="M 67450,37300
69050,37300
" /> 
<path style="fill:#840000; fill-opacity:0.0; 
stroke:#840000; stroke-width:200; stroke-opacity:1; 
stroke-linecap:round; stroke-linejoin:round;fill:none"
d="M 67450,36700
69050,36700
" /> 
</g>
<g style="fill:#840000; fill-opacity:0.0; 
stroke:#840000; stroke-width:60; stroke-opacity:1; 
stroke-linecap:round; stroke-linejoin:round;">
<path d="M68250 36600
L68250 35500
" />
<path d="M68250 37400
L68250 38500
" />
</g>
<g style="fill:#008484; fill-opacity:0.0; 
stroke:#008484; stroke-width:60; stroke-opacity:1; 
stroke-linecap:round; stroke-linejoin:round;">
<text x="69920" y="36810"
textLength="1040" font-size="660" lengthAdjust="spacingAndGlyphs"
text-anchor="middle" opacity="0">C9</text>
<path d="M69830 36730
L69810 36760
L69740 36780
L69690 36780
L69620 36760
L69570 36710
L69550 36660
L69520 36570
L69520 36500
L69550 36400
L69570 36350
L69620 36310
L69690 36280
L69740 36280
L69810 36310
L69830 36330
" />
<path d="M70070 36780
L70170 36780
L70210 36760
L70240 36730
L70280 36660
L70310 36570
L70310 36380
L70280 36330
L70260 36310
L70210 36280
L70120 36280
L70070 36310
L70050 36330
L70020 36380
L70020 36500
L70050 36540
L70070 36570
L70120 36590
L70210 36590
L70260 36570
L70280 36540
L70310 36500
" />
<text x="70580" y="37720"
textLength="2370" font-size="660" lengthAdjust="spacingAndGlyphs"
text-anchor="middle" opacity="0">100nF</text>
<path d="M69800 37690
L69520 37690
" />
<path d="M69660 37690
L69660 37190
L69610 37260
L69560 37310
L69520 37330
" />
<path d="M70110 37190
L70160 37190
L70210 37220
L70230 37240
L70250 37290
L70280 37380
L70280 37500
L70250 37600
L70230 37640
L70210 37670
L70160 37690
L70110 37690
L70060 37670
L70040 37640
L70020 37600
L69990 37500
L69990 37380
L70020 37290
L70040 37240
L70060 37220
L70110 37190
" />
<path d="M70590 37190
L70630 37190
L70680 37220
L70710 37240
L70730 37290
L70750 37380
L70750 37500
L70730 37600
L70710 37640
L70680 37670
L70630 37690
L70590 37690
L70540 37670
L70520 37640
L70490 37600
L70470 37500
L70470 37380
L70490 37290
L70520 37240
L70540 37220
L70590 37190
" />
<path d="M70970 37360
L70970 37690
" />
<path d="M70970 37410
L70990 37380
L71040 37360
L71110 37360
L71160 37380
L71180 37430
L71180 37690
" />
<path d="M71590 37430
L71420 37430
" />
<path d="M71420 37690
L71420 37190
L71660 37190
" />
</g>
</g>
<g style="fill:#008484; fill-opacity:0.0; 
stroke:#008484; stroke-width:60; stroke-opacity:1; 
stroke-linecap:round; stroke-linejoin:round;">
</g>
<g style="fill:#008400; fill-opacity:0.0; 
stroke:#008400; stroke-width:60; stroke-opacity:1; 
stroke-linecap:round; stroke-linejoin:round;">
<path d="M42750 46250
L42750 38500
" />
<path d="M38500 29000
L42750 29000
" />
<path d="M68250 29000
L72250 29000
" />
<path d="M39000 46250
L39000 49250
" />
<path d="M42750 46250
L39000 46250
" />
<path d="M51250 29000
L56750 29000
" />
<path d="M56750 46250
L42750 46250
" />
<path d="M56750 42500
L56750 46250
" />
<path d="M68250 46250
L56750 46250
" />
<path d="M68250 38500
L68250 46250
" />
<path d="M68250 35500
L68250 29000
" />
<path d="M56750 29000
L68250 29000
" />
<path d="M56750 32000
L56750 29000
" />
<path d="M42750 29000
L49250 29000
" />
<path d="M42750 35500
L42750 29000
" />
<path d="M56750 39500
L56750 35000
" />
</g>
<g style="fill:#848400; fill-opacity:0.0; 
stroke:#848400; stroke-width:60; stroke-opacity:1; 
stroke-linecap:round; stroke-linejoin:round;">
<text x="72850" y="29250"
textLength="3300" font-size="660" lengthAdjust="spacingAndGlyphs"
text-anchor="start" opacity="0">VDD_OUT</text>
<path d="M72920 28720
L73090 29220
L73260 28720
" />
<path d="M73420 29220
L73420 28720
L73540 28720
L73610 28750
L73660 28790
L73680 28840
L73710 28940
L73710 29010
L73680 29100
L73660 29150
L73610 29200
L73540 29220
L73420 29220
" />
<path d="M73920 29220
L73920 28720
L74040 28720
L74110 28750
L74160 28790
L74180 28840
L74210 28940
L74210 29010
L74180 29100
L74160 29150
L74110 29200
L74040 29220
L73920 29220
" />
<path d="M74300 29270
L74680 29270
" />
<path d="M74900 28720
L74990 28720
L75040 28750
L75090 28790
L75110 28890
L75110 29050
L75090 29150
L75040 29200
L74990 29220
L74900 29220
L74850 29200
L74800 29150
L74780 29050
L74780 28890
L74800 28790
L74850 28750
L74900 28720
" />
<path d="M75330 28720
L75330 29130
L75350 29170
L75380 29200
L75420 29220
L75520 29220
L75570 29200
L75590 29170
L75610 29130
L75610 28720
" />
<path d="M75780 28720
L76070 28720
" />
<path d="M75920 29220
L75920 28720
" />
</g>
<g style="fill:#848400; fill-opacity:0.0; 
stroke:#848400; stroke-width:100; stroke-opacity:1; 
stroke-linecap:round; stroke-linejoin:round;">
<path style="fill:#848400; fill-opacity:0.0; 
stroke:#848400; stroke-width:100; stroke-opacity:1; 
stroke-linecap:round; stroke-linejoin:round;fill:none"
d="M 72250,29000
72500,29250
72750,29250
72750,28750
72500,28750
Z" /> 
</g>
<g style="fill:#848400; fill-opacity:0.0; 
stroke:#848400; stroke-width:60; stroke-opacity:1; 
stroke-linecap:round; stroke-linejoin:round;">
<text x="37900" y="29250"
textLength="2630" font-size="660" lengthAdjust="spacingAndGlyphs"
text-anchor="end" opacity="0">VDD_IN</text>
<path d="M35340 28720
L35510 29220
L35670 28720
" />
<path d="M35840 29220
L35840 28720
L35960 28720
L36030 28750
L36080 28790
L36100 28840
L36130 28940
L36130 29010
L36100 29100
L36080 29150
L36030 29200
L35960 29220
L35840 29220
" />
<path d="M36340 29220
L36340 28720
L36460 28720
L36530 28750
L36580 28790
L36600 28840
L36630 28940
L36630 29010
L36600 29100
L36580 29150
L36530 29200
L36460 29220
L36340 29220
" />
<path d="M36720 29270
L37100 29270
" />
<path d="M37220 29220
L37220 28720
" />
<path d="M37460 29220
L37460 28720
L37750 29220
L37750 28720
" />
</g>
<g style="fill:#848400; fill-opacity:0.0; 
stroke:#848400; stroke-width:100; stroke-opacity:1; 
stroke-linecap:round; stroke-linejoin:round;">
<path style="fill:#848400; fill-opacity:0.0; 
stroke:#848400; stroke-width:100; stroke-opacity:1; 
stroke-linecap:round; stroke-linejoin:round;fill:none"
d="M 38500,29000
38250,28750
38000,28750
38000,29250
38250,29250
Z" /> 
</g>
<g style="fill:#848400; fill-opacity:0.0; 
stroke:#848400; stroke-width:0; stroke-opacity:1; 
stroke-linecap:round; stroke-linejoin:round;">
</g>
<g style="fill:#008400; fill-opacity:0.0; 
stroke:#008400; stroke-width:0; stroke-opacity:1; 
stroke-linecap:round; stroke-linejoin:round;">
</g>
<g style="fill:#008400; fill-opacity:1.0; 
stroke:#008400; stroke-width:100; stroke-opacity:1; 
stroke-linecap:round; stroke-linejoin:round;">
<circle cx="56750" cy="46250" r="200" /> 
</g>
<g style="fill:#008400; fill-opacity:1.0; 
stroke:#008400; stroke-width:0; stroke-opacity:1; 
stroke-linecap:round; stroke-linejoin:round;">
</g>
<g style="fill:#008400; fill-opacity:1.0; 
stroke:#008400; stroke-width:100; stroke-opacity:1; 
stroke-linecap:round; stroke-linejoin:round;">
<circle cx="68250" cy="29000" r="200" /> 
</g>
<g style="fill:#008400; fill-opacity:1.0; 
stroke:#008400; stroke-width:0; stroke-opacity:1; 
stroke-linecap:round; stroke-linejoin:round;">
</g>
<g style="fill:#008400; fill-opacity:1.0; 
stroke:#008400; stroke-width:100; stroke-opacity:1; 
stroke-linecap:round; stroke-linejoin:round;">
<circle cx="42750" cy="29000" r="200" /> 
</g>
<g style="fill:#008400; fill-opacity:1.0; 
stroke:#008400; stroke-width:0; stroke-opacity:1; 
stroke-linecap:round; stroke-linejoin:round;">
</g>
<g style="fill:#008400; fill-opacity:1.0; 
stroke:#008400; stroke-width:100; stroke-opacity:1; 
stroke-linecap:round; stroke-linejoin:round;">
<circle cx="56750" cy="29000" r="200" /> 
</g>
<g style="fill:#008400; fill-opacity:1.0; 
stroke:#008400; stroke-width:0; stroke-opacity:1; 
stroke-linecap:round; stroke-linejoin:round;">
</g>
<g style="fill:#008400; fill-opacity:1.0; 
stroke:#008400; stroke-width:100; stroke-opacity:1; 
stroke-linecap:round; stroke-linejoin:round;">
<circle cx="42750" cy="46250" r="200" /> 
</g> 
</svg>
