<?xml version="1.0" standalone="no"?>
 <!DOCTYPE svg PUBLIC "-//W3C//DTD SVG 1.1//EN" 
 "http://www.w3.org/Graphics/SVG/1.1/DTD/svg11.dtd"> 
<svg
  xmlns:svg="http://www.w3.org/2000/svg"
  xmlns="http://www.w3.org/2000/svg"
  xmlns:xlink="http://www.w3.org/1999/xlink"
  version="1.1"
  width="29.700220cm" height="21.000720cm" viewBox="0 0 116930 82680">
<title>SVG Picture created as PSU-PSU.svg date 2020/10/18 12:47:08 </title>
  <desc>Picture generated by Eeschema-SVG </desc>
<g style="fill:#000000; fill-opacity:1;stroke:#000000; stroke-opacity:1;
stroke-linecap:round; stroke-linejoin:round;"
 transform="translate(0 0) scale(1 1)">
</g>
<g style="fill:#000000; fill-opacity:0.0; 
stroke:#000000; stroke-width:-10; stroke-opacity:1; 
stroke-linecap:round; stroke-linejoin:round;">
</g>
<g style="fill:#840000; fill-opacity:0.0; 
stroke:#840000; stroke-width:-10; stroke-opacity:1; 
stroke-linecap:round; stroke-linejoin:round;">
</g>
<g style="fill:#840000; fill-opacity:0.0; 
stroke:#840000; stroke-width:100; stroke-opacity:1; 
stroke-linecap:round; stroke-linejoin:round;">
</g>
<g style="fill:#840000; fill-opacity:0.0; 
stroke:#840000; stroke-width:60; stroke-opacity:1; 
stroke-linecap:round; stroke-linejoin:round;">
<rect x="69690" y="65360" width="42520" height="12600" rx="0" />
</g>
<g style="fill:#840000; fill-opacity:0.0; 
stroke:#840000; stroke-width:100; stroke-opacity:1; 
stroke-linecap:round; stroke-linejoin:round;">
</g>
<g style="fill:#840000; fill-opacity:0.0; 
stroke:#840000; stroke-width:60; stroke-opacity:1; 
stroke-linecap:round; stroke-linejoin:round;">
<rect x="3940" y="3940" width="109050" height="74800" rx="0" />
</g>
<g style="fill:#840000; fill-opacity:0.0; 
stroke:#840000; stroke-width:100; stroke-opacity:1; 
stroke-linecap:round; stroke-linejoin:round;">
</g>
<g style="fill:#840000; fill-opacity:0.0; 
stroke:#840000; stroke-width:60; stroke-opacity:1; 
stroke-linecap:round; stroke-linejoin:round;">
<rect x="4720" y="4720" width="107490" height="73240" rx="0" />
</g>
<g style="fill:#840000; fill-opacity:0.0; 
stroke:#840000; stroke-width:100; stroke-opacity:1; 
stroke-linecap:round; stroke-linejoin:round;">
</g>
<g style="fill:#840000; fill-opacity:0.0; 
stroke:#840000; stroke-width:60; stroke-opacity:1; 
stroke-linecap:round; stroke-linejoin:round;">
<path d="M23620 4720
L23620 3940
" />
</g>
<g style="fill:#840000; fill-opacity:0.0; 
stroke:#840000; stroke-width:100; stroke-opacity:1; 
stroke-linecap:round; stroke-linejoin:round;">
</g>
<g style="fill:#840000; fill-opacity:0.0; 
stroke:#840000; stroke-width:60; stroke-opacity:1; 
stroke-linecap:round; stroke-linejoin:round;">
<path d="M43310 4720
L43310 3940
" />
</g>
<g style="fill:#840000; fill-opacity:0.0; 
stroke:#840000; stroke-width:100; stroke-opacity:1; 
stroke-linecap:round; stroke-linejoin:round;">
</g>
<g style="fill:#840000; fill-opacity:0.0; 
stroke:#840000; stroke-width:60; stroke-opacity:1; 
stroke-linecap:round; stroke-linejoin:round;">
<path d="M62990 4720
L62990 3940
" />
</g>
<g style="fill:#840000; fill-opacity:0.0; 
stroke:#840000; stroke-width:100; stroke-opacity:1; 
stroke-linecap:round; stroke-linejoin:round;">
</g>
<g style="fill:#840000; fill-opacity:0.0; 
stroke:#840000; stroke-width:60; stroke-opacity:1; 
stroke-linecap:round; stroke-linejoin:round;">
<path d="M82680 4720
L82680 3940
" />
</g>
<g style="fill:#840000; fill-opacity:0.0; 
stroke:#840000; stroke-width:100; stroke-opacity:1; 
stroke-linecap:round; stroke-linejoin:round;">
</g>
<g style="fill:#840000; fill-opacity:0.0; 
stroke:#840000; stroke-width:60; stroke-opacity:1; 
stroke-linecap:round; stroke-linejoin:round;">
<path d="M102360 4720
L102360 3940
" />
</g>
<g style="fill:#840000; fill-opacity:0.0; 
stroke:#840000; stroke-width:100; stroke-opacity:1; 
stroke-linecap:round; stroke-linejoin:round;">
</g>
<g style="fill:#840000; fill-opacity:0.0; 
stroke:#840000; stroke-width:60; stroke-opacity:1; 
stroke-linecap:round; stroke-linejoin:round;">
<text x="13780" y="4580"
textLength="550" font-size="680" lengthAdjust="spacingAndGlyphs"
text-anchor="start" opacity="0">1</text>
<path d="M14190 4560
L13900 4560
" />
<path d="M14050 4560
L14050 4050
L14000 4120
L13950 4170
L13900 4190
" />
</g>
<g style="fill:#840000; fill-opacity:0.0; 
stroke:#840000; stroke-width:100; stroke-opacity:1; 
stroke-linecap:round; stroke-linejoin:round;">
</g>
<g style="fill:#840000; fill-opacity:0.0; 
stroke:#840000; stroke-width:60; stroke-opacity:1; 
stroke-linecap:round; stroke-linejoin:round;">
<text x="33460" y="4580"
textLength="550" font-size="680" lengthAdjust="spacingAndGlyphs"
text-anchor="start" opacity="0">2</text>
<path d="M33580 4090
L33610 4070
L33660 4050
L33780 4050
L33830 4070
L33850 4090
L33870 4140
L33870 4190
L33850 4260
L33560 4560
L33870 4560
" />
</g>
<g style="fill:#840000; fill-opacity:0.0; 
stroke:#840000; stroke-width:100; stroke-opacity:1; 
stroke-linecap:round; stroke-linejoin:round;">
</g>
<g style="fill:#840000; fill-opacity:0.0; 
stroke:#840000; stroke-width:60; stroke-opacity:1; 
stroke-linecap:round; stroke-linejoin:round;">
<text x="53150" y="4580"
textLength="550" font-size="680" lengthAdjust="spacingAndGlyphs"
text-anchor="start" opacity="0">3</text>
<path d="M53250 4050
L53560 4050
L53390 4240
L53470 4240
L53520 4260
L53540 4290
L53560 4340
L53560 4460
L53540 4510
L53520 4530
L53470 4560
L53320 4560
L53270 4530
L53250 4510
" />
</g>
<g style="fill:#840000; fill-opacity:0.0; 
stroke:#840000; stroke-width:100; stroke-opacity:1; 
stroke-linecap:round; stroke-linejoin:round;">
</g>
<g style="fill:#840000; fill-opacity:0.0; 
stroke:#840000; stroke-width:60; stroke-opacity:1; 
stroke-linecap:round; stroke-linejoin:round;">
<text x="72830" y="4580"
textLength="550" font-size="680" lengthAdjust="spacingAndGlyphs"
text-anchor="start" opacity="0">4</text>
<path d="M73200 4220
L73200 4560
" />
<path d="M73070 4020
L72950 4390
L73270 4390
" />
</g>
<g style="fill:#840000; fill-opacity:0.0; 
stroke:#840000; stroke-width:100; stroke-opacity:1; 
stroke-linecap:round; stroke-linejoin:round;">
</g>
<g style="fill:#840000; fill-opacity:0.0; 
stroke:#840000; stroke-width:60; stroke-opacity:1; 
stroke-linecap:round; stroke-linejoin:round;">
<text x="92520" y="4580"
textLength="550" font-size="680" lengthAdjust="spacingAndGlyphs"
text-anchor="start" opacity="0">5</text>
<path d="M92910 4050
L92670 4050
L92640 4290
L92670 4260
L92720 4240
L92840 4240
L92890 4260
L92910 4290
L92930 4340
L92930 4460
L92910 4510
L92890 4530
L92840 4560
L92720 4560
L92670 4530
L92640 4510
" />
</g>
<g style="fill:#840000; fill-opacity:0.0; 
stroke:#840000; stroke-width:100; stroke-opacity:1; 
stroke-linecap:round; stroke-linejoin:round;">
</g>
<g style="fill:#840000; fill-opacity:0.0; 
stroke:#840000; stroke-width:60; stroke-opacity:1; 
stroke-linecap:round; stroke-linejoin:round;">
<text x="112200" y="4580"
textLength="550" font-size="680" lengthAdjust="spacingAndGlyphs"
text-anchor="start" opacity="0">6</text>
<path d="M112570 4050
L112470 4050
L112420 4070
L112400 4090
L112350 4170
L112320 4260
L112320 4460
L112350 4510
L112370 4530
L112420 4560
L112520 4560
L112570 4530
L112590 4510
L112610 4460
L112610 4340
L112590 4290
L112570 4260
L112520 4240
L112420 4240
L112370 4260
L112350 4290
L112320 4340
" />
</g>
<g style="fill:#840000; fill-opacity:0.0; 
stroke:#840000; stroke-width:100; stroke-opacity:1; 
stroke-linecap:round; stroke-linejoin:round;">
</g>
<g style="fill:#840000; fill-opacity:0.0; 
stroke:#840000; stroke-width:60; stroke-opacity:1; 
stroke-linecap:round; stroke-linejoin:round;">
<path d="M23620 77960
L23620 78740
" />
</g>
<g style="fill:#840000; fill-opacity:0.0; 
stroke:#840000; stroke-width:100; stroke-opacity:1; 
stroke-linecap:round; stroke-linejoin:round;">
</g>
<g style="fill:#840000; fill-opacity:0.0; 
stroke:#840000; stroke-width:60; stroke-opacity:1; 
stroke-linecap:round; stroke-linejoin:round;">
<path d="M43310 77960
L43310 78740
" />
</g>
<g style="fill:#840000; fill-opacity:0.0; 
stroke:#840000; stroke-width:100; stroke-opacity:1; 
stroke-linecap:round; stroke-linejoin:round;">
</g>
<g style="fill:#840000; fill-opacity:0.0; 
stroke:#840000; stroke-width:60; stroke-opacity:1; 
stroke-linecap:round; stroke-linejoin:round;">
<path d="M62990 77960
L62990 78740
" />
</g>
<g style="fill:#840000; fill-opacity:0.0; 
stroke:#840000; stroke-width:100; stroke-opacity:1; 
stroke-linecap:round; stroke-linejoin:round;">
</g>
<g style="fill:#840000; fill-opacity:0.0; 
stroke:#840000; stroke-width:60; stroke-opacity:1; 
stroke-linecap:round; stroke-linejoin:round;">
<path d="M82680 77960
L82680 78740
" />
</g>
<g style="fill:#840000; fill-opacity:0.0; 
stroke:#840000; stroke-width:100; stroke-opacity:1; 
stroke-linecap:round; stroke-linejoin:round;">
</g>
<g style="fill:#840000; fill-opacity:0.0; 
stroke:#840000; stroke-width:60; stroke-opacity:1; 
stroke-linecap:round; stroke-linejoin:round;">
<path d="M102360 77960
L102360 78740
" />
</g>
<g style="fill:#840000; fill-opacity:0.0; 
stroke:#840000; stroke-width:100; stroke-opacity:1; 
stroke-linecap:round; stroke-linejoin:round;">
</g>
<g style="fill:#840000; fill-opacity:0.0; 
stroke:#840000; stroke-width:60; stroke-opacity:1; 
stroke-linecap:round; stroke-linejoin:round;">
<text x="13780" y="78600"
textLength="550" font-size="680" lengthAdjust="spacingAndGlyphs"
text-anchor="start" opacity="0">1</text>
<path d="M14190 78580
L13900 78580
" />
<path d="M14050 78580
L14050 78070
L14000 78140
L13950 78190
L13900 78210
" />
</g>
<g style="fill:#840000; fill-opacity:0.0; 
stroke:#840000; stroke-width:100; stroke-opacity:1; 
stroke-linecap:round; stroke-linejoin:round;">
</g>
<g style="fill:#840000; fill-opacity:0.0; 
stroke:#840000; stroke-width:60; stroke-opacity:1; 
stroke-linecap:round; stroke-linejoin:round;">
<text x="33460" y="78600"
textLength="550" font-size="680" lengthAdjust="spacingAndGlyphs"
text-anchor="start" opacity="0">2</text>
<path d="M33580 78110
L33610 78090
L33660 78070
L33780 78070
L33830 78090
L33850 78110
L33870 78160
L33870 78210
L33850 78280
L33560 78580
L33870 78580
" />
</g>
<g style="fill:#840000; fill-opacity:0.0; 
stroke:#840000; stroke-width:100; stroke-opacity:1; 
stroke-linecap:round; stroke-linejoin:round;">
</g>
<g style="fill:#840000; fill-opacity:0.0; 
stroke:#840000; stroke-width:60; stroke-opacity:1; 
stroke-linecap:round; stroke-linejoin:round;">
<text x="53150" y="78600"
textLength="550" font-size="680" lengthAdjust="spacingAndGlyphs"
text-anchor="start" opacity="0">3</text>
<path d="M53250 78070
L53560 78070
L53390 78260
L53470 78260
L53520 78280
L53540 78310
L53560 78360
L53560 78480
L53540 78530
L53520 78550
L53470 78580
L53320 78580
L53270 78550
L53250 78530
" />
</g>
<g style="fill:#840000; fill-opacity:0.0; 
stroke:#840000; stroke-width:100; stroke-opacity:1; 
stroke-linecap:round; stroke-linejoin:round;">
</g>
<g style="fill:#840000; fill-opacity:0.0; 
stroke:#840000; stroke-width:60; stroke-opacity:1; 
stroke-linecap:round; stroke-linejoin:round;">
<text x="72830" y="78600"
textLength="550" font-size="680" lengthAdjust="spacingAndGlyphs"
text-anchor="start" opacity="0">4</text>
<path d="M73200 78240
L73200 78580
" />
<path d="M73070 78040
L72950 78410
L73270 78410
" />
</g>
<g style="fill:#840000; fill-opacity:0.0; 
stroke:#840000; stroke-width:100; stroke-opacity:1; 
stroke-linecap:round; stroke-linejoin:round;">
</g>
<g style="fill:#840000; fill-opacity:0.0; 
stroke:#840000; stroke-width:60; stroke-opacity:1; 
stroke-linecap:round; stroke-linejoin:round;">
<text x="92520" y="78600"
textLength="550" font-size="680" lengthAdjust="spacingAndGlyphs"
text-anchor="start" opacity="0">5</text>
<path d="M92910 78070
L92670 78070
L92640 78310
L92670 78280
L92720 78260
L92840 78260
L92890 78280
L92910 78310
L92930 78360
L92930 78480
L92910 78530
L92890 78550
L92840 78580
L92720 78580
L92670 78550
L92640 78530
" />
</g>
<g style="fill:#840000; fill-opacity:0.0; 
stroke:#840000; stroke-width:100; stroke-opacity:1; 
stroke-linecap:round; stroke-linejoin:round;">
</g>
<g style="fill:#840000; fill-opacity:0.0; 
stroke:#840000; stroke-width:60; stroke-opacity:1; 
stroke-linecap:round; stroke-linejoin:round;">
<text x="112200" y="78600"
textLength="550" font-size="680" lengthAdjust="spacingAndGlyphs"
text-anchor="start" opacity="0">6</text>
<path d="M112570 78070
L112470 78070
L112420 78090
L112400 78110
L112350 78190
L112320 78280
L112320 78480
L112350 78530
L112370 78550
L112420 78580
L112520 78580
L112570 78550
L112590 78530
L112610 78480
L112610 78360
L112590 78310
L112570 78280
L112520 78260
L112420 78260
L112370 78280
L112350 78310
L112320 78360
" />
</g>
<g style="fill:#840000; fill-opacity:0.0; 
stroke:#840000; stroke-width:100; stroke-opacity:1; 
stroke-linecap:round; stroke-linejoin:round;">
</g>
<g style="fill:#840000; fill-opacity:0.0; 
stroke:#840000; stroke-width:60; stroke-opacity:1; 
stroke-linecap:round; stroke-linejoin:round;">
<path d="M3940 23620
L4720 23620
" />
</g>
<g style="fill:#840000; fill-opacity:0.0; 
stroke:#840000; stroke-width:100; stroke-opacity:1; 
stroke-linecap:round; stroke-linejoin:round;">
</g>
<g style="fill:#840000; fill-opacity:0.0; 
stroke:#840000; stroke-width:60; stroke-opacity:1; 
stroke-linecap:round; stroke-linejoin:round;">
<path d="M3940 43310
L4720 43310
" />
</g>
<g style="fill:#840000; fill-opacity:0.0; 
stroke:#840000; stroke-width:100; stroke-opacity:1; 
stroke-linecap:round; stroke-linejoin:round;">
</g>
<g style="fill:#840000; fill-opacity:0.0; 
stroke:#840000; stroke-width:60; stroke-opacity:1; 
stroke-linecap:round; stroke-linejoin:round;">
<path d="M3940 62990
L4720 62990
" />
</g>
<g style="fill:#840000; fill-opacity:0.0; 
stroke:#840000; stroke-width:100; stroke-opacity:1; 
stroke-linecap:round; stroke-linejoin:round;">
</g>
<g style="fill:#840000; fill-opacity:0.0; 
stroke:#840000; stroke-width:60; stroke-opacity:1; 
stroke-linecap:round; stroke-linejoin:round;">
<text x="4330" y="14030"
textLength="500" font-size="680" lengthAdjust="spacingAndGlyphs"
text-anchor="middle" opacity="0">A</text>
<path d="M4200 13860
L4450 13860
" />
<path d="M4160 14010
L4330 13500
L4500 14010
" />
</g>
<g style="fill:#840000; fill-opacity:0.0; 
stroke:#840000; stroke-width:100; stroke-opacity:1; 
stroke-linecap:round; stroke-linejoin:round;">
</g>
<g style="fill:#840000; fill-opacity:0.0; 
stroke:#840000; stroke-width:60; stroke-opacity:1; 
stroke-linecap:round; stroke-linejoin:round;">
<text x="4330" y="33710"
textLength="570" font-size="680" lengthAdjust="spacingAndGlyphs"
text-anchor="middle" opacity="0">B</text>
<path d="M4360 33420
L4430 33440
L4460 33470
L4480 33520
L4480 33590
L4460 33640
L4430 33660
L4390 33690
L4190 33690
L4190 33180
L4360 33180
L4410 33200
L4430 33220
L4460 33270
L4460 33320
L4430 33370
L4410 33390
L4360 33420
L4190 33420
" />
</g>
<g style="fill:#840000; fill-opacity:0.0; 
stroke:#840000; stroke-width:100; stroke-opacity:1; 
stroke-linecap:round; stroke-linejoin:round;">
</g>
<g style="fill:#840000; fill-opacity:0.0; 
stroke:#840000; stroke-width:60; stroke-opacity:1; 
stroke-linecap:round; stroke-linejoin:round;">
<text x="4330" y="53400"
textLength="570" font-size="680" lengthAdjust="spacingAndGlyphs"
text-anchor="middle" opacity="0">C</text>
<path d="M4480 53330
L4460 53350
L4390 53380
L4340 53380
L4260 53350
L4220 53300
L4190 53250
L4170 53160
L4170 53080
L4190 52990
L4220 52940
L4260 52890
L4340 52870
L4390 52870
L4460 52890
L4480 52910
" />
</g>
<g style="fill:#840000; fill-opacity:0.0; 
stroke:#840000; stroke-width:100; stroke-opacity:1; 
stroke-linecap:round; stroke-linejoin:round;">
</g>
<g style="fill:#840000; fill-opacity:0.0; 
stroke:#840000; stroke-width:60; stroke-opacity:1; 
stroke-linecap:round; stroke-linejoin:round;">
<text x="4330" y="73080"
textLength="570" font-size="680" lengthAdjust="spacingAndGlyphs"
text-anchor="middle" opacity="0">D</text>
<path d="M4190 73060
L4190 72550
L4310 72550
L4390 72570
L4430 72620
L4460 72670
L4480 72760
L4480 72840
L4460 72930
L4430 72980
L4390 73030
L4310 73060
L4190 73060
" />
</g>
<g style="fill:#840000; fill-opacity:0.0; 
stroke:#840000; stroke-width:100; stroke-opacity:1; 
stroke-linecap:round; stroke-linejoin:round;">
</g>
<g style="fill:#840000; fill-opacity:0.0; 
stroke:#840000; stroke-width:60; stroke-opacity:1; 
stroke-linecap:round; stroke-linejoin:round;">
<path d="M112990 23620
L112210 23620
" />
</g>
<g style="fill:#840000; fill-opacity:0.0; 
stroke:#840000; stroke-width:100; stroke-opacity:1; 
stroke-linecap:round; stroke-linejoin:round;">
</g>
<g style="fill:#840000; fill-opacity:0.0; 
stroke:#840000; stroke-width:60; stroke-opacity:1; 
stroke-linecap:round; stroke-linejoin:round;">
<path d="M112990 43310
L112210 43310
" />
</g>
<g style="fill:#840000; fill-opacity:0.0; 
stroke:#840000; stroke-width:100; stroke-opacity:1; 
stroke-linecap:round; stroke-linejoin:round;">
</g>
<g style="fill:#840000; fill-opacity:0.0; 
stroke:#840000; stroke-width:60; stroke-opacity:1; 
stroke-linecap:round; stroke-linejoin:round;">
<path d="M112990 62990
L112210 62990
" />
</g>
<g style="fill:#840000; fill-opacity:0.0; 
stroke:#840000; stroke-width:100; stroke-opacity:1; 
stroke-linecap:round; stroke-linejoin:round;">
</g>
<g style="fill:#840000; fill-opacity:0.0; 
stroke:#840000; stroke-width:60; stroke-opacity:1; 
stroke-linecap:round; stroke-linejoin:round;">
<text x="112600" y="14030"
textLength="500" font-size="680" lengthAdjust="spacingAndGlyphs"
text-anchor="middle" opacity="0">A</text>
<path d="M112470 13860
L112720 13860
" />
<path d="M112430 14010
L112600 13500
L112770 14010
" />
</g>
<g style="fill:#840000; fill-opacity:0.0; 
stroke:#840000; stroke-width:100; stroke-opacity:1; 
stroke-linecap:round; stroke-linejoin:round;">
</g>
<g style="fill:#840000; fill-opacity:0.0; 
stroke:#840000; stroke-width:60; stroke-opacity:1; 
stroke-linecap:round; stroke-linejoin:round;">
<text x="112600" y="33710"
textLength="570" font-size="680" lengthAdjust="spacingAndGlyphs"
text-anchor="middle" opacity="0">B</text>
<path d="M112630 33420
L112700 33440
L112730 33470
L112750 33520
L112750 33590
L112730 33640
L112700 33660
L112660 33690
L112460 33690
L112460 33180
L112630 33180
L112680 33200
L112700 33220
L112730 33270
L112730 33320
L112700 33370
L112680 33390
L112630 33420
L112460 33420
" />
</g>
<g style="fill:#840000; fill-opacity:0.0; 
stroke:#840000; stroke-width:100; stroke-opacity:1; 
stroke-linecap:round; stroke-linejoin:round;">
</g>
<g style="fill:#840000; fill-opacity:0.0; 
stroke:#840000; stroke-width:60; stroke-opacity:1; 
stroke-linecap:round; stroke-linejoin:round;">
<text x="112600" y="53400"
textLength="570" font-size="680" lengthAdjust="spacingAndGlyphs"
text-anchor="middle" opacity="0">C</text>
<path d="M112750 53330
L112730 53350
L112660 53380
L112610 53380
L112530 53350
L112490 53300
L112460 53250
L112440 53160
L112440 53080
L112460 52990
L112490 52940
L112530 52890
L112610 52870
L112660 52870
L112730 52890
L112750 52910
" />
</g>
<g style="fill:#840000; fill-opacity:0.0; 
stroke:#840000; stroke-width:100; stroke-opacity:1; 
stroke-linecap:round; stroke-linejoin:round;">
</g>
<g style="fill:#840000; fill-opacity:0.0; 
stroke:#840000; stroke-width:60; stroke-opacity:1; 
stroke-linecap:round; stroke-linejoin:round;">
<text x="112600" y="73080"
textLength="570" font-size="680" lengthAdjust="spacingAndGlyphs"
text-anchor="middle" opacity="0">D</text>
<path d="M112460 73060
L112460 72550
L112580 72550
L112660 72570
L112700 72620
L112730 72670
L112750 72760
L112750 72840
L112730 72930
L112700 72980
L112660 73030
L112580 73060
L112460 73060
" />
</g>
<g style="fill:#840000; fill-opacity:0.0; 
stroke:#840000; stroke-width:100; stroke-opacity:1; 
stroke-linecap:round; stroke-linejoin:round;">
</g>
<g style="fill:#840000; fill-opacity:0.0; 
stroke:#840000; stroke-width:60; stroke-opacity:1; 
stroke-linecap:round; stroke-linejoin:round;">
<text x="78740" y="76320"
textLength="2760" font-size="780" lengthAdjust="spacingAndGlyphs"
text-anchor="start" opacity="0">Date: </text>
<path d="M78910 76290
L78910 75700
L79050 75700
L79130 75730
L79190 75790
L79210 75840
L79240 75950
L79240 76040
L79210 76150
L79190 76210
L79130 76260
L79050 76290
L78910 76290
" />
<path d="M79750 76290
L79750 75980
L79720 75930
L79660 75900
L79550 75900
L79500 75930
" />
<path d="M79750 76260
L79690 76290
L79550 76290
L79500 76260
L79470 76210
L79470 76150
L79500 76100
L79550 76070
L79690 76070
L79750 76040
" />
<path d="M79950 75900
L80170 75900
" />
<path d="M80030 75700
L80030 76210
L80060 76260
L80110 76290
L80170 76290
" />
<path d="M80590 76260
L80540 76290
L80420 76290
L80370 76260
L80340 76210
L80340 75980
L80370 75930
L80420 75900
L80540 75900
L80590 75930
L80620 75980
L80620 76040
L80340 76100
" />
<path d="M80870 76240
L80900 76260
L80870 76290
L80840 76260
L80870 76240
L80870 76290
" />
<path d="M80870 75930
L80900 75950
L80870 75980
L80840 75950
L80870 75930
L80870 75980
" />
</g>
<g style="fill:#840000; fill-opacity:0.0; 
stroke:#840000; stroke-width:100; stroke-opacity:1; 
stroke-linecap:round; stroke-linejoin:round;">
</g>
<g style="fill:#840000; fill-opacity:0.0; 
stroke:#840000; stroke-width:60; stroke-opacity:1; 
stroke-linecap:round; stroke-linejoin:round;">
<path d="M69690 76580
L112210 76580
" />
</g>
<g style="fill:#840000; fill-opacity:0.0; 
stroke:#840000; stroke-width:100; stroke-opacity:1; 
stroke-linecap:round; stroke-linejoin:round;">
</g>
<g style="fill:#840000; fill-opacity:0.0; 
stroke:#840000; stroke-width:60; stroke-opacity:1; 
stroke-linecap:round; stroke-linejoin:round;">
<text x="70080" y="77420"
textLength="16950" font-size="780" lengthAdjust="spacingAndGlyphs"
text-anchor="start" opacity="0">KiCad E.D.A.  kicad (5.1.6-0-10_14)</text>
<path d="M70250 77390
L70250 76800
" />
<path d="M70580 77390
L70330 77050
" />
<path d="M70580 76800
L70250 77140
" />
<path d="M70840 77390
L70840 77000
" />
<path d="M70840 76800
L70810 76830
L70840 76860
L70860 76830
L70840 76800
L70840 76860
" />
<path d="M71450 77340
L71430 77360
L71340 77390
L71290 77390
L71200 77360
L71140 77310
L71120 77250
L71090 77140
L71090 77050
L71120 76940
L71140 76890
L71200 76830
L71290 76800
L71340 76800
L71430 76830
L71450 76860
" />
<path d="M71960 77390
L71960 77080
L71930 77030
L71880 77000
L71760 77000
L71710 77030
" />
<path d="M71960 77360
L71900 77390
L71760 77390
L71710 77360
L71680 77310
L71680 77250
L71710 77200
L71760 77170
L71900 77170
L71960 77140
" />
<path d="M72490 77390
L72490 76800
" />
<path d="M72490 77360
L72440 77390
L72320 77390
L72270 77360
L72240 77340
L72210 77280
L72210 77110
L72240 77050
L72270 77030
L72320 77000
L72440 77000
L72490 77030
" />
<path d="M73220 77080
L73420 77080
" />
<path d="M73500 77390
L73220 77390
L73220 76800
L73500 76800
" />
<path d="M73760 77340
L73790 77360
L73760 77390
L73730 77360
L73760 77340
L73760 77390
" />
<path d="M74040 77390
L74040 76800
L74180 76800
L74260 76830
L74320 76890
L74350 76940
L74380 77050
L74380 77140
L74350 77250
L74320 77310
L74260 77360
L74180 77390
L74040 77390
" />
<path d="M74630 77340
L74660 77360
L74630 77390
L74600 77360
L74630 77340
L74630 77390
" />
<path d="M74880 77220
L75160 77220
" />
<path d="M74830 77390
L75020 76800
L75220 77390
" />
<path d="M75420 77340
L75440 77360
L75420 77390
L75390 77360
L75420 77340
L75420 77390
" />
<path d="M76600 77390
L76600 76800
" />
<path d="M76650 77170
L76820 77390
" />
<path d="M76820 77000
L76600 77220
" />
<path d="M77070 77390
L77070 77000
" />
<path d="M77070 76800
L77040 76830
L77070 76860
L77100 76830
L77070 76800
L77070 76860
" />
<path d="M77610 77360
L77550 77390
L77440 77390
L77380 77360
L77350 77340
L77330 77280
L77330 77110
L77350 77050
L77380 77030
L77440 77000
L77550 77000
L77610 77030
" />
<path d="M78110 77390
L78110 77080
L78080 77030
L78030 77000
L77920 77000
L77860 77030
" />
<path d="M78110 77360
L78060 77390
L77920 77390
L77860 77360
L77830 77310
L77830 77250
L77860 77200
L77920 77170
L78060 77170
L78110 77140
" />
<path d="M78650 77390
L78650 76800
" />
<path d="M78650 77360
L78590 77390
L78480 77390
L78420 77360
L78390 77340
L78370 77280
L78370 77110
L78390 77050
L78420 77030
L78480 77000
L78590 77000
L78650 77030
" />
<path d="M79550 77620
L79520 77590
L79460 77500
L79430 77450
L79400 77360
L79380 77220
L79380 77110
L79400 76970
L79430 76890
L79460 76830
L79520 76750
L79550 76720
" />
<path d="M80050 76800
L79770 76800
L79740 77080
L79770 77050
L79830 77030
L79970 77030
L80020 77050
L80050 77080
L80080 77140
L80080 77280
L80050 77340
L80020 77360
L79970 77390
L79830 77390
L79770 77360
L79740 77340
" />
<path d="M80330 77340
L80360 77360
L80330 77390
L80300 77360
L80330 77340
L80330 77390
" />
<path d="M80920 77390
L80580 77390
" />
<path d="M80750 77390
L80750 76800
L80700 76890
L80640 76940
L80580 76970
" />
<path d="M81170 77340
L81200 77360
L81170 77390
L81150 77360
L81170 77340
L81170 77390
" />
<path d="M81710 76800
L81600 76800
L81540 76830
L81510 76860
L81460 76940
L81430 77050
L81430 77280
L81460 77340
L81480 77360
L81540 77390
L81650 77390
L81710 77360
L81740 77340
L81760 77280
L81760 77140
L81740 77080
L81710 77050
L81650 77030
L81540 77030
L81480 77050
L81460 77080
L81430 77140
" />
<path d="M82020 77170
L82470 77170
" />
<path d="M82860 76800
L82920 76800
L82970 76830
L83000 76860
L83030 76910
L83060 77030
L83060 77170
L83030 77280
L83000 77340
L82970 77360
L82920 77390
L82860 77390
L82800 77360
L82780 77340
L82750 77280
L82720 77170
L82720 77030
L82750 76910
L82780 76860
L82800 76830
L82860 76800
" />
<path d="M83310 77170
L83760 77170
" />
<path d="M84350 77390
L84010 77390
" />
<path d="M84180 77390
L84180 76800
L84120 76890
L84070 76940
L84010 76970
" />
<path d="M84710 76800
L84770 76800
L84830 76830
L84860 76860
L84880 76910
L84910 77030
L84910 77170
L84880 77280
L84860 77340
L84830 77360
L84770 77390
L84710 77390
L84660 77360
L84630 77340
L84600 77280
L84570 77170
L84570 77030
L84600 76910
L84630 76860
L84660 76830
L84710 76800
" />
<path d="M85020 77450
L85470 77450
" />
<path d="M85920 77390
L85590 77390
" />
<path d="M85750 77390
L85750 76800
L85700 76890
L85640 76940
L85590 76970
" />
<path d="M86430 77000
L86430 77390
" />
<path d="M86290 76770
L86150 77200
L86510 77200
" />
<path d="M86680 77620
L86710 77590
L86770 77500
L86790 77450
L86820 77360
L86850 77220
L86850 77110
L86820 76970
L86790 76890
L86770 76830
L86710 76750
L86680 76720
" />
</g>
<g style="fill:#840000; fill-opacity:0.0; 
stroke:#840000; stroke-width:100; stroke-opacity:1; 
stroke-linecap:round; stroke-linejoin:round;">
</g>
<g style="fill:#840000; fill-opacity:0.0; 
stroke:#840000; stroke-width:60; stroke-opacity:1; 
stroke-linecap:round; stroke-linejoin:round;">
<path d="M69690 75400
L112210 75400
" />
</g>
<g style="fill:#840000; fill-opacity:0.0; 
stroke:#840000; stroke-width:100; stroke-opacity:1; 
stroke-linecap:round; stroke-linejoin:round;">
</g>
<g style="fill:#840000; fill-opacity:0.0; 
stroke:#840000; stroke-width:120; stroke-opacity:1; 
stroke-linecap:round; stroke-linejoin:round;">
<text x="103540" y="76320"
textLength="2340" font-size="780" lengthAdjust="spacingAndGlyphs"
text-anchor="start" opacity="0">Rev: </text>
<path d="M104090 76290
L103890 76010
" />
<path d="M103750 76290
L103750 75700
L103980 75700
L104030 75730
L104060 75760
L104090 75810
L104090 75900
L104060 75950
L104030 75980
L103980 76010
L103750 76010
" />
<path d="M104570 76260
L104510 76290
L104400 76290
L104340 76260
L104320 76210
L104320 75980
L104340 75930
L104400 75900
L104510 75900
L104570 75930
L104600 75980
L104600 76040
L104320 76100
" />
<path d="M104790 75900
L104930 76290
L105070 75900
" />
<path d="M105300 76240
L105330 76260
L105300 76290
L105270 76260
L105300 76240
L105300 76290
" />
<path d="M105300 75930
L105330 75950
L105300 75980
L105270 75950
L105300 75930
L105300 75980
" />
</g>
<g style="fill:#840000; fill-opacity:0.0; 
stroke:#840000; stroke-width:100; stroke-opacity:1; 
stroke-linecap:round; stroke-linejoin:round;">
</g>
<g style="fill:#840000; fill-opacity:0.0; 
stroke:#840000; stroke-width:60; stroke-opacity:1; 
stroke-linecap:round; stroke-linejoin:round;">
<text x="70080" y="76320"
textLength="3780" font-size="780" lengthAdjust="spacingAndGlyphs"
text-anchor="start" opacity="0">Size: A4</text>
<path d="M70220 76260
L70300 76290
L70440 76290
L70500 76260
L70530 76240
L70550 76180
L70550 76120
L70530 76070
L70500 76040
L70440 76010
L70330 75980
L70270 75950
L70250 75930
L70220 75870
L70220 75810
L70250 75760
L70270 75730
L70330 75700
L70470 75700
L70550 75730
" />
<path d="M70810 76290
L70810 75900
" />
<path d="M70810 75700
L70780 75730
L70810 75760
L70840 75730
L70810 75700
L70810 75760
" />
<path d="M71030 75900
L71340 75900
L71030 76290
L71340 76290
" />
<path d="M71790 76260
L71730 76290
L71620 76290
L71570 76260
L71540 76210
L71540 75980
L71570 75930
L71620 75900
L71730 75900
L71790 75930
L71820 75980
L71820 76040
L71540 76100
" />
<path d="M72070 76240
L72100 76260
L72070 76290
L72040 76260
L72070 76240
L72070 76290
" />
<path d="M72070 75930
L72100 75950
L72070 75980
L72040 75950
L72070 75930
L72070 75980
" />
<path d="M72770 76120
L73060 76120
" />
<path d="M72720 76290
L72910 75700
L73110 76290
" />
<path d="M73560 75900
L73560 76290
" />
<path d="M73420 75670
L73280 76100
L73650 76100
" />
</g>
<g style="fill:#840000; fill-opacity:0.0; 
stroke:#840000; stroke-width:100; stroke-opacity:1; 
stroke-linecap:round; stroke-linejoin:round;">
</g>
<g style="fill:#840000; fill-opacity:0.0; 
stroke:#840000; stroke-width:60; stroke-opacity:1; 
stroke-linecap:round; stroke-linejoin:round;">
<text x="103540" y="77420"
textLength="3910" font-size="780" lengthAdjust="spacingAndGlyphs"
text-anchor="start" opacity="0">Id: 6/10</text>
<path d="M103710 77390
L103710 76800
" />
<path d="M104240 77390
L104240 76800
" />
<path d="M104240 77360
L104180 77390
L104070 77390
L104010 77360
L103990 77340
L103960 77280
L103960 77110
L103990 77050
L104010 77030
L104070 77000
L104180 77000
L104240 77030
" />
<path d="M104520 77340
L104550 77360
L104520 77390
L104490 77360
L104520 77340
L104520 77390
" />
<path d="M104520 77030
L104550 77050
L104520 77080
L104490 77050
L104520 77030
L104520 77080
" />
<path d="M105500 76800
L105390 76800
L105340 76830
L105310 76860
L105250 76940
L105220 77050
L105220 77280
L105250 77340
L105280 77360
L105340 77390
L105450 77390
L105500 77360
L105530 77340
L105560 77280
L105560 77140
L105530 77080
L105500 77050
L105450 77030
L105340 77030
L105280 77050
L105250 77080
L105220 77140
" />
<path d="M106230 76770
L105730 77530
" />
<path d="M106740 77390
L106400 77390
" />
<path d="M106570 77390
L106570 76800
L106520 76890
L106460 76940
L106400 76970
" />
<path d="M107110 76800
L107160 76800
L107220 76830
L107250 76860
L107270 76910
L107300 77030
L107300 77170
L107270 77280
L107250 77340
L107220 77360
L107160 77390
L107110 77390
L107050 77360
L107020 77340
L106990 77280
L106960 77170
L106960 77030
L106990 76910
L107020 76860
L107050 76830
L107110 76800
" />
</g>
<g style="fill:#840000; fill-opacity:0.0; 
stroke:#840000; stroke-width:100; stroke-opacity:1; 
stroke-linecap:round; stroke-linejoin:round;">
</g>
<g style="fill:#840000; fill-opacity:0.0; 
stroke:#840000; stroke-width:60; stroke-opacity:1; 
stroke-linecap:round; stroke-linejoin:round;">
<path d="M69690 73820
L112210 73820
" />
</g>
<g style="fill:#840000; fill-opacity:0.0; 
stroke:#840000; stroke-width:100; stroke-opacity:1; 
stroke-linecap:round; stroke-linejoin:round;">
</g>
<g style="fill:#840000; fill-opacity:0.0; 
stroke:#840000; stroke-width:160; stroke-opacity:1; 
stroke-linecap:round; stroke-linejoin:round;">
<text x="70080" y="74920"
textLength="3710" font-size="1050" lengthAdjust="spacingAndGlyphs"
text-anchor="start" opacity="0">Title: </text>
<path d="M70360 74090
L70810 74090
" />
<path d="M70480 74880
L70580 74090
" />
<path d="M70970 74880
L71040 74360
" />
<path d="M71070 74090
L71030 74130
L71060 74170
L71110 74130
L71070 74090
L71060 74170
" />
<path d="M71300 74360
L71600 74360
" />
<path d="M71450 74090
L71360 74770
L71390 74840
L71460 74880
L71540 74880
" />
<path d="M71910 74880
L71840 74840
L71820 74770
L71900 74090
" />
<path d="M72520 74840
L72440 74880
L72290 74880
L72220 74840
L72190 74770
L72230 74470
L72280 74390
L72360 74360
L72510 74360
L72580 74390
L72610 74470
L72600 74540
L72210 74620
" />
<path d="M72900 74810
L72930 74840
L72890 74880
L72860 74840
L72900 74810
L72890 74880
" />
<path d="M72950 74390
L72990 74430
L72940 74470
L72910 74430
L72950 74390
L72940 74470
" />
</g>
<g style="fill:#840000; fill-opacity:0.0; 
stroke:#840000; stroke-width:100; stroke-opacity:1; 
stroke-linecap:round; stroke-linejoin:round;">
</g>
<g style="fill:#840000; fill-opacity:0.0; 
stroke:#840000; stroke-width:60; stroke-opacity:1; 
stroke-linecap:round; stroke-linejoin:round;">
<text x="70080" y="73400"
textLength="6110" font-size="780" lengthAdjust="spacingAndGlyphs"
text-anchor="start" opacity="0">File: PSU.sch</text>
<path d="M70440 73060
L70250 73060
" />
<path d="M70250 73370
L70250 72780
L70530 72780
" />
<path d="M70750 73370
L70750 72980
" />
<path d="M70750 72780
L70720 72810
L70750 72840
L70780 72810
L70750 72780
L70750 72840
" />
<path d="M71120 73370
L71060 73340
L71030 73290
L71030 72780
" />
<path d="M71570 73340
L71510 73370
L71400 73370
L71340 73340
L71310 73290
L71310 73060
L71340 73010
L71400 72980
L71510 72980
L71570 73010
L71590 73060
L71590 73120
L71310 73180
" />
<path d="M71850 73320
L71880 73340
L71850 73370
L71820 73340
L71850 73320
L71850 73370
" />
<path d="M71850 73010
L71880 73030
L71850 73060
L71820 73030
L71850 73010
L71850 73060
" />
<path d="M72580 73370
L72580 72780
L72800 72780
L72860 72810
L72890 72840
L72910 72890
L72910 72980
L72890 73030
L72860 73060
L72800 73090
L72580 73090
" />
<path d="M73140 73340
L73220 73370
L73360 73370
L73420 73340
L73450 73320
L73480 73260
L73480 73200
L73450 73150
L73420 73120
L73360 73090
L73250 73060
L73200 73030
L73170 73010
L73140 72950
L73140 72890
L73170 72840
L73200 72810
L73250 72780
L73390 72780
L73480 72810
" />
<path d="M73730 72780
L73730 73260
L73760 73320
L73790 73340
L73840 73370
L73950 73370
L74010 73340
L74040 73320
L74070 73260
L74070 72780
" />
<path d="M74350 73320
L74380 73340
L74350 73370
L74320 73340
L74350 73320
L74350 73370
" />
<path d="M74600 73340
L74660 73370
L74770 73370
L74830 73340
L74850 73290
L74850 73260
L74830 73200
L74770 73180
L74680 73180
L74630 73150
L74600 73090
L74600 73060
L74630 73010
L74680 72980
L74770 72980
L74830 73010
" />
<path d="M75360 73340
L75300 73370
L75190 73370
L75130 73340
L75110 73320
L75080 73260
L75080 73090
L75110 73030
L75130 73010
L75190 72980
L75300 72980
L75360 73010
" />
<path d="M75610 73370
L75610 72780
" />
<path d="M75860 73370
L75860 73060
L75840 73010
L75780 72980
L75700 72980
L75640 73010
L75610 73030
" />
</g>
<g style="fill:#840000; fill-opacity:0.0; 
stroke:#840000; stroke-width:100; stroke-opacity:1; 
stroke-linecap:round; stroke-linejoin:round;">
</g>
<g style="fill:#840000; fill-opacity:0.0; 
stroke:#840000; stroke-width:60; stroke-opacity:1; 
stroke-linecap:round; stroke-linejoin:round;">
<path d="M69690 71460
L112210 71460
" />
</g>
<g style="fill:#840000; fill-opacity:0.0; 
stroke:#840000; stroke-width:100; stroke-opacity:1; 
stroke-linecap:round; stroke-linejoin:round;">
</g>
<g style="fill:#840000; fill-opacity:0.0; 
stroke:#840000; stroke-width:60; stroke-opacity:1; 
stroke-linecap:round; stroke-linejoin:round;">
<text x="70080" y="72340"
textLength="6240" font-size="780" lengthAdjust="spacingAndGlyphs"
text-anchor="start" opacity="0">Sheet: /PSU/</text>
<path d="M70220 72280
L70300 72310
L70440 72310
L70500 72280
L70530 72260
L70550 72200
L70550 72140
L70530 72090
L70500 72060
L70440 72030
L70330 72000
L70270 71970
L70250 71950
L70220 71890
L70220 71830
L70250 71780
L70270 71750
L70330 71720
L70470 71720
L70550 71750
" />
<path d="M70810 72310
L70810 71720
" />
<path d="M71060 72310
L71060 72000
L71030 71950
L70980 71920
L70890 71920
L70840 71950
L70810 71970
" />
<path d="M71570 72280
L71510 72310
L71400 72310
L71340 72280
L71310 72230
L71310 72000
L71340 71950
L71400 71920
L71510 71920
L71570 71950
L71590 72000
L71590 72060
L71310 72120
" />
<path d="M72070 72280
L72020 72310
L71900 72310
L71850 72280
L71820 72230
L71820 72000
L71850 71950
L71900 71920
L72020 71920
L72070 71950
L72100 72000
L72100 72060
L71820 72120
" />
<path d="M72270 71920
L72490 71920
" />
<path d="M72350 71720
L72350 72230
L72380 72280
L72440 72310
L72490 72310
" />
<path d="M72690 72260
L72720 72280
L72690 72310
L72660 72280
L72690 72260
L72690 72310
" />
<path d="M72690 71950
L72720 71970
L72690 72000
L72660 71970
L72690 71950
L72690 72000
" />
<path d="M73840 71690
L73340 72450
" />
<path d="M74040 72310
L74040 71720
L74260 71720
L74320 71750
L74350 71780
L74380 71830
L74380 71920
L74350 71970
L74320 72000
L74260 72030
L74040 72030
" />
<path d="M74600 72280
L74680 72310
L74830 72310
L74880 72280
L74910 72260
L74940 72200
L74940 72140
L74910 72090
L74880 72060
L74830 72030
L74710 72000
L74660 71970
L74630 71950
L74600 71890
L74600 71830
L74630 71780
L74660 71750
L74710 71720
L74850 71720
L74940 71750
" />
<path d="M75190 71720
L75190 72200
L75220 72260
L75250 72280
L75300 72310
L75420 72310
L75470 72280
L75500 72260
L75530 72200
L75530 71720
" />
<path d="M76230 71690
L75720 72450
" />
</g>
<g style="fill:#840000; fill-opacity:0.0; 
stroke:#840000; stroke-width:100; stroke-opacity:1; 
stroke-linecap:round; stroke-linejoin:round;">
</g>
<g style="fill:#840000; fill-opacity:0.0; 
stroke:#840000; stroke-width:60; stroke-opacity:1; 
stroke-linecap:round; stroke-linejoin:round;">
<path d="M77560 75400
L77560 76580
" />
</g>
<g style="fill:#840000; fill-opacity:0.0; 
stroke:#840000; stroke-width:100; stroke-opacity:1; 
stroke-linecap:round; stroke-linejoin:round;">
</g>
<g style="fill:#840000; fill-opacity:0.0; 
stroke:#840000; stroke-width:60; stroke-opacity:1; 
stroke-linecap:round; stroke-linejoin:round;">
<path d="M102760 75400
L102760 77960
" />
</g>
<g style="fill:#840000; fill-opacity:0.0; 
stroke:#840000; stroke-width:0; stroke-opacity:1; 
stroke-linecap:round; stroke-linejoin:round;">
<g >
</g>
<g style="fill:#FFFFC2; fill-opacity:0.0; 
stroke:#FFFFC2; stroke-width:0; stroke-opacity:1; 
stroke-linecap:round; stroke-linejoin:round;">
</g>
<g style="fill:#FFFFC2; fill-opacity:0.6; 
stroke:#FFFFC2; stroke-width:0; stroke-opacity:1; 
stroke-linecap:round; stroke-linejoin:round;">
<rect x="63500" y="35000" width="4000" height="2750" rx="0" />
</g>
<g style="fill:#840000; fill-opacity:0.6; 
stroke:#840000; stroke-width:0; stroke-opacity:1; 
stroke-linecap:round; stroke-linejoin:round;">
</g>
<g style="fill:#840000; fill-opacity:0.0; 
stroke:#840000; stroke-width:100; stroke-opacity:1; 
stroke-linecap:round; stroke-linejoin:round;">
<rect x="63500" y="35000" width="4000" height="2750" rx="0" />
<rect x="63500" y="35000" width="4000" height="2750" rx="0" />
</g>
<g style="fill:#840000; fill-opacity:0.0; 
stroke:#840000; stroke-width:60; stroke-opacity:1; 
stroke-linecap:round; stroke-linejoin:round;">
<path d="M65500 37750
L65500 38750
" />
</g>
<g style="fill:#008484; fill-opacity:0.0; 
stroke:#008484; stroke-width:60; stroke-opacity:1; 
stroke-linecap:round; stroke-linejoin:round;">
<g transform="rotate(-90 65500 37650)">
<text x="65500" y="37900"
textLength="1580" font-size="660" lengthAdjust="spacingAndGlyphs"
text-anchor="start" opacity="0">GND</text>
</g>
<path d="M65250 37230
L65220 37280
L65220 37350
L65250 37420
L65290 37470
L65340 37500
L65440 37520
L65510 37520
L65600 37500
L65650 37470
L65700 37420
L65720 37350
L65720 37310
L65700 37230
L65670 37210
L65510 37210
L65510 37310
" />
<path d="M65720 37000
L65220 37000
L65720 36710
L65220 36710
" />
<path d="M65720 36470
L65220 36470
L65220 36350
L65250 36280
L65290 36230
L65340 36210
L65440 36190
L65510 36190
L65600 36210
L65650 36230
L65700 36280
L65720 36350
L65720 36470
" />
</g>
<g style="fill:#840000; fill-opacity:0.0; 
stroke:#840000; stroke-width:60; stroke-opacity:1; 
stroke-linecap:round; stroke-linejoin:round;">
<g transform="rotate(-90 65400 38250)">
<text x="65400" y="38250"
textLength="540" font-size="660" lengthAdjust="spacingAndGlyphs"
text-anchor="middle" opacity="0">1</text>
</g>
<path d="M65370 38100
L65370 38390
" />
<path d="M65370 38250
L64870 38250
L64940 38290
L64990 38340
L65010 38390
" />
<path d="M67500 35750
L68500 35750
" />
</g>
<g style="fill:#008484; fill-opacity:0.0; 
stroke:#008484; stroke-width:60; stroke-opacity:1; 
stroke-linecap:round; stroke-linejoin:round;">
<text x="67400" y="36000"
textLength="1010" font-size="660" lengthAdjust="spacingAndGlyphs"
text-anchor="end" opacity="0">VO</text>
<path d="M66460 35470
L66630 35970
L66790 35470
" />
<path d="M67060 35470
L67150 35470
L67200 35500
L67250 35540
L67270 35640
L67270 35800
L67250 35900
L67200 35950
L67150 35970
L67060 35970
L67010 35950
L66960 35900
L66940 35800
L66940 35640
L66960 35540
L67010 35500
L67060 35470
" />
</g>
<g style="fill:#840000; fill-opacity:0.0; 
stroke:#840000; stroke-width:60; stroke-opacity:1; 
stroke-linecap:round; stroke-linejoin:round;">
<text x="68000" y="35650"
textLength="540" font-size="660" lengthAdjust="spacingAndGlyphs"
text-anchor="middle" opacity="0">2</text>
<path d="M67850 35170
L67880 35150
L67920 35120
L68040 35120
L68090 35150
L68110 35170
L68140 35220
L68140 35260
L68110 35340
L67830 35620
L68140 35620
" />
<path d="M63500 35750
L62500 35750
" />
</g>
<g style="fill:#008484; fill-opacity:0.0; 
stroke:#008484; stroke-width:60; stroke-opacity:1; 
stroke-linecap:round; stroke-linejoin:round;">
<text x="63600" y="36000"
textLength="730" font-size="660" lengthAdjust="spacingAndGlyphs"
text-anchor="start" opacity="0">VI</text>
<path d="M63670 35470
L63840 35970
L64010 35470
" />
<path d="M64170 35970
L64170 35470
" />
</g>
<g style="fill:#840000; fill-opacity:0.0; 
stroke:#840000; stroke-width:60; stroke-opacity:1; 
stroke-linecap:round; stroke-linejoin:round;">
<text x="63000" y="35650"
textLength="540" font-size="660" lengthAdjust="spacingAndGlyphs"
text-anchor="middle" opacity="0">3</text>
<path d="M62830 35120
L63140 35120
L62970 35310
L63040 35310
L63090 35340
L63110 35360
L63140 35410
L63140 35530
L63110 35570
L63090 35600
L63040 35620
L62900 35620
L62850 35600
L62830 35570
" />
</g>
<g style="fill:#008484; fill-opacity:0.0; 
stroke:#008484; stroke-width:60; stroke-opacity:1; 
stroke-linecap:round; stroke-linejoin:round;">
<text x="65500" y="33600"
textLength="1060" font-size="660" lengthAdjust="spacingAndGlyphs"
text-anchor="middle" opacity="0">U5</text>
<path d="M65110 33070
L65110 33480
L65140 33520
L65160 33550
L65210 33570
L65300 33570
L65350 33550
L65380 33520
L65400 33480
L65400 33070
" />
<path d="M65880 33070
L65640 33070
L65610 33310
L65640 33290
L65690 33260
L65800 33260
L65850 33290
L65880 33310
L65900 33360
L65900 33480
L65880 33520
L65850 33550
L65800 33570
L65690 33570
L65640 33550
L65610 33520
" />
<text x="65500" y="34510"
textLength="9230" font-size="660" lengthAdjust="spacingAndGlyphs"
text-anchor="middle" opacity="0">MCP1700-3302E_SOT23</text>
<path d="M61030 34480
L61030 33980
L61200 34340
L61360 33980
L61360 34480
" />
<path d="M61890 34430
L61860 34460
L61790 34480
L61750 34480
L61670 34460
L61630 34410
L61600 34360
L61580 34270
L61580 34200
L61600 34100
L61630 34050
L61670 34010
L61750 33980
L61790 33980
L61860 34010
L61890 34030
" />
<path d="M62100 34480
L62100 33980
L62290 33980
L62340 34010
L62360 34030
L62390 34080
L62390 34150
L62360 34200
L62340 34220
L62290 34240
L62100 34240
" />
<path d="M62860 34480
L62580 34480
" />
<path d="M62720 34480
L62720 33980
L62670 34050
L62630 34100
L62580 34120
" />
<path d="M63030 33980
L63360 33980
L63150 34480
" />
<path d="M63650 33980
L63700 33980
L63750 34010
L63770 34030
L63790 34080
L63820 34170
L63820 34290
L63790 34390
L63770 34430
L63750 34460
L63700 34480
L63650 34480
L63600 34460
L63580 34430
L63550 34390
L63530 34290
L63530 34170
L63550 34080
L63580 34030
L63600 34010
L63650 33980
" />
<path d="M64130 33980
L64170 33980
L64220 34010
L64250 34030
L64270 34080
L64290 34170
L64290 34290
L64270 34390
L64250 34430
L64220 34460
L64170 34480
L64130 34480
L64080 34460
L64050 34430
L64030 34390
L64010 34290
L64010 34170
L64030 34080
L64050 34030
L64080 34010
L64130 33980
" />
<path d="M64510 34290
L64890 34290
" />
<path d="M65080 33980
L65390 33980
L65220 34170
L65290 34170
L65340 34200
L65360 34220
L65390 34270
L65390 34390
L65360 34430
L65340 34460
L65290 34480
L65150 34480
L65100 34460
L65080 34430
" />
<path d="M65550 33980
L65860 33980
L65700 34170
L65770 34170
L65820 34200
L65840 34220
L65860 34270
L65860 34390
L65840 34430
L65820 34460
L65770 34480
L65630 34480
L65580 34460
L65550 34430
" />
<path d="M66170 33980
L66220 33980
L66270 34010
L66290 34030
L66320 34080
L66340 34170
L66340 34290
L66320 34390
L66290 34430
L66270 34460
L66220 34480
L66170 34480
L66130 34460
L66100 34430
L66080 34390
L66050 34290
L66050 34170
L66080 34080
L66100 34030
L66130 34010
L66170 33980
" />
<path d="M66530 34030
L66550 34010
L66600 33980
L66720 33980
L66770 34010
L66790 34030
L66820 34080
L66820 34120
L66790 34200
L66510 34480
L66820 34480
" />
<path d="M67030 34220
L67200 34220
" />
<path d="M67270 34480
L67030 34480
L67030 33980
L67270 33980
" />
<path d="M67360 34530
L67750 34530
" />
<path d="M67840 34460
L67910 34480
L68030 34480
L68080 34460
L68100 34430
L68130 34390
L68130 34340
L68100 34290
L68080 34270
L68030 34240
L67940 34220
L67890 34200
L67860 34170
L67840 34120
L67840 34080
L67860 34030
L67890 34010
L67940 33980
L68050 33980
L68130 34010
" />
<path d="M68440 33980
L68530 33980
L68580 34010
L68630 34050
L68650 34150
L68650 34310
L68630 34410
L68580 34460
L68530 34480
L68440 34480
L68390 34460
L68340 34410
L68320 34310
L68320 34150
L68340 34050
L68390 34010
L68440 33980
" />
<path d="M68790 33980
L69080 33980
" />
<path d="M68940 34480
L68940 33980
" />
<path d="M69220 34030
L69250 34010
L69290 33980
L69410 33980
L69460 34010
L69480 34030
L69510 34080
L69510 34120
L69480 34200
L69200 34480
L69510 34480
" />
<path d="M69670 33980
L69980 33980
L69820 34170
L69890 34170
L69940 34200
L69960 34220
L69980 34270
L69980 34390
L69960 34430
L69940 34460
L69890 34480
L69750 34480
L69700 34460
L69670 34430
" />
</g>
</g>
<g style="fill:#008484; fill-opacity:0.0; 
stroke:#008484; stroke-width:0; stroke-opacity:1; 
stroke-linecap:round; stroke-linejoin:round;">
<g >
</g>
<g style="fill:#840000; fill-opacity:0.0; 
stroke:#840000; stroke-width:0; stroke-opacity:1; 
stroke-linecap:round; stroke-linejoin:round;">
</g>
<g style="fill:#840000; fill-opacity:0.0; 
stroke:#840000; stroke-width:60; stroke-opacity:1; 
stroke-linecap:round; stroke-linejoin:round;">
<path style="fill:#840000; fill-opacity:0.0; 
stroke:#840000; stroke-width:60; stroke-opacity:1; 
stroke-linecap:round; stroke-linejoin:round;fill:none"
d="M 47500,35750
48500,35750
" /> 
</g>
<g style="fill:#840000; fill-opacity:0.0; 
stroke:#840000; stroke-width:100; stroke-opacity:1; 
stroke-linecap:round; stroke-linejoin:round;">
<path style="fill:#840000; fill-opacity:0.0; 
stroke:#840000; stroke-width:100; stroke-opacity:1; 
stroke-linecap:round; stroke-linejoin:round;fill:none"
d="M 47500,36250
47500,35250
48500,35750
Z" /> 
<path style="fill:#840000; fill-opacity:0.0; 
stroke:#840000; stroke-width:100; stroke-opacity:1; 
stroke-linecap:round; stroke-linejoin:round;fill:none"
d="M 48750,36000
48750,36250
48500,36250
48500,35250
48250,35250
48250,35500
" /> 
</g>
<g style="fill:#840000; fill-opacity:0.0; 
stroke:#840000; stroke-width:60; stroke-opacity:1; 
stroke-linecap:round; stroke-linejoin:round;">
<path d="M48500 35750
L49500 35750
" />
<path d="M47500 35750
L46500 35750
" />
</g>
<g style="fill:#008484; fill-opacity:0.0; 
stroke:#008484; stroke-width:60; stroke-opacity:1; 
stroke-linecap:round; stroke-linejoin:round;">
<text x="48000" y="33800"
textLength="1040" font-size="660" lengthAdjust="spacingAndGlyphs"
text-anchor="middle" opacity="0">D1</text>
<path d="M47630 33770
L47630 33270
L47750 33270
L47820 33300
L47860 33340
L47890 33390
L47910 33490
L47910 33560
L47890 33650
L47860 33700
L47820 33750
L47750 33770
L47630 33770
" />
<path d="M48390 33770
L48100 33770
" />
<path d="M48250 33770
L48250 33270
L48200 33340
L48150 33390
L48100 33410
" />
<text x="47990" y="34710"
textLength="4110" font-size="660" lengthAdjust="spacingAndGlyphs"
text-anchor="middle" opacity="0">D_Schottky</text>
<path d="M46080 34680
L46080 34180
L46200 34180
L46270 34210
L46320 34250
L46340 34300
L46370 34400
L46370 34470
L46340 34560
L46320 34610
L46270 34660
L46200 34680
L46080 34680
" />
<path d="M46460 34730
L46840 34730
" />
<path d="M46940 34660
L47010 34680
L47130 34680
L47180 34660
L47200 34630
L47220 34590
L47220 34540
L47200 34490
L47180 34470
L47130 34440
L47030 34420
L46990 34400
L46960 34370
L46940 34320
L46940 34280
L46960 34230
L46990 34210
L47030 34180
L47150 34180
L47220 34210
" />
<path d="M47650 34660
L47600 34680
L47510 34680
L47460 34660
L47440 34630
L47410 34590
L47410 34440
L47440 34400
L47460 34370
L47510 34350
L47600 34350
L47650 34370
" />
<path d="M47870 34680
L47870 34180
" />
<path d="M48080 34680
L48080 34420
L48060 34370
L48010 34350
L47940 34350
L47890 34370
L47870 34400
" />
<path d="M48390 34680
L48340 34660
L48320 34630
L48290 34590
L48290 34440
L48320 34400
L48340 34370
L48390 34350
L48460 34350
L48510 34370
L48530 34400
L48560 34440
L48560 34590
L48530 34630
L48510 34660
L48460 34680
L48390 34680
" />
<path d="M48700 34350
L48890 34350
" />
<path d="M48770 34180
L48770 34610
L48790 34660
L48840 34680
L48890 34680
" />
<path d="M48990 34350
L49180 34350
" />
<path d="M49060 34180
L49060 34610
L49080 34660
L49130 34680
L49180 34680
" />
<path d="M49340 34680
L49340 34180
" />
<path d="M49390 34490
L49530 34680
" />
<path d="M49530 34350
L49340 34540
" />
<path d="M49700 34350
L49820 34680
" />
<path d="M49940 34350
L49820 34680
L49770 34800
L49750 34820
L49700 34850
" />
</g>
</g>
<g style="fill:#008484; fill-opacity:0.0; 
stroke:#008484; stroke-width:0; stroke-opacity:1; 
stroke-linecap:round; stroke-linejoin:round;">
<g >
</g>
<g style="fill:#840000; fill-opacity:0.0; 
stroke:#840000; stroke-width:0; stroke-opacity:1; 
stroke-linecap:round; stroke-linejoin:round;">
</g>
<g style="fill:#840000; fill-opacity:0.0; 
stroke:#840000; stroke-width:60; stroke-opacity:1; 
stroke-linecap:round; stroke-linejoin:round;">
<path style="fill:#840000; fill-opacity:0.0; 
stroke:#840000; stroke-width:60; stroke-opacity:1; 
stroke-linecap:round; stroke-linejoin:round;fill:none"
d="M 57500,35750
57500,35250
57100,35000
57500,34750
57900,35000
57500,35250
" /> 
<path d="M57500 35750
L57500 35750
" />
</g>
<g style="fill:#008484; fill-opacity:0.0; 
stroke:#008484; stroke-width:60; stroke-opacity:1; 
stroke-linecap:round; stroke-linejoin:round;">
<text x="57500" y="34290"
textLength="3770" font-size="660" lengthAdjust="spacingAndGlyphs"
text-anchor="middle" opacity="0">PWR_FLAG</text>
<path d="M55760 34260
L55760 33760
L55950 33760
L56000 33790
L56020 33810
L56040 33860
L56040 33930
L56020 33980
L56000 34000
L55950 34020
L55760 34020
" />
<path d="M56210 33760
L56330 34260
L56420 33900
L56520 34260
L56640 33760
" />
<path d="M57110 34260
L56950 34020
" />
<path d="M56830 34260
L56830 33760
L57020 33760
L57070 33790
L57090 33810
L57110 33860
L57110 33930
L57090 33980
L57070 34000
L57020 34020
L56830 34020
" />
<path d="M57210 34310
L57590 34310
" />
<path d="M57880 34000
L57710 34000
" />
<path d="M57710 34260
L57710 33760
L57950 33760
" />
<path d="M58380 34260
L58140 34260
L58140 33760
" />
<path d="M58520 34120
L58760 34120
" />
<path d="M58470 34260
L58640 33760
L58800 34260
" />
<path d="M59230 33790
L59190 33760
L59110 33760
L59040 33790
L59000 33830
L58970 33880
L58950 33980
L58950 34050
L58970 34140
L59000 34190
L59040 34240
L59110 34260
L59160 34260
L59230 34240
L59260 34210
L59260 34050
L59160 34050
" />
</g>
</g>
<g style="fill:#008484; fill-opacity:0.0; 
stroke:#008484; stroke-width:0; stroke-opacity:1; 
stroke-linecap:round; stroke-linejoin:round;">
<g >
</g>
<g style="fill:#840000; fill-opacity:0.0; 
stroke:#840000; stroke-width:0; stroke-opacity:1; 
stroke-linecap:round; stroke-linejoin:round;">
</g>
<g style="fill:#840000; fill-opacity:0.0; 
stroke:#840000; stroke-width:60; stroke-opacity:1; 
stroke-linecap:round; stroke-linejoin:round;">
<path style="fill:#840000; fill-opacity:0.0; 
stroke:#840000; stroke-width:60; stroke-opacity:1; 
stroke-linecap:round; stroke-linejoin:round;fill:none"
d="M 42250,41000
42250,41500
42650,41750
42250,42000
41850,41750
42250,41500
" /> 
<path d="M42250 41000
L42250 41000
" />
</g>
<g style="fill:#008484; fill-opacity:0.0; 
stroke:#008484; stroke-width:60; stroke-opacity:1; 
stroke-linecap:round; stroke-linejoin:round;">
<text x="42240" y="42950"
textLength="3770" font-size="660" lengthAdjust="spacingAndGlyphs"
text-anchor="middle" opacity="0">PWR_FLAG</text>
<path d="M40500 42920
L40500 42420
L40690 42420
L40740 42450
L40760 42470
L40780 42520
L40780 42590
L40760 42640
L40740 42660
L40690 42680
L40500 42680
" />
<path d="M40950 42420
L41070 42920
L41160 42560
L41260 42920
L41380 42420
" />
<path d="M41850 42920
L41690 42680
" />
<path d="M41570 42920
L41570 42420
L41760 42420
L41810 42450
L41830 42470
L41850 42520
L41850 42590
L41830 42640
L41810 42660
L41760 42680
L41570 42680
" />
<path d="M41950 42970
L42330 42970
" />
<path d="M42620 42660
L42450 42660
" />
<path d="M42450 42920
L42450 42420
L42690 42420
" />
<path d="M43120 42920
L42880 42920
L42880 42420
" />
<path d="M43260 42780
L43500 42780
" />
<path d="M43210 42920
L43380 42420
L43540 42920
" />
<path d="M43970 42450
L43930 42420
L43850 42420
L43780 42450
L43740 42490
L43710 42540
L43690 42640
L43690 42710
L43710 42800
L43740 42850
L43780 42900
L43850 42920
L43900 42920
L43970 42900
L44000 42870
L44000 42710
L43900 42710
" />
</g>
</g>
<g style="fill:#008484; fill-opacity:0.0; 
stroke:#008484; stroke-width:0; stroke-opacity:1; 
stroke-linecap:round; stroke-linejoin:round;">
<g >
</g>
<g style="fill:#840000; fill-opacity:0.0; 
stroke:#840000; stroke-width:0; stroke-opacity:1; 
stroke-linecap:round; stroke-linejoin:round;">
</g>
<g style="fill:#FFFFC2; fill-opacity:0.0; 
stroke:#FFFFC2; stroke-width:0; stroke-opacity:1; 
stroke-linecap:round; stroke-linejoin:round;">
</g>
<g style="fill:#FFFFC2; fill-opacity:0.6; 
stroke:#FFFFC2; stroke-width:0; stroke-opacity:1; 
stroke-linecap:round; stroke-linejoin:round;">
<rect x="28750" y="35250" width="4000" height="3000" rx="0" />
</g>
<g style="fill:#840000; fill-opacity:0.6; 
stroke:#840000; stroke-width:0; stroke-opacity:1; 
stroke-linecap:round; stroke-linejoin:round;">
</g>
<g style="fill:#840000; fill-opacity:0.0; 
stroke:#840000; stroke-width:100; stroke-opacity:1; 
stroke-linecap:round; stroke-linejoin:round;">
<rect x="28750" y="35250" width="4000" height="3000" rx="0" />
</g>
<g style="fill:#840000; fill-opacity:1.0; 
stroke:#840000; stroke-width:0; stroke-opacity:1; 
stroke-linecap:round; stroke-linejoin:round;">
<path d="M29449.6 37500 A250 250 0.0 0 0 29449.6 38000 L 29450 37750 Z" />
</g>
<g style="fill:#840000; fill-opacity:0.0; 
stroke:#840000; stroke-width:100; stroke-opacity:1; 
stroke-linecap:round; stroke-linejoin:round;">
<path d="M29449.6 37500 A250 250 0.0 0 0 29449.6 38000" />
<path d="M29449.6 37500 A250 250 0.0 0 0 29449.6 38000" />
<rect x="28750" y="35250" width="4000" height="3000" rx="0" />
</g>
<g style="fill:#840000; fill-opacity:1.0; 
stroke:#840000; stroke-width:100; stroke-opacity:1; 
stroke-linecap:round; stroke-linejoin:round;">
<rect x="29450" y="37500" width="2750" height="500" rx="0" />
</g>
<g style="fill:#840000; fill-opacity:0.0; 
stroke:#840000; stroke-width:100; stroke-opacity:1; 
stroke-linecap:round; stroke-linejoin:round;">
<path style="fill:#840000; fill-opacity:0.0; 
stroke:#840000; stroke-width:100; stroke-opacity:1; 
stroke-linecap:round; stroke-linejoin:round;fill:none"
d="M 31250,35850
31500,36100
" /> 
<path style="fill:#840000; fill-opacity:0.0; 
stroke:#840000; stroke-width:100; stroke-opacity:1; 
stroke-linecap:round; stroke-linejoin:round;fill:none"
d="M 32750,37750
32250,37750
" /> 
<path style="fill:#840000; fill-opacity:0.0; 
stroke:#840000; stroke-width:100; stroke-opacity:1; 
stroke-linecap:round; stroke-linejoin:round;fill:none"
d="M 32750,36750
31250,36750
31250,35850
31000,36100
" /> 
<path style="fill:#840000; fill-opacity:0.0; 
stroke:#840000; stroke-width:100; stroke-opacity:1; 
stroke-linecap:round; stroke-linejoin:round;fill:none"
d="M 29250,35750
29750,35750
30250,36250
30750,35750
31750,35750
32750,35750
" /> 
</g>
<g style="fill:#840000; fill-opacity:0.0; 
stroke:#840000; stroke-width:60; stroke-opacity:1; 
stroke-linecap:round; stroke-linejoin:round;">
<path d="M32750 37750
L33750 37750
" />
<text x="33250" y="37650"
textLength="540" font-size="660" lengthAdjust="spacingAndGlyphs"
text-anchor="middle" opacity="0">1</text>
<path d="M33390 37620
L33100 37620
" />
<path d="M33250 37620
L33250 37120
L33200 37190
L33150 37240
L33100 37260
" />
<path d="M32750 35750
L33750 35750
" />
<text x="33250" y="35650"
textLength="540" font-size="660" lengthAdjust="spacingAndGlyphs"
text-anchor="middle" opacity="0">2</text>
<path d="M33100 35170
L33130 35150
L33170 35120
L33290 35120
L33340 35150
L33360 35170
L33390 35220
L33390 35260
L33360 35340
L33080 35620
L33390 35620
" />
<path d="M32750 36750
L33750 36750
" />
<text x="33250" y="36650"
textLength="540" font-size="660" lengthAdjust="spacingAndGlyphs"
text-anchor="middle" opacity="0">3</text>
<path d="M33080 36120
L33390 36120
L33220 36310
L33290 36310
L33340 36340
L33360 36360
L33390 36410
L33390 36530
L33360 36570
L33340 36600
L33290 36620
L33150 36620
L33100 36600
L33080 36570
" />
</g>
<g style="fill:#008484; fill-opacity:0.0; 
stroke:#008484; stroke-width:60; stroke-opacity:1; 
stroke-linecap:round; stroke-linejoin:round;">
<text x="29040" y="33970"
textLength="920" font-size="660" lengthAdjust="spacingAndGlyphs"
text-anchor="middle" opacity="0">J4</text>
<path d="M28870 33440
L28870 33800
L28840 33870
L28800 33920
L28730 33940
L28680 33940
" />
<path d="M29320 33610
L29320 33940
" />
<path d="M29200 33420
L29080 33770
L29390 33770
" />
<text x="32170" y="34720"
textLength="7160" font-size="660" lengthAdjust="spacingAndGlyphs"
text-anchor="middle" opacity="0">Barrel_Jack_Switch</text>
<path d="M28900 34430
L28970 34450
L29000 34480
L29020 34520
L29020 34600
L29000 34640
L28970 34670
L28930 34690
L28740 34690
L28740 34190
L28900 34190
L28950 34220
L28970 34240
L29000 34290
L29000 34330
L28970 34380
L28950 34410
L28900 34430
L28740 34430
" />
<path d="M29450 34690
L29450 34430
L29430 34380
L29380 34360
L29280 34360
L29240 34380
" />
<path d="M29450 34670
L29400 34690
L29280 34690
L29240 34670
L29210 34620
L29210 34570
L29240 34520
L29280 34500
L29400 34500
L29450 34480
" />
<path d="M29690 34690
L29690 34360
" />
<path d="M29690 34450
L29710 34410
L29740 34380
L29780 34360
L29830 34360
" />
<path d="M30000 34690
L30000 34360
" />
<path d="M30000 34450
L30020 34410
L30050 34380
L30090 34360
L30140 34360
" />
<path d="M30500 34670
L30450 34690
L30360 34690
L30310 34670
L30280 34620
L30280 34430
L30310 34380
L30360 34360
L30450 34360
L30500 34380
L30520 34430
L30520 34480
L30280 34520
" />
<path d="M30810 34690
L30760 34670
L30740 34620
L30740 34190
" />
<path d="M30880 34740
L31260 34740
" />
<path d="M31520 34190
L31520 34550
L31500 34620
L31450 34670
L31380 34690
L31330 34690
" />
<path d="M31970 34690
L31970 34430
L31950 34380
L31900 34360
L31810 34360
L31760 34380
" />
<path d="M31970 34670
L31930 34690
L31810 34690
L31760 34670
L31740 34620
L31740 34570
L31760 34520
L31810 34500
L31930 34500
L31970 34480
" />
<path d="M32430 34670
L32380 34690
L32280 34690
L32240 34670
L32210 34640
L32190 34600
L32190 34450
L32210 34410
L32240 34380
L32280 34360
L32380 34360
L32430 34380
" />
<path d="M32640 34690
L32640 34190
" />
<path d="M32690 34500
L32830 34690
" />
<path d="M32830 34360
L32640 34550
" />
<path d="M32930 34740
L33310 34740
" />
<path d="M33400 34670
L33470 34690
L33590 34690
L33640 34670
L33670 34640
L33690 34600
L33690 34550
L33670 34500
L33640 34480
L33590 34450
L33500 34430
L33450 34410
L33430 34380
L33400 34330
L33400 34290
L33430 34240
L33450 34220
L33500 34190
L33620 34190
L33690 34220
" />
<path d="M33860 34360
L33950 34690
L34050 34450
L34140 34690
L34240 34360
" />
<path d="M34430 34690
L34430 34360
" />
<path d="M34430 34190
L34400 34220
L34430 34240
L34450 34220
L34430 34190
L34430 34240
" />
<path d="M34590 34360
L34780 34360
" />
<path d="M34670 34190
L34670 34620
L34690 34670
L34740 34690
L34780 34690
" />
<path d="M35170 34670
L35120 34690
L35020 34690
L34970 34670
L34950 34640
L34930 34600
L34930 34450
L34950 34410
L34970 34380
L35020 34360
L35120 34360
L35170 34380
" />
<path d="M35380 34690
L35380 34190
" />
<path d="M35590 34690
L35590 34430
L35570 34380
L35520 34360
L35450 34360
L35400 34380
L35380 34410
" />
</g>
</g>
<g style="fill:#008484; fill-opacity:0.0; 
stroke:#008484; stroke-width:0; stroke-opacity:1; 
stroke-linecap:round; stroke-linejoin:round;">
<g >
</g>
<g style="fill:#840000; fill-opacity:0.0; 
stroke:#840000; stroke-width:0; stroke-opacity:1; 
stroke-linecap:round; stroke-linejoin:round;">
</g>
<g style="fill:#840000; fill-opacity:0.0; 
stroke:#840000; stroke-width:60; stroke-opacity:1; 
stroke-linecap:round; stroke-linejoin:round;">
<path style="fill:#840000; fill-opacity:0.0; 
stroke:#840000; stroke-width:60; stroke-opacity:1; 
stroke-linecap:round; stroke-linejoin:round;fill:none"
d="M 53500,40750
53500,41250
54000,41250
53500,41750
53000,41250
53500,41250
" /> 
</g>
<g style="fill:#008484; fill-opacity:0.0; 
stroke:#008484; stroke-width:60; stroke-opacity:1; 
stroke-linecap:round; stroke-linejoin:round;">
<text x="53550" y="42750"
textLength="2060" font-size="660" lengthAdjust="spacingAndGlyphs"
text-anchor="middle" opacity="0">GNDS</text>
<path d="M52930 42250
L52880 42220
L52810 42220
L52740 42250
L52690 42290
L52660 42340
L52640 42440
L52640 42510
L52660 42600
L52690 42650
L52740 42700
L52810 42720
L52850 42720
L52930 42700
L52950 42670
L52950 42510
L52850 42510
" />
<path d="M53160 42720
L53160 42220
L53450 42720
L53450 42220
" />
<path d="M53690 42720
L53690 42220
L53810 42220
L53880 42250
L53930 42290
L53950 42340
L53970 42440
L53970 42510
L53950 42600
L53930 42650
L53880 42700
L53810 42720
L53690 42720
" />
<path d="M54160 42700
L54240 42720
L54350 42720
L54400 42700
L54430 42670
L54450 42630
L54450 42580
L54430 42530
L54400 42510
L54350 42480
L54260 42460
L54210 42440
L54190 42410
L54160 42360
L54160 42320
L54190 42270
L54210 42250
L54260 42220
L54380 42220
L54450 42250
" />
</g>
</g>
<g style="fill:#008484; fill-opacity:0.0; 
stroke:#008484; stroke-width:0; stroke-opacity:1; 
stroke-linecap:round; stroke-linejoin:round;">
<g >
</g>
<g style="fill:#840000; fill-opacity:0.0; 
stroke:#840000; stroke-width:0; stroke-opacity:1; 
stroke-linecap:round; stroke-linejoin:round;">
</g>
<g style="fill:#840000; fill-opacity:0.0; 
stroke:#840000; stroke-width:200; stroke-opacity:1; 
stroke-linecap:round; stroke-linejoin:round;">
<path style="fill:#840000; fill-opacity:0.0; 
stroke:#840000; stroke-width:200; stroke-opacity:1; 
stroke-linecap:round; stroke-linejoin:round;fill:none"
d="M 52700,38800
54300,38800
" /> 
<path style="fill:#840000; fill-opacity:0.0; 
stroke:#840000; stroke-width:200; stroke-opacity:1; 
stroke-linecap:round; stroke-linejoin:round;fill:none"
d="M 52700,38200
54300,38200
" /> 
</g>
<g style="fill:#840000; fill-opacity:0.0; 
stroke:#840000; stroke-width:60; stroke-opacity:1; 
stroke-linecap:round; stroke-linejoin:round;">
<path d="M53500 38100
L53500 37000
" />
<path d="M53500 38900
L53500 40000
" />
</g>
<g style="fill:#008484; fill-opacity:0.0; 
stroke:#008484; stroke-width:60; stroke-opacity:1; 
stroke-linecap:round; stroke-linejoin:round;">
<text x="55400" y="38310"
textLength="1510" font-size="660" lengthAdjust="spacingAndGlyphs"
text-anchor="middle" opacity="0">C28</text>
<path d="M55070 38230
L55050 38260
L54980 38280
L54930 38280
L54860 38260
L54810 38210
L54790 38160
L54760 38070
L54760 38000
L54790 37900
L54810 37850
L54860 37810
L54930 37780
L54980 37780
L55050 37810
L55070 37830
" />
<path d="M55260 37830
L55290 37810
L55340 37780
L55450 37780
L55500 37810
L55530 37830
L55550 37880
L55550 37920
L55530 38000
L55240 38280
L55550 38280
" />
<path d="M55840 38000
L55790 37970
L55760 37950
L55740 37900
L55740 37880
L55760 37830
L55790 37810
L55840 37780
L55930 37780
L55980 37810
L56000 37830
L56030 37880
L56030 37900
L56000 37950
L55980 37970
L55930 38000
L55840 38000
L55790 38020
L55760 38040
L55740 38090
L55740 38190
L55760 38230
L55790 38260
L55840 38280
L55930 38280
L55980 38260
L56000 38230
L56030 38190
L56030 38090
L56000 38040
L55980 38020
L55930 38000
" />
<text x="55360" y="39220"
textLength="1420" font-size="660" lengthAdjust="spacingAndGlyphs"
text-anchor="middle" opacity="0">1uF</text>
<path d="M55060 39190
L54770 39190
" />
<path d="M54910 39190
L54910 38690
L54870 38760
L54820 38810
L54770 38830
" />
<path d="M55490 38860
L55490 39190
" />
<path d="M55270 38860
L55270 39120
L55300 39170
L55340 39190
L55410 39190
L55460 39170
L55490 39140
" />
<path d="M55890 38930
L55720 38930
" />
<path d="M55720 39190
L55720 38690
L55960 38690
" />
</g>
</g>
<g style="fill:#008484; fill-opacity:0.0; 
stroke:#008484; stroke-width:0; stroke-opacity:1; 
stroke-linecap:round; stroke-linejoin:round;">
<g >
</g>
<g style="fill:#840000; fill-opacity:0.0; 
stroke:#840000; stroke-width:0; stroke-opacity:1; 
stroke-linecap:round; stroke-linejoin:round;">
</g>
<g style="fill:#840000; fill-opacity:0.0; 
stroke:#840000; stroke-width:60; stroke-opacity:1; 
stroke-linecap:round; stroke-linejoin:round;">
<path style="fill:#840000; fill-opacity:0.0; 
stroke:#840000; stroke-width:60; stroke-opacity:1; 
stroke-linecap:round; stroke-linejoin:round;fill:none"
d="M 38750,41000
38750,41500
39250,41500
38750,42000
38250,41500
38750,41500
" /> 
</g>
<g style="fill:#008484; fill-opacity:0.0; 
stroke:#008484; stroke-width:60; stroke-opacity:1; 
stroke-linecap:round; stroke-linejoin:round;">
<text x="38800" y="43000"
textLength="2060" font-size="660" lengthAdjust="spacingAndGlyphs"
text-anchor="middle" opacity="0">GNDS</text>
<path d="M38180 42500
L38130 42470
L38060 42470
L37990 42500
L37940 42540
L37910 42590
L37890 42690
L37890 42760
L37910 42850
L37940 42900
L37990 42950
L38060 42970
L38100 42970
L38180 42950
L38200 42920
L38200 42760
L38100 42760
" />
<path d="M38410 42970
L38410 42470
L38700 42970
L38700 42470
" />
<path d="M38940 42970
L38940 42470
L39060 42470
L39130 42500
L39180 42540
L39200 42590
L39220 42690
L39220 42760
L39200 42850
L39180 42900
L39130 42950
L39060 42970
L38940 42970
" />
<path d="M39410 42950
L39490 42970
L39600 42970
L39650 42950
L39680 42920
L39700 42880
L39700 42830
L39680 42780
L39650 42760
L39600 42730
L39510 42710
L39460 42690
L39440 42660
L39410 42610
L39410 42570
L39440 42520
L39460 42500
L39510 42470
L39630 42470
L39700 42500
" />
</g>
</g>
<g style="fill:#008484; fill-opacity:0.0; 
stroke:#008484; stroke-width:0; stroke-opacity:1; 
stroke-linecap:round; stroke-linejoin:round;">
<g >
</g>
<g style="fill:#840000; fill-opacity:0.0; 
stroke:#840000; stroke-width:0; stroke-opacity:1; 
stroke-linecap:round; stroke-linejoin:round;">
</g>
<g style="fill:#840000; fill-opacity:0.0; 
stroke:#840000; stroke-width:60; stroke-opacity:1; 
stroke-linecap:round; stroke-linejoin:round;">
<path style="fill:#840000; fill-opacity:0.0; 
stroke:#840000; stroke-width:60; stroke-opacity:1; 
stroke-linecap:round; stroke-linejoin:round;fill:none"
d="M 75250,40750
75250,41250
75750,41250
75250,41750
74750,41250
75250,41250
" /> 
</g>
<g style="fill:#008484; fill-opacity:0.0; 
stroke:#008484; stroke-width:60; stroke-opacity:1; 
stroke-linecap:round; stroke-linejoin:round;">
<text x="75300" y="42750"
textLength="2060" font-size="660" lengthAdjust="spacingAndGlyphs"
text-anchor="middle" opacity="0">GNDS</text>
<path d="M74680 42250
L74630 42220
L74560 42220
L74490 42250
L74440 42290
L74410 42340
L74390 42440
L74390 42510
L74410 42600
L74440 42650
L74490 42700
L74560 42720
L74600 42720
L74680 42700
L74700 42670
L74700 42510
L74600 42510
" />
<path d="M74910 42720
L74910 42220
L75200 42720
L75200 42220
" />
<path d="M75440 42720
L75440 42220
L75560 42220
L75630 42250
L75680 42290
L75700 42340
L75720 42440
L75720 42510
L75700 42600
L75680 42650
L75630 42700
L75560 42720
L75440 42720
" />
<path d="M75910 42700
L75990 42720
L76100 42720
L76150 42700
L76180 42670
L76200 42630
L76200 42580
L76180 42530
L76150 42510
L76100 42480
L76010 42460
L75960 42440
L75940 42410
L75910 42360
L75910 42320
L75940 42270
L75960 42250
L76010 42220
L76130 42220
L76200 42250
" />
</g>
</g>
<g style="fill:#008484; fill-opacity:0.0; 
stroke:#008484; stroke-width:0; stroke-opacity:1; 
stroke-linecap:round; stroke-linejoin:round;">
<g >
</g>
<g style="fill:#840000; fill-opacity:0.0; 
stroke:#840000; stroke-width:0; stroke-opacity:1; 
stroke-linecap:round; stroke-linejoin:round;">
</g>
<g style="fill:#840000; fill-opacity:0.0; 
stroke:#840000; stroke-width:200; stroke-opacity:1; 
stroke-linecap:round; stroke-linejoin:round;">
<path style="fill:#840000; fill-opacity:0.0; 
stroke:#840000; stroke-width:200; stroke-opacity:1; 
stroke-linecap:round; stroke-linejoin:round;fill:none"
d="M 74450,38800
76050,38800
" /> 
<path style="fill:#840000; fill-opacity:0.0; 
stroke:#840000; stroke-width:200; stroke-opacity:1; 
stroke-linecap:round; stroke-linejoin:round;fill:none"
d="M 74450,38200
76050,38200
" /> 
</g>
<g style="fill:#840000; fill-opacity:0.0; 
stroke:#840000; stroke-width:60; stroke-opacity:1; 
stroke-linecap:round; stroke-linejoin:round;">
<path d="M75250 38100
L75250 37000
" />
<path d="M75250 38900
L75250 40000
" />
</g>
<g style="fill:#008484; fill-opacity:0.0; 
stroke:#008484; stroke-width:60; stroke-opacity:1; 
stroke-linecap:round; stroke-linejoin:round;">
<text x="77150" y="38310"
textLength="1510" font-size="660" lengthAdjust="spacingAndGlyphs"
text-anchor="middle" opacity="0">C29</text>
<path d="M76820 38230
L76800 38260
L76730 38280
L76680 38280
L76610 38260
L76560 38210
L76540 38160
L76510 38070
L76510 38000
L76540 37900
L76560 37850
L76610 37810
L76680 37780
L76730 37780
L76800 37810
L76820 37830
" />
<path d="M77010 37830
L77040 37810
L77090 37780
L77200 37780
L77250 37810
L77280 37830
L77300 37880
L77300 37920
L77280 38000
L76990 38280
L77300 38280
" />
<path d="M77540 38280
L77630 38280
L77680 38260
L77700 38230
L77750 38160
L77780 38070
L77780 37880
L77750 37830
L77730 37810
L77680 37780
L77590 37780
L77540 37810
L77510 37830
L77490 37880
L77490 38000
L77510 38040
L77540 38070
L77590 38090
L77680 38090
L77730 38070
L77750 38040
L77780 38000
" />
<text x="77110" y="39220"
textLength="1420" font-size="660" lengthAdjust="spacingAndGlyphs"
text-anchor="middle" opacity="0">1uF</text>
<path d="M76810 39190
L76520 39190
" />
<path d="M76660 39190
L76660 38690
L76620 38760
L76570 38810
L76520 38830
" />
<path d="M77240 38860
L77240 39190
" />
<path d="M77020 38860
L77020 39120
L77050 39170
L77090 39190
L77160 39190
L77210 39170
L77240 39140
" />
<path d="M77640 38930
L77470 38930
" />
<path d="M77470 39190
L77470 38690
L77710 38690
" />
</g>
</g>
<g style="fill:#008484; fill-opacity:0.0; 
stroke:#008484; stroke-width:0; stroke-opacity:1; 
stroke-linecap:round; stroke-linejoin:round;">
<g >
</g>
<g style="fill:#840000; fill-opacity:0.0; 
stroke:#840000; stroke-width:0; stroke-opacity:1; 
stroke-linecap:round; stroke-linejoin:round;">
</g>
<g style="fill:#840000; fill-opacity:0.0; 
stroke:#840000; stroke-width:60; stroke-opacity:1; 
stroke-linecap:round; stroke-linejoin:round;">
<path style="fill:#840000; fill-opacity:0.0; 
stroke:#840000; stroke-width:60; stroke-opacity:1; 
stroke-linecap:round; stroke-linejoin:round;fill:none"
d="M 86700,31000
87000,30500
" /> 
<path style="fill:#840000; fill-opacity:0.0; 
stroke:#840000; stroke-width:60; stroke-opacity:1; 
stroke-linecap:round; stroke-linejoin:round;fill:none"
d="M 87000,31500
87000,30500
" /> 
<path style="fill:#840000; fill-opacity:0.0; 
stroke:#840000; stroke-width:60; stroke-opacity:1; 
stroke-linecap:round; stroke-linejoin:round;fill:none"
d="M 87000,30500
87300,31000
" /> 
</g>
<g style="fill:#008484; fill-opacity:0.0; 
stroke:#008484; stroke-width:60; stroke-opacity:1; 
stroke-linecap:round; stroke-linejoin:round;">
<text x="87150" y="30040"
textLength="2300" font-size="660" lengthAdjust="spacingAndGlyphs"
text-anchor="middle" opacity="0">+3.3V</text>
<path d="M86150 29820
L86530 29820
" />
<path d="M86340 30010
L86340 29630
" />
<path d="M86720 29510
L87030 29510
L86860 29700
L86930 29700
L86980 29730
L87000 29750
L87030 29800
L87030 29920
L87000 29960
L86980 29990
L86930 30010
L86790 30010
L86740 29990
L86720 29960
" />
<path d="M87240 29960
L87260 29990
L87240 30010
L87220 29990
L87240 29960
L87240 30010
" />
<path d="M87430 29510
L87740 29510
L87570 29700
L87650 29700
L87690 29730
L87720 29750
L87740 29800
L87740 29920
L87720 29960
L87690 29990
L87650 30010
L87500 30010
L87450 29990
L87430 29960
" />
<path d="M87880 29510
L88050 30010
L88220 29510
" />
</g>
</g>
<g style="fill:#008484; fill-opacity:0.0; 
stroke:#008484; stroke-width:0; stroke-opacity:1; 
stroke-linecap:round; stroke-linejoin:round;">
<g >
</g>
<g style="fill:#840000; fill-opacity:0.0; 
stroke:#840000; stroke-width:0; stroke-opacity:1; 
stroke-linecap:round; stroke-linejoin:round;">
</g>
<g style="fill:#840000; fill-opacity:0.0; 
stroke:#840000; stroke-width:60; stroke-opacity:1; 
stroke-linecap:round; stroke-linejoin:round;">
<path style="fill:#840000; fill-opacity:0.0; 
stroke:#840000; stroke-width:60; stroke-opacity:1; 
stroke-linecap:round; stroke-linejoin:round;fill:none"
d="M 65500,40750
65500,41250
66000,41250
65500,41750
65000,41250
65500,41250
" /> 
</g>
<g style="fill:#008484; fill-opacity:0.0; 
stroke:#008484; stroke-width:60; stroke-opacity:1; 
stroke-linecap:round; stroke-linejoin:round;">
<text x="65550" y="42750"
textLength="2060" font-size="660" lengthAdjust="spacingAndGlyphs"
text-anchor="middle" opacity="0">GNDS</text>
<path d="M64930 42250
L64880 42220
L64810 42220
L64740 42250
L64690 42290
L64660 42340
L64640 42440
L64640 42510
L64660 42600
L64690 42650
L64740 42700
L64810 42720
L64850 42720
L64930 42700
L64950 42670
L64950 42510
L64850 42510
" />
<path d="M65160 42720
L65160 42220
L65450 42720
L65450 42220
" />
<path d="M65690 42720
L65690 42220
L65810 42220
L65880 42250
L65930 42290
L65950 42340
L65970 42440
L65970 42510
L65950 42600
L65930 42650
L65880 42700
L65810 42720
L65690 42720
" />
<path d="M66160 42700
L66240 42720
L66350 42720
L66400 42700
L66430 42670
L66450 42630
L66450 42580
L66430 42530
L66400 42510
L66350 42480
L66260 42460
L66210 42440
L66190 42410
L66160 42360
L66160 42320
L66190 42270
L66210 42250
L66260 42220
L66380 42220
L66450 42250
" />
</g>
</g>
<g style="fill:#008484; fill-opacity:0.0; 
stroke:#008484; stroke-width:60; stroke-opacity:1; 
stroke-linecap:round; stroke-linejoin:round;">
</g>
<g style="fill:#008400; fill-opacity:0.0; 
stroke:#008400; stroke-width:60; stroke-opacity:1; 
stroke-linecap:round; stroke-linejoin:round;">
<path d="M65500 38750
L65500 40750
" />
<path d="M68500 35750
L75250 35750
" />
<path d="M87000 35750
L87000 31500
" />
<path d="M38750 37750
L38750 41000
" />
<path d="M75250 37000
L75250 35750
" />
<path d="M75250 35750
L87000 35750
" />
<path d="M75250 40000
L75250 40750
" />
<path d="M33750 37750
L38750 37750
" />
<path d="M38750 36750
L38750 37750
" />
<path d="M53500 37000
L53500 35750
" />
<path d="M53500 40000
L53500 40750
" />
<path d="M33750 36750
L38750 36750
" />
<path d="M53500 35750
L57500 35750
" />
<path d="M46500 35750
L33750 35750
" />
<path d="M42250 41000
L42250 36750
" />
<path d="M42250 36750
L38750 36750
" />
<path d="M49500 35750
L53500 35750
" />
<path d="M57500 35750
L62500 35750
" />
</g>
<g style="fill:#0000C2; fill-opacity:0.0; 
stroke:#0000C2; stroke-width:60; stroke-opacity:1; 
stroke-linecap:round; stroke-linejoin:round;">
<text x="28750" y="39150"
textLength="6270" font-size="660" lengthAdjust="spacingAndGlyphs"
text-anchor="start" opacity="0">Center Negative!</text>
<path d="M29180 39070
L29160 39100
L29080 39120
L29040 39120
L28970 39100
L28920 39050
L28890 39000
L28870 38910
L28870 38840
L28890 38740
L28920 38690
L28970 38650
L29040 38620
L29080 38620
L29160 38650
L29180 38670
" />
<path d="M29580 39100
L29540 39120
L29440 39120
L29390 39100
L29370 39050
L29370 38860
L29390 38810
L29440 38790
L29540 38790
L29580 38810
L29610 38860
L29610 38910
L29370 38950
" />
<path d="M29820 38790
L29820 39120
" />
<path d="M29820 38840
L29850 38810
L29890 38790
L29970 38790
L30010 38810
L30040 38860
L30040 39120
" />
<path d="M30200 38790
L30390 38790
" />
<path d="M30280 38620
L30280 39050
L30300 39100
L30350 39120
L30390 39120
" />
<path d="M30750 39100
L30700 39120
L30610 39120
L30560 39100
L30540 39050
L30540 38860
L30560 38810
L30610 38790
L30700 38790
L30750 38810
L30780 38860
L30780 38910
L30540 38950
" />
<path d="M30990 39120
L30990 38790
" />
<path d="M30990 38880
L31010 38840
L31040 38810
L31080 38790
L31130 38790
" />
<path d="M31680 39120
L31680 38620
L31970 39120
L31970 38620
" />
<path d="M32390 39100
L32350 39120
L32250 39120
L32200 39100
L32180 39050
L32180 38860
L32200 38810
L32250 38790
L32350 38790
L32390 38810
L32420 38860
L32420 38910
L32180 38950
" />
<path d="M32850 38790
L32850 39190
L32820 39240
L32800 39260
L32750 39290
L32680 39290
L32630 39260
" />
<path d="M32850 39100
L32800 39120
L32700 39120
L32660 39100
L32630 39070
L32610 39030
L32610 38880
L32630 38840
L32660 38810
L32700 38790
L32800 38790
L32850 38810
" />
<path d="M33300 39120
L33300 38860
L33280 38810
L33230 38790
L33130 38790
L33080 38810
" />
<path d="M33300 39100
L33250 39120
L33130 39120
L33080 39100
L33060 39050
L33060 39000
L33080 38950
L33130 38930
L33250 38930
L33300 38910
" />
<path d="M33470 38790
L33660 38790
" />
<path d="M33540 38620
L33540 39050
L33560 39100
L33610 39120
L33660 39120
" />
<path d="M33820 39120
L33820 38790
" />
<path d="M33820 38620
L33800 38650
L33820 38670
L33850 38650
L33820 38620
L33820 38670
" />
<path d="M34010 38790
L34130 39120
L34250 38790
" />
<path d="M34630 39100
L34580 39120
L34490 39120
L34440 39100
L34420 39050
L34420 38860
L34440 38810
L34490 38790
L34580 38790
L34630 38810
L34660 38860
L34660 38910
L34420 38950
" />
<path d="M34870 39070
L34890 39100
L34870 39120
L34850 39100
L34870 39070
L34870 39120
" />
<path d="M34870 38930
L34850 38650
L34870 38620
L34890 38650
L34870 38930
L34870 38620
" />
</g>
<g style="fill:#0000C2; fill-opacity:0.0; 
stroke:#0000C2; stroke-width:0; stroke-opacity:1; 
stroke-linecap:round; stroke-linejoin:round;">
</g>
<g style="fill:#008400; fill-opacity:0.0; 
stroke:#008400; stroke-width:0; stroke-opacity:1; 
stroke-linecap:round; stroke-linejoin:round;">
</g>
<g style="fill:#008400; fill-opacity:1.0; 
stroke:#008400; stroke-width:100; stroke-opacity:1; 
stroke-linecap:round; stroke-linejoin:round;">
<circle cx="38750" cy="37750" r="200" /> 
</g>
<g style="fill:#008400; fill-opacity:1.0; 
stroke:#008400; stroke-width:0; stroke-opacity:1; 
stroke-linecap:round; stroke-linejoin:round;">
</g>
<g style="fill:#008400; fill-opacity:1.0; 
stroke:#008400; stroke-width:100; stroke-opacity:1; 
stroke-linecap:round; stroke-linejoin:round;">
<circle cx="53500" cy="35750" r="200" /> 
</g>
<g style="fill:#008400; fill-opacity:1.0; 
stroke:#008400; stroke-width:0; stroke-opacity:1; 
stroke-linecap:round; stroke-linejoin:round;">
</g>
<g style="fill:#008400; fill-opacity:1.0; 
stroke:#008400; stroke-width:100; stroke-opacity:1; 
stroke-linecap:round; stroke-linejoin:round;">
<circle cx="38750" cy="36750" r="200" /> 
</g>
<g style="fill:#008400; fill-opacity:1.0; 
stroke:#008400; stroke-width:0; stroke-opacity:1; 
stroke-linecap:round; stroke-linejoin:round;">
</g>
<g style="fill:#008400; fill-opacity:1.0; 
stroke:#008400; stroke-width:100; stroke-opacity:1; 
stroke-linecap:round; stroke-linejoin:round;">
<circle cx="57500" cy="35750" r="200" /> 
</g>
<g style="fill:#008400; fill-opacity:1.0; 
stroke:#008400; stroke-width:0; stroke-opacity:1; 
stroke-linecap:round; stroke-linejoin:round;">
</g>
<g style="fill:#008400; fill-opacity:1.0; 
stroke:#008400; stroke-width:100; stroke-opacity:1; 
stroke-linecap:round; stroke-linejoin:round;">
<circle cx="75250" cy="35750" r="200" /> 
</g> 
</svg>
