<?xml version="1.0" standalone="no"?>
 <!DOCTYPE svg PUBLIC "-//W3C//DTD SVG 1.1//EN" 
 "http://www.w3.org/Graphics/SVG/1.1/DTD/svg11.dtd"> 
<svg
  xmlns:svg="http://www.w3.org/2000/svg"
  xmlns="http://www.w3.org/2000/svg"
  xmlns:xlink="http://www.w3.org/1999/xlink"
  version="1.1"
  width="29.700220cm" height="21.000720cm" viewBox="0 0 116930 82680">
<title>SVG Picture created as RotaryEncoder-ExtInput-RotaryEncoder1.svg date 2020/11/12 00:40:25 </title>
  <desc>Picture generated by Eeschema-SVG </desc>
<g style="fill:#000000; fill-opacity:1;stroke:#000000; stroke-opacity:1;
stroke-linecap:round; stroke-linejoin:round;"
 transform="translate(0 0) scale(1 1)">
</g>
<g style="fill:#000000; fill-opacity:0.0; 
stroke:#000000; stroke-width:-10; stroke-opacity:1; 
stroke-linecap:round; stroke-linejoin:round;">
</g>
<g style="fill:#840000; fill-opacity:0.0; 
stroke:#840000; stroke-width:-10; stroke-opacity:1; 
stroke-linecap:round; stroke-linejoin:round;">
</g>
<g style="fill:#840000; fill-opacity:0.0; 
stroke:#840000; stroke-width:100; stroke-opacity:1; 
stroke-linecap:round; stroke-linejoin:round;">
</g>
<g style="fill:#840000; fill-opacity:0.0; 
stroke:#840000; stroke-width:60; stroke-opacity:1; 
stroke-linecap:round; stroke-linejoin:round;">
<rect x="69690" y="65360" width="42520" height="12600" rx="0" />
</g>
<g style="fill:#840000; fill-opacity:0.0; 
stroke:#840000; stroke-width:100; stroke-opacity:1; 
stroke-linecap:round; stroke-linejoin:round;">
</g>
<g style="fill:#840000; fill-opacity:0.0; 
stroke:#840000; stroke-width:60; stroke-opacity:1; 
stroke-linecap:round; stroke-linejoin:round;">
<rect x="3940" y="3940" width="109050" height="74800" rx="0" />
</g>
<g style="fill:#840000; fill-opacity:0.0; 
stroke:#840000; stroke-width:100; stroke-opacity:1; 
stroke-linecap:round; stroke-linejoin:round;">
</g>
<g style="fill:#840000; fill-opacity:0.0; 
stroke:#840000; stroke-width:60; stroke-opacity:1; 
stroke-linecap:round; stroke-linejoin:round;">
<rect x="4720" y="4720" width="107490" height="73240" rx="0" />
</g>
<g style="fill:#840000; fill-opacity:0.0; 
stroke:#840000; stroke-width:100; stroke-opacity:1; 
stroke-linecap:round; stroke-linejoin:round;">
</g>
<g style="fill:#840000; fill-opacity:0.0; 
stroke:#840000; stroke-width:60; stroke-opacity:1; 
stroke-linecap:round; stroke-linejoin:round;">
<path d="M23620 4720
L23620 3940
" />
</g>
<g style="fill:#840000; fill-opacity:0.0; 
stroke:#840000; stroke-width:100; stroke-opacity:1; 
stroke-linecap:round; stroke-linejoin:round;">
</g>
<g style="fill:#840000; fill-opacity:0.0; 
stroke:#840000; stroke-width:60; stroke-opacity:1; 
stroke-linecap:round; stroke-linejoin:round;">
<path d="M43310 4720
L43310 3940
" />
</g>
<g style="fill:#840000; fill-opacity:0.0; 
stroke:#840000; stroke-width:100; stroke-opacity:1; 
stroke-linecap:round; stroke-linejoin:round;">
</g>
<g style="fill:#840000; fill-opacity:0.0; 
stroke:#840000; stroke-width:60; stroke-opacity:1; 
stroke-linecap:round; stroke-linejoin:round;">
<path d="M62990 4720
L62990 3940
" />
</g>
<g style="fill:#840000; fill-opacity:0.0; 
stroke:#840000; stroke-width:100; stroke-opacity:1; 
stroke-linecap:round; stroke-linejoin:round;">
</g>
<g style="fill:#840000; fill-opacity:0.0; 
stroke:#840000; stroke-width:60; stroke-opacity:1; 
stroke-linecap:round; stroke-linejoin:round;">
<path d="M82680 4720
L82680 3940
" />
</g>
<g style="fill:#840000; fill-opacity:0.0; 
stroke:#840000; stroke-width:100; stroke-opacity:1; 
stroke-linecap:round; stroke-linejoin:round;">
</g>
<g style="fill:#840000; fill-opacity:0.0; 
stroke:#840000; stroke-width:60; stroke-opacity:1; 
stroke-linecap:round; stroke-linejoin:round;">
<path d="M102360 4720
L102360 3940
" />
</g>
<g style="fill:#840000; fill-opacity:0.0; 
stroke:#840000; stroke-width:100; stroke-opacity:1; 
stroke-linecap:round; stroke-linejoin:round;">
</g>
<g style="fill:#840000; fill-opacity:0.0; 
stroke:#840000; stroke-width:60; stroke-opacity:1; 
stroke-linecap:round; stroke-linejoin:round;">
<text x="13780" y="4580"
textLength="550" font-size="680" lengthAdjust="spacingAndGlyphs"
text-anchor="start" opacity="0">1</text>
<path d="M14190 4560
L13900 4560
" />
<path d="M14050 4560
L14050 4050
L14000 4120
L13950 4170
L13900 4190
" />
</g>
<g style="fill:#840000; fill-opacity:0.0; 
stroke:#840000; stroke-width:100; stroke-opacity:1; 
stroke-linecap:round; stroke-linejoin:round;">
</g>
<g style="fill:#840000; fill-opacity:0.0; 
stroke:#840000; stroke-width:60; stroke-opacity:1; 
stroke-linecap:round; stroke-linejoin:round;">
<text x="33460" y="4580"
textLength="550" font-size="680" lengthAdjust="spacingAndGlyphs"
text-anchor="start" opacity="0">2</text>
<path d="M33580 4090
L33610 4070
L33660 4050
L33780 4050
L33830 4070
L33850 4090
L33870 4140
L33870 4190
L33850 4260
L33560 4560
L33870 4560
" />
</g>
<g style="fill:#840000; fill-opacity:0.0; 
stroke:#840000; stroke-width:100; stroke-opacity:1; 
stroke-linecap:round; stroke-linejoin:round;">
</g>
<g style="fill:#840000; fill-opacity:0.0; 
stroke:#840000; stroke-width:60; stroke-opacity:1; 
stroke-linecap:round; stroke-linejoin:round;">
<text x="53150" y="4580"
textLength="550" font-size="680" lengthAdjust="spacingAndGlyphs"
text-anchor="start" opacity="0">3</text>
<path d="M53250 4050
L53560 4050
L53390 4240
L53470 4240
L53520 4260
L53540 4290
L53560 4340
L53560 4460
L53540 4510
L53520 4530
L53470 4560
L53320 4560
L53270 4530
L53250 4510
" />
</g>
<g style="fill:#840000; fill-opacity:0.0; 
stroke:#840000; stroke-width:100; stroke-opacity:1; 
stroke-linecap:round; stroke-linejoin:round;">
</g>
<g style="fill:#840000; fill-opacity:0.0; 
stroke:#840000; stroke-width:60; stroke-opacity:1; 
stroke-linecap:round; stroke-linejoin:round;">
<text x="72830" y="4580"
textLength="550" font-size="680" lengthAdjust="spacingAndGlyphs"
text-anchor="start" opacity="0">4</text>
<path d="M73200 4220
L73200 4560
" />
<path d="M73070 4020
L72950 4390
L73270 4390
" />
</g>
<g style="fill:#840000; fill-opacity:0.0; 
stroke:#840000; stroke-width:100; stroke-opacity:1; 
stroke-linecap:round; stroke-linejoin:round;">
</g>
<g style="fill:#840000; fill-opacity:0.0; 
stroke:#840000; stroke-width:60; stroke-opacity:1; 
stroke-linecap:round; stroke-linejoin:round;">
<text x="92520" y="4580"
textLength="550" font-size="680" lengthAdjust="spacingAndGlyphs"
text-anchor="start" opacity="0">5</text>
<path d="M92910 4050
L92670 4050
L92640 4290
L92670 4260
L92720 4240
L92840 4240
L92890 4260
L92910 4290
L92930 4340
L92930 4460
L92910 4510
L92890 4530
L92840 4560
L92720 4560
L92670 4530
L92640 4510
" />
</g>
<g style="fill:#840000; fill-opacity:0.0; 
stroke:#840000; stroke-width:100; stroke-opacity:1; 
stroke-linecap:round; stroke-linejoin:round;">
</g>
<g style="fill:#840000; fill-opacity:0.0; 
stroke:#840000; stroke-width:60; stroke-opacity:1; 
stroke-linecap:round; stroke-linejoin:round;">
<text x="112200" y="4580"
textLength="550" font-size="680" lengthAdjust="spacingAndGlyphs"
text-anchor="start" opacity="0">6</text>
<path d="M112570 4050
L112470 4050
L112420 4070
L112400 4090
L112350 4170
L112320 4260
L112320 4460
L112350 4510
L112370 4530
L112420 4560
L112520 4560
L112570 4530
L112590 4510
L112610 4460
L112610 4340
L112590 4290
L112570 4260
L112520 4240
L112420 4240
L112370 4260
L112350 4290
L112320 4340
" />
</g>
<g style="fill:#840000; fill-opacity:0.0; 
stroke:#840000; stroke-width:100; stroke-opacity:1; 
stroke-linecap:round; stroke-linejoin:round;">
</g>
<g style="fill:#840000; fill-opacity:0.0; 
stroke:#840000; stroke-width:60; stroke-opacity:1; 
stroke-linecap:round; stroke-linejoin:round;">
<path d="M23620 77960
L23620 78740
" />
</g>
<g style="fill:#840000; fill-opacity:0.0; 
stroke:#840000; stroke-width:100; stroke-opacity:1; 
stroke-linecap:round; stroke-linejoin:round;">
</g>
<g style="fill:#840000; fill-opacity:0.0; 
stroke:#840000; stroke-width:60; stroke-opacity:1; 
stroke-linecap:round; stroke-linejoin:round;">
<path d="M43310 77960
L43310 78740
" />
</g>
<g style="fill:#840000; fill-opacity:0.0; 
stroke:#840000; stroke-width:100; stroke-opacity:1; 
stroke-linecap:round; stroke-linejoin:round;">
</g>
<g style="fill:#840000; fill-opacity:0.0; 
stroke:#840000; stroke-width:60; stroke-opacity:1; 
stroke-linecap:round; stroke-linejoin:round;">
<path d="M62990 77960
L62990 78740
" />
</g>
<g style="fill:#840000; fill-opacity:0.0; 
stroke:#840000; stroke-width:100; stroke-opacity:1; 
stroke-linecap:round; stroke-linejoin:round;">
</g>
<g style="fill:#840000; fill-opacity:0.0; 
stroke:#840000; stroke-width:60; stroke-opacity:1; 
stroke-linecap:round; stroke-linejoin:round;">
<path d="M82680 77960
L82680 78740
" />
</g>
<g style="fill:#840000; fill-opacity:0.0; 
stroke:#840000; stroke-width:100; stroke-opacity:1; 
stroke-linecap:round; stroke-linejoin:round;">
</g>
<g style="fill:#840000; fill-opacity:0.0; 
stroke:#840000; stroke-width:60; stroke-opacity:1; 
stroke-linecap:round; stroke-linejoin:round;">
<path d="M102360 77960
L102360 78740
" />
</g>
<g style="fill:#840000; fill-opacity:0.0; 
stroke:#840000; stroke-width:100; stroke-opacity:1; 
stroke-linecap:round; stroke-linejoin:round;">
</g>
<g style="fill:#840000; fill-opacity:0.0; 
stroke:#840000; stroke-width:60; stroke-opacity:1; 
stroke-linecap:round; stroke-linejoin:round;">
<text x="13780" y="78600"
textLength="550" font-size="680" lengthAdjust="spacingAndGlyphs"
text-anchor="start" opacity="0">1</text>
<path d="M14190 78580
L13900 78580
" />
<path d="M14050 78580
L14050 78070
L14000 78140
L13950 78190
L13900 78210
" />
</g>
<g style="fill:#840000; fill-opacity:0.0; 
stroke:#840000; stroke-width:100; stroke-opacity:1; 
stroke-linecap:round; stroke-linejoin:round;">
</g>
<g style="fill:#840000; fill-opacity:0.0; 
stroke:#840000; stroke-width:60; stroke-opacity:1; 
stroke-linecap:round; stroke-linejoin:round;">
<text x="33460" y="78600"
textLength="550" font-size="680" lengthAdjust="spacingAndGlyphs"
text-anchor="start" opacity="0">2</text>
<path d="M33580 78110
L33610 78090
L33660 78070
L33780 78070
L33830 78090
L33850 78110
L33870 78160
L33870 78210
L33850 78280
L33560 78580
L33870 78580
" />
</g>
<g style="fill:#840000; fill-opacity:0.0; 
stroke:#840000; stroke-width:100; stroke-opacity:1; 
stroke-linecap:round; stroke-linejoin:round;">
</g>
<g style="fill:#840000; fill-opacity:0.0; 
stroke:#840000; stroke-width:60; stroke-opacity:1; 
stroke-linecap:round; stroke-linejoin:round;">
<text x="53150" y="78600"
textLength="550" font-size="680" lengthAdjust="spacingAndGlyphs"
text-anchor="start" opacity="0">3</text>
<path d="M53250 78070
L53560 78070
L53390 78260
L53470 78260
L53520 78280
L53540 78310
L53560 78360
L53560 78480
L53540 78530
L53520 78550
L53470 78580
L53320 78580
L53270 78550
L53250 78530
" />
</g>
<g style="fill:#840000; fill-opacity:0.0; 
stroke:#840000; stroke-width:100; stroke-opacity:1; 
stroke-linecap:round; stroke-linejoin:round;">
</g>
<g style="fill:#840000; fill-opacity:0.0; 
stroke:#840000; stroke-width:60; stroke-opacity:1; 
stroke-linecap:round; stroke-linejoin:round;">
<text x="72830" y="78600"
textLength="550" font-size="680" lengthAdjust="spacingAndGlyphs"
text-anchor="start" opacity="0">4</text>
<path d="M73200 78240
L73200 78580
" />
<path d="M73070 78040
L72950 78410
L73270 78410
" />
</g>
<g style="fill:#840000; fill-opacity:0.0; 
stroke:#840000; stroke-width:100; stroke-opacity:1; 
stroke-linecap:round; stroke-linejoin:round;">
</g>
<g style="fill:#840000; fill-opacity:0.0; 
stroke:#840000; stroke-width:60; stroke-opacity:1; 
stroke-linecap:round; stroke-linejoin:round;">
<text x="92520" y="78600"
textLength="550" font-size="680" lengthAdjust="spacingAndGlyphs"
text-anchor="start" opacity="0">5</text>
<path d="M92910 78070
L92670 78070
L92640 78310
L92670 78280
L92720 78260
L92840 78260
L92890 78280
L92910 78310
L92930 78360
L92930 78480
L92910 78530
L92890 78550
L92840 78580
L92720 78580
L92670 78550
L92640 78530
" />
</g>
<g style="fill:#840000; fill-opacity:0.0; 
stroke:#840000; stroke-width:100; stroke-opacity:1; 
stroke-linecap:round; stroke-linejoin:round;">
</g>
<g style="fill:#840000; fill-opacity:0.0; 
stroke:#840000; stroke-width:60; stroke-opacity:1; 
stroke-linecap:round; stroke-linejoin:round;">
<text x="112200" y="78600"
textLength="550" font-size="680" lengthAdjust="spacingAndGlyphs"
text-anchor="start" opacity="0">6</text>
<path d="M112570 78070
L112470 78070
L112420 78090
L112400 78110
L112350 78190
L112320 78280
L112320 78480
L112350 78530
L112370 78550
L112420 78580
L112520 78580
L112570 78550
L112590 78530
L112610 78480
L112610 78360
L112590 78310
L112570 78280
L112520 78260
L112420 78260
L112370 78280
L112350 78310
L112320 78360
" />
</g>
<g style="fill:#840000; fill-opacity:0.0; 
stroke:#840000; stroke-width:100; stroke-opacity:1; 
stroke-linecap:round; stroke-linejoin:round;">
</g>
<g style="fill:#840000; fill-opacity:0.0; 
stroke:#840000; stroke-width:60; stroke-opacity:1; 
stroke-linecap:round; stroke-linejoin:round;">
<path d="M3940 23620
L4720 23620
" />
</g>
<g style="fill:#840000; fill-opacity:0.0; 
stroke:#840000; stroke-width:100; stroke-opacity:1; 
stroke-linecap:round; stroke-linejoin:round;">
</g>
<g style="fill:#840000; fill-opacity:0.0; 
stroke:#840000; stroke-width:60; stroke-opacity:1; 
stroke-linecap:round; stroke-linejoin:round;">
<path d="M3940 43310
L4720 43310
" />
</g>
<g style="fill:#840000; fill-opacity:0.0; 
stroke:#840000; stroke-width:100; stroke-opacity:1; 
stroke-linecap:round; stroke-linejoin:round;">
</g>
<g style="fill:#840000; fill-opacity:0.0; 
stroke:#840000; stroke-width:60; stroke-opacity:1; 
stroke-linecap:round; stroke-linejoin:round;">
<path d="M3940 62990
L4720 62990
" />
</g>
<g style="fill:#840000; fill-opacity:0.0; 
stroke:#840000; stroke-width:100; stroke-opacity:1; 
stroke-linecap:round; stroke-linejoin:round;">
</g>
<g style="fill:#840000; fill-opacity:0.0; 
stroke:#840000; stroke-width:60; stroke-opacity:1; 
stroke-linecap:round; stroke-linejoin:round;">
<text x="4330" y="14030"
textLength="500" font-size="680" lengthAdjust="spacingAndGlyphs"
text-anchor="middle" opacity="0">A</text>
<path d="M4200 13860
L4450 13860
" />
<path d="M4160 14010
L4330 13500
L4500 14010
" />
</g>
<g style="fill:#840000; fill-opacity:0.0; 
stroke:#840000; stroke-width:100; stroke-opacity:1; 
stroke-linecap:round; stroke-linejoin:round;">
</g>
<g style="fill:#840000; fill-opacity:0.0; 
stroke:#840000; stroke-width:60; stroke-opacity:1; 
stroke-linecap:round; stroke-linejoin:round;">
<text x="4330" y="33710"
textLength="570" font-size="680" lengthAdjust="spacingAndGlyphs"
text-anchor="middle" opacity="0">B</text>
<path d="M4360 33420
L4430 33440
L4460 33470
L4480 33520
L4480 33590
L4460 33640
L4430 33660
L4390 33690
L4190 33690
L4190 33180
L4360 33180
L4410 33200
L4430 33220
L4460 33270
L4460 33320
L4430 33370
L4410 33390
L4360 33420
L4190 33420
" />
</g>
<g style="fill:#840000; fill-opacity:0.0; 
stroke:#840000; stroke-width:100; stroke-opacity:1; 
stroke-linecap:round; stroke-linejoin:round;">
</g>
<g style="fill:#840000; fill-opacity:0.0; 
stroke:#840000; stroke-width:60; stroke-opacity:1; 
stroke-linecap:round; stroke-linejoin:round;">
<text x="4330" y="53400"
textLength="570" font-size="680" lengthAdjust="spacingAndGlyphs"
text-anchor="middle" opacity="0">C</text>
<path d="M4480 53330
L4460 53350
L4390 53380
L4340 53380
L4260 53350
L4220 53300
L4190 53250
L4170 53160
L4170 53080
L4190 52990
L4220 52940
L4260 52890
L4340 52870
L4390 52870
L4460 52890
L4480 52910
" />
</g>
<g style="fill:#840000; fill-opacity:0.0; 
stroke:#840000; stroke-width:100; stroke-opacity:1; 
stroke-linecap:round; stroke-linejoin:round;">
</g>
<g style="fill:#840000; fill-opacity:0.0; 
stroke:#840000; stroke-width:60; stroke-opacity:1; 
stroke-linecap:round; stroke-linejoin:round;">
<text x="4330" y="73080"
textLength="570" font-size="680" lengthAdjust="spacingAndGlyphs"
text-anchor="middle" opacity="0">D</text>
<path d="M4190 73060
L4190 72550
L4310 72550
L4390 72570
L4430 72620
L4460 72670
L4480 72760
L4480 72840
L4460 72930
L4430 72980
L4390 73030
L4310 73060
L4190 73060
" />
</g>
<g style="fill:#840000; fill-opacity:0.0; 
stroke:#840000; stroke-width:100; stroke-opacity:1; 
stroke-linecap:round; stroke-linejoin:round;">
</g>
<g style="fill:#840000; fill-opacity:0.0; 
stroke:#840000; stroke-width:60; stroke-opacity:1; 
stroke-linecap:round; stroke-linejoin:round;">
<path d="M112990 23620
L112210 23620
" />
</g>
<g style="fill:#840000; fill-opacity:0.0; 
stroke:#840000; stroke-width:100; stroke-opacity:1; 
stroke-linecap:round; stroke-linejoin:round;">
</g>
<g style="fill:#840000; fill-opacity:0.0; 
stroke:#840000; stroke-width:60; stroke-opacity:1; 
stroke-linecap:round; stroke-linejoin:round;">
<path d="M112990 43310
L112210 43310
" />
</g>
<g style="fill:#840000; fill-opacity:0.0; 
stroke:#840000; stroke-width:100; stroke-opacity:1; 
stroke-linecap:round; stroke-linejoin:round;">
</g>
<g style="fill:#840000; fill-opacity:0.0; 
stroke:#840000; stroke-width:60; stroke-opacity:1; 
stroke-linecap:round; stroke-linejoin:round;">
<path d="M112990 62990
L112210 62990
" />
</g>
<g style="fill:#840000; fill-opacity:0.0; 
stroke:#840000; stroke-width:100; stroke-opacity:1; 
stroke-linecap:round; stroke-linejoin:round;">
</g>
<g style="fill:#840000; fill-opacity:0.0; 
stroke:#840000; stroke-width:60; stroke-opacity:1; 
stroke-linecap:round; stroke-linejoin:round;">
<text x="112600" y="14030"
textLength="500" font-size="680" lengthAdjust="spacingAndGlyphs"
text-anchor="middle" opacity="0">A</text>
<path d="M112470 13860
L112720 13860
" />
<path d="M112430 14010
L112600 13500
L112770 14010
" />
</g>
<g style="fill:#840000; fill-opacity:0.0; 
stroke:#840000; stroke-width:100; stroke-opacity:1; 
stroke-linecap:round; stroke-linejoin:round;">
</g>
<g style="fill:#840000; fill-opacity:0.0; 
stroke:#840000; stroke-width:60; stroke-opacity:1; 
stroke-linecap:round; stroke-linejoin:round;">
<text x="112600" y="33710"
textLength="570" font-size="680" lengthAdjust="spacingAndGlyphs"
text-anchor="middle" opacity="0">B</text>
<path d="M112630 33420
L112700 33440
L112730 33470
L112750 33520
L112750 33590
L112730 33640
L112700 33660
L112660 33690
L112460 33690
L112460 33180
L112630 33180
L112680 33200
L112700 33220
L112730 33270
L112730 33320
L112700 33370
L112680 33390
L112630 33420
L112460 33420
" />
</g>
<g style="fill:#840000; fill-opacity:0.0; 
stroke:#840000; stroke-width:100; stroke-opacity:1; 
stroke-linecap:round; stroke-linejoin:round;">
</g>
<g style="fill:#840000; fill-opacity:0.0; 
stroke:#840000; stroke-width:60; stroke-opacity:1; 
stroke-linecap:round; stroke-linejoin:round;">
<text x="112600" y="53400"
textLength="570" font-size="680" lengthAdjust="spacingAndGlyphs"
text-anchor="middle" opacity="0">C</text>
<path d="M112750 53330
L112730 53350
L112660 53380
L112610 53380
L112530 53350
L112490 53300
L112460 53250
L112440 53160
L112440 53080
L112460 52990
L112490 52940
L112530 52890
L112610 52870
L112660 52870
L112730 52890
L112750 52910
" />
</g>
<g style="fill:#840000; fill-opacity:0.0; 
stroke:#840000; stroke-width:100; stroke-opacity:1; 
stroke-linecap:round; stroke-linejoin:round;">
</g>
<g style="fill:#840000; fill-opacity:0.0; 
stroke:#840000; stroke-width:60; stroke-opacity:1; 
stroke-linecap:round; stroke-linejoin:round;">
<text x="112600" y="73080"
textLength="570" font-size="680" lengthAdjust="spacingAndGlyphs"
text-anchor="middle" opacity="0">D</text>
<path d="M112460 73060
L112460 72550
L112580 72550
L112660 72570
L112700 72620
L112730 72670
L112750 72760
L112750 72840
L112730 72930
L112700 72980
L112660 73030
L112580 73060
L112460 73060
" />
</g>
<g style="fill:#840000; fill-opacity:0.0; 
stroke:#840000; stroke-width:100; stroke-opacity:1; 
stroke-linecap:round; stroke-linejoin:round;">
</g>
<g style="fill:#840000; fill-opacity:0.0; 
stroke:#840000; stroke-width:60; stroke-opacity:1; 
stroke-linecap:round; stroke-linejoin:round;">
<text x="78740" y="76320"
textLength="2760" font-size="780" lengthAdjust="spacingAndGlyphs"
text-anchor="start" opacity="0">Date: </text>
<path d="M78910 76290
L78910 75700
L79050 75700
L79130 75730
L79190 75790
L79210 75840
L79240 75950
L79240 76040
L79210 76150
L79190 76210
L79130 76260
L79050 76290
L78910 76290
" />
<path d="M79750 76290
L79750 75980
L79720 75930
L79660 75900
L79550 75900
L79500 75930
" />
<path d="M79750 76260
L79690 76290
L79550 76290
L79500 76260
L79470 76210
L79470 76150
L79500 76100
L79550 76070
L79690 76070
L79750 76040
" />
<path d="M79950 75900
L80170 75900
" />
<path d="M80030 75700
L80030 76210
L80060 76260
L80110 76290
L80170 76290
" />
<path d="M80590 76260
L80540 76290
L80420 76290
L80370 76260
L80340 76210
L80340 75980
L80370 75930
L80420 75900
L80540 75900
L80590 75930
L80620 75980
L80620 76040
L80340 76100
" />
<path d="M80870 76240
L80900 76260
L80870 76290
L80840 76260
L80870 76240
L80870 76290
" />
<path d="M80870 75930
L80900 75950
L80870 75980
L80840 75950
L80870 75930
L80870 75980
" />
</g>
<g style="fill:#840000; fill-opacity:0.0; 
stroke:#840000; stroke-width:100; stroke-opacity:1; 
stroke-linecap:round; stroke-linejoin:round;">
</g>
<g style="fill:#840000; fill-opacity:0.0; 
stroke:#840000; stroke-width:60; stroke-opacity:1; 
stroke-linecap:round; stroke-linejoin:round;">
<path d="M69690 76580
L112210 76580
" />
</g>
<g style="fill:#840000; fill-opacity:0.0; 
stroke:#840000; stroke-width:100; stroke-opacity:1; 
stroke-linecap:round; stroke-linejoin:round;">
</g>
<g style="fill:#840000; fill-opacity:0.0; 
stroke:#840000; stroke-width:60; stroke-opacity:1; 
stroke-linecap:round; stroke-linejoin:round;">
<text x="70080" y="77420"
textLength="23240" font-size="780" lengthAdjust="spacingAndGlyphs"
text-anchor="start" opacity="0">KiCad E.D.A.  kicad 5.1.6-c6e7f7d~87~ubuntu18.04.1</text>
<path d="M70250 77390
L70250 76800
" />
<path d="M70580 77390
L70330 77050
" />
<path d="M70580 76800
L70250 77140
" />
<path d="M70840 77390
L70840 77000
" />
<path d="M70840 76800
L70810 76830
L70840 76860
L70860 76830
L70840 76800
L70840 76860
" />
<path d="M71450 77340
L71430 77360
L71340 77390
L71290 77390
L71200 77360
L71140 77310
L71120 77250
L71090 77140
L71090 77050
L71120 76940
L71140 76890
L71200 76830
L71290 76800
L71340 76800
L71430 76830
L71450 76860
" />
<path d="M71960 77390
L71960 77080
L71930 77030
L71880 77000
L71760 77000
L71710 77030
" />
<path d="M71960 77360
L71900 77390
L71760 77390
L71710 77360
L71680 77310
L71680 77250
L71710 77200
L71760 77170
L71900 77170
L71960 77140
" />
<path d="M72490 77390
L72490 76800
" />
<path d="M72490 77360
L72440 77390
L72320 77390
L72270 77360
L72240 77340
L72210 77280
L72210 77110
L72240 77050
L72270 77030
L72320 77000
L72440 77000
L72490 77030
" />
<path d="M73220 77080
L73420 77080
" />
<path d="M73500 77390
L73220 77390
L73220 76800
L73500 76800
" />
<path d="M73760 77340
L73790 77360
L73760 77390
L73730 77360
L73760 77340
L73760 77390
" />
<path d="M74040 77390
L74040 76800
L74180 76800
L74260 76830
L74320 76890
L74350 76940
L74380 77050
L74380 77140
L74350 77250
L74320 77310
L74260 77360
L74180 77390
L74040 77390
" />
<path d="M74630 77340
L74660 77360
L74630 77390
L74600 77360
L74630 77340
L74630 77390
" />
<path d="M74880 77220
L75160 77220
" />
<path d="M74830 77390
L75020 76800
L75220 77390
" />
<path d="M75420 77340
L75440 77360
L75420 77390
L75390 77360
L75420 77340
L75420 77390
" />
<path d="M76600 77390
L76600 76800
" />
<path d="M76650 77170
L76820 77390
" />
<path d="M76820 77000
L76600 77220
" />
<path d="M77070 77390
L77070 77000
" />
<path d="M77070 76800
L77040 76830
L77070 76860
L77100 76830
L77070 76800
L77070 76860
" />
<path d="M77610 77360
L77550 77390
L77440 77390
L77380 77360
L77350 77340
L77330 77280
L77330 77110
L77350 77050
L77380 77030
L77440 77000
L77550 77000
L77610 77030
" />
<path d="M78110 77390
L78110 77080
L78080 77030
L78030 77000
L77920 77000
L77860 77030
" />
<path d="M78110 77360
L78060 77390
L77920 77390
L77860 77360
L77830 77310
L77830 77250
L77860 77200
L77920 77170
L78060 77170
L78110 77140
" />
<path d="M78650 77390
L78650 76800
" />
<path d="M78650 77360
L78590 77390
L78480 77390
L78420 77360
L78390 77340
L78370 77280
L78370 77110
L78390 77050
L78420 77030
L78480 77000
L78590 77000
L78650 77030
" />
<path d="M79660 76800
L79380 76800
L79350 77080
L79380 77050
L79430 77030
L79570 77030
L79630 77050
L79660 77080
L79690 77140
L79690 77280
L79660 77340
L79630 77360
L79570 77390
L79430 77390
L79380 77360
L79350 77340
" />
<path d="M79940 77340
L79970 77360
L79940 77390
L79910 77360
L79940 77340
L79940 77390
" />
<path d="M80530 77390
L80190 77390
" />
<path d="M80360 77390
L80360 76800
L80300 76890
L80250 76940
L80190 76970
" />
<path d="M80780 77340
L80810 77360
L80780 77390
L80750 77360
L80780 77340
L80780 77390
" />
<path d="M81320 76800
L81200 76800
L81150 76830
L81120 76860
L81060 76940
L81030 77050
L81030 77280
L81060 77340
L81090 77360
L81150 77390
L81260 77390
L81320 77360
L81340 77340
L81370 77280
L81370 77140
L81340 77080
L81320 77050
L81260 77030
L81150 77030
L81090 77050
L81060 77080
L81030 77140
" />
<path d="M81620 77170
L82070 77170
" />
<path d="M82610 77360
L82550 77390
L82440 77390
L82380 77360
L82350 77340
L82330 77280
L82330 77110
L82350 77050
L82380 77030
L82440 77000
L82550 77000
L82610 77030
" />
<path d="M83110 76800
L83000 76800
L82940 76830
L82920 76860
L82860 76940
L82830 77050
L82830 77280
L82860 77340
L82890 77360
L82940 77390
L83060 77390
L83110 77360
L83140 77340
L83170 77280
L83170 77140
L83140 77080
L83110 77050
L83060 77030
L82940 77030
L82890 77050
L82860 77080
L82830 77140
" />
<path d="M83650 77360
L83590 77390
L83480 77390
L83420 77360
L83390 77310
L83390 77080
L83420 77030
L83480 77000
L83590 77000
L83650 77030
L83680 77080
L83680 77140
L83390 77200
" />
<path d="M83870 76800
L84270 76800
L84010 77390
" />
<path d="M84410 77000
L84630 77000
" />
<path d="M84490 77390
L84490 76890
L84520 76830
L84570 76800
L84630 76800
" />
<path d="M84770 76800
L85160 76800
L84910 77390
" />
<path d="M85640 77390
L85640 76800
" />
<path d="M85640 77360
L85590 77390
L85470 77390
L85420 77360
L85390 77340
L85360 77280
L85360 77110
L85390 77050
L85420 77030
L85470 77000
L85590 77000
L85640 77030
" />
<path d="M85780 76640
L86340 76640
" />
<path d="M86010 77050
L85950 77030
L85920 77000
L85890 76940
L85890 76910
L85920 76860
L85950 76830
L86010 76800
L86120 76800
L86180 76830
L86200 76860
L86230 76910
L86230 76940
L86200 77000
L86180 77030
L86120 77050
L86010 77050
L85950 77080
L85920 77110
L85890 77170
L85890 77280
L85920 77340
L85950 77360
L86010 77390
L86120 77390
L86180 77360
L86200 77340
L86230 77280
L86230 77170
L86200 77110
L86180 77080
L86120 77050
" />
<path d="M86340 76640
L86910 76640
" />
<path d="M86430 76800
L86820 76800
L86570 77390
" />
<path d="M87300 77000
L87300 77390
" />
<path d="M87050 77000
L87050 77310
L87070 77360
L87130 77390
L87220 77390
L87270 77360
L87300 77340
" />
<path d="M87580 77390
L87580 76800
" />
<path d="M87580 77030
L87640 77000
L87750 77000
L87810 77030
L87830 77050
L87860 77110
L87860 77280
L87830 77340
L87810 77360
L87750 77390
L87640 77390
L87580 77360
" />
<path d="M88370 77000
L88370 77390
" />
<path d="M88110 77000
L88110 77310
L88140 77360
L88200 77390
L88280 77390
L88340 77360
L88370 77340
" />
<path d="M88650 77000
L88650 77390
" />
<path d="M88650 77050
L88680 77030
L88730 77000
L88820 77000
L88870 77030
L88900 77080
L88900 77390
" />
<path d="M89100 77000
L89320 77000
" />
<path d="M89180 76800
L89180 77310
L89210 77360
L89270 77390
L89320 77390
" />
<path d="M89770 77000
L89770 77390
" />
<path d="M89520 77000
L89520 77310
L89550 77360
L89600 77390
L89690 77390
L89740 77360
L89770 77340
" />
<path d="M90360 77390
L90020 77390
" />
<path d="M90190 77390
L90190 76800
L90140 76890
L90080 76940
L90020 76970
" />
<path d="M90700 77050
L90640 77030
L90610 77000
L90590 76940
L90590 76910
L90610 76860
L90640 76830
L90700 76800
L90810 76800
L90870 76830
L90900 76860
L90920 76910
L90920 76940
L90900 77000
L90870 77030
L90810 77050
L90700 77050
L90640 77080
L90610 77110
L90590 77170
L90590 77280
L90610 77340
L90640 77360
L90700 77390
L90810 77390
L90870 77360
L90900 77340
L90920 77280
L90920 77170
L90900 77110
L90870 77080
L90810 77050
" />
<path d="M91180 77340
L91200 77360
L91180 77390
L91150 77360
L91180 77340
L91180 77390
" />
<path d="M91570 76800
L91630 76800
L91680 76830
L91710 76860
L91740 76910
L91770 77030
L91770 77170
L91740 77280
L91710 77340
L91680 77360
L91630 77390
L91570 77390
L91510 77360
L91490 77340
L91460 77280
L91430 77170
L91430 77030
L91460 76910
L91490 76860
L91510 76830
L91570 76800
" />
<path d="M92270 77000
L92270 77390
" />
<path d="M92130 76770
L91990 77200
L92360 77200
" />
<path d="M92580 77340
L92610 77360
L92580 77390
L92550 77360
L92580 77340
L92580 77390
" />
<path d="M93170 77390
L92830 77390
" />
<path d="M93000 77390
L93000 76800
L92950 76890
L92890 76940
L92830 76970
" />
</g>
<g style="fill:#840000; fill-opacity:0.0; 
stroke:#840000; stroke-width:100; stroke-opacity:1; 
stroke-linecap:round; stroke-linejoin:round;">
</g>
<g style="fill:#840000; fill-opacity:0.0; 
stroke:#840000; stroke-width:60; stroke-opacity:1; 
stroke-linecap:round; stroke-linejoin:round;">
<path d="M69690 75400
L112210 75400
" />
</g>
<g style="fill:#840000; fill-opacity:0.0; 
stroke:#840000; stroke-width:100; stroke-opacity:1; 
stroke-linecap:round; stroke-linejoin:round;">
</g>
<g style="fill:#840000; fill-opacity:0.0; 
stroke:#840000; stroke-width:120; stroke-opacity:1; 
stroke-linecap:round; stroke-linejoin:round;">
<text x="103540" y="76320"
textLength="2340" font-size="780" lengthAdjust="spacingAndGlyphs"
text-anchor="start" opacity="0">Rev: </text>
<path d="M104090 76290
L103890 76010
" />
<path d="M103750 76290
L103750 75700
L103980 75700
L104030 75730
L104060 75760
L104090 75810
L104090 75900
L104060 75950
L104030 75980
L103980 76010
L103750 76010
" />
<path d="M104570 76260
L104510 76290
L104400 76290
L104340 76260
L104320 76210
L104320 75980
L104340 75930
L104400 75900
L104510 75900
L104570 75930
L104600 75980
L104600 76040
L104320 76100
" />
<path d="M104790 75900
L104930 76290
L105070 75900
" />
<path d="M105300 76240
L105330 76260
L105300 76290
L105270 76260
L105300 76240
L105300 76290
" />
<path d="M105300 75930
L105330 75950
L105300 75980
L105270 75950
L105300 75930
L105300 75980
" />
</g>
<g style="fill:#840000; fill-opacity:0.0; 
stroke:#840000; stroke-width:100; stroke-opacity:1; 
stroke-linecap:round; stroke-linejoin:round;">
</g>
<g style="fill:#840000; fill-opacity:0.0; 
stroke:#840000; stroke-width:60; stroke-opacity:1; 
stroke-linecap:round; stroke-linejoin:round;">
<text x="70080" y="76320"
textLength="3780" font-size="780" lengthAdjust="spacingAndGlyphs"
text-anchor="start" opacity="0">Size: A4</text>
<path d="M70220 76260
L70300 76290
L70440 76290
L70500 76260
L70530 76240
L70550 76180
L70550 76120
L70530 76070
L70500 76040
L70440 76010
L70330 75980
L70270 75950
L70250 75930
L70220 75870
L70220 75810
L70250 75760
L70270 75730
L70330 75700
L70470 75700
L70550 75730
" />
<path d="M70810 76290
L70810 75900
" />
<path d="M70810 75700
L70780 75730
L70810 75760
L70840 75730
L70810 75700
L70810 75760
" />
<path d="M71030 75900
L71340 75900
L71030 76290
L71340 76290
" />
<path d="M71790 76260
L71730 76290
L71620 76290
L71570 76260
L71540 76210
L71540 75980
L71570 75930
L71620 75900
L71730 75900
L71790 75930
L71820 75980
L71820 76040
L71540 76100
" />
<path d="M72070 76240
L72100 76260
L72070 76290
L72040 76260
L72070 76240
L72070 76290
" />
<path d="M72070 75930
L72100 75950
L72070 75980
L72040 75950
L72070 75930
L72070 75980
" />
<path d="M72770 76120
L73060 76120
" />
<path d="M72720 76290
L72910 75700
L73110 76290
" />
<path d="M73560 75900
L73560 76290
" />
<path d="M73420 75670
L73280 76100
L73650 76100
" />
</g>
<g style="fill:#840000; fill-opacity:0.0; 
stroke:#840000; stroke-width:100; stroke-opacity:1; 
stroke-linecap:round; stroke-linejoin:round;">
</g>
<g style="fill:#840000; fill-opacity:0.0; 
stroke:#840000; stroke-width:60; stroke-opacity:1; 
stroke-linecap:round; stroke-linejoin:round;">
<text x="103540" y="77420"
textLength="4470" font-size="780" lengthAdjust="spacingAndGlyphs"
text-anchor="start" opacity="0">Id: 10/12</text>
<path d="M103710 77390
L103710 76800
" />
<path d="M104240 77390
L104240 76800
" />
<path d="M104240 77360
L104180 77390
L104070 77390
L104010 77360
L103990 77340
L103960 77280
L103960 77110
L103990 77050
L104010 77030
L104070 77000
L104180 77000
L104240 77030
" />
<path d="M104520 77340
L104550 77360
L104520 77390
L104490 77360
L104520 77340
L104520 77390
" />
<path d="M104520 77030
L104550 77050
L104520 77080
L104490 77050
L104520 77030
L104520 77080
" />
<path d="M105560 77390
L105220 77390
" />
<path d="M105390 77390
L105390 76800
L105340 76890
L105280 76940
L105220 76970
" />
<path d="M105930 76800
L105980 76800
L106040 76830
L106070 76860
L106090 76910
L106120 77030
L106120 77170
L106090 77280
L106070 77340
L106040 77360
L105980 77390
L105930 77390
L105870 77360
L105840 77340
L105810 77280
L105780 77170
L105780 77030
L105810 76910
L105840 76860
L105870 76830
L105930 76800
" />
<path d="M106800 76770
L106290 77530
" />
<path d="M107300 77390
L106960 77390
" />
<path d="M107130 77390
L107130 76800
L107080 76890
L107020 76940
L106960 76970
" />
<path d="M107530 76860
L107550 76830
L107610 76800
L107750 76800
L107810 76830
L107840 76860
L107860 76910
L107860 76970
L107840 77050
L107500 77390
L107860 77390
" />
</g>
<g style="fill:#840000; fill-opacity:0.0; 
stroke:#840000; stroke-width:100; stroke-opacity:1; 
stroke-linecap:round; stroke-linejoin:round;">
</g>
<g style="fill:#840000; fill-opacity:0.0; 
stroke:#840000; stroke-width:60; stroke-opacity:1; 
stroke-linecap:round; stroke-linejoin:round;">
<path d="M69690 73820
L112210 73820
" />
</g>
<g style="fill:#840000; fill-opacity:0.0; 
stroke:#840000; stroke-width:100; stroke-opacity:1; 
stroke-linecap:round; stroke-linejoin:round;">
</g>
<g style="fill:#840000; fill-opacity:0.0; 
stroke:#840000; stroke-width:160; stroke-opacity:1; 
stroke-linecap:round; stroke-linejoin:round;">
<text x="70080" y="74920"
textLength="3710" font-size="1050" lengthAdjust="spacingAndGlyphs"
text-anchor="start" opacity="0">Title: </text>
<path d="M70360 74090
L70810 74090
" />
<path d="M70480 74880
L70580 74090
" />
<path d="M70970 74880
L71040 74360
" />
<path d="M71070 74090
L71030 74130
L71060 74170
L71110 74130
L71070 74090
L71060 74170
" />
<path d="M71300 74360
L71600 74360
" />
<path d="M71450 74090
L71360 74770
L71390 74840
L71460 74880
L71540 74880
" />
<path d="M71910 74880
L71840 74840
L71820 74770
L71900 74090
" />
<path d="M72520 74840
L72440 74880
L72290 74880
L72220 74840
L72190 74770
L72230 74470
L72280 74390
L72360 74360
L72510 74360
L72580 74390
L72610 74470
L72600 74540
L72210 74620
" />
<path d="M72900 74810
L72930 74840
L72890 74880
L72860 74840
L72900 74810
L72890 74880
" />
<path d="M72950 74390
L72990 74430
L72940 74470
L72910 74430
L72950 74390
L72940 74470
" />
</g>
<g style="fill:#840000; fill-opacity:0.0; 
stroke:#840000; stroke-width:100; stroke-opacity:1; 
stroke-linecap:round; stroke-linejoin:round;">
</g>
<g style="fill:#840000; fill-opacity:0.0; 
stroke:#840000; stroke-width:60; stroke-opacity:1; 
stroke-linecap:round; stroke-linejoin:round;">
<text x="70080" y="73400"
textLength="10660" font-size="780" lengthAdjust="spacingAndGlyphs"
text-anchor="start" opacity="0">File: RotaryEncoder.sch</text>
<path d="M70440 73060
L70250 73060
" />
<path d="M70250 73370
L70250 72780
L70530 72780
" />
<path d="M70750 73370
L70750 72980
" />
<path d="M70750 72780
L70720 72810
L70750 72840
L70780 72810
L70750 72780
L70750 72840
" />
<path d="M71120 73370
L71060 73340
L71030 73290
L71030 72780
" />
<path d="M71570 73340
L71510 73370
L71400 73370
L71340 73340
L71310 73290
L71310 73060
L71340 73010
L71400 72980
L71510 72980
L71570 73010
L71590 73060
L71590 73120
L71310 73180
" />
<path d="M71850 73320
L71880 73340
L71850 73370
L71820 73340
L71850 73320
L71850 73370
" />
<path d="M71850 73010
L71880 73030
L71850 73060
L71820 73030
L71850 73010
L71850 73060
" />
<path d="M72910 73370
L72720 73090
" />
<path d="M72580 73370
L72580 72780
L72800 72780
L72860 72810
L72890 72840
L72910 72890
L72910 72980
L72890 73030
L72860 73060
L72800 73090
L72580 73090
" />
<path d="M73250 73370
L73200 73340
L73170 73320
L73140 73260
L73140 73090
L73170 73030
L73200 73010
L73250 72980
L73340 72980
L73390 73010
L73420 73030
L73450 73090
L73450 73260
L73420 73320
L73390 73340
L73340 73370
L73250 73370
" />
<path d="M73620 72980
L73840 72980
" />
<path d="M73700 72780
L73700 73290
L73730 73340
L73790 73370
L73840 73370
" />
<path d="M74290 73370
L74290 73060
L74260 73010
L74210 72980
L74090 72980
L74040 73010
" />
<path d="M74290 73340
L74240 73370
L74090 73370
L74040 73340
L74010 73290
L74010 73230
L74040 73180
L74090 73150
L74240 73150
L74290 73120
" />
<path d="M74570 73370
L74570 72980
" />
<path d="M74570 73090
L74600 73030
L74630 73010
L74680 72980
L74740 72980
" />
<path d="M74880 72980
L75020 73370
" />
<path d="M75160 72980
L75020 73370
L74970 73510
L74940 73540
L74880 73570
" />
<path d="M75390 73060
L75580 73060
" />
<path d="M75670 73370
L75390 73370
L75390 72780
L75670 72780
" />
<path d="M75920 72980
L75920 73370
" />
<path d="M75920 73030
L75950 73010
L76010 72980
L76090 72980
L76150 73010
L76170 73060
L76170 73370
" />
<path d="M76710 73340
L76650 73370
L76540 73370
L76480 73340
L76450 73320
L76430 73260
L76430 73090
L76450 73030
L76480 73010
L76540 72980
L76650 72980
L76710 73010
" />
<path d="M77040 73370
L76990 73340
L76960 73320
L76930 73260
L76930 73090
L76960 73030
L76990 73010
L77040 72980
L77130 72980
L77190 73010
L77210 73030
L77240 73090
L77240 73260
L77210 73320
L77190 73340
L77130 73370
L77040 73370
" />
<path d="M77750 73370
L77750 72780
" />
<path d="M77750 73340
L77690 73370
L77580 73370
L77520 73340
L77490 73320
L77470 73260
L77470 73090
L77490 73030
L77520 73010
L77580 72980
L77690 72980
L77750 73010
" />
<path d="M78250 73340
L78200 73370
L78080 73370
L78030 73340
L78000 73290
L78000 73060
L78030 73010
L78080 72980
L78200 72980
L78250 73010
L78280 73060
L78280 73120
L78000 73180
" />
<path d="M78530 73370
L78530 72980
" />
<path d="M78530 73090
L78560 73030
L78590 73010
L78650 72980
L78700 72980
" />
<path d="M78900 73320
L78930 73340
L78900 73370
L78870 73340
L78900 73320
L78900 73370
" />
<path d="M79150 73340
L79210 73370
L79320 73370
L79380 73340
L79400 73290
L79400 73260
L79380 73200
L79320 73180
L79240 73180
L79180 73150
L79150 73090
L79150 73060
L79180 73010
L79240 72980
L79320 72980
L79380 73010
" />
<path d="M79910 73340
L79850 73370
L79740 73370
L79690 73340
L79660 73320
L79630 73260
L79630 73090
L79660 73030
L79690 73010
L79740 72980
L79850 72980
L79910 73010
" />
<path d="M80160 73370
L80160 72780
" />
<path d="M80420 73370
L80420 73060
L80390 73010
L80330 72980
L80250 72980
L80190 73010
L80160 73030
" />
</g>
<g style="fill:#840000; fill-opacity:0.0; 
stroke:#840000; stroke-width:100; stroke-opacity:1; 
stroke-linecap:round; stroke-linejoin:round;">
</g>
<g style="fill:#840000; fill-opacity:0.0; 
stroke:#840000; stroke-width:60; stroke-opacity:1; 
stroke-linecap:round; stroke-linejoin:round;">
<path d="M69690 71460
L112210 71460
" />
</g>
<g style="fill:#840000; fill-opacity:0.0; 
stroke:#840000; stroke-width:100; stroke-opacity:1; 
stroke-linecap:round; stroke-linejoin:round;">
</g>
<g style="fill:#840000; fill-opacity:0.0; 
stroke:#840000; stroke-width:60; stroke-opacity:1; 
stroke-linecap:round; stroke-linejoin:round;">
<text x="70080" y="72340"
textLength="15540" font-size="780" lengthAdjust="spacingAndGlyphs"
text-anchor="start" opacity="0">Sheet: /ExtInput/RotaryEncoder1/</text>
<path d="M70220 72280
L70300 72310
L70440 72310
L70500 72280
L70530 72260
L70550 72200
L70550 72140
L70530 72090
L70500 72060
L70440 72030
L70330 72000
L70270 71970
L70250 71950
L70220 71890
L70220 71830
L70250 71780
L70270 71750
L70330 71720
L70470 71720
L70550 71750
" />
<path d="M70810 72310
L70810 71720
" />
<path d="M71060 72310
L71060 72000
L71030 71950
L70980 71920
L70890 71920
L70840 71950
L70810 71970
" />
<path d="M71570 72280
L71510 72310
L71400 72310
L71340 72280
L71310 72230
L71310 72000
L71340 71950
L71400 71920
L71510 71920
L71570 71950
L71590 72000
L71590 72060
L71310 72120
" />
<path d="M72070 72280
L72020 72310
L71900 72310
L71850 72280
L71820 72230
L71820 72000
L71850 71950
L71900 71920
L72020 71920
L72070 71950
L72100 72000
L72100 72060
L71820 72120
" />
<path d="M72270 71920
L72490 71920
" />
<path d="M72350 71720
L72350 72230
L72380 72280
L72440 72310
L72490 72310
" />
<path d="M72690 72260
L72720 72280
L72690 72310
L72660 72280
L72690 72260
L72690 72310
" />
<path d="M72690 71950
L72720 71970
L72690 72000
L72660 71970
L72690 71950
L72690 72000
" />
<path d="M73840 71690
L73340 72450
" />
<path d="M74040 72000
L74240 72000
" />
<path d="M74320 72310
L74040 72310
L74040 71720
L74320 71720
" />
<path d="M74520 72310
L74830 71920
" />
<path d="M74520 71920
L74830 72310
" />
<path d="M74970 71920
L75190 71920
" />
<path d="M75050 71720
L75050 72230
L75080 72280
L75130 72310
L75190 72310
" />
<path d="M75390 72310
L75390 71720
" />
<path d="M75670 71920
L75670 72310
" />
<path d="M75670 71970
L75700 71950
L75750 71920
L75840 71920
L75890 71950
L75920 72000
L75920 72310
" />
<path d="M76200 71920
L76200 72510
" />
<path d="M76200 71950
L76260 71920
L76370 71920
L76430 71950
L76450 71970
L76480 72030
L76480 72200
L76450 72260
L76430 72280
L76370 72310
L76260 72310
L76200 72280
" />
<path d="M76990 71920
L76990 72310
" />
<path d="M76740 71920
L76740 72230
L76760 72280
L76820 72310
L76900 72310
L76960 72280
L76990 72260
" />
<path d="M77190 71920
L77410 71920
" />
<path d="M77270 71720
L77270 72230
L77300 72280
L77350 72310
L77410 72310
" />
<path d="M78030 71690
L77520 72450
" />
<path d="M78560 72310
L78370 72030
" />
<path d="M78220 72310
L78220 71720
L78450 71720
L78510 71750
L78530 71780
L78560 71830
L78560 71920
L78530 71970
L78510 72000
L78450 72030
L78220 72030
" />
<path d="M78900 72310
L78840 72280
L78810 72260
L78790 72200
L78790 72030
L78810 71970
L78840 71950
L78900 71920
L78980 71920
L79040 71950
L79070 71970
L79100 72030
L79100 72200
L79070 72260
L79040 72280
L78980 72310
L78900 72310
" />
<path d="M79260 71920
L79490 71920
" />
<path d="M79350 71720
L79350 72230
L79380 72280
L79430 72310
L79490 72310
" />
<path d="M79940 72310
L79940 72000
L79910 71950
L79850 71920
L79740 71920
L79690 71950
" />
<path d="M79940 72280
L79880 72310
L79740 72310
L79690 72280
L79660 72230
L79660 72170
L79690 72120
L79740 72090
L79880 72090
L79940 72060
" />
<path d="M80220 72310
L80220 71920
" />
<path d="M80220 72030
L80250 71970
L80280 71950
L80330 71920
L80390 71920
" />
<path d="M80530 71920
L80670 72310
" />
<path d="M80810 71920
L80670 72310
L80610 72450
L80580 72480
L80530 72510
" />
<path d="M81030 72000
L81230 72000
" />
<path d="M81320 72310
L81030 72310
L81030 71720
L81320 71720
" />
<path d="M81570 71920
L81570 72310
" />
<path d="M81570 71970
L81600 71950
L81650 71920
L81740 71920
L81790 71950
L81820 72000
L81820 72310
" />
<path d="M82350 72280
L82300 72310
L82190 72310
L82130 72280
L82100 72260
L82070 72200
L82070 72030
L82100 71970
L82130 71950
L82190 71920
L82300 71920
L82350 71950
" />
<path d="M82690 72310
L82640 72280
L82610 72260
L82580 72200
L82580 72030
L82610 71970
L82640 71950
L82690 71920
L82780 71920
L82830 71950
L82860 71970
L82890 72030
L82890 72200
L82860 72260
L82830 72280
L82780 72310
L82690 72310
" />
<path d="M83390 72310
L83390 71720
" />
<path d="M83390 72280
L83340 72310
L83230 72310
L83170 72280
L83140 72260
L83110 72200
L83110 72030
L83140 71970
L83170 71950
L83230 71920
L83340 71920
L83390 71950
" />
<path d="M83900 72280
L83840 72310
L83730 72310
L83680 72280
L83650 72230
L83650 72000
L83680 71950
L83730 71920
L83840 71920
L83900 71950
L83930 72000
L83930 72060
L83650 72120
" />
<path d="M84180 72310
L84180 71920
" />
<path d="M84180 72030
L84210 71970
L84240 71950
L84290 71920
L84350 71920
" />
<path d="M84860 72310
L84520 72310
" />
<path d="M84690 72310
L84690 71720
L84630 71810
L84570 71860
L84520 71890
" />
<path d="M85530 71690
L85020 72450
" />
</g>
<g style="fill:#840000; fill-opacity:0.0; 
stroke:#840000; stroke-width:100; stroke-opacity:1; 
stroke-linecap:round; stroke-linejoin:round;">
</g>
<g style="fill:#840000; fill-opacity:0.0; 
stroke:#840000; stroke-width:60; stroke-opacity:1; 
stroke-linecap:round; stroke-linejoin:round;">
<path d="M77560 75400
L77560 76580
" />
</g>
<g style="fill:#840000; fill-opacity:0.0; 
stroke:#840000; stroke-width:100; stroke-opacity:1; 
stroke-linecap:round; stroke-linejoin:round;">
</g>
<g style="fill:#840000; fill-opacity:0.0; 
stroke:#840000; stroke-width:60; stroke-opacity:1; 
stroke-linecap:round; stroke-linejoin:round;">
<path d="M102760 75400
L102760 77960
" />
</g>
<g style="fill:#840000; fill-opacity:0.0; 
stroke:#840000; stroke-width:0; stroke-opacity:1; 
stroke-linecap:round; stroke-linejoin:round;">
<g >
</g>
<g style="fill:#840000; fill-opacity:0.0; 
stroke:#840000; stroke-width:60; stroke-opacity:1; 
stroke-linecap:round; stroke-linejoin:round;">
<path style="fill:#840000; fill-opacity:0.0; 
stroke:#840000; stroke-width:60; stroke-opacity:1; 
stroke-linecap:round; stroke-linejoin:round;fill:none"
d="M 57000,39500
57000,40000
57500,40000
57000,40500
56500,40000
57000,40000
" /> 
</g>
<g style="fill:#008484; fill-opacity:0.0; 
stroke:#008484; stroke-width:60; stroke-opacity:1; 
stroke-linecap:round; stroke-linejoin:round;">
<text x="57050" y="41500"
textLength="2060" font-size="660" lengthAdjust="spacingAndGlyphs"
text-anchor="middle" opacity="0">GNDS</text>
<path d="M56430 41000
L56380 40970
L56310 40970
L56240 41000
L56190 41040
L56160 41090
L56140 41190
L56140 41260
L56160 41350
L56190 41400
L56240 41450
L56310 41470
L56350 41470
L56430 41450
L56450 41420
L56450 41260
L56350 41260
" />
<path d="M56660 41470
L56660 40970
L56950 41470
L56950 40970
" />
<path d="M57190 41470
L57190 40970
L57310 40970
L57380 41000
L57430 41040
L57450 41090
L57470 41190
L57470 41260
L57450 41350
L57430 41400
L57380 41450
L57310 41470
L57190 41470
" />
<path d="M57660 41450
L57740 41470
L57850 41470
L57900 41450
L57930 41420
L57950 41380
L57950 41330
L57930 41280
L57900 41260
L57850 41230
L57760 41210
L57710 41190
L57690 41160
L57660 41110
L57660 41070
L57690 41020
L57710 41000
L57760 40970
L57880 40970
L57950 41000
" />
</g>
</g>
<g style="fill:#008484; fill-opacity:0.0; 
stroke:#008484; stroke-width:0; stroke-opacity:1; 
stroke-linecap:round; stroke-linejoin:round;">
<g >
</g>
<g style="fill:#840000; fill-opacity:0.0; 
stroke:#840000; stroke-width:0; stroke-opacity:1; 
stroke-linecap:round; stroke-linejoin:round;">
</g>
<g style="fill:#840000; fill-opacity:0.0; 
stroke:#840000; stroke-width:60; stroke-opacity:1; 
stroke-linecap:round; stroke-linejoin:round;">
<path style="fill:#840000; fill-opacity:0.0; 
stroke:#840000; stroke-width:60; stroke-opacity:1; 
stroke-linecap:round; stroke-linejoin:round;fill:none"
d="M 70200,20500
70500,20000
" /> 
<path style="fill:#840000; fill-opacity:0.0; 
stroke:#840000; stroke-width:60; stroke-opacity:1; 
stroke-linecap:round; stroke-linejoin:round;fill:none"
d="M 70500,21000
70500,20000
" /> 
<path style="fill:#840000; fill-opacity:0.0; 
stroke:#840000; stroke-width:60; stroke-opacity:1; 
stroke-linecap:round; stroke-linejoin:round;fill:none"
d="M 70500,20000
70800,20500
" /> 
</g>
<g style="fill:#008484; fill-opacity:0.0; 
stroke:#008484; stroke-width:60; stroke-opacity:1; 
stroke-linecap:round; stroke-linejoin:round;">
<text x="70650" y="19540"
textLength="2060" font-size="660" lengthAdjust="spacingAndGlyphs"
text-anchor="middle" opacity="0">+3V3</text>
<path d="M69760 19320
L70150 19320
" />
<path d="M69950 19510
L69950 19130
" />
<path d="M70340 19010
L70650 19010
L70480 19200
L70550 19200
L70600 19230
L70620 19250
L70650 19300
L70650 19420
L70620 19460
L70600 19490
L70550 19510
L70410 19510
L70360 19490
L70340 19460
" />
<path d="M70790 19010
L70950 19510
L71120 19010
" />
<path d="M71240 19010
L71550 19010
L71380 19200
L71450 19200
L71500 19230
L71530 19250
L71550 19300
L71550 19420
L71530 19460
L71500 19490
L71450 19510
L71310 19510
L71260 19490
L71240 19460
" />
</g>
</g>
<g style="fill:#008484; fill-opacity:0.0; 
stroke:#008484; stroke-width:0; stroke-opacity:1; 
stroke-linecap:round; stroke-linejoin:round;">
<g >
</g>
<g style="fill:#840000; fill-opacity:0.0; 
stroke:#840000; stroke-width:0; stroke-opacity:1; 
stroke-linecap:round; stroke-linejoin:round;">
</g>
<g style="fill:#840000; fill-opacity:0.0; 
stroke:#840000; stroke-width:100; stroke-opacity:1; 
stroke-linecap:round; stroke-linejoin:round;">
<rect x="70100" y="30000" width="800" height="2000" rx="0" />
</g>
<g style="fill:#840000; fill-opacity:0.0; 
stroke:#840000; stroke-width:60; stroke-opacity:1; 
stroke-linecap:round; stroke-linejoin:round;">
<path d="M70500 30000
L70500 29500
" />
<path d="M70500 32000
L70500 32500
" />
</g>
<g style="fill:#008484; fill-opacity:0.0; 
stroke:#008484; stroke-width:60; stroke-opacity:1; 
stroke-linecap:round; stroke-linejoin:round;">
<text x="71950" y="30810"
textLength="1510" font-size="660" lengthAdjust="spacingAndGlyphs"
text-anchor="middle" opacity="0">R29</text>
<path d="M71620 30780
L71460 30540
" />
<path d="M71340 30780
L71340 30280
L71530 30280
L71580 30310
L71600 30330
L71620 30380
L71620 30450
L71600 30500
L71580 30520
L71530 30540
L71340 30540
" />
<path d="M71810 30330
L71840 30310
L71890 30280
L72000 30280
L72050 30310
L72080 30330
L72100 30380
L72100 30420
L72080 30500
L71790 30780
L72100 30780
" />
<path d="M72340 30780
L72430 30780
L72480 30760
L72500 30730
L72550 30660
L72580 30570
L72580 30380
L72550 30330
L72530 30310
L72480 30280
L72390 30280
L72340 30310
L72310 30330
L72290 30380
L72290 30500
L72310 30540
L72340 30570
L72390 30590
L72480 30590
L72530 30570
L72550 30540
L72580 30500
" />
<text x="71950" y="31720"
textLength="1510" font-size="660" lengthAdjust="spacingAndGlyphs"
text-anchor="middle" opacity="0">10K</text>
<path d="M71600 31690
L71310 31690
" />
<path d="M71460 31690
L71460 31190
L71410 31260
L71360 31310
L71310 31330
" />
<path d="M71910 31190
L71960 31190
L72000 31220
L72030 31240
L72050 31290
L72080 31380
L72080 31500
L72050 31600
L72030 31640
L72000 31670
L71960 31690
L71910 31690
L71860 31670
L71840 31640
L71810 31600
L71790 31500
L71790 31380
L71810 31290
L71840 31240
L71860 31220
L71910 31190
" />
<path d="M72290 31690
L72290 31190
" />
<path d="M72580 31690
L72360 31410
" />
<path d="M72580 31190
L72290 31480
" />
</g>
</g>
<g style="fill:#008484; fill-opacity:0.0; 
stroke:#008484; stroke-width:0; stroke-opacity:1; 
stroke-linecap:round; stroke-linejoin:round;">
<g >
</g>
<g style="fill:#840000; fill-opacity:0.0; 
stroke:#840000; stroke-width:0; stroke-opacity:1; 
stroke-linecap:round; stroke-linejoin:round;">
</g>
<g style="fill:#840000; fill-opacity:0.0; 
stroke:#840000; stroke-width:60; stroke-opacity:1; 
stroke-linecap:round; stroke-linejoin:round;">
<path style="fill:#840000; fill-opacity:0.0; 
stroke:#840000; stroke-width:60; stroke-opacity:1; 
stroke-linecap:round; stroke-linejoin:round;fill:none"
d="M 46700,20500
47000,20000
" /> 
<path style="fill:#840000; fill-opacity:0.0; 
stroke:#840000; stroke-width:60; stroke-opacity:1; 
stroke-linecap:round; stroke-linejoin:round;fill:none"
d="M 47000,21000
47000,20000
" /> 
<path style="fill:#840000; fill-opacity:0.0; 
stroke:#840000; stroke-width:60; stroke-opacity:1; 
stroke-linecap:round; stroke-linejoin:round;fill:none"
d="M 47000,20000
47300,20500
" /> 
</g>
<g style="fill:#008484; fill-opacity:0.0; 
stroke:#008484; stroke-width:60; stroke-opacity:1; 
stroke-linecap:round; stroke-linejoin:round;">
<text x="47150" y="19540"
textLength="2060" font-size="660" lengthAdjust="spacingAndGlyphs"
text-anchor="middle" opacity="0">+3V3</text>
<path d="M46260 19320
L46650 19320
" />
<path d="M46450 19510
L46450 19130
" />
<path d="M46840 19010
L47150 19010
L46980 19200
L47050 19200
L47100 19230
L47120 19250
L47150 19300
L47150 19420
L47120 19460
L47100 19490
L47050 19510
L46910 19510
L46860 19490
L46840 19460
" />
<path d="M47290 19010
L47450 19510
L47620 19010
" />
<path d="M47740 19010
L48050 19010
L47880 19200
L47950 19200
L48000 19230
L48030 19250
L48050 19300
L48050 19420
L48030 19460
L48000 19490
L47950 19510
L47810 19510
L47760 19490
L47740 19460
" />
</g>
</g>
<g style="fill:#008484; fill-opacity:0.0; 
stroke:#008484; stroke-width:0; stroke-opacity:1; 
stroke-linecap:round; stroke-linejoin:round;">
<g >
</g>
<g style="fill:#840000; fill-opacity:0.0; 
stroke:#840000; stroke-width:0; stroke-opacity:1; 
stroke-linecap:round; stroke-linejoin:round;">
</g>
<g style="fill:#840000; fill-opacity:0.0; 
stroke:#840000; stroke-width:100; stroke-opacity:1; 
stroke-linecap:round; stroke-linejoin:round;">
<rect x="46600" y="30000" width="800" height="2000" rx="0" />
</g>
<g style="fill:#840000; fill-opacity:0.0; 
stroke:#840000; stroke-width:60; stroke-opacity:1; 
stroke-linecap:round; stroke-linejoin:round;">
<path d="M47000 30000
L47000 29500
" />
<path d="M47000 32000
L47000 32500
" />
</g>
<g style="fill:#008484; fill-opacity:0.0; 
stroke:#008484; stroke-width:60; stroke-opacity:1; 
stroke-linecap:round; stroke-linejoin:round;">
<text x="48450" y="30810"
textLength="1510" font-size="660" lengthAdjust="spacingAndGlyphs"
text-anchor="middle" opacity="0">R23</text>
<path d="M48120 30780
L47960 30540
" />
<path d="M47840 30780
L47840 30280
L48030 30280
L48080 30310
L48100 30330
L48120 30380
L48120 30450
L48100 30500
L48080 30520
L48030 30540
L47840 30540
" />
<path d="M48310 30330
L48340 30310
L48390 30280
L48500 30280
L48550 30310
L48580 30330
L48600 30380
L48600 30420
L48580 30500
L48290 30780
L48600 30780
" />
<path d="M48770 30280
L49080 30280
L48910 30470
L48980 30470
L49030 30500
L49050 30520
L49080 30570
L49080 30690
L49050 30730
L49030 30760
L48980 30780
L48840 30780
L48790 30760
L48770 30730
" />
<text x="48450" y="31720"
textLength="1510" font-size="660" lengthAdjust="spacingAndGlyphs"
text-anchor="middle" opacity="0">10K</text>
<path d="M48100 31690
L47810 31690
" />
<path d="M47960 31690
L47960 31190
L47910 31260
L47860 31310
L47810 31330
" />
<path d="M48410 31190
L48460 31190
L48500 31220
L48530 31240
L48550 31290
L48580 31380
L48580 31500
L48550 31600
L48530 31640
L48500 31670
L48460 31690
L48410 31690
L48360 31670
L48340 31640
L48310 31600
L48290 31500
L48290 31380
L48310 31290
L48340 31240
L48360 31220
L48410 31190
" />
<path d="M48790 31690
L48790 31190
" />
<path d="M49080 31690
L48860 31410
" />
<path d="M49080 31190
L48790 31480
" />
</g>
</g>
<g style="fill:#008484; fill-opacity:0.0; 
stroke:#008484; stroke-width:0; stroke-opacity:1; 
stroke-linecap:round; stroke-linejoin:round;">
<g >
</g>
<g style="fill:#840000; fill-opacity:0.0; 
stroke:#840000; stroke-width:0; stroke-opacity:1; 
stroke-linecap:round; stroke-linejoin:round;">
</g>
<g style="fill:#840000; fill-opacity:0.0; 
stroke:#840000; stroke-width:60; stroke-opacity:1; 
stroke-linecap:round; stroke-linejoin:round;">
<path style="fill:#840000; fill-opacity:0.0; 
stroke:#840000; stroke-width:60; stroke-opacity:1; 
stroke-linecap:round; stroke-linejoin:round;fill:none"
d="M 63500,27500
63500,28000
64000,28000
63500,28500
63000,28000
63500,28000
" /> 
</g>
<g style="fill:#008484; fill-opacity:0.0; 
stroke:#008484; stroke-width:60; stroke-opacity:1; 
stroke-linecap:round; stroke-linejoin:round;">
<text x="63550" y="29500"
textLength="2060" font-size="660" lengthAdjust="spacingAndGlyphs"
text-anchor="middle" opacity="0">GNDS</text>
<path d="M62930 29000
L62880 28970
L62810 28970
L62740 29000
L62690 29040
L62660 29090
L62640 29190
L62640 29260
L62660 29350
L62690 29400
L62740 29450
L62810 29470
L62850 29470
L62930 29450
L62950 29420
L62950 29260
L62850 29260
" />
<path d="M63160 29470
L63160 28970
L63450 29470
L63450 28970
" />
<path d="M63690 29470
L63690 28970
L63810 28970
L63880 29000
L63930 29040
L63950 29090
L63970 29190
L63970 29260
L63950 29350
L63930 29400
L63880 29450
L63810 29470
L63690 29470
" />
<path d="M64160 29450
L64240 29470
L64350 29470
L64400 29450
L64430 29420
L64450 29380
L64450 29330
L64430 29280
L64400 29260
L64350 29230
L64260 29210
L64210 29190
L64190 29160
L64160 29110
L64160 29070
L64190 29020
L64210 29000
L64260 28970
L64380 28970
L64450 29000
" />
</g>
</g>
<g style="fill:#008484; fill-opacity:0.0; 
stroke:#008484; stroke-width:0; stroke-opacity:1; 
stroke-linecap:round; stroke-linejoin:round;">
<g >
</g>
<g style="fill:#840000; fill-opacity:0.0; 
stroke:#840000; stroke-width:0; stroke-opacity:1; 
stroke-linecap:round; stroke-linejoin:round;">
</g>
<g style="fill:#FFFFC2; fill-opacity:0.0; 
stroke:#FFFFC2; stroke-width:0; stroke-opacity:1; 
stroke-linecap:round; stroke-linejoin:round;">
</g>
<g style="fill:#FFFFC2; fill-opacity:0.6; 
stroke:#FFFFC2; stroke-width:0; stroke-opacity:1; 
stroke-linecap:round; stroke-linejoin:round;">
<rect x="55000" y="30500" width="4000" height="4000" rx="0" />
</g>
<g style="fill:#840000; fill-opacity:0.6; 
stroke:#840000; stroke-width:0; stroke-opacity:1; 
stroke-linecap:round; stroke-linejoin:round;">
</g>
<g style="fill:#840000; fill-opacity:0.0; 
stroke:#840000; stroke-width:100; stroke-opacity:1; 
stroke-linecap:round; stroke-linejoin:round;">
<rect x="55000" y="30500" width="4000" height="4000" rx="0" />
<path d="M58100 32648.1 A1080 1080 0.0 0 0 55940 32648.1" />
</g>
<g style="fill:#840000; fill-opacity:1.0; 
stroke:#840000; stroke-width:60; stroke-opacity:1; 
stroke-linecap:round; stroke-linejoin:round;">
<circle cx="57000" cy="34000" r="100" /> 
</g>
<g style="fill:#840000; fill-opacity:0.0; 
stroke:#840000; stroke-width:100; stroke-opacity:1; 
stroke-linecap:round; stroke-linejoin:round;">
<circle cx="57000" cy="32650" r="750" /> 
<circle cx="57400" cy="30800" r="50" /> 
<circle cx="56600" cy="30800" r="50" /> 
<rect x="55000" y="30500" width="4000" height="4000" rx="0" />
<path style="fill:#840000; fill-opacity:0.0; 
stroke:#840000; stroke-width:100; stroke-opacity:1; 
stroke-linecap:round; stroke-linejoin:round;fill:none"
d="M 57700,32750
56300,32750
" /> 
<path style="fill:#840000; fill-opacity:0.0; 
stroke:#840000; stroke-width:100; stroke-opacity:1; 
stroke-linecap:round; stroke-linejoin:round;fill:none"
d="M 57700,32650
56300,32650
" /> 
<path style="fill:#840000; fill-opacity:0.0; 
stroke:#840000; stroke-width:100; stroke-opacity:1; 
stroke-linecap:round; stroke-linejoin:round;fill:none"
d="M 56300,32550
57700,32550
" /> 
<path style="fill:#840000; fill-opacity:0.0; 
stroke:#840000; stroke-width:100; stroke-opacity:1; 
stroke-linecap:round; stroke-linejoin:round;fill:none"
d="M 57000,31000
57000,31150
" /> 
<path style="fill:#840000; fill-opacity:0.0; 
stroke:#840000; stroke-width:100; stroke-opacity:1; 
stroke-linecap:round; stroke-linejoin:round;fill:none"
d="M 56600,31000
57400,31000
" /> 
</g>
<g style="fill:#840000; fill-opacity:0.0; 
stroke:#840000; stroke-width:60; stroke-opacity:1; 
stroke-linecap:round; stroke-linejoin:round;">
<path style="fill:#840000; fill-opacity:0.0; 
stroke:#840000; stroke-width:60; stroke-opacity:1; 
stroke-linecap:round; stroke-linejoin:round;fill:none"
d="M 58000,34500
58000,34000
57800,34000
" /> 
<path style="fill:#840000; fill-opacity:0.0; 
stroke:#840000; stroke-width:60; stroke-opacity:1; 
stroke-linecap:round; stroke-linejoin:round;fill:none"
d="M 56000,34500
56000,34000
56200,34000
" /> 
</g>
<g style="fill:#840000; fill-opacity:0.0; 
stroke:#840000; stroke-width:100; stroke-opacity:1; 
stroke-linecap:round; stroke-linejoin:round;">
<path style="fill:#840000; fill-opacity:0.0; 
stroke:#840000; stroke-width:100; stroke-opacity:1; 
stroke-linecap:round; stroke-linejoin:round;fill:none"
d="M 58200,32400
58100,32700
57950,32450
" /> 
<path style="fill:#840000; fill-opacity:0.0; 
stroke:#840000; stroke-width:100; stroke-opacity:1; 
stroke-linecap:round; stroke-linejoin:round;fill:none"
d="M 55850,32400
55950,32700
56100,32450
" /> 
<path style="fill:#840000; fill-opacity:0.0; 
stroke:#840000; stroke-width:100; stroke-opacity:1; 
stroke-linecap:round; stroke-linejoin:round;fill:none"
d="M 58000,30500
58000,30800
57400,30800
" /> 
<path style="fill:#840000; fill-opacity:0.0; 
stroke:#840000; stroke-width:100; stroke-opacity:1; 
stroke-linecap:round; stroke-linejoin:round;fill:none"
d="M 56000,30500
56000,30800
56600,30800
" /> 
</g>
<g style="fill:#840000; fill-opacity:0.0; 
stroke:#840000; stroke-width:60; stroke-opacity:1; 
stroke-linecap:round; stroke-linejoin:round;">
<path style="fill:#840000; fill-opacity:0.0; 
stroke:#840000; stroke-width:60; stroke-opacity:1; 
stroke-linecap:round; stroke-linejoin:round;fill:none"
d="M 57000,34500
57000,34000
57400,34000
57800,33800
" /> 
<path style="fill:#840000; fill-opacity:0.0; 
stroke:#840000; stroke-width:60; stroke-opacity:1; 
stroke-linecap:round; stroke-linejoin:round;fill:none"
d="M 57000,34200
57000,34000
56600,34000
56200,33800
" /> 
<path d="M56000 34500
L56000 35500
" />
<g transform="rotate(-90 55900 35000)">
<text x="55900" y="35000"
textLength="490" font-size="660" lengthAdjust="spacingAndGlyphs"
text-anchor="middle" opacity="0">A</text>
</g>
<path d="M55730 35110
L55730 34880
" />
<path d="M55870 35160
L55370 35000
L55870 34830
" />
<path d="M58000 34500
L58000 35500
" />
<g transform="rotate(-90 57900 35000)">
<text x="57900" y="35000"
textLength="560" font-size="660" lengthAdjust="spacingAndGlyphs"
text-anchor="middle" opacity="0">B</text>
</g>
<path d="M57610 34960
L57630 34890
L57660 34860
L57700 34840
L57780 34840
L57820 34860
L57850 34890
L57870 34940
L57870 35130
L57370 35130
L57370 34960
L57400 34910
L57420 34890
L57470 34860
L57510 34860
L57560 34890
L57590 34910
L57610 34960
L57610 35130
" />
<path d="M57000 34500
L57000 35500
" />
<g transform="rotate(-90 56900 35000)">
<text x="56900" y="35000"
textLength="560" font-size="660" lengthAdjust="spacingAndGlyphs"
text-anchor="middle" opacity="0">C</text>
</g>
<path d="M56820 34840
L56850 34860
L56870 34940
L56870 34980
L56850 35050
L56800 35100
L56750 35130
L56660 35150
L56590 35150
L56490 35130
L56440 35100
L56400 35050
L56370 34980
L56370 34940
L56400 34860
L56420 34840
" />
<path d="M56000 30500
L56000 29500
" />
<g transform="rotate(-90 55900 30000)">
<text x="55900" y="30000"
textLength="1010" font-size="660" lengthAdjust="spacingAndGlyphs"
text-anchor="middle" opacity="0">S1</text>
</g>
<path d="M55850 30380
L55870 30300
L55870 30190
L55850 30140
L55820 30110
L55780 30090
L55730 30090
L55680 30110
L55660 30140
L55630 30190
L55610 30280
L55590 30330
L55560 30350
L55510 30380
L55470 30380
L55420 30350
L55400 30330
L55370 30280
L55370 30160
L55400 30090
" />
<path d="M55870 29610
L55870 29900
" />
<path d="M55870 29760
L55370 29760
L55440 29800
L55490 29850
L55510 29900
" />
<path d="M58000 30500
L58000 29500
" />
<g transform="rotate(-90 57900 30000)">
<text x="57900" y="30000"
textLength="1010" font-size="660" lengthAdjust="spacingAndGlyphs"
text-anchor="middle" opacity="0">S2</text>
</g>
<path d="M57850 30380
L57870 30300
L57870 30190
L57850 30140
L57820 30110
L57780 30090
L57730 30090
L57680 30110
L57660 30140
L57630 30190
L57610 30280
L57590 30330
L57560 30350
L57510 30380
L57470 30380
L57420 30350
L57400 30330
L57370 30280
L57370 30160
L57400 30090
" />
<path d="M57420 29900
L57400 29880
L57370 29830
L57370 29710
L57400 29660
L57420 29640
L57470 29610
L57510 29610
L57590 29640
L57870 29920
L57870 29610
" />
</g>
<g style="fill:#008484; fill-opacity:0.0; 
stroke:#008484; stroke-width:60; stroke-opacity:1; 
stroke-linecap:round; stroke-linejoin:round;">
<text x="60090" y="32260"
textLength="1580" font-size="660" lengthAdjust="spacingAndGlyphs"
text-anchor="middle" opacity="0">SW5</text>
<path d="M59420 32210
L59490 32230
L59610 32230
L59660 32210
L59680 32180
L59700 32140
L59700 32090
L59680 32040
L59660 32020
L59610 31990
L59510 31970
L59470 31950
L59440 31920
L59420 31870
L59420 31830
L59440 31780
L59470 31760
L59510 31730
L59630 31730
L59700 31760
" />
<path d="M59870 31730
L59990 32230
L60090 31870
L60180 32230
L60300 31730
" />
<path d="M60730 31730
L60490 31730
L60470 31970
L60490 31950
L60540 31920
L60660 31920
L60700 31950
L60730 31970
L60750 32020
L60750 32140
L60730 32180
L60700 32210
L60660 32230
L60540 32230
L60490 32210
L60470 32180
" />
<text x="63790" y="33170"
textLength="8990" font-size="660" lengthAdjust="spacingAndGlyphs"
text-anchor="middle" opacity="0">PEC11R-4020K-S0024</text>
<path d="M59440 33140
L59440 32640
L59630 32640
L59680 32670
L59700 32690
L59730 32740
L59730 32810
L59700 32860
L59680 32880
L59630 32900
L59440 32900
" />
<path d="M59940 32880
L60110 32880
" />
<path d="M60180 33140
L59940 33140
L59940 32640
L60180 32640
" />
<path d="M60680 33090
L60650 33120
L60580 33140
L60540 33140
L60460 33120
L60420 33070
L60390 33020
L60370 32930
L60370 32860
L60390 32760
L60420 32710
L60460 32670
L60540 32640
L60580 32640
L60650 32670
L60680 32690
" />
<path d="M61150 33140
L60870 33140
" />
<path d="M61010 33140
L61010 32640
L60960 32710
L60920 32760
L60870 32780
" />
<path d="M61630 33140
L61340 33140
" />
<path d="M61490 33140
L61490 32640
L61440 32710
L61390 32760
L61340 32780
" />
<path d="M62130 33140
L61960 32900
" />
<path d="M61840 33140
L61840 32640
L62040 32640
L62080 32670
L62110 32690
L62130 32740
L62130 32810
L62110 32860
L62080 32880
L62040 32900
L61840 32900
" />
<path d="M62340 32950
L62730 32950
" />
<path d="M63180 32810
L63180 33140
" />
<path d="M63060 32620
L62940 32970
L63250 32970
" />
<path d="M63540 32640
L63580 32640
L63630 32670
L63650 32690
L63680 32740
L63700 32830
L63700 32950
L63680 33050
L63650 33090
L63630 33120
L63580 33140
L63540 33140
L63490 33120
L63460 33090
L63440 33050
L63420 32950
L63420 32830
L63440 32740
L63460 32690
L63490 32670
L63540 32640
" />
<path d="M63890 32690
L63920 32670
L63960 32640
L64080 32640
L64130 32670
L64150 32690
L64180 32740
L64180 32780
L64150 32860
L63870 33140
L64180 33140
" />
<path d="M64490 32640
L64540 32640
L64580 32670
L64610 32690
L64630 32740
L64650 32830
L64650 32950
L64630 33050
L64610 33090
L64580 33120
L64540 33140
L64490 33140
L64440 33120
L64420 33090
L64390 33050
L64370 32950
L64370 32830
L64390 32740
L64420 32690
L64440 32670
L64490 32640
" />
<path d="M64870 33140
L64870 32640
" />
<path d="M65150 33140
L64940 32860
" />
<path d="M65150 32640
L64870 32930
" />
<path d="M65370 32950
L65750 32950
" />
<path d="M65960 33120
L66040 33140
L66150 33140
L66200 33120
L66230 33090
L66250 33050
L66250 33000
L66230 32950
L66200 32930
L66150 32900
L66060 32880
L66010 32860
L65990 32830
L65960 32780
L65960 32740
L65990 32690
L66010 32670
L66060 32640
L66180 32640
L66250 32670
" />
<path d="M66560 32640
L66610 32640
L66650 32670
L66680 32690
L66700 32740
L66730 32830
L66730 32950
L66700 33050
L66680 33090
L66650 33120
L66610 33140
L66560 33140
L66510 33120
L66490 33090
L66460 33050
L66440 32950
L66440 32830
L66460 32740
L66490 32690
L66510 32670
L66560 32640
" />
<path d="M67040 32640
L67080 32640
L67130 32670
L67150 32690
L67180 32740
L67200 32830
L67200 32950
L67180 33050
L67150 33090
L67130 33120
L67080 33140
L67040 33140
L66990 33120
L66960 33090
L66940 33050
L66920 32950
L66920 32830
L66940 32740
L66960 32690
L66990 32670
L67040 32640
" />
<path d="M67390 32690
L67420 32670
L67460 32640
L67580 32640
L67630 32670
L67650 32690
L67680 32740
L67680 32780
L67650 32860
L67370 33140
L67680 33140
" />
<path d="M68110 32810
L68110 33140
" />
<path d="M67990 32620
L67870 32970
L68180 32970
" />
</g>
</g>
<g style="fill:#008484; fill-opacity:0.0; 
stroke:#008484; stroke-width:60; stroke-opacity:1; 
stroke-linecap:round; stroke-linejoin:round;">
</g>
<g style="fill:#008400; fill-opacity:0.0; 
stroke:#008400; stroke-width:60; stroke-opacity:1; 
stroke-linecap:round; stroke-linejoin:round;">
<path d="M56000 24500
L59500 24500
" />
<path d="M70500 38000
L73500 38000
" />
<path d="M70500 29500
L70500 21000
" />
<path d="M70500 32500
L70500 38000
" />
<path d="M47000 29500
L47000 21000
" />
<path d="M47000 38000
L43000 38000
" />
<path d="M47000 32500
L47000 38000
" />
<path d="M56000 29500
L56000 24500
" />
<path d="M63500 27000
L63500 27500
" />
<path d="M58000 27000
L63500 27000
" />
<path d="M58000 29500
L58000 27000
" />
<path d="M56000 38000
L47000 38000
" />
<path d="M56000 35500
L56000 38000
" />
<path d="M58000 38000
L70500 38000
" />
<path d="M58000 35500
L58000 38000
" />
<path d="M57000 35500
L57000 39500
" />
</g>
<g style="fill:#848400; fill-opacity:0.0; 
stroke:#848400; stroke-width:60; stroke-opacity:1; 
stroke-linecap:round; stroke-linejoin:round;">
<text x="60100" y="24750"
textLength="2960" font-size="660" lengthAdjust="spacingAndGlyphs"
text-anchor="start" opacity="0">ENC_SW</text>
<path d="M60240 24460
L60410 24460
" />
<path d="M60480 24720
L60240 24720
L60240 24220
L60480 24220
" />
<path d="M60700 24720
L60700 24220
L60980 24720
L60980 24220
" />
<path d="M61510 24670
L61480 24700
L61410 24720
L61360 24720
L61290 24700
L61240 24650
L61220 24600
L61200 24510
L61200 24440
L61220 24340
L61240 24290
L61290 24250
L61360 24220
L61410 24220
L61480 24250
L61510 24270
" />
<path d="M61600 24770
L61980 24770
" />
<path d="M62080 24700
L62150 24720
L62270 24720
L62320 24700
L62340 24670
L62360 24630
L62360 24580
L62340 24530
L62320 24510
L62270 24480
L62170 24460
L62130 24440
L62100 24410
L62080 24360
L62080 24320
L62100 24270
L62130 24250
L62170 24220
L62290 24220
L62360 24250
" />
<path d="M62530 24220
L62650 24720
L62740 24360
L62840 24720
L62960 24220
" />
</g>
<g style="fill:#848400; fill-opacity:0.0; 
stroke:#848400; stroke-width:100; stroke-opacity:1; 
stroke-linecap:round; stroke-linejoin:round;">
<path style="fill:#848400; fill-opacity:0.0; 
stroke:#848400; stroke-width:100; stroke-opacity:1; 
stroke-linecap:round; stroke-linejoin:round;fill:none"
d="M 59500,24500
59750,24750
60000,24750
60000,24250
59750,24250
Z" /> 
</g>
<g style="fill:#848400; fill-opacity:0.0; 
stroke:#848400; stroke-width:60; stroke-opacity:1; 
stroke-linecap:round; stroke-linejoin:round;">
<text x="42400" y="38250"
textLength="2350" font-size="660" lengthAdjust="spacingAndGlyphs"
text-anchor="end" opacity="0">ENC_A</text>
<path d="M40200 37960
L40370 37960
" />
<path d="M40440 38220
L40200 38220
L40200 37720
L40440 37720
" />
<path d="M40650 38220
L40650 37720
L40940 38220
L40940 37720
" />
<path d="M41460 38170
L41440 38200
L41370 38220
L41320 38220
L41250 38200
L41200 38150
L41170 38100
L41150 38010
L41150 37940
L41170 37840
L41200 37790
L41250 37750
L41320 37720
L41370 37720
L41440 37750
L41460 37770
" />
<path d="M41560 38270
L41940 38270
" />
<path d="M42030 38080
L42270 38080
" />
<path d="M41980 38220
L42150 37720
L42320 38220
" />
</g>
<g style="fill:#848400; fill-opacity:0.0; 
stroke:#848400; stroke-width:100; stroke-opacity:1; 
stroke-linecap:round; stroke-linejoin:round;">
<path style="fill:#848400; fill-opacity:0.0; 
stroke:#848400; stroke-width:100; stroke-opacity:1; 
stroke-linecap:round; stroke-linejoin:round;fill:none"
d="M 43000,38000
42750,37750
42500,37750
42500,38250
42750,38250
Z" /> 
</g>
<g style="fill:#848400; fill-opacity:0.0; 
stroke:#848400; stroke-width:60; stroke-opacity:1; 
stroke-linecap:round; stroke-linejoin:round;">
<text x="74100" y="38250"
textLength="2420" font-size="660" lengthAdjust="spacingAndGlyphs"
text-anchor="start" opacity="0">ENC_B</text>
<path d="M74240 37960
L74410 37960
" />
<path d="M74480 38220
L74240 38220
L74240 37720
L74480 37720
" />
<path d="M74700 38220
L74700 37720
L74980 38220
L74980 37720
" />
<path d="M75510 38170
L75480 38200
L75410 38220
L75360 38220
L75290 38200
L75240 38150
L75220 38100
L75200 38010
L75200 37940
L75220 37840
L75240 37790
L75290 37750
L75360 37720
L75410 37720
L75480 37750
L75510 37770
" />
<path d="M75600 38270
L75980 38270
" />
<path d="M76270 37960
L76340 37980
L76360 38010
L76390 38050
L76390 38130
L76360 38170
L76340 38200
L76290 38220
L76100 38220
L76100 37720
L76270 37720
L76320 37750
L76340 37770
L76360 37820
L76360 37860
L76340 37910
L76320 37940
L76270 37960
L76100 37960
" />
</g>
<g style="fill:#848400; fill-opacity:0.0; 
stroke:#848400; stroke-width:100; stroke-opacity:1; 
stroke-linecap:round; stroke-linejoin:round;">
<path style="fill:#848400; fill-opacity:0.0; 
stroke:#848400; stroke-width:100; stroke-opacity:1; 
stroke-linecap:round; stroke-linejoin:round;fill:none"
d="M 73500,38000
73750,38250
74000,38250
74000,37750
73750,37750
Z" /> 
</g>
<g style="fill:#848400; fill-opacity:0.0; 
stroke:#848400; stroke-width:0; stroke-opacity:1; 
stroke-linecap:round; stroke-linejoin:round;">
</g>
<g style="fill:#008400; fill-opacity:0.0; 
stroke:#008400; stroke-width:0; stroke-opacity:1; 
stroke-linecap:round; stroke-linejoin:round;">
</g>
<g style="fill:#008400; fill-opacity:1.0; 
stroke:#008400; stroke-width:100; stroke-opacity:1; 
stroke-linecap:round; stroke-linejoin:round;">
<circle cx="47000" cy="38000" r="200" /> 
</g>
<g style="fill:#008400; fill-opacity:1.0; 
stroke:#008400; stroke-width:0; stroke-opacity:1; 
stroke-linecap:round; stroke-linejoin:round;">
</g>
<g style="fill:#008400; fill-opacity:1.0; 
stroke:#008400; stroke-width:100; stroke-opacity:1; 
stroke-linecap:round; stroke-linejoin:round;">
<circle cx="70500" cy="38000" r="200" /> 
</g> 
</svg>
