<?xml version="1.0" standalone="no"?>
 <!DOCTYPE svg PUBLIC "-//W3C//DTD SVG 1.1//EN" 
 "http://www.w3.org/Graphics/SVG/1.1/DTD/svg11.dtd"> 
<svg
  xmlns:svg="http://www.w3.org/2000/svg"
  xmlns="http://www.w3.org/2000/svg"
  xmlns:xlink="http://www.w3.org/1999/xlink"
  version="1.1"
  width="29.700220cm" height="21.000720cm" viewBox="0 0 116930 82680">
<title>SVG Picture created as SignalRelay-SignalRelay.svg date 2020/11/10 00:29:49 </title>
  <desc>Picture generated by Eeschema-SVG </desc>
<g style="fill:#000000; fill-opacity:1;stroke:#000000; stroke-opacity:1;
stroke-linecap:round; stroke-linejoin:round;"
 transform="translate(0 0) scale(1 1)">
</g>
<g style="fill:#000000; fill-opacity:0.0; 
stroke:#000000; stroke-width:-10; stroke-opacity:1; 
stroke-linecap:round; stroke-linejoin:round;">
</g>
<g style="fill:#840000; fill-opacity:0.0; 
stroke:#840000; stroke-width:-10; stroke-opacity:1; 
stroke-linecap:round; stroke-linejoin:round;">
</g>
<g style="fill:#840000; fill-opacity:0.0; 
stroke:#840000; stroke-width:100; stroke-opacity:1; 
stroke-linecap:round; stroke-linejoin:round;">
</g>
<g style="fill:#840000; fill-opacity:0.0; 
stroke:#840000; stroke-width:60; stroke-opacity:1; 
stroke-linecap:round; stroke-linejoin:round;">
<rect x="69690" y="65360" width="42520" height="12600" rx="0" />
</g>
<g style="fill:#840000; fill-opacity:0.0; 
stroke:#840000; stroke-width:100; stroke-opacity:1; 
stroke-linecap:round; stroke-linejoin:round;">
</g>
<g style="fill:#840000; fill-opacity:0.0; 
stroke:#840000; stroke-width:60; stroke-opacity:1; 
stroke-linecap:round; stroke-linejoin:round;">
<rect x="3940" y="3940" width="109050" height="74800" rx="0" />
</g>
<g style="fill:#840000; fill-opacity:0.0; 
stroke:#840000; stroke-width:100; stroke-opacity:1; 
stroke-linecap:round; stroke-linejoin:round;">
</g>
<g style="fill:#840000; fill-opacity:0.0; 
stroke:#840000; stroke-width:60; stroke-opacity:1; 
stroke-linecap:round; stroke-linejoin:round;">
<rect x="4720" y="4720" width="107490" height="73240" rx="0" />
</g>
<g style="fill:#840000; fill-opacity:0.0; 
stroke:#840000; stroke-width:100; stroke-opacity:1; 
stroke-linecap:round; stroke-linejoin:round;">
</g>
<g style="fill:#840000; fill-opacity:0.0; 
stroke:#840000; stroke-width:60; stroke-opacity:1; 
stroke-linecap:round; stroke-linejoin:round;">
<path d="M23620 4720
L23620 3940
" />
</g>
<g style="fill:#840000; fill-opacity:0.0; 
stroke:#840000; stroke-width:100; stroke-opacity:1; 
stroke-linecap:round; stroke-linejoin:round;">
</g>
<g style="fill:#840000; fill-opacity:0.0; 
stroke:#840000; stroke-width:60; stroke-opacity:1; 
stroke-linecap:round; stroke-linejoin:round;">
<path d="M43310 4720
L43310 3940
" />
</g>
<g style="fill:#840000; fill-opacity:0.0; 
stroke:#840000; stroke-width:100; stroke-opacity:1; 
stroke-linecap:round; stroke-linejoin:round;">
</g>
<g style="fill:#840000; fill-opacity:0.0; 
stroke:#840000; stroke-width:60; stroke-opacity:1; 
stroke-linecap:round; stroke-linejoin:round;">
<path d="M62990 4720
L62990 3940
" />
</g>
<g style="fill:#840000; fill-opacity:0.0; 
stroke:#840000; stroke-width:100; stroke-opacity:1; 
stroke-linecap:round; stroke-linejoin:round;">
</g>
<g style="fill:#840000; fill-opacity:0.0; 
stroke:#840000; stroke-width:60; stroke-opacity:1; 
stroke-linecap:round; stroke-linejoin:round;">
<path d="M82680 4720
L82680 3940
" />
</g>
<g style="fill:#840000; fill-opacity:0.0; 
stroke:#840000; stroke-width:100; stroke-opacity:1; 
stroke-linecap:round; stroke-linejoin:round;">
</g>
<g style="fill:#840000; fill-opacity:0.0; 
stroke:#840000; stroke-width:60; stroke-opacity:1; 
stroke-linecap:round; stroke-linejoin:round;">
<path d="M102360 4720
L102360 3940
" />
</g>
<g style="fill:#840000; fill-opacity:0.0; 
stroke:#840000; stroke-width:100; stroke-opacity:1; 
stroke-linecap:round; stroke-linejoin:round;">
</g>
<g style="fill:#840000; fill-opacity:0.0; 
stroke:#840000; stroke-width:60; stroke-opacity:1; 
stroke-linecap:round; stroke-linejoin:round;">
<text x="13780" y="4580"
textLength="550" font-size="680" lengthAdjust="spacingAndGlyphs"
text-anchor="start" opacity="0">1</text>
<path d="M14190 4560
L13900 4560
" />
<path d="M14050 4560
L14050 4050
L14000 4120
L13950 4170
L13900 4190
" />
</g>
<g style="fill:#840000; fill-opacity:0.0; 
stroke:#840000; stroke-width:100; stroke-opacity:1; 
stroke-linecap:round; stroke-linejoin:round;">
</g>
<g style="fill:#840000; fill-opacity:0.0; 
stroke:#840000; stroke-width:60; stroke-opacity:1; 
stroke-linecap:round; stroke-linejoin:round;">
<text x="33460" y="4580"
textLength="550" font-size="680" lengthAdjust="spacingAndGlyphs"
text-anchor="start" opacity="0">2</text>
<path d="M33580 4090
L33610 4070
L33660 4050
L33780 4050
L33830 4070
L33850 4090
L33870 4140
L33870 4190
L33850 4260
L33560 4560
L33870 4560
" />
</g>
<g style="fill:#840000; fill-opacity:0.0; 
stroke:#840000; stroke-width:100; stroke-opacity:1; 
stroke-linecap:round; stroke-linejoin:round;">
</g>
<g style="fill:#840000; fill-opacity:0.0; 
stroke:#840000; stroke-width:60; stroke-opacity:1; 
stroke-linecap:round; stroke-linejoin:round;">
<text x="53150" y="4580"
textLength="550" font-size="680" lengthAdjust="spacingAndGlyphs"
text-anchor="start" opacity="0">3</text>
<path d="M53250 4050
L53560 4050
L53390 4240
L53470 4240
L53520 4260
L53540 4290
L53560 4340
L53560 4460
L53540 4510
L53520 4530
L53470 4560
L53320 4560
L53270 4530
L53250 4510
" />
</g>
<g style="fill:#840000; fill-opacity:0.0; 
stroke:#840000; stroke-width:100; stroke-opacity:1; 
stroke-linecap:round; stroke-linejoin:round;">
</g>
<g style="fill:#840000; fill-opacity:0.0; 
stroke:#840000; stroke-width:60; stroke-opacity:1; 
stroke-linecap:round; stroke-linejoin:round;">
<text x="72830" y="4580"
textLength="550" font-size="680" lengthAdjust="spacingAndGlyphs"
text-anchor="start" opacity="0">4</text>
<path d="M73200 4220
L73200 4560
" />
<path d="M73070 4020
L72950 4390
L73270 4390
" />
</g>
<g style="fill:#840000; fill-opacity:0.0; 
stroke:#840000; stroke-width:100; stroke-opacity:1; 
stroke-linecap:round; stroke-linejoin:round;">
</g>
<g style="fill:#840000; fill-opacity:0.0; 
stroke:#840000; stroke-width:60; stroke-opacity:1; 
stroke-linecap:round; stroke-linejoin:round;">
<text x="92520" y="4580"
textLength="550" font-size="680" lengthAdjust="spacingAndGlyphs"
text-anchor="start" opacity="0">5</text>
<path d="M92910 4050
L92670 4050
L92640 4290
L92670 4260
L92720 4240
L92840 4240
L92890 4260
L92910 4290
L92930 4340
L92930 4460
L92910 4510
L92890 4530
L92840 4560
L92720 4560
L92670 4530
L92640 4510
" />
</g>
<g style="fill:#840000; fill-opacity:0.0; 
stroke:#840000; stroke-width:100; stroke-opacity:1; 
stroke-linecap:round; stroke-linejoin:round;">
</g>
<g style="fill:#840000; fill-opacity:0.0; 
stroke:#840000; stroke-width:60; stroke-opacity:1; 
stroke-linecap:round; stroke-linejoin:round;">
<text x="112200" y="4580"
textLength="550" font-size="680" lengthAdjust="spacingAndGlyphs"
text-anchor="start" opacity="0">6</text>
<path d="M112570 4050
L112470 4050
L112420 4070
L112400 4090
L112350 4170
L112320 4260
L112320 4460
L112350 4510
L112370 4530
L112420 4560
L112520 4560
L112570 4530
L112590 4510
L112610 4460
L112610 4340
L112590 4290
L112570 4260
L112520 4240
L112420 4240
L112370 4260
L112350 4290
L112320 4340
" />
</g>
<g style="fill:#840000; fill-opacity:0.0; 
stroke:#840000; stroke-width:100; stroke-opacity:1; 
stroke-linecap:round; stroke-linejoin:round;">
</g>
<g style="fill:#840000; fill-opacity:0.0; 
stroke:#840000; stroke-width:60; stroke-opacity:1; 
stroke-linecap:round; stroke-linejoin:round;">
<path d="M23620 77960
L23620 78740
" />
</g>
<g style="fill:#840000; fill-opacity:0.0; 
stroke:#840000; stroke-width:100; stroke-opacity:1; 
stroke-linecap:round; stroke-linejoin:round;">
</g>
<g style="fill:#840000; fill-opacity:0.0; 
stroke:#840000; stroke-width:60; stroke-opacity:1; 
stroke-linecap:round; stroke-linejoin:round;">
<path d="M43310 77960
L43310 78740
" />
</g>
<g style="fill:#840000; fill-opacity:0.0; 
stroke:#840000; stroke-width:100; stroke-opacity:1; 
stroke-linecap:round; stroke-linejoin:round;">
</g>
<g style="fill:#840000; fill-opacity:0.0; 
stroke:#840000; stroke-width:60; stroke-opacity:1; 
stroke-linecap:round; stroke-linejoin:round;">
<path d="M62990 77960
L62990 78740
" />
</g>
<g style="fill:#840000; fill-opacity:0.0; 
stroke:#840000; stroke-width:100; stroke-opacity:1; 
stroke-linecap:round; stroke-linejoin:round;">
</g>
<g style="fill:#840000; fill-opacity:0.0; 
stroke:#840000; stroke-width:60; stroke-opacity:1; 
stroke-linecap:round; stroke-linejoin:round;">
<path d="M82680 77960
L82680 78740
" />
</g>
<g style="fill:#840000; fill-opacity:0.0; 
stroke:#840000; stroke-width:100; stroke-opacity:1; 
stroke-linecap:round; stroke-linejoin:round;">
</g>
<g style="fill:#840000; fill-opacity:0.0; 
stroke:#840000; stroke-width:60; stroke-opacity:1; 
stroke-linecap:round; stroke-linejoin:round;">
<path d="M102360 77960
L102360 78740
" />
</g>
<g style="fill:#840000; fill-opacity:0.0; 
stroke:#840000; stroke-width:100; stroke-opacity:1; 
stroke-linecap:round; stroke-linejoin:round;">
</g>
<g style="fill:#840000; fill-opacity:0.0; 
stroke:#840000; stroke-width:60; stroke-opacity:1; 
stroke-linecap:round; stroke-linejoin:round;">
<text x="13780" y="78600"
textLength="550" font-size="680" lengthAdjust="spacingAndGlyphs"
text-anchor="start" opacity="0">1</text>
<path d="M14190 78580
L13900 78580
" />
<path d="M14050 78580
L14050 78070
L14000 78140
L13950 78190
L13900 78210
" />
</g>
<g style="fill:#840000; fill-opacity:0.0; 
stroke:#840000; stroke-width:100; stroke-opacity:1; 
stroke-linecap:round; stroke-linejoin:round;">
</g>
<g style="fill:#840000; fill-opacity:0.0; 
stroke:#840000; stroke-width:60; stroke-opacity:1; 
stroke-linecap:round; stroke-linejoin:round;">
<text x="33460" y="78600"
textLength="550" font-size="680" lengthAdjust="spacingAndGlyphs"
text-anchor="start" opacity="0">2</text>
<path d="M33580 78110
L33610 78090
L33660 78070
L33780 78070
L33830 78090
L33850 78110
L33870 78160
L33870 78210
L33850 78280
L33560 78580
L33870 78580
" />
</g>
<g style="fill:#840000; fill-opacity:0.0; 
stroke:#840000; stroke-width:100; stroke-opacity:1; 
stroke-linecap:round; stroke-linejoin:round;">
</g>
<g style="fill:#840000; fill-opacity:0.0; 
stroke:#840000; stroke-width:60; stroke-opacity:1; 
stroke-linecap:round; stroke-linejoin:round;">
<text x="53150" y="78600"
textLength="550" font-size="680" lengthAdjust="spacingAndGlyphs"
text-anchor="start" opacity="0">3</text>
<path d="M53250 78070
L53560 78070
L53390 78260
L53470 78260
L53520 78280
L53540 78310
L53560 78360
L53560 78480
L53540 78530
L53520 78550
L53470 78580
L53320 78580
L53270 78550
L53250 78530
" />
</g>
<g style="fill:#840000; fill-opacity:0.0; 
stroke:#840000; stroke-width:100; stroke-opacity:1; 
stroke-linecap:round; stroke-linejoin:round;">
</g>
<g style="fill:#840000; fill-opacity:0.0; 
stroke:#840000; stroke-width:60; stroke-opacity:1; 
stroke-linecap:round; stroke-linejoin:round;">
<text x="72830" y="78600"
textLength="550" font-size="680" lengthAdjust="spacingAndGlyphs"
text-anchor="start" opacity="0">4</text>
<path d="M73200 78240
L73200 78580
" />
<path d="M73070 78040
L72950 78410
L73270 78410
" />
</g>
<g style="fill:#840000; fill-opacity:0.0; 
stroke:#840000; stroke-width:100; stroke-opacity:1; 
stroke-linecap:round; stroke-linejoin:round;">
</g>
<g style="fill:#840000; fill-opacity:0.0; 
stroke:#840000; stroke-width:60; stroke-opacity:1; 
stroke-linecap:round; stroke-linejoin:round;">
<text x="92520" y="78600"
textLength="550" font-size="680" lengthAdjust="spacingAndGlyphs"
text-anchor="start" opacity="0">5</text>
<path d="M92910 78070
L92670 78070
L92640 78310
L92670 78280
L92720 78260
L92840 78260
L92890 78280
L92910 78310
L92930 78360
L92930 78480
L92910 78530
L92890 78550
L92840 78580
L92720 78580
L92670 78550
L92640 78530
" />
</g>
<g style="fill:#840000; fill-opacity:0.0; 
stroke:#840000; stroke-width:100; stroke-opacity:1; 
stroke-linecap:round; stroke-linejoin:round;">
</g>
<g style="fill:#840000; fill-opacity:0.0; 
stroke:#840000; stroke-width:60; stroke-opacity:1; 
stroke-linecap:round; stroke-linejoin:round;">
<text x="112200" y="78600"
textLength="550" font-size="680" lengthAdjust="spacingAndGlyphs"
text-anchor="start" opacity="0">6</text>
<path d="M112570 78070
L112470 78070
L112420 78090
L112400 78110
L112350 78190
L112320 78280
L112320 78480
L112350 78530
L112370 78550
L112420 78580
L112520 78580
L112570 78550
L112590 78530
L112610 78480
L112610 78360
L112590 78310
L112570 78280
L112520 78260
L112420 78260
L112370 78280
L112350 78310
L112320 78360
" />
</g>
<g style="fill:#840000; fill-opacity:0.0; 
stroke:#840000; stroke-width:100; stroke-opacity:1; 
stroke-linecap:round; stroke-linejoin:round;">
</g>
<g style="fill:#840000; fill-opacity:0.0; 
stroke:#840000; stroke-width:60; stroke-opacity:1; 
stroke-linecap:round; stroke-linejoin:round;">
<path d="M3940 23620
L4720 23620
" />
</g>
<g style="fill:#840000; fill-opacity:0.0; 
stroke:#840000; stroke-width:100; stroke-opacity:1; 
stroke-linecap:round; stroke-linejoin:round;">
</g>
<g style="fill:#840000; fill-opacity:0.0; 
stroke:#840000; stroke-width:60; stroke-opacity:1; 
stroke-linecap:round; stroke-linejoin:round;">
<path d="M3940 43310
L4720 43310
" />
</g>
<g style="fill:#840000; fill-opacity:0.0; 
stroke:#840000; stroke-width:100; stroke-opacity:1; 
stroke-linecap:round; stroke-linejoin:round;">
</g>
<g style="fill:#840000; fill-opacity:0.0; 
stroke:#840000; stroke-width:60; stroke-opacity:1; 
stroke-linecap:round; stroke-linejoin:round;">
<path d="M3940 62990
L4720 62990
" />
</g>
<g style="fill:#840000; fill-opacity:0.0; 
stroke:#840000; stroke-width:100; stroke-opacity:1; 
stroke-linecap:round; stroke-linejoin:round;">
</g>
<g style="fill:#840000; fill-opacity:0.0; 
stroke:#840000; stroke-width:60; stroke-opacity:1; 
stroke-linecap:round; stroke-linejoin:round;">
<text x="4330" y="14030"
textLength="500" font-size="680" lengthAdjust="spacingAndGlyphs"
text-anchor="middle" opacity="0">A</text>
<path d="M4200 13860
L4450 13860
" />
<path d="M4160 14010
L4330 13500
L4500 14010
" />
</g>
<g style="fill:#840000; fill-opacity:0.0; 
stroke:#840000; stroke-width:100; stroke-opacity:1; 
stroke-linecap:round; stroke-linejoin:round;">
</g>
<g style="fill:#840000; fill-opacity:0.0; 
stroke:#840000; stroke-width:60; stroke-opacity:1; 
stroke-linecap:round; stroke-linejoin:round;">
<text x="4330" y="33710"
textLength="570" font-size="680" lengthAdjust="spacingAndGlyphs"
text-anchor="middle" opacity="0">B</text>
<path d="M4360 33420
L4430 33440
L4460 33470
L4480 33520
L4480 33590
L4460 33640
L4430 33660
L4390 33690
L4190 33690
L4190 33180
L4360 33180
L4410 33200
L4430 33220
L4460 33270
L4460 33320
L4430 33370
L4410 33390
L4360 33420
L4190 33420
" />
</g>
<g style="fill:#840000; fill-opacity:0.0; 
stroke:#840000; stroke-width:100; stroke-opacity:1; 
stroke-linecap:round; stroke-linejoin:round;">
</g>
<g style="fill:#840000; fill-opacity:0.0; 
stroke:#840000; stroke-width:60; stroke-opacity:1; 
stroke-linecap:round; stroke-linejoin:round;">
<text x="4330" y="53400"
textLength="570" font-size="680" lengthAdjust="spacingAndGlyphs"
text-anchor="middle" opacity="0">C</text>
<path d="M4480 53330
L4460 53350
L4390 53380
L4340 53380
L4260 53350
L4220 53300
L4190 53250
L4170 53160
L4170 53080
L4190 52990
L4220 52940
L4260 52890
L4340 52870
L4390 52870
L4460 52890
L4480 52910
" />
</g>
<g style="fill:#840000; fill-opacity:0.0; 
stroke:#840000; stroke-width:100; stroke-opacity:1; 
stroke-linecap:round; stroke-linejoin:round;">
</g>
<g style="fill:#840000; fill-opacity:0.0; 
stroke:#840000; stroke-width:60; stroke-opacity:1; 
stroke-linecap:round; stroke-linejoin:round;">
<text x="4330" y="73080"
textLength="570" font-size="680" lengthAdjust="spacingAndGlyphs"
text-anchor="middle" opacity="0">D</text>
<path d="M4190 73060
L4190 72550
L4310 72550
L4390 72570
L4430 72620
L4460 72670
L4480 72760
L4480 72840
L4460 72930
L4430 72980
L4390 73030
L4310 73060
L4190 73060
" />
</g>
<g style="fill:#840000; fill-opacity:0.0; 
stroke:#840000; stroke-width:100; stroke-opacity:1; 
stroke-linecap:round; stroke-linejoin:round;">
</g>
<g style="fill:#840000; fill-opacity:0.0; 
stroke:#840000; stroke-width:60; stroke-opacity:1; 
stroke-linecap:round; stroke-linejoin:round;">
<path d="M112990 23620
L112210 23620
" />
</g>
<g style="fill:#840000; fill-opacity:0.0; 
stroke:#840000; stroke-width:100; stroke-opacity:1; 
stroke-linecap:round; stroke-linejoin:round;">
</g>
<g style="fill:#840000; fill-opacity:0.0; 
stroke:#840000; stroke-width:60; stroke-opacity:1; 
stroke-linecap:round; stroke-linejoin:round;">
<path d="M112990 43310
L112210 43310
" />
</g>
<g style="fill:#840000; fill-opacity:0.0; 
stroke:#840000; stroke-width:100; stroke-opacity:1; 
stroke-linecap:round; stroke-linejoin:round;">
</g>
<g style="fill:#840000; fill-opacity:0.0; 
stroke:#840000; stroke-width:60; stroke-opacity:1; 
stroke-linecap:round; stroke-linejoin:round;">
<path d="M112990 62990
L112210 62990
" />
</g>
<g style="fill:#840000; fill-opacity:0.0; 
stroke:#840000; stroke-width:100; stroke-opacity:1; 
stroke-linecap:round; stroke-linejoin:round;">
</g>
<g style="fill:#840000; fill-opacity:0.0; 
stroke:#840000; stroke-width:60; stroke-opacity:1; 
stroke-linecap:round; stroke-linejoin:round;">
<text x="112600" y="14030"
textLength="500" font-size="680" lengthAdjust="spacingAndGlyphs"
text-anchor="middle" opacity="0">A</text>
<path d="M112470 13860
L112720 13860
" />
<path d="M112430 14010
L112600 13500
L112770 14010
" />
</g>
<g style="fill:#840000; fill-opacity:0.0; 
stroke:#840000; stroke-width:100; stroke-opacity:1; 
stroke-linecap:round; stroke-linejoin:round;">
</g>
<g style="fill:#840000; fill-opacity:0.0; 
stroke:#840000; stroke-width:60; stroke-opacity:1; 
stroke-linecap:round; stroke-linejoin:round;">
<text x="112600" y="33710"
textLength="570" font-size="680" lengthAdjust="spacingAndGlyphs"
text-anchor="middle" opacity="0">B</text>
<path d="M112630 33420
L112700 33440
L112730 33470
L112750 33520
L112750 33590
L112730 33640
L112700 33660
L112660 33690
L112460 33690
L112460 33180
L112630 33180
L112680 33200
L112700 33220
L112730 33270
L112730 33320
L112700 33370
L112680 33390
L112630 33420
L112460 33420
" />
</g>
<g style="fill:#840000; fill-opacity:0.0; 
stroke:#840000; stroke-width:100; stroke-opacity:1; 
stroke-linecap:round; stroke-linejoin:round;">
</g>
<g style="fill:#840000; fill-opacity:0.0; 
stroke:#840000; stroke-width:60; stroke-opacity:1; 
stroke-linecap:round; stroke-linejoin:round;">
<text x="112600" y="53400"
textLength="570" font-size="680" lengthAdjust="spacingAndGlyphs"
text-anchor="middle" opacity="0">C</text>
<path d="M112750 53330
L112730 53350
L112660 53380
L112610 53380
L112530 53350
L112490 53300
L112460 53250
L112440 53160
L112440 53080
L112460 52990
L112490 52940
L112530 52890
L112610 52870
L112660 52870
L112730 52890
L112750 52910
" />
</g>
<g style="fill:#840000; fill-opacity:0.0; 
stroke:#840000; stroke-width:100; stroke-opacity:1; 
stroke-linecap:round; stroke-linejoin:round;">
</g>
<g style="fill:#840000; fill-opacity:0.0; 
stroke:#840000; stroke-width:60; stroke-opacity:1; 
stroke-linecap:round; stroke-linejoin:round;">
<text x="112600" y="73080"
textLength="570" font-size="680" lengthAdjust="spacingAndGlyphs"
text-anchor="middle" opacity="0">D</text>
<path d="M112460 73060
L112460 72550
L112580 72550
L112660 72570
L112700 72620
L112730 72670
L112750 72760
L112750 72840
L112730 72930
L112700 72980
L112660 73030
L112580 73060
L112460 73060
" />
</g>
<g style="fill:#840000; fill-opacity:0.0; 
stroke:#840000; stroke-width:100; stroke-opacity:1; 
stroke-linecap:round; stroke-linejoin:round;">
</g>
<g style="fill:#840000; fill-opacity:0.0; 
stroke:#840000; stroke-width:60; stroke-opacity:1; 
stroke-linecap:round; stroke-linejoin:round;">
<text x="78740" y="76320"
textLength="2760" font-size="780" lengthAdjust="spacingAndGlyphs"
text-anchor="start" opacity="0">Date: </text>
<path d="M78910 76290
L78910 75700
L79050 75700
L79130 75730
L79190 75790
L79210 75840
L79240 75950
L79240 76040
L79210 76150
L79190 76210
L79130 76260
L79050 76290
L78910 76290
" />
<path d="M79750 76290
L79750 75980
L79720 75930
L79660 75900
L79550 75900
L79500 75930
" />
<path d="M79750 76260
L79690 76290
L79550 76290
L79500 76260
L79470 76210
L79470 76150
L79500 76100
L79550 76070
L79690 76070
L79750 76040
" />
<path d="M79950 75900
L80170 75900
" />
<path d="M80030 75700
L80030 76210
L80060 76260
L80110 76290
L80170 76290
" />
<path d="M80590 76260
L80540 76290
L80420 76290
L80370 76260
L80340 76210
L80340 75980
L80370 75930
L80420 75900
L80540 75900
L80590 75930
L80620 75980
L80620 76040
L80340 76100
" />
<path d="M80870 76240
L80900 76260
L80870 76290
L80840 76260
L80870 76240
L80870 76290
" />
<path d="M80870 75930
L80900 75950
L80870 75980
L80840 75950
L80870 75930
L80870 75980
" />
</g>
<g style="fill:#840000; fill-opacity:0.0; 
stroke:#840000; stroke-width:100; stroke-opacity:1; 
stroke-linecap:round; stroke-linejoin:round;">
</g>
<g style="fill:#840000; fill-opacity:0.0; 
stroke:#840000; stroke-width:60; stroke-opacity:1; 
stroke-linecap:round; stroke-linejoin:round;">
<path d="M69690 76580
L112210 76580
" />
</g>
<g style="fill:#840000; fill-opacity:0.0; 
stroke:#840000; stroke-width:100; stroke-opacity:1; 
stroke-linecap:round; stroke-linejoin:round;">
</g>
<g style="fill:#840000; fill-opacity:0.0; 
stroke:#840000; stroke-width:60; stroke-opacity:1; 
stroke-linecap:round; stroke-linejoin:round;">
<text x="70080" y="77420"
textLength="16950" font-size="780" lengthAdjust="spacingAndGlyphs"
text-anchor="start" opacity="0">KiCad E.D.A.  kicad (5.1.7-0-10_14)</text>
<path d="M70250 77390
L70250 76800
" />
<path d="M70580 77390
L70330 77050
" />
<path d="M70580 76800
L70250 77140
" />
<path d="M70840 77390
L70840 77000
" />
<path d="M70840 76800
L70810 76830
L70840 76860
L70860 76830
L70840 76800
L70840 76860
" />
<path d="M71450 77340
L71430 77360
L71340 77390
L71290 77390
L71200 77360
L71140 77310
L71120 77250
L71090 77140
L71090 77050
L71120 76940
L71140 76890
L71200 76830
L71290 76800
L71340 76800
L71430 76830
L71450 76860
" />
<path d="M71960 77390
L71960 77080
L71930 77030
L71880 77000
L71760 77000
L71710 77030
" />
<path d="M71960 77360
L71900 77390
L71760 77390
L71710 77360
L71680 77310
L71680 77250
L71710 77200
L71760 77170
L71900 77170
L71960 77140
" />
<path d="M72490 77390
L72490 76800
" />
<path d="M72490 77360
L72440 77390
L72320 77390
L72270 77360
L72240 77340
L72210 77280
L72210 77110
L72240 77050
L72270 77030
L72320 77000
L72440 77000
L72490 77030
" />
<path d="M73220 77080
L73420 77080
" />
<path d="M73500 77390
L73220 77390
L73220 76800
L73500 76800
" />
<path d="M73760 77340
L73790 77360
L73760 77390
L73730 77360
L73760 77340
L73760 77390
" />
<path d="M74040 77390
L74040 76800
L74180 76800
L74260 76830
L74320 76890
L74350 76940
L74380 77050
L74380 77140
L74350 77250
L74320 77310
L74260 77360
L74180 77390
L74040 77390
" />
<path d="M74630 77340
L74660 77360
L74630 77390
L74600 77360
L74630 77340
L74630 77390
" />
<path d="M74880 77220
L75160 77220
" />
<path d="M74830 77390
L75020 76800
L75220 77390
" />
<path d="M75420 77340
L75440 77360
L75420 77390
L75390 77360
L75420 77340
L75420 77390
" />
<path d="M76600 77390
L76600 76800
" />
<path d="M76650 77170
L76820 77390
" />
<path d="M76820 77000
L76600 77220
" />
<path d="M77070 77390
L77070 77000
" />
<path d="M77070 76800
L77040 76830
L77070 76860
L77100 76830
L77070 76800
L77070 76860
" />
<path d="M77610 77360
L77550 77390
L77440 77390
L77380 77360
L77350 77340
L77330 77280
L77330 77110
L77350 77050
L77380 77030
L77440 77000
L77550 77000
L77610 77030
" />
<path d="M78110 77390
L78110 77080
L78080 77030
L78030 77000
L77920 77000
L77860 77030
" />
<path d="M78110 77360
L78060 77390
L77920 77390
L77860 77360
L77830 77310
L77830 77250
L77860 77200
L77920 77170
L78060 77170
L78110 77140
" />
<path d="M78650 77390
L78650 76800
" />
<path d="M78650 77360
L78590 77390
L78480 77390
L78420 77360
L78390 77340
L78370 77280
L78370 77110
L78390 77050
L78420 77030
L78480 77000
L78590 77000
L78650 77030
" />
<path d="M79550 77620
L79520 77590
L79460 77500
L79430 77450
L79400 77360
L79380 77220
L79380 77110
L79400 76970
L79430 76890
L79460 76830
L79520 76750
L79550 76720
" />
<path d="M80050 76800
L79770 76800
L79740 77080
L79770 77050
L79830 77030
L79970 77030
L80020 77050
L80050 77080
L80080 77140
L80080 77280
L80050 77340
L80020 77360
L79970 77390
L79830 77390
L79770 77360
L79740 77340
" />
<path d="M80330 77340
L80360 77360
L80330 77390
L80300 77360
L80330 77340
L80330 77390
" />
<path d="M80920 77390
L80580 77390
" />
<path d="M80750 77390
L80750 76800
L80700 76890
L80640 76940
L80580 76970
" />
<path d="M81170 77340
L81200 77360
L81170 77390
L81150 77360
L81170 77340
L81170 77390
" />
<path d="M81400 76800
L81790 76800
L81540 77390
" />
<path d="M82020 77170
L82470 77170
" />
<path d="M82860 76800
L82920 76800
L82970 76830
L83000 76860
L83030 76910
L83060 77030
L83060 77170
L83030 77280
L83000 77340
L82970 77360
L82920 77390
L82860 77390
L82800 77360
L82780 77340
L82750 77280
L82720 77170
L82720 77030
L82750 76910
L82780 76860
L82800 76830
L82860 76800
" />
<path d="M83310 77170
L83760 77170
" />
<path d="M84350 77390
L84010 77390
" />
<path d="M84180 77390
L84180 76800
L84120 76890
L84070 76940
L84010 76970
" />
<path d="M84710 76800
L84770 76800
L84830 76830
L84860 76860
L84880 76910
L84910 77030
L84910 77170
L84880 77280
L84860 77340
L84830 77360
L84770 77390
L84710 77390
L84660 77360
L84630 77340
L84600 77280
L84570 77170
L84570 77030
L84600 76910
L84630 76860
L84660 76830
L84710 76800
" />
<path d="M85020 77450
L85470 77450
" />
<path d="M85920 77390
L85590 77390
" />
<path d="M85750 77390
L85750 76800
L85700 76890
L85640 76940
L85590 76970
" />
<path d="M86430 77000
L86430 77390
" />
<path d="M86290 76770
L86150 77200
L86510 77200
" />
<path d="M86680 77620
L86710 77590
L86770 77500
L86790 77450
L86820 77360
L86850 77220
L86850 77110
L86820 76970
L86790 76890
L86770 76830
L86710 76750
L86680 76720
" />
</g>
<g style="fill:#840000; fill-opacity:0.0; 
stroke:#840000; stroke-width:100; stroke-opacity:1; 
stroke-linecap:round; stroke-linejoin:round;">
</g>
<g style="fill:#840000; fill-opacity:0.0; 
stroke:#840000; stroke-width:60; stroke-opacity:1; 
stroke-linecap:round; stroke-linejoin:round;">
<path d="M69690 75400
L112210 75400
" />
</g>
<g style="fill:#840000; fill-opacity:0.0; 
stroke:#840000; stroke-width:100; stroke-opacity:1; 
stroke-linecap:round; stroke-linejoin:round;">
</g>
<g style="fill:#840000; fill-opacity:0.0; 
stroke:#840000; stroke-width:120; stroke-opacity:1; 
stroke-linecap:round; stroke-linejoin:round;">
<text x="103540" y="76320"
textLength="2340" font-size="780" lengthAdjust="spacingAndGlyphs"
text-anchor="start" opacity="0">Rev: </text>
<path d="M104090 76290
L103890 76010
" />
<path d="M103750 76290
L103750 75700
L103980 75700
L104030 75730
L104060 75760
L104090 75810
L104090 75900
L104060 75950
L104030 75980
L103980 76010
L103750 76010
" />
<path d="M104570 76260
L104510 76290
L104400 76290
L104340 76260
L104320 76210
L104320 75980
L104340 75930
L104400 75900
L104510 75900
L104570 75930
L104600 75980
L104600 76040
L104320 76100
" />
<path d="M104790 75900
L104930 76290
L105070 75900
" />
<path d="M105300 76240
L105330 76260
L105300 76290
L105270 76260
L105300 76240
L105300 76290
" />
<path d="M105300 75930
L105330 75950
L105300 75980
L105270 75950
L105300 75930
L105300 75980
" />
</g>
<g style="fill:#840000; fill-opacity:0.0; 
stroke:#840000; stroke-width:100; stroke-opacity:1; 
stroke-linecap:round; stroke-linejoin:round;">
</g>
<g style="fill:#840000; fill-opacity:0.0; 
stroke:#840000; stroke-width:60; stroke-opacity:1; 
stroke-linecap:round; stroke-linejoin:round;">
<text x="70080" y="76320"
textLength="3780" font-size="780" lengthAdjust="spacingAndGlyphs"
text-anchor="start" opacity="0">Size: A4</text>
<path d="M70220 76260
L70300 76290
L70440 76290
L70500 76260
L70530 76240
L70550 76180
L70550 76120
L70530 76070
L70500 76040
L70440 76010
L70330 75980
L70270 75950
L70250 75930
L70220 75870
L70220 75810
L70250 75760
L70270 75730
L70330 75700
L70470 75700
L70550 75730
" />
<path d="M70810 76290
L70810 75900
" />
<path d="M70810 75700
L70780 75730
L70810 75760
L70840 75730
L70810 75700
L70810 75760
" />
<path d="M71030 75900
L71340 75900
L71030 76290
L71340 76290
" />
<path d="M71790 76260
L71730 76290
L71620 76290
L71570 76260
L71540 76210
L71540 75980
L71570 75930
L71620 75900
L71730 75900
L71790 75930
L71820 75980
L71820 76040
L71540 76100
" />
<path d="M72070 76240
L72100 76260
L72070 76290
L72040 76260
L72070 76240
L72070 76290
" />
<path d="M72070 75930
L72100 75950
L72070 75980
L72040 75950
L72070 75930
L72070 75980
" />
<path d="M72770 76120
L73060 76120
" />
<path d="M72720 76290
L72910 75700
L73110 76290
" />
<path d="M73560 75900
L73560 76290
" />
<path d="M73420 75670
L73280 76100
L73650 76100
" />
</g>
<g style="fill:#840000; fill-opacity:0.0; 
stroke:#840000; stroke-width:100; stroke-opacity:1; 
stroke-linecap:round; stroke-linejoin:round;">
</g>
<g style="fill:#840000; fill-opacity:0.0; 
stroke:#840000; stroke-width:60; stroke-opacity:1; 
stroke-linecap:round; stroke-linejoin:round;">
<text x="103540" y="77420"
textLength="3910" font-size="780" lengthAdjust="spacingAndGlyphs"
text-anchor="start" opacity="0">Id: 7/12</text>
<path d="M103710 77390
L103710 76800
" />
<path d="M104240 77390
L104240 76800
" />
<path d="M104240 77360
L104180 77390
L104070 77390
L104010 77360
L103990 77340
L103960 77280
L103960 77110
L103990 77050
L104010 77030
L104070 77000
L104180 77000
L104240 77030
" />
<path d="M104520 77340
L104550 77360
L104520 77390
L104490 77360
L104520 77340
L104520 77390
" />
<path d="M104520 77030
L104550 77050
L104520 77080
L104490 77050
L104520 77030
L104520 77080
" />
<path d="M105190 76800
L105590 76800
L105340 77390
" />
<path d="M106230 76770
L105730 77530
" />
<path d="M106740 77390
L106400 77390
" />
<path d="M106570 77390
L106570 76800
L106520 76890
L106460 76940
L106400 76970
" />
<path d="M106960 76860
L106990 76830
L107050 76800
L107190 76800
L107250 76830
L107270 76860
L107300 76910
L107300 76970
L107270 77050
L106940 77390
L107300 77390
" />
</g>
<g style="fill:#840000; fill-opacity:0.0; 
stroke:#840000; stroke-width:100; stroke-opacity:1; 
stroke-linecap:round; stroke-linejoin:round;">
</g>
<g style="fill:#840000; fill-opacity:0.0; 
stroke:#840000; stroke-width:60; stroke-opacity:1; 
stroke-linecap:round; stroke-linejoin:round;">
<path d="M69690 73820
L112210 73820
" />
</g>
<g style="fill:#840000; fill-opacity:0.0; 
stroke:#840000; stroke-width:100; stroke-opacity:1; 
stroke-linecap:round; stroke-linejoin:round;">
</g>
<g style="fill:#840000; fill-opacity:0.0; 
stroke:#840000; stroke-width:160; stroke-opacity:1; 
stroke-linecap:round; stroke-linejoin:round;">
<text x="70080" y="74920"
textLength="3710" font-size="1050" lengthAdjust="spacingAndGlyphs"
text-anchor="start" opacity="0">Title: </text>
<path d="M70360 74090
L70810 74090
" />
<path d="M70480 74880
L70580 74090
" />
<path d="M70970 74880
L71040 74360
" />
<path d="M71070 74090
L71030 74130
L71060 74170
L71110 74130
L71070 74090
L71060 74170
" />
<path d="M71300 74360
L71600 74360
" />
<path d="M71450 74090
L71360 74770
L71390 74840
L71460 74880
L71540 74880
" />
<path d="M71910 74880
L71840 74840
L71820 74770
L71900 74090
" />
<path d="M72520 74840
L72440 74880
L72290 74880
L72220 74840
L72190 74770
L72230 74470
L72280 74390
L72360 74360
L72510 74360
L72580 74390
L72610 74470
L72600 74540
L72210 74620
" />
<path d="M72900 74810
L72930 74840
L72890 74880
L72860 74840
L72900 74810
L72890 74880
" />
<path d="M72950 74390
L72990 74430
L72940 74470
L72910 74430
L72950 74390
L72940 74470
" />
</g>
<g style="fill:#840000; fill-opacity:0.0; 
stroke:#840000; stroke-width:100; stroke-opacity:1; 
stroke-linecap:round; stroke-linejoin:round;">
</g>
<g style="fill:#840000; fill-opacity:0.0; 
stroke:#840000; stroke-width:60; stroke-opacity:1; 
stroke-linecap:round; stroke-linejoin:round;">
<text x="70080" y="73400"
textLength="9480" font-size="780" lengthAdjust="spacingAndGlyphs"
text-anchor="start" opacity="0">File: SignalRelay.sch</text>
<path d="M70440 73060
L70250 73060
" />
<path d="M70250 73370
L70250 72780
L70530 72780
" />
<path d="M70750 73370
L70750 72980
" />
<path d="M70750 72780
L70720 72810
L70750 72840
L70780 72810
L70750 72780
L70750 72840
" />
<path d="M71120 73370
L71060 73340
L71030 73290
L71030 72780
" />
<path d="M71570 73340
L71510 73370
L71400 73370
L71340 73340
L71310 73290
L71310 73060
L71340 73010
L71400 72980
L71510 72980
L71570 73010
L71590 73060
L71590 73120
L71310 73180
" />
<path d="M71850 73320
L71880 73340
L71850 73370
L71820 73340
L71850 73320
L71850 73370
" />
<path d="M71850 73010
L71880 73030
L71850 73060
L71820 73030
L71850 73010
L71850 73060
" />
<path d="M72550 73340
L72630 73370
L72770 73370
L72830 73340
L72860 73320
L72890 73260
L72890 73200
L72860 73150
L72830 73120
L72770 73090
L72660 73060
L72610 73030
L72580 73010
L72550 72950
L72550 72890
L72580 72840
L72610 72810
L72660 72780
L72800 72780
L72890 72810
" />
<path d="M73140 73370
L73140 72980
" />
<path d="M73140 72780
L73110 72810
L73140 72840
L73170 72810
L73140 72780
L73140 72840
" />
<path d="M73670 72980
L73670 73460
L73650 73510
L73620 73540
L73560 73570
L73480 73570
L73420 73540
" />
<path d="M73670 73340
L73620 73370
L73500 73370
L73450 73340
L73420 73320
L73390 73260
L73390 73090
L73420 73030
L73450 73010
L73500 72980
L73620 72980
L73670 73010
" />
<path d="M73950 72980
L73950 73370
" />
<path d="M73950 73030
L73980 73010
L74040 72980
L74120 72980
L74180 73010
L74210 73060
L74210 73370
" />
<path d="M74740 73370
L74740 73060
L74710 73010
L74660 72980
L74540 72980
L74490 73010
" />
<path d="M74740 73340
L74680 73370
L74540 73370
L74490 73340
L74460 73290
L74460 73230
L74490 73180
L74540 73150
L74680 73150
L74740 73120
" />
<path d="M75110 73370
L75050 73340
L75020 73290
L75020 72780
" />
<path d="M75670 73370
L75470 73090
" />
<path d="M75330 73370
L75330 72780
L75560 72780
L75610 72810
L75640 72840
L75670 72890
L75670 72980
L75640 73030
L75610 73060
L75560 73090
L75330 73090
" />
<path d="M76150 73340
L76090 73370
L75980 73370
L75920 73340
L75890 73290
L75890 73060
L75920 73010
L75980 72980
L76090 72980
L76150 73010
L76170 73060
L76170 73120
L75890 73180
" />
<path d="M76510 73370
L76450 73340
L76430 73290
L76430 72780
" />
<path d="M76990 73370
L76990 73060
L76960 73010
L76900 72980
L76790 72980
L76740 73010
" />
<path d="M76990 73340
L76930 73370
L76790 73370
L76740 73340
L76710 73290
L76710 73230
L76740 73180
L76790 73150
L76930 73150
L76990 73120
" />
<path d="M77210 72980
L77350 73370
" />
<path d="M77490 72980
L77350 73370
L77300 73510
L77270 73540
L77210 73570
" />
<path d="M77720 73320
L77750 73340
L77720 73370
L77690 73340
L77720 73320
L77720 73370
" />
<path d="M77970 73340
L78030 73370
L78140 73370
L78200 73340
L78220 73290
L78220 73260
L78200 73200
L78140 73180
L78060 73180
L78000 73150
L77970 73090
L77970 73060
L78000 73010
L78060 72980
L78140 72980
L78200 73010
" />
<path d="M78730 73340
L78670 73370
L78560 73370
L78510 73340
L78480 73320
L78450 73260
L78450 73090
L78480 73030
L78510 73010
L78560 72980
L78670 72980
L78730 73010
" />
<path d="M78980 73370
L78980 72780
" />
<path d="M79240 73370
L79240 73060
L79210 73010
L79150 72980
L79070 72980
L79010 73010
L78980 73030
" />
</g>
<g style="fill:#840000; fill-opacity:0.0; 
stroke:#840000; stroke-width:100; stroke-opacity:1; 
stroke-linecap:round; stroke-linejoin:round;">
</g>
<g style="fill:#840000; fill-opacity:0.0; 
stroke:#840000; stroke-width:60; stroke-opacity:1; 
stroke-linecap:round; stroke-linejoin:round;">
<path d="M69690 71460
L112210 71460
" />
</g>
<g style="fill:#840000; fill-opacity:0.0; 
stroke:#840000; stroke-width:100; stroke-opacity:1; 
stroke-linecap:round; stroke-linejoin:round;">
</g>
<g style="fill:#840000; fill-opacity:0.0; 
stroke:#840000; stroke-width:60; stroke-opacity:1; 
stroke-linecap:round; stroke-linejoin:round;">
<text x="70080" y="72340"
textLength="9610" font-size="780" lengthAdjust="spacingAndGlyphs"
text-anchor="start" opacity="0">Sheet: /SignalRelay/</text>
<path d="M70220 72280
L70300 72310
L70440 72310
L70500 72280
L70530 72260
L70550 72200
L70550 72140
L70530 72090
L70500 72060
L70440 72030
L70330 72000
L70270 71970
L70250 71950
L70220 71890
L70220 71830
L70250 71780
L70270 71750
L70330 71720
L70470 71720
L70550 71750
" />
<path d="M70810 72310
L70810 71720
" />
<path d="M71060 72310
L71060 72000
L71030 71950
L70980 71920
L70890 71920
L70840 71950
L70810 71970
" />
<path d="M71570 72280
L71510 72310
L71400 72310
L71340 72280
L71310 72230
L71310 72000
L71340 71950
L71400 71920
L71510 71920
L71570 71950
L71590 72000
L71590 72060
L71310 72120
" />
<path d="M72070 72280
L72020 72310
L71900 72310
L71850 72280
L71820 72230
L71820 72000
L71850 71950
L71900 71920
L72020 71920
L72070 71950
L72100 72000
L72100 72060
L71820 72120
" />
<path d="M72270 71920
L72490 71920
" />
<path d="M72350 71720
L72350 72230
L72380 72280
L72440 72310
L72490 72310
" />
<path d="M72690 72260
L72720 72280
L72690 72310
L72660 72280
L72690 72260
L72690 72310
" />
<path d="M72690 71950
L72720 71970
L72690 72000
L72660 71970
L72690 71950
L72690 72000
" />
<path d="M73840 71690
L73340 72450
" />
<path d="M74010 72280
L74090 72310
L74240 72310
L74290 72280
L74320 72260
L74350 72200
L74350 72140
L74320 72090
L74290 72060
L74240 72030
L74120 72000
L74070 71970
L74040 71950
L74010 71890
L74010 71830
L74040 71780
L74070 71750
L74120 71720
L74260 71720
L74350 71750
" />
<path d="M74600 72310
L74600 71920
" />
<path d="M74600 71720
L74570 71750
L74600 71780
L74630 71750
L74600 71720
L74600 71780
" />
<path d="M75130 71920
L75130 72400
L75110 72450
L75080 72480
L75020 72510
L74940 72510
L74880 72480
" />
<path d="M75130 72280
L75080 72310
L74970 72310
L74910 72280
L74880 72260
L74850 72200
L74850 72030
L74880 71970
L74910 71950
L74970 71920
L75080 71920
L75130 71950
" />
<path d="M75420 71920
L75420 72310
" />
<path d="M75420 71970
L75440 71950
L75500 71920
L75580 71920
L75640 71950
L75670 72000
L75670 72310
" />
<path d="M76200 72310
L76200 72000
L76170 71950
L76120 71920
L76010 71920
L75950 71950
" />
<path d="M76200 72280
L76150 72310
L76010 72310
L75950 72280
L75920 72230
L75920 72170
L75950 72120
L76010 72090
L76150 72090
L76200 72060
" />
<path d="M76570 72310
L76510 72280
L76480 72230
L76480 71720
" />
<path d="M77130 72310
L76930 72030
" />
<path d="M76790 72310
L76790 71720
L77020 71720
L77070 71750
L77100 71780
L77130 71830
L77130 71920
L77100 71970
L77070 72000
L77020 72030
L76790 72030
" />
<path d="M77610 72280
L77550 72310
L77440 72310
L77380 72280
L77350 72230
L77350 72000
L77380 71950
L77440 71920
L77550 71920
L77610 71950
L77630 72000
L77630 72060
L77350 72120
" />
<path d="M77970 72310
L77920 72280
L77890 72230
L77890 71720
" />
<path d="M78450 72310
L78450 72000
L78420 71950
L78370 71920
L78250 71920
L78200 71950
" />
<path d="M78450 72280
L78390 72310
L78250 72310
L78200 72280
L78170 72230
L78170 72170
L78200 72120
L78250 72090
L78390 72090
L78450 72060
" />
<path d="M78670 71920
L78810 72310
" />
<path d="M78960 71920
L78810 72310
L78760 72450
L78730 72480
L78670 72510
" />
<path d="M79600 71690
L79100 72450
" />
</g>
<g style="fill:#840000; fill-opacity:0.0; 
stroke:#840000; stroke-width:100; stroke-opacity:1; 
stroke-linecap:round; stroke-linejoin:round;">
</g>
<g style="fill:#840000; fill-opacity:0.0; 
stroke:#840000; stroke-width:60; stroke-opacity:1; 
stroke-linecap:round; stroke-linejoin:round;">
<path d="M77560 75400
L77560 76580
" />
</g>
<g style="fill:#840000; fill-opacity:0.0; 
stroke:#840000; stroke-width:100; stroke-opacity:1; 
stroke-linecap:round; stroke-linejoin:round;">
</g>
<g style="fill:#840000; fill-opacity:0.0; 
stroke:#840000; stroke-width:60; stroke-opacity:1; 
stroke-linecap:round; stroke-linejoin:round;">
<path d="M102760 75400
L102760 77960
" />
</g>
<g style="fill:#840000; fill-opacity:0.0; 
stroke:#840000; stroke-width:0; stroke-opacity:1; 
stroke-linecap:round; stroke-linejoin:round;">
<g >
</g>
<g style="fill:#840000; fill-opacity:0.0; 
stroke:#840000; stroke-width:60; stroke-opacity:1; 
stroke-linecap:round; stroke-linejoin:round;">
<path d="M50150.4 25050.6 A890 890 0.0 0 0 49049.6 25050.6" />
<circle cx="48950" cy="25250" r="200" /> 
<circle cx="50250" cy="25250" r="200" /> 
<circle cx="51550" cy="25250" r="200" /> 
<path style="fill:#840000; fill-opacity:0.0; 
stroke:#840000; stroke-width:60; stroke-opacity:1; 
stroke-linecap:round; stroke-linejoin:round;fill:none"
d="M 50250,25750
50250,25450
" /> 
<path d="M48750 25250
L47750 25250
" />
<text x="48250" y="25850"
textLength="540" font-size="660" lengthAdjust="spacingAndGlyphs"
text-anchor="middle" opacity="0">1</text>
<path d="M48390 25820
L48100 25820
" />
<path d="M48250 25820
L48250 25320
L48200 25390
L48150 25440
L48100 25460
" />
<path d="M50250 25750
L50250 26750
" />
<g transform="rotate(-90 50350 26250)">
<text x="50350" y="26750"
textLength="540" font-size="660" lengthAdjust="spacingAndGlyphs"
text-anchor="middle" opacity="0">2</text>
</g>
<path d="M50370 26390
L50350 26360
L50320 26320
L50320 26200
L50350 26150
L50370 26130
L50420 26100
L50460 26100
L50540 26130
L50820 26410
L50820 26100
" />
<path d="M51750 25250
L52750 25250
" />
<text x="52250" y="25850"
textLength="540" font-size="660" lengthAdjust="spacingAndGlyphs"
text-anchor="middle" opacity="0">3</text>
<path d="M52080 25320
L52390 25320
L52220 25510
L52290 25510
L52340 25540
L52360 25560
L52390 25610
L52390 25730
L52360 25770
L52340 25800
L52290 25820
L52150 25820
L52100 25800
L52080 25770
" />
</g>
<g style="fill:#008484; fill-opacity:0.0; 
stroke:#008484; stroke-width:60; stroke-opacity:1; 
stroke-linecap:round; stroke-linejoin:round;">
<text x="50250" y="24390"
textLength="1420" font-size="660" lengthAdjust="spacingAndGlyphs"
text-anchor="middle" opacity="0">JP2</text>
<path d="M49830 23860
L49830 24220
L49800 24290
L49760 24340
L49690 24360
L49640 24360
" />
<path d="M50070 24360
L50070 23860
L50260 23860
L50300 23890
L50330 23910
L50350 23960
L50350 24030
L50330 24080
L50300 24100
L50260 24120
L50070 24120
" />
<path d="M50540 23910
L50570 23890
L50610 23860
L50730 23860
L50780 23890
L50800 23910
L50830 23960
L50830 24000
L50800 24080
L50520 24360
L50830 24360
" />
</g>
</g>
<g style="fill:#008484; fill-opacity:0.0; 
stroke:#008484; stroke-width:0; stroke-opacity:1; 
stroke-linecap:round; stroke-linejoin:round;">
<g >
</g>
<g style="fill:#840000; fill-opacity:0.0; 
stroke:#840000; stroke-width:0; stroke-opacity:1; 
stroke-linecap:round; stroke-linejoin:round;">
</g>
<g style="fill:#840000; fill-opacity:0.0; 
stroke:#840000; stroke-width:60; stroke-opacity:1; 
stroke-linecap:round; stroke-linejoin:round;">
<path style="fill:#840000; fill-opacity:0.0; 
stroke:#840000; stroke-width:60; stroke-opacity:1; 
stroke-linecap:round; stroke-linejoin:round;fill:none"
d="M 46950,22000
47250,21500
" /> 
<path style="fill:#840000; fill-opacity:0.0; 
stroke:#840000; stroke-width:60; stroke-opacity:1; 
stroke-linecap:round; stroke-linejoin:round;fill:none"
d="M 47250,22500
47250,21500
" /> 
<path style="fill:#840000; fill-opacity:0.0; 
stroke:#840000; stroke-width:60; stroke-opacity:1; 
stroke-linecap:round; stroke-linejoin:round;fill:none"
d="M 47250,21500
47550,22000
" /> 
</g>
<g style="fill:#008484; fill-opacity:0.0; 
stroke:#008484; stroke-width:60; stroke-opacity:1; 
stroke-linecap:round; stroke-linejoin:round;">
<text x="47400" y="21040"
textLength="2300" font-size="660" lengthAdjust="spacingAndGlyphs"
text-anchor="middle" opacity="0">+3.3V</text>
<path d="M46400 20820
L46780 20820
" />
<path d="M46590 21010
L46590 20630
" />
<path d="M46970 20510
L47280 20510
L47110 20700
L47180 20700
L47230 20730
L47250 20750
L47280 20800
L47280 20920
L47250 20960
L47230 20990
L47180 21010
L47040 21010
L46990 20990
L46970 20960
" />
<path d="M47490 20960
L47510 20990
L47490 21010
L47470 20990
L47490 20960
L47490 21010
" />
<path d="M47680 20510
L47990 20510
L47820 20700
L47900 20700
L47940 20730
L47970 20750
L47990 20800
L47990 20920
L47970 20960
L47940 20990
L47900 21010
L47750 21010
L47700 20990
L47680 20960
" />
<path d="M48130 20510
L48300 21010
L48470 20510
" />
</g>
</g>
<g style="fill:#008484; fill-opacity:0.0; 
stroke:#008484; stroke-width:0; stroke-opacity:1; 
stroke-linecap:round; stroke-linejoin:round;">
<g >
</g>
<g style="fill:#840000; fill-opacity:0.0; 
stroke:#840000; stroke-width:0; stroke-opacity:1; 
stroke-linecap:round; stroke-linejoin:round;">
</g>
<g style="fill:#840000; fill-opacity:0.0; 
stroke:#840000; stroke-width:60; stroke-opacity:1; 
stroke-linecap:round; stroke-linejoin:round;">
<path style="fill:#840000; fill-opacity:0.0; 
stroke:#840000; stroke-width:60; stroke-opacity:1; 
stroke-linecap:round; stroke-linejoin:round;fill:none"
d="M 52950,22000
53250,21500
" /> 
<path style="fill:#840000; fill-opacity:0.0; 
stroke:#840000; stroke-width:60; stroke-opacity:1; 
stroke-linecap:round; stroke-linejoin:round;fill:none"
d="M 53250,22500
53250,21500
" /> 
<path style="fill:#840000; fill-opacity:0.0; 
stroke:#840000; stroke-width:60; stroke-opacity:1; 
stroke-linecap:round; stroke-linejoin:round;fill:none"
d="M 53250,21500
53550,22000
" /> 
</g>
<g style="fill:#008484; fill-opacity:0.0; 
stroke:#008484; stroke-width:60; stroke-opacity:1; 
stroke-linecap:round; stroke-linejoin:round;">
<text x="53400" y="21040"
textLength="1580" font-size="660" lengthAdjust="spacingAndGlyphs"
text-anchor="middle" opacity="0">+5V</text>
<path d="M52750 20820
L53130 20820
" />
<path d="M52940 21010
L52940 20630
" />
<path d="M53610 20510
L53370 20510
L53350 20750
L53370 20730
L53420 20700
L53540 20700
L53590 20730
L53610 20750
L53630 20800
L53630 20920
L53610 20960
L53590 20990
L53540 21010
L53420 21010
L53370 20990
L53350 20960
" />
<path d="M53780 20510
L53940 21010
L54110 20510
" />
</g>
</g>
<g style="fill:#008484; fill-opacity:0.0; 
stroke:#008484; stroke-width:0; stroke-opacity:1; 
stroke-linecap:round; stroke-linejoin:round;">
<g >
</g>
<g style="fill:#840000; fill-opacity:0.0; 
stroke:#840000; stroke-width:0; stroke-opacity:1; 
stroke-linecap:round; stroke-linejoin:round;">
</g>
<g style="fill:#840000; fill-opacity:0.0; 
stroke:#840000; stroke-width:100; stroke-opacity:1; 
stroke-linecap:round; stroke-linejoin:round;">
<circle cx="49900" cy="30000" r="1100" /> 
</g>
<g style="fill:#840000; fill-opacity:1.0; 
stroke:#840000; stroke-width:60; stroke-opacity:1; 
stroke-linecap:round; stroke-linejoin:round;">
<circle cx="50250" cy="30700" r="100" /> 
<circle cx="50250" cy="29300" r="100" /> 
</g>
<g style="fill:#840000; fill-opacity:0.0; 
stroke:#840000; stroke-width:60; stroke-opacity:1; 
stroke-linecap:round; stroke-linejoin:round;">
<path style="fill:#840000; fill-opacity:0.0; 
stroke:#840000; stroke-width:60; stroke-opacity:1; 
stroke-linecap:round; stroke-linejoin:round;fill:none"
d="M 49350,30000
48250,30000
" /> 
</g>
<g style="fill:#840000; fill-opacity:0.0; 
stroke:#840000; stroke-width:100; stroke-opacity:1; 
stroke-linecap:round; stroke-linejoin:round;">
<path style="fill:#840000; fill-opacity:0.0; 
stroke:#840000; stroke-width:100; stroke-opacity:1; 
stroke-linecap:round; stroke-linejoin:round;fill:none"
d="M 49350,29250
49350,30750
" /> 
<path style="fill:#840000; fill-opacity:0.0; 
stroke:#840000; stroke-width:100; stroke-opacity:1; 
stroke-linecap:round; stroke-linejoin:round;fill:none"
d="M 49550,30500
49550,30900
" /> 
<path style="fill:#840000; fill-opacity:0.0; 
stroke:#840000; stroke-width:100; stroke-opacity:1; 
stroke-linecap:round; stroke-linejoin:round;fill:none"
d="M 49550,29800
49550,30200
" /> 
<path style="fill:#840000; fill-opacity:0.0; 
stroke:#840000; stroke-width:100; stroke-opacity:1; 
stroke-linecap:round; stroke-linejoin:round;fill:none"
d="M 49550,29100
49550,29500
" /> 
</g>
<g style="fill:#840000; fill-opacity:0.0; 
stroke:#840000; stroke-width:60; stroke-opacity:1; 
stroke-linecap:round; stroke-linejoin:round;">
<path style="fill:#840000; fill-opacity:0.0; 
stroke:#840000; stroke-width:60; stroke-opacity:1; 
stroke-linecap:round; stroke-linejoin:round;fill:none"
d="M 50250,29000
50250,29300
" /> 
<path style="fill:#840000; fill-opacity:0.0; 
stroke:#840000; stroke-width:60; stroke-opacity:1; 
stroke-linecap:round; stroke-linejoin:round;fill:none"
d="M 50250,31000
50250,30000
49550,30000
" /> 
<path style="fill:#840000; fill-opacity:0.0; 
stroke:#840000; stroke-width:60; stroke-opacity:1; 
stroke-linecap:round; stroke-linejoin:round;fill:none"
d="M 49550,30700
50550,30700
50550,29300
49550,29300
" /> 
</g>
<g style="fill:#840000; fill-opacity:1.0; 
stroke:#840000; stroke-width:60; stroke-opacity:1; 
stroke-linecap:round; stroke-linejoin:round;">
<path style="fill:#840000; fill-opacity:1.0; 
stroke:#840000; stroke-width:60; stroke-opacity:1; 
stroke-linecap:round; stroke-linejoin:round;fill-rule:evenodd;"
d="M 49650,30000
50050,29850
50050,30150
Z" /> 
</g>
<g style="fill:#840000; fill-opacity:0.0; 
stroke:#840000; stroke-width:60; stroke-opacity:1; 
stroke-linecap:round; stroke-linejoin:round;">
<path style="fill:#840000; fill-opacity:0.0; 
stroke:#840000; stroke-width:60; stroke-opacity:1; 
stroke-linecap:round; stroke-linejoin:round;fill:none"
d="M 50350,29800
50400,29850
50700,29850
50750,29900
" /> 
<path style="fill:#840000; fill-opacity:0.0; 
stroke:#840000; stroke-width:60; stroke-opacity:1; 
stroke-linecap:round; stroke-linejoin:round;fill:none"
d="M 50550,29850
50400,30100
50700,30100
Z" /> 
<path d="M48250 30000
L47250 30000
" />
<text x="47750" y="30600"
textLength="540" font-size="660" lengthAdjust="spacingAndGlyphs"
text-anchor="middle" opacity="0">1</text>
<path d="M47890 30570
L47600 30570
" />
<path d="M47750 30570
L47750 30070
L47700 30140
L47650 30190
L47600 30210
" />
<path d="M50250 31000
L50250 32000
" />
<g transform="rotate(-90 50350 31500)">
<text x="50350" y="32000"
textLength="540" font-size="660" lengthAdjust="spacingAndGlyphs"
text-anchor="middle" opacity="0">2</text>
</g>
<path d="M50370 31640
L50350 31610
L50320 31570
L50320 31450
L50350 31400
L50370 31380
L50420 31350
L50460 31350
L50540 31380
L50820 31660
L50820 31350
" />
<path d="M50250 29000
L50250 28000
" />
<g transform="rotate(-90 50350 28500)">
<text x="50350" y="29000"
textLength="540" font-size="660" lengthAdjust="spacingAndGlyphs"
text-anchor="middle" opacity="0">3</text>
</g>
<path d="M50320 28660
L50320 28350
L50510 28520
L50510 28450
L50540 28400
L50560 28380
L50610 28350
L50730 28350
L50770 28380
L50800 28400
L50820 28450
L50820 28590
L50800 28640
L50770 28660
" />
</g>
<g style="fill:#008484; fill-opacity:0.0; 
stroke:#008484; stroke-width:60; stroke-opacity:1; 
stroke-linecap:round; stroke-linejoin:round;">
<text x="43780" y="28770"
textLength="1060" font-size="660" lengthAdjust="spacingAndGlyphs"
text-anchor="middle" opacity="0">Q1</text>
<path d="M43730 28790
L43680 28770
L43630 28720
L43560 28650
L43510 28620
L43470 28620
" />
<path d="M43490 28740
L43440 28720
L43390 28670
L43370 28570
L43370 28410
L43390 28310
L43440 28270
L43490 28240
L43580 28240
L43630 28270
L43680 28310
L43700 28410
L43700 28570
L43680 28670
L43630 28720
L43580 28740
L43490 28740
" />
<path d="M44180 28740
L43890 28740
" />
<path d="M44040 28740
L44040 28240
L43990 28310
L43940 28360
L43890 28380
" />
<text x="45030" y="29770"
textLength="4060" font-size="660" lengthAdjust="spacingAndGlyphs"
text-anchor="middle" opacity="0">DMG2302U</text>
<path d="M43140 29740
L43140 29240
L43260 29240
L43330 29270
L43380 29310
L43410 29360
L43430 29460
L43430 29530
L43410 29620
L43380 29670
L43330 29720
L43260 29740
L43140 29740
" />
<path d="M43640 29740
L43640 29240
L43810 29600
L43980 29240
L43980 29740
" />
<path d="M44480 29270
L44430 29240
L44360 29240
L44290 29270
L44240 29310
L44220 29360
L44190 29460
L44190 29530
L44220 29620
L44240 29670
L44290 29720
L44360 29740
L44410 29740
L44480 29720
L44500 29690
L44500 29530
L44410 29530
" />
<path d="M44690 29290
L44720 29270
L44760 29240
L44880 29240
L44930 29270
L44950 29290
L44980 29340
L44980 29380
L44950 29460
L44670 29740
L44980 29740
" />
<path d="M45140 29240
L45450 29240
L45290 29430
L45360 29430
L45410 29460
L45430 29480
L45450 29530
L45450 29650
L45430 29690
L45410 29720
L45360 29740
L45220 29740
L45170 29720
L45140 29690
" />
<path d="M45760 29240
L45810 29240
L45860 29270
L45880 29290
L45910 29340
L45930 29430
L45930 29550
L45910 29650
L45880 29690
L45860 29720
L45810 29740
L45760 29740
L45720 29720
L45690 29690
L45670 29650
L45640 29550
L45640 29430
L45670 29340
L45690 29290
L45720 29270
L45760 29240
" />
<path d="M46120 29290
L46140 29270
L46190 29240
L46310 29240
L46360 29270
L46380 29290
L46410 29340
L46410 29380
L46380 29460
L46100 29740
L46410 29740
" />
<path d="M46620 29240
L46620 29650
L46640 29690
L46670 29720
L46720 29740
L46810 29740
L46860 29720
L46880 29690
L46910 29650
L46910 29240
" />
</g>
</g>
<g style="fill:#008484; fill-opacity:0.0; 
stroke:#008484; stroke-width:0; stroke-opacity:1; 
stroke-linecap:round; stroke-linejoin:round;">
<g >
</g>
<g style="fill:#840000; fill-opacity:0.0; 
stroke:#840000; stroke-width:0; stroke-opacity:1; 
stroke-linecap:round; stroke-linejoin:round;">
</g>
<g style="fill:#FFFFC2; fill-opacity:0.0; 
stroke:#FFFFC2; stroke-width:0; stroke-opacity:1; 
stroke-linecap:round; stroke-linejoin:round;">
</g>
<g style="fill:#FFFFC2; fill-opacity:0.6; 
stroke:#FFFFC2; stroke-width:0; stroke-opacity:1; 
stroke-linecap:round; stroke-linejoin:round;">
<rect x="48250" y="36250" width="12000" height="4000" rx="0" />
</g>
<g style="fill:#840000; fill-opacity:0.6; 
stroke:#840000; stroke-width:0; stroke-opacity:1; 
stroke-linecap:round; stroke-linejoin:round;">
</g>
<g style="fill:#840000; fill-opacity:0.0; 
stroke:#840000; stroke-width:100; stroke-opacity:1; 
stroke-linecap:round; stroke-linejoin:round;">
<rect x="48250" y="36250" width="12000" height="4000" rx="0" />
</g>
<g style="fill:#840000; fill-opacity:0.0; 
stroke:#840000; stroke-width:60; stroke-opacity:1; 
stroke-linecap:round; stroke-linejoin:round;">
<text x="50600" y="37370"
textLength="680" font-size="660" lengthAdjust="spacingAndGlyphs"
text-anchor="middle" opacity="0">+</text>
<path d="M50400 37150
L50790 37150
" />
<path d="M50600 37340
L50600 36960
" />
</g>
<g style="fill:#840000; fill-opacity:0.0; 
stroke:#840000; stroke-width:100; stroke-opacity:1; 
stroke-linecap:round; stroke-linejoin:round;">
<rect x="48250" y="36250" width="12000" height="4000" rx="0" />
<rect x="49000" y="37500" width="2500" height="1500" rx="0" />
<path style="fill:#840000; fill-opacity:0.0; 
stroke:#840000; stroke-width:100; stroke-opacity:1; 
stroke-linecap:round; stroke-linejoin:round;fill:none"
d="M 49250,39000
51250,37500
" /> 
</g>
<g style="fill:#840000; fill-opacity:0.0; 
stroke:#840000; stroke-width:60; stroke-opacity:1; 
stroke-linecap:round; stroke-linejoin:round;">
<path style="fill:#840000; fill-opacity:0.0; 
stroke:#840000; stroke-width:60; stroke-opacity:1; 
stroke-linecap:round; stroke-linejoin:round;fill:none"
d="M 50250,40250
50250,39000
" /> 
<path style="fill:#840000; fill-opacity:0.0; 
stroke:#840000; stroke-width:60; stroke-opacity:1; 
stroke-linecap:round; stroke-linejoin:round;fill:none"
d="M 50250,36250
50250,37500
" /> 
</g>
<g style="fill:#840000; fill-opacity:0.0; 
stroke:#840000; stroke-width:100; stroke-opacity:1; 
stroke-linecap:round; stroke-linejoin:round;">
<path style="fill:#840000; fill-opacity:0.0; 
stroke:#840000; stroke-width:100; stroke-opacity:1; 
stroke-linecap:round; stroke-linejoin:round;fill:none"
d="M 51500,38250
51750,38250
" /> 
<path style="fill:#840000; fill-opacity:0.0; 
stroke:#840000; stroke-width:100; stroke-opacity:1; 
stroke-linecap:round; stroke-linejoin:round;fill:none"
d="M 52000,38250
52250,38250
" /> 
<path style="fill:#840000; fill-opacity:0.0; 
stroke:#840000; stroke-width:100; stroke-opacity:1; 
stroke-linecap:round; stroke-linejoin:round;fill:none"
d="M 52500,38250
52750,38250
" /> 
<path style="fill:#840000; fill-opacity:0.0; 
stroke:#840000; stroke-width:100; stroke-opacity:1; 
stroke-linecap:round; stroke-linejoin:round;fill:none"
d="M 53000,38250
53250,38250
" /> 
<path style="fill:#840000; fill-opacity:0.0; 
stroke:#840000; stroke-width:100; stroke-opacity:1; 
stroke-linecap:round; stroke-linejoin:round;fill:none"
d="M 53500,38250
53750,38250
" /> 
<path style="fill:#840000; fill-opacity:0.0; 
stroke:#840000; stroke-width:100; stroke-opacity:1; 
stroke-linecap:round; stroke-linejoin:round;fill:none"
d="M 54000,38250
54250,38250
" /> 
</g>
<g style="fill:#840000; fill-opacity:0.0; 
stroke:#840000; stroke-width:200; stroke-opacity:1; 
stroke-linecap:round; stroke-linejoin:round;">
<path style="fill:#840000; fill-opacity:0.0; 
stroke:#840000; stroke-width:200; stroke-opacity:1; 
stroke-linecap:round; stroke-linejoin:round;fill:none"
d="M 54250,39250
53500,36750
" /> 
</g>
<g style="fill:#840000; fill-opacity:0.0; 
stroke:#840000; stroke-width:60; stroke-opacity:1; 
stroke-linecap:round; stroke-linejoin:round;">
<path style="fill:#840000; fill-opacity:0.0; 
stroke:#840000; stroke-width:60; stroke-opacity:1; 
stroke-linecap:round; stroke-linejoin:round;fill:none"
d="M 54250,39250
54250,40250
" /> 
</g>
<g style="fill:#840000; fill-opacity:0.0; 
stroke:#840000; stroke-width:100; stroke-opacity:1; 
stroke-linecap:round; stroke-linejoin:round;">
<path style="fill:#840000; fill-opacity:0.0; 
stroke:#840000; stroke-width:100; stroke-opacity:1; 
stroke-linecap:round; stroke-linejoin:round;fill:none"
d="M 54500,38250
54750,38250
" /> 
<path style="fill:#840000; fill-opacity:0.0; 
stroke:#840000; stroke-width:100; stroke-opacity:1; 
stroke-linecap:round; stroke-linejoin:round;fill:none"
d="M 55000,38250
55250,38250
" /> 
<path style="fill:#840000; fill-opacity:0.0; 
stroke:#840000; stroke-width:100; stroke-opacity:1; 
stroke-linecap:round; stroke-linejoin:round;fill:none"
d="M 55500,38250
55750,38250
" /> 
<path style="fill:#840000; fill-opacity:0.0; 
stroke:#840000; stroke-width:100; stroke-opacity:1; 
stroke-linecap:round; stroke-linejoin:round;fill:none"
d="M 56000,38250
56250,38250
" /> 
<path style="fill:#840000; fill-opacity:0.0; 
stroke:#840000; stroke-width:100; stroke-opacity:1; 
stroke-linecap:round; stroke-linejoin:round;fill:none"
d="M 56500,38250
56750,38250
" /> 
<path style="fill:#840000; fill-opacity:0.0; 
stroke:#840000; stroke-width:100; stroke-opacity:1; 
stroke-linecap:round; stroke-linejoin:round;fill:none"
d="M 57000,38250
57250,38250
" /> 
<path style="fill:#840000; fill-opacity:0.0; 
stroke:#840000; stroke-width:100; stroke-opacity:1; 
stroke-linecap:round; stroke-linejoin:round;fill:none"
d="M 57500,38250
57750,38250
" /> 
</g>
<g style="fill:#840000; fill-opacity:0.0; 
stroke:#840000; stroke-width:200; stroke-opacity:1; 
stroke-linecap:round; stroke-linejoin:round;">
<path style="fill:#840000; fill-opacity:0.0; 
stroke:#840000; stroke-width:200; stroke-opacity:1; 
stroke-linecap:round; stroke-linejoin:round;fill:none"
d="M 58250,39250
57500,36750
" /> 
</g>
<g style="fill:#840000; fill-opacity:0.0; 
stroke:#840000; stroke-width:60; stroke-opacity:1; 
stroke-linecap:round; stroke-linejoin:round;">
<path style="fill:#840000; fill-opacity:0.0; 
stroke:#840000; stroke-width:60; stroke-opacity:1; 
stroke-linecap:round; stroke-linejoin:round;fill:none"
d="M 58250,39250
58250,40250
" /> 
</g>
<g style="fill:#840000; fill-opacity:1.0; 
stroke:#840000; stroke-width:60; stroke-opacity:1; 
stroke-linecap:round; stroke-linejoin:round;">
<path style="fill:#840000; fill-opacity:1.0; 
stroke:#840000; stroke-width:60; stroke-opacity:1; 
stroke-linecap:round; stroke-linejoin:round;fill-rule:evenodd;"
d="M 53250,36250
53250,37250
53500,37000
53250,36750
" /> 
</g>
<g style="fill:#840000; fill-opacity:0.0; 
stroke:#840000; stroke-width:60; stroke-opacity:1; 
stroke-linecap:round; stroke-linejoin:round;">
<path style="fill:#840000; fill-opacity:0.0; 
stroke:#840000; stroke-width:60; stroke-opacity:1; 
stroke-linecap:round; stroke-linejoin:round;fill:none"
d="M 55250,36250
55250,37250
55000,37000
55250,36750
" /> 
</g>
<g style="fill:#840000; fill-opacity:1.0; 
stroke:#840000; stroke-width:60; stroke-opacity:1; 
stroke-linecap:round; stroke-linejoin:round;">
<path style="fill:#840000; fill-opacity:1.0; 
stroke:#840000; stroke-width:60; stroke-opacity:1; 
stroke-linecap:round; stroke-linejoin:round;fill-rule:evenodd;"
d="M 57250,36250
57250,37250
57500,37000
57250,36750
" /> 
</g>
<g style="fill:#840000; fill-opacity:0.0; 
stroke:#840000; stroke-width:60; stroke-opacity:1; 
stroke-linecap:round; stroke-linejoin:round;">
<path style="fill:#840000; fill-opacity:0.0; 
stroke:#840000; stroke-width:60; stroke-opacity:1; 
stroke-linecap:round; stroke-linejoin:round;fill:none"
d="M 59250,36250
59250,37250
59000,37000
59250,36750
" /> 
<path d="M50250 36250
L50250 35250
" />
<g transform="rotate(-90 50150 35750)">
<text x="50150" y="35750"
textLength="540" font-size="660" lengthAdjust="spacingAndGlyphs"
text-anchor="middle" opacity="0">1</text>
</g>
<path d="M50120 35600
L50120 35890
" />
<path d="M50120 35750
L49620 35750
L49690 35790
L49740 35840
L49760 35890
" />
<path d="M53250 36250
L53250 35250
" />
<g transform="rotate(-90 53150 35750)">
<text x="53150" y="35750"
textLength="540" font-size="660" lengthAdjust="spacingAndGlyphs"
text-anchor="middle" opacity="0">2</text>
</g>
<path d="M52670 35890
L52650 35860
L52620 35820
L52620 35700
L52650 35650
L52670 35630
L52720 35600
L52760 35600
L52840 35630
L53120 35910
L53120 35600
" />
<path d="M54250 40250
L54250 41250
" />
<g transform="rotate(-90 54150 40750)">
<text x="54150" y="40750"
textLength="540" font-size="660" lengthAdjust="spacingAndGlyphs"
text-anchor="middle" opacity="0">3</text>
</g>
<path d="M53620 40910
L53620 40600
L53810 40770
L53810 40700
L53840 40650
L53860 40630
L53910 40600
L54030 40600
L54070 40630
L54100 40650
L54120 40700
L54120 40840
L54100 40890
L54070 40910
" />
<path d="M55250 36250
L55250 35250
" />
<g transform="rotate(-90 55150 35750)">
<text x="55150" y="35750"
textLength="540" font-size="660" lengthAdjust="spacingAndGlyphs"
text-anchor="middle" opacity="0">4</text>
</g>
<path d="M54790 35650
L55120 35650
" />
<path d="M54600 35770
L54950 35890
L54950 35580
" />
<path d="M59250 36250
L59250 35250
" />
<g transform="rotate(-90 59150 35750)">
<text x="59150" y="35750"
textLength="540" font-size="660" lengthAdjust="spacingAndGlyphs"
text-anchor="middle" opacity="0">5</text>
</g>
<path d="M58620 35630
L58620 35860
L58860 35890
L58840 35860
L58810 35820
L58810 35700
L58840 35650
L58860 35630
L58910 35600
L59030 35600
L59070 35630
L59100 35650
L59120 35700
L59120 35820
L59100 35860
L59070 35890
" />
<path d="M58250 40250
L58250 41250
" />
<g transform="rotate(-90 58150 40750)">
<text x="58150" y="40750"
textLength="540" font-size="660" lengthAdjust="spacingAndGlyphs"
text-anchor="middle" opacity="0">6</text>
</g>
<path d="M57620 40650
L57620 40750
L57650 40790
L57670 40820
L57740 40860
L57840 40890
L58030 40890
L58070 40860
L58100 40840
L58120 40790
L58120 40700
L58100 40650
L58070 40630
L58030 40600
L57910 40600
L57860 40630
L57840 40650
L57810 40700
L57810 40790
L57840 40840
L57860 40860
L57910 40890
" />
<path d="M57250 36250
L57250 35250
" />
<g transform="rotate(-90 57150 35750)">
<text x="57150" y="35750"
textLength="540" font-size="660" lengthAdjust="spacingAndGlyphs"
text-anchor="middle" opacity="0">7</text>
</g>
<path d="M56620 35910
L56620 35580
L57120 35790
" />
<path d="M50250 40250
L50250 41250
" />
<g transform="rotate(-90 50150 40750)">
<text x="50150" y="40750"
textLength="540" font-size="660" lengthAdjust="spacingAndGlyphs"
text-anchor="middle" opacity="0">8</text>
</g>
<path d="M49840 40790
L49810 40840
L49790 40860
L49740 40890
L49720 40890
L49670 40860
L49650 40840
L49620 40790
L49620 40700
L49650 40650
L49670 40630
L49720 40600
L49740 40600
L49790 40630
L49810 40650
L49840 40700
L49840 40790
L49860 40840
L49880 40860
L49930 40890
L50030 40890
L50070 40860
L50100 40840
L50120 40790
L50120 40700
L50100 40650
L50070 40630
L50030 40600
L49930 40600
L49880 40630
L49860 40650
L49840 40700
" />
</g>
<g style="fill:#008484; fill-opacity:0.0; 
stroke:#008484; stroke-width:60; stroke-opacity:1; 
stroke-linecap:round; stroke-linejoin:round;">
<text x="61070" y="38060"
textLength="1040" font-size="660" lengthAdjust="spacingAndGlyphs"
text-anchor="middle" opacity="0">K1</text>
<path d="M60700 38030
L60700 37530
" />
<path d="M60980 38030
L60770 37750
" />
<path d="M60980 37530
L60700 37820
" />
<path d="M61460 38030
L61170 38030
" />
<path d="M61320 38030
L61320 37530
L61270 37600
L61220 37650
L61170 37670
" />
<text x="62470" y="38970"
textLength="3850" font-size="660" lengthAdjust="spacingAndGlyphs"
text-anchor="middle" opacity="0">HFD4/3_S</text>
<path d="M60690 38940
L60690 38440
" />
<path d="M60690 38680
L60980 38680
" />
<path d="M60980 38940
L60980 38440
" />
<path d="M61380 38680
L61220 38680
" />
<path d="M61220 38940
L61220 38440
L61450 38440
" />
<path d="M61640 38940
L61640 38440
L61760 38440
L61830 38470
L61880 38510
L61910 38560
L61930 38660
L61930 38730
L61910 38820
L61880 38870
L61830 38920
L61760 38940
L61640 38940
" />
<path d="M62360 38610
L62360 38940
" />
<path d="M62240 38420
L62120 38770
L62430 38770
" />
<path d="M62980 38420
L62550 39060
" />
<path d="M63100 38440
L63410 38440
L63240 38630
L63310 38630
L63360 38660
L63380 38680
L63410 38730
L63410 38850
L63380 38890
L63360 38920
L63310 38940
L63170 38940
L63120 38920
L63100 38890
" />
<path d="M63500 38990
L63880 38990
" />
<path d="M63980 38920
L64050 38940
L64170 38940
L64220 38920
L64240 38890
L64260 38850
L64260 38800
L64240 38750
L64220 38730
L64170 38700
L64070 38680
L64020 38660
L64000 38630
L63980 38580
L63980 38540
L64000 38490
L64020 38470
L64070 38440
L64190 38440
L64260 38470
" />
</g>
</g>
<g style="fill:#008484; fill-opacity:0.0; 
stroke:#008484; stroke-width:0; stroke-opacity:1; 
stroke-linecap:round; stroke-linejoin:round;">
<g >
</g>
<g style="fill:#840000; fill-opacity:0.0; 
stroke:#840000; stroke-width:0; stroke-opacity:1; 
stroke-linecap:round; stroke-linejoin:round;">
</g>
<g style="fill:#840000; fill-opacity:0.0; 
stroke:#840000; stroke-width:60; stroke-opacity:1; 
stroke-linecap:round; stroke-linejoin:round;">
<path style="fill:#840000; fill-opacity:0.0; 
stroke:#840000; stroke-width:60; stroke-opacity:1; 
stroke-linecap:round; stroke-linejoin:round;fill:none"
d="M 50250,44750
50250,45250
50750,45250
50250,45750
49750,45250
50250,45250
" /> 
</g>
<g style="fill:#008484; fill-opacity:0.0; 
stroke:#008484; stroke-width:60; stroke-opacity:1; 
stroke-linecap:round; stroke-linejoin:round;">
<text x="50300" y="46750"
textLength="2060" font-size="660" lengthAdjust="spacingAndGlyphs"
text-anchor="middle" opacity="0">GNDS</text>
<path d="M49680 46250
L49630 46220
L49560 46220
L49490 46250
L49440 46290
L49410 46340
L49390 46440
L49390 46510
L49410 46600
L49440 46650
L49490 46700
L49560 46720
L49600 46720
L49680 46700
L49700 46670
L49700 46510
L49600 46510
" />
<path d="M49910 46720
L49910 46220
L50200 46720
L50200 46220
" />
<path d="M50440 46720
L50440 46220
L50560 46220
L50630 46250
L50680 46290
L50700 46340
L50720 46440
L50720 46510
L50700 46600
L50680 46650
L50630 46700
L50560 46720
L50440 46720
" />
<path d="M50910 46700
L50990 46720
L51100 46720
L51150 46700
L51180 46670
L51200 46630
L51200 46580
L51180 46530
L51150 46510
L51100 46480
L51010 46460
L50960 46440
L50940 46410
L50910 46360
L50910 46320
L50940 46270
L50960 46250
L51010 46220
L51130 46220
L51200 46250
" />
</g>
</g>
<g style="fill:#008484; fill-opacity:0.0; 
stroke:#008484; stroke-width:0; stroke-opacity:1; 
stroke-linecap:round; stroke-linejoin:round;">
<g >
</g>
<g style="fill:#840000; fill-opacity:0.0; 
stroke:#840000; stroke-width:0; stroke-opacity:1; 
stroke-linecap:round; stroke-linejoin:round;">
</g>
<g style="fill:#840000; fill-opacity:0.0; 
stroke:#840000; stroke-width:100; stroke-opacity:1; 
stroke-linecap:round; stroke-linejoin:round;">
<path style="fill:#840000; fill-opacity:0.0; 
stroke:#840000; stroke-width:100; stroke-opacity:1; 
stroke-linecap:round; stroke-linejoin:round;fill:none"
d="M 44000,37750
43000,37750
" /> 
</g>
<g style="fill:#840000; fill-opacity:0.0; 
stroke:#840000; stroke-width:60; stroke-opacity:1; 
stroke-linecap:round; stroke-linejoin:round;">
<path style="fill:#840000; fill-opacity:0.0; 
stroke:#840000; stroke-width:60; stroke-opacity:1; 
stroke-linecap:round; stroke-linejoin:round;fill:none"
d="M 43500,38750
43500,37750
" /> 
</g>
<g style="fill:#840000; fill-opacity:0.0; 
stroke:#840000; stroke-width:100; stroke-opacity:1; 
stroke-linecap:round; stroke-linejoin:round;">
<path style="fill:#840000; fill-opacity:0.0; 
stroke:#840000; stroke-width:100; stroke-opacity:1; 
stroke-linecap:round; stroke-linejoin:round;fill:none"
d="M 44000,38750
43000,38750
43500,37750
Z" /> 
</g>
<g style="fill:#840000; fill-opacity:0.0; 
stroke:#840000; stroke-width:60; stroke-opacity:1; 
stroke-linecap:round; stroke-linejoin:round;">
<path d="M43500 37750
L43500 36750
" />
<path d="M43500 38750
L43500 39750
" />
</g>
<g style="fill:#008484; fill-opacity:0.0; 
stroke:#008484; stroke-width:60; stroke-opacity:1; 
stroke-linecap:round; stroke-linejoin:round;">
<text x="45230" y="38020"
textLength="1040" font-size="660" lengthAdjust="spacingAndGlyphs"
text-anchor="middle" opacity="0">D2</text>
<path d="M44860 37990
L44860 37490
L44980 37490
L45050 37520
L45090 37560
L45120 37610
L45140 37710
L45140 37780
L45120 37870
L45090 37920
L45050 37970
L44980 37990
L44860 37990
" />
<path d="M45330 37540
L45360 37520
L45400 37490
L45520 37490
L45570 37520
L45590 37540
L45620 37590
L45620 37630
L45590 37710
L45310 37990
L45620 37990
" />
<text x="46270" y="39020"
textLength="2960" font-size="660" lengthAdjust="spacingAndGlyphs"
text-anchor="middle" opacity="0">1N4148</text>
<path d="M45190 38990
L44910 38990
" />
<path d="M45050 38990
L45050 38490
L45000 38560
L44960 38610
L44910 38630
" />
<path d="M45410 38990
L45410 38490
L45690 38990
L45690 38490
" />
<path d="M46150 38660
L46150 38990
" />
<path d="M46030 38470
L45910 38820
L46220 38820
" />
<path d="M46670 38990
L46380 38990
" />
<path d="M46530 38990
L46530 38490
L46480 38560
L46430 38610
L46380 38630
" />
<path d="M47100 38660
L47100 38990
" />
<path d="M46980 38470
L46860 38820
L47170 38820
" />
<path d="M47430 38710
L47380 38680
L47360 38660
L47340 38610
L47340 38590
L47360 38540
L47380 38520
L47430 38490
L47530 38490
L47570 38520
L47600 38540
L47620 38590
L47620 38610
L47600 38660
L47570 38680
L47530 38710
L47430 38710
L47380 38730
L47360 38750
L47340 38800
L47340 38900
L47360 38940
L47380 38970
L47430 38990
L47530 38990
L47570 38970
L47600 38940
L47620 38900
L47620 38800
L47600 38750
L47570 38730
L47530 38710
" />
</g>
</g>
<g style="fill:#008484; fill-opacity:0.0; 
stroke:#008484; stroke-width:60; stroke-opacity:1; 
stroke-linecap:round; stroke-linejoin:round;">
</g>
<g style="fill:#008400; fill-opacity:0.0; 
stroke:#008400; stroke-width:60; stroke-opacity:1; 
stroke-linecap:round; stroke-linejoin:round;">
<path d="M43500 42750
L50250 42750
" />
<path d="M43500 39750
L43500 42750
" />
<path d="M50250 42750
L50250 44750
" />
<path d="M58250 50000
L88500 50000
" />
<path d="M58250 41250
L58250 50000
" />
<path d="M57250 33250
L57250 35250
" />
<path d="M53250 33250
L57250 33250
" />
<path d="M53250 35250
L53250 33250
" />
<path d="M54250 50000
L25250 50000
" />
<path d="M54250 41250
L54250 50000
" />
<path d="M43500 36750
L43500 33750
" />
<path d="M50250 41250
L50250 42750
" />
<path d="M50250 26750
L50250 28000
" />
<path d="M55250 35250
L55250 14500
" />
<path d="M24500 14500
L55250 14500
" />
<path d="M50250 32000
L50250 33750
" />
<path d="M43500 33750
L50250 33750
" />
<path d="M25750 30000
L47250 30000
" />
<path d="M50250 33750
L50250 35250
" />
<path d="M59250 35250
L59250 14500
" />
<path d="M59250 14500
L89250 14500
" />
<path d="M52750 25250
L53250 25250
" />
<path d="M53250 25250
L53250 22500
" />
<path d="M47750 25250
L47250 25250
" />
<path d="M47250 25250
L47250 22500
" />
</g>
<g style="fill:#848400; fill-opacity:0.0; 
stroke:#848400; stroke-width:60; stroke-opacity:1; 
stroke-linecap:round; stroke-linejoin:round;">
<text x="89850" y="14750"
textLength="2770" font-size="660" lengthAdjust="spacingAndGlyphs"
text-anchor="start" opacity="0">FX_OUT</text>
<path d="M90160 14460
L89990 14460
" />
<path d="M89990 14720
L89990 14220
L90230 14220
" />
<path d="M90380 14220
L90710 14720
" />
<path d="M90710 14220
L90380 14720
" />
<path d="M90780 14770
L91160 14770
" />
<path d="M91380 14220
L91470 14220
L91520 14250
L91570 14290
L91590 14390
L91590 14550
L91570 14650
L91520 14700
L91470 14720
L91380 14720
L91330 14700
L91280 14650
L91260 14550
L91260 14390
L91280 14290
L91330 14250
L91380 14220
" />
<path d="M91800 14220
L91800 14630
L91830 14670
L91850 14700
L91900 14720
L91990 14720
L92040 14700
L92070 14670
L92090 14630
L92090 14220
" />
<path d="M92260 14220
L92540 14220
" />
<path d="M92400 14720
L92400 14220
" />
</g>
<g style="fill:#848400; fill-opacity:0.0; 
stroke:#848400; stroke-width:100; stroke-opacity:1; 
stroke-linecap:round; stroke-linejoin:round;">
<path style="fill:#848400; fill-opacity:0.0; 
stroke:#848400; stroke-width:100; stroke-opacity:1; 
stroke-linecap:round; stroke-linejoin:round;fill:none"
d="M 89250,14500
89500,14750
89750,14750
89750,14250
89500,14250
Z" /> 
</g>
<g style="fill:#848400; fill-opacity:0.0; 
stroke:#848400; stroke-width:60; stroke-opacity:1; 
stroke-linecap:round; stroke-linejoin:round;">
<text x="23900" y="14750"
textLength="2110" font-size="660" lengthAdjust="spacingAndGlyphs"
text-anchor="end" opacity="0">FX_IN</text>
<path d="M22100 14460
L21940 14460
" />
<path d="M21940 14720
L21940 14220
L22170 14220
" />
<path d="M22320 14220
L22650 14720
" />
<path d="M22650 14220
L22320 14720
" />
<path d="M22720 14770
L23100 14770
" />
<path d="M23220 14720
L23220 14220
" />
<path d="M23460 14720
L23460 14220
L23750 14720
L23750 14220
" />
</g>
<g style="fill:#848400; fill-opacity:0.0; 
stroke:#848400; stroke-width:100; stroke-opacity:1; 
stroke-linecap:round; stroke-linejoin:round;">
<path style="fill:#848400; fill-opacity:0.0; 
stroke:#848400; stroke-width:100; stroke-opacity:1; 
stroke-linecap:round; stroke-linejoin:round;fill:none"
d="M 24500,14500
24250,14250
24000,14250
24000,14750
24250,14750
Z" /> 
</g>
<g style="fill:#848400; fill-opacity:0.0; 
stroke:#848400; stroke-width:60; stroke-opacity:1; 
stroke-linecap:round; stroke-linejoin:round;">
<text x="89100" y="50250"
textLength="4440" font-size="660" lengthAdjust="spacingAndGlyphs"
text-anchor="start" opacity="0">SIGNAL_OUT</text>
<path d="M89220 50200
L89290 50220
L89410 50220
L89460 50200
L89480 50170
L89510 50130
L89510 50080
L89480 50030
L89460 50010
L89410 49980
L89320 49960
L89270 49940
L89240 49910
L89220 49860
L89220 49820
L89240 49770
L89270 49750
L89320 49720
L89430 49720
L89510 49750
" />
<path d="M89720 50220
L89720 49720
" />
<path d="M90220 49750
L90170 49720
L90100 49720
L90030 49750
L89980 49790
L89960 49840
L89930 49940
L89930 50010
L89960 50100
L89980 50150
L90030 50200
L90100 50220
L90150 50220
L90220 50200
L90240 50170
L90240 50010
L90150 50010
" />
<path d="M90460 50220
L90460 49720
L90740 50220
L90740 49720
" />
<path d="M90960 50080
L91200 50080
" />
<path d="M90910 50220
L91080 49720
L91240 50220
" />
<path d="M91650 50220
L91410 50220
L91410 49720
" />
<path d="M91700 50270
L92080 50270
" />
<path d="M92290 49720
L92390 49720
L92430 49750
L92480 49790
L92510 49890
L92510 50050
L92480 50150
L92430 50200
L92390 50220
L92290 50220
L92240 50200
L92200 50150
L92170 50050
L92170 49890
L92200 49790
L92240 49750
L92290 49720
" />
<path d="M92720 49720
L92720 50130
L92740 50170
L92770 50200
L92820 50220
L92910 50220
L92960 50200
L92980 50170
L93010 50130
L93010 49720
" />
<path d="M93170 49720
L93460 49720
" />
<path d="M93320 50220
L93320 49720
" />
</g>
<g style="fill:#848400; fill-opacity:0.0; 
stroke:#848400; stroke-width:100; stroke-opacity:1; 
stroke-linecap:round; stroke-linejoin:round;">
<path style="fill:#848400; fill-opacity:0.0; 
stroke:#848400; stroke-width:100; stroke-opacity:1; 
stroke-linecap:round; stroke-linejoin:round;fill:none"
d="M 88500,50000
88750,50250
89000,50250
89000,49750
88750,49750
Z" /> 
</g>
<g style="fill:#848400; fill-opacity:0.0; 
stroke:#848400; stroke-width:60; stroke-opacity:1; 
stroke-linecap:round; stroke-linejoin:round;">
<text x="24650" y="50250"
textLength="3770" font-size="660" lengthAdjust="spacingAndGlyphs"
text-anchor="end" opacity="0">SIGNAL_IN</text>
<path d="M21000 50200
L21070 50220
L21190 50220
L21230 50200
L21260 50170
L21280 50130
L21280 50080
L21260 50030
L21230 50010
L21190 49980
L21090 49960
L21040 49940
L21020 49910
L21000 49860
L21000 49820
L21020 49770
L21040 49750
L21090 49720
L21210 49720
L21280 49750
" />
<path d="M21500 50220
L21500 49720
" />
<path d="M22000 49750
L21950 49720
L21880 49720
L21810 49750
L21760 49790
L21730 49840
L21710 49940
L21710 50010
L21730 50100
L21760 50150
L21810 50200
L21880 50220
L21920 50220
L22000 50200
L22020 50170
L22020 50010
L21920 50010
" />
<path d="M22230 50220
L22230 49720
L22520 50220
L22520 49720
" />
<path d="M22730 50080
L22970 50080
" />
<path d="M22690 50220
L22850 49720
L23020 50220
" />
<path d="M23420 50220
L23190 50220
L23190 49720
" />
<path d="M23470 50270
L23850 50270
" />
<path d="M23970 50220
L23970 49720
" />
<path d="M24210 50220
L24210 49720
L24500 50220
L24500 49720
" />
</g>
<g style="fill:#848400; fill-opacity:0.0; 
stroke:#848400; stroke-width:100; stroke-opacity:1; 
stroke-linecap:round; stroke-linejoin:round;">
<path style="fill:#848400; fill-opacity:0.0; 
stroke:#848400; stroke-width:100; stroke-opacity:1; 
stroke-linecap:round; stroke-linejoin:round;fill:none"
d="M 25250,50000
25000,49750
24750,49750
24750,50250
25000,50250
Z" /> 
</g>
<g style="fill:#848400; fill-opacity:0.0; 
stroke:#848400; stroke-width:60; stroke-opacity:1; 
stroke-linecap:round; stroke-linejoin:round;">
<text x="25150" y="30250"
textLength="5350" font-size="660" lengthAdjust="spacingAndGlyphs"
text-anchor="end" opacity="0">RelayCoil_OUT</text>
<path d="M20230 30220
L20070 29980
" />
<path d="M19950 30220
L19950 29720
L20140 29720
L20190 29750
L20210 29770
L20230 29820
L20230 29890
L20210 29940
L20190 29960
L20140 29980
L19950 29980
" />
<path d="M20640 30200
L20590 30220
L20500 30220
L20450 30200
L20420 30150
L20420 29960
L20450 29910
L20500 29890
L20590 29890
L20640 29910
L20660 29960
L20660 30010
L20420 30050
" />
<path d="M20950 30220
L20900 30200
L20880 30150
L20880 29720
" />
<path d="M21350 30220
L21350 29960
L21330 29910
L21280 29890
L21190 29890
L21140 29910
" />
<path d="M21350 30200
L21310 30220
L21190 30220
L21140 30200
L21120 30150
L21120 30100
L21140 30050
L21190 30030
L21310 30030
L21350 30010
" />
<path d="M21540 29890
L21660 30220
" />
<path d="M21780 29890
L21660 30220
L21620 30340
L21590 30360
L21540 30390
" />
<path d="M22260 30170
L22230 30200
L22160 30220
L22120 30220
L22040 30200
L22000 30150
L21970 30100
L21950 30010
L21950 29940
L21970 29840
L22000 29790
L22040 29750
L22120 29720
L22160 29720
L22230 29750
L22260 29770
" />
<path d="M22540 30220
L22500 30200
L22470 30170
L22450 30130
L22450 29980
L22470 29940
L22500 29910
L22540 29890
L22620 29890
L22660 29910
L22690 29940
L22710 29980
L22710 30130
L22690 30170
L22660 30200
L22620 30220
L22540 30220
" />
<path d="M22920 30220
L22920 29890
" />
<path d="M22920 29720
L22900 29750
L22920 29770
L22950 29750
L22920 29720
L22920 29770
" />
<path d="M23230 30220
L23190 30200
L23160 30150
L23160 29720
" />
<path d="M23310 30270
L23690 30270
" />
<path d="M23900 29720
L24000 29720
L24040 29750
L24090 29790
L24120 29890
L24120 30050
L24090 30150
L24040 30200
L24000 30220
L23900 30220
L23850 30200
L23810 30150
L23780 30050
L23780 29890
L23810 29790
L23850 29750
L23900 29720
" />
<path d="M24330 29720
L24330 30130
L24350 30170
L24380 30200
L24420 30220
L24520 30220
L24570 30200
L24590 30170
L24620 30130
L24620 29720
" />
<path d="M24780 29720
L25070 29720
" />
<path d="M24920 30220
L24920 29720
" />
</g>
<g style="fill:#848400; fill-opacity:0.0; 
stroke:#848400; stroke-width:100; stroke-opacity:1; 
stroke-linecap:round; stroke-linejoin:round;">
<path style="fill:#848400; fill-opacity:0.0; 
stroke:#848400; stroke-width:100; stroke-opacity:1; 
stroke-linecap:round; stroke-linejoin:round;fill:none"
d="M 25750,30000
25500,29750
25250,29750
25250,30250
25500,30250
Z" /> 
</g>
<g style="fill:#848400; fill-opacity:0.0; 
stroke:#848400; stroke-width:60; stroke-opacity:1; 
stroke-linecap:round; stroke-linejoin:round;">
</g>
<g style="fill:#0000C2; fill-opacity:0.0; 
stroke:#0000C2; stroke-width:60; stroke-opacity:1; 
stroke-linecap:round; stroke-linejoin:round;">
<text x="37750" y="24650"
textLength="9080" font-size="660" lengthAdjust="spacingAndGlyphs"
text-anchor="start" opacity="0">Allows use of 5V relays</text>
<path d="M37870 24480
L38110 24480
" />
<path d="M37820 24620
L37990 24120
L38160 24620
" />
<path d="M38390 24620
L38350 24600
L38320 24550
L38320 24120
" />
<path d="M38660 24620
L38610 24600
L38580 24550
L38580 24120
" />
<path d="M38920 24620
L38870 24600
L38850 24570
L38820 24530
L38820 24380
L38850 24340
L38870 24310
L38920 24290
L38990 24290
L39040 24310
L39060 24340
L39080 24380
L39080 24530
L39060 24570
L39040 24600
L38990 24620
L38920 24620
" />
<path d="M39250 24290
L39350 24620
L39440 24380
L39540 24620
L39630 24290
" />
<path d="M39800 24600
L39850 24620
L39940 24620
L39990 24600
L40010 24550
L40010 24530
L39990 24480
L39940 24450
L39870 24450
L39820 24430
L39800 24380
L39800 24360
L39820 24310
L39870 24290
L39940 24290
L39990 24310
" />
<path d="M40820 24290
L40820 24620
" />
<path d="M40610 24290
L40610 24550
L40630 24600
L40680 24620
L40750 24620
L40800 24600
L40820 24570
" />
<path d="M41040 24600
L41080 24620
L41180 24620
L41230 24600
L41250 24550
L41250 24530
L41230 24480
L41180 24450
L41110 24450
L41060 24430
L41040 24380
L41040 24360
L41060 24310
L41110 24290
L41180 24290
L41230 24310
" />
<path d="M41660 24600
L41610 24620
L41510 24620
L41470 24600
L41440 24550
L41440 24360
L41470 24310
L41510 24290
L41610 24290
L41660 24310
L41680 24360
L41680 24410
L41440 24450
" />
<path d="M42350 24620
L42300 24600
L42280 24570
L42250 24530
L42250 24380
L42280 24340
L42300 24310
L42350 24290
L42420 24290
L42470 24310
L42490 24340
L42510 24380
L42510 24530
L42490 24570
L42470 24600
L42420 24620
L42350 24620
" />
<path d="M42660 24290
L42850 24290
" />
<path d="M42730 24620
L42730 24190
L42750 24150
L42800 24120
L42850 24120
" />
<path d="M43630 24120
L43390 24120
L43370 24360
L43390 24340
L43440 24310
L43560 24310
L43610 24340
L43630 24360
L43660 24410
L43660 24530
L43630 24570
L43610 24600
L43560 24620
L43440 24620
L43390 24600
L43370 24570
" />
<path d="M43800 24120
L43970 24620
L44130 24120
" />
<path d="M44680 24620
L44680 24290
" />
<path d="M44680 24380
L44700 24340
L44730 24310
L44780 24290
L44820 24290
" />
<path d="M45180 24600
L45130 24620
L45040 24620
L44990 24600
L44970 24550
L44970 24360
L44990 24310
L45040 24290
L45130 24290
L45180 24310
L45200 24360
L45200 24410
L44970 24450
" />
<path d="M45490 24620
L45440 24600
L45420 24550
L45420 24120
" />
<path d="M45890 24620
L45890 24360
L45870 24310
L45820 24290
L45730 24290
L45680 24310
" />
<path d="M45890 24600
L45850 24620
L45730 24620
L45680 24600
L45660 24550
L45660 24500
L45680 24450
L45730 24430
L45850 24430
L45890 24410
" />
<path d="M46080 24290
L46200 24620
" />
<path d="M46320 24290
L46200 24620
L46160 24740
L46130 24760
L46080 24790
" />
<path d="M46490 24600
L46540 24620
L46630 24620
L46680 24600
L46700 24550
L46700 24530
L46680 24480
L46630 24450
L46560 24450
L46510 24430
L46490 24380
L46490 24360
L46510 24310
L46560 24290
L46630 24290
L46680 24310
" />
</g>
<g style="fill:#0000C2; fill-opacity:0.0; 
stroke:#0000C2; stroke-width:0; stroke-opacity:1; 
stroke-linecap:round; stroke-linejoin:round;">
</g>
<g style="fill:#008400; fill-opacity:0.0; 
stroke:#008400; stroke-width:0; stroke-opacity:1; 
stroke-linecap:round; stroke-linejoin:round;">
</g>
<g style="fill:#008400; fill-opacity:1.0; 
stroke:#008400; stroke-width:100; stroke-opacity:1; 
stroke-linecap:round; stroke-linejoin:round;">
<circle cx="50250" cy="33750" r="200" /> 
</g>
<g style="fill:#008400; fill-opacity:1.0; 
stroke:#008400; stroke-width:0; stroke-opacity:1; 
stroke-linecap:round; stroke-linejoin:round;">
</g>
<g style="fill:#008400; fill-opacity:1.0; 
stroke:#008400; stroke-width:100; stroke-opacity:1; 
stroke-linecap:round; stroke-linejoin:round;">
<circle cx="50250" cy="42750" r="200" /> 
</g> 
</svg>
