<?xml version="1.0" standalone="no"?>
 <!DOCTYPE svg PUBLIC "-//W3C//DTD SVG 1.1//EN" 
 "http://www.w3.org/Graphics/SVG/1.1/DTD/svg11.dtd"> 
<svg
  xmlns:svg="http://www.w3.org/2000/svg"
  xmlns="http://www.w3.org/2000/svg"
  xmlns:xlink="http://www.w3.org/1999/xlink"
  version="1.1"
  width="29.700220cm" height="21.000720cm" viewBox="0 0 116930 82680">
<title>SVG Picture created as SignalRelay-SignalRelay.svg date 2020/10/31 16:03:42 </title>
  <desc>Picture generated by Eeschema-SVG </desc>
<g style="fill:#000000; fill-opacity:1;stroke:#000000; stroke-opacity:1;
stroke-linecap:round; stroke-linejoin:round;"
 transform="translate(0 0) scale(1 1)">
</g>
<g style="fill:#000000; fill-opacity:0.0; 
stroke:#000000; stroke-width:-10; stroke-opacity:1; 
stroke-linecap:round; stroke-linejoin:round;">
</g>
<g style="fill:#840000; fill-opacity:0.0; 
stroke:#840000; stroke-width:-10; stroke-opacity:1; 
stroke-linecap:round; stroke-linejoin:round;">
</g>
<g style="fill:#840000; fill-opacity:0.0; 
stroke:#840000; stroke-width:100; stroke-opacity:1; 
stroke-linecap:round; stroke-linejoin:round;">
</g>
<g style="fill:#840000; fill-opacity:0.0; 
stroke:#840000; stroke-width:60; stroke-opacity:1; 
stroke-linecap:round; stroke-linejoin:round;">
<rect x="69690" y="65360" width="42520" height="12600" rx="0" />
</g>
<g style="fill:#840000; fill-opacity:0.0; 
stroke:#840000; stroke-width:100; stroke-opacity:1; 
stroke-linecap:round; stroke-linejoin:round;">
</g>
<g style="fill:#840000; fill-opacity:0.0; 
stroke:#840000; stroke-width:60; stroke-opacity:1; 
stroke-linecap:round; stroke-linejoin:round;">
<rect x="3940" y="3940" width="109050" height="74800" rx="0" />
</g>
<g style="fill:#840000; fill-opacity:0.0; 
stroke:#840000; stroke-width:100; stroke-opacity:1; 
stroke-linecap:round; stroke-linejoin:round;">
</g>
<g style="fill:#840000; fill-opacity:0.0; 
stroke:#840000; stroke-width:60; stroke-opacity:1; 
stroke-linecap:round; stroke-linejoin:round;">
<rect x="4720" y="4720" width="107490" height="73240" rx="0" />
</g>
<g style="fill:#840000; fill-opacity:0.0; 
stroke:#840000; stroke-width:100; stroke-opacity:1; 
stroke-linecap:round; stroke-linejoin:round;">
</g>
<g style="fill:#840000; fill-opacity:0.0; 
stroke:#840000; stroke-width:60; stroke-opacity:1; 
stroke-linecap:round; stroke-linejoin:round;">
<path d="M23620 4720
L23620 3940
" />
</g>
<g style="fill:#840000; fill-opacity:0.0; 
stroke:#840000; stroke-width:100; stroke-opacity:1; 
stroke-linecap:round; stroke-linejoin:round;">
</g>
<g style="fill:#840000; fill-opacity:0.0; 
stroke:#840000; stroke-width:60; stroke-opacity:1; 
stroke-linecap:round; stroke-linejoin:round;">
<path d="M43310 4720
L43310 3940
" />
</g>
<g style="fill:#840000; fill-opacity:0.0; 
stroke:#840000; stroke-width:100; stroke-opacity:1; 
stroke-linecap:round; stroke-linejoin:round;">
</g>
<g style="fill:#840000; fill-opacity:0.0; 
stroke:#840000; stroke-width:60; stroke-opacity:1; 
stroke-linecap:round; stroke-linejoin:round;">
<path d="M62990 4720
L62990 3940
" />
</g>
<g style="fill:#840000; fill-opacity:0.0; 
stroke:#840000; stroke-width:100; stroke-opacity:1; 
stroke-linecap:round; stroke-linejoin:round;">
</g>
<g style="fill:#840000; fill-opacity:0.0; 
stroke:#840000; stroke-width:60; stroke-opacity:1; 
stroke-linecap:round; stroke-linejoin:round;">
<path d="M82680 4720
L82680 3940
" />
</g>
<g style="fill:#840000; fill-opacity:0.0; 
stroke:#840000; stroke-width:100; stroke-opacity:1; 
stroke-linecap:round; stroke-linejoin:round;">
</g>
<g style="fill:#840000; fill-opacity:0.0; 
stroke:#840000; stroke-width:60; stroke-opacity:1; 
stroke-linecap:round; stroke-linejoin:round;">
<path d="M102360 4720
L102360 3940
" />
</g>
<g style="fill:#840000; fill-opacity:0.0; 
stroke:#840000; stroke-width:100; stroke-opacity:1; 
stroke-linecap:round; stroke-linejoin:round;">
</g>
<g style="fill:#840000; fill-opacity:0.0; 
stroke:#840000; stroke-width:60; stroke-opacity:1; 
stroke-linecap:round; stroke-linejoin:round;">
<text x="13780" y="4580"
textLength="550" font-size="680" lengthAdjust="spacingAndGlyphs"
text-anchor="start" opacity="0">1</text>
<path d="M14190 4560
L13900 4560
" />
<path d="M14050 4560
L14050 4050
L14000 4120
L13950 4170
L13900 4190
" />
</g>
<g style="fill:#840000; fill-opacity:0.0; 
stroke:#840000; stroke-width:100; stroke-opacity:1; 
stroke-linecap:round; stroke-linejoin:round;">
</g>
<g style="fill:#840000; fill-opacity:0.0; 
stroke:#840000; stroke-width:60; stroke-opacity:1; 
stroke-linecap:round; stroke-linejoin:round;">
<text x="33460" y="4580"
textLength="550" font-size="680" lengthAdjust="spacingAndGlyphs"
text-anchor="start" opacity="0">2</text>
<path d="M33580 4090
L33610 4070
L33660 4050
L33780 4050
L33830 4070
L33850 4090
L33870 4140
L33870 4190
L33850 4260
L33560 4560
L33870 4560
" />
</g>
<g style="fill:#840000; fill-opacity:0.0; 
stroke:#840000; stroke-width:100; stroke-opacity:1; 
stroke-linecap:round; stroke-linejoin:round;">
</g>
<g style="fill:#840000; fill-opacity:0.0; 
stroke:#840000; stroke-width:60; stroke-opacity:1; 
stroke-linecap:round; stroke-linejoin:round;">
<text x="53150" y="4580"
textLength="550" font-size="680" lengthAdjust="spacingAndGlyphs"
text-anchor="start" opacity="0">3</text>
<path d="M53250 4050
L53560 4050
L53390 4240
L53470 4240
L53520 4260
L53540 4290
L53560 4340
L53560 4460
L53540 4510
L53520 4530
L53470 4560
L53320 4560
L53270 4530
L53250 4510
" />
</g>
<g style="fill:#840000; fill-opacity:0.0; 
stroke:#840000; stroke-width:100; stroke-opacity:1; 
stroke-linecap:round; stroke-linejoin:round;">
</g>
<g style="fill:#840000; fill-opacity:0.0; 
stroke:#840000; stroke-width:60; stroke-opacity:1; 
stroke-linecap:round; stroke-linejoin:round;">
<text x="72830" y="4580"
textLength="550" font-size="680" lengthAdjust="spacingAndGlyphs"
text-anchor="start" opacity="0">4</text>
<path d="M73200 4220
L73200 4560
" />
<path d="M73070 4020
L72950 4390
L73270 4390
" />
</g>
<g style="fill:#840000; fill-opacity:0.0; 
stroke:#840000; stroke-width:100; stroke-opacity:1; 
stroke-linecap:round; stroke-linejoin:round;">
</g>
<g style="fill:#840000; fill-opacity:0.0; 
stroke:#840000; stroke-width:60; stroke-opacity:1; 
stroke-linecap:round; stroke-linejoin:round;">
<text x="92520" y="4580"
textLength="550" font-size="680" lengthAdjust="spacingAndGlyphs"
text-anchor="start" opacity="0">5</text>
<path d="M92910 4050
L92670 4050
L92640 4290
L92670 4260
L92720 4240
L92840 4240
L92890 4260
L92910 4290
L92930 4340
L92930 4460
L92910 4510
L92890 4530
L92840 4560
L92720 4560
L92670 4530
L92640 4510
" />
</g>
<g style="fill:#840000; fill-opacity:0.0; 
stroke:#840000; stroke-width:100; stroke-opacity:1; 
stroke-linecap:round; stroke-linejoin:round;">
</g>
<g style="fill:#840000; fill-opacity:0.0; 
stroke:#840000; stroke-width:60; stroke-opacity:1; 
stroke-linecap:round; stroke-linejoin:round;">
<text x="112200" y="4580"
textLength="550" font-size="680" lengthAdjust="spacingAndGlyphs"
text-anchor="start" opacity="0">6</text>
<path d="M112570 4050
L112470 4050
L112420 4070
L112400 4090
L112350 4170
L112320 4260
L112320 4460
L112350 4510
L112370 4530
L112420 4560
L112520 4560
L112570 4530
L112590 4510
L112610 4460
L112610 4340
L112590 4290
L112570 4260
L112520 4240
L112420 4240
L112370 4260
L112350 4290
L112320 4340
" />
</g>
<g style="fill:#840000; fill-opacity:0.0; 
stroke:#840000; stroke-width:100; stroke-opacity:1; 
stroke-linecap:round; stroke-linejoin:round;">
</g>
<g style="fill:#840000; fill-opacity:0.0; 
stroke:#840000; stroke-width:60; stroke-opacity:1; 
stroke-linecap:round; stroke-linejoin:round;">
<path d="M23620 77960
L23620 78740
" />
</g>
<g style="fill:#840000; fill-opacity:0.0; 
stroke:#840000; stroke-width:100; stroke-opacity:1; 
stroke-linecap:round; stroke-linejoin:round;">
</g>
<g style="fill:#840000; fill-opacity:0.0; 
stroke:#840000; stroke-width:60; stroke-opacity:1; 
stroke-linecap:round; stroke-linejoin:round;">
<path d="M43310 77960
L43310 78740
" />
</g>
<g style="fill:#840000; fill-opacity:0.0; 
stroke:#840000; stroke-width:100; stroke-opacity:1; 
stroke-linecap:round; stroke-linejoin:round;">
</g>
<g style="fill:#840000; fill-opacity:0.0; 
stroke:#840000; stroke-width:60; stroke-opacity:1; 
stroke-linecap:round; stroke-linejoin:round;">
<path d="M62990 77960
L62990 78740
" />
</g>
<g style="fill:#840000; fill-opacity:0.0; 
stroke:#840000; stroke-width:100; stroke-opacity:1; 
stroke-linecap:round; stroke-linejoin:round;">
</g>
<g style="fill:#840000; fill-opacity:0.0; 
stroke:#840000; stroke-width:60; stroke-opacity:1; 
stroke-linecap:round; stroke-linejoin:round;">
<path d="M82680 77960
L82680 78740
" />
</g>
<g style="fill:#840000; fill-opacity:0.0; 
stroke:#840000; stroke-width:100; stroke-opacity:1; 
stroke-linecap:round; stroke-linejoin:round;">
</g>
<g style="fill:#840000; fill-opacity:0.0; 
stroke:#840000; stroke-width:60; stroke-opacity:1; 
stroke-linecap:round; stroke-linejoin:round;">
<path d="M102360 77960
L102360 78740
" />
</g>
<g style="fill:#840000; fill-opacity:0.0; 
stroke:#840000; stroke-width:100; stroke-opacity:1; 
stroke-linecap:round; stroke-linejoin:round;">
</g>
<g style="fill:#840000; fill-opacity:0.0; 
stroke:#840000; stroke-width:60; stroke-opacity:1; 
stroke-linecap:round; stroke-linejoin:round;">
<text x="13780" y="78600"
textLength="550" font-size="680" lengthAdjust="spacingAndGlyphs"
text-anchor="start" opacity="0">1</text>
<path d="M14190 78580
L13900 78580
" />
<path d="M14050 78580
L14050 78070
L14000 78140
L13950 78190
L13900 78210
" />
</g>
<g style="fill:#840000; fill-opacity:0.0; 
stroke:#840000; stroke-width:100; stroke-opacity:1; 
stroke-linecap:round; stroke-linejoin:round;">
</g>
<g style="fill:#840000; fill-opacity:0.0; 
stroke:#840000; stroke-width:60; stroke-opacity:1; 
stroke-linecap:round; stroke-linejoin:round;">
<text x="33460" y="78600"
textLength="550" font-size="680" lengthAdjust="spacingAndGlyphs"
text-anchor="start" opacity="0">2</text>
<path d="M33580 78110
L33610 78090
L33660 78070
L33780 78070
L33830 78090
L33850 78110
L33870 78160
L33870 78210
L33850 78280
L33560 78580
L33870 78580
" />
</g>
<g style="fill:#840000; fill-opacity:0.0; 
stroke:#840000; stroke-width:100; stroke-opacity:1; 
stroke-linecap:round; stroke-linejoin:round;">
</g>
<g style="fill:#840000; fill-opacity:0.0; 
stroke:#840000; stroke-width:60; stroke-opacity:1; 
stroke-linecap:round; stroke-linejoin:round;">
<text x="53150" y="78600"
textLength="550" font-size="680" lengthAdjust="spacingAndGlyphs"
text-anchor="start" opacity="0">3</text>
<path d="M53250 78070
L53560 78070
L53390 78260
L53470 78260
L53520 78280
L53540 78310
L53560 78360
L53560 78480
L53540 78530
L53520 78550
L53470 78580
L53320 78580
L53270 78550
L53250 78530
" />
</g>
<g style="fill:#840000; fill-opacity:0.0; 
stroke:#840000; stroke-width:100; stroke-opacity:1; 
stroke-linecap:round; stroke-linejoin:round;">
</g>
<g style="fill:#840000; fill-opacity:0.0; 
stroke:#840000; stroke-width:60; stroke-opacity:1; 
stroke-linecap:round; stroke-linejoin:round;">
<text x="72830" y="78600"
textLength="550" font-size="680" lengthAdjust="spacingAndGlyphs"
text-anchor="start" opacity="0">4</text>
<path d="M73200 78240
L73200 78580
" />
<path d="M73070 78040
L72950 78410
L73270 78410
" />
</g>
<g style="fill:#840000; fill-opacity:0.0; 
stroke:#840000; stroke-width:100; stroke-opacity:1; 
stroke-linecap:round; stroke-linejoin:round;">
</g>
<g style="fill:#840000; fill-opacity:0.0; 
stroke:#840000; stroke-width:60; stroke-opacity:1; 
stroke-linecap:round; stroke-linejoin:round;">
<text x="92520" y="78600"
textLength="550" font-size="680" lengthAdjust="spacingAndGlyphs"
text-anchor="start" opacity="0">5</text>
<path d="M92910 78070
L92670 78070
L92640 78310
L92670 78280
L92720 78260
L92840 78260
L92890 78280
L92910 78310
L92930 78360
L92930 78480
L92910 78530
L92890 78550
L92840 78580
L92720 78580
L92670 78550
L92640 78530
" />
</g>
<g style="fill:#840000; fill-opacity:0.0; 
stroke:#840000; stroke-width:100; stroke-opacity:1; 
stroke-linecap:round; stroke-linejoin:round;">
</g>
<g style="fill:#840000; fill-opacity:0.0; 
stroke:#840000; stroke-width:60; stroke-opacity:1; 
stroke-linecap:round; stroke-linejoin:round;">
<text x="112200" y="78600"
textLength="550" font-size="680" lengthAdjust="spacingAndGlyphs"
text-anchor="start" opacity="0">6</text>
<path d="M112570 78070
L112470 78070
L112420 78090
L112400 78110
L112350 78190
L112320 78280
L112320 78480
L112350 78530
L112370 78550
L112420 78580
L112520 78580
L112570 78550
L112590 78530
L112610 78480
L112610 78360
L112590 78310
L112570 78280
L112520 78260
L112420 78260
L112370 78280
L112350 78310
L112320 78360
" />
</g>
<g style="fill:#840000; fill-opacity:0.0; 
stroke:#840000; stroke-width:100; stroke-opacity:1; 
stroke-linecap:round; stroke-linejoin:round;">
</g>
<g style="fill:#840000; fill-opacity:0.0; 
stroke:#840000; stroke-width:60; stroke-opacity:1; 
stroke-linecap:round; stroke-linejoin:round;">
<path d="M3940 23620
L4720 23620
" />
</g>
<g style="fill:#840000; fill-opacity:0.0; 
stroke:#840000; stroke-width:100; stroke-opacity:1; 
stroke-linecap:round; stroke-linejoin:round;">
</g>
<g style="fill:#840000; fill-opacity:0.0; 
stroke:#840000; stroke-width:60; stroke-opacity:1; 
stroke-linecap:round; stroke-linejoin:round;">
<path d="M3940 43310
L4720 43310
" />
</g>
<g style="fill:#840000; fill-opacity:0.0; 
stroke:#840000; stroke-width:100; stroke-opacity:1; 
stroke-linecap:round; stroke-linejoin:round;">
</g>
<g style="fill:#840000; fill-opacity:0.0; 
stroke:#840000; stroke-width:60; stroke-opacity:1; 
stroke-linecap:round; stroke-linejoin:round;">
<path d="M3940 62990
L4720 62990
" />
</g>
<g style="fill:#840000; fill-opacity:0.0; 
stroke:#840000; stroke-width:100; stroke-opacity:1; 
stroke-linecap:round; stroke-linejoin:round;">
</g>
<g style="fill:#840000; fill-opacity:0.0; 
stroke:#840000; stroke-width:60; stroke-opacity:1; 
stroke-linecap:round; stroke-linejoin:round;">
<text x="4330" y="14030"
textLength="500" font-size="680" lengthAdjust="spacingAndGlyphs"
text-anchor="middle" opacity="0">A</text>
<path d="M4200 13860
L4450 13860
" />
<path d="M4160 14010
L4330 13500
L4500 14010
" />
</g>
<g style="fill:#840000; fill-opacity:0.0; 
stroke:#840000; stroke-width:100; stroke-opacity:1; 
stroke-linecap:round; stroke-linejoin:round;">
</g>
<g style="fill:#840000; fill-opacity:0.0; 
stroke:#840000; stroke-width:60; stroke-opacity:1; 
stroke-linecap:round; stroke-linejoin:round;">
<text x="4330" y="33710"
textLength="570" font-size="680" lengthAdjust="spacingAndGlyphs"
text-anchor="middle" opacity="0">B</text>
<path d="M4360 33420
L4430 33440
L4460 33470
L4480 33520
L4480 33590
L4460 33640
L4430 33660
L4390 33690
L4190 33690
L4190 33180
L4360 33180
L4410 33200
L4430 33220
L4460 33270
L4460 33320
L4430 33370
L4410 33390
L4360 33420
L4190 33420
" />
</g>
<g style="fill:#840000; fill-opacity:0.0; 
stroke:#840000; stroke-width:100; stroke-opacity:1; 
stroke-linecap:round; stroke-linejoin:round;">
</g>
<g style="fill:#840000; fill-opacity:0.0; 
stroke:#840000; stroke-width:60; stroke-opacity:1; 
stroke-linecap:round; stroke-linejoin:round;">
<text x="4330" y="53400"
textLength="570" font-size="680" lengthAdjust="spacingAndGlyphs"
text-anchor="middle" opacity="0">C</text>
<path d="M4480 53330
L4460 53350
L4390 53380
L4340 53380
L4260 53350
L4220 53300
L4190 53250
L4170 53160
L4170 53080
L4190 52990
L4220 52940
L4260 52890
L4340 52870
L4390 52870
L4460 52890
L4480 52910
" />
</g>
<g style="fill:#840000; fill-opacity:0.0; 
stroke:#840000; stroke-width:100; stroke-opacity:1; 
stroke-linecap:round; stroke-linejoin:round;">
</g>
<g style="fill:#840000; fill-opacity:0.0; 
stroke:#840000; stroke-width:60; stroke-opacity:1; 
stroke-linecap:round; stroke-linejoin:round;">
<text x="4330" y="73080"
textLength="570" font-size="680" lengthAdjust="spacingAndGlyphs"
text-anchor="middle" opacity="0">D</text>
<path d="M4190 73060
L4190 72550
L4310 72550
L4390 72570
L4430 72620
L4460 72670
L4480 72760
L4480 72840
L4460 72930
L4430 72980
L4390 73030
L4310 73060
L4190 73060
" />
</g>
<g style="fill:#840000; fill-opacity:0.0; 
stroke:#840000; stroke-width:100; stroke-opacity:1; 
stroke-linecap:round; stroke-linejoin:round;">
</g>
<g style="fill:#840000; fill-opacity:0.0; 
stroke:#840000; stroke-width:60; stroke-opacity:1; 
stroke-linecap:round; stroke-linejoin:round;">
<path d="M112990 23620
L112210 23620
" />
</g>
<g style="fill:#840000; fill-opacity:0.0; 
stroke:#840000; stroke-width:100; stroke-opacity:1; 
stroke-linecap:round; stroke-linejoin:round;">
</g>
<g style="fill:#840000; fill-opacity:0.0; 
stroke:#840000; stroke-width:60; stroke-opacity:1; 
stroke-linecap:round; stroke-linejoin:round;">
<path d="M112990 43310
L112210 43310
" />
</g>
<g style="fill:#840000; fill-opacity:0.0; 
stroke:#840000; stroke-width:100; stroke-opacity:1; 
stroke-linecap:round; stroke-linejoin:round;">
</g>
<g style="fill:#840000; fill-opacity:0.0; 
stroke:#840000; stroke-width:60; stroke-opacity:1; 
stroke-linecap:round; stroke-linejoin:round;">
<path d="M112990 62990
L112210 62990
" />
</g>
<g style="fill:#840000; fill-opacity:0.0; 
stroke:#840000; stroke-width:100; stroke-opacity:1; 
stroke-linecap:round; stroke-linejoin:round;">
</g>
<g style="fill:#840000; fill-opacity:0.0; 
stroke:#840000; stroke-width:60; stroke-opacity:1; 
stroke-linecap:round; stroke-linejoin:round;">
<text x="112600" y="14030"
textLength="500" font-size="680" lengthAdjust="spacingAndGlyphs"
text-anchor="middle" opacity="0">A</text>
<path d="M112470 13860
L112720 13860
" />
<path d="M112430 14010
L112600 13500
L112770 14010
" />
</g>
<g style="fill:#840000; fill-opacity:0.0; 
stroke:#840000; stroke-width:100; stroke-opacity:1; 
stroke-linecap:round; stroke-linejoin:round;">
</g>
<g style="fill:#840000; fill-opacity:0.0; 
stroke:#840000; stroke-width:60; stroke-opacity:1; 
stroke-linecap:round; stroke-linejoin:round;">
<text x="112600" y="33710"
textLength="570" font-size="680" lengthAdjust="spacingAndGlyphs"
text-anchor="middle" opacity="0">B</text>
<path d="M112630 33420
L112700 33440
L112730 33470
L112750 33520
L112750 33590
L112730 33640
L112700 33660
L112660 33690
L112460 33690
L112460 33180
L112630 33180
L112680 33200
L112700 33220
L112730 33270
L112730 33320
L112700 33370
L112680 33390
L112630 33420
L112460 33420
" />
</g>
<g style="fill:#840000; fill-opacity:0.0; 
stroke:#840000; stroke-width:100; stroke-opacity:1; 
stroke-linecap:round; stroke-linejoin:round;">
</g>
<g style="fill:#840000; fill-opacity:0.0; 
stroke:#840000; stroke-width:60; stroke-opacity:1; 
stroke-linecap:round; stroke-linejoin:round;">
<text x="112600" y="53400"
textLength="570" font-size="680" lengthAdjust="spacingAndGlyphs"
text-anchor="middle" opacity="0">C</text>
<path d="M112750 53330
L112730 53350
L112660 53380
L112610 53380
L112530 53350
L112490 53300
L112460 53250
L112440 53160
L112440 53080
L112460 52990
L112490 52940
L112530 52890
L112610 52870
L112660 52870
L112730 52890
L112750 52910
" />
</g>
<g style="fill:#840000; fill-opacity:0.0; 
stroke:#840000; stroke-width:100; stroke-opacity:1; 
stroke-linecap:round; stroke-linejoin:round;">
</g>
<g style="fill:#840000; fill-opacity:0.0; 
stroke:#840000; stroke-width:60; stroke-opacity:1; 
stroke-linecap:round; stroke-linejoin:round;">
<text x="112600" y="73080"
textLength="570" font-size="680" lengthAdjust="spacingAndGlyphs"
text-anchor="middle" opacity="0">D</text>
<path d="M112460 73060
L112460 72550
L112580 72550
L112660 72570
L112700 72620
L112730 72670
L112750 72760
L112750 72840
L112730 72930
L112700 72980
L112660 73030
L112580 73060
L112460 73060
" />
</g>
<g style="fill:#840000; fill-opacity:0.0; 
stroke:#840000; stroke-width:100; stroke-opacity:1; 
stroke-linecap:round; stroke-linejoin:round;">
</g>
<g style="fill:#840000; fill-opacity:0.0; 
stroke:#840000; stroke-width:60; stroke-opacity:1; 
stroke-linecap:round; stroke-linejoin:round;">
<text x="78740" y="76320"
textLength="2760" font-size="780" lengthAdjust="spacingAndGlyphs"
text-anchor="start" opacity="0">Date: </text>
<path d="M78910 76290
L78910 75700
L79050 75700
L79130 75730
L79190 75790
L79210 75840
L79240 75950
L79240 76040
L79210 76150
L79190 76210
L79130 76260
L79050 76290
L78910 76290
" />
<path d="M79750 76290
L79750 75980
L79720 75930
L79660 75900
L79550 75900
L79500 75930
" />
<path d="M79750 76260
L79690 76290
L79550 76290
L79500 76260
L79470 76210
L79470 76150
L79500 76100
L79550 76070
L79690 76070
L79750 76040
" />
<path d="M79950 75900
L80170 75900
" />
<path d="M80030 75700
L80030 76210
L80060 76260
L80110 76290
L80170 76290
" />
<path d="M80590 76260
L80540 76290
L80420 76290
L80370 76260
L80340 76210
L80340 75980
L80370 75930
L80420 75900
L80540 75900
L80590 75930
L80620 75980
L80620 76040
L80340 76100
" />
<path d="M80870 76240
L80900 76260
L80870 76290
L80840 76260
L80870 76240
L80870 76290
" />
<path d="M80870 75930
L80900 75950
L80870 75980
L80840 75950
L80870 75930
L80870 75980
" />
</g>
<g style="fill:#840000; fill-opacity:0.0; 
stroke:#840000; stroke-width:100; stroke-opacity:1; 
stroke-linecap:round; stroke-linejoin:round;">
</g>
<g style="fill:#840000; fill-opacity:0.0; 
stroke:#840000; stroke-width:60; stroke-opacity:1; 
stroke-linecap:round; stroke-linejoin:round;">
<path d="M69690 76580
L112210 76580
" />
</g>
<g style="fill:#840000; fill-opacity:0.0; 
stroke:#840000; stroke-width:100; stroke-opacity:1; 
stroke-linecap:round; stroke-linejoin:round;">
</g>
<g style="fill:#840000; fill-opacity:0.0; 
stroke:#840000; stroke-width:60; stroke-opacity:1; 
stroke-linecap:round; stroke-linejoin:round;">
<text x="70080" y="77420"
textLength="23240" font-size="780" lengthAdjust="spacingAndGlyphs"
text-anchor="start" opacity="0">KiCad E.D.A.  kicad 5.1.6-c6e7f7d~87~ubuntu18.04.1</text>
<path d="M70250 77390
L70250 76800
" />
<path d="M70580 77390
L70330 77050
" />
<path d="M70580 76800
L70250 77140
" />
<path d="M70840 77390
L70840 77000
" />
<path d="M70840 76800
L70810 76830
L70840 76860
L70860 76830
L70840 76800
L70840 76860
" />
<path d="M71450 77340
L71430 77360
L71340 77390
L71290 77390
L71200 77360
L71140 77310
L71120 77250
L71090 77140
L71090 77050
L71120 76940
L71140 76890
L71200 76830
L71290 76800
L71340 76800
L71430 76830
L71450 76860
" />
<path d="M71960 77390
L71960 77080
L71930 77030
L71880 77000
L71760 77000
L71710 77030
" />
<path d="M71960 77360
L71900 77390
L71760 77390
L71710 77360
L71680 77310
L71680 77250
L71710 77200
L71760 77170
L71900 77170
L71960 77140
" />
<path d="M72490 77390
L72490 76800
" />
<path d="M72490 77360
L72440 77390
L72320 77390
L72270 77360
L72240 77340
L72210 77280
L72210 77110
L72240 77050
L72270 77030
L72320 77000
L72440 77000
L72490 77030
" />
<path d="M73220 77080
L73420 77080
" />
<path d="M73500 77390
L73220 77390
L73220 76800
L73500 76800
" />
<path d="M73760 77340
L73790 77360
L73760 77390
L73730 77360
L73760 77340
L73760 77390
" />
<path d="M74040 77390
L74040 76800
L74180 76800
L74260 76830
L74320 76890
L74350 76940
L74380 77050
L74380 77140
L74350 77250
L74320 77310
L74260 77360
L74180 77390
L74040 77390
" />
<path d="M74630 77340
L74660 77360
L74630 77390
L74600 77360
L74630 77340
L74630 77390
" />
<path d="M74880 77220
L75160 77220
" />
<path d="M74830 77390
L75020 76800
L75220 77390
" />
<path d="M75420 77340
L75440 77360
L75420 77390
L75390 77360
L75420 77340
L75420 77390
" />
<path d="M76600 77390
L76600 76800
" />
<path d="M76650 77170
L76820 77390
" />
<path d="M76820 77000
L76600 77220
" />
<path d="M77070 77390
L77070 77000
" />
<path d="M77070 76800
L77040 76830
L77070 76860
L77100 76830
L77070 76800
L77070 76860
" />
<path d="M77610 77360
L77550 77390
L77440 77390
L77380 77360
L77350 77340
L77330 77280
L77330 77110
L77350 77050
L77380 77030
L77440 77000
L77550 77000
L77610 77030
" />
<path d="M78110 77390
L78110 77080
L78080 77030
L78030 77000
L77920 77000
L77860 77030
" />
<path d="M78110 77360
L78060 77390
L77920 77390
L77860 77360
L77830 77310
L77830 77250
L77860 77200
L77920 77170
L78060 77170
L78110 77140
" />
<path d="M78650 77390
L78650 76800
" />
<path d="M78650 77360
L78590 77390
L78480 77390
L78420 77360
L78390 77340
L78370 77280
L78370 77110
L78390 77050
L78420 77030
L78480 77000
L78590 77000
L78650 77030
" />
<path d="M79660 76800
L79380 76800
L79350 77080
L79380 77050
L79430 77030
L79570 77030
L79630 77050
L79660 77080
L79690 77140
L79690 77280
L79660 77340
L79630 77360
L79570 77390
L79430 77390
L79380 77360
L79350 77340
" />
<path d="M79940 77340
L79970 77360
L79940 77390
L79910 77360
L79940 77340
L79940 77390
" />
<path d="M80530 77390
L80190 77390
" />
<path d="M80360 77390
L80360 76800
L80300 76890
L80250 76940
L80190 76970
" />
<path d="M80780 77340
L80810 77360
L80780 77390
L80750 77360
L80780 77340
L80780 77390
" />
<path d="M81320 76800
L81200 76800
L81150 76830
L81120 76860
L81060 76940
L81030 77050
L81030 77280
L81060 77340
L81090 77360
L81150 77390
L81260 77390
L81320 77360
L81340 77340
L81370 77280
L81370 77140
L81340 77080
L81320 77050
L81260 77030
L81150 77030
L81090 77050
L81060 77080
L81030 77140
" />
<path d="M81620 77170
L82070 77170
" />
<path d="M82610 77360
L82550 77390
L82440 77390
L82380 77360
L82350 77340
L82330 77280
L82330 77110
L82350 77050
L82380 77030
L82440 77000
L82550 77000
L82610 77030
" />
<path d="M83110 76800
L83000 76800
L82940 76830
L82920 76860
L82860 76940
L82830 77050
L82830 77280
L82860 77340
L82890 77360
L82940 77390
L83060 77390
L83110 77360
L83140 77340
L83170 77280
L83170 77140
L83140 77080
L83110 77050
L83060 77030
L82940 77030
L82890 77050
L82860 77080
L82830 77140
" />
<path d="M83650 77360
L83590 77390
L83480 77390
L83420 77360
L83390 77310
L83390 77080
L83420 77030
L83480 77000
L83590 77000
L83650 77030
L83680 77080
L83680 77140
L83390 77200
" />
<path d="M83870 76800
L84270 76800
L84010 77390
" />
<path d="M84410 77000
L84630 77000
" />
<path d="M84490 77390
L84490 76890
L84520 76830
L84570 76800
L84630 76800
" />
<path d="M84770 76800
L85160 76800
L84910 77390
" />
<path d="M85640 77390
L85640 76800
" />
<path d="M85640 77360
L85590 77390
L85470 77390
L85420 77360
L85390 77340
L85360 77280
L85360 77110
L85390 77050
L85420 77030
L85470 77000
L85590 77000
L85640 77030
" />
<path d="M85780 76640
L86340 76640
" />
<path d="M86010 77050
L85950 77030
L85920 77000
L85890 76940
L85890 76910
L85920 76860
L85950 76830
L86010 76800
L86120 76800
L86180 76830
L86200 76860
L86230 76910
L86230 76940
L86200 77000
L86180 77030
L86120 77050
L86010 77050
L85950 77080
L85920 77110
L85890 77170
L85890 77280
L85920 77340
L85950 77360
L86010 77390
L86120 77390
L86180 77360
L86200 77340
L86230 77280
L86230 77170
L86200 77110
L86180 77080
L86120 77050
" />
<path d="M86340 76640
L86910 76640
" />
<path d="M86430 76800
L86820 76800
L86570 77390
" />
<path d="M87300 77000
L87300 77390
" />
<path d="M87050 77000
L87050 77310
L87070 77360
L87130 77390
L87220 77390
L87270 77360
L87300 77340
" />
<path d="M87580 77390
L87580 76800
" />
<path d="M87580 77030
L87640 77000
L87750 77000
L87810 77030
L87830 77050
L87860 77110
L87860 77280
L87830 77340
L87810 77360
L87750 77390
L87640 77390
L87580 77360
" />
<path d="M88370 77000
L88370 77390
" />
<path d="M88110 77000
L88110 77310
L88140 77360
L88200 77390
L88280 77390
L88340 77360
L88370 77340
" />
<path d="M88650 77000
L88650 77390
" />
<path d="M88650 77050
L88680 77030
L88730 77000
L88820 77000
L88870 77030
L88900 77080
L88900 77390
" />
<path d="M89100 77000
L89320 77000
" />
<path d="M89180 76800
L89180 77310
L89210 77360
L89270 77390
L89320 77390
" />
<path d="M89770 77000
L89770 77390
" />
<path d="M89520 77000
L89520 77310
L89550 77360
L89600 77390
L89690 77390
L89740 77360
L89770 77340
" />
<path d="M90360 77390
L90020 77390
" />
<path d="M90190 77390
L90190 76800
L90140 76890
L90080 76940
L90020 76970
" />
<path d="M90700 77050
L90640 77030
L90610 77000
L90590 76940
L90590 76910
L90610 76860
L90640 76830
L90700 76800
L90810 76800
L90870 76830
L90900 76860
L90920 76910
L90920 76940
L90900 77000
L90870 77030
L90810 77050
L90700 77050
L90640 77080
L90610 77110
L90590 77170
L90590 77280
L90610 77340
L90640 77360
L90700 77390
L90810 77390
L90870 77360
L90900 77340
L90920 77280
L90920 77170
L90900 77110
L90870 77080
L90810 77050
" />
<path d="M91180 77340
L91200 77360
L91180 77390
L91150 77360
L91180 77340
L91180 77390
" />
<path d="M91570 76800
L91630 76800
L91680 76830
L91710 76860
L91740 76910
L91770 77030
L91770 77170
L91740 77280
L91710 77340
L91680 77360
L91630 77390
L91570 77390
L91510 77360
L91490 77340
L91460 77280
L91430 77170
L91430 77030
L91460 76910
L91490 76860
L91510 76830
L91570 76800
" />
<path d="M92270 77000
L92270 77390
" />
<path d="M92130 76770
L91990 77200
L92360 77200
" />
<path d="M92580 77340
L92610 77360
L92580 77390
L92550 77360
L92580 77340
L92580 77390
" />
<path d="M93170 77390
L92830 77390
" />
<path d="M93000 77390
L93000 76800
L92950 76890
L92890 76940
L92830 76970
" />
</g>
<g style="fill:#840000; fill-opacity:0.0; 
stroke:#840000; stroke-width:100; stroke-opacity:1; 
stroke-linecap:round; stroke-linejoin:round;">
</g>
<g style="fill:#840000; fill-opacity:0.0; 
stroke:#840000; stroke-width:60; stroke-opacity:1; 
stroke-linecap:round; stroke-linejoin:round;">
<path d="M69690 75400
L112210 75400
" />
</g>
<g style="fill:#840000; fill-opacity:0.0; 
stroke:#840000; stroke-width:100; stroke-opacity:1; 
stroke-linecap:round; stroke-linejoin:round;">
</g>
<g style="fill:#840000; fill-opacity:0.0; 
stroke:#840000; stroke-width:120; stroke-opacity:1; 
stroke-linecap:round; stroke-linejoin:round;">
<text x="103540" y="76320"
textLength="2340" font-size="780" lengthAdjust="spacingAndGlyphs"
text-anchor="start" opacity="0">Rev: </text>
<path d="M104090 76290
L103890 76010
" />
<path d="M103750 76290
L103750 75700
L103980 75700
L104030 75730
L104060 75760
L104090 75810
L104090 75900
L104060 75950
L104030 75980
L103980 76010
L103750 76010
" />
<path d="M104570 76260
L104510 76290
L104400 76290
L104340 76260
L104320 76210
L104320 75980
L104340 75930
L104400 75900
L104510 75900
L104570 75930
L104600 75980
L104600 76040
L104320 76100
" />
<path d="M104790 75900
L104930 76290
L105070 75900
" />
<path d="M105300 76240
L105330 76260
L105300 76290
L105270 76260
L105300 76240
L105300 76290
" />
<path d="M105300 75930
L105330 75950
L105300 75980
L105270 75950
L105300 75930
L105300 75980
" />
</g>
<g style="fill:#840000; fill-opacity:0.0; 
stroke:#840000; stroke-width:100; stroke-opacity:1; 
stroke-linecap:round; stroke-linejoin:round;">
</g>
<g style="fill:#840000; fill-opacity:0.0; 
stroke:#840000; stroke-width:60; stroke-opacity:1; 
stroke-linecap:round; stroke-linejoin:round;">
<text x="70080" y="76320"
textLength="3780" font-size="780" lengthAdjust="spacingAndGlyphs"
text-anchor="start" opacity="0">Size: A4</text>
<path d="M70220 76260
L70300 76290
L70440 76290
L70500 76260
L70530 76240
L70550 76180
L70550 76120
L70530 76070
L70500 76040
L70440 76010
L70330 75980
L70270 75950
L70250 75930
L70220 75870
L70220 75810
L70250 75760
L70270 75730
L70330 75700
L70470 75700
L70550 75730
" />
<path d="M70810 76290
L70810 75900
" />
<path d="M70810 75700
L70780 75730
L70810 75760
L70840 75730
L70810 75700
L70810 75760
" />
<path d="M71030 75900
L71340 75900
L71030 76290
L71340 76290
" />
<path d="M71790 76260
L71730 76290
L71620 76290
L71570 76260
L71540 76210
L71540 75980
L71570 75930
L71620 75900
L71730 75900
L71790 75930
L71820 75980
L71820 76040
L71540 76100
" />
<path d="M72070 76240
L72100 76260
L72070 76290
L72040 76260
L72070 76240
L72070 76290
" />
<path d="M72070 75930
L72100 75950
L72070 75980
L72040 75950
L72070 75930
L72070 75980
" />
<path d="M72770 76120
L73060 76120
" />
<path d="M72720 76290
L72910 75700
L73110 76290
" />
<path d="M73560 75900
L73560 76290
" />
<path d="M73420 75670
L73280 76100
L73650 76100
" />
</g>
<g style="fill:#840000; fill-opacity:0.0; 
stroke:#840000; stroke-width:100; stroke-opacity:1; 
stroke-linecap:round; stroke-linejoin:round;">
</g>
<g style="fill:#840000; fill-opacity:0.0; 
stroke:#840000; stroke-width:60; stroke-opacity:1; 
stroke-linecap:round; stroke-linejoin:round;">
<text x="103540" y="77420"
textLength="3910" font-size="780" lengthAdjust="spacingAndGlyphs"
text-anchor="start" opacity="0">Id: 7/10</text>
<path d="M103710 77390
L103710 76800
" />
<path d="M104240 77390
L104240 76800
" />
<path d="M104240 77360
L104180 77390
L104070 77390
L104010 77360
L103990 77340
L103960 77280
L103960 77110
L103990 77050
L104010 77030
L104070 77000
L104180 77000
L104240 77030
" />
<path d="M104520 77340
L104550 77360
L104520 77390
L104490 77360
L104520 77340
L104520 77390
" />
<path d="M104520 77030
L104550 77050
L104520 77080
L104490 77050
L104520 77030
L104520 77080
" />
<path d="M105190 76800
L105590 76800
L105340 77390
" />
<path d="M106230 76770
L105730 77530
" />
<path d="M106740 77390
L106400 77390
" />
<path d="M106570 77390
L106570 76800
L106520 76890
L106460 76940
L106400 76970
" />
<path d="M107110 76800
L107160 76800
L107220 76830
L107250 76860
L107270 76910
L107300 77030
L107300 77170
L107270 77280
L107250 77340
L107220 77360
L107160 77390
L107110 77390
L107050 77360
L107020 77340
L106990 77280
L106960 77170
L106960 77030
L106990 76910
L107020 76860
L107050 76830
L107110 76800
" />
</g>
<g style="fill:#840000; fill-opacity:0.0; 
stroke:#840000; stroke-width:100; stroke-opacity:1; 
stroke-linecap:round; stroke-linejoin:round;">
</g>
<g style="fill:#840000; fill-opacity:0.0; 
stroke:#840000; stroke-width:60; stroke-opacity:1; 
stroke-linecap:round; stroke-linejoin:round;">
<path d="M69690 73820
L112210 73820
" />
</g>
<g style="fill:#840000; fill-opacity:0.0; 
stroke:#840000; stroke-width:100; stroke-opacity:1; 
stroke-linecap:round; stroke-linejoin:round;">
</g>
<g style="fill:#840000; fill-opacity:0.0; 
stroke:#840000; stroke-width:160; stroke-opacity:1; 
stroke-linecap:round; stroke-linejoin:round;">
<text x="70080" y="74920"
textLength="3710" font-size="1050" lengthAdjust="spacingAndGlyphs"
text-anchor="start" opacity="0">Title: </text>
<path d="M70360 74090
L70810 74090
" />
<path d="M70480 74880
L70580 74090
" />
<path d="M70970 74880
L71040 74360
" />
<path d="M71070 74090
L71030 74130
L71060 74170
L71110 74130
L71070 74090
L71060 74170
" />
<path d="M71300 74360
L71600 74360
" />
<path d="M71450 74090
L71360 74770
L71390 74840
L71460 74880
L71540 74880
" />
<path d="M71910 74880
L71840 74840
L71820 74770
L71900 74090
" />
<path d="M72520 74840
L72440 74880
L72290 74880
L72220 74840
L72190 74770
L72230 74470
L72280 74390
L72360 74360
L72510 74360
L72580 74390
L72610 74470
L72600 74540
L72210 74620
" />
<path d="M72900 74810
L72930 74840
L72890 74880
L72860 74840
L72900 74810
L72890 74880
" />
<path d="M72950 74390
L72990 74430
L72940 74470
L72910 74430
L72950 74390
L72940 74470
" />
</g>
<g style="fill:#840000; fill-opacity:0.0; 
stroke:#840000; stroke-width:100; stroke-opacity:1; 
stroke-linecap:round; stroke-linejoin:round;">
</g>
<g style="fill:#840000; fill-opacity:0.0; 
stroke:#840000; stroke-width:60; stroke-opacity:1; 
stroke-linecap:round; stroke-linejoin:round;">
<text x="70080" y="73400"
textLength="9480" font-size="780" lengthAdjust="spacingAndGlyphs"
text-anchor="start" opacity="0">File: SignalRelay.sch</text>
<path d="M70440 73060
L70250 73060
" />
<path d="M70250 73370
L70250 72780
L70530 72780
" />
<path d="M70750 73370
L70750 72980
" />
<path d="M70750 72780
L70720 72810
L70750 72840
L70780 72810
L70750 72780
L70750 72840
" />
<path d="M71120 73370
L71060 73340
L71030 73290
L71030 72780
" />
<path d="M71570 73340
L71510 73370
L71400 73370
L71340 73340
L71310 73290
L71310 73060
L71340 73010
L71400 72980
L71510 72980
L71570 73010
L71590 73060
L71590 73120
L71310 73180
" />
<path d="M71850 73320
L71880 73340
L71850 73370
L71820 73340
L71850 73320
L71850 73370
" />
<path d="M71850 73010
L71880 73030
L71850 73060
L71820 73030
L71850 73010
L71850 73060
" />
<path d="M72550 73340
L72630 73370
L72770 73370
L72830 73340
L72860 73320
L72890 73260
L72890 73200
L72860 73150
L72830 73120
L72770 73090
L72660 73060
L72610 73030
L72580 73010
L72550 72950
L72550 72890
L72580 72840
L72610 72810
L72660 72780
L72800 72780
L72890 72810
" />
<path d="M73140 73370
L73140 72980
" />
<path d="M73140 72780
L73110 72810
L73140 72840
L73170 72810
L73140 72780
L73140 72840
" />
<path d="M73670 72980
L73670 73460
L73650 73510
L73620 73540
L73560 73570
L73480 73570
L73420 73540
" />
<path d="M73670 73340
L73620 73370
L73500 73370
L73450 73340
L73420 73320
L73390 73260
L73390 73090
L73420 73030
L73450 73010
L73500 72980
L73620 72980
L73670 73010
" />
<path d="M73950 72980
L73950 73370
" />
<path d="M73950 73030
L73980 73010
L74040 72980
L74120 72980
L74180 73010
L74210 73060
L74210 73370
" />
<path d="M74740 73370
L74740 73060
L74710 73010
L74660 72980
L74540 72980
L74490 73010
" />
<path d="M74740 73340
L74680 73370
L74540 73370
L74490 73340
L74460 73290
L74460 73230
L74490 73180
L74540 73150
L74680 73150
L74740 73120
" />
<path d="M75110 73370
L75050 73340
L75020 73290
L75020 72780
" />
<path d="M75670 73370
L75470 73090
" />
<path d="M75330 73370
L75330 72780
L75560 72780
L75610 72810
L75640 72840
L75670 72890
L75670 72980
L75640 73030
L75610 73060
L75560 73090
L75330 73090
" />
<path d="M76150 73340
L76090 73370
L75980 73370
L75920 73340
L75890 73290
L75890 73060
L75920 73010
L75980 72980
L76090 72980
L76150 73010
L76170 73060
L76170 73120
L75890 73180
" />
<path d="M76510 73370
L76450 73340
L76430 73290
L76430 72780
" />
<path d="M76990 73370
L76990 73060
L76960 73010
L76900 72980
L76790 72980
L76740 73010
" />
<path d="M76990 73340
L76930 73370
L76790 73370
L76740 73340
L76710 73290
L76710 73230
L76740 73180
L76790 73150
L76930 73150
L76990 73120
" />
<path d="M77210 72980
L77350 73370
" />
<path d="M77490 72980
L77350 73370
L77300 73510
L77270 73540
L77210 73570
" />
<path d="M77720 73320
L77750 73340
L77720 73370
L77690 73340
L77720 73320
L77720 73370
" />
<path d="M77970 73340
L78030 73370
L78140 73370
L78200 73340
L78220 73290
L78220 73260
L78200 73200
L78140 73180
L78060 73180
L78000 73150
L77970 73090
L77970 73060
L78000 73010
L78060 72980
L78140 72980
L78200 73010
" />
<path d="M78730 73340
L78670 73370
L78560 73370
L78510 73340
L78480 73320
L78450 73260
L78450 73090
L78480 73030
L78510 73010
L78560 72980
L78670 72980
L78730 73010
" />
<path d="M78980 73370
L78980 72780
" />
<path d="M79240 73370
L79240 73060
L79210 73010
L79150 72980
L79070 72980
L79010 73010
L78980 73030
" />
</g>
<g style="fill:#840000; fill-opacity:0.0; 
stroke:#840000; stroke-width:100; stroke-opacity:1; 
stroke-linecap:round; stroke-linejoin:round;">
</g>
<g style="fill:#840000; fill-opacity:0.0; 
stroke:#840000; stroke-width:60; stroke-opacity:1; 
stroke-linecap:round; stroke-linejoin:round;">
<path d="M69690 71460
L112210 71460
" />
</g>
<g style="fill:#840000; fill-opacity:0.0; 
stroke:#840000; stroke-width:100; stroke-opacity:1; 
stroke-linecap:round; stroke-linejoin:round;">
</g>
<g style="fill:#840000; fill-opacity:0.0; 
stroke:#840000; stroke-width:60; stroke-opacity:1; 
stroke-linecap:round; stroke-linejoin:round;">
<text x="70080" y="72340"
textLength="9610" font-size="780" lengthAdjust="spacingAndGlyphs"
text-anchor="start" opacity="0">Sheet: /SignalRelay/</text>
<path d="M70220 72280
L70300 72310
L70440 72310
L70500 72280
L70530 72260
L70550 72200
L70550 72140
L70530 72090
L70500 72060
L70440 72030
L70330 72000
L70270 71970
L70250 71950
L70220 71890
L70220 71830
L70250 71780
L70270 71750
L70330 71720
L70470 71720
L70550 71750
" />
<path d="M70810 72310
L70810 71720
" />
<path d="M71060 72310
L71060 72000
L71030 71950
L70980 71920
L70890 71920
L70840 71950
L70810 71970
" />
<path d="M71570 72280
L71510 72310
L71400 72310
L71340 72280
L71310 72230
L71310 72000
L71340 71950
L71400 71920
L71510 71920
L71570 71950
L71590 72000
L71590 72060
L71310 72120
" />
<path d="M72070 72280
L72020 72310
L71900 72310
L71850 72280
L71820 72230
L71820 72000
L71850 71950
L71900 71920
L72020 71920
L72070 71950
L72100 72000
L72100 72060
L71820 72120
" />
<path d="M72270 71920
L72490 71920
" />
<path d="M72350 71720
L72350 72230
L72380 72280
L72440 72310
L72490 72310
" />
<path d="M72690 72260
L72720 72280
L72690 72310
L72660 72280
L72690 72260
L72690 72310
" />
<path d="M72690 71950
L72720 71970
L72690 72000
L72660 71970
L72690 71950
L72690 72000
" />
<path d="M73840 71690
L73340 72450
" />
<path d="M74010 72280
L74090 72310
L74240 72310
L74290 72280
L74320 72260
L74350 72200
L74350 72140
L74320 72090
L74290 72060
L74240 72030
L74120 72000
L74070 71970
L74040 71950
L74010 71890
L74010 71830
L74040 71780
L74070 71750
L74120 71720
L74260 71720
L74350 71750
" />
<path d="M74600 72310
L74600 71920
" />
<path d="M74600 71720
L74570 71750
L74600 71780
L74630 71750
L74600 71720
L74600 71780
" />
<path d="M75130 71920
L75130 72400
L75110 72450
L75080 72480
L75020 72510
L74940 72510
L74880 72480
" />
<path d="M75130 72280
L75080 72310
L74970 72310
L74910 72280
L74880 72260
L74850 72200
L74850 72030
L74880 71970
L74910 71950
L74970 71920
L75080 71920
L75130 71950
" />
<path d="M75420 71920
L75420 72310
" />
<path d="M75420 71970
L75440 71950
L75500 71920
L75580 71920
L75640 71950
L75670 72000
L75670 72310
" />
<path d="M76200 72310
L76200 72000
L76170 71950
L76120 71920
L76010 71920
L75950 71950
" />
<path d="M76200 72280
L76150 72310
L76010 72310
L75950 72280
L75920 72230
L75920 72170
L75950 72120
L76010 72090
L76150 72090
L76200 72060
" />
<path d="M76570 72310
L76510 72280
L76480 72230
L76480 71720
" />
<path d="M77130 72310
L76930 72030
" />
<path d="M76790 72310
L76790 71720
L77020 71720
L77070 71750
L77100 71780
L77130 71830
L77130 71920
L77100 71970
L77070 72000
L77020 72030
L76790 72030
" />
<path d="M77610 72280
L77550 72310
L77440 72310
L77380 72280
L77350 72230
L77350 72000
L77380 71950
L77440 71920
L77550 71920
L77610 71950
L77630 72000
L77630 72060
L77350 72120
" />
<path d="M77970 72310
L77920 72280
L77890 72230
L77890 71720
" />
<path d="M78450 72310
L78450 72000
L78420 71950
L78370 71920
L78250 71920
L78200 71950
" />
<path d="M78450 72280
L78390 72310
L78250 72310
L78200 72280
L78170 72230
L78170 72170
L78200 72120
L78250 72090
L78390 72090
L78450 72060
" />
<path d="M78670 71920
L78810 72310
" />
<path d="M78960 71920
L78810 72310
L78760 72450
L78730 72480
L78670 72510
" />
<path d="M79600 71690
L79100 72450
" />
</g>
<g style="fill:#840000; fill-opacity:0.0; 
stroke:#840000; stroke-width:100; stroke-opacity:1; 
stroke-linecap:round; stroke-linejoin:round;">
</g>
<g style="fill:#840000; fill-opacity:0.0; 
stroke:#840000; stroke-width:60; stroke-opacity:1; 
stroke-linecap:round; stroke-linejoin:round;">
<path d="M77560 75400
L77560 76580
" />
</g>
<g style="fill:#840000; fill-opacity:0.0; 
stroke:#840000; stroke-width:100; stroke-opacity:1; 
stroke-linecap:round; stroke-linejoin:round;">
</g>
<g style="fill:#840000; fill-opacity:0.0; 
stroke:#840000; stroke-width:60; stroke-opacity:1; 
stroke-linecap:round; stroke-linejoin:round;">
<path d="M102760 75400
L102760 77960
" />
</g>
<g style="fill:#840000; fill-opacity:0.0; 
stroke:#840000; stroke-width:0; stroke-opacity:1; 
stroke-linecap:round; stroke-linejoin:round;">
<g >
</g>
<g style="fill:#840000; fill-opacity:0.0; 
stroke:#840000; stroke-width:60; stroke-opacity:1; 
stroke-linecap:round; stroke-linejoin:round;">
<path style="fill:#840000; fill-opacity:0.0; 
stroke:#840000; stroke-width:60; stroke-opacity:1; 
stroke-linecap:round; stroke-linejoin:round;fill:none"
d="M 50250,38500
50250,39000
50750,39000
50250,39500
49750,39000
50250,39000
" /> 
</g>
<g style="fill:#008484; fill-opacity:0.0; 
stroke:#008484; stroke-width:60; stroke-opacity:1; 
stroke-linecap:round; stroke-linejoin:round;">
<text x="50300" y="40500"
textLength="2060" font-size="660" lengthAdjust="spacingAndGlyphs"
text-anchor="middle" opacity="0">GNDS</text>
<path d="M49680 40000
L49630 39970
L49560 39970
L49490 40000
L49440 40040
L49410 40090
L49390 40190
L49390 40260
L49410 40350
L49440 40400
L49490 40450
L49560 40470
L49600 40470
L49680 40450
L49700 40420
L49700 40260
L49600 40260
" />
<path d="M49910 40470
L49910 39970
L50200 40470
L50200 39970
" />
<path d="M50440 40470
L50440 39970
L50560 39970
L50630 40000
L50680 40040
L50700 40090
L50720 40190
L50720 40260
L50700 40350
L50680 40400
L50630 40450
L50560 40470
L50440 40470
" />
<path d="M50910 40450
L50990 40470
L51100 40470
L51150 40450
L51180 40420
L51200 40380
L51200 40330
L51180 40280
L51150 40260
L51100 40230
L51010 40210
L50960 40190
L50940 40160
L50910 40110
L50910 40070
L50940 40020
L50960 40000
L51010 39970
L51130 39970
L51200 40000
" />
</g>
</g>
<g style="fill:#008484; fill-opacity:0.0; 
stroke:#008484; stroke-width:0; stroke-opacity:1; 
stroke-linecap:round; stroke-linejoin:round;">
<g >
</g>
<g style="fill:#840000; fill-opacity:0.0; 
stroke:#840000; stroke-width:0; stroke-opacity:1; 
stroke-linecap:round; stroke-linejoin:round;">
</g>
<g style="fill:#FFFFC2; fill-opacity:0.0; 
stroke:#FFFFC2; stroke-width:0; stroke-opacity:1; 
stroke-linecap:round; stroke-linejoin:round;">
</g>
<g style="fill:#FFFFC2; fill-opacity:0.6; 
stroke:#FFFFC2; stroke-width:0; stroke-opacity:1; 
stroke-linecap:round; stroke-linejoin:round;">
<rect x="48250" y="30000" width="12000" height="4000" rx="0" />
</g>
<g style="fill:#840000; fill-opacity:0.6; 
stroke:#840000; stroke-width:0; stroke-opacity:1; 
stroke-linecap:round; stroke-linejoin:round;">
</g>
<g style="fill:#840000; fill-opacity:0.0; 
stroke:#840000; stroke-width:100; stroke-opacity:1; 
stroke-linecap:round; stroke-linejoin:round;">
<rect x="48250" y="30000" width="12000" height="4000" rx="0" />
</g>
<g style="fill:#840000; fill-opacity:0.0; 
stroke:#840000; stroke-width:60; stroke-opacity:1; 
stroke-linecap:round; stroke-linejoin:round;">
<text x="50250" y="33320"
textLength="1680" font-size="660" lengthAdjust="spacingAndGlyphs"
text-anchor="middle" opacity="0">+ -</text>
<path d="M49550 33100
L49940 33100
" />
<path d="M49750 33290
L49750 32910
" />
<path d="M50550 33100
L50940 33100
" />
<text x="50250" y="31120"
textLength="1680" font-size="660" lengthAdjust="spacingAndGlyphs"
text-anchor="middle" opacity="0">- +</text>
<path d="M49550 30900
L49940 30900
" />
<path d="M50550 30900
L50940 30900
" />
<path d="M50750 31090
L50750 30710
" />
</g>
<g style="fill:#840000; fill-opacity:0.0; 
stroke:#840000; stroke-width:100; stroke-opacity:1; 
stroke-linecap:round; stroke-linejoin:round;">
<rect x="48250" y="30000" width="12000" height="4000" rx="0" />
<rect x="49000" y="31250" width="2500" height="1500" rx="0" />
<path style="fill:#840000; fill-opacity:0.0; 
stroke:#840000; stroke-width:100; stroke-opacity:1; 
stroke-linecap:round; stroke-linejoin:round;fill:none"
d="M 49250,32750
51250,31250
" /> 
</g>
<g style="fill:#840000; fill-opacity:0.0; 
stroke:#840000; stroke-width:60; stroke-opacity:1; 
stroke-linecap:round; stroke-linejoin:round;">
<path style="fill:#840000; fill-opacity:0.0; 
stroke:#840000; stroke-width:60; stroke-opacity:1; 
stroke-linecap:round; stroke-linejoin:round;fill:none"
d="M 50250,34000
50250,32750
" /> 
<path style="fill:#840000; fill-opacity:0.0; 
stroke:#840000; stroke-width:60; stroke-opacity:1; 
stroke-linecap:round; stroke-linejoin:round;fill:none"
d="M 50250,30000
50250,31250
" /> 
</g>
<g style="fill:#840000; fill-opacity:0.0; 
stroke:#840000; stroke-width:100; stroke-opacity:1; 
stroke-linecap:round; stroke-linejoin:round;">
<path style="fill:#840000; fill-opacity:0.0; 
stroke:#840000; stroke-width:100; stroke-opacity:1; 
stroke-linecap:round; stroke-linejoin:round;fill:none"
d="M 51500,32000
51750,32000
" /> 
<path style="fill:#840000; fill-opacity:0.0; 
stroke:#840000; stroke-width:100; stroke-opacity:1; 
stroke-linecap:round; stroke-linejoin:round;fill:none"
d="M 52000,32000
52250,32000
" /> 
<path style="fill:#840000; fill-opacity:0.0; 
stroke:#840000; stroke-width:100; stroke-opacity:1; 
stroke-linecap:round; stroke-linejoin:round;fill:none"
d="M 52500,32000
52750,32000
" /> 
<path style="fill:#840000; fill-opacity:0.0; 
stroke:#840000; stroke-width:100; stroke-opacity:1; 
stroke-linecap:round; stroke-linejoin:round;fill:none"
d="M 53000,32000
53250,32000
" /> 
<path style="fill:#840000; fill-opacity:0.0; 
stroke:#840000; stroke-width:100; stroke-opacity:1; 
stroke-linecap:round; stroke-linejoin:round;fill:none"
d="M 53500,32000
53750,32000
" /> 
<path style="fill:#840000; fill-opacity:0.0; 
stroke:#840000; stroke-width:100; stroke-opacity:1; 
stroke-linecap:round; stroke-linejoin:round;fill:none"
d="M 54000,32000
54250,32000
" /> 
</g>
<g style="fill:#840000; fill-opacity:0.0; 
stroke:#840000; stroke-width:200; stroke-opacity:1; 
stroke-linecap:round; stroke-linejoin:round;">
<path style="fill:#840000; fill-opacity:0.0; 
stroke:#840000; stroke-width:200; stroke-opacity:1; 
stroke-linecap:round; stroke-linejoin:round;fill:none"
d="M 54250,33000
53500,30500
" /> 
</g>
<g style="fill:#840000; fill-opacity:0.0; 
stroke:#840000; stroke-width:60; stroke-opacity:1; 
stroke-linecap:round; stroke-linejoin:round;">
<path style="fill:#840000; fill-opacity:0.0; 
stroke:#840000; stroke-width:60; stroke-opacity:1; 
stroke-linecap:round; stroke-linejoin:round;fill:none"
d="M 54250,33000
54250,34000
" /> 
</g>
<g style="fill:#840000; fill-opacity:0.0; 
stroke:#840000; stroke-width:100; stroke-opacity:1; 
stroke-linecap:round; stroke-linejoin:round;">
<path style="fill:#840000; fill-opacity:0.0; 
stroke:#840000; stroke-width:100; stroke-opacity:1; 
stroke-linecap:round; stroke-linejoin:round;fill:none"
d="M 54500,32000
54750,32000
" /> 
<path style="fill:#840000; fill-opacity:0.0; 
stroke:#840000; stroke-width:100; stroke-opacity:1; 
stroke-linecap:round; stroke-linejoin:round;fill:none"
d="M 55000,32000
55250,32000
" /> 
<path style="fill:#840000; fill-opacity:0.0; 
stroke:#840000; stroke-width:100; stroke-opacity:1; 
stroke-linecap:round; stroke-linejoin:round;fill:none"
d="M 55500,32000
55750,32000
" /> 
<path style="fill:#840000; fill-opacity:0.0; 
stroke:#840000; stroke-width:100; stroke-opacity:1; 
stroke-linecap:round; stroke-linejoin:round;fill:none"
d="M 56000,32000
56250,32000
" /> 
<path style="fill:#840000; fill-opacity:0.0; 
stroke:#840000; stroke-width:100; stroke-opacity:1; 
stroke-linecap:round; stroke-linejoin:round;fill:none"
d="M 56500,32000
56750,32000
" /> 
<path style="fill:#840000; fill-opacity:0.0; 
stroke:#840000; stroke-width:100; stroke-opacity:1; 
stroke-linecap:round; stroke-linejoin:round;fill:none"
d="M 57000,32000
57250,32000
" /> 
<path style="fill:#840000; fill-opacity:0.0; 
stroke:#840000; stroke-width:100; stroke-opacity:1; 
stroke-linecap:round; stroke-linejoin:round;fill:none"
d="M 57500,32000
57750,32000
" /> 
</g>
<g style="fill:#840000; fill-opacity:0.0; 
stroke:#840000; stroke-width:200; stroke-opacity:1; 
stroke-linecap:round; stroke-linejoin:round;">
<path style="fill:#840000; fill-opacity:0.0; 
stroke:#840000; stroke-width:200; stroke-opacity:1; 
stroke-linecap:round; stroke-linejoin:round;fill:none"
d="M 58250,33000
57500,30500
" /> 
</g>
<g style="fill:#840000; fill-opacity:0.0; 
stroke:#840000; stroke-width:60; stroke-opacity:1; 
stroke-linecap:round; stroke-linejoin:round;">
<path style="fill:#840000; fill-opacity:0.0; 
stroke:#840000; stroke-width:60; stroke-opacity:1; 
stroke-linecap:round; stroke-linejoin:round;fill:none"
d="M 58250,33000
58250,34000
" /> 
</g>
<g style="fill:#840000; fill-opacity:1.0; 
stroke:#840000; stroke-width:60; stroke-opacity:1; 
stroke-linecap:round; stroke-linejoin:round;">
<path style="fill:#840000; fill-opacity:1.0; 
stroke:#840000; stroke-width:60; stroke-opacity:1; 
stroke-linecap:round; stroke-linejoin:round;fill-rule:evenodd;"
d="M 53250,30000
53250,31000
53500,30750
53250,30500
" /> 
</g>
<g style="fill:#840000; fill-opacity:0.0; 
stroke:#840000; stroke-width:60; stroke-opacity:1; 
stroke-linecap:round; stroke-linejoin:round;">
<path style="fill:#840000; fill-opacity:0.0; 
stroke:#840000; stroke-width:60; stroke-opacity:1; 
stroke-linecap:round; stroke-linejoin:round;fill:none"
d="M 55250,30000
55250,31000
55000,30750
55250,30500
" /> 
</g>
<g style="fill:#840000; fill-opacity:1.0; 
stroke:#840000; stroke-width:60; stroke-opacity:1; 
stroke-linecap:round; stroke-linejoin:round;">
<path style="fill:#840000; fill-opacity:1.0; 
stroke:#840000; stroke-width:60; stroke-opacity:1; 
stroke-linecap:round; stroke-linejoin:round;fill-rule:evenodd;"
d="M 57250,30000
57250,31000
57500,30750
57250,30500
" /> 
</g>
<g style="fill:#840000; fill-opacity:0.0; 
stroke:#840000; stroke-width:60; stroke-opacity:1; 
stroke-linecap:round; stroke-linejoin:round;">
<path style="fill:#840000; fill-opacity:0.0; 
stroke:#840000; stroke-width:60; stroke-opacity:1; 
stroke-linecap:round; stroke-linejoin:round;fill:none"
d="M 59250,30000
59250,31000
59000,30750
59250,30500
" /> 
<path d="M50250 30000
L50250 29000
" />
<g transform="rotate(-90 50150 29500)">
<text x="50150" y="29500"
textLength="540" font-size="660" lengthAdjust="spacingAndGlyphs"
text-anchor="middle" opacity="0">1</text>
</g>
<path d="M50120 29350
L50120 29640
" />
<path d="M50120 29500
L49620 29500
L49690 29540
L49740 29590
L49760 29640
" />
<path d="M53250 30000
L53250 29000
" />
<g transform="rotate(-90 53150 29500)">
<text x="53150" y="29500"
textLength="540" font-size="660" lengthAdjust="spacingAndGlyphs"
text-anchor="middle" opacity="0">2</text>
</g>
<path d="M52670 29640
L52650 29610
L52620 29570
L52620 29450
L52650 29400
L52670 29380
L52720 29350
L52760 29350
L52840 29380
L53120 29660
L53120 29350
" />
<path d="M54250 34000
L54250 35000
" />
<g transform="rotate(-90 54150 34500)">
<text x="54150" y="34500"
textLength="540" font-size="660" lengthAdjust="spacingAndGlyphs"
text-anchor="middle" opacity="0">3</text>
</g>
<path d="M53620 34660
L53620 34350
L53810 34520
L53810 34450
L53840 34400
L53860 34380
L53910 34350
L54030 34350
L54070 34380
L54100 34400
L54120 34450
L54120 34590
L54100 34640
L54070 34660
" />
<path d="M55250 30000
L55250 29000
" />
<g transform="rotate(-90 55150 29500)">
<text x="55150" y="29500"
textLength="540" font-size="660" lengthAdjust="spacingAndGlyphs"
text-anchor="middle" opacity="0">4</text>
</g>
<path d="M54790 29400
L55120 29400
" />
<path d="M54600 29520
L54950 29640
L54950 29330
" />
<path d="M59250 30000
L59250 29000
" />
<g transform="rotate(-90 59150 29500)">
<text x="59150" y="29500"
textLength="540" font-size="660" lengthAdjust="spacingAndGlyphs"
text-anchor="middle" opacity="0">5</text>
</g>
<path d="M58620 29380
L58620 29610
L58860 29640
L58840 29610
L58810 29570
L58810 29450
L58840 29400
L58860 29380
L58910 29350
L59030 29350
L59070 29380
L59100 29400
L59120 29450
L59120 29570
L59100 29610
L59070 29640
" />
<path d="M58250 34000
L58250 35000
" />
<g transform="rotate(-90 58150 34500)">
<text x="58150" y="34500"
textLength="540" font-size="660" lengthAdjust="spacingAndGlyphs"
text-anchor="middle" opacity="0">6</text>
</g>
<path d="M57620 34400
L57620 34500
L57650 34540
L57670 34570
L57740 34610
L57840 34640
L58030 34640
L58070 34610
L58100 34590
L58120 34540
L58120 34450
L58100 34400
L58070 34380
L58030 34350
L57910 34350
L57860 34380
L57840 34400
L57810 34450
L57810 34540
L57840 34590
L57860 34610
L57910 34640
" />
<path d="M57250 30000
L57250 29000
" />
<g transform="rotate(-90 57150 29500)">
<text x="57150" y="29500"
textLength="540" font-size="660" lengthAdjust="spacingAndGlyphs"
text-anchor="middle" opacity="0">7</text>
</g>
<path d="M56620 29660
L56620 29330
L57120 29540
" />
<path d="M50250 34000
L50250 35000
" />
<g transform="rotate(-90 50150 34500)">
<text x="50150" y="34500"
textLength="540" font-size="660" lengthAdjust="spacingAndGlyphs"
text-anchor="middle" opacity="0">8</text>
</g>
<path d="M49840 34540
L49810 34590
L49790 34610
L49740 34640
L49720 34640
L49670 34610
L49650 34590
L49620 34540
L49620 34450
L49650 34400
L49670 34380
L49720 34350
L49740 34350
L49790 34380
L49810 34400
L49840 34450
L49840 34540
L49860 34590
L49880 34610
L49930 34640
L50030 34640
L50070 34610
L50100 34590
L50120 34540
L50120 34450
L50100 34400
L50070 34380
L50030 34350
L49930 34350
L49880 34380
L49860 34400
L49840 34450
" />
</g>
<g style="fill:#008484; fill-opacity:0.0; 
stroke:#008484; stroke-width:60; stroke-opacity:1; 
stroke-linecap:round; stroke-linejoin:round;">
<text x="62770" y="33020"
textLength="1040" font-size="660" lengthAdjust="spacingAndGlyphs"
text-anchor="middle" opacity="0">K1</text>
<path d="M62400 32990
L62400 32490
" />
<path d="M62680 32990
L62470 32710
" />
<path d="M62680 32490
L62400 32780
" />
<path d="M63160 32990
L62870 32990
" />
<path d="M63020 32990
L63020 32490
L62970 32560
L62920 32610
L62870 32630
" />
<text x="63790" y="32020"
textLength="4080" font-size="660" lengthAdjust="spacingAndGlyphs"
text-anchor="middle" opacity="0">HFD4/5-S</text>
<path d="M61890 31990
L61890 31490
" />
<path d="M61890 31730
L62180 31730
" />
<path d="M62180 31990
L62180 31490
" />
<path d="M62580 31730
L62420 31730
" />
<path d="M62420 31990
L62420 31490
L62650 31490
" />
<path d="M62840 31990
L62840 31490
L62960 31490
L63040 31520
L63080 31560
L63110 31610
L63130 31710
L63130 31780
L63110 31870
L63080 31920
L63040 31970
L62960 31990
L62840 31990
" />
<path d="M63560 31660
L63560 31990
" />
<path d="M63440 31470
L63320 31820
L63630 31820
" />
<path d="M64180 31470
L63750 32110
" />
<path d="M64580 31490
L64340 31490
L64320 31730
L64340 31710
L64390 31680
L64510 31680
L64560 31710
L64580 31730
L64610 31780
L64610 31900
L64580 31940
L64560 31970
L64510 31990
L64390 31990
L64340 31970
L64320 31940
" />
<path d="M64820 31800
L65200 31800
" />
<path d="M65420 31970
L65490 31990
L65610 31990
L65650 31970
L65680 31940
L65700 31900
L65700 31850
L65680 31800
L65650 31780
L65610 31750
L65510 31730
L65460 31710
L65440 31680
L65420 31630
L65420 31590
L65440 31540
L65460 31520
L65510 31490
L65630 31490
L65700 31520
" />
</g>
</g>
<g style="fill:#008484; fill-opacity:0.0; 
stroke:#008484; stroke-width:0; stroke-opacity:1; 
stroke-linecap:round; stroke-linejoin:round;">
<g >
</g>
<g style="fill:#840000; fill-opacity:0.0; 
stroke:#840000; stroke-width:0; stroke-opacity:1; 
stroke-linecap:round; stroke-linejoin:round;">
</g>
<g style="fill:#840000; fill-opacity:0.0; 
stroke:#840000; stroke-width:100; stroke-opacity:1; 
stroke-linecap:round; stroke-linejoin:round;">
<path style="fill:#840000; fill-opacity:0.0; 
stroke:#840000; stroke-width:100; stroke-opacity:1; 
stroke-linecap:round; stroke-linejoin:round;fill:none"
d="M 43000,32500
44000,32500
" /> 
</g>
<g style="fill:#840000; fill-opacity:0.0; 
stroke:#840000; stroke-width:60; stroke-opacity:1; 
stroke-linecap:round; stroke-linejoin:round;">
<path style="fill:#840000; fill-opacity:0.0; 
stroke:#840000; stroke-width:60; stroke-opacity:1; 
stroke-linecap:round; stroke-linejoin:round;fill:none"
d="M 43500,31500
43500,32500
" /> 
</g>
<g style="fill:#840000; fill-opacity:0.0; 
stroke:#840000; stroke-width:100; stroke-opacity:1; 
stroke-linecap:round; stroke-linejoin:round;">
<path style="fill:#840000; fill-opacity:0.0; 
stroke:#840000; stroke-width:100; stroke-opacity:1; 
stroke-linecap:round; stroke-linejoin:round;fill:none"
d="M 43000,31500
44000,31500
43500,32500
Z" /> 
</g>
<g style="fill:#840000; fill-opacity:0.0; 
stroke:#840000; stroke-width:60; stroke-opacity:1; 
stroke-linecap:round; stroke-linejoin:round;">
<path d="M43500 32500
L43500 33500
" />
<path d="M43500 31500
L43500 30500
" />
</g>
<g style="fill:#008484; fill-opacity:0.0; 
stroke:#008484; stroke-width:60; stroke-opacity:1; 
stroke-linecap:round; stroke-linejoin:round;">
<text x="41770" y="32720"
textLength="1040" font-size="660" lengthAdjust="spacingAndGlyphs"
text-anchor="middle" opacity="0">D2</text>
<path d="M41400 32690
L41400 32190
L41520 32190
L41590 32220
L41630 32260
L41660 32310
L41680 32410
L41680 32480
L41660 32570
L41630 32620
L41590 32670
L41520 32690
L41400 32690
" />
<path d="M41870 32240
L41900 32220
L41940 32190
L42060 32190
L42110 32220
L42130 32240
L42160 32290
L42160 32330
L42130 32410
L41850 32690
L42160 32690
" />
<text x="40730" y="31720"
textLength="2960" font-size="660" lengthAdjust="spacingAndGlyphs"
text-anchor="middle" opacity="0">1N4148</text>
<path d="M39650 31690
L39370 31690
" />
<path d="M39510 31690
L39510 31190
L39460 31260
L39420 31310
L39370 31330
" />
<path d="M39870 31690
L39870 31190
L40150 31690
L40150 31190
" />
<path d="M40610 31360
L40610 31690
" />
<path d="M40490 31170
L40370 31520
L40680 31520
" />
<path d="M41130 31690
L40840 31690
" />
<path d="M40990 31690
L40990 31190
L40940 31260
L40890 31310
L40840 31330
" />
<path d="M41560 31360
L41560 31690
" />
<path d="M41440 31170
L41320 31520
L41630 31520
" />
<path d="M41890 31410
L41840 31380
L41820 31360
L41800 31310
L41800 31290
L41820 31240
L41840 31220
L41890 31190
L41990 31190
L42030 31220
L42060 31240
L42080 31290
L42080 31310
L42060 31360
L42030 31380
L41990 31410
L41890 31410
L41840 31430
L41820 31450
L41800 31500
L41800 31600
L41820 31640
L41840 31670
L41890 31690
L41990 31690
L42030 31670
L42060 31640
L42080 31600
L42080 31500
L42060 31450
L42030 31430
L41990 31410
" />
</g>
</g>
<g style="fill:#008484; fill-opacity:0.0; 
stroke:#008484; stroke-width:60; stroke-opacity:1; 
stroke-linecap:round; stroke-linejoin:round;">
</g>
<g style="fill:#008400; fill-opacity:0.0; 
stroke:#008400; stroke-width:60; stroke-opacity:1; 
stroke-linecap:round; stroke-linejoin:round;">
<path d="M54250 35000
L54250 43750
" />
<path d="M54250 43750
L25250 43750
" />
<path d="M50250 29000
L50250 27500
" />
<path d="M53250 29000
L53250 27000
" />
<path d="M53250 27000
L57250 27000
" />
<path d="M57250 27000
L57250 29000
" />
<path d="M58250 35000
L58250 43750
" />
<path d="M58250 43750
L88500 43750
" />
<path d="M50250 35000
L50250 36500
" />
<path d="M43500 33500
L43500 36500
" />
<path d="M43500 36500
L50250 36500
" />
<path d="M50250 36500
L50250 38500
" />
<path d="M43500 30500
L43500 27500
" />
<path d="M43500 27500
L50250 27500
" />
<path d="M55250 29000
L55250 20750
" />
<path d="M24500 20750
L55250 20750
" />
<path d="M59250 29000
L59250 20750
" />
<path d="M59250 20750
L89250 20750
" />
<path d="M40000 27500
L43500 27500
" />
</g>
<g style="fill:#848400; fill-opacity:0.0; 
stroke:#848400; stroke-width:60; stroke-opacity:1; 
stroke-linecap:round; stroke-linejoin:round;">
<text x="89100" y="44000"
textLength="4440" font-size="660" lengthAdjust="spacingAndGlyphs"
text-anchor="start" opacity="0">SIGNAL_OUT</text>
<path d="M89220 43950
L89290 43970
L89410 43970
L89460 43950
L89480 43920
L89510 43880
L89510 43830
L89480 43780
L89460 43760
L89410 43730
L89320 43710
L89270 43690
L89240 43660
L89220 43610
L89220 43570
L89240 43520
L89270 43500
L89320 43470
L89430 43470
L89510 43500
" />
<path d="M89720 43970
L89720 43470
" />
<path d="M90220 43500
L90170 43470
L90100 43470
L90030 43500
L89980 43540
L89960 43590
L89930 43690
L89930 43760
L89960 43850
L89980 43900
L90030 43950
L90100 43970
L90150 43970
L90220 43950
L90240 43920
L90240 43760
L90150 43760
" />
<path d="M90460 43970
L90460 43470
L90740 43970
L90740 43470
" />
<path d="M90960 43830
L91200 43830
" />
<path d="M90910 43970
L91080 43470
L91240 43970
" />
<path d="M91650 43970
L91410 43970
L91410 43470
" />
<path d="M91700 44020
L92080 44020
" />
<path d="M92290 43470
L92390 43470
L92430 43500
L92480 43540
L92510 43640
L92510 43800
L92480 43900
L92430 43950
L92390 43970
L92290 43970
L92240 43950
L92200 43900
L92170 43800
L92170 43640
L92200 43540
L92240 43500
L92290 43470
" />
<path d="M92720 43470
L92720 43880
L92740 43920
L92770 43950
L92820 43970
L92910 43970
L92960 43950
L92980 43920
L93010 43880
L93010 43470
" />
<path d="M93170 43470
L93460 43470
" />
<path d="M93320 43970
L93320 43470
" />
</g>
<g style="fill:#848400; fill-opacity:0.0; 
stroke:#848400; stroke-width:100; stroke-opacity:1; 
stroke-linecap:round; stroke-linejoin:round;">
<path style="fill:#848400; fill-opacity:0.0; 
stroke:#848400; stroke-width:100; stroke-opacity:1; 
stroke-linecap:round; stroke-linejoin:round;fill:none"
d="M 88500,43750
88750,44000
89000,44000
89000,43500
88750,43500
Z" /> 
</g>
<g style="fill:#848400; fill-opacity:0.0; 
stroke:#848400; stroke-width:60; stroke-opacity:1; 
stroke-linecap:round; stroke-linejoin:round;">
<text x="39400" y="27750"
textLength="5350" font-size="660" lengthAdjust="spacingAndGlyphs"
text-anchor="end" opacity="0">RelayCoil_OUT</text>
<path d="M34480 27720
L34320 27480
" />
<path d="M34200 27720
L34200 27220
L34390 27220
L34440 27250
L34460 27270
L34480 27320
L34480 27390
L34460 27440
L34440 27460
L34390 27480
L34200 27480
" />
<path d="M34890 27700
L34840 27720
L34750 27720
L34700 27700
L34670 27650
L34670 27460
L34700 27410
L34750 27390
L34840 27390
L34890 27410
L34910 27460
L34910 27510
L34670 27550
" />
<path d="M35200 27720
L35150 27700
L35130 27650
L35130 27220
" />
<path d="M35600 27720
L35600 27460
L35580 27410
L35530 27390
L35440 27390
L35390 27410
" />
<path d="M35600 27700
L35560 27720
L35440 27720
L35390 27700
L35370 27650
L35370 27600
L35390 27550
L35440 27530
L35560 27530
L35600 27510
" />
<path d="M35790 27390
L35910 27720
" />
<path d="M36030 27390
L35910 27720
L35870 27840
L35840 27860
L35790 27890
" />
<path d="M36510 27670
L36480 27700
L36410 27720
L36370 27720
L36290 27700
L36250 27650
L36220 27600
L36200 27510
L36200 27440
L36220 27340
L36250 27290
L36290 27250
L36370 27220
L36410 27220
L36480 27250
L36510 27270
" />
<path d="M36790 27720
L36750 27700
L36720 27670
L36700 27630
L36700 27480
L36720 27440
L36750 27410
L36790 27390
L36870 27390
L36910 27410
L36940 27440
L36960 27480
L36960 27630
L36940 27670
L36910 27700
L36870 27720
L36790 27720
" />
<path d="M37170 27720
L37170 27390
" />
<path d="M37170 27220
L37150 27250
L37170 27270
L37200 27250
L37170 27220
L37170 27270
" />
<path d="M37480 27720
L37440 27700
L37410 27650
L37410 27220
" />
<path d="M37560 27770
L37940 27770
" />
<path d="M38150 27220
L38250 27220
L38290 27250
L38340 27290
L38370 27390
L38370 27550
L38340 27650
L38290 27700
L38250 27720
L38150 27720
L38100 27700
L38060 27650
L38030 27550
L38030 27390
L38060 27290
L38100 27250
L38150 27220
" />
<path d="M38580 27220
L38580 27630
L38600 27670
L38630 27700
L38670 27720
L38770 27720
L38820 27700
L38840 27670
L38870 27630
L38870 27220
" />
<path d="M39030 27220
L39320 27220
" />
<path d="M39170 27720
L39170 27220
" />
</g>
<g style="fill:#848400; fill-opacity:0.0; 
stroke:#848400; stroke-width:100; stroke-opacity:1; 
stroke-linecap:round; stroke-linejoin:round;">
<path style="fill:#848400; fill-opacity:0.0; 
stroke:#848400; stroke-width:100; stroke-opacity:1; 
stroke-linecap:round; stroke-linejoin:round;fill:none"
d="M 40000,27500
39750,27250
39500,27250
39500,27750
39750,27750
Z" /> 
</g>
<g style="fill:#848400; fill-opacity:0.0; 
stroke:#848400; stroke-width:60; stroke-opacity:1; 
stroke-linecap:round; stroke-linejoin:round;">
<text x="24650" y="44000"
textLength="3770" font-size="660" lengthAdjust="spacingAndGlyphs"
text-anchor="end" opacity="0">SIGNAL_IN</text>
<path d="M21000 43950
L21070 43970
L21190 43970
L21230 43950
L21260 43920
L21280 43880
L21280 43830
L21260 43780
L21230 43760
L21190 43730
L21090 43710
L21040 43690
L21020 43660
L21000 43610
L21000 43570
L21020 43520
L21040 43500
L21090 43470
L21210 43470
L21280 43500
" />
<path d="M21500 43970
L21500 43470
" />
<path d="M22000 43500
L21950 43470
L21880 43470
L21810 43500
L21760 43540
L21730 43590
L21710 43690
L21710 43760
L21730 43850
L21760 43900
L21810 43950
L21880 43970
L21920 43970
L22000 43950
L22020 43920
L22020 43760
L21920 43760
" />
<path d="M22230 43970
L22230 43470
L22520 43970
L22520 43470
" />
<path d="M22730 43830
L22970 43830
" />
<path d="M22690 43970
L22850 43470
L23020 43970
" />
<path d="M23420 43970
L23190 43970
L23190 43470
" />
<path d="M23470 44020
L23850 44020
" />
<path d="M23970 43970
L23970 43470
" />
<path d="M24210 43970
L24210 43470
L24500 43970
L24500 43470
" />
</g>
<g style="fill:#848400; fill-opacity:0.0; 
stroke:#848400; stroke-width:100; stroke-opacity:1; 
stroke-linecap:round; stroke-linejoin:round;">
<path style="fill:#848400; fill-opacity:0.0; 
stroke:#848400; stroke-width:100; stroke-opacity:1; 
stroke-linecap:round; stroke-linejoin:round;fill:none"
d="M 25250,43750
25000,43500
24750,43500
24750,44000
25000,44000
Z" /> 
</g>
<g style="fill:#848400; fill-opacity:0.0; 
stroke:#848400; stroke-width:60; stroke-opacity:1; 
stroke-linecap:round; stroke-linejoin:round;">
<text x="23900" y="21000"
textLength="2110" font-size="660" lengthAdjust="spacingAndGlyphs"
text-anchor="end" opacity="0">FX_IN</text>
<path d="M22100 20710
L21940 20710
" />
<path d="M21940 20970
L21940 20470
L22170 20470
" />
<path d="M22320 20470
L22650 20970
" />
<path d="M22650 20470
L22320 20970
" />
<path d="M22720 21020
L23100 21020
" />
<path d="M23220 20970
L23220 20470
" />
<path d="M23460 20970
L23460 20470
L23750 20970
L23750 20470
" />
</g>
<g style="fill:#848400; fill-opacity:0.0; 
stroke:#848400; stroke-width:100; stroke-opacity:1; 
stroke-linecap:round; stroke-linejoin:round;">
<path style="fill:#848400; fill-opacity:0.0; 
stroke:#848400; stroke-width:100; stroke-opacity:1; 
stroke-linecap:round; stroke-linejoin:round;fill:none"
d="M 24500,20750
24250,20500
24000,20500
24000,21000
24250,21000
Z" /> 
</g>
<g style="fill:#848400; fill-opacity:0.0; 
stroke:#848400; stroke-width:60; stroke-opacity:1; 
stroke-linecap:round; stroke-linejoin:round;">
<text x="89850" y="21000"
textLength="2770" font-size="660" lengthAdjust="spacingAndGlyphs"
text-anchor="start" opacity="0">FX_OUT</text>
<path d="M90160 20710
L89990 20710
" />
<path d="M89990 20970
L89990 20470
L90230 20470
" />
<path d="M90380 20470
L90710 20970
" />
<path d="M90710 20470
L90380 20970
" />
<path d="M90780 21020
L91160 21020
" />
<path d="M91380 20470
L91470 20470
L91520 20500
L91570 20540
L91590 20640
L91590 20800
L91570 20900
L91520 20950
L91470 20970
L91380 20970
L91330 20950
L91280 20900
L91260 20800
L91260 20640
L91280 20540
L91330 20500
L91380 20470
" />
<path d="M91800 20470
L91800 20880
L91830 20920
L91850 20950
L91900 20970
L91990 20970
L92040 20950
L92070 20920
L92090 20880
L92090 20470
" />
<path d="M92260 20470
L92540 20470
" />
<path d="M92400 20970
L92400 20470
" />
</g>
<g style="fill:#848400; fill-opacity:0.0; 
stroke:#848400; stroke-width:100; stroke-opacity:1; 
stroke-linecap:round; stroke-linejoin:round;">
<path style="fill:#848400; fill-opacity:0.0; 
stroke:#848400; stroke-width:100; stroke-opacity:1; 
stroke-linecap:round; stroke-linejoin:round;fill:none"
d="M 89250,20750
89500,21000
89750,21000
89750,20500
89500,20500
Z" /> 
</g>
<g style="fill:#848400; fill-opacity:0.0; 
stroke:#848400; stroke-width:0; stroke-opacity:1; 
stroke-linecap:round; stroke-linejoin:round;">
</g>
<g style="fill:#008400; fill-opacity:0.0; 
stroke:#008400; stroke-width:0; stroke-opacity:1; 
stroke-linecap:round; stroke-linejoin:round;">
</g>
<g style="fill:#008400; fill-opacity:1.0; 
stroke:#008400; stroke-width:100; stroke-opacity:1; 
stroke-linecap:round; stroke-linejoin:round;">
<circle cx="43500" cy="27500" r="200" /> 
</g>
<g style="fill:#008400; fill-opacity:1.0; 
stroke:#008400; stroke-width:0; stroke-opacity:1; 
stroke-linecap:round; stroke-linejoin:round;">
</g>
<g style="fill:#008400; fill-opacity:1.0; 
stroke:#008400; stroke-width:100; stroke-opacity:1; 
stroke-linecap:round; stroke-linejoin:round;">
<circle cx="50250" cy="36500" r="200" /> 
</g> 
</svg>
