<?xml version="1.0" standalone="no"?>
 <!DOCTYPE svg PUBLIC "-//W3C//DTD SVG 1.1//EN" 
 "http://www.w3.org/Graphics/SVG/1.1/DTD/svg11.dtd"> 
<svg
  xmlns:svg="http://www.w3.org/2000/svg"
  xmlns="http://www.w3.org/2000/svg"
  xmlns:xlink="http://www.w3.org/1999/xlink"
  version="1.1"
  width="29.700220cm" height="21.000720cm" viewBox="0 0 116930 82680">
<title>SVG Picture created as STM32F411_PowerFiltering-SignalProcessing-STM32F411_PowerFiltering.svg date 2020/10/11 22:39:11 </title>
  <desc>Picture generated by Eeschema-SVG </desc>
<g style="fill:#000000; fill-opacity:1;stroke:#000000; stroke-opacity:1;
stroke-linecap:round; stroke-linejoin:round;"
 transform="translate(0 0) scale(1 1)">
</g>
<g style="fill:#000000; fill-opacity:0.0; 
stroke:#000000; stroke-width:-10; stroke-opacity:1; 
stroke-linecap:round; stroke-linejoin:round;">
</g>
<g style="fill:#840000; fill-opacity:0.0; 
stroke:#840000; stroke-width:-10; stroke-opacity:1; 
stroke-linecap:round; stroke-linejoin:round;">
</g>
<g style="fill:#840000; fill-opacity:0.0; 
stroke:#840000; stroke-width:100; stroke-opacity:1; 
stroke-linecap:round; stroke-linejoin:round;">
</g>
<g style="fill:#840000; fill-opacity:0.0; 
stroke:#840000; stroke-width:60; stroke-opacity:1; 
stroke-linecap:round; stroke-linejoin:round;">
<rect x="69690" y="65360" width="42520" height="12600" rx="0" />
</g>
<g style="fill:#840000; fill-opacity:0.0; 
stroke:#840000; stroke-width:100; stroke-opacity:1; 
stroke-linecap:round; stroke-linejoin:round;">
</g>
<g style="fill:#840000; fill-opacity:0.0; 
stroke:#840000; stroke-width:60; stroke-opacity:1; 
stroke-linecap:round; stroke-linejoin:round;">
<rect x="3940" y="3940" width="109050" height="74800" rx="0" />
</g>
<g style="fill:#840000; fill-opacity:0.0; 
stroke:#840000; stroke-width:100; stroke-opacity:1; 
stroke-linecap:round; stroke-linejoin:round;">
</g>
<g style="fill:#840000; fill-opacity:0.0; 
stroke:#840000; stroke-width:60; stroke-opacity:1; 
stroke-linecap:round; stroke-linejoin:round;">
<rect x="4720" y="4720" width="107490" height="73240" rx="0" />
</g>
<g style="fill:#840000; fill-opacity:0.0; 
stroke:#840000; stroke-width:100; stroke-opacity:1; 
stroke-linecap:round; stroke-linejoin:round;">
</g>
<g style="fill:#840000; fill-opacity:0.0; 
stroke:#840000; stroke-width:60; stroke-opacity:1; 
stroke-linecap:round; stroke-linejoin:round;">
<path d="M23620 4720
L23620 3940
" />
</g>
<g style="fill:#840000; fill-opacity:0.0; 
stroke:#840000; stroke-width:100; stroke-opacity:1; 
stroke-linecap:round; stroke-linejoin:round;">
</g>
<g style="fill:#840000; fill-opacity:0.0; 
stroke:#840000; stroke-width:60; stroke-opacity:1; 
stroke-linecap:round; stroke-linejoin:round;">
<path d="M43310 4720
L43310 3940
" />
</g>
<g style="fill:#840000; fill-opacity:0.0; 
stroke:#840000; stroke-width:100; stroke-opacity:1; 
stroke-linecap:round; stroke-linejoin:round;">
</g>
<g style="fill:#840000; fill-opacity:0.0; 
stroke:#840000; stroke-width:60; stroke-opacity:1; 
stroke-linecap:round; stroke-linejoin:round;">
<path d="M62990 4720
L62990 3940
" />
</g>
<g style="fill:#840000; fill-opacity:0.0; 
stroke:#840000; stroke-width:100; stroke-opacity:1; 
stroke-linecap:round; stroke-linejoin:round;">
</g>
<g style="fill:#840000; fill-opacity:0.0; 
stroke:#840000; stroke-width:60; stroke-opacity:1; 
stroke-linecap:round; stroke-linejoin:round;">
<path d="M82680 4720
L82680 3940
" />
</g>
<g style="fill:#840000; fill-opacity:0.0; 
stroke:#840000; stroke-width:100; stroke-opacity:1; 
stroke-linecap:round; stroke-linejoin:round;">
</g>
<g style="fill:#840000; fill-opacity:0.0; 
stroke:#840000; stroke-width:60; stroke-opacity:1; 
stroke-linecap:round; stroke-linejoin:round;">
<path d="M102360 4720
L102360 3940
" />
</g>
<g style="fill:#840000; fill-opacity:0.0; 
stroke:#840000; stroke-width:100; stroke-opacity:1; 
stroke-linecap:round; stroke-linejoin:round;">
</g>
<g style="fill:#840000; fill-opacity:0.0; 
stroke:#840000; stroke-width:60; stroke-opacity:1; 
stroke-linecap:round; stroke-linejoin:round;">
<text x="13780" y="4580"
textLength="550" font-size="680" lengthAdjust="spacingAndGlyphs"
text-anchor="start" opacity="0">1</text>
<path d="M14190 4560
L13900 4560
" />
<path d="M14050 4560
L14050 4050
L14000 4120
L13950 4170
L13900 4190
" />
</g>
<g style="fill:#840000; fill-opacity:0.0; 
stroke:#840000; stroke-width:100; stroke-opacity:1; 
stroke-linecap:round; stroke-linejoin:round;">
</g>
<g style="fill:#840000; fill-opacity:0.0; 
stroke:#840000; stroke-width:60; stroke-opacity:1; 
stroke-linecap:round; stroke-linejoin:round;">
<text x="33460" y="4580"
textLength="550" font-size="680" lengthAdjust="spacingAndGlyphs"
text-anchor="start" opacity="0">2</text>
<path d="M33580 4090
L33610 4070
L33660 4050
L33780 4050
L33830 4070
L33850 4090
L33870 4140
L33870 4190
L33850 4260
L33560 4560
L33870 4560
" />
</g>
<g style="fill:#840000; fill-opacity:0.0; 
stroke:#840000; stroke-width:100; stroke-opacity:1; 
stroke-linecap:round; stroke-linejoin:round;">
</g>
<g style="fill:#840000; fill-opacity:0.0; 
stroke:#840000; stroke-width:60; stroke-opacity:1; 
stroke-linecap:round; stroke-linejoin:round;">
<text x="53150" y="4580"
textLength="550" font-size="680" lengthAdjust="spacingAndGlyphs"
text-anchor="start" opacity="0">3</text>
<path d="M53250 4050
L53560 4050
L53390 4240
L53470 4240
L53520 4260
L53540 4290
L53560 4340
L53560 4460
L53540 4510
L53520 4530
L53470 4560
L53320 4560
L53270 4530
L53250 4510
" />
</g>
<g style="fill:#840000; fill-opacity:0.0; 
stroke:#840000; stroke-width:100; stroke-opacity:1; 
stroke-linecap:round; stroke-linejoin:round;">
</g>
<g style="fill:#840000; fill-opacity:0.0; 
stroke:#840000; stroke-width:60; stroke-opacity:1; 
stroke-linecap:round; stroke-linejoin:round;">
<text x="72830" y="4580"
textLength="550" font-size="680" lengthAdjust="spacingAndGlyphs"
text-anchor="start" opacity="0">4</text>
<path d="M73200 4220
L73200 4560
" />
<path d="M73070 4020
L72950 4390
L73270 4390
" />
</g>
<g style="fill:#840000; fill-opacity:0.0; 
stroke:#840000; stroke-width:100; stroke-opacity:1; 
stroke-linecap:round; stroke-linejoin:round;">
</g>
<g style="fill:#840000; fill-opacity:0.0; 
stroke:#840000; stroke-width:60; stroke-opacity:1; 
stroke-linecap:round; stroke-linejoin:round;">
<text x="92520" y="4580"
textLength="550" font-size="680" lengthAdjust="spacingAndGlyphs"
text-anchor="start" opacity="0">5</text>
<path d="M92910 4050
L92670 4050
L92640 4290
L92670 4260
L92720 4240
L92840 4240
L92890 4260
L92910 4290
L92930 4340
L92930 4460
L92910 4510
L92890 4530
L92840 4560
L92720 4560
L92670 4530
L92640 4510
" />
</g>
<g style="fill:#840000; fill-opacity:0.0; 
stroke:#840000; stroke-width:100; stroke-opacity:1; 
stroke-linecap:round; stroke-linejoin:round;">
</g>
<g style="fill:#840000; fill-opacity:0.0; 
stroke:#840000; stroke-width:60; stroke-opacity:1; 
stroke-linecap:round; stroke-linejoin:round;">
<text x="112200" y="4580"
textLength="550" font-size="680" lengthAdjust="spacingAndGlyphs"
text-anchor="start" opacity="0">6</text>
<path d="M112570 4050
L112470 4050
L112420 4070
L112400 4090
L112350 4170
L112320 4260
L112320 4460
L112350 4510
L112370 4530
L112420 4560
L112520 4560
L112570 4530
L112590 4510
L112610 4460
L112610 4340
L112590 4290
L112570 4260
L112520 4240
L112420 4240
L112370 4260
L112350 4290
L112320 4340
" />
</g>
<g style="fill:#840000; fill-opacity:0.0; 
stroke:#840000; stroke-width:100; stroke-opacity:1; 
stroke-linecap:round; stroke-linejoin:round;">
</g>
<g style="fill:#840000; fill-opacity:0.0; 
stroke:#840000; stroke-width:60; stroke-opacity:1; 
stroke-linecap:round; stroke-linejoin:round;">
<path d="M23620 77960
L23620 78740
" />
</g>
<g style="fill:#840000; fill-opacity:0.0; 
stroke:#840000; stroke-width:100; stroke-opacity:1; 
stroke-linecap:round; stroke-linejoin:round;">
</g>
<g style="fill:#840000; fill-opacity:0.0; 
stroke:#840000; stroke-width:60; stroke-opacity:1; 
stroke-linecap:round; stroke-linejoin:round;">
<path d="M43310 77960
L43310 78740
" />
</g>
<g style="fill:#840000; fill-opacity:0.0; 
stroke:#840000; stroke-width:100; stroke-opacity:1; 
stroke-linecap:round; stroke-linejoin:round;">
</g>
<g style="fill:#840000; fill-opacity:0.0; 
stroke:#840000; stroke-width:60; stroke-opacity:1; 
stroke-linecap:round; stroke-linejoin:round;">
<path d="M62990 77960
L62990 78740
" />
</g>
<g style="fill:#840000; fill-opacity:0.0; 
stroke:#840000; stroke-width:100; stroke-opacity:1; 
stroke-linecap:round; stroke-linejoin:round;">
</g>
<g style="fill:#840000; fill-opacity:0.0; 
stroke:#840000; stroke-width:60; stroke-opacity:1; 
stroke-linecap:round; stroke-linejoin:round;">
<path d="M82680 77960
L82680 78740
" />
</g>
<g style="fill:#840000; fill-opacity:0.0; 
stroke:#840000; stroke-width:100; stroke-opacity:1; 
stroke-linecap:round; stroke-linejoin:round;">
</g>
<g style="fill:#840000; fill-opacity:0.0; 
stroke:#840000; stroke-width:60; stroke-opacity:1; 
stroke-linecap:round; stroke-linejoin:round;">
<path d="M102360 77960
L102360 78740
" />
</g>
<g style="fill:#840000; fill-opacity:0.0; 
stroke:#840000; stroke-width:100; stroke-opacity:1; 
stroke-linecap:round; stroke-linejoin:round;">
</g>
<g style="fill:#840000; fill-opacity:0.0; 
stroke:#840000; stroke-width:60; stroke-opacity:1; 
stroke-linecap:round; stroke-linejoin:round;">
<text x="13780" y="78600"
textLength="550" font-size="680" lengthAdjust="spacingAndGlyphs"
text-anchor="start" opacity="0">1</text>
<path d="M14190 78580
L13900 78580
" />
<path d="M14050 78580
L14050 78070
L14000 78140
L13950 78190
L13900 78210
" />
</g>
<g style="fill:#840000; fill-opacity:0.0; 
stroke:#840000; stroke-width:100; stroke-opacity:1; 
stroke-linecap:round; stroke-linejoin:round;">
</g>
<g style="fill:#840000; fill-opacity:0.0; 
stroke:#840000; stroke-width:60; stroke-opacity:1; 
stroke-linecap:round; stroke-linejoin:round;">
<text x="33460" y="78600"
textLength="550" font-size="680" lengthAdjust="spacingAndGlyphs"
text-anchor="start" opacity="0">2</text>
<path d="M33580 78110
L33610 78090
L33660 78070
L33780 78070
L33830 78090
L33850 78110
L33870 78160
L33870 78210
L33850 78280
L33560 78580
L33870 78580
" />
</g>
<g style="fill:#840000; fill-opacity:0.0; 
stroke:#840000; stroke-width:100; stroke-opacity:1; 
stroke-linecap:round; stroke-linejoin:round;">
</g>
<g style="fill:#840000; fill-opacity:0.0; 
stroke:#840000; stroke-width:60; stroke-opacity:1; 
stroke-linecap:round; stroke-linejoin:round;">
<text x="53150" y="78600"
textLength="550" font-size="680" lengthAdjust="spacingAndGlyphs"
text-anchor="start" opacity="0">3</text>
<path d="M53250 78070
L53560 78070
L53390 78260
L53470 78260
L53520 78280
L53540 78310
L53560 78360
L53560 78480
L53540 78530
L53520 78550
L53470 78580
L53320 78580
L53270 78550
L53250 78530
" />
</g>
<g style="fill:#840000; fill-opacity:0.0; 
stroke:#840000; stroke-width:100; stroke-opacity:1; 
stroke-linecap:round; stroke-linejoin:round;">
</g>
<g style="fill:#840000; fill-opacity:0.0; 
stroke:#840000; stroke-width:60; stroke-opacity:1; 
stroke-linecap:round; stroke-linejoin:round;">
<text x="72830" y="78600"
textLength="550" font-size="680" lengthAdjust="spacingAndGlyphs"
text-anchor="start" opacity="0">4</text>
<path d="M73200 78240
L73200 78580
" />
<path d="M73070 78040
L72950 78410
L73270 78410
" />
</g>
<g style="fill:#840000; fill-opacity:0.0; 
stroke:#840000; stroke-width:100; stroke-opacity:1; 
stroke-linecap:round; stroke-linejoin:round;">
</g>
<g style="fill:#840000; fill-opacity:0.0; 
stroke:#840000; stroke-width:60; stroke-opacity:1; 
stroke-linecap:round; stroke-linejoin:round;">
<text x="92520" y="78600"
textLength="550" font-size="680" lengthAdjust="spacingAndGlyphs"
text-anchor="start" opacity="0">5</text>
<path d="M92910 78070
L92670 78070
L92640 78310
L92670 78280
L92720 78260
L92840 78260
L92890 78280
L92910 78310
L92930 78360
L92930 78480
L92910 78530
L92890 78550
L92840 78580
L92720 78580
L92670 78550
L92640 78530
" />
</g>
<g style="fill:#840000; fill-opacity:0.0; 
stroke:#840000; stroke-width:100; stroke-opacity:1; 
stroke-linecap:round; stroke-linejoin:round;">
</g>
<g style="fill:#840000; fill-opacity:0.0; 
stroke:#840000; stroke-width:60; stroke-opacity:1; 
stroke-linecap:round; stroke-linejoin:round;">
<text x="112200" y="78600"
textLength="550" font-size="680" lengthAdjust="spacingAndGlyphs"
text-anchor="start" opacity="0">6</text>
<path d="M112570 78070
L112470 78070
L112420 78090
L112400 78110
L112350 78190
L112320 78280
L112320 78480
L112350 78530
L112370 78550
L112420 78580
L112520 78580
L112570 78550
L112590 78530
L112610 78480
L112610 78360
L112590 78310
L112570 78280
L112520 78260
L112420 78260
L112370 78280
L112350 78310
L112320 78360
" />
</g>
<g style="fill:#840000; fill-opacity:0.0; 
stroke:#840000; stroke-width:100; stroke-opacity:1; 
stroke-linecap:round; stroke-linejoin:round;">
</g>
<g style="fill:#840000; fill-opacity:0.0; 
stroke:#840000; stroke-width:60; stroke-opacity:1; 
stroke-linecap:round; stroke-linejoin:round;">
<path d="M3940 23620
L4720 23620
" />
</g>
<g style="fill:#840000; fill-opacity:0.0; 
stroke:#840000; stroke-width:100; stroke-opacity:1; 
stroke-linecap:round; stroke-linejoin:round;">
</g>
<g style="fill:#840000; fill-opacity:0.0; 
stroke:#840000; stroke-width:60; stroke-opacity:1; 
stroke-linecap:round; stroke-linejoin:round;">
<path d="M3940 43310
L4720 43310
" />
</g>
<g style="fill:#840000; fill-opacity:0.0; 
stroke:#840000; stroke-width:100; stroke-opacity:1; 
stroke-linecap:round; stroke-linejoin:round;">
</g>
<g style="fill:#840000; fill-opacity:0.0; 
stroke:#840000; stroke-width:60; stroke-opacity:1; 
stroke-linecap:round; stroke-linejoin:round;">
<path d="M3940 62990
L4720 62990
" />
</g>
<g style="fill:#840000; fill-opacity:0.0; 
stroke:#840000; stroke-width:100; stroke-opacity:1; 
stroke-linecap:round; stroke-linejoin:round;">
</g>
<g style="fill:#840000; fill-opacity:0.0; 
stroke:#840000; stroke-width:60; stroke-opacity:1; 
stroke-linecap:round; stroke-linejoin:round;">
<text x="4330" y="14030"
textLength="500" font-size="680" lengthAdjust="spacingAndGlyphs"
text-anchor="middle" opacity="0">A</text>
<path d="M4200 13860
L4450 13860
" />
<path d="M4160 14010
L4330 13500
L4500 14010
" />
</g>
<g style="fill:#840000; fill-opacity:0.0; 
stroke:#840000; stroke-width:100; stroke-opacity:1; 
stroke-linecap:round; stroke-linejoin:round;">
</g>
<g style="fill:#840000; fill-opacity:0.0; 
stroke:#840000; stroke-width:60; stroke-opacity:1; 
stroke-linecap:round; stroke-linejoin:round;">
<text x="4330" y="33710"
textLength="570" font-size="680" lengthAdjust="spacingAndGlyphs"
text-anchor="middle" opacity="0">B</text>
<path d="M4360 33420
L4430 33440
L4460 33470
L4480 33520
L4480 33590
L4460 33640
L4430 33660
L4390 33690
L4190 33690
L4190 33180
L4360 33180
L4410 33200
L4430 33220
L4460 33270
L4460 33320
L4430 33370
L4410 33390
L4360 33420
L4190 33420
" />
</g>
<g style="fill:#840000; fill-opacity:0.0; 
stroke:#840000; stroke-width:100; stroke-opacity:1; 
stroke-linecap:round; stroke-linejoin:round;">
</g>
<g style="fill:#840000; fill-opacity:0.0; 
stroke:#840000; stroke-width:60; stroke-opacity:1; 
stroke-linecap:round; stroke-linejoin:round;">
<text x="4330" y="53400"
textLength="570" font-size="680" lengthAdjust="spacingAndGlyphs"
text-anchor="middle" opacity="0">C</text>
<path d="M4480 53330
L4460 53350
L4390 53380
L4340 53380
L4260 53350
L4220 53300
L4190 53250
L4170 53160
L4170 53080
L4190 52990
L4220 52940
L4260 52890
L4340 52870
L4390 52870
L4460 52890
L4480 52910
" />
</g>
<g style="fill:#840000; fill-opacity:0.0; 
stroke:#840000; stroke-width:100; stroke-opacity:1; 
stroke-linecap:round; stroke-linejoin:round;">
</g>
<g style="fill:#840000; fill-opacity:0.0; 
stroke:#840000; stroke-width:60; stroke-opacity:1; 
stroke-linecap:round; stroke-linejoin:round;">
<text x="4330" y="73080"
textLength="570" font-size="680" lengthAdjust="spacingAndGlyphs"
text-anchor="middle" opacity="0">D</text>
<path d="M4190 73060
L4190 72550
L4310 72550
L4390 72570
L4430 72620
L4460 72670
L4480 72760
L4480 72840
L4460 72930
L4430 72980
L4390 73030
L4310 73060
L4190 73060
" />
</g>
<g style="fill:#840000; fill-opacity:0.0; 
stroke:#840000; stroke-width:100; stroke-opacity:1; 
stroke-linecap:round; stroke-linejoin:round;">
</g>
<g style="fill:#840000; fill-opacity:0.0; 
stroke:#840000; stroke-width:60; stroke-opacity:1; 
stroke-linecap:round; stroke-linejoin:round;">
<path d="M112990 23620
L112210 23620
" />
</g>
<g style="fill:#840000; fill-opacity:0.0; 
stroke:#840000; stroke-width:100; stroke-opacity:1; 
stroke-linecap:round; stroke-linejoin:round;">
</g>
<g style="fill:#840000; fill-opacity:0.0; 
stroke:#840000; stroke-width:60; stroke-opacity:1; 
stroke-linecap:round; stroke-linejoin:round;">
<path d="M112990 43310
L112210 43310
" />
</g>
<g style="fill:#840000; fill-opacity:0.0; 
stroke:#840000; stroke-width:100; stroke-opacity:1; 
stroke-linecap:round; stroke-linejoin:round;">
</g>
<g style="fill:#840000; fill-opacity:0.0; 
stroke:#840000; stroke-width:60; stroke-opacity:1; 
stroke-linecap:round; stroke-linejoin:round;">
<path d="M112990 62990
L112210 62990
" />
</g>
<g style="fill:#840000; fill-opacity:0.0; 
stroke:#840000; stroke-width:100; stroke-opacity:1; 
stroke-linecap:round; stroke-linejoin:round;">
</g>
<g style="fill:#840000; fill-opacity:0.0; 
stroke:#840000; stroke-width:60; stroke-opacity:1; 
stroke-linecap:round; stroke-linejoin:round;">
<text x="112600" y="14030"
textLength="500" font-size="680" lengthAdjust="spacingAndGlyphs"
text-anchor="middle" opacity="0">A</text>
<path d="M112470 13860
L112720 13860
" />
<path d="M112430 14010
L112600 13500
L112770 14010
" />
</g>
<g style="fill:#840000; fill-opacity:0.0; 
stroke:#840000; stroke-width:100; stroke-opacity:1; 
stroke-linecap:round; stroke-linejoin:round;">
</g>
<g style="fill:#840000; fill-opacity:0.0; 
stroke:#840000; stroke-width:60; stroke-opacity:1; 
stroke-linecap:round; stroke-linejoin:round;">
<text x="112600" y="33710"
textLength="570" font-size="680" lengthAdjust="spacingAndGlyphs"
text-anchor="middle" opacity="0">B</text>
<path d="M112630 33420
L112700 33440
L112730 33470
L112750 33520
L112750 33590
L112730 33640
L112700 33660
L112660 33690
L112460 33690
L112460 33180
L112630 33180
L112680 33200
L112700 33220
L112730 33270
L112730 33320
L112700 33370
L112680 33390
L112630 33420
L112460 33420
" />
</g>
<g style="fill:#840000; fill-opacity:0.0; 
stroke:#840000; stroke-width:100; stroke-opacity:1; 
stroke-linecap:round; stroke-linejoin:round;">
</g>
<g style="fill:#840000; fill-opacity:0.0; 
stroke:#840000; stroke-width:60; stroke-opacity:1; 
stroke-linecap:round; stroke-linejoin:round;">
<text x="112600" y="53400"
textLength="570" font-size="680" lengthAdjust="spacingAndGlyphs"
text-anchor="middle" opacity="0">C</text>
<path d="M112750 53330
L112730 53350
L112660 53380
L112610 53380
L112530 53350
L112490 53300
L112460 53250
L112440 53160
L112440 53080
L112460 52990
L112490 52940
L112530 52890
L112610 52870
L112660 52870
L112730 52890
L112750 52910
" />
</g>
<g style="fill:#840000; fill-opacity:0.0; 
stroke:#840000; stroke-width:100; stroke-opacity:1; 
stroke-linecap:round; stroke-linejoin:round;">
</g>
<g style="fill:#840000; fill-opacity:0.0; 
stroke:#840000; stroke-width:60; stroke-opacity:1; 
stroke-linecap:round; stroke-linejoin:round;">
<text x="112600" y="73080"
textLength="570" font-size="680" lengthAdjust="spacingAndGlyphs"
text-anchor="middle" opacity="0">D</text>
<path d="M112460 73060
L112460 72550
L112580 72550
L112660 72570
L112700 72620
L112730 72670
L112750 72760
L112750 72840
L112730 72930
L112700 72980
L112660 73030
L112580 73060
L112460 73060
" />
</g>
<g style="fill:#840000; fill-opacity:0.0; 
stroke:#840000; stroke-width:100; stroke-opacity:1; 
stroke-linecap:round; stroke-linejoin:round;">
</g>
<g style="fill:#840000; fill-opacity:0.0; 
stroke:#840000; stroke-width:60; stroke-opacity:1; 
stroke-linecap:round; stroke-linejoin:round;">
<text x="78740" y="76320"
textLength="2760" font-size="780" lengthAdjust="spacingAndGlyphs"
text-anchor="start" opacity="0">Date: </text>
<path d="M78910 76290
L78910 75700
L79050 75700
L79130 75730
L79190 75790
L79210 75840
L79240 75950
L79240 76040
L79210 76150
L79190 76210
L79130 76260
L79050 76290
L78910 76290
" />
<path d="M79750 76290
L79750 75980
L79720 75930
L79660 75900
L79550 75900
L79500 75930
" />
<path d="M79750 76260
L79690 76290
L79550 76290
L79500 76260
L79470 76210
L79470 76150
L79500 76100
L79550 76070
L79690 76070
L79750 76040
" />
<path d="M79950 75900
L80170 75900
" />
<path d="M80030 75700
L80030 76210
L80060 76260
L80110 76290
L80170 76290
" />
<path d="M80590 76260
L80540 76290
L80420 76290
L80370 76260
L80340 76210
L80340 75980
L80370 75930
L80420 75900
L80540 75900
L80590 75930
L80620 75980
L80620 76040
L80340 76100
" />
<path d="M80870 76240
L80900 76260
L80870 76290
L80840 76260
L80870 76240
L80870 76290
" />
<path d="M80870 75930
L80900 75950
L80870 75980
L80840 75950
L80870 75930
L80870 75980
" />
</g>
<g style="fill:#840000; fill-opacity:0.0; 
stroke:#840000; stroke-width:100; stroke-opacity:1; 
stroke-linecap:round; stroke-linejoin:round;">
</g>
<g style="fill:#840000; fill-opacity:0.0; 
stroke:#840000; stroke-width:60; stroke-opacity:1; 
stroke-linecap:round; stroke-linejoin:round;">
<path d="M69690 76580
L112210 76580
" />
</g>
<g style="fill:#840000; fill-opacity:0.0; 
stroke:#840000; stroke-width:100; stroke-opacity:1; 
stroke-linecap:round; stroke-linejoin:round;">
</g>
<g style="fill:#840000; fill-opacity:0.0; 
stroke:#840000; stroke-width:60; stroke-opacity:1; 
stroke-linecap:round; stroke-linejoin:round;">
<text x="70080" y="77420"
textLength="16950" font-size="780" lengthAdjust="spacingAndGlyphs"
text-anchor="start" opacity="0">KiCad E.D.A.  kicad (5.1.6-0-10_14)</text>
<path d="M70250 77390
L70250 76800
" />
<path d="M70580 77390
L70330 77050
" />
<path d="M70580 76800
L70250 77140
" />
<path d="M70840 77390
L70840 77000
" />
<path d="M70840 76800
L70810 76830
L70840 76860
L70860 76830
L70840 76800
L70840 76860
" />
<path d="M71450 77340
L71430 77360
L71340 77390
L71290 77390
L71200 77360
L71140 77310
L71120 77250
L71090 77140
L71090 77050
L71120 76940
L71140 76890
L71200 76830
L71290 76800
L71340 76800
L71430 76830
L71450 76860
" />
<path d="M71960 77390
L71960 77080
L71930 77030
L71880 77000
L71760 77000
L71710 77030
" />
<path d="M71960 77360
L71900 77390
L71760 77390
L71710 77360
L71680 77310
L71680 77250
L71710 77200
L71760 77170
L71900 77170
L71960 77140
" />
<path d="M72490 77390
L72490 76800
" />
<path d="M72490 77360
L72440 77390
L72320 77390
L72270 77360
L72240 77340
L72210 77280
L72210 77110
L72240 77050
L72270 77030
L72320 77000
L72440 77000
L72490 77030
" />
<path d="M73220 77080
L73420 77080
" />
<path d="M73500 77390
L73220 77390
L73220 76800
L73500 76800
" />
<path d="M73760 77340
L73790 77360
L73760 77390
L73730 77360
L73760 77340
L73760 77390
" />
<path d="M74040 77390
L74040 76800
L74180 76800
L74260 76830
L74320 76890
L74350 76940
L74380 77050
L74380 77140
L74350 77250
L74320 77310
L74260 77360
L74180 77390
L74040 77390
" />
<path d="M74630 77340
L74660 77360
L74630 77390
L74600 77360
L74630 77340
L74630 77390
" />
<path d="M74880 77220
L75160 77220
" />
<path d="M74830 77390
L75020 76800
L75220 77390
" />
<path d="M75420 77340
L75440 77360
L75420 77390
L75390 77360
L75420 77340
L75420 77390
" />
<path d="M76600 77390
L76600 76800
" />
<path d="M76650 77170
L76820 77390
" />
<path d="M76820 77000
L76600 77220
" />
<path d="M77070 77390
L77070 77000
" />
<path d="M77070 76800
L77040 76830
L77070 76860
L77100 76830
L77070 76800
L77070 76860
" />
<path d="M77610 77360
L77550 77390
L77440 77390
L77380 77360
L77350 77340
L77330 77280
L77330 77110
L77350 77050
L77380 77030
L77440 77000
L77550 77000
L77610 77030
" />
<path d="M78110 77390
L78110 77080
L78080 77030
L78030 77000
L77920 77000
L77860 77030
" />
<path d="M78110 77360
L78060 77390
L77920 77390
L77860 77360
L77830 77310
L77830 77250
L77860 77200
L77920 77170
L78060 77170
L78110 77140
" />
<path d="M78650 77390
L78650 76800
" />
<path d="M78650 77360
L78590 77390
L78480 77390
L78420 77360
L78390 77340
L78370 77280
L78370 77110
L78390 77050
L78420 77030
L78480 77000
L78590 77000
L78650 77030
" />
<path d="M79550 77620
L79520 77590
L79460 77500
L79430 77450
L79400 77360
L79380 77220
L79380 77110
L79400 76970
L79430 76890
L79460 76830
L79520 76750
L79550 76720
" />
<path d="M80050 76800
L79770 76800
L79740 77080
L79770 77050
L79830 77030
L79970 77030
L80020 77050
L80050 77080
L80080 77140
L80080 77280
L80050 77340
L80020 77360
L79970 77390
L79830 77390
L79770 77360
L79740 77340
" />
<path d="M80330 77340
L80360 77360
L80330 77390
L80300 77360
L80330 77340
L80330 77390
" />
<path d="M80920 77390
L80580 77390
" />
<path d="M80750 77390
L80750 76800
L80700 76890
L80640 76940
L80580 76970
" />
<path d="M81170 77340
L81200 77360
L81170 77390
L81150 77360
L81170 77340
L81170 77390
" />
<path d="M81710 76800
L81600 76800
L81540 76830
L81510 76860
L81460 76940
L81430 77050
L81430 77280
L81460 77340
L81480 77360
L81540 77390
L81650 77390
L81710 77360
L81740 77340
L81760 77280
L81760 77140
L81740 77080
L81710 77050
L81650 77030
L81540 77030
L81480 77050
L81460 77080
L81430 77140
" />
<path d="M82020 77170
L82470 77170
" />
<path d="M82860 76800
L82920 76800
L82970 76830
L83000 76860
L83030 76910
L83060 77030
L83060 77170
L83030 77280
L83000 77340
L82970 77360
L82920 77390
L82860 77390
L82800 77360
L82780 77340
L82750 77280
L82720 77170
L82720 77030
L82750 76910
L82780 76860
L82800 76830
L82860 76800
" />
<path d="M83310 77170
L83760 77170
" />
<path d="M84350 77390
L84010 77390
" />
<path d="M84180 77390
L84180 76800
L84120 76890
L84070 76940
L84010 76970
" />
<path d="M84710 76800
L84770 76800
L84830 76830
L84860 76860
L84880 76910
L84910 77030
L84910 77170
L84880 77280
L84860 77340
L84830 77360
L84770 77390
L84710 77390
L84660 77360
L84630 77340
L84600 77280
L84570 77170
L84570 77030
L84600 76910
L84630 76860
L84660 76830
L84710 76800
" />
<path d="M85020 77450
L85470 77450
" />
<path d="M85920 77390
L85590 77390
" />
<path d="M85750 77390
L85750 76800
L85700 76890
L85640 76940
L85590 76970
" />
<path d="M86430 77000
L86430 77390
" />
<path d="M86290 76770
L86150 77200
L86510 77200
" />
<path d="M86680 77620
L86710 77590
L86770 77500
L86790 77450
L86820 77360
L86850 77220
L86850 77110
L86820 76970
L86790 76890
L86770 76830
L86710 76750
L86680 76720
" />
</g>
<g style="fill:#840000; fill-opacity:0.0; 
stroke:#840000; stroke-width:100; stroke-opacity:1; 
stroke-linecap:round; stroke-linejoin:round;">
</g>
<g style="fill:#840000; fill-opacity:0.0; 
stroke:#840000; stroke-width:60; stroke-opacity:1; 
stroke-linecap:round; stroke-linejoin:round;">
<path d="M69690 75400
L112210 75400
" />
</g>
<g style="fill:#840000; fill-opacity:0.0; 
stroke:#840000; stroke-width:100; stroke-opacity:1; 
stroke-linecap:round; stroke-linejoin:round;">
</g>
<g style="fill:#840000; fill-opacity:0.0; 
stroke:#840000; stroke-width:120; stroke-opacity:1; 
stroke-linecap:round; stroke-linejoin:round;">
<text x="103540" y="76320"
textLength="2340" font-size="780" lengthAdjust="spacingAndGlyphs"
text-anchor="start" opacity="0">Rev: </text>
<path d="M104090 76290
L103890 76010
" />
<path d="M103750 76290
L103750 75700
L103980 75700
L104030 75730
L104060 75760
L104090 75810
L104090 75900
L104060 75950
L104030 75980
L103980 76010
L103750 76010
" />
<path d="M104570 76260
L104510 76290
L104400 76290
L104340 76260
L104320 76210
L104320 75980
L104340 75930
L104400 75900
L104510 75900
L104570 75930
L104600 75980
L104600 76040
L104320 76100
" />
<path d="M104790 75900
L104930 76290
L105070 75900
" />
<path d="M105300 76240
L105330 76260
L105300 76290
L105270 76260
L105300 76240
L105300 76290
" />
<path d="M105300 75930
L105330 75950
L105300 75980
L105270 75950
L105300 75930
L105300 75980
" />
</g>
<g style="fill:#840000; fill-opacity:0.0; 
stroke:#840000; stroke-width:100; stroke-opacity:1; 
stroke-linecap:round; stroke-linejoin:round;">
</g>
<g style="fill:#840000; fill-opacity:0.0; 
stroke:#840000; stroke-width:60; stroke-opacity:1; 
stroke-linecap:round; stroke-linejoin:round;">
<text x="70080" y="76320"
textLength="3780" font-size="780" lengthAdjust="spacingAndGlyphs"
text-anchor="start" opacity="0">Size: A4</text>
<path d="M70220 76260
L70300 76290
L70440 76290
L70500 76260
L70530 76240
L70550 76180
L70550 76120
L70530 76070
L70500 76040
L70440 76010
L70330 75980
L70270 75950
L70250 75930
L70220 75870
L70220 75810
L70250 75760
L70270 75730
L70330 75700
L70470 75700
L70550 75730
" />
<path d="M70810 76290
L70810 75900
" />
<path d="M70810 75700
L70780 75730
L70810 75760
L70840 75730
L70810 75700
L70810 75760
" />
<path d="M71030 75900
L71340 75900
L71030 76290
L71340 76290
" />
<path d="M71790 76260
L71730 76290
L71620 76290
L71570 76260
L71540 76210
L71540 75980
L71570 75930
L71620 75900
L71730 75900
L71790 75930
L71820 75980
L71820 76040
L71540 76100
" />
<path d="M72070 76240
L72100 76260
L72070 76290
L72040 76260
L72070 76240
L72070 76290
" />
<path d="M72070 75930
L72100 75950
L72070 75980
L72040 75950
L72070 75930
L72070 75980
" />
<path d="M72770 76120
L73060 76120
" />
<path d="M72720 76290
L72910 75700
L73110 76290
" />
<path d="M73560 75900
L73560 76290
" />
<path d="M73420 75670
L73280 76100
L73650 76100
" />
</g>
<g style="fill:#840000; fill-opacity:0.0; 
stroke:#840000; stroke-width:100; stroke-opacity:1; 
stroke-linecap:round; stroke-linejoin:round;">
</g>
<g style="fill:#840000; fill-opacity:0.0; 
stroke:#840000; stroke-width:60; stroke-opacity:1; 
stroke-linecap:round; stroke-linejoin:round;">
<text x="103540" y="77420"
textLength="3350" font-size="780" lengthAdjust="spacingAndGlyphs"
text-anchor="start" opacity="0">Id: 7/8</text>
<path d="M103710 77390
L103710 76800
" />
<path d="M104240 77390
L104240 76800
" />
<path d="M104240 77360
L104180 77390
L104070 77390
L104010 77360
L103990 77340
L103960 77280
L103960 77110
L103990 77050
L104010 77030
L104070 77000
L104180 77000
L104240 77030
" />
<path d="M104520 77340
L104550 77360
L104520 77390
L104490 77360
L104520 77340
L104520 77390
" />
<path d="M104520 77030
L104550 77050
L104520 77080
L104490 77050
L104520 77030
L104520 77080
" />
<path d="M105190 76800
L105590 76800
L105340 77390
" />
<path d="M106230 76770
L105730 77530
" />
<path d="M106520 77050
L106460 77030
L106430 77000
L106400 76940
L106400 76910
L106430 76860
L106460 76830
L106520 76800
L106630 76800
L106680 76830
L106710 76860
L106740 76910
L106740 76940
L106710 77000
L106680 77030
L106630 77050
L106520 77050
L106460 77080
L106430 77110
L106400 77170
L106400 77280
L106430 77340
L106460 77360
L106520 77390
L106630 77390
L106680 77360
L106710 77340
L106740 77280
L106740 77170
L106710 77110
L106680 77080
L106630 77050
" />
</g>
<g style="fill:#840000; fill-opacity:0.0; 
stroke:#840000; stroke-width:100; stroke-opacity:1; 
stroke-linecap:round; stroke-linejoin:round;">
</g>
<g style="fill:#840000; fill-opacity:0.0; 
stroke:#840000; stroke-width:60; stroke-opacity:1; 
stroke-linecap:round; stroke-linejoin:round;">
<path d="M69690 73820
L112210 73820
" />
</g>
<g style="fill:#840000; fill-opacity:0.0; 
stroke:#840000; stroke-width:100; stroke-opacity:1; 
stroke-linecap:round; stroke-linejoin:round;">
</g>
<g style="fill:#840000; fill-opacity:0.0; 
stroke:#840000; stroke-width:160; stroke-opacity:1; 
stroke-linecap:round; stroke-linejoin:round;">
<text x="70080" y="74920"
textLength="3710" font-size="1050" lengthAdjust="spacingAndGlyphs"
text-anchor="start" opacity="0">Title: </text>
<path d="M70360 74090
L70810 74090
" />
<path d="M70480 74880
L70580 74090
" />
<path d="M70970 74880
L71040 74360
" />
<path d="M71070 74090
L71030 74130
L71060 74170
L71110 74130
L71070 74090
L71060 74170
" />
<path d="M71300 74360
L71600 74360
" />
<path d="M71450 74090
L71360 74770
L71390 74840
L71460 74880
L71540 74880
" />
<path d="M71910 74880
L71840 74840
L71820 74770
L71900 74090
" />
<path d="M72520 74840
L72440 74880
L72290 74880
L72220 74840
L72190 74770
L72230 74470
L72280 74390
L72360 74360
L72510 74360
L72580 74390
L72610 74470
L72600 74540
L72210 74620
" />
<path d="M72900 74810
L72930 74840
L72890 74880
L72860 74840
L72900 74810
L72890 74880
" />
<path d="M72950 74390
L72990 74430
L72940 74470
L72910 74430
L72950 74390
L72940 74470
" />
</g>
<g style="fill:#840000; fill-opacity:0.0; 
stroke:#840000; stroke-width:100; stroke-opacity:1; 
stroke-linecap:round; stroke-linejoin:round;">
</g>
<g style="fill:#840000; fill-opacity:0.0; 
stroke:#840000; stroke-width:60; stroke-opacity:1; 
stroke-linecap:round; stroke-linejoin:round;">
<text x="70080" y="73400"
textLength="16050" font-size="780" lengthAdjust="spacingAndGlyphs"
text-anchor="start" opacity="0">File: STM32F411_PowerFiltering.sch</text>
<path d="M70440 73060
L70250 73060
" />
<path d="M70250 73370
L70250 72780
L70530 72780
" />
<path d="M70750 73370
L70750 72980
" />
<path d="M70750 72780
L70720 72810
L70750 72840
L70780 72810
L70750 72780
L70750 72840
" />
<path d="M71120 73370
L71060 73340
L71030 73290
L71030 72780
" />
<path d="M71570 73340
L71510 73370
L71400 73370
L71340 73340
L71310 73290
L71310 73060
L71340 73010
L71400 72980
L71510 72980
L71570 73010
L71590 73060
L71590 73120
L71310 73180
" />
<path d="M71850 73320
L71880 73340
L71850 73370
L71820 73340
L71850 73320
L71850 73370
" />
<path d="M71850 73010
L71880 73030
L71850 73060
L71820 73030
L71850 73010
L71850 73060
" />
<path d="M72550 73340
L72630 73370
L72770 73370
L72830 73340
L72860 73320
L72890 73260
L72890 73200
L72860 73150
L72830 73120
L72770 73090
L72660 73060
L72610 73030
L72580 73010
L72550 72950
L72550 72890
L72580 72840
L72610 72810
L72660 72780
L72800 72780
L72890 72810
" />
<path d="M73060 72780
L73390 72780
" />
<path d="M73220 73370
L73220 72780
" />
<path d="M73590 73370
L73590 72780
L73790 73200
L73980 72780
L73980 73370
" />
<path d="M74210 72780
L74570 72780
L74380 73010
L74460 73010
L74520 73030
L74540 73060
L74570 73120
L74570 73260
L74540 73320
L74520 73340
L74460 73370
L74290 73370
L74240 73340
L74210 73320
" />
<path d="M74800 72840
L74830 72810
L74880 72780
L75020 72780
L75080 72810
L75110 72840
L75130 72890
L75130 72950
L75110 73030
L74770 73370
L75130 73370
" />
<path d="M75580 73060
L75390 73060
" />
<path d="M75390 73370
L75390 72780
L75670 72780
" />
<path d="M76150 72980
L76150 73370
" />
<path d="M76010 72750
L75860 73180
L76230 73180
" />
<path d="M76760 73370
L76430 73370
" />
<path d="M76600 73370
L76600 72780
L76540 72870
L76480 72920
L76430 72950
" />
<path d="M77330 73370
L76990 73370
" />
<path d="M77160 73370
L77160 72780
L77100 72870
L77040 72920
L76990 72950
" />
<path d="M77440 73430
L77890 73430
" />
<path d="M78030 73370
L78030 72780
L78250 72780
L78310 72810
L78340 72840
L78370 72890
L78370 72980
L78340 73030
L78310 73060
L78250 73090
L78030 73090
" />
<path d="M78700 73370
L78650 73340
L78620 73320
L78590 73260
L78590 73090
L78620 73030
L78650 73010
L78700 72980
L78790 72980
L78840 73010
L78870 73030
L78900 73090
L78900 73260
L78870 73320
L78840 73340
L78790 73370
L78700 73370
" />
<path d="M79100 72980
L79210 73370
L79320 73090
L79430 73370
L79550 72980
" />
<path d="M79990 73340
L79940 73370
L79830 73370
L79770 73340
L79740 73290
L79740 73060
L79770 73010
L79830 72980
L79940 72980
L79990 73010
L80020 73060
L80020 73120
L79740 73180
" />
<path d="M80280 73370
L80280 72980
" />
<path d="M80280 73090
L80300 73030
L80330 73010
L80390 72980
L80440 72980
" />
<path d="M80840 73060
L80640 73060
" />
<path d="M80640 73370
L80640 72780
L80920 72780
" />
<path d="M81150 73370
L81150 72980
" />
<path d="M81150 72780
L81120 72810
L81150 72840
L81170 72810
L81150 72780
L81150 72840
" />
<path d="M81510 73370
L81460 73340
L81430 73290
L81430 72780
" />
<path d="M81650 72980
L81880 72980
" />
<path d="M81740 72780
L81740 73290
L81760 73340
L81820 73370
L81880 73370
" />
<path d="M82300 73340
L82240 73370
L82130 73370
L82070 73340
L82050 73290
L82050 73060
L82070 73010
L82130 72980
L82240 72980
L82300 73010
L82330 73060
L82330 73120
L82050 73180
" />
<path d="M82580 73370
L82580 72980
" />
<path d="M82580 73090
L82610 73030
L82640 73010
L82690 72980
L82750 72980
" />
<path d="M82940 73370
L82940 72980
" />
<path d="M82940 72780
L82920 72810
L82940 72840
L82970 72810
L82940 72780
L82940 72840
" />
<path d="M83230 72980
L83230 73370
" />
<path d="M83230 73030
L83250 73010
L83310 72980
L83390 72980
L83450 73010
L83480 73060
L83480 73370
" />
<path d="M84010 72980
L84010 73460
L83980 73510
L83960 73540
L83900 73570
L83820 73570
L83760 73540
" />
<path d="M84010 73340
L83960 73370
L83840 73370
L83790 73340
L83760 73320
L83730 73260
L83730 73090
L83760 73030
L83790 73010
L83840 72980
L83960 72980
L84010 73010
" />
<path d="M84290 73320
L84320 73340
L84290 73370
L84270 73340
L84290 73320
L84290 73370
" />
<path d="M84550 73340
L84600 73370
L84710 73370
L84770 73340
L84800 73290
L84800 73260
L84770 73200
L84710 73180
L84630 73180
L84570 73150
L84550 73090
L84550 73060
L84570 73010
L84630 72980
L84710 72980
L84770 73010
" />
<path d="M85300 73340
L85250 73370
L85140 73370
L85080 73340
L85050 73320
L85020 73260
L85020 73090
L85050 73030
L85080 73010
L85140 72980
L85250 72980
L85300 73010
" />
<path d="M85560 73370
L85560 72780
" />
<path d="M85810 73370
L85810 73060
L85780 73010
L85730 72980
L85640 72980
L85590 73010
L85560 73030
" />
</g>
<g style="fill:#840000; fill-opacity:0.0; 
stroke:#840000; stroke-width:100; stroke-opacity:1; 
stroke-linecap:round; stroke-linejoin:round;">
</g>
<g style="fill:#840000; fill-opacity:0.0; 
stroke:#840000; stroke-width:60; stroke-opacity:1; 
stroke-linecap:round; stroke-linejoin:round;">
<path d="M69690 71460
L112210 71460
" />
</g>
<g style="fill:#840000; fill-opacity:0.0; 
stroke:#840000; stroke-width:100; stroke-opacity:1; 
stroke-linecap:round; stroke-linejoin:round;">
</g>
<g style="fill:#840000; fill-opacity:0.0; 
stroke:#840000; stroke-width:60; stroke-opacity:1; 
stroke-linecap:round; stroke-linejoin:round;">
<text x="70080" y="72340"
textLength="24360" font-size="780" lengthAdjust="spacingAndGlyphs"
text-anchor="start" opacity="0">Sheet: /SignalProcessing/STM32F411_PowerFiltering/</text>
<path d="M70220 72280
L70300 72310
L70440 72310
L70500 72280
L70530 72260
L70550 72200
L70550 72140
L70530 72090
L70500 72060
L70440 72030
L70330 72000
L70270 71970
L70250 71950
L70220 71890
L70220 71830
L70250 71780
L70270 71750
L70330 71720
L70470 71720
L70550 71750
" />
<path d="M70810 72310
L70810 71720
" />
<path d="M71060 72310
L71060 72000
L71030 71950
L70980 71920
L70890 71920
L70840 71950
L70810 71970
" />
<path d="M71570 72280
L71510 72310
L71400 72310
L71340 72280
L71310 72230
L71310 72000
L71340 71950
L71400 71920
L71510 71920
L71570 71950
L71590 72000
L71590 72060
L71310 72120
" />
<path d="M72070 72280
L72020 72310
L71900 72310
L71850 72280
L71820 72230
L71820 72000
L71850 71950
L71900 71920
L72020 71920
L72070 71950
L72100 72000
L72100 72060
L71820 72120
" />
<path d="M72270 71920
L72490 71920
" />
<path d="M72350 71720
L72350 72230
L72380 72280
L72440 72310
L72490 72310
" />
<path d="M72690 72260
L72720 72280
L72690 72310
L72660 72280
L72690 72260
L72690 72310
" />
<path d="M72690 71950
L72720 71970
L72690 72000
L72660 71970
L72690 71950
L72690 72000
" />
<path d="M73840 71690
L73340 72450
" />
<path d="M74010 72280
L74090 72310
L74240 72310
L74290 72280
L74320 72260
L74350 72200
L74350 72140
L74320 72090
L74290 72060
L74240 72030
L74120 72000
L74070 71970
L74040 71950
L74010 71890
L74010 71830
L74040 71780
L74070 71750
L74120 71720
L74260 71720
L74350 71750
" />
<path d="M74600 72310
L74600 71920
" />
<path d="M74600 71720
L74570 71750
L74600 71780
L74630 71750
L74600 71720
L74600 71780
" />
<path d="M75130 71920
L75130 72400
L75110 72450
L75080 72480
L75020 72510
L74940 72510
L74880 72480
" />
<path d="M75130 72280
L75080 72310
L74970 72310
L74910 72280
L74880 72260
L74850 72200
L74850 72030
L74880 71970
L74910 71950
L74970 71920
L75080 71920
L75130 71950
" />
<path d="M75420 71920
L75420 72310
" />
<path d="M75420 71970
L75440 71950
L75500 71920
L75580 71920
L75640 71950
L75670 72000
L75670 72310
" />
<path d="M76200 72310
L76200 72000
L76170 71950
L76120 71920
L76010 71920
L75950 71950
" />
<path d="M76200 72280
L76150 72310
L76010 72310
L75950 72280
L75920 72230
L75920 72170
L75950 72120
L76010 72090
L76150 72090
L76200 72060
" />
<path d="M76570 72310
L76510 72280
L76480 72230
L76480 71720
" />
<path d="M76790 72310
L76790 71720
L77020 71720
L77070 71750
L77100 71780
L77130 71830
L77130 71920
L77100 71970
L77070 72000
L77020 72030
L76790 72030
" />
<path d="M77380 72310
L77380 71920
" />
<path d="M77380 72030
L77410 71970
L77440 71950
L77490 71920
L77550 71920
" />
<path d="M77830 72310
L77780 72280
L77750 72260
L77720 72200
L77720 72030
L77750 71970
L77780 71950
L77830 71920
L77920 71920
L77970 71950
L78000 71970
L78030 72030
L78030 72200
L78000 72260
L77970 72280
L77920 72310
L77830 72310
" />
<path d="M78530 72280
L78480 72310
L78370 72310
L78310 72280
L78280 72260
L78250 72200
L78250 72030
L78280 71970
L78310 71950
L78370 71920
L78480 71920
L78530 71950
" />
<path d="M79010 72280
L78960 72310
L78840 72310
L78790 72280
L78760 72230
L78760 72000
L78790 71950
L78840 71920
L78960 71920
L79010 71950
L79040 72000
L79040 72060
L78760 72120
" />
<path d="M79260 72280
L79320 72310
L79430 72310
L79490 72280
L79520 72230
L79520 72200
L79490 72140
L79430 72120
L79350 72120
L79290 72090
L79260 72030
L79260 72000
L79290 71950
L79350 71920
L79430 71920
L79490 71950
" />
<path d="M79740 72280
L79800 72310
L79910 72310
L79970 72280
L79990 72230
L79990 72200
L79970 72140
L79910 72120
L79830 72120
L79770 72090
L79740 72030
L79740 72000
L79770 71950
L79830 71920
L79910 71920
L79970 71950
" />
<path d="M80250 72310
L80250 71920
" />
<path d="M80250 71720
L80220 71750
L80250 71780
L80280 71750
L80250 71720
L80250 71780
" />
<path d="M80530 71920
L80530 72310
" />
<path d="M80530 71970
L80560 71950
L80610 71920
L80700 71920
L80750 71950
L80780 72000
L80780 72310
" />
<path d="M81320 71920
L81320 72400
L81290 72450
L81260 72480
L81200 72510
L81120 72510
L81060 72480
" />
<path d="M81320 72280
L81260 72310
L81150 72310
L81090 72280
L81060 72260
L81030 72200
L81030 72030
L81060 71970
L81090 71950
L81150 71920
L81260 71920
L81320 71950
" />
<path d="M82020 71690
L81510 72450
" />
<path d="M82190 72280
L82270 72310
L82410 72310
L82470 72280
L82500 72260
L82520 72200
L82520 72140
L82500 72090
L82470 72060
L82410 72030
L82300 72000
L82240 71970
L82210 71950
L82190 71890
L82190 71830
L82210 71780
L82240 71750
L82300 71720
L82440 71720
L82520 71750
" />
<path d="M82690 71720
L83030 71720
" />
<path d="M82860 72310
L82860 71720
" />
<path d="M83230 72310
L83230 71720
L83420 72140
L83620 71720
L83620 72310
" />
<path d="M83840 71720
L84210 71720
L84010 71950
L84100 71950
L84150 71970
L84180 72000
L84210 72060
L84210 72200
L84180 72260
L84150 72280
L84100 72310
L83930 72310
L83870 72280
L83840 72260
" />
<path d="M84430 71780
L84460 71750
L84520 71720
L84660 71720
L84710 71750
L84740 71780
L84770 71830
L84770 71890
L84740 71970
L84410 72310
L84770 72310
" />
<path d="M85220 72000
L85020 72000
" />
<path d="M85020 72310
L85020 71720
L85300 71720
" />
<path d="M85780 71920
L85780 72310
" />
<path d="M85640 71690
L85500 72120
L85870 72120
" />
<path d="M86400 72310
L86060 72310
" />
<path d="M86230 72310
L86230 71720
L86180 71810
L86120 71860
L86060 71890
" />
<path d="M86960 72310
L86630 72310
" />
<path d="M86790 72310
L86790 71720
L86740 71810
L86680 71860
L86630 71890
" />
<path d="M87070 72370
L87520 72370
" />
<path d="M87660 72310
L87660 71720
L87890 71720
L87950 71750
L87970 71780
L88000 71830
L88000 71920
L87970 71970
L87950 72000
L87890 72030
L87660 72030
" />
<path d="M88340 72310
L88280 72280
L88250 72260
L88230 72200
L88230 72030
L88250 71970
L88280 71950
L88340 71920
L88420 71920
L88480 71950
L88510 71970
L88540 72030
L88540 72200
L88510 72260
L88480 72280
L88420 72310
L88340 72310
" />
<path d="M88730 71920
L88840 72310
L88960 72030
L89070 72310
L89180 71920
" />
<path d="M89630 72280
L89580 72310
L89460 72310
L89410 72280
L89380 72230
L89380 72000
L89410 71950
L89460 71920
L89580 71920
L89630 71950
L89660 72000
L89660 72060
L89380 72120
" />
<path d="M89910 72310
L89910 71920
" />
<path d="M89910 72030
L89940 71970
L89970 71950
L90020 71920
L90080 71920
" />
<path d="M90470 72000
L90280 72000
" />
<path d="M90280 72310
L90280 71720
L90560 71720
" />
<path d="M90780 72310
L90780 71920
" />
<path d="M90780 71720
L90760 71750
L90780 71780
L90810 71750
L90780 71720
L90780 71780
" />
<path d="M91150 72310
L91090 72280
L91060 72230
L91060 71720
" />
<path d="M91290 71920
L91510 71920
" />
<path d="M91370 71720
L91370 72230
L91400 72280
L91460 72310
L91510 72310
" />
<path d="M91940 72280
L91880 72310
L91770 72310
L91710 72280
L91680 72230
L91680 72000
L91710 71950
L91770 71920
L91880 71920
L91940 71950
L91960 72000
L91960 72060
L91680 72120
" />
<path d="M92220 72310
L92220 71920
" />
<path d="M92220 72030
L92240 71970
L92270 71950
L92330 71920
L92380 71920
" />
<path d="M92580 72310
L92580 71920
" />
<path d="M92580 71720
L92550 71750
L92580 71780
L92610 71750
L92580 71720
L92580 71780
" />
<path d="M92860 71920
L92860 72310
" />
<path d="M92860 71970
L92890 71950
L92950 71920
L93030 71920
L93090 71950
L93120 72000
L93120 72310
" />
<path d="M93650 71920
L93650 72400
L93620 72450
L93590 72480
L93540 72510
L93450 72510
L93400 72480
" />
<path d="M93650 72280
L93590 72310
L93480 72310
L93420 72280
L93400 72260
L93370 72200
L93370 72030
L93400 71970
L93420 71950
L93480 71920
L93590 71920
L93650 71950
" />
<path d="M94350 71690
L93850 72450
" />
</g>
<g style="fill:#840000; fill-opacity:0.0; 
stroke:#840000; stroke-width:100; stroke-opacity:1; 
stroke-linecap:round; stroke-linejoin:round;">
</g>
<g style="fill:#840000; fill-opacity:0.0; 
stroke:#840000; stroke-width:60; stroke-opacity:1; 
stroke-linecap:round; stroke-linejoin:round;">
<path d="M77560 75400
L77560 76580
" />
</g>
<g style="fill:#840000; fill-opacity:0.0; 
stroke:#840000; stroke-width:100; stroke-opacity:1; 
stroke-linecap:round; stroke-linejoin:round;">
</g>
<g style="fill:#840000; fill-opacity:0.0; 
stroke:#840000; stroke-width:60; stroke-opacity:1; 
stroke-linecap:round; stroke-linejoin:round;">
<path d="M102760 75400
L102760 77960
" />
</g>
<g style="fill:#840000; fill-opacity:0.0; 
stroke:#840000; stroke-width:0; stroke-opacity:1; 
stroke-linecap:round; stroke-linejoin:round;">
<g >
</g>
<g style="fill:#840000; fill-opacity:0.0; 
stroke:#840000; stroke-width:60; stroke-opacity:1; 
stroke-linecap:round; stroke-linejoin:round;">
<path d="M42750 28999.6 A250 250 0.0 0 0 42250 28999.6" />
<path d="M42250 28999.6 A250 250 0.0 0 0 41750 28999.6" />
<path d="M41750 28999.6 A250 250 0.0 0 0 41250 28999.6" />
<path d="M41250 28999.6 A250 250 0.0 0 0 40750 28999.6" />
<path d="M40750 29000
L40250 29000
" />
<path d="M42750 29000
L43250 29000
" />
</g>
<g style="fill:#008484; fill-opacity:0.0; 
stroke:#008484; stroke-width:60; stroke-opacity:1; 
stroke-linecap:round; stroke-linejoin:round;">
<text x="41750" y="27320"
textLength="940" font-size="660" lengthAdjust="spacingAndGlyphs"
text-anchor="middle" opacity="0">L2</text>
<path d="M41660 27290
L41420 27290
L41420 26790
" />
<path d="M41800 26840
L41830 26820
L41880 26790
L42000 26790
L42040 26820
L42070 26840
L42090 26890
L42090 26930
L42070 27010
L41780 27290
L42090 27290
" />
<text x="41740" y="28230"
textLength="1490" font-size="660" lengthAdjust="spacingAndGlyphs"
text-anchor="middle" opacity="0">600</text>
<path d="M41350 27700
L41260 27700
L41210 27730
L41190 27750
L41140 27820
L41120 27920
L41120 28110
L41140 28150
L41160 28180
L41210 28200
L41310 28200
L41350 28180
L41380 28150
L41400 28110
L41400 27990
L41380 27940
L41350 27920
L41310 27890
L41210 27890
L41160 27920
L41140 27940
L41120 27990
" />
<path d="M41710 27700
L41760 27700
L41810 27730
L41830 27750
L41850 27800
L41880 27890
L41880 28010
L41850 28110
L41830 28150
L41810 28180
L41760 28200
L41710 28200
L41660 28180
L41640 28150
L41620 28110
L41590 28010
L41590 27890
L41620 27800
L41640 27750
L41660 27730
L41710 27700
" />
<path d="M42190 27700
L42240 27700
L42280 27730
L42310 27750
L42330 27800
L42350 27890
L42350 28010
L42330 28110
L42310 28150
L42280 28180
L42240 28200
L42190 28200
L42140 28180
L42120 28150
L42090 28110
L42070 28010
L42070 27890
L42090 27800
L42120 27750
L42140 27730
L42190 27700
" />
</g>
</g>
<g style="fill:#008484; fill-opacity:0.0; 
stroke:#008484; stroke-width:0; stroke-opacity:1; 
stroke-linecap:round; stroke-linejoin:round;">
<g >
</g>
<g style="fill:#840000; fill-opacity:0.0; 
stroke:#840000; stroke-width:0; stroke-opacity:1; 
stroke-linecap:round; stroke-linejoin:round;">
</g>
<g style="fill:#840000; fill-opacity:0.0; 
stroke:#840000; stroke-width:60; stroke-opacity:1; 
stroke-linecap:round; stroke-linejoin:round;">
<path style="fill:#840000; fill-opacity:0.0; 
stroke:#840000; stroke-width:60; stroke-opacity:1; 
stroke-linecap:round; stroke-linejoin:round;fill:none"
d="M 26500,39000
26500,39500
27000,39500
26500,40000
26000,39500
26500,39500
" /> 
</g>
<g style="fill:#008484; fill-opacity:0.0; 
stroke:#008484; stroke-width:60; stroke-opacity:1; 
stroke-linecap:round; stroke-linejoin:round;">
<text x="26550" y="41000"
textLength="2060" font-size="660" lengthAdjust="spacingAndGlyphs"
text-anchor="middle" opacity="0">GNDS</text>
<path d="M25930 40500
L25880 40470
L25810 40470
L25740 40500
L25690 40540
L25660 40590
L25640 40690
L25640 40760
L25660 40850
L25690 40900
L25740 40950
L25810 40970
L25850 40970
L25930 40950
L25950 40920
L25950 40760
L25850 40760
" />
<path d="M26160 40970
L26160 40470
L26450 40970
L26450 40470
" />
<path d="M26690 40970
L26690 40470
L26810 40470
L26880 40500
L26930 40540
L26950 40590
L26970 40690
L26970 40760
L26950 40850
L26930 40900
L26880 40950
L26810 40970
L26690 40970
" />
<path d="M27160 40950
L27240 40970
L27350 40970
L27400 40950
L27430 40920
L27450 40880
L27450 40830
L27430 40780
L27400 40760
L27350 40730
L27260 40710
L27210 40690
L27190 40660
L27160 40610
L27160 40570
L27190 40520
L27210 40500
L27260 40470
L27380 40470
L27450 40500
" />
</g>
</g>
<g style="fill:#008484; fill-opacity:0.0; 
stroke:#008484; stroke-width:0; stroke-opacity:1; 
stroke-linecap:round; stroke-linejoin:round;">
<g >
</g>
<g style="fill:#840000; fill-opacity:0.0; 
stroke:#840000; stroke-width:0; stroke-opacity:1; 
stroke-linecap:round; stroke-linejoin:round;">
</g>
<g style="fill:#840000; fill-opacity:0.0; 
stroke:#840000; stroke-width:200; stroke-opacity:1; 
stroke-linecap:round; stroke-linejoin:round;">
<path style="fill:#840000; fill-opacity:0.0; 
stroke:#840000; stroke-width:200; stroke-opacity:1; 
stroke-linecap:round; stroke-linejoin:round;fill:none"
d="M 48450,50050
50050,50050
" /> 
<path style="fill:#840000; fill-opacity:0.0; 
stroke:#840000; stroke-width:200; stroke-opacity:1; 
stroke-linecap:round; stroke-linejoin:round;fill:none"
d="M 48450,49450
50050,49450
" /> 
</g>
<g style="fill:#840000; fill-opacity:0.0; 
stroke:#840000; stroke-width:60; stroke-opacity:1; 
stroke-linecap:round; stroke-linejoin:round;">
<path d="M49250 49350
L49250 48250
" />
<path d="M49250 50150
L49250 51250
" />
</g>
<g style="fill:#008484; fill-opacity:0.0; 
stroke:#008484; stroke-width:60; stroke-opacity:1; 
stroke-linecap:round; stroke-linejoin:round;">
<text x="51150" y="49560"
textLength="1510" font-size="660" lengthAdjust="spacingAndGlyphs"
text-anchor="middle" opacity="0">C27</text>
<path d="M50820 49480
L50800 49510
L50730 49530
L50680 49530
L50610 49510
L50560 49460
L50540 49410
L50510 49320
L50510 49250
L50540 49150
L50560 49100
L50610 49060
L50680 49030
L50730 49030
L50800 49060
L50820 49080
" />
<path d="M51010 49080
L51040 49060
L51090 49030
L51200 49030
L51250 49060
L51280 49080
L51300 49130
L51300 49170
L51280 49250
L50990 49530
L51300 49530
" />
<path d="M51470 49030
L51800 49030
L51590 49530
" />
<text x="51580" y="50470"
textLength="2370" font-size="660" lengthAdjust="spacingAndGlyphs"
text-anchor="middle" opacity="0">100nF</text>
<path d="M50800 50440
L50520 50440
" />
<path d="M50660 50440
L50660 49940
L50610 50010
L50560 50060
L50520 50080
" />
<path d="M51110 49940
L51160 49940
L51210 49970
L51230 49990
L51250 50040
L51280 50130
L51280 50250
L51250 50350
L51230 50390
L51210 50420
L51160 50440
L51110 50440
L51060 50420
L51040 50390
L51020 50350
L50990 50250
L50990 50130
L51020 50040
L51040 49990
L51060 49970
L51110 49940
" />
<path d="M51590 49940
L51630 49940
L51680 49970
L51710 49990
L51730 50040
L51750 50130
L51750 50250
L51730 50350
L51710 50390
L51680 50420
L51630 50440
L51590 50440
L51540 50420
L51520 50390
L51490 50350
L51470 50250
L51470 50130
L51490 50040
L51520 49990
L51540 49970
L51590 49940
" />
<path d="M51970 50110
L51970 50440
" />
<path d="M51970 50160
L51990 50130
L52040 50110
L52110 50110
L52160 50130
L52180 50180
L52180 50440
" />
<path d="M52590 50180
L52420 50180
" />
<path d="M52420 50440
L52420 49940
L52660 49940
" />
</g>
</g>
<g style="fill:#008484; fill-opacity:0.0; 
stroke:#008484; stroke-width:0; stroke-opacity:1; 
stroke-linecap:round; stroke-linejoin:round;">
<g >
</g>
<g style="fill:#840000; fill-opacity:0.0; 
stroke:#840000; stroke-width:0; stroke-opacity:1; 
stroke-linecap:round; stroke-linejoin:round;">
</g>
<g style="fill:#840000; fill-opacity:0.0; 
stroke:#840000; stroke-width:200; stroke-opacity:1; 
stroke-linecap:round; stroke-linejoin:round;">
<path style="fill:#840000; fill-opacity:0.0; 
stroke:#840000; stroke-width:200; stroke-opacity:1; 
stroke-linecap:round; stroke-linejoin:round;fill:none"
d="M 43700,50050
45300,50050
" /> 
<path style="fill:#840000; fill-opacity:0.0; 
stroke:#840000; stroke-width:200; stroke-opacity:1; 
stroke-linecap:round; stroke-linejoin:round;fill:none"
d="M 43700,49450
45300,49450
" /> 
</g>
<g style="fill:#840000; fill-opacity:0.0; 
stroke:#840000; stroke-width:60; stroke-opacity:1; 
stroke-linecap:round; stroke-linejoin:round;">
<path d="M44500 49350
L44500 48250
" />
<path d="M44500 50150
L44500 51250
" />
</g>
<g style="fill:#008484; fill-opacity:0.0; 
stroke:#008484; stroke-width:60; stroke-opacity:1; 
stroke-linecap:round; stroke-linejoin:round;">
<text x="46400" y="49560"
textLength="1510" font-size="660" lengthAdjust="spacingAndGlyphs"
text-anchor="middle" opacity="0">C26</text>
<path d="M46070 49480
L46050 49510
L45980 49530
L45930 49530
L45860 49510
L45810 49460
L45790 49410
L45760 49320
L45760 49250
L45790 49150
L45810 49100
L45860 49060
L45930 49030
L45980 49030
L46050 49060
L46070 49080
" />
<path d="M46260 49080
L46290 49060
L46340 49030
L46450 49030
L46500 49060
L46530 49080
L46550 49130
L46550 49170
L46530 49250
L46240 49530
L46550 49530
" />
<path d="M46980 49030
L46880 49030
L46840 49060
L46810 49080
L46760 49150
L46740 49250
L46740 49440
L46760 49480
L46790 49510
L46840 49530
L46930 49530
L46980 49510
L47000 49480
L47030 49440
L47030 49320
L47000 49270
L46980 49250
L46930 49220
L46840 49220
L46790 49250
L46760 49270
L46740 49320
" />
<text x="46830" y="50470"
textLength="2370" font-size="660" lengthAdjust="spacingAndGlyphs"
text-anchor="middle" opacity="0">100nF</text>
<path d="M46050 50440
L45770 50440
" />
<path d="M45910 50440
L45910 49940
L45860 50010
L45810 50060
L45770 50080
" />
<path d="M46360 49940
L46410 49940
L46460 49970
L46480 49990
L46500 50040
L46530 50130
L46530 50250
L46500 50350
L46480 50390
L46460 50420
L46410 50440
L46360 50440
L46310 50420
L46290 50390
L46270 50350
L46240 50250
L46240 50130
L46270 50040
L46290 49990
L46310 49970
L46360 49940
" />
<path d="M46840 49940
L46880 49940
L46930 49970
L46960 49990
L46980 50040
L47000 50130
L47000 50250
L46980 50350
L46960 50390
L46930 50420
L46880 50440
L46840 50440
L46790 50420
L46770 50390
L46740 50350
L46720 50250
L46720 50130
L46740 50040
L46770 49990
L46790 49970
L46840 49940
" />
<path d="M47220 50110
L47220 50440
" />
<path d="M47220 50160
L47240 50130
L47290 50110
L47360 50110
L47410 50130
L47430 50180
L47430 50440
" />
<path d="M47840 50180
L47670 50180
" />
<path d="M47670 50440
L47670 49940
L47910 49940
" />
</g>
</g>
<g style="fill:#008484; fill-opacity:0.0; 
stroke:#008484; stroke-width:0; stroke-opacity:1; 
stroke-linecap:round; stroke-linejoin:round;">
<g >
</g>
<g style="fill:#840000; fill-opacity:0.0; 
stroke:#840000; stroke-width:0; stroke-opacity:1; 
stroke-linecap:round; stroke-linejoin:round;">
</g>
<g style="fill:#840000; fill-opacity:0.0; 
stroke:#840000; stroke-width:200; stroke-opacity:1; 
stroke-linecap:round; stroke-linejoin:round;">
<path style="fill:#840000; fill-opacity:0.0; 
stroke:#840000; stroke-width:200; stroke-opacity:1; 
stroke-linecap:round; stroke-linejoin:round;fill:none"
d="M 38700,50050
40300,50050
" /> 
<path style="fill:#840000; fill-opacity:0.0; 
stroke:#840000; stroke-width:200; stroke-opacity:1; 
stroke-linecap:round; stroke-linejoin:round;fill:none"
d="M 38700,49450
40300,49450
" /> 
</g>
<g style="fill:#840000; fill-opacity:0.0; 
stroke:#840000; stroke-width:60; stroke-opacity:1; 
stroke-linecap:round; stroke-linejoin:round;">
<path d="M39500 49350
L39500 48250
" />
<path d="M39500 50150
L39500 51250
" />
</g>
<g style="fill:#008484; fill-opacity:0.0; 
stroke:#008484; stroke-width:60; stroke-opacity:1; 
stroke-linecap:round; stroke-linejoin:round;">
<text x="41400" y="49560"
textLength="1510" font-size="660" lengthAdjust="spacingAndGlyphs"
text-anchor="middle" opacity="0">C25</text>
<path d="M41070 49480
L41050 49510
L40980 49530
L40930 49530
L40860 49510
L40810 49460
L40790 49410
L40760 49320
L40760 49250
L40790 49150
L40810 49100
L40860 49060
L40930 49030
L40980 49030
L41050 49060
L41070 49080
" />
<path d="M41260 49080
L41290 49060
L41340 49030
L41450 49030
L41500 49060
L41530 49080
L41550 49130
L41550 49170
L41530 49250
L41240 49530
L41550 49530
" />
<path d="M42000 49030
L41760 49030
L41740 49270
L41760 49250
L41810 49220
L41930 49220
L41980 49250
L42000 49270
L42030 49320
L42030 49440
L42000 49480
L41980 49510
L41930 49530
L41810 49530
L41760 49510
L41740 49480
" />
<text x="41830" y="50470"
textLength="2370" font-size="660" lengthAdjust="spacingAndGlyphs"
text-anchor="middle" opacity="0">100nF</text>
<path d="M41050 50440
L40770 50440
" />
<path d="M40910 50440
L40910 49940
L40860 50010
L40810 50060
L40770 50080
" />
<path d="M41360 49940
L41410 49940
L41460 49970
L41480 49990
L41500 50040
L41530 50130
L41530 50250
L41500 50350
L41480 50390
L41460 50420
L41410 50440
L41360 50440
L41310 50420
L41290 50390
L41270 50350
L41240 50250
L41240 50130
L41270 50040
L41290 49990
L41310 49970
L41360 49940
" />
<path d="M41840 49940
L41880 49940
L41930 49970
L41960 49990
L41980 50040
L42000 50130
L42000 50250
L41980 50350
L41960 50390
L41930 50420
L41880 50440
L41840 50440
L41790 50420
L41770 50390
L41740 50350
L41720 50250
L41720 50130
L41740 50040
L41770 49990
L41790 49970
L41840 49940
" />
<path d="M42220 50110
L42220 50440
" />
<path d="M42220 50160
L42240 50130
L42290 50110
L42360 50110
L42410 50130
L42430 50180
L42430 50440
" />
<path d="M42840 50180
L42670 50180
" />
<path d="M42670 50440
L42670 49940
L42910 49940
" />
</g>
</g>
<g style="fill:#008484; fill-opacity:0.0; 
stroke:#008484; stroke-width:0; stroke-opacity:1; 
stroke-linecap:round; stroke-linejoin:round;">
<g >
</g>
<g style="fill:#840000; fill-opacity:0.0; 
stroke:#840000; stroke-width:0; stroke-opacity:1; 
stroke-linecap:round; stroke-linejoin:round;">
</g>
<g style="fill:#840000; fill-opacity:0.0; 
stroke:#840000; stroke-width:200; stroke-opacity:1; 
stroke-linecap:round; stroke-linejoin:round;">
<path style="fill:#840000; fill-opacity:0.0; 
stroke:#840000; stroke-width:200; stroke-opacity:1; 
stroke-linecap:round; stroke-linejoin:round;fill:none"
d="M 33950,50050
35550,50050
" /> 
<path style="fill:#840000; fill-opacity:0.0; 
stroke:#840000; stroke-width:200; stroke-opacity:1; 
stroke-linecap:round; stroke-linejoin:round;fill:none"
d="M 33950,49450
35550,49450
" /> 
</g>
<g style="fill:#840000; fill-opacity:0.0; 
stroke:#840000; stroke-width:60; stroke-opacity:1; 
stroke-linecap:round; stroke-linejoin:round;">
<path d="M34750 49350
L34750 48250
" />
<path d="M34750 50150
L34750 51250
" />
</g>
<g style="fill:#008484; fill-opacity:0.0; 
stroke:#008484; stroke-width:60; stroke-opacity:1; 
stroke-linecap:round; stroke-linejoin:round;">
<text x="36650" y="49560"
textLength="1510" font-size="660" lengthAdjust="spacingAndGlyphs"
text-anchor="middle" opacity="0">C24</text>
<path d="M36320 49480
L36300 49510
L36230 49530
L36180 49530
L36110 49510
L36060 49460
L36040 49410
L36010 49320
L36010 49250
L36040 49150
L36060 49100
L36110 49060
L36180 49030
L36230 49030
L36300 49060
L36320 49080
" />
<path d="M36510 49080
L36540 49060
L36590 49030
L36700 49030
L36750 49060
L36780 49080
L36800 49130
L36800 49170
L36780 49250
L36490 49530
L36800 49530
" />
<path d="M37230 49200
L37230 49530
" />
<path d="M37110 49010
L36990 49360
L37300 49360
" />
<text x="37080" y="50470"
textLength="2370" font-size="660" lengthAdjust="spacingAndGlyphs"
text-anchor="middle" opacity="0">100nF</text>
<path d="M36300 50440
L36020 50440
" />
<path d="M36160 50440
L36160 49940
L36110 50010
L36060 50060
L36020 50080
" />
<path d="M36610 49940
L36660 49940
L36710 49970
L36730 49990
L36750 50040
L36780 50130
L36780 50250
L36750 50350
L36730 50390
L36710 50420
L36660 50440
L36610 50440
L36560 50420
L36540 50390
L36520 50350
L36490 50250
L36490 50130
L36520 50040
L36540 49990
L36560 49970
L36610 49940
" />
<path d="M37090 49940
L37130 49940
L37180 49970
L37210 49990
L37230 50040
L37250 50130
L37250 50250
L37230 50350
L37210 50390
L37180 50420
L37130 50440
L37090 50440
L37040 50420
L37020 50390
L36990 50350
L36970 50250
L36970 50130
L36990 50040
L37020 49990
L37040 49970
L37090 49940
" />
<path d="M37470 50110
L37470 50440
" />
<path d="M37470 50160
L37490 50130
L37540 50110
L37610 50110
L37660 50130
L37680 50180
L37680 50440
" />
<path d="M38090 50180
L37920 50180
" />
<path d="M37920 50440
L37920 49940
L38160 49940
" />
</g>
</g>
<g style="fill:#008484; fill-opacity:0.0; 
stroke:#008484; stroke-width:0; stroke-opacity:1; 
stroke-linecap:round; stroke-linejoin:round;">
<g >
</g>
<g style="fill:#840000; fill-opacity:0.0; 
stroke:#840000; stroke-width:0; stroke-opacity:1; 
stroke-linecap:round; stroke-linejoin:round;">
</g>
<g style="fill:#840000; fill-opacity:0.0; 
stroke:#840000; stroke-width:200; stroke-opacity:1; 
stroke-linecap:round; stroke-linejoin:round;">
<path style="fill:#840000; fill-opacity:0.0; 
stroke:#840000; stroke-width:200; stroke-opacity:1; 
stroke-linecap:round; stroke-linejoin:round;fill:none"
d="M 25700,34550
27300,34550
" /> 
<path style="fill:#840000; fill-opacity:0.0; 
stroke:#840000; stroke-width:200; stroke-opacity:1; 
stroke-linecap:round; stroke-linejoin:round;fill:none"
d="M 25700,33950
27300,33950
" /> 
</g>
<g style="fill:#840000; fill-opacity:0.0; 
stroke:#840000; stroke-width:60; stroke-opacity:1; 
stroke-linecap:round; stroke-linejoin:round;">
<path d="M26500 33850
L26500 32750
" />
<path d="M26500 34650
L26500 35750
" />
</g>
<g style="fill:#008484; fill-opacity:0.0; 
stroke:#008484; stroke-width:60; stroke-opacity:1; 
stroke-linecap:round; stroke-linejoin:round;">
<text x="28400" y="34060"
textLength="1510" font-size="660" lengthAdjust="spacingAndGlyphs"
text-anchor="middle" opacity="0">C23</text>
<path d="M28070 33980
L28050 34010
L27980 34030
L27930 34030
L27860 34010
L27810 33960
L27790 33910
L27760 33820
L27760 33750
L27790 33650
L27810 33600
L27860 33560
L27930 33530
L27980 33530
L28050 33560
L28070 33580
" />
<path d="M28260 33580
L28290 33560
L28340 33530
L28450 33530
L28500 33560
L28530 33580
L28550 33630
L28550 33670
L28530 33750
L28240 34030
L28550 34030
" />
<path d="M28720 33530
L29030 33530
L28860 33720
L28930 33720
L28980 33750
L29000 33770
L29030 33820
L29030 33940
L29000 33980
L28980 34010
L28930 34030
L28790 34030
L28740 34010
L28720 33980
" />
<text x="29270" y="34970"
textLength="3250" font-size="660" lengthAdjust="spacingAndGlyphs"
text-anchor="middle" opacity="0">1uF X5R</text>
<path d="M28050 34940
L27770 34940
" />
<path d="M27910 34940
L27910 34440
L27860 34510
L27810 34560
L27770 34580
" />
<path d="M28480 34610
L28480 34940
" />
<path d="M28270 34610
L28270 34870
L28290 34920
L28340 34940
L28410 34940
L28460 34920
L28480 34890
" />
<path d="M28880 34680
L28720 34680
" />
<path d="M28720 34940
L28720 34440
L28960 34440
" />
<path d="M29480 34440
L29810 34940
" />
<path d="M29810 34440
L29480 34940
" />
<path d="M30240 34440
L30000 34440
L29980 34680
L30000 34660
L30050 34630
L30170 34630
L30220 34660
L30240 34680
L30270 34730
L30270 34850
L30240 34890
L30220 34920
L30170 34940
L30050 34940
L30000 34920
L29980 34890
" />
<path d="M30770 34940
L30600 34700
" />
<path d="M30480 34940
L30480 34440
L30670 34440
L30720 34470
L30740 34490
L30770 34540
L30770 34610
L30740 34660
L30720 34680
L30670 34700
L30480 34700
" />
</g>
</g>
<g style="fill:#008484; fill-opacity:0.0; 
stroke:#008484; stroke-width:0; stroke-opacity:1; 
stroke-linecap:round; stroke-linejoin:round;">
<g >
</g>
<g style="fill:#840000; fill-opacity:0.0; 
stroke:#840000; stroke-width:0; stroke-opacity:1; 
stroke-linecap:round; stroke-linejoin:round;">
</g>
<g style="fill:#840000; fill-opacity:0.0; 
stroke:#840000; stroke-width:60; stroke-opacity:1; 
stroke-linecap:round; stroke-linejoin:round;">
<path style="fill:#840000; fill-opacity:0.0; 
stroke:#840000; stroke-width:60; stroke-opacity:1; 
stroke-linecap:round; stroke-linejoin:round;fill:none"
d="M 34750,56250
34750,56750
35250,56750
34750,57250
34250,56750
34750,56750
" /> 
</g>
<g style="fill:#008484; fill-opacity:0.0; 
stroke:#008484; stroke-width:60; stroke-opacity:1; 
stroke-linecap:round; stroke-linejoin:round;">
<text x="34800" y="58250"
textLength="2060" font-size="660" lengthAdjust="spacingAndGlyphs"
text-anchor="middle" opacity="0">GNDS</text>
<path d="M34180 57750
L34130 57720
L34060 57720
L33990 57750
L33940 57790
L33910 57840
L33890 57940
L33890 58010
L33910 58100
L33940 58150
L33990 58200
L34060 58220
L34100 58220
L34180 58200
L34200 58170
L34200 58010
L34100 58010
" />
<path d="M34410 58220
L34410 57720
L34700 58220
L34700 57720
" />
<path d="M34940 58220
L34940 57720
L35060 57720
L35130 57750
L35180 57790
L35200 57840
L35220 57940
L35220 58010
L35200 58100
L35180 58150
L35130 58200
L35060 58220
L34940 58220
" />
<path d="M35410 58200
L35490 58220
L35600 58220
L35650 58200
L35680 58170
L35700 58130
L35700 58080
L35680 58030
L35650 58010
L35600 57980
L35510 57960
L35460 57940
L35440 57910
L35410 57860
L35410 57820
L35440 57770
L35460 57750
L35510 57720
L35630 57720
L35700 57750
" />
</g>
</g>
<g style="fill:#008484; fill-opacity:0.0; 
stroke:#008484; stroke-width:60; stroke-opacity:1; 
stroke-linecap:round; stroke-linejoin:round;">
</g>
<g style="fill:#008400; fill-opacity:0.0; 
stroke:#008400; stroke-width:60; stroke-opacity:1; 
stroke-linecap:round; stroke-linejoin:round;">
<path d="M49250 48250
L49250 46250
" />
<path d="M44500 48250
L44500 46250
" />
<path d="M26500 35750
L26500 39000
" />
<path d="M44500 46250
L49250 46250
" />
<path d="M39500 48250
L39500 46250
" />
<path d="M26500 32750
L26500 29000
" />
<path d="M34750 51250
L34750 53250
" />
<path d="M34750 53250
L39500 53250
" />
<path d="M49250 51250
L49250 53250
" />
<path d="M44500 51250
L44500 53250
" />
<path d="M34750 48250
L34750 46250
" />
<path d="M44500 53250
L49250 53250
" />
<path d="M39500 51250
L39500 53250
" />
<path d="M26500 29000
L34750 29000
" />
<path d="M39500 53250
L44500 53250
" />
<path d="M40250 29000
L34750 29000
" />
<path d="M22250 29000
L26500 29000
" />
<path d="M34750 46250
L39500 46250
" />
<path d="M39500 46250
L44500 46250
" />
<path d="M34750 46250
L34750 29000
" />
<path d="M34750 53250
L34750 56250
" />
<path d="M55000 29000
L43250 29000
" />
<path d="M56750 46250
L49250 46250
" />
</g>
<g style="fill:#848400; fill-opacity:0.0; 
stroke:#848400; stroke-width:60; stroke-opacity:1; 
stroke-linecap:round; stroke-linejoin:round;">
<text x="21650" y="29250"
textLength="2630" font-size="660" lengthAdjust="spacingAndGlyphs"
text-anchor="end" opacity="0">VDD_IN</text>
<path d="M19090 28720
L19260 29220
L19420 28720
" />
<path d="M19590 29220
L19590 28720
L19710 28720
L19780 28750
L19830 28790
L19850 28840
L19880 28940
L19880 29010
L19850 29100
L19830 29150
L19780 29200
L19710 29220
L19590 29220
" />
<path d="M20090 29220
L20090 28720
L20210 28720
L20280 28750
L20330 28790
L20350 28840
L20380 28940
L20380 29010
L20350 29100
L20330 29150
L20280 29200
L20210 29220
L20090 29220
" />
<path d="M20470 29270
L20850 29270
" />
<path d="M20970 29220
L20970 28720
" />
<path d="M21210 29220
L21210 28720
L21500 29220
L21500 28720
" />
</g>
<g style="fill:#848400; fill-opacity:0.0; 
stroke:#848400; stroke-width:100; stroke-opacity:1; 
stroke-linecap:round; stroke-linejoin:round;">
<path style="fill:#848400; fill-opacity:0.0; 
stroke:#848400; stroke-width:100; stroke-opacity:1; 
stroke-linecap:round; stroke-linejoin:round;fill:none"
d="M 22250,29000
22000,28750
21750,28750
21750,29250
22000,29250
Z" /> 
</g>
<g style="fill:#848400; fill-opacity:0.0; 
stroke:#848400; stroke-width:60; stroke-opacity:1; 
stroke-linecap:round; stroke-linejoin:round;">
<text x="57350" y="46500"
textLength="1800" font-size="660" lengthAdjust="spacingAndGlyphs"
text-anchor="start" opacity="0">VBAT</text>
<path d="M57420 45970
L57590 46470
L57760 45970
" />
<path d="M58090 46210
L58160 46230
L58180 46260
L58210 46300
L58210 46380
L58180 46420
L58160 46450
L58110 46470
L57920 46470
L57920 45970
L58090 45970
L58140 46000
L58160 46020
L58180 46070
L58180 46110
L58160 46160
L58140 46190
L58090 46210
L57920 46210
" />
<path d="M58400 46330
L58640 46330
" />
<path d="M58350 46470
L58520 45970
L58680 46470
" />
<path d="M58780 45970
L59070 45970
" />
<path d="M58920 46470
L58920 45970
" />
</g>
<g style="fill:#848400; fill-opacity:0.0; 
stroke:#848400; stroke-width:100; stroke-opacity:1; 
stroke-linecap:round; stroke-linejoin:round;">
<path style="fill:#848400; fill-opacity:0.0; 
stroke:#848400; stroke-width:100; stroke-opacity:1; 
stroke-linecap:round; stroke-linejoin:round;fill:none"
d="M 56750,46250
57000,46500
57250,46500
57250,46000
57000,46000
Z" /> 
</g>
<g style="fill:#848400; fill-opacity:0.0; 
stroke:#848400; stroke-width:60; stroke-opacity:1; 
stroke-linecap:round; stroke-linejoin:round;">
<text x="55600" y="29250"
textLength="1920" font-size="660" lengthAdjust="spacingAndGlyphs"
text-anchor="start" opacity="0">VDDA</text>
<path d="M55670 28720
L55840 29220
L56010 28720
" />
<path d="M56170 29220
L56170 28720
L56290 28720
L56360 28750
L56410 28790
L56430 28840
L56460 28940
L56460 29010
L56430 29100
L56410 29150
L56360 29200
L56290 29220
L56170 29220
" />
<path d="M56670 29220
L56670 28720
L56790 28720
L56860 28750
L56910 28790
L56930 28840
L56960 28940
L56960 29010
L56930 29100
L56910 29150
L56860 29200
L56790 29220
L56670 29220
" />
<path d="M57150 29080
L57390 29080
" />
<path d="M57100 29220
L57270 28720
L57430 29220
" />
</g>
<g style="fill:#848400; fill-opacity:0.0; 
stroke:#848400; stroke-width:100; stroke-opacity:1; 
stroke-linecap:round; stroke-linejoin:round;">
<path style="fill:#848400; fill-opacity:0.0; 
stroke:#848400; stroke-width:100; stroke-opacity:1; 
stroke-linecap:round; stroke-linejoin:round;fill:none"
d="M 55000,29000
55250,29250
55500,29250
55500,28750
55250,28750
Z" /> 
</g>
<g style="fill:#848400; fill-opacity:0.0; 
stroke:#848400; stroke-width:0; stroke-opacity:1; 
stroke-linecap:round; stroke-linejoin:round;">
</g>
<g style="fill:#008400; fill-opacity:0.0; 
stroke:#008400; stroke-width:0; stroke-opacity:1; 
stroke-linecap:round; stroke-linejoin:round;">
</g>
<g style="fill:#008400; fill-opacity:1.0; 
stroke:#008400; stroke-width:100; stroke-opacity:1; 
stroke-linecap:round; stroke-linejoin:round;">
<circle cx="49250" cy="46250" r="200" /> 
</g>
<g style="fill:#008400; fill-opacity:1.0; 
stroke:#008400; stroke-width:0; stroke-opacity:1; 
stroke-linecap:round; stroke-linejoin:round;">
</g>
<g style="fill:#008400; fill-opacity:1.0; 
stroke:#008400; stroke-width:100; stroke-opacity:1; 
stroke-linecap:round; stroke-linejoin:round;">
<circle cx="34750" cy="29000" r="200" /> 
</g>
<g style="fill:#008400; fill-opacity:1.0; 
stroke:#008400; stroke-width:0; stroke-opacity:1; 
stroke-linecap:round; stroke-linejoin:round;">
</g>
<g style="fill:#008400; fill-opacity:1.0; 
stroke:#008400; stroke-width:100; stroke-opacity:1; 
stroke-linecap:round; stroke-linejoin:round;">
<circle cx="34750" cy="46250" r="200" /> 
</g>
<g style="fill:#008400; fill-opacity:1.0; 
stroke:#008400; stroke-width:0; stroke-opacity:1; 
stroke-linecap:round; stroke-linejoin:round;">
</g>
<g style="fill:#008400; fill-opacity:1.0; 
stroke:#008400; stroke-width:100; stroke-opacity:1; 
stroke-linecap:round; stroke-linejoin:round;">
<circle cx="34750" cy="53250" r="200" /> 
</g>
<g style="fill:#008400; fill-opacity:1.0; 
stroke:#008400; stroke-width:0; stroke-opacity:1; 
stroke-linecap:round; stroke-linejoin:round;">
</g>
<g style="fill:#008400; fill-opacity:1.0; 
stroke:#008400; stroke-width:100; stroke-opacity:1; 
stroke-linecap:round; stroke-linejoin:round;">
<circle cx="44500" cy="53250" r="200" /> 
</g>
<g style="fill:#008400; fill-opacity:1.0; 
stroke:#008400; stroke-width:0; stroke-opacity:1; 
stroke-linecap:round; stroke-linejoin:round;">
</g>
<g style="fill:#008400; fill-opacity:1.0; 
stroke:#008400; stroke-width:100; stroke-opacity:1; 
stroke-linecap:round; stroke-linejoin:round;">
<circle cx="39500" cy="46250" r="200" /> 
</g>
<g style="fill:#008400; fill-opacity:1.0; 
stroke:#008400; stroke-width:0; stroke-opacity:1; 
stroke-linecap:round; stroke-linejoin:round;">
</g>
<g style="fill:#008400; fill-opacity:1.0; 
stroke:#008400; stroke-width:100; stroke-opacity:1; 
stroke-linecap:round; stroke-linejoin:round;">
<circle cx="44500" cy="46250" r="200" /> 
</g>
<g style="fill:#008400; fill-opacity:1.0; 
stroke:#008400; stroke-width:0; stroke-opacity:1; 
stroke-linecap:round; stroke-linejoin:round;">
</g>
<g style="fill:#008400; fill-opacity:1.0; 
stroke:#008400; stroke-width:100; stroke-opacity:1; 
stroke-linecap:round; stroke-linejoin:round;">
<circle cx="26500" cy="29000" r="200" /> 
</g>
<g style="fill:#008400; fill-opacity:1.0; 
stroke:#008400; stroke-width:0; stroke-opacity:1; 
stroke-linecap:round; stroke-linejoin:round;">
</g>
<g style="fill:#008400; fill-opacity:1.0; 
stroke:#008400; stroke-width:100; stroke-opacity:1; 
stroke-linecap:round; stroke-linejoin:round;">
<circle cx="39500" cy="53250" r="200" /> 
</g> 
</svg>
