%TF.GenerationSoftware,KiCad,Pcbnew,5.1.8-db9833491~87~ubuntu18.04.1*%
%TF.CreationDate,2020-11-28T19:36:32+00:00*%
%TF.ProjectId,CirrusDspPedal,43697272-7573-4447-9370-506564616c2e,rev?*%
%TF.SameCoordinates,Original*%
%TF.FileFunction,Copper,L1,Top*%
%TF.FilePolarity,Positive*%
%FSLAX46Y46*%
G04 Gerber Fmt 4.6, Leading zero omitted, Abs format (unit mm)*
G04 Created by KiCad (PCBNEW 5.1.8-db9833491~87~ubuntu18.04.1) date 2020-11-28 19:36:32*
%MOMM*%
%LPD*%
G01*
G04 APERTURE LIST*
%TA.AperFunction,ComponentPad*%
%ADD10C,8.000000*%
%TD*%
%TA.AperFunction,NonConductor*%
%ADD11C,0.254000*%
%TD*%
%TA.AperFunction,NonConductor*%
%ADD12C,0.100000*%
%TD*%
G04 APERTURE END LIST*
D10*
%TO.P,REF\u002A\u002A,1*%
%TO.N,N/C*%
X192405000Y-60896500D03*
%TD*%
%TO.P,REF\u002A\u002A,1*%
%TO.N,N/C*%
X104775000Y-60896500D03*
%TD*%
%TO.P,REF\u002A\u002A,1*%
%TO.N,N/C*%
X104775000Y-134620000D03*
%TD*%
%TO.P,REF\u002A\u002A,1*%
%TO.N,N/C*%
X192405000Y-134620000D03*
%TD*%
D11*
X198095000Y-55454881D02*
X198095001Y-60292571D01*
X198091807Y-60325000D01*
X198104550Y-60454383D01*
X198142290Y-60578793D01*
X198203575Y-60693450D01*
X198286052Y-60793948D01*
X198386550Y-60876425D01*
X198501207Y-60937710D01*
X198625617Y-60975450D01*
X198722581Y-60985000D01*
X198755000Y-60988193D01*
X198787419Y-60985000D01*
X203942620Y-60985000D01*
X204191000Y-61233381D01*
X204191001Y-134346618D01*
X203942620Y-134595000D01*
X198787419Y-134595000D01*
X198755000Y-134591807D01*
X198722581Y-134595000D01*
X198625617Y-134604550D01*
X198501207Y-134642290D01*
X198386550Y-134703575D01*
X198286052Y-134786052D01*
X198203575Y-134886550D01*
X198142290Y-135001207D01*
X198104550Y-135125617D01*
X198091807Y-135255000D01*
X198095000Y-135287419D01*
X198095001Y-140061618D01*
X197846620Y-140310000D01*
X99333381Y-140310000D01*
X99085000Y-140061620D01*
X99085000Y-135350919D01*
X99088193Y-135318500D01*
X99075450Y-135189117D01*
X99037710Y-135064707D01*
X98976425Y-134950050D01*
X98893948Y-134849552D01*
X98793450Y-134767075D01*
X98678793Y-134705790D01*
X98554383Y-134668050D01*
X98457419Y-134658500D01*
X98425000Y-134655307D01*
X98392581Y-134658500D01*
X93237381Y-134658500D01*
X92989000Y-134410120D01*
X92989000Y-134163492D01*
X100140000Y-134163492D01*
X100140000Y-135076508D01*
X100318120Y-135971980D01*
X100667516Y-136815496D01*
X101174760Y-137574640D01*
X101820360Y-138220240D01*
X102579504Y-138727484D01*
X103423020Y-139076880D01*
X104318492Y-139255000D01*
X105231508Y-139255000D01*
X106126980Y-139076880D01*
X106970496Y-138727484D01*
X107729640Y-138220240D01*
X108375240Y-137574640D01*
X108882484Y-136815496D01*
X109231880Y-135971980D01*
X109410000Y-135076508D01*
X109410000Y-134163492D01*
X109231880Y-133268020D01*
X108882484Y-132424504D01*
X108375240Y-131665360D01*
X107729640Y-131019760D01*
X106970496Y-130512516D01*
X106126980Y-130163120D01*
X105231508Y-129985000D01*
X104318492Y-129985000D01*
X103423020Y-130163120D01*
X102579504Y-130512516D01*
X101820360Y-131019760D01*
X101174760Y-131665360D01*
X100667516Y-132424504D01*
X100318120Y-133268020D01*
X100140000Y-134163492D01*
X92989000Y-134163492D01*
X92989000Y-128911042D01*
X122101175Y-128911042D01*
X122101175Y-130041958D01*
X122278089Y-131158951D01*
X122627561Y-132234516D01*
X123140987Y-133242169D01*
X123805722Y-134157099D01*
X124605401Y-134956778D01*
X125520331Y-135621513D01*
X126527984Y-136134939D01*
X127603549Y-136484411D01*
X128720542Y-136661325D01*
X129851458Y-136661325D01*
X130968451Y-136484411D01*
X132044016Y-136134939D01*
X133051669Y-135621513D01*
X133966599Y-134956778D01*
X134766278Y-134157099D01*
X135431013Y-133242169D01*
X135944439Y-132234516D01*
X136293911Y-131158951D01*
X136470825Y-130041958D01*
X136470825Y-128911042D01*
X136449760Y-128778042D01*
X161089825Y-128778042D01*
X161089825Y-129889022D01*
X161263621Y-130986325D01*
X161606933Y-132042931D01*
X162111308Y-133032822D01*
X162764326Y-133931624D01*
X163549908Y-134717206D01*
X164448710Y-135370224D01*
X165438601Y-135874599D01*
X166495207Y-136217911D01*
X167592510Y-136391707D01*
X168703490Y-136391707D01*
X169800793Y-136217911D01*
X170857399Y-135874599D01*
X171847290Y-135370224D01*
X172746092Y-134717206D01*
X173299806Y-134163492D01*
X187770000Y-134163492D01*
X187770000Y-135076508D01*
X187948120Y-135971980D01*
X188297516Y-136815496D01*
X188804760Y-137574640D01*
X189450360Y-138220240D01*
X190209504Y-138727484D01*
X191053020Y-139076880D01*
X191948492Y-139255000D01*
X192861508Y-139255000D01*
X193756980Y-139076880D01*
X194600496Y-138727484D01*
X195359640Y-138220240D01*
X196005240Y-137574640D01*
X196512484Y-136815496D01*
X196861880Y-135971980D01*
X197040000Y-135076508D01*
X197040000Y-134163492D01*
X196861880Y-133268020D01*
X196512484Y-132424504D01*
X196005240Y-131665360D01*
X195359640Y-131019760D01*
X194600496Y-130512516D01*
X193756980Y-130163120D01*
X192861508Y-129985000D01*
X191948492Y-129985000D01*
X191053020Y-130163120D01*
X190209504Y-130512516D01*
X189450360Y-131019760D01*
X188804760Y-131665360D01*
X188297516Y-132424504D01*
X187948120Y-133268020D01*
X187770000Y-134163492D01*
X173299806Y-134163492D01*
X173531674Y-133931624D01*
X174184692Y-133032822D01*
X174689067Y-132042931D01*
X175032379Y-130986325D01*
X175206175Y-129889022D01*
X175206175Y-128778042D01*
X175032379Y-127680739D01*
X174689067Y-126624133D01*
X174184692Y-125634242D01*
X173531674Y-124735440D01*
X172746092Y-123949858D01*
X171847290Y-123296840D01*
X170857399Y-122792465D01*
X169800793Y-122449153D01*
X168703490Y-122275357D01*
X167592510Y-122275357D01*
X166495207Y-122449153D01*
X165438601Y-122792465D01*
X164448710Y-123296840D01*
X163549908Y-123949858D01*
X162764326Y-124735440D01*
X162111308Y-125634242D01*
X161606933Y-126624133D01*
X161263621Y-127680739D01*
X161089825Y-128778042D01*
X136449760Y-128778042D01*
X136293911Y-127794049D01*
X135944439Y-126718484D01*
X135431013Y-125710831D01*
X134766278Y-124795901D01*
X133966599Y-123996222D01*
X133051669Y-123331487D01*
X132044016Y-122818061D01*
X130968451Y-122468589D01*
X129851458Y-122291675D01*
X128720542Y-122291675D01*
X127603549Y-122468589D01*
X126527984Y-122818061D01*
X125520331Y-123331487D01*
X124605401Y-123996222D01*
X123805722Y-124795901D01*
X123140987Y-125710831D01*
X122627561Y-126718484D01*
X122278089Y-127794049D01*
X122101175Y-128911042D01*
X92989000Y-128911042D01*
X92989000Y-91826367D01*
X127907557Y-91826367D01*
X127907557Y-92450633D01*
X128029346Y-93062905D01*
X128268242Y-93639652D01*
X128615066Y-94158711D01*
X129056489Y-94600134D01*
X129575548Y-94946958D01*
X130152295Y-95185854D01*
X130764567Y-95307643D01*
X131388833Y-95307643D01*
X132001105Y-95185854D01*
X132577852Y-94946958D01*
X133096911Y-94600134D01*
X133538334Y-94158711D01*
X133885158Y-93639652D01*
X134124054Y-93062905D01*
X134245843Y-92450633D01*
X134245843Y-91826367D01*
X162959557Y-91826367D01*
X162959557Y-92450633D01*
X163081346Y-93062905D01*
X163320242Y-93639652D01*
X163667066Y-94158711D01*
X164108489Y-94600134D01*
X164627548Y-94946958D01*
X165204295Y-95185854D01*
X165816567Y-95307643D01*
X166440833Y-95307643D01*
X167053105Y-95185854D01*
X167629852Y-94946958D01*
X168148911Y-94600134D01*
X168590334Y-94158711D01*
X168937158Y-93639652D01*
X169176054Y-93062905D01*
X169297843Y-92450633D01*
X169297843Y-91826367D01*
X169176054Y-91214095D01*
X168937158Y-90637348D01*
X168590334Y-90118289D01*
X168148911Y-89676866D01*
X167629852Y-89330042D01*
X167053105Y-89091146D01*
X166440833Y-88969357D01*
X165816567Y-88969357D01*
X165204295Y-89091146D01*
X164627548Y-89330042D01*
X164108489Y-89676866D01*
X163667066Y-90118289D01*
X163320242Y-90637348D01*
X163081346Y-91214095D01*
X162959557Y-91826367D01*
X134245843Y-91826367D01*
X134124054Y-91214095D01*
X133885158Y-90637348D01*
X133538334Y-90118289D01*
X133096911Y-89676866D01*
X132577852Y-89330042D01*
X132001105Y-89091146D01*
X131388833Y-88969357D01*
X130764567Y-88969357D01*
X130152295Y-89091146D01*
X129575548Y-89330042D01*
X129056489Y-89676866D01*
X128615066Y-90118289D01*
X128268242Y-90637348D01*
X128029346Y-91214095D01*
X127907557Y-91826367D01*
X92989000Y-91826367D01*
X92989000Y-77098388D01*
X128682128Y-77098388D01*
X128682128Y-77917812D01*
X128841989Y-78721490D01*
X129155569Y-79478538D01*
X129610816Y-80159864D01*
X130190236Y-80739284D01*
X130871562Y-81194531D01*
X131628610Y-81508111D01*
X132432288Y-81667972D01*
X133251712Y-81667972D01*
X134055390Y-81508111D01*
X134812438Y-81194531D01*
X135493764Y-80739284D01*
X136073184Y-80159864D01*
X136528431Y-79478538D01*
X136842011Y-78721490D01*
X137001872Y-77917812D01*
X137001872Y-77098388D01*
X136986715Y-77022188D01*
X160825828Y-77022188D01*
X160825828Y-77841612D01*
X160985689Y-78645290D01*
X161299269Y-79402338D01*
X161754516Y-80083664D01*
X162333936Y-80663084D01*
X163015262Y-81118331D01*
X163772310Y-81431911D01*
X164575988Y-81591772D01*
X165395412Y-81591772D01*
X166199090Y-81431911D01*
X166956138Y-81118331D01*
X167637464Y-80663084D01*
X168216884Y-80083664D01*
X168672131Y-79402338D01*
X168985711Y-78645290D01*
X169145572Y-77841612D01*
X169145572Y-77022188D01*
X168985711Y-76218510D01*
X168672131Y-75461462D01*
X168216884Y-74780136D01*
X167637464Y-74200716D01*
X166956138Y-73745469D01*
X166199090Y-73431889D01*
X165395412Y-73272028D01*
X164575988Y-73272028D01*
X163772310Y-73431889D01*
X163015262Y-73745469D01*
X162333936Y-74200716D01*
X161754516Y-74780136D01*
X161299269Y-75461462D01*
X160985689Y-76218510D01*
X160825828Y-77022188D01*
X136986715Y-77022188D01*
X136842011Y-76294710D01*
X136528431Y-75537662D01*
X136073184Y-74856336D01*
X135493764Y-74276916D01*
X134812438Y-73821669D01*
X134055390Y-73508089D01*
X133251712Y-73348228D01*
X132432288Y-73348228D01*
X131628610Y-73508089D01*
X130871562Y-73821669D01*
X130190236Y-74276916D01*
X129610816Y-74856336D01*
X129155569Y-75537662D01*
X128841989Y-76294710D01*
X128682128Y-77098388D01*
X92989000Y-77098388D01*
X92989000Y-61233380D01*
X93237381Y-60985000D01*
X98392581Y-60985000D01*
X98425000Y-60988193D01*
X98457419Y-60985000D01*
X98554383Y-60975450D01*
X98678793Y-60937710D01*
X98793450Y-60876425D01*
X98893948Y-60793948D01*
X98976425Y-60693450D01*
X99037710Y-60578793D01*
X99075450Y-60454383D01*
X99076867Y-60439992D01*
X100140000Y-60439992D01*
X100140000Y-61353008D01*
X100318120Y-62248480D01*
X100667516Y-63091996D01*
X101174760Y-63851140D01*
X101820360Y-64496740D01*
X102579504Y-65003984D01*
X103423020Y-65353380D01*
X104318492Y-65531500D01*
X105231508Y-65531500D01*
X106126980Y-65353380D01*
X106970496Y-65003984D01*
X107729640Y-64496740D01*
X108375240Y-63851140D01*
X108882484Y-63091996D01*
X109231880Y-62248480D01*
X109269770Y-62057992D01*
X129095947Y-62057992D01*
X129095947Y-62808408D01*
X129242346Y-63544406D01*
X129529518Y-64237700D01*
X129946427Y-64861649D01*
X130477051Y-65392273D01*
X131101000Y-65809182D01*
X131794294Y-66096354D01*
X132530292Y-66242753D01*
X133280708Y-66242753D01*
X134016706Y-66096354D01*
X134710000Y-65809182D01*
X135333949Y-65392273D01*
X135864573Y-64861649D01*
X136281482Y-64237700D01*
X136568654Y-63544406D01*
X136715053Y-62808408D01*
X136715053Y-62057992D01*
X136714709Y-62056261D01*
X160993479Y-62056261D01*
X160993479Y-62810139D01*
X161140553Y-63549530D01*
X161429049Y-64246022D01*
X161847881Y-64872848D01*
X162380952Y-65405919D01*
X163007778Y-65824751D01*
X163704270Y-66113247D01*
X164443661Y-66260321D01*
X165197539Y-66260321D01*
X165936930Y-66113247D01*
X166633422Y-65824751D01*
X167260248Y-65405919D01*
X167793319Y-64872848D01*
X168212151Y-64246022D01*
X168500647Y-63549530D01*
X168647721Y-62810139D01*
X168647721Y-62056261D01*
X168500647Y-61316870D01*
X168212151Y-60620378D01*
X168091621Y-60439992D01*
X187770000Y-60439992D01*
X187770000Y-61353008D01*
X187948120Y-62248480D01*
X188297516Y-63091996D01*
X188804760Y-63851140D01*
X189450360Y-64496740D01*
X190209504Y-65003984D01*
X191053020Y-65353380D01*
X191948492Y-65531500D01*
X192861508Y-65531500D01*
X193756980Y-65353380D01*
X194600496Y-65003984D01*
X195359640Y-64496740D01*
X196005240Y-63851140D01*
X196512484Y-63091996D01*
X196861880Y-62248480D01*
X197040000Y-61353008D01*
X197040000Y-60439992D01*
X196861880Y-59544520D01*
X196512484Y-58701004D01*
X196005240Y-57941860D01*
X195359640Y-57296260D01*
X194600496Y-56789016D01*
X193756980Y-56439620D01*
X192861508Y-56261500D01*
X191948492Y-56261500D01*
X191053020Y-56439620D01*
X190209504Y-56789016D01*
X189450360Y-57296260D01*
X188804760Y-57941860D01*
X188297516Y-58701004D01*
X187948120Y-59544520D01*
X187770000Y-60439992D01*
X168091621Y-60439992D01*
X167793319Y-59993552D01*
X167260248Y-59460481D01*
X166633422Y-59041649D01*
X165936930Y-58753153D01*
X165197539Y-58606079D01*
X164443661Y-58606079D01*
X163704270Y-58753153D01*
X163007778Y-59041649D01*
X162380952Y-59460481D01*
X161847881Y-59993552D01*
X161429049Y-60620378D01*
X161140553Y-61316870D01*
X160993479Y-62056261D01*
X136714709Y-62056261D01*
X136568654Y-61321994D01*
X136281482Y-60628700D01*
X135864573Y-60004751D01*
X135333949Y-59474127D01*
X134710000Y-59057218D01*
X134016706Y-58770046D01*
X133280708Y-58623647D01*
X132530292Y-58623647D01*
X131794294Y-58770046D01*
X131101000Y-59057218D01*
X130477051Y-59474127D01*
X129946427Y-60004751D01*
X129529518Y-60628700D01*
X129242346Y-61321994D01*
X129095947Y-62057992D01*
X109269770Y-62057992D01*
X109410000Y-61353008D01*
X109410000Y-60439992D01*
X109231880Y-59544520D01*
X108882484Y-58701004D01*
X108375240Y-57941860D01*
X107729640Y-57296260D01*
X106970496Y-56789016D01*
X106126980Y-56439620D01*
X105231508Y-56261500D01*
X104318492Y-56261500D01*
X103423020Y-56439620D01*
X102579504Y-56789016D01*
X101820360Y-57296260D01*
X101174760Y-57941860D01*
X100667516Y-58701004D01*
X100318120Y-59544520D01*
X100140000Y-60439992D01*
X99076867Y-60439992D01*
X99088193Y-60325000D01*
X99085000Y-60292581D01*
X99085000Y-55454880D01*
X99333381Y-55206500D01*
X197846620Y-55206500D01*
X198095000Y-55454881D01*
%TA.AperFunction,NonConductor*%
D12*
G36*
X198095000Y-55454881D02*
G01*
X198095001Y-60292571D01*
X198091807Y-60325000D01*
X198104550Y-60454383D01*
X198142290Y-60578793D01*
X198203575Y-60693450D01*
X198286052Y-60793948D01*
X198386550Y-60876425D01*
X198501207Y-60937710D01*
X198625617Y-60975450D01*
X198722581Y-60985000D01*
X198755000Y-60988193D01*
X198787419Y-60985000D01*
X203942620Y-60985000D01*
X204191000Y-61233381D01*
X204191001Y-134346618D01*
X203942620Y-134595000D01*
X198787419Y-134595000D01*
X198755000Y-134591807D01*
X198722581Y-134595000D01*
X198625617Y-134604550D01*
X198501207Y-134642290D01*
X198386550Y-134703575D01*
X198286052Y-134786052D01*
X198203575Y-134886550D01*
X198142290Y-135001207D01*
X198104550Y-135125617D01*
X198091807Y-135255000D01*
X198095000Y-135287419D01*
X198095001Y-140061618D01*
X197846620Y-140310000D01*
X99333381Y-140310000D01*
X99085000Y-140061620D01*
X99085000Y-135350919D01*
X99088193Y-135318500D01*
X99075450Y-135189117D01*
X99037710Y-135064707D01*
X98976425Y-134950050D01*
X98893948Y-134849552D01*
X98793450Y-134767075D01*
X98678793Y-134705790D01*
X98554383Y-134668050D01*
X98457419Y-134658500D01*
X98425000Y-134655307D01*
X98392581Y-134658500D01*
X93237381Y-134658500D01*
X92989000Y-134410120D01*
X92989000Y-134163492D01*
X100140000Y-134163492D01*
X100140000Y-135076508D01*
X100318120Y-135971980D01*
X100667516Y-136815496D01*
X101174760Y-137574640D01*
X101820360Y-138220240D01*
X102579504Y-138727484D01*
X103423020Y-139076880D01*
X104318492Y-139255000D01*
X105231508Y-139255000D01*
X106126980Y-139076880D01*
X106970496Y-138727484D01*
X107729640Y-138220240D01*
X108375240Y-137574640D01*
X108882484Y-136815496D01*
X109231880Y-135971980D01*
X109410000Y-135076508D01*
X109410000Y-134163492D01*
X109231880Y-133268020D01*
X108882484Y-132424504D01*
X108375240Y-131665360D01*
X107729640Y-131019760D01*
X106970496Y-130512516D01*
X106126980Y-130163120D01*
X105231508Y-129985000D01*
X104318492Y-129985000D01*
X103423020Y-130163120D01*
X102579504Y-130512516D01*
X101820360Y-131019760D01*
X101174760Y-131665360D01*
X100667516Y-132424504D01*
X100318120Y-133268020D01*
X100140000Y-134163492D01*
X92989000Y-134163492D01*
X92989000Y-128911042D01*
X122101175Y-128911042D01*
X122101175Y-130041958D01*
X122278089Y-131158951D01*
X122627561Y-132234516D01*
X123140987Y-133242169D01*
X123805722Y-134157099D01*
X124605401Y-134956778D01*
X125520331Y-135621513D01*
X126527984Y-136134939D01*
X127603549Y-136484411D01*
X128720542Y-136661325D01*
X129851458Y-136661325D01*
X130968451Y-136484411D01*
X132044016Y-136134939D01*
X133051669Y-135621513D01*
X133966599Y-134956778D01*
X134766278Y-134157099D01*
X135431013Y-133242169D01*
X135944439Y-132234516D01*
X136293911Y-131158951D01*
X136470825Y-130041958D01*
X136470825Y-128911042D01*
X136449760Y-128778042D01*
X161089825Y-128778042D01*
X161089825Y-129889022D01*
X161263621Y-130986325D01*
X161606933Y-132042931D01*
X162111308Y-133032822D01*
X162764326Y-133931624D01*
X163549908Y-134717206D01*
X164448710Y-135370224D01*
X165438601Y-135874599D01*
X166495207Y-136217911D01*
X167592510Y-136391707D01*
X168703490Y-136391707D01*
X169800793Y-136217911D01*
X170857399Y-135874599D01*
X171847290Y-135370224D01*
X172746092Y-134717206D01*
X173299806Y-134163492D01*
X187770000Y-134163492D01*
X187770000Y-135076508D01*
X187948120Y-135971980D01*
X188297516Y-136815496D01*
X188804760Y-137574640D01*
X189450360Y-138220240D01*
X190209504Y-138727484D01*
X191053020Y-139076880D01*
X191948492Y-139255000D01*
X192861508Y-139255000D01*
X193756980Y-139076880D01*
X194600496Y-138727484D01*
X195359640Y-138220240D01*
X196005240Y-137574640D01*
X196512484Y-136815496D01*
X196861880Y-135971980D01*
X197040000Y-135076508D01*
X197040000Y-134163492D01*
X196861880Y-133268020D01*
X196512484Y-132424504D01*
X196005240Y-131665360D01*
X195359640Y-131019760D01*
X194600496Y-130512516D01*
X193756980Y-130163120D01*
X192861508Y-129985000D01*
X191948492Y-129985000D01*
X191053020Y-130163120D01*
X190209504Y-130512516D01*
X189450360Y-131019760D01*
X188804760Y-131665360D01*
X188297516Y-132424504D01*
X187948120Y-133268020D01*
X187770000Y-134163492D01*
X173299806Y-134163492D01*
X173531674Y-133931624D01*
X174184692Y-133032822D01*
X174689067Y-132042931D01*
X175032379Y-130986325D01*
X175206175Y-129889022D01*
X175206175Y-128778042D01*
X175032379Y-127680739D01*
X174689067Y-126624133D01*
X174184692Y-125634242D01*
X173531674Y-124735440D01*
X172746092Y-123949858D01*
X171847290Y-123296840D01*
X170857399Y-122792465D01*
X169800793Y-122449153D01*
X168703490Y-122275357D01*
X167592510Y-122275357D01*
X166495207Y-122449153D01*
X165438601Y-122792465D01*
X164448710Y-123296840D01*
X163549908Y-123949858D01*
X162764326Y-124735440D01*
X162111308Y-125634242D01*
X161606933Y-126624133D01*
X161263621Y-127680739D01*
X161089825Y-128778042D01*
X136449760Y-128778042D01*
X136293911Y-127794049D01*
X135944439Y-126718484D01*
X135431013Y-125710831D01*
X134766278Y-124795901D01*
X133966599Y-123996222D01*
X133051669Y-123331487D01*
X132044016Y-122818061D01*
X130968451Y-122468589D01*
X129851458Y-122291675D01*
X128720542Y-122291675D01*
X127603549Y-122468589D01*
X126527984Y-122818061D01*
X125520331Y-123331487D01*
X124605401Y-123996222D01*
X123805722Y-124795901D01*
X123140987Y-125710831D01*
X122627561Y-126718484D01*
X122278089Y-127794049D01*
X122101175Y-128911042D01*
X92989000Y-128911042D01*
X92989000Y-91826367D01*
X127907557Y-91826367D01*
X127907557Y-92450633D01*
X128029346Y-93062905D01*
X128268242Y-93639652D01*
X128615066Y-94158711D01*
X129056489Y-94600134D01*
X129575548Y-94946958D01*
X130152295Y-95185854D01*
X130764567Y-95307643D01*
X131388833Y-95307643D01*
X132001105Y-95185854D01*
X132577852Y-94946958D01*
X133096911Y-94600134D01*
X133538334Y-94158711D01*
X133885158Y-93639652D01*
X134124054Y-93062905D01*
X134245843Y-92450633D01*
X134245843Y-91826367D01*
X162959557Y-91826367D01*
X162959557Y-92450633D01*
X163081346Y-93062905D01*
X163320242Y-93639652D01*
X163667066Y-94158711D01*
X164108489Y-94600134D01*
X164627548Y-94946958D01*
X165204295Y-95185854D01*
X165816567Y-95307643D01*
X166440833Y-95307643D01*
X167053105Y-95185854D01*
X167629852Y-94946958D01*
X168148911Y-94600134D01*
X168590334Y-94158711D01*
X168937158Y-93639652D01*
X169176054Y-93062905D01*
X169297843Y-92450633D01*
X169297843Y-91826367D01*
X169176054Y-91214095D01*
X168937158Y-90637348D01*
X168590334Y-90118289D01*
X168148911Y-89676866D01*
X167629852Y-89330042D01*
X167053105Y-89091146D01*
X166440833Y-88969357D01*
X165816567Y-88969357D01*
X165204295Y-89091146D01*
X164627548Y-89330042D01*
X164108489Y-89676866D01*
X163667066Y-90118289D01*
X163320242Y-90637348D01*
X163081346Y-91214095D01*
X162959557Y-91826367D01*
X134245843Y-91826367D01*
X134124054Y-91214095D01*
X133885158Y-90637348D01*
X133538334Y-90118289D01*
X133096911Y-89676866D01*
X132577852Y-89330042D01*
X132001105Y-89091146D01*
X131388833Y-88969357D01*
X130764567Y-88969357D01*
X130152295Y-89091146D01*
X129575548Y-89330042D01*
X129056489Y-89676866D01*
X128615066Y-90118289D01*
X128268242Y-90637348D01*
X128029346Y-91214095D01*
X127907557Y-91826367D01*
X92989000Y-91826367D01*
X92989000Y-77098388D01*
X128682128Y-77098388D01*
X128682128Y-77917812D01*
X128841989Y-78721490D01*
X129155569Y-79478538D01*
X129610816Y-80159864D01*
X130190236Y-80739284D01*
X130871562Y-81194531D01*
X131628610Y-81508111D01*
X132432288Y-81667972D01*
X133251712Y-81667972D01*
X134055390Y-81508111D01*
X134812438Y-81194531D01*
X135493764Y-80739284D01*
X136073184Y-80159864D01*
X136528431Y-79478538D01*
X136842011Y-78721490D01*
X137001872Y-77917812D01*
X137001872Y-77098388D01*
X136986715Y-77022188D01*
X160825828Y-77022188D01*
X160825828Y-77841612D01*
X160985689Y-78645290D01*
X161299269Y-79402338D01*
X161754516Y-80083664D01*
X162333936Y-80663084D01*
X163015262Y-81118331D01*
X163772310Y-81431911D01*
X164575988Y-81591772D01*
X165395412Y-81591772D01*
X166199090Y-81431911D01*
X166956138Y-81118331D01*
X167637464Y-80663084D01*
X168216884Y-80083664D01*
X168672131Y-79402338D01*
X168985711Y-78645290D01*
X169145572Y-77841612D01*
X169145572Y-77022188D01*
X168985711Y-76218510D01*
X168672131Y-75461462D01*
X168216884Y-74780136D01*
X167637464Y-74200716D01*
X166956138Y-73745469D01*
X166199090Y-73431889D01*
X165395412Y-73272028D01*
X164575988Y-73272028D01*
X163772310Y-73431889D01*
X163015262Y-73745469D01*
X162333936Y-74200716D01*
X161754516Y-74780136D01*
X161299269Y-75461462D01*
X160985689Y-76218510D01*
X160825828Y-77022188D01*
X136986715Y-77022188D01*
X136842011Y-76294710D01*
X136528431Y-75537662D01*
X136073184Y-74856336D01*
X135493764Y-74276916D01*
X134812438Y-73821669D01*
X134055390Y-73508089D01*
X133251712Y-73348228D01*
X132432288Y-73348228D01*
X131628610Y-73508089D01*
X130871562Y-73821669D01*
X130190236Y-74276916D01*
X129610816Y-74856336D01*
X129155569Y-75537662D01*
X128841989Y-76294710D01*
X128682128Y-77098388D01*
X92989000Y-77098388D01*
X92989000Y-61233380D01*
X93237381Y-60985000D01*
X98392581Y-60985000D01*
X98425000Y-60988193D01*
X98457419Y-60985000D01*
X98554383Y-60975450D01*
X98678793Y-60937710D01*
X98793450Y-60876425D01*
X98893948Y-60793948D01*
X98976425Y-60693450D01*
X99037710Y-60578793D01*
X99075450Y-60454383D01*
X99076867Y-60439992D01*
X100140000Y-60439992D01*
X100140000Y-61353008D01*
X100318120Y-62248480D01*
X100667516Y-63091996D01*
X101174760Y-63851140D01*
X101820360Y-64496740D01*
X102579504Y-65003984D01*
X103423020Y-65353380D01*
X104318492Y-65531500D01*
X105231508Y-65531500D01*
X106126980Y-65353380D01*
X106970496Y-65003984D01*
X107729640Y-64496740D01*
X108375240Y-63851140D01*
X108882484Y-63091996D01*
X109231880Y-62248480D01*
X109269770Y-62057992D01*
X129095947Y-62057992D01*
X129095947Y-62808408D01*
X129242346Y-63544406D01*
X129529518Y-64237700D01*
X129946427Y-64861649D01*
X130477051Y-65392273D01*
X131101000Y-65809182D01*
X131794294Y-66096354D01*
X132530292Y-66242753D01*
X133280708Y-66242753D01*
X134016706Y-66096354D01*
X134710000Y-65809182D01*
X135333949Y-65392273D01*
X135864573Y-64861649D01*
X136281482Y-64237700D01*
X136568654Y-63544406D01*
X136715053Y-62808408D01*
X136715053Y-62057992D01*
X136714709Y-62056261D01*
X160993479Y-62056261D01*
X160993479Y-62810139D01*
X161140553Y-63549530D01*
X161429049Y-64246022D01*
X161847881Y-64872848D01*
X162380952Y-65405919D01*
X163007778Y-65824751D01*
X163704270Y-66113247D01*
X164443661Y-66260321D01*
X165197539Y-66260321D01*
X165936930Y-66113247D01*
X166633422Y-65824751D01*
X167260248Y-65405919D01*
X167793319Y-64872848D01*
X168212151Y-64246022D01*
X168500647Y-63549530D01*
X168647721Y-62810139D01*
X168647721Y-62056261D01*
X168500647Y-61316870D01*
X168212151Y-60620378D01*
X168091621Y-60439992D01*
X187770000Y-60439992D01*
X187770000Y-61353008D01*
X187948120Y-62248480D01*
X188297516Y-63091996D01*
X188804760Y-63851140D01*
X189450360Y-64496740D01*
X190209504Y-65003984D01*
X191053020Y-65353380D01*
X191948492Y-65531500D01*
X192861508Y-65531500D01*
X193756980Y-65353380D01*
X194600496Y-65003984D01*
X195359640Y-64496740D01*
X196005240Y-63851140D01*
X196512484Y-63091996D01*
X196861880Y-62248480D01*
X197040000Y-61353008D01*
X197040000Y-60439992D01*
X196861880Y-59544520D01*
X196512484Y-58701004D01*
X196005240Y-57941860D01*
X195359640Y-57296260D01*
X194600496Y-56789016D01*
X193756980Y-56439620D01*
X192861508Y-56261500D01*
X191948492Y-56261500D01*
X191053020Y-56439620D01*
X190209504Y-56789016D01*
X189450360Y-57296260D01*
X188804760Y-57941860D01*
X188297516Y-58701004D01*
X187948120Y-59544520D01*
X187770000Y-60439992D01*
X168091621Y-60439992D01*
X167793319Y-59993552D01*
X167260248Y-59460481D01*
X166633422Y-59041649D01*
X165936930Y-58753153D01*
X165197539Y-58606079D01*
X164443661Y-58606079D01*
X163704270Y-58753153D01*
X163007778Y-59041649D01*
X162380952Y-59460481D01*
X161847881Y-59993552D01*
X161429049Y-60620378D01*
X161140553Y-61316870D01*
X160993479Y-62056261D01*
X136714709Y-62056261D01*
X136568654Y-61321994D01*
X136281482Y-60628700D01*
X135864573Y-60004751D01*
X135333949Y-59474127D01*
X134710000Y-59057218D01*
X134016706Y-58770046D01*
X133280708Y-58623647D01*
X132530292Y-58623647D01*
X131794294Y-58770046D01*
X131101000Y-59057218D01*
X130477051Y-59474127D01*
X129946427Y-60004751D01*
X129529518Y-60628700D01*
X129242346Y-61321994D01*
X129095947Y-62057992D01*
X109269770Y-62057992D01*
X109410000Y-61353008D01*
X109410000Y-60439992D01*
X109231880Y-59544520D01*
X108882484Y-58701004D01*
X108375240Y-57941860D01*
X107729640Y-57296260D01*
X106970496Y-56789016D01*
X106126980Y-56439620D01*
X105231508Y-56261500D01*
X104318492Y-56261500D01*
X103423020Y-56439620D01*
X102579504Y-56789016D01*
X101820360Y-57296260D01*
X101174760Y-57941860D01*
X100667516Y-58701004D01*
X100318120Y-59544520D01*
X100140000Y-60439992D01*
X99076867Y-60439992D01*
X99088193Y-60325000D01*
X99085000Y-60292581D01*
X99085000Y-55454880D01*
X99333381Y-55206500D01*
X197846620Y-55206500D01*
X198095000Y-55454881D01*
G37*
%TD.AperFunction*%
M02*
