%TF.GenerationSoftware,KiCad,Pcbnew,(5.1.8-0-10_14)*%
%TF.CreationDate,2021-01-09T21:27:37+00:00*%
%TF.ProjectId,CirrusDspPedal,43697272-7573-4447-9370-506564616c2e,rev?*%
%TF.SameCoordinates,Original*%
%TF.FileFunction,Legend,Top*%
%TF.FilePolarity,Positive*%
%FSLAX46Y46*%
G04 Gerber Fmt 4.6, Leading zero omitted, Abs format (unit mm)*
G04 Created by KiCad (PCBNEW (5.1.8-0-10_14)) date 2021-01-09 21:27:37*
%MOMM*%
%LPD*%
G01*
G04 APERTURE LIST*
%ADD10C,0.400000*%
%ADD11C,0.200000*%
%ADD12C,0.120000*%
%ADD13C,0.300000*%
%ADD14C,2.000000*%
G04 APERTURE END LIST*
D10*
X186801857Y-78144714D02*
X187801857Y-78144714D01*
X188230428Y-79716142D02*
X186801857Y-79716142D01*
X186801857Y-76716142D01*
X188230428Y-76716142D01*
X189230428Y-76716142D02*
X191230428Y-79716142D01*
X191230428Y-76716142D02*
X189230428Y-79716142D01*
X192373285Y-79716142D02*
X192373285Y-76716142D01*
X193516142Y-76716142D01*
X193801857Y-76859000D01*
X193944714Y-77001857D01*
X194087571Y-77287571D01*
X194087571Y-77716142D01*
X193944714Y-78001857D01*
X193801857Y-78144714D01*
X193516142Y-78287571D01*
X192373285Y-78287571D01*
X197659000Y-79716142D02*
X197659000Y-76716142D01*
X199087571Y-79716142D02*
X199087571Y-76716142D01*
X200801857Y-79716142D01*
X200801857Y-76716142D01*
X97814714Y-97671142D02*
X98386142Y-97671142D01*
X98671857Y-97814000D01*
X98957571Y-98099714D01*
X99100428Y-98671142D01*
X99100428Y-99671142D01*
X98957571Y-100242571D01*
X98671857Y-100528285D01*
X98386142Y-100671142D01*
X97814714Y-100671142D01*
X97529000Y-100528285D01*
X97243285Y-100242571D01*
X97100428Y-99671142D01*
X97100428Y-98671142D01*
X97243285Y-98099714D01*
X97529000Y-97814000D01*
X97814714Y-97671142D01*
X100386142Y-97671142D02*
X100386142Y-100099714D01*
X100529000Y-100385428D01*
X100671857Y-100528285D01*
X100957571Y-100671142D01*
X101529000Y-100671142D01*
X101814714Y-100528285D01*
X101957571Y-100385428D01*
X102100428Y-100099714D01*
X102100428Y-97671142D01*
X103100428Y-97671142D02*
X104814714Y-97671142D01*
X103957571Y-100671142D02*
X103957571Y-97671142D01*
X105814714Y-100671142D02*
X105814714Y-97671142D01*
X106957571Y-97671142D01*
X107243285Y-97814000D01*
X107386142Y-97956857D01*
X107529000Y-98242571D01*
X107529000Y-98671142D01*
X107386142Y-98956857D01*
X107243285Y-99099714D01*
X106957571Y-99242571D01*
X105814714Y-99242571D01*
X108814714Y-97671142D02*
X108814714Y-100099714D01*
X108957571Y-100385428D01*
X109100428Y-100528285D01*
X109386142Y-100671142D01*
X109957571Y-100671142D01*
X110243285Y-100528285D01*
X110386142Y-100385428D01*
X110529000Y-100099714D01*
X110529000Y-97671142D01*
X111529000Y-97671142D02*
X113243285Y-97671142D01*
X112386142Y-100671142D02*
X112386142Y-97671142D01*
X188143285Y-100023442D02*
X188143285Y-97023442D01*
X189571857Y-100023442D02*
X189571857Y-97023442D01*
X191286142Y-100023442D01*
X191286142Y-97023442D01*
X192714714Y-100023442D02*
X192714714Y-97023442D01*
X193857571Y-97023442D01*
X194143285Y-97166300D01*
X194286142Y-97309157D01*
X194429000Y-97594871D01*
X194429000Y-98023442D01*
X194286142Y-98309157D01*
X194143285Y-98452014D01*
X193857571Y-98594871D01*
X192714714Y-98594871D01*
X195714714Y-97023442D02*
X195714714Y-99452014D01*
X195857571Y-99737728D01*
X196000428Y-99880585D01*
X196286142Y-100023442D01*
X196857571Y-100023442D01*
X197143285Y-99880585D01*
X197286142Y-99737728D01*
X197429000Y-99452014D01*
X197429000Y-97023442D01*
X198429000Y-97023442D02*
X200143285Y-97023442D01*
X199286142Y-100023442D02*
X199286142Y-97023442D01*
D11*
X94560285Y-82974571D02*
X94846000Y-82974571D01*
X94988857Y-82903142D01*
X95060285Y-82831714D01*
X95203142Y-82617428D01*
X95274571Y-82331714D01*
X95274571Y-81760285D01*
X95203142Y-81617428D01*
X95131714Y-81546000D01*
X94988857Y-81474571D01*
X94703142Y-81474571D01*
X94560285Y-81546000D01*
X94488857Y-81617428D01*
X94417428Y-81760285D01*
X94417428Y-82117428D01*
X94488857Y-82260285D01*
X94560285Y-82331714D01*
X94703142Y-82403142D01*
X94988857Y-82403142D01*
X95131714Y-82331714D01*
X95203142Y-82260285D01*
X95274571Y-82117428D01*
X95703142Y-81474571D02*
X96203142Y-82974571D01*
X96703142Y-81474571D01*
X97203142Y-82974571D02*
X97203142Y-81474571D01*
X97560285Y-81474571D01*
X97774571Y-81546000D01*
X97917428Y-81688857D01*
X97988857Y-81831714D01*
X98060285Y-82117428D01*
X98060285Y-82331714D01*
X97988857Y-82617428D01*
X97917428Y-82760285D01*
X97774571Y-82903142D01*
X97560285Y-82974571D01*
X97203142Y-82974571D01*
X99560285Y-82831714D02*
X99488857Y-82903142D01*
X99274571Y-82974571D01*
X99131714Y-82974571D01*
X98917428Y-82903142D01*
X98774571Y-82760285D01*
X98703142Y-82617428D01*
X98631714Y-82331714D01*
X98631714Y-82117428D01*
X98703142Y-81831714D01*
X98774571Y-81688857D01*
X98917428Y-81546000D01*
X99131714Y-81474571D01*
X99274571Y-81474571D01*
X99488857Y-81546000D01*
X99560285Y-81617428D01*
X101274571Y-81617428D02*
X101346000Y-81546000D01*
X101488857Y-81474571D01*
X101846000Y-81474571D01*
X101988857Y-81546000D01*
X102060285Y-81617428D01*
X102131714Y-81760285D01*
X102131714Y-81903142D01*
X102060285Y-82117428D01*
X101203142Y-82974571D01*
X102131714Y-82974571D01*
X103060285Y-81474571D02*
X103203142Y-81474571D01*
X103346000Y-81546000D01*
X103417428Y-81617428D01*
X103488857Y-81760285D01*
X103560285Y-82046000D01*
X103560285Y-82403142D01*
X103488857Y-82688857D01*
X103417428Y-82831714D01*
X103346000Y-82903142D01*
X103203142Y-82974571D01*
X103060285Y-82974571D01*
X102917428Y-82903142D01*
X102846000Y-82831714D01*
X102774571Y-82688857D01*
X102703142Y-82403142D01*
X102703142Y-82046000D01*
X102774571Y-81760285D01*
X102846000Y-81617428D01*
X102917428Y-81546000D01*
X103060285Y-81474571D01*
X104488857Y-81474571D02*
X104631714Y-81474571D01*
X104774571Y-81546000D01*
X104846000Y-81617428D01*
X104917428Y-81760285D01*
X104988857Y-82046000D01*
X104988857Y-82403142D01*
X104917428Y-82688857D01*
X104846000Y-82831714D01*
X104774571Y-82903142D01*
X104631714Y-82974571D01*
X104488857Y-82974571D01*
X104346000Y-82903142D01*
X104274571Y-82831714D01*
X104203142Y-82688857D01*
X104131714Y-82403142D01*
X104131714Y-82046000D01*
X104203142Y-81760285D01*
X104274571Y-81617428D01*
X104346000Y-81546000D01*
X104488857Y-81474571D01*
X105631714Y-82974571D02*
X105631714Y-81974571D01*
X105631714Y-82117428D02*
X105703142Y-82046000D01*
X105846000Y-81974571D01*
X106060285Y-81974571D01*
X106203142Y-82046000D01*
X106274571Y-82188857D01*
X106274571Y-82974571D01*
X106274571Y-82188857D02*
X106346000Y-82046000D01*
X106488857Y-81974571D01*
X106703142Y-81974571D01*
X106846000Y-82046000D01*
X106917428Y-82188857D01*
X106917428Y-82974571D01*
X107560285Y-82546000D02*
X108274571Y-82546000D01*
X107417428Y-82974571D02*
X107917428Y-81474571D01*
X108417428Y-82974571D01*
D12*
X105283000Y-78232000D02*
X107188000Y-78232000D01*
X106299000Y-79121000D02*
X106299000Y-77343000D01*
X94996000Y-78232000D02*
X96774000Y-78232000D01*
D13*
X107925394Y-78232000D02*
G75*
G03*
X107925394Y-78232000I-1626394J0D01*
G01*
X97511394Y-78232000D02*
G75*
G03*
X97511394Y-78232000I-1626394J0D01*
G01*
X100330000Y-76327000D02*
G75*
G02*
X100330000Y-80137000I0J-1905000D01*
G01*
D12*
X102235000Y-78232000D02*
X104648000Y-78232000D01*
X100330000Y-78232000D02*
X97536000Y-78232000D01*
D14*
X100330000Y-78232000D02*
G75*
G03*
X100330000Y-78232000I0J0D01*
G01*
M02*
