%TF.GenerationSoftware,KiCad,Pcbnew,(5.1.7-0-10_14)*%
%TF.CreationDate,2020-11-12T17:11:24+00:00*%
%TF.ProjectId,CirrusDspPedal,43697272-7573-4447-9370-506564616c2e,rev?*%
%TF.SameCoordinates,Original*%
%TF.FileFunction,Paste,Bot*%
%TF.FilePolarity,Positive*%
%FSLAX46Y46*%
G04 Gerber Fmt 4.6, Leading zero omitted, Abs format (unit mm)*
G04 Created by KiCad (PCBNEW (5.1.7-0-10_14)) date 2020-11-12 17:11:24*
%MOMM*%
%LPD*%
G01*
G04 APERTURE LIST*
%ADD10R,0.800000X0.900000*%
%ADD11R,1.100000X1.100000*%
G04 APERTURE END LIST*
%TO.C,R27*%
G36*
G01*
X181032999Y-65728000D02*
X181933001Y-65728000D01*
G75*
G02*
X182183000Y-65977999I0J-249999D01*
G01*
X182183000Y-66628001D01*
G75*
G02*
X181933001Y-66878000I-249999J0D01*
G01*
X181032999Y-66878000D01*
G75*
G02*
X180783000Y-66628001I0J249999D01*
G01*
X180783000Y-65977999D01*
G75*
G02*
X181032999Y-65728000I249999J0D01*
G01*
G37*
G36*
G01*
X181032999Y-63678000D02*
X181933001Y-63678000D01*
G75*
G02*
X182183000Y-63927999I0J-249999D01*
G01*
X182183000Y-64578001D01*
G75*
G02*
X181933001Y-64828000I-249999J0D01*
G01*
X181032999Y-64828000D01*
G75*
G02*
X180783000Y-64578001I0J249999D01*
G01*
X180783000Y-63927999D01*
G75*
G02*
X181032999Y-63678000I249999J0D01*
G01*
G37*
%TD*%
D10*
%TO.C,Q1*%
X140970000Y-124698000D03*
X141920000Y-122698000D03*
X140020000Y-122698000D03*
%TD*%
%TO.C,K1*%
G36*
G01*
X152690000Y-119698000D02*
X152690000Y-120098000D01*
G75*
G02*
X152490000Y-120298000I-200000J0D01*
G01*
X150830000Y-120298000D01*
G75*
G02*
X150630000Y-120098000I0J200000D01*
G01*
X150630000Y-119698000D01*
G75*
G02*
X150830000Y-119498000I200000J0D01*
G01*
X152490000Y-119498000D01*
G75*
G02*
X152690000Y-119698000I0J-200000D01*
G01*
G37*
G36*
G01*
X152690000Y-122898000D02*
X152690000Y-123298000D01*
G75*
G02*
X152490000Y-123498000I-200000J0D01*
G01*
X150830000Y-123498000D01*
G75*
G02*
X150630000Y-123298000I0J200000D01*
G01*
X150630000Y-122898000D01*
G75*
G02*
X150830000Y-122698000I200000J0D01*
G01*
X152490000Y-122698000D01*
G75*
G02*
X152690000Y-122898000I0J-200000D01*
G01*
G37*
G36*
G01*
X152690000Y-125098000D02*
X152690000Y-125498000D01*
G75*
G02*
X152490000Y-125698000I-200000J0D01*
G01*
X150830000Y-125698000D01*
G75*
G02*
X150630000Y-125498000I0J200000D01*
G01*
X150630000Y-125098000D01*
G75*
G02*
X150830000Y-124898000I200000J0D01*
G01*
X152490000Y-124898000D01*
G75*
G02*
X152690000Y-125098000I0J-200000D01*
G01*
G37*
G36*
G01*
X152690000Y-127298000D02*
X152690000Y-127698000D01*
G75*
G02*
X152490000Y-127898000I-200000J0D01*
G01*
X150830000Y-127898000D01*
G75*
G02*
X150630000Y-127698000I0J200000D01*
G01*
X150630000Y-127298000D01*
G75*
G02*
X150830000Y-127098000I200000J0D01*
G01*
X152490000Y-127098000D01*
G75*
G02*
X152690000Y-127298000I0J-200000D01*
G01*
G37*
G36*
G01*
X146550000Y-127298000D02*
X146550000Y-127698000D01*
G75*
G02*
X146350000Y-127898000I-200000J0D01*
G01*
X144690000Y-127898000D01*
G75*
G02*
X144490000Y-127698000I0J200000D01*
G01*
X144490000Y-127298000D01*
G75*
G02*
X144690000Y-127098000I200000J0D01*
G01*
X146350000Y-127098000D01*
G75*
G02*
X146550000Y-127298000I0J-200000D01*
G01*
G37*
G36*
G01*
X146550000Y-125098000D02*
X146550000Y-125498000D01*
G75*
G02*
X146350000Y-125698000I-200000J0D01*
G01*
X144690000Y-125698000D01*
G75*
G02*
X144490000Y-125498000I0J200000D01*
G01*
X144490000Y-125098000D01*
G75*
G02*
X144690000Y-124898000I200000J0D01*
G01*
X146350000Y-124898000D01*
G75*
G02*
X146550000Y-125098000I0J-200000D01*
G01*
G37*
G36*
G01*
X146550000Y-122898000D02*
X146550000Y-123298000D01*
G75*
G02*
X146350000Y-123498000I-200000J0D01*
G01*
X144690000Y-123498000D01*
G75*
G02*
X144490000Y-123298000I0J200000D01*
G01*
X144490000Y-122898000D01*
G75*
G02*
X144690000Y-122698000I200000J0D01*
G01*
X146350000Y-122698000D01*
G75*
G02*
X146550000Y-122898000I0J-200000D01*
G01*
G37*
G36*
G01*
X146550000Y-119698000D02*
X146550000Y-120098000D01*
G75*
G02*
X146350000Y-120298000I-200000J0D01*
G01*
X144690000Y-120298000D01*
G75*
G02*
X144490000Y-120098000I0J200000D01*
G01*
X144490000Y-119698000D01*
G75*
G02*
X144690000Y-119498000I200000J0D01*
G01*
X146350000Y-119498000D01*
G75*
G02*
X146550000Y-119698000I0J-200000D01*
G01*
G37*
%TD*%
D11*
%TO.C,D2*%
X147190000Y-115316000D03*
X149990000Y-115316000D03*
%TD*%
%TO.C,R28*%
G36*
G01*
X183318999Y-65728000D02*
X184219001Y-65728000D01*
G75*
G02*
X184469000Y-65977999I0J-249999D01*
G01*
X184469000Y-66628001D01*
G75*
G02*
X184219001Y-66878000I-249999J0D01*
G01*
X183318999Y-66878000D01*
G75*
G02*
X183069000Y-66628001I0J249999D01*
G01*
X183069000Y-65977999D01*
G75*
G02*
X183318999Y-65728000I249999J0D01*
G01*
G37*
G36*
G01*
X183318999Y-63678000D02*
X184219001Y-63678000D01*
G75*
G02*
X184469000Y-63927999I0J-249999D01*
G01*
X184469000Y-64578001D01*
G75*
G02*
X184219001Y-64828000I-249999J0D01*
G01*
X183318999Y-64828000D01*
G75*
G02*
X183069000Y-64578001I0J249999D01*
G01*
X183069000Y-63927999D01*
G75*
G02*
X183318999Y-63678000I249999J0D01*
G01*
G37*
%TD*%
%TO.C,R26*%
G36*
G01*
X177984999Y-65728000D02*
X178885001Y-65728000D01*
G75*
G02*
X179135000Y-65977999I0J-249999D01*
G01*
X179135000Y-66628001D01*
G75*
G02*
X178885001Y-66878000I-249999J0D01*
G01*
X177984999Y-66878000D01*
G75*
G02*
X177735000Y-66628001I0J249999D01*
G01*
X177735000Y-65977999D01*
G75*
G02*
X177984999Y-65728000I249999J0D01*
G01*
G37*
G36*
G01*
X177984999Y-63678000D02*
X178885001Y-63678000D01*
G75*
G02*
X179135000Y-63927999I0J-249999D01*
G01*
X179135000Y-64578001D01*
G75*
G02*
X178885001Y-64828000I-249999J0D01*
G01*
X177984999Y-64828000D01*
G75*
G02*
X177735000Y-64578001I0J249999D01*
G01*
X177735000Y-63927999D01*
G75*
G02*
X177984999Y-63678000I249999J0D01*
G01*
G37*
%TD*%
%TO.C,R25*%
G36*
G01*
X175571999Y-65728000D02*
X176472001Y-65728000D01*
G75*
G02*
X176722000Y-65977999I0J-249999D01*
G01*
X176722000Y-66628001D01*
G75*
G02*
X176472001Y-66878000I-249999J0D01*
G01*
X175571999Y-66878000D01*
G75*
G02*
X175322000Y-66628001I0J249999D01*
G01*
X175322000Y-65977999D01*
G75*
G02*
X175571999Y-65728000I249999J0D01*
G01*
G37*
G36*
G01*
X175571999Y-63678000D02*
X176472001Y-63678000D01*
G75*
G02*
X176722000Y-63927999I0J-249999D01*
G01*
X176722000Y-64578001D01*
G75*
G02*
X176472001Y-64828000I-249999J0D01*
G01*
X175571999Y-64828000D01*
G75*
G02*
X175322000Y-64578001I0J249999D01*
G01*
X175322000Y-63927999D01*
G75*
G02*
X175571999Y-63678000I249999J0D01*
G01*
G37*
%TD*%
%TO.C,R24*%
G36*
G01*
X173031999Y-65728000D02*
X173932001Y-65728000D01*
G75*
G02*
X174182000Y-65977999I0J-249999D01*
G01*
X174182000Y-66628001D01*
G75*
G02*
X173932001Y-66878000I-249999J0D01*
G01*
X173031999Y-66878000D01*
G75*
G02*
X172782000Y-66628001I0J249999D01*
G01*
X172782000Y-65977999D01*
G75*
G02*
X173031999Y-65728000I249999J0D01*
G01*
G37*
G36*
G01*
X173031999Y-63678000D02*
X173932001Y-63678000D01*
G75*
G02*
X174182000Y-63927999I0J-249999D01*
G01*
X174182000Y-64578001D01*
G75*
G02*
X173932001Y-64828000I-249999J0D01*
G01*
X173031999Y-64828000D01*
G75*
G02*
X172782000Y-64578001I0J249999D01*
G01*
X172782000Y-63927999D01*
G75*
G02*
X173031999Y-63678000I249999J0D01*
G01*
G37*
%TD*%
%TO.C,C13*%
G36*
G01*
X104325000Y-112579999D02*
X104325000Y-113480001D01*
G75*
G02*
X104075001Y-113730000I-249999J0D01*
G01*
X103424999Y-113730000D01*
G75*
G02*
X103175000Y-113480001I0J249999D01*
G01*
X103175000Y-112579999D01*
G75*
G02*
X103424999Y-112330000I249999J0D01*
G01*
X104075001Y-112330000D01*
G75*
G02*
X104325000Y-112579999I0J-249999D01*
G01*
G37*
G36*
G01*
X106375000Y-112579999D02*
X106375000Y-113480001D01*
G75*
G02*
X106125001Y-113730000I-249999J0D01*
G01*
X105474999Y-113730000D01*
G75*
G02*
X105225000Y-113480001I0J249999D01*
G01*
X105225000Y-112579999D01*
G75*
G02*
X105474999Y-112330000I249999J0D01*
G01*
X106125001Y-112330000D01*
G75*
G02*
X106375000Y-112579999I0J-249999D01*
G01*
G37*
%TD*%
%TO.C,C11*%
G36*
G01*
X117925000Y-110940001D02*
X117925000Y-110039999D01*
G75*
G02*
X118174999Y-109790000I249999J0D01*
G01*
X118825001Y-109790000D01*
G75*
G02*
X119075000Y-110039999I0J-249999D01*
G01*
X119075000Y-110940001D01*
G75*
G02*
X118825001Y-111190000I-249999J0D01*
G01*
X118174999Y-111190000D01*
G75*
G02*
X117925000Y-110940001I0J249999D01*
G01*
G37*
G36*
G01*
X115875000Y-110940001D02*
X115875000Y-110039999D01*
G75*
G02*
X116124999Y-109790000I249999J0D01*
G01*
X116775001Y-109790000D01*
G75*
G02*
X117025000Y-110039999I0J-249999D01*
G01*
X117025000Y-110940001D01*
G75*
G02*
X116775001Y-111190000I-249999J0D01*
G01*
X116124999Y-111190000D01*
G75*
G02*
X115875000Y-110940001I0J249999D01*
G01*
G37*
%TD*%
%TO.C,C10*%
G36*
G01*
X117925000Y-114115001D02*
X117925000Y-113214999D01*
G75*
G02*
X118174999Y-112965000I249999J0D01*
G01*
X118825001Y-112965000D01*
G75*
G02*
X119075000Y-113214999I0J-249999D01*
G01*
X119075000Y-114115001D01*
G75*
G02*
X118825001Y-114365000I-249999J0D01*
G01*
X118174999Y-114365000D01*
G75*
G02*
X117925000Y-114115001I0J249999D01*
G01*
G37*
G36*
G01*
X115875000Y-114115001D02*
X115875000Y-113214999D01*
G75*
G02*
X116124999Y-112965000I249999J0D01*
G01*
X116775001Y-112965000D01*
G75*
G02*
X117025000Y-113214999I0J-249999D01*
G01*
X117025000Y-114115001D01*
G75*
G02*
X116775001Y-114365000I-249999J0D01*
G01*
X116124999Y-114365000D01*
G75*
G02*
X115875000Y-114115001I0J249999D01*
G01*
G37*
%TD*%
%TO.C,C3*%
G36*
G01*
X180409000Y-130879001D02*
X180409000Y-129978999D01*
G75*
G02*
X180658999Y-129729000I249999J0D01*
G01*
X181309001Y-129729000D01*
G75*
G02*
X181559000Y-129978999I0J-249999D01*
G01*
X181559000Y-130879001D01*
G75*
G02*
X181309001Y-131129000I-249999J0D01*
G01*
X180658999Y-131129000D01*
G75*
G02*
X180409000Y-130879001I0J249999D01*
G01*
G37*
G36*
G01*
X178359000Y-130879001D02*
X178359000Y-129978999D01*
G75*
G02*
X178608999Y-129729000I249999J0D01*
G01*
X179259001Y-129729000D01*
G75*
G02*
X179509000Y-129978999I0J-249999D01*
G01*
X179509000Y-130879001D01*
G75*
G02*
X179259001Y-131129000I-249999J0D01*
G01*
X178608999Y-131129000D01*
G75*
G02*
X178359000Y-130879001I0J249999D01*
G01*
G37*
%TD*%
%TO.C,C2*%
G36*
G01*
X186886000Y-128593001D02*
X186886000Y-127692999D01*
G75*
G02*
X187135999Y-127443000I249999J0D01*
G01*
X187786001Y-127443000D01*
G75*
G02*
X188036000Y-127692999I0J-249999D01*
G01*
X188036000Y-128593001D01*
G75*
G02*
X187786001Y-128843000I-249999J0D01*
G01*
X187135999Y-128843000D01*
G75*
G02*
X186886000Y-128593001I0J249999D01*
G01*
G37*
G36*
G01*
X184836000Y-128593001D02*
X184836000Y-127692999D01*
G75*
G02*
X185085999Y-127443000I249999J0D01*
G01*
X185736001Y-127443000D01*
G75*
G02*
X185986000Y-127692999I0J-249999D01*
G01*
X185986000Y-128593001D01*
G75*
G02*
X185736001Y-128843000I-249999J0D01*
G01*
X185085999Y-128843000D01*
G75*
G02*
X184836000Y-128593001I0J249999D01*
G01*
G37*
%TD*%
%TO.C,C1*%
G36*
G01*
X186886000Y-126561001D02*
X186886000Y-125660999D01*
G75*
G02*
X187135999Y-125411000I249999J0D01*
G01*
X187786001Y-125411000D01*
G75*
G02*
X188036000Y-125660999I0J-249999D01*
G01*
X188036000Y-126561001D01*
G75*
G02*
X187786001Y-126811000I-249999J0D01*
G01*
X187135999Y-126811000D01*
G75*
G02*
X186886000Y-126561001I0J249999D01*
G01*
G37*
G36*
G01*
X184836000Y-126561001D02*
X184836000Y-125660999D01*
G75*
G02*
X185085999Y-125411000I249999J0D01*
G01*
X185736001Y-125411000D01*
G75*
G02*
X185986000Y-125660999I0J-249999D01*
G01*
X185986000Y-126561001D01*
G75*
G02*
X185736001Y-126811000I-249999J0D01*
G01*
X185085999Y-126811000D01*
G75*
G02*
X184836000Y-126561001I0J249999D01*
G01*
G37*
%TD*%
M02*
