M48
; DRILL file {KiCad (5.1.7-0-10_14)} date Tuesday, November 10, 2020 at 12:29:35 AM
; FORMAT={-:-/ absolute / inch / decimal}
; #@! TF.CreationDate,2020-11-10T00:29:35+00:00
; #@! TF.GenerationSoftware,Kicad,Pcbnew,(5.1.7-0-10_14)
; #@! TF.FileFunction,Plated,1,2,PTH
FMAT,2
INCH
T1C0.0079
T2C0.0157
T3C0.0236
T4C0.0354
T5C0.0394
T6C0.0469
T7C0.0591
T8C0.0787
T9C0.1575
%
G90
G05
T1
X3.9Y-4.4
X4.1Y-4.4
X4.1804Y-4.9404
X4.225Y-4.45
X4.225Y-4.5006
X4.525Y-4.475
X4.585Y-3.415
X4.59Y-2.285
X5.245Y-3.89
X5.25Y-3.42
X5.295Y-3.72
X5.3Y-3.255
X5.39Y-3.255
X5.41Y-3.42
X5.4376Y-3.7224
X5.44Y-3.76
X5.5Y-5.465
X5.6Y-5.01
X5.65Y-4.09
X5.6633Y-3.7617
X5.6633Y-3.9783
X5.6639Y-3.9389
X5.6804Y-4.2904
X5.7125Y-4.1475
X5.72Y-3.47
X5.7317Y-3.5817
X5.7514Y-3.6014
X5.7711Y-3.69
X5.7908Y-3.5808
X5.8Y-4.3
X5.8Y-4.43
X5.8Y-5.0164
X5.8105Y-3.6005
X5.83Y-3.58
X5.84Y-2.96
X5.84Y-5.42
X5.85Y-3.6
X5.88Y-5.48
X5.8892Y-3.5808
X5.9089Y-3.5989
X5.9286Y-3.5086
X5.9483Y-3.4533
X5.96Y-4.33
X5.968Y-3.598
X5.98Y-3.34
X5.98Y-3.37
X5.985Y-3.905
X6.04Y-5.0164
X6.055Y-3.48
X6.1Y-4.305
X6.1Y-4.39
X6.11Y-5.385
X6.125Y-4.305
X6.125Y-4.39
X6.15Y-4.305
X6.15Y-4.39
X6.16Y-3.52
X6.18Y-5.385
X6.1975Y-3.9575
X6.2Y-4.305
X6.2Y-4.39
X6.25Y-3.975
X6.8255Y-2.6605
X6.83Y-2.475
X6.945Y-2.655
X6.95Y-2.775
X6.9935Y-2.7735
X7.015Y-2.31
X7.015Y-2.35
X7.025Y-2.655
X7.025Y-4.1
X7.025Y-4.18
X7.035Y-2.775
X7.0975Y-5.1275
X7.115Y-3.135
X7.12Y-4.015
X7.1235Y-2.7735
X7.15Y-3.085
X7.155Y-2.65
X7.167Y-2.743
X7.21Y-2.77
X7.225Y-4.505
X7.235Y-2.65
X7.254Y-2.771
X7.32Y-2.725
X7.3822Y-4.8378
X7.3822Y-4.8772
X7.415Y-2.725
X7.4325Y-4.5425
X7.6048Y-4.7802
X7.7425Y-4.6475
X7.8625Y-4.6975
X7.8625Y-4.9225
T2
X4.55Y-2.525
X4.55Y-2.6
X4.55Y-2.675
X4.55Y-2.75
X4.55Y-2.825
X4.55Y-2.9
X4.55Y-2.975
X4.55Y-3.05
X4.55Y-3.125
X4.625Y-2.525
X4.625Y-2.6
X4.625Y-2.675
X4.625Y-2.975
X4.625Y-3.05
X4.625Y-3.125
X4.7Y-2.525
X4.7Y-2.6
X4.7Y-2.675
X4.7Y-2.975
X4.7Y-3.05
X4.7Y-3.125
X4.775Y-2.525
X4.775Y-2.6
X4.775Y-2.675
X4.775Y-2.75
X4.775Y-2.825
X4.775Y-2.9
X4.775Y-2.975
X4.775Y-3.05
X4.775Y-3.125
T3
X4.0069Y-2.3975
X4.0415Y-2.314
X4.0415Y-2.481
X4.125Y-2.2794
X4.125Y-2.5156
X4.2085Y-2.314
X4.2085Y-2.481
X4.2431Y-2.3975
X4.0069Y-5.3
X4.0415Y-5.2165
X4.0415Y-5.3835
X4.125Y-5.1819
X4.125Y-5.4181
X4.2085Y-5.2165
X4.2085Y-5.3835
X4.2431Y-5.3
X7.4569Y-2.3975
X7.4915Y-2.314
X7.4915Y-2.481
X7.575Y-2.2794
X7.575Y-2.5156
X7.6585Y-2.314
X7.6585Y-2.481
X7.6931Y-2.3975
X7.4569Y-5.3
X7.4915Y-5.2165
X7.4915Y-5.3835
X7.575Y-5.1819
X7.575Y-5.4181
X7.6585Y-5.2165
X7.6585Y-5.3835
X7.6931Y-5.3
T4
X5.16Y-3.45
X5.16Y-3.535
X5.16Y-3.62
X5.16Y-3.705
X6.54Y-3.45
X6.54Y-3.535
X6.54Y-3.62
X6.54Y-3.705
T5
X6.2Y-2.85
X6.2Y-2.9484
X6.2Y-3.0469
X6.7709Y-2.85
X6.7709Y-3.0469
X5.065Y-4.02
X5.165Y-4.02
X6.52Y-4.02
X6.62Y-4.02
X4.9541Y-2.8531
X4.9541Y-3.05
X5.525Y-2.8531
X5.525Y-2.9516
X5.525Y-3.05
T6
X5.48Y-3.32
X5.48Y-3.42
X5.48Y-3.52
X5.48Y-3.62
T8
X7.3775Y-2.875
X7.3775Y-3.325
X7.8775Y-2.875
X7.8775Y-3.325
X3.8125Y-3.675
X3.8125Y-4.125
X4.3125Y-3.675
X4.3125Y-4.125
X7.3775Y-3.675
X7.3775Y-4.125
X7.8775Y-3.675
X7.8775Y-4.125
T9
X4.125Y-5.3
X7.575Y-2.3975
X7.575Y-5.3
X4.125Y-2.3975
T5
G00X6.3018Y-2.4797
M15
G01X6.3018Y-2.4403
M16
G05
G00X6.4868Y-2.4797
M15
G01X6.4868Y-2.4403
M16
G05
G00X6.6719Y-2.4797
M15
G01X6.6719Y-2.4403
M16
G05
G00X5.0467Y-2.4797
M15
G01X5.0467Y-2.4403
M16
G05
G00X5.2317Y-2.4797
M15
G01X5.2317Y-2.4403
M16
G05
G00X5.4167Y-2.4797
M15
G01X5.4167Y-2.4403
M16
G05
G00X3.9588Y-3.0806
M15
G01X3.9588Y-3.1594
M16
G05
G00X4.0375Y-2.935
M15
G01X4.1163Y-2.935
M16
G05
G00X4.195Y-3.0806
M15
G01X4.195Y-3.1594
M16
G05
T7
G00X6.4697Y-2.728
M15
G01X6.5209Y-2.728
M16
G05
G00X6.4697Y-3.1689
M15
G01X6.5209Y-3.1689
M16
G05
G00X5.2553Y-2.7311
M15
G01X5.2041Y-2.7311
M16
G05
G00X5.2553Y-3.172
M15
G01X5.2041Y-3.172
M16
G05
T0
M30
