%TF.GenerationSoftware,KiCad,Pcbnew,(5.1.7-0-10_14)*%
%TF.CreationDate,2020-11-10T20:06:16+00:00*%
%TF.ProjectId,CirrusDspPedal,43697272-7573-4447-9370-506564616c2e,rev?*%
%TF.SameCoordinates,Original*%
%TF.FileFunction,Legend,Bot*%
%TF.FilePolarity,Positive*%
%FSLAX46Y46*%
G04 Gerber Fmt 4.6, Leading zero omitted, Abs format (unit mm)*
G04 Created by KiCad (PCBNEW (5.1.7-0-10_14)) date 2020-11-10 20:06:16*
%MOMM*%
%LPD*%
G01*
G04 APERTURE LIST*
%ADD10C,0.100000*%
%ADD11C,0.150000*%
%ADD12C,0.120000*%
%ADD13C,0.125000*%
G04 APERTURE END LIST*
D10*
X132060000Y-83077857D02*
X132440952Y-83220714D01*
X132060000Y-83363571D01*
X131821904Y-83220714D02*
X131440952Y-83220714D01*
X130726666Y-82911190D02*
X130631428Y-82911190D01*
X130583809Y-82935000D01*
X130536190Y-82982619D01*
X130512380Y-83077857D01*
X130512380Y-83244523D01*
X130536190Y-83339761D01*
X130583809Y-83387380D01*
X130631428Y-83411190D01*
X130726666Y-83411190D01*
X130774285Y-83387380D01*
X130821904Y-83339761D01*
X130845714Y-83244523D01*
X130845714Y-83077857D01*
X130821904Y-82982619D01*
X130774285Y-82935000D01*
X130726666Y-82911190D01*
X130060000Y-83411190D02*
X130298095Y-83411190D01*
X130298095Y-82911190D01*
X129893333Y-83149285D02*
X129726666Y-83149285D01*
X129655238Y-83411190D02*
X129893333Y-83411190D01*
X129893333Y-82911190D01*
X129655238Y-82911190D01*
X129440952Y-83411190D02*
X129440952Y-82911190D01*
X129321904Y-82911190D01*
X129250476Y-82935000D01*
X129202857Y-82982619D01*
X129179047Y-83030238D01*
X129155238Y-83125476D01*
X129155238Y-83196904D01*
X129179047Y-83292142D01*
X129202857Y-83339761D01*
X129250476Y-83387380D01*
X129321904Y-83411190D01*
X129440952Y-83411190D01*
X129635238Y-84181190D02*
X129873333Y-84181190D01*
X129897142Y-84419285D01*
X129873333Y-84395476D01*
X129825714Y-84371666D01*
X129706666Y-84371666D01*
X129659047Y-84395476D01*
X129635238Y-84419285D01*
X129611428Y-84466904D01*
X129611428Y-84585952D01*
X129635238Y-84633571D01*
X129659047Y-84657380D01*
X129706666Y-84681190D01*
X129825714Y-84681190D01*
X129873333Y-84657380D01*
X129897142Y-84633571D01*
X129468571Y-84181190D02*
X129301904Y-84681190D01*
X129135238Y-84181190D01*
X130159047Y-81641190D02*
X129849523Y-81641190D01*
X130016190Y-81831666D01*
X129944761Y-81831666D01*
X129897142Y-81855476D01*
X129873333Y-81879285D01*
X129849523Y-81926904D01*
X129849523Y-82045952D01*
X129873333Y-82093571D01*
X129897142Y-82117380D01*
X129944761Y-82141190D01*
X130087619Y-82141190D01*
X130135238Y-82117380D01*
X130159047Y-82093571D01*
X129706666Y-81641190D02*
X129540000Y-82141190D01*
X129373333Y-81641190D01*
X129254285Y-81641190D02*
X128944761Y-81641190D01*
X129111428Y-81831666D01*
X129040000Y-81831666D01*
X128992380Y-81855476D01*
X128968571Y-81879285D01*
X128944761Y-81926904D01*
X128944761Y-82045952D01*
X128968571Y-82093571D01*
X128992380Y-82117380D01*
X129040000Y-82141190D01*
X129182857Y-82141190D01*
X129230476Y-82117380D01*
X129254285Y-82093571D01*
D11*
X141692380Y-131095904D02*
X141692380Y-131714952D01*
X142073333Y-131381619D01*
X142073333Y-131524476D01*
X142120952Y-131619714D01*
X142168571Y-131667333D01*
X142263809Y-131714952D01*
X142501904Y-131714952D01*
X142597142Y-131667333D01*
X142644761Y-131619714D01*
X142692380Y-131524476D01*
X142692380Y-131238761D01*
X142644761Y-131143523D01*
X142597142Y-131095904D01*
X141692380Y-132000666D02*
X142692380Y-132334000D01*
X141692380Y-132667333D01*
X141692380Y-132905428D02*
X141692380Y-133524476D01*
X142073333Y-133191142D01*
X142073333Y-133334000D01*
X142120952Y-133429238D01*
X142168571Y-133476857D01*
X142263809Y-133524476D01*
X142501904Y-133524476D01*
X142597142Y-133476857D01*
X142644761Y-133429238D01*
X142692380Y-133334000D01*
X142692380Y-133048285D01*
X142644761Y-132953047D01*
X142597142Y-132905428D01*
X139152380Y-131127523D02*
X139152380Y-130651333D01*
X139628571Y-130603714D01*
X139580952Y-130651333D01*
X139533333Y-130746571D01*
X139533333Y-130984666D01*
X139580952Y-131079904D01*
X139628571Y-131127523D01*
X139723809Y-131175142D01*
X139961904Y-131175142D01*
X140057142Y-131127523D01*
X140104761Y-131079904D01*
X140152380Y-130984666D01*
X140152380Y-130746571D01*
X140104761Y-130651333D01*
X140057142Y-130603714D01*
X139152380Y-131460857D02*
X140152380Y-131794190D01*
X139152380Y-132127523D01*
D12*
%TO.C,R27*%
X182193000Y-65016748D02*
X182193000Y-65539252D01*
X180773000Y-65016748D02*
X180773000Y-65539252D01*
%TO.C,JP1*%
X128635000Y-85235000D02*
X128635000Y-81135000D01*
X128635000Y-81135000D02*
X126635000Y-81135000D01*
X126635000Y-81135000D02*
X126635000Y-85235000D01*
X126635000Y-85235000D02*
X128635000Y-85235000D01*
X126435000Y-84485000D02*
X126135000Y-84785000D01*
X126135000Y-84785000D02*
X126135000Y-84185000D01*
X126435000Y-84485000D02*
X126135000Y-84185000D01*
%TO.C,Q1*%
X142550000Y-124458000D02*
X141620000Y-124458000D01*
X139390000Y-124458000D02*
X140320000Y-124458000D01*
X139390000Y-124458000D02*
X139390000Y-122298000D01*
X142550000Y-124458000D02*
X142550000Y-122998000D01*
%TO.C,JP2*%
X142270000Y-130486000D02*
X141970000Y-130786000D01*
X142570000Y-130786000D02*
X141970000Y-130786000D01*
X142270000Y-130486000D02*
X142570000Y-130786000D01*
X143020000Y-130286000D02*
X143020000Y-128286000D01*
X138920000Y-130286000D02*
X143020000Y-130286000D01*
X138920000Y-128286000D02*
X138920000Y-130286000D01*
X143020000Y-128286000D02*
X138920000Y-128286000D01*
%TO.C,K1*%
X148590000Y-118248000D02*
X144990000Y-118248000D01*
X152190000Y-129148000D02*
X144990000Y-129148000D01*
%TO.C,D2*%
X150790000Y-114316000D02*
X146940000Y-114316000D01*
X150790000Y-116316000D02*
X146940000Y-116316000D01*
X150790000Y-114316000D02*
X150790000Y-116316000D01*
%TO.C,R28*%
X184479000Y-65016748D02*
X184479000Y-65539252D01*
X183059000Y-65016748D02*
X183059000Y-65539252D01*
%TO.C,R26*%
X179145000Y-65016748D02*
X179145000Y-65539252D01*
X177725000Y-65016748D02*
X177725000Y-65539252D01*
%TO.C,R25*%
X176732000Y-65016748D02*
X176732000Y-65539252D01*
X175312000Y-65016748D02*
X175312000Y-65539252D01*
%TO.C,R24*%
X174192000Y-65016748D02*
X174192000Y-65539252D01*
X172772000Y-65016748D02*
X172772000Y-65539252D01*
D11*
%TO.C,J5*%
X204343000Y-71120000D02*
X204343000Y-86360000D01*
X204343000Y-86360000D02*
X182753000Y-86360000D01*
X182753000Y-86360000D02*
X182753000Y-71120000D01*
X182753000Y-71120000D02*
X204343000Y-71120000D01*
D12*
%TO.C,J4*%
X106945000Y-83848000D02*
X106945000Y-81248000D01*
X92245000Y-83848000D02*
X106945000Y-83848000D01*
X106945000Y-74648000D02*
X105045000Y-74648000D01*
X106945000Y-77348000D02*
X106945000Y-74648000D01*
X92245000Y-74648000D02*
X92245000Y-83848000D01*
X101045000Y-74648000D02*
X92245000Y-74648000D01*
X106095000Y-84048000D02*
X107145000Y-84048000D01*
X107145000Y-82998000D02*
X107145000Y-84048000D01*
D11*
%TO.C,J2*%
X92583000Y-106680000D02*
X92583000Y-91440000D01*
X92583000Y-91440000D02*
X114173000Y-91440000D01*
X114173000Y-91440000D02*
X114173000Y-106680000D01*
X114173000Y-106680000D02*
X92583000Y-106680000D01*
%TO.C,J1*%
X204343000Y-91440000D02*
X204343000Y-106680000D01*
X204343000Y-106680000D02*
X182753000Y-106680000D01*
X182753000Y-106680000D02*
X182753000Y-91440000D01*
X182753000Y-91440000D02*
X204343000Y-91440000D01*
D12*
%TO.C,C13*%
X105036252Y-113740000D02*
X104513748Y-113740000D01*
X105036252Y-112320000D02*
X104513748Y-112320000D01*
%TO.C,C11*%
X117213748Y-109780000D02*
X117736252Y-109780000D01*
X117213748Y-111200000D02*
X117736252Y-111200000D01*
%TO.C,C10*%
X117213748Y-112955000D02*
X117736252Y-112955000D01*
X117213748Y-114375000D02*
X117736252Y-114375000D01*
%TO.C,C3*%
X179697748Y-129719000D02*
X180220252Y-129719000D01*
X179697748Y-131139000D02*
X180220252Y-131139000D01*
%TO.C,C2*%
X186174748Y-127433000D02*
X186697252Y-127433000D01*
X186174748Y-128853000D02*
X186697252Y-128853000D01*
%TO.C,C1*%
X186174748Y-125401000D02*
X186697252Y-125401000D01*
X186174748Y-126821000D02*
X186697252Y-126821000D01*
%TO.C,R27*%
D11*
X181935380Y-61324142D02*
X181459190Y-60990809D01*
X181935380Y-60752714D02*
X180935380Y-60752714D01*
X180935380Y-61133666D01*
X180983000Y-61228904D01*
X181030619Y-61276523D01*
X181125857Y-61324142D01*
X181268714Y-61324142D01*
X181363952Y-61276523D01*
X181411571Y-61228904D01*
X181459190Y-61133666D01*
X181459190Y-60752714D01*
X181030619Y-61705095D02*
X180983000Y-61752714D01*
X180935380Y-61847952D01*
X180935380Y-62086047D01*
X180983000Y-62181285D01*
X181030619Y-62228904D01*
X181125857Y-62276523D01*
X181221095Y-62276523D01*
X181363952Y-62228904D01*
X181935380Y-61657476D01*
X181935380Y-62276523D01*
X180935380Y-62609857D02*
X180935380Y-63276523D01*
X181935380Y-62847952D01*
%TO.C,JP1*%
X128468333Y-79462380D02*
X128468333Y-80176666D01*
X128515952Y-80319523D01*
X128611190Y-80414761D01*
X128754047Y-80462380D01*
X128849285Y-80462380D01*
X127992142Y-80462380D02*
X127992142Y-79462380D01*
X127611190Y-79462380D01*
X127515952Y-79510000D01*
X127468333Y-79557619D01*
X127420714Y-79652857D01*
X127420714Y-79795714D01*
X127468333Y-79890952D01*
X127515952Y-79938571D01*
X127611190Y-79986190D01*
X127992142Y-79986190D01*
X126468333Y-80462380D02*
X127039761Y-80462380D01*
X126754047Y-80462380D02*
X126754047Y-79462380D01*
X126849285Y-79605238D01*
X126944523Y-79700476D01*
X127039761Y-79748095D01*
%TO.C,Q1*%
X141065238Y-121705619D02*
X141160476Y-121658000D01*
X141255714Y-121562761D01*
X141398571Y-121419904D01*
X141493809Y-121372285D01*
X141589047Y-121372285D01*
X141541428Y-121610380D02*
X141636666Y-121562761D01*
X141731904Y-121467523D01*
X141779523Y-121277047D01*
X141779523Y-120943714D01*
X141731904Y-120753238D01*
X141636666Y-120658000D01*
X141541428Y-120610380D01*
X141350952Y-120610380D01*
X141255714Y-120658000D01*
X141160476Y-120753238D01*
X141112857Y-120943714D01*
X141112857Y-121277047D01*
X141160476Y-121467523D01*
X141255714Y-121562761D01*
X141350952Y-121610380D01*
X141541428Y-121610380D01*
X140160476Y-121610380D02*
X140731904Y-121610380D01*
X140446190Y-121610380D02*
X140446190Y-120610380D01*
X140541428Y-120753238D01*
X140636666Y-120848476D01*
X140731904Y-120896095D01*
%TO.C,JP2*%
X141041333Y-126706380D02*
X141041333Y-127420666D01*
X141088952Y-127563523D01*
X141184190Y-127658761D01*
X141327047Y-127706380D01*
X141422285Y-127706380D01*
X140565142Y-127706380D02*
X140565142Y-126706380D01*
X140184190Y-126706380D01*
X140088952Y-126754000D01*
X140041333Y-126801619D01*
X139993714Y-126896857D01*
X139993714Y-127039714D01*
X140041333Y-127134952D01*
X140088952Y-127182571D01*
X140184190Y-127230190D01*
X140565142Y-127230190D01*
X139612761Y-126801619D02*
X139565142Y-126754000D01*
X139469904Y-126706380D01*
X139231809Y-126706380D01*
X139136571Y-126754000D01*
X139088952Y-126801619D01*
X139041333Y-126896857D01*
X139041333Y-126992095D01*
X139088952Y-127134952D01*
X139660380Y-127706380D01*
X139041333Y-127706380D01*
%TO.C,K1*%
X149328095Y-130754380D02*
X149328095Y-129754380D01*
X148756666Y-130754380D02*
X149185238Y-130182952D01*
X148756666Y-129754380D02*
X149328095Y-130325809D01*
X147804285Y-130754380D02*
X148375714Y-130754380D01*
X148090000Y-130754380D02*
X148090000Y-129754380D01*
X148185238Y-129897238D01*
X148280476Y-129992476D01*
X148375714Y-130040095D01*
%TO.C,D2*%
X149328095Y-113990380D02*
X149328095Y-112990380D01*
X149090000Y-112990380D01*
X148947142Y-113038000D01*
X148851904Y-113133238D01*
X148804285Y-113228476D01*
X148756666Y-113418952D01*
X148756666Y-113561809D01*
X148804285Y-113752285D01*
X148851904Y-113847523D01*
X148947142Y-113942761D01*
X149090000Y-113990380D01*
X149328095Y-113990380D01*
X148375714Y-113085619D02*
X148328095Y-113038000D01*
X148232857Y-112990380D01*
X147994761Y-112990380D01*
X147899523Y-113038000D01*
X147851904Y-113085619D01*
X147804285Y-113180857D01*
X147804285Y-113276095D01*
X147851904Y-113418952D01*
X148423333Y-113990380D01*
X147804285Y-113990380D01*
%TO.C,R28*%
X184221380Y-61333142D02*
X183745190Y-60999809D01*
X184221380Y-60761714D02*
X183221380Y-60761714D01*
X183221380Y-61142666D01*
X183269000Y-61237904D01*
X183316619Y-61285523D01*
X183411857Y-61333142D01*
X183554714Y-61333142D01*
X183649952Y-61285523D01*
X183697571Y-61237904D01*
X183745190Y-61142666D01*
X183745190Y-60761714D01*
X183316619Y-61714095D02*
X183269000Y-61761714D01*
X183221380Y-61856952D01*
X183221380Y-62095047D01*
X183269000Y-62190285D01*
X183316619Y-62237904D01*
X183411857Y-62285523D01*
X183507095Y-62285523D01*
X183649952Y-62237904D01*
X184221380Y-61666476D01*
X184221380Y-62285523D01*
X183649952Y-62856952D02*
X183602333Y-62761714D01*
X183554714Y-62714095D01*
X183459476Y-62666476D01*
X183411857Y-62666476D01*
X183316619Y-62714095D01*
X183269000Y-62761714D01*
X183221380Y-62856952D01*
X183221380Y-63047428D01*
X183269000Y-63142666D01*
X183316619Y-63190285D01*
X183411857Y-63237904D01*
X183459476Y-63237904D01*
X183554714Y-63190285D01*
X183602333Y-63142666D01*
X183649952Y-63047428D01*
X183649952Y-62856952D01*
X183697571Y-62761714D01*
X183745190Y-62714095D01*
X183840428Y-62666476D01*
X184030904Y-62666476D01*
X184126142Y-62714095D01*
X184173761Y-62761714D01*
X184221380Y-62856952D01*
X184221380Y-63047428D01*
X184173761Y-63142666D01*
X184126142Y-63190285D01*
X184030904Y-63237904D01*
X183840428Y-63237904D01*
X183745190Y-63190285D01*
X183697571Y-63142666D01*
X183649952Y-63047428D01*
%TO.C,R26*%
X178887380Y-61079142D02*
X178411190Y-60745809D01*
X178887380Y-60507714D02*
X177887380Y-60507714D01*
X177887380Y-60888666D01*
X177935000Y-60983904D01*
X177982619Y-61031523D01*
X178077857Y-61079142D01*
X178220714Y-61079142D01*
X178315952Y-61031523D01*
X178363571Y-60983904D01*
X178411190Y-60888666D01*
X178411190Y-60507714D01*
X177982619Y-61460095D02*
X177935000Y-61507714D01*
X177887380Y-61602952D01*
X177887380Y-61841047D01*
X177935000Y-61936285D01*
X177982619Y-61983904D01*
X178077857Y-62031523D01*
X178173095Y-62031523D01*
X178315952Y-61983904D01*
X178887380Y-61412476D01*
X178887380Y-62031523D01*
X177887380Y-62888666D02*
X177887380Y-62698190D01*
X177935000Y-62602952D01*
X177982619Y-62555333D01*
X178125476Y-62460095D01*
X178315952Y-62412476D01*
X178696904Y-62412476D01*
X178792142Y-62460095D01*
X178839761Y-62507714D01*
X178887380Y-62602952D01*
X178887380Y-62793428D01*
X178839761Y-62888666D01*
X178792142Y-62936285D01*
X178696904Y-62983904D01*
X178458809Y-62983904D01*
X178363571Y-62936285D01*
X178315952Y-62888666D01*
X178268333Y-62793428D01*
X178268333Y-62602952D01*
X178315952Y-62507714D01*
X178363571Y-62460095D01*
X178458809Y-62412476D01*
%TO.C,R25*%
X176474380Y-61079142D02*
X175998190Y-60745809D01*
X176474380Y-60507714D02*
X175474380Y-60507714D01*
X175474380Y-60888666D01*
X175522000Y-60983904D01*
X175569619Y-61031523D01*
X175664857Y-61079142D01*
X175807714Y-61079142D01*
X175902952Y-61031523D01*
X175950571Y-60983904D01*
X175998190Y-60888666D01*
X175998190Y-60507714D01*
X175569619Y-61460095D02*
X175522000Y-61507714D01*
X175474380Y-61602952D01*
X175474380Y-61841047D01*
X175522000Y-61936285D01*
X175569619Y-61983904D01*
X175664857Y-62031523D01*
X175760095Y-62031523D01*
X175902952Y-61983904D01*
X176474380Y-61412476D01*
X176474380Y-62031523D01*
X175474380Y-62936285D02*
X175474380Y-62460095D01*
X175950571Y-62412476D01*
X175902952Y-62460095D01*
X175855333Y-62555333D01*
X175855333Y-62793428D01*
X175902952Y-62888666D01*
X175950571Y-62936285D01*
X176045809Y-62983904D01*
X176283904Y-62983904D01*
X176379142Y-62936285D01*
X176426761Y-62888666D01*
X176474380Y-62793428D01*
X176474380Y-62555333D01*
X176426761Y-62460095D01*
X176379142Y-62412476D01*
%TO.C,R24*%
X173934380Y-61079142D02*
X173458190Y-60745809D01*
X173934380Y-60507714D02*
X172934380Y-60507714D01*
X172934380Y-60888666D01*
X172982000Y-60983904D01*
X173029619Y-61031523D01*
X173124857Y-61079142D01*
X173267714Y-61079142D01*
X173362952Y-61031523D01*
X173410571Y-60983904D01*
X173458190Y-60888666D01*
X173458190Y-60507714D01*
X173029619Y-61460095D02*
X172982000Y-61507714D01*
X172934380Y-61602952D01*
X172934380Y-61841047D01*
X172982000Y-61936285D01*
X173029619Y-61983904D01*
X173124857Y-62031523D01*
X173220095Y-62031523D01*
X173362952Y-61983904D01*
X173934380Y-61412476D01*
X173934380Y-62031523D01*
X173267714Y-62888666D02*
X173934380Y-62888666D01*
X172886761Y-62650571D02*
X173601047Y-62412476D01*
X173601047Y-63031523D01*
%TO.C,J5*%
D13*
X202604666Y-86721190D02*
X202604666Y-87078333D01*
X202628476Y-87149761D01*
X202676095Y-87197380D01*
X202747523Y-87221190D01*
X202795142Y-87221190D01*
X202128476Y-86721190D02*
X202366571Y-86721190D01*
X202390380Y-86959285D01*
X202366571Y-86935476D01*
X202318952Y-86911666D01*
X202199904Y-86911666D01*
X202152285Y-86935476D01*
X202128476Y-86959285D01*
X202104666Y-87006904D01*
X202104666Y-87125952D01*
X202128476Y-87173571D01*
X202152285Y-87197380D01*
X202199904Y-87221190D01*
X202318952Y-87221190D01*
X202366571Y-87197380D01*
X202390380Y-87173571D01*
%TO.C,J4*%
D11*
X97928333Y-72950380D02*
X97928333Y-73664666D01*
X97975952Y-73807523D01*
X98071190Y-73902761D01*
X98214047Y-73950380D01*
X98309285Y-73950380D01*
X97023571Y-73283714D02*
X97023571Y-73950380D01*
X97261666Y-72902761D02*
X97499761Y-73617047D01*
X96880714Y-73617047D01*
%TO.C,J2*%
D13*
X94654666Y-90531190D02*
X94654666Y-90888333D01*
X94678476Y-90959761D01*
X94726095Y-91007380D01*
X94797523Y-91031190D01*
X94845142Y-91031190D01*
X94440380Y-90578809D02*
X94416571Y-90555000D01*
X94368952Y-90531190D01*
X94249904Y-90531190D01*
X94202285Y-90555000D01*
X94178476Y-90578809D01*
X94154666Y-90626428D01*
X94154666Y-90674047D01*
X94178476Y-90745476D01*
X94464190Y-91031190D01*
X94154666Y-91031190D01*
%TO.C,J1*%
X202604666Y-107041190D02*
X202604666Y-107398333D01*
X202628476Y-107469761D01*
X202676095Y-107517380D01*
X202747523Y-107541190D01*
X202795142Y-107541190D01*
X202104666Y-107541190D02*
X202390380Y-107541190D01*
X202247523Y-107541190D02*
X202247523Y-107041190D01*
X202295142Y-107112619D01*
X202342761Y-107160238D01*
X202390380Y-107184047D01*
%TO.C,C13*%
D11*
X105671857Y-115673142D02*
X105719476Y-115720761D01*
X105862333Y-115768380D01*
X105957571Y-115768380D01*
X106100428Y-115720761D01*
X106195666Y-115625523D01*
X106243285Y-115530285D01*
X106290904Y-115339809D01*
X106290904Y-115196952D01*
X106243285Y-115006476D01*
X106195666Y-114911238D01*
X106100428Y-114816000D01*
X105957571Y-114768380D01*
X105862333Y-114768380D01*
X105719476Y-114816000D01*
X105671857Y-114863619D01*
X104719476Y-115768380D02*
X105290904Y-115768380D01*
X105005190Y-115768380D02*
X105005190Y-114768380D01*
X105100428Y-114911238D01*
X105195666Y-115006476D01*
X105290904Y-115054095D01*
X104386142Y-114768380D02*
X103767095Y-114768380D01*
X104100428Y-115149333D01*
X103957571Y-115149333D01*
X103862333Y-115196952D01*
X103814714Y-115244571D01*
X103767095Y-115339809D01*
X103767095Y-115577904D01*
X103814714Y-115673142D01*
X103862333Y-115720761D01*
X103957571Y-115768380D01*
X104243285Y-115768380D01*
X104338523Y-115720761D01*
X104386142Y-115673142D01*
%TO.C,C11*%
X118117857Y-109196142D02*
X118165476Y-109243761D01*
X118308333Y-109291380D01*
X118403571Y-109291380D01*
X118546428Y-109243761D01*
X118641666Y-109148523D01*
X118689285Y-109053285D01*
X118736904Y-108862809D01*
X118736904Y-108719952D01*
X118689285Y-108529476D01*
X118641666Y-108434238D01*
X118546428Y-108339000D01*
X118403571Y-108291380D01*
X118308333Y-108291380D01*
X118165476Y-108339000D01*
X118117857Y-108386619D01*
X117165476Y-109291380D02*
X117736904Y-109291380D01*
X117451190Y-109291380D02*
X117451190Y-108291380D01*
X117546428Y-108434238D01*
X117641666Y-108529476D01*
X117736904Y-108577095D01*
X116213095Y-109291380D02*
X116784523Y-109291380D01*
X116498809Y-109291380D02*
X116498809Y-108291380D01*
X116594047Y-108434238D01*
X116689285Y-108529476D01*
X116784523Y-108577095D01*
%TO.C,C10*%
X118117857Y-115800142D02*
X118165476Y-115847761D01*
X118308333Y-115895380D01*
X118403571Y-115895380D01*
X118546428Y-115847761D01*
X118641666Y-115752523D01*
X118689285Y-115657285D01*
X118736904Y-115466809D01*
X118736904Y-115323952D01*
X118689285Y-115133476D01*
X118641666Y-115038238D01*
X118546428Y-114943000D01*
X118403571Y-114895380D01*
X118308333Y-114895380D01*
X118165476Y-114943000D01*
X118117857Y-114990619D01*
X117165476Y-115895380D02*
X117736904Y-115895380D01*
X117451190Y-115895380D02*
X117451190Y-114895380D01*
X117546428Y-115038238D01*
X117641666Y-115133476D01*
X117736904Y-115181095D01*
X116546428Y-114895380D02*
X116451190Y-114895380D01*
X116355952Y-114943000D01*
X116308333Y-114990619D01*
X116260714Y-115085857D01*
X116213095Y-115276333D01*
X116213095Y-115514428D01*
X116260714Y-115704904D01*
X116308333Y-115800142D01*
X116355952Y-115847761D01*
X116451190Y-115895380D01*
X116546428Y-115895380D01*
X116641666Y-115847761D01*
X116689285Y-115800142D01*
X116736904Y-115704904D01*
X116784523Y-115514428D01*
X116784523Y-115276333D01*
X116736904Y-115085857D01*
X116689285Y-114990619D01*
X116641666Y-114943000D01*
X116546428Y-114895380D01*
%TO.C,C3*%
X182602142Y-130008333D02*
X182649761Y-129960714D01*
X182697380Y-129817857D01*
X182697380Y-129722619D01*
X182649761Y-129579761D01*
X182554523Y-129484523D01*
X182459285Y-129436904D01*
X182268809Y-129389285D01*
X182125952Y-129389285D01*
X181935476Y-129436904D01*
X181840238Y-129484523D01*
X181745000Y-129579761D01*
X181697380Y-129722619D01*
X181697380Y-129817857D01*
X181745000Y-129960714D01*
X181792619Y-130008333D01*
X181697380Y-130341666D02*
X181697380Y-130960714D01*
X182078333Y-130627380D01*
X182078333Y-130770238D01*
X182125952Y-130865476D01*
X182173571Y-130913095D01*
X182268809Y-130960714D01*
X182506904Y-130960714D01*
X182602142Y-130913095D01*
X182649761Y-130865476D01*
X182697380Y-130770238D01*
X182697380Y-130484523D01*
X182649761Y-130389285D01*
X182602142Y-130341666D01*
%TO.C,C2*%
X189777666Y-126849142D02*
X189825285Y-126896761D01*
X189968142Y-126944380D01*
X190063380Y-126944380D01*
X190206238Y-126896761D01*
X190301476Y-126801523D01*
X190349095Y-126706285D01*
X190396714Y-126515809D01*
X190396714Y-126372952D01*
X190349095Y-126182476D01*
X190301476Y-126087238D01*
X190206238Y-125992000D01*
X190063380Y-125944380D01*
X189968142Y-125944380D01*
X189825285Y-125992000D01*
X189777666Y-126039619D01*
X189396714Y-126039619D02*
X189349095Y-125992000D01*
X189253857Y-125944380D01*
X189015761Y-125944380D01*
X188920523Y-125992000D01*
X188872904Y-126039619D01*
X188825285Y-126134857D01*
X188825285Y-126230095D01*
X188872904Y-126372952D01*
X189444333Y-126944380D01*
X188825285Y-126944380D01*
%TO.C,C1*%
X189269666Y-126468142D02*
X189317285Y-126515761D01*
X189460142Y-126563380D01*
X189555380Y-126563380D01*
X189698238Y-126515761D01*
X189793476Y-126420523D01*
X189841095Y-126325285D01*
X189888714Y-126134809D01*
X189888714Y-125991952D01*
X189841095Y-125801476D01*
X189793476Y-125706238D01*
X189698238Y-125611000D01*
X189555380Y-125563380D01*
X189460142Y-125563380D01*
X189317285Y-125611000D01*
X189269666Y-125658619D01*
X188317285Y-126563380D02*
X188888714Y-126563380D01*
X188603000Y-126563380D02*
X188603000Y-125563380D01*
X188698238Y-125706238D01*
X188793476Y-125801476D01*
X188888714Y-125849095D01*
%TD*%
M02*
