%TF.GenerationSoftware,KiCad,Pcbnew,(5.1.7-0-10_14)*%
%TF.CreationDate,2020-11-10T14:05:38+00:00*%
%TF.ProjectId,CirrusDspPedal,43697272-7573-4447-9370-506564616c2e,rev?*%
%TF.SameCoordinates,Original*%
%TF.FileFunction,Legend,Top*%
%TF.FilePolarity,Positive*%
%FSLAX46Y46*%
G04 Gerber Fmt 4.6, Leading zero omitted, Abs format (unit mm)*
G04 Created by KiCad (PCBNEW (5.1.7-0-10_14)) date 2020-11-10 14:05:38*
%MOMM*%
%LPD*%
G01*
G04 APERTURE LIST*
%ADD10C,0.100000*%
%ADD11C,0.120000*%
%ADD12C,1.000000*%
%ADD13C,0.500000*%
%ADD14C,0.150000*%
G04 APERTURE END LIST*
D10*
X142648857Y-92150380D02*
X142720285Y-92174190D01*
X142839333Y-92174190D01*
X142886952Y-92150380D01*
X142910761Y-92126571D01*
X142934571Y-92078952D01*
X142934571Y-92031333D01*
X142910761Y-91983714D01*
X142886952Y-91959904D01*
X142839333Y-91936095D01*
X142744095Y-91912285D01*
X142696476Y-91888476D01*
X142672666Y-91864666D01*
X142648857Y-91817047D01*
X142648857Y-91769428D01*
X142672666Y-91721809D01*
X142696476Y-91698000D01*
X142744095Y-91674190D01*
X142863142Y-91674190D01*
X142934571Y-91698000D01*
X143148857Y-92174190D02*
X143148857Y-91674190D01*
X143267904Y-91674190D01*
X143339333Y-91698000D01*
X143386952Y-91745619D01*
X143410761Y-91793238D01*
X143434571Y-91888476D01*
X143434571Y-91959904D01*
X143410761Y-92055142D01*
X143386952Y-92102761D01*
X143339333Y-92150380D01*
X143267904Y-92174190D01*
X143148857Y-92174190D01*
X143625047Y-92031333D02*
X143863142Y-92031333D01*
X143577428Y-92174190D02*
X143744095Y-91674190D01*
X143910761Y-92174190D01*
X142660761Y-89356380D02*
X142732190Y-89380190D01*
X142851238Y-89380190D01*
X142898857Y-89356380D01*
X142922666Y-89332571D01*
X142946476Y-89284952D01*
X142946476Y-89237333D01*
X142922666Y-89189714D01*
X142898857Y-89165904D01*
X142851238Y-89142095D01*
X142756000Y-89118285D01*
X142708380Y-89094476D01*
X142684571Y-89070666D01*
X142660761Y-89023047D01*
X142660761Y-88975428D01*
X142684571Y-88927809D01*
X142708380Y-88904000D01*
X142756000Y-88880190D01*
X142875047Y-88880190D01*
X142946476Y-88904000D01*
X143446476Y-89332571D02*
X143422666Y-89356380D01*
X143351238Y-89380190D01*
X143303619Y-89380190D01*
X143232190Y-89356380D01*
X143184571Y-89308761D01*
X143160761Y-89261142D01*
X143136952Y-89165904D01*
X143136952Y-89094476D01*
X143160761Y-88999238D01*
X143184571Y-88951619D01*
X143232190Y-88904000D01*
X143303619Y-88880190D01*
X143351238Y-88880190D01*
X143422666Y-88904000D01*
X143446476Y-88927809D01*
X143898857Y-89380190D02*
X143660761Y-89380190D01*
X143660761Y-88880190D01*
X142636952Y-86594190D02*
X142946476Y-86594190D01*
X142779809Y-86784666D01*
X142851238Y-86784666D01*
X142898857Y-86808476D01*
X142922666Y-86832285D01*
X142946476Y-86879904D01*
X142946476Y-86998952D01*
X142922666Y-87046571D01*
X142898857Y-87070380D01*
X142851238Y-87094190D01*
X142708380Y-87094190D01*
X142660761Y-87070380D01*
X142636952Y-87046571D01*
X143089333Y-86594190D02*
X143256000Y-87094190D01*
X143422666Y-86594190D01*
X143541714Y-86594190D02*
X143851238Y-86594190D01*
X143684571Y-86784666D01*
X143756000Y-86784666D01*
X143803619Y-86808476D01*
X143827428Y-86832285D01*
X143851238Y-86879904D01*
X143851238Y-86998952D01*
X143827428Y-87046571D01*
X143803619Y-87070380D01*
X143756000Y-87094190D01*
X143613142Y-87094190D01*
X143565523Y-87070380D01*
X143541714Y-87046571D01*
X142875047Y-84078000D02*
X142827428Y-84054190D01*
X142756000Y-84054190D01*
X142684571Y-84078000D01*
X142636952Y-84125619D01*
X142613142Y-84173238D01*
X142589333Y-84268476D01*
X142589333Y-84339904D01*
X142613142Y-84435142D01*
X142636952Y-84482761D01*
X142684571Y-84530380D01*
X142756000Y-84554190D01*
X142803619Y-84554190D01*
X142875047Y-84530380D01*
X142898857Y-84506571D01*
X142898857Y-84339904D01*
X142803619Y-84339904D01*
X143113142Y-84554190D02*
X143113142Y-84054190D01*
X143398857Y-84554190D01*
X143398857Y-84054190D01*
X143636952Y-84554190D02*
X143636952Y-84054190D01*
X143756000Y-84054190D01*
X143827428Y-84078000D01*
X143875047Y-84125619D01*
X143898857Y-84173238D01*
X143922666Y-84268476D01*
X143922666Y-84339904D01*
X143898857Y-84435142D01*
X143875047Y-84482761D01*
X143827428Y-84530380D01*
X143756000Y-84554190D01*
X143636952Y-84554190D01*
D11*
X175133000Y-58547000D02*
X176149000Y-57785000D01*
X174752000Y-60452000D02*
X177546000Y-58293000D01*
X174879000Y-61976000D02*
X177673000Y-59563000D01*
X175387000Y-63119000D02*
X180721000Y-58166000D01*
X176784000Y-63246000D02*
X182372000Y-58039000D01*
X178308000Y-63500000D02*
X184785000Y-57658000D01*
X179959000Y-63627000D02*
X184404000Y-59563000D01*
X181737000Y-63627000D02*
X184531000Y-60960000D01*
X183388000Y-64008000D02*
X184785000Y-62611000D01*
X185420000Y-54991000D02*
X185420000Y-64135000D01*
X174371000Y-54991000D02*
X185420000Y-54991000D01*
X174371000Y-64135000D02*
X174371000Y-54991000D01*
D12*
X183615000Y-115443000D02*
G75*
G03*
X183615000Y-115443000I-100000J0D01*
G01*
D13*
X137574285Y-132461142D02*
X137574285Y-129461142D01*
X138288571Y-129461142D01*
X138717142Y-129604000D01*
X139002857Y-129889714D01*
X139145714Y-130175428D01*
X139288571Y-130746857D01*
X139288571Y-131175428D01*
X139145714Y-131746857D01*
X139002857Y-132032571D01*
X138717142Y-132318285D01*
X138288571Y-132461142D01*
X137574285Y-132461142D01*
X140431428Y-132318285D02*
X140860000Y-132461142D01*
X141574285Y-132461142D01*
X141860000Y-132318285D01*
X142002857Y-132175428D01*
X142145714Y-131889714D01*
X142145714Y-131604000D01*
X142002857Y-131318285D01*
X141860000Y-131175428D01*
X141574285Y-131032571D01*
X141002857Y-130889714D01*
X140717142Y-130746857D01*
X140574285Y-130604000D01*
X140431428Y-130318285D01*
X140431428Y-130032571D01*
X140574285Y-129746857D01*
X140717142Y-129604000D01*
X141002857Y-129461142D01*
X141717142Y-129461142D01*
X142145714Y-129604000D01*
X143431428Y-132461142D02*
X143431428Y-129461142D01*
X144574285Y-129461142D01*
X144860000Y-129604000D01*
X145002857Y-129746857D01*
X145145714Y-130032571D01*
X145145714Y-130461142D01*
X145002857Y-130746857D01*
X144860000Y-130889714D01*
X144574285Y-131032571D01*
X143431428Y-131032571D01*
X148717142Y-132461142D02*
X148717142Y-129461142D01*
X149860000Y-129461142D01*
X150145714Y-129604000D01*
X150288571Y-129746857D01*
X150431428Y-130032571D01*
X150431428Y-130461142D01*
X150288571Y-130746857D01*
X150145714Y-130889714D01*
X149860000Y-131032571D01*
X148717142Y-131032571D01*
X152860000Y-132318285D02*
X152574285Y-132461142D01*
X152002857Y-132461142D01*
X151717142Y-132318285D01*
X151574285Y-132032571D01*
X151574285Y-130889714D01*
X151717142Y-130604000D01*
X152002857Y-130461142D01*
X152574285Y-130461142D01*
X152860000Y-130604000D01*
X153002857Y-130889714D01*
X153002857Y-131175428D01*
X151574285Y-131461142D01*
X155574285Y-132461142D02*
X155574285Y-129461142D01*
X155574285Y-132318285D02*
X155288571Y-132461142D01*
X154717142Y-132461142D01*
X154431428Y-132318285D01*
X154288571Y-132175428D01*
X154145714Y-131889714D01*
X154145714Y-131032571D01*
X154288571Y-130746857D01*
X154431428Y-130604000D01*
X154717142Y-130461142D01*
X155288571Y-130461142D01*
X155574285Y-130604000D01*
X158288571Y-132461142D02*
X158288571Y-130889714D01*
X158145714Y-130604000D01*
X157860000Y-130461142D01*
X157288571Y-130461142D01*
X157002857Y-130604000D01*
X158288571Y-132318285D02*
X158002857Y-132461142D01*
X157288571Y-132461142D01*
X157002857Y-132318285D01*
X156860000Y-132032571D01*
X156860000Y-131746857D01*
X157002857Y-131461142D01*
X157288571Y-131318285D01*
X158002857Y-131318285D01*
X158288571Y-131175428D01*
X160145714Y-132461142D02*
X159860000Y-132318285D01*
X159717142Y-132032571D01*
X159717142Y-129461142D01*
X144574285Y-137461142D02*
X143574285Y-136032571D01*
X142860000Y-137461142D02*
X142860000Y-134461142D01*
X144002857Y-134461142D01*
X144288571Y-134604000D01*
X144431428Y-134746857D01*
X144574285Y-135032571D01*
X144574285Y-135461142D01*
X144431428Y-135746857D01*
X144288571Y-135889714D01*
X144002857Y-136032571D01*
X142860000Y-136032571D01*
X147002857Y-137318285D02*
X146717142Y-137461142D01*
X146145714Y-137461142D01*
X145860000Y-137318285D01*
X145717142Y-137032571D01*
X145717142Y-135889714D01*
X145860000Y-135604000D01*
X146145714Y-135461142D01*
X146717142Y-135461142D01*
X147002857Y-135604000D01*
X147145714Y-135889714D01*
X147145714Y-136175428D01*
X145717142Y-136461142D01*
X148145714Y-135461142D02*
X148860000Y-137461142D01*
X149574285Y-135461142D01*
X151717142Y-135889714D02*
X152145714Y-136032571D01*
X152288571Y-136175428D01*
X152431428Y-136461142D01*
X152431428Y-136889714D01*
X152288571Y-137175428D01*
X152145714Y-137318285D01*
X151860000Y-137461142D01*
X150717142Y-137461142D01*
X150717142Y-134461142D01*
X151717142Y-134461142D01*
X152002857Y-134604000D01*
X152145714Y-134746857D01*
X152288571Y-135032571D01*
X152288571Y-135318285D01*
X152145714Y-135604000D01*
X152002857Y-135746857D01*
X151717142Y-135889714D01*
X150717142Y-135889714D01*
D12*
X115035000Y-115316000D02*
G75*
G03*
X115035000Y-115316000I-100000J0D01*
G01*
X180122500Y-122364500D02*
G75*
G03*
X180122500Y-122364500I-100000J0D01*
G01*
X150976000Y-76454000D02*
G75*
G03*
X150976000Y-76454000I-100000J0D01*
G01*
X140562000Y-94488000D02*
G75*
G03*
X140562000Y-94488000I-100000J0D01*
G01*
D11*
%TO.C,J6*%
X186029600Y-64185800D02*
X186029600Y-70078600D01*
X186029600Y-70078600D02*
X174244000Y-70078600D01*
X174244000Y-64185800D02*
X174244000Y-70078600D01*
X186029600Y-64185800D02*
X174244000Y-64185800D01*
%TO.C,U4*%
X116845000Y-84690000D02*
X116845000Y-83430000D01*
X116845000Y-77870000D02*
X116845000Y-79130000D01*
X113085000Y-84690000D02*
X116845000Y-84690000D01*
X110835000Y-77870000D02*
X116845000Y-77870000D01*
%TO.C,J8*%
X136162000Y-93328000D02*
X142182000Y-93328000D01*
X142182000Y-93328000D02*
X142182000Y-82948000D01*
X142182000Y-82948000D02*
X136162000Y-82948000D01*
X136162000Y-82948000D02*
X136162000Y-93328000D01*
X137192000Y-93618000D02*
X141192000Y-93618000D01*
X142182000Y-91948000D02*
X141182000Y-91948000D01*
X141182000Y-91948000D02*
X141182000Y-84328000D01*
X141182000Y-84328000D02*
X142182000Y-84328000D01*
X141182000Y-91948000D02*
X140652000Y-91698000D01*
X140652000Y-91698000D02*
X140652000Y-84578000D01*
X140652000Y-84578000D02*
X141182000Y-84328000D01*
X142182000Y-91698000D02*
X141182000Y-91698000D01*
X142182000Y-84578000D02*
X141182000Y-84578000D01*
X136162000Y-92748000D02*
X136762000Y-92748000D01*
X136762000Y-92748000D02*
X136762000Y-91148000D01*
X136762000Y-91148000D02*
X136162000Y-91148000D01*
X136162000Y-90208000D02*
X136762000Y-90208000D01*
X136762000Y-90208000D02*
X136762000Y-88608000D01*
X136762000Y-88608000D02*
X136162000Y-88608000D01*
X136162000Y-87668000D02*
X136762000Y-87668000D01*
X136762000Y-87668000D02*
X136762000Y-86068000D01*
X136762000Y-86068000D02*
X136162000Y-86068000D01*
X136162000Y-85128000D02*
X136762000Y-85128000D01*
X136762000Y-85128000D02*
X136762000Y-83528000D01*
X136762000Y-83528000D02*
X136162000Y-83528000D01*
%TO.C,U7*%
X152496000Y-103408000D02*
X153446000Y-103408000D01*
X153446000Y-103408000D02*
X153446000Y-102458000D01*
X144176000Y-103408000D02*
X143226000Y-103408000D01*
X143226000Y-103408000D02*
X143226000Y-102458000D01*
X152496000Y-93188000D02*
X153446000Y-93188000D01*
X153446000Y-93188000D02*
X153446000Y-94138000D01*
X144176000Y-93188000D02*
X143226000Y-93188000D01*
X143226000Y-93188000D02*
X143226000Y-94138000D01*
X143226000Y-94138000D02*
X141886000Y-94138000D01*
%TO.C,SW6*%
X135835000Y-74970000D02*
G75*
G03*
X135835000Y-74970000I-3000000J0D01*
G01*
X130835000Y-80870000D02*
X126735000Y-80870000D01*
X126735000Y-69070000D02*
X130835000Y-69070000D01*
X134835000Y-69070000D02*
X138935000Y-69070000D01*
X134835000Y-80870000D02*
X138935000Y-80870000D01*
X138935000Y-80870000D02*
X138935000Y-69070000D01*
X140335000Y-78770000D02*
X140635000Y-79070000D01*
X140635000Y-79070000D02*
X140035000Y-79070000D01*
X140035000Y-79070000D02*
X140335000Y-78770000D01*
X126735000Y-80870000D02*
X126735000Y-78470000D01*
X126735000Y-76270000D02*
X126735000Y-73670000D01*
X126735000Y-71470000D02*
X126735000Y-69070000D01*
X132835000Y-75470000D02*
X132835000Y-74470000D01*
X133335000Y-74970000D02*
X132335000Y-74970000D01*
%TO.C,SW5*%
X167980000Y-74890000D02*
G75*
G03*
X167980000Y-74890000I-3000000J0D01*
G01*
X166980000Y-68990000D02*
X171080000Y-68990000D01*
X171080000Y-80790000D02*
X166980000Y-80790000D01*
X162980000Y-80790000D02*
X158880000Y-80790000D01*
X162980000Y-68990000D02*
X158880000Y-68990000D01*
X158880000Y-68990000D02*
X158880000Y-80790000D01*
X157480000Y-71090000D02*
X157180000Y-70790000D01*
X157180000Y-70790000D02*
X157780000Y-70790000D01*
X157780000Y-70790000D02*
X157480000Y-71090000D01*
X171080000Y-68990000D02*
X171080000Y-71390000D01*
X171080000Y-73590000D02*
X171080000Y-76190000D01*
X171080000Y-78390000D02*
X171080000Y-80790000D01*
X164980000Y-74390000D02*
X164980000Y-75390000D01*
X164480000Y-74890000D02*
X165480000Y-74890000D01*
%TO.C,R29*%
X151664936Y-72871000D02*
X152119064Y-72871000D01*
X151664936Y-71401000D02*
X152119064Y-71401000D01*
%TO.C,R23*%
X151664936Y-70077000D02*
X152119064Y-70077000D01*
X151664936Y-68607000D02*
X152119064Y-68607000D01*
%TO.C,R12*%
X145769064Y-68607000D02*
X145314936Y-68607000D01*
X145769064Y-70077000D02*
X145314936Y-70077000D01*
%TO.C,R11*%
X145769064Y-71401000D02*
X145314936Y-71401000D01*
X145769064Y-72871000D02*
X145314936Y-72871000D01*
%TO.C,J7*%
X171012000Y-57715000D02*
X171012000Y-55315000D01*
X173412000Y-57715000D02*
X171012000Y-57715000D01*
X173412000Y-55315000D02*
X173412000Y-57715000D01*
X171012000Y-55315000D02*
X173412000Y-55315000D01*
%TO.C,C24*%
X113632064Y-76475000D02*
X112427936Y-76475000D01*
X113632064Y-74655000D02*
X112427936Y-74655000D01*
%TO.C,C23*%
X112427936Y-86085000D02*
X113632064Y-86085000D01*
X112427936Y-87905000D02*
X113632064Y-87905000D01*
%TO.C,U5*%
X116845000Y-69450000D02*
X116845000Y-68190000D01*
X116845000Y-62630000D02*
X116845000Y-63890000D01*
X113085000Y-69450000D02*
X116845000Y-69450000D01*
X110835000Y-62630000D02*
X116845000Y-62630000D01*
%TO.C,LED1*%
X132144000Y-93428500D02*
X132609000Y-93428500D01*
X129519000Y-93428500D02*
X129984000Y-93428500D01*
X132144429Y-88614021D02*
G75*
G02*
X132144000Y-93123184I-1080429J-2254479D01*
G01*
X129983571Y-88614021D02*
G75*
G03*
X129984000Y-93123184I1080429J-2254479D01*
G01*
X132144827Y-88080685D02*
G75*
G02*
X132608830Y-93428500I-1080827J-2787815D01*
G01*
X129983173Y-88080685D02*
G75*
G03*
X129519170Y-93428500I1080827J-2787815D01*
G01*
%TO.C,LED2*%
X165036000Y-88308500D02*
X164571000Y-88308500D01*
X167661000Y-88308500D02*
X167196000Y-88308500D01*
X165035571Y-93122979D02*
G75*
G02*
X165036000Y-88613816I1080429J2254479D01*
G01*
X167196429Y-93122979D02*
G75*
G03*
X167196000Y-88613816I-1080429J2254479D01*
G01*
X165035173Y-93656315D02*
G75*
G02*
X164571170Y-88308500I1080827J2787815D01*
G01*
X167196827Y-93656315D02*
G75*
G03*
X167660830Y-88308500I-1080827J2787815D01*
G01*
%TO.C,J3*%
X151571000Y-77229000D02*
X151571000Y-80759000D01*
X145101000Y-77229000D02*
X145101000Y-80759000D01*
X151506000Y-75904000D02*
X151506000Y-77229000D01*
X151571000Y-77229000D02*
X151506000Y-77229000D01*
X151571000Y-80759000D02*
X151506000Y-80759000D01*
X145166000Y-77229000D02*
X145101000Y-77229000D01*
X145166000Y-80759000D02*
X145101000Y-80759000D01*
%TO.C,U6*%
X181875000Y-112817000D02*
X180075000Y-112817000D01*
X180075000Y-116037000D02*
X182525000Y-116037000D01*
D14*
%TO.C,U3*%
X112750000Y-115925000D02*
X112750000Y-115750000D01*
X109500000Y-115925000D02*
X109500000Y-115650000D01*
X109500000Y-112675000D02*
X109500000Y-112950000D01*
X112750000Y-112675000D02*
X112750000Y-112950000D01*
X112750000Y-115925000D02*
X109500000Y-115925000D01*
X112750000Y-112675000D02*
X109500000Y-112675000D01*
X112750000Y-115750000D02*
X113825000Y-115750000D01*
D11*
%TO.C,U2*%
X193652500Y-121867500D02*
X193652500Y-123667500D01*
X196872500Y-123667500D02*
X196872500Y-121217500D01*
D14*
%TO.C,U1*%
X182334500Y-121755500D02*
X182334500Y-121930500D01*
X185584500Y-121755500D02*
X185584500Y-122030500D01*
X185584500Y-125005500D02*
X185584500Y-124730500D01*
X182334500Y-125005500D02*
X182334500Y-124730500D01*
X182334500Y-121755500D02*
X185584500Y-121755500D01*
X182334500Y-125005500D02*
X185584500Y-125005500D01*
X182334500Y-121930500D02*
X181259500Y-121930500D01*
%TO.C,SW4*%
X139235000Y-65532000D02*
X139235000Y-59436000D01*
X126789000Y-65532000D02*
X126789000Y-59436000D01*
X139997000Y-65786000D02*
X125773000Y-65786000D01*
X125773000Y-59182000D02*
X139997000Y-59182000D01*
%TO.C,SW3*%
X171115000Y-65532000D02*
X171115000Y-59436000D01*
X158669000Y-65532000D02*
X158669000Y-59436000D01*
X171877000Y-65786000D02*
X157653000Y-65786000D01*
X157653000Y-59182000D02*
X171877000Y-59182000D01*
D11*
%TO.C,SW2*%
X166878000Y-103438000D02*
X166878000Y-100778000D01*
X166878000Y-103438000D02*
X169478000Y-103438000D01*
X169478000Y-103438000D02*
X169478000Y-100778000D01*
X166878000Y-100778000D02*
X169478000Y-100778000D01*
X164278000Y-100778000D02*
X165608000Y-100778000D01*
X164278000Y-102108000D02*
X164278000Y-100778000D01*
%TO.C,SW1*%
X129921000Y-103438000D02*
X129921000Y-100778000D01*
X129921000Y-103438000D02*
X132521000Y-103438000D01*
X132521000Y-103438000D02*
X132521000Y-100778000D01*
X129921000Y-100778000D02*
X132521000Y-100778000D01*
X127321000Y-100778000D02*
X128651000Y-100778000D01*
X127321000Y-102108000D02*
X127321000Y-100778000D01*
%TO.C,R22*%
X161873000Y-92702748D02*
X161873000Y-93225252D01*
X160453000Y-92702748D02*
X160453000Y-93225252D01*
%TO.C,R21*%
X172077748Y-93397000D02*
X172600252Y-93397000D01*
X172077748Y-94817000D02*
X172600252Y-94817000D01*
%TO.C,R20*%
X172077748Y-86920000D02*
X172600252Y-86920000D01*
X172077748Y-88340000D02*
X172600252Y-88340000D01*
%TO.C,R19*%
X123959252Y-91388000D02*
X123436748Y-91388000D01*
X123959252Y-89968000D02*
X123436748Y-89968000D01*
%TO.C,R18*%
X125356252Y-88340000D02*
X124833748Y-88340000D01*
X125356252Y-86920000D02*
X124833748Y-86920000D01*
%TO.C,R17*%
X125229252Y-94690000D02*
X124706748Y-94690000D01*
X125229252Y-93270000D02*
X124706748Y-93270000D01*
%TO.C,R16*%
X143966000Y-62095748D02*
X143966000Y-62618252D01*
X142546000Y-62095748D02*
X142546000Y-62618252D01*
%TO.C,R15*%
X155015000Y-62095748D02*
X155015000Y-62618252D01*
X153595000Y-62095748D02*
X153595000Y-62618252D01*
%TO.C,R10*%
X161028748Y-101525000D02*
X161551252Y-101525000D01*
X161028748Y-102945000D02*
X161551252Y-102945000D01*
%TO.C,R9*%
X129913748Y-98096000D02*
X130436252Y-98096000D01*
X129913748Y-99516000D02*
X130436252Y-99516000D01*
%TO.C,R8*%
X181558000Y-108069748D02*
X181558000Y-108592252D01*
X180138000Y-108069748D02*
X180138000Y-108592252D01*
%TO.C,R7*%
X112470000Y-124198748D02*
X112470000Y-124721252D01*
X111050000Y-124198748D02*
X111050000Y-124721252D01*
%TO.C,R6*%
X99770000Y-119118748D02*
X99770000Y-119641252D01*
X98350000Y-119118748D02*
X98350000Y-119641252D01*
%TO.C,R5*%
X103430000Y-114561252D02*
X103430000Y-114038748D01*
X104850000Y-114561252D02*
X104850000Y-114038748D01*
%TO.C,R4*%
X193491752Y-113549500D02*
X192969248Y-113549500D01*
X193491752Y-112129500D02*
X192969248Y-112129500D01*
%TO.C,R3*%
X195001248Y-125845500D02*
X195523752Y-125845500D01*
X195001248Y-127265500D02*
X195523752Y-127265500D01*
%TO.C,R2*%
X189495500Y-112578248D02*
X189495500Y-113100752D01*
X188075500Y-112578248D02*
X188075500Y-113100752D01*
%TO.C,R1*%
X184900500Y-113100752D02*
X184900500Y-112578248D01*
X186320500Y-113100752D02*
X186320500Y-112578248D01*
%TO.C,L1*%
X138549748Y-99874000D02*
X139072252Y-99874000D01*
X138549748Y-101294000D02*
X139072252Y-101294000D01*
%TO.C,FB2*%
X108660000Y-119118748D02*
X108660000Y-119641252D01*
X107240000Y-119118748D02*
X107240000Y-119641252D01*
%TO.C,FB1*%
X197936752Y-116724500D02*
X197414248Y-116724500D01*
X197936752Y-115304500D02*
X197414248Y-115304500D01*
%TO.C,D1*%
X103546000Y-70469000D02*
X103546000Y-68469000D01*
X103546000Y-68469000D02*
X99696000Y-68469000D01*
X103546000Y-70469000D02*
X99696000Y-70469000D01*
%TO.C,C33*%
X156031000Y-90162748D02*
X156031000Y-90685252D01*
X154611000Y-90162748D02*
X154611000Y-90685252D01*
%TO.C,C30*%
X181558000Y-104005748D02*
X181558000Y-104528252D01*
X180138000Y-104005748D02*
X180138000Y-104528252D01*
%TO.C,C29*%
X112427936Y-70845000D02*
X113632064Y-70845000D01*
X112427936Y-72665000D02*
X113632064Y-72665000D01*
%TO.C,C28*%
X112427936Y-59415000D02*
X113632064Y-59415000D01*
X112427936Y-61235000D02*
X113632064Y-61235000D01*
%TO.C,C22*%
X150674000Y-108211252D02*
X150674000Y-107688748D01*
X152094000Y-108211252D02*
X152094000Y-107688748D01*
%TO.C,C21*%
X146864000Y-88399252D02*
X146864000Y-87876748D01*
X148284000Y-88399252D02*
X148284000Y-87876748D01*
%TO.C,C20*%
X146252000Y-107688748D02*
X146252000Y-108211252D01*
X144832000Y-107688748D02*
X144832000Y-108211252D01*
%TO.C,C19*%
X154126000Y-107688748D02*
X154126000Y-108211252D01*
X152706000Y-107688748D02*
X152706000Y-108211252D01*
%TO.C,C18*%
X144578000Y-88399252D02*
X144578000Y-87876748D01*
X145998000Y-88399252D02*
X145998000Y-87876748D01*
%TO.C,C17*%
X116280000Y-119118748D02*
X116280000Y-119641252D01*
X114860000Y-119118748D02*
X114860000Y-119641252D01*
%TO.C,C16*%
X112470000Y-119118748D02*
X112470000Y-119641252D01*
X111050000Y-119118748D02*
X111050000Y-119641252D01*
%TO.C,C15*%
X108660000Y-124198748D02*
X108660000Y-124721252D01*
X107240000Y-124198748D02*
X107240000Y-124721252D01*
%TO.C,C14*%
X99770000Y-114038748D02*
X99770000Y-114561252D01*
X98350000Y-114038748D02*
X98350000Y-114561252D01*
%TO.C,C12*%
X104850000Y-119118748D02*
X104850000Y-119641252D01*
X103430000Y-119118748D02*
X103430000Y-119641252D01*
%TO.C,C9*%
X197936752Y-110374500D02*
X197414248Y-110374500D01*
X197936752Y-108954500D02*
X197414248Y-108954500D01*
%TO.C,C8*%
X197936752Y-113549500D02*
X197414248Y-113549500D01*
X197936752Y-112129500D02*
X197414248Y-112129500D01*
%TO.C,C7*%
X193491752Y-116724500D02*
X192969248Y-116724500D01*
X193491752Y-115304500D02*
X192969248Y-115304500D01*
%TO.C,C6*%
X200417500Y-122230248D02*
X200417500Y-122752752D01*
X198997500Y-122230248D02*
X198997500Y-122752752D01*
%TO.C,C5*%
X189495500Y-117658248D02*
X189495500Y-118180752D01*
X188075500Y-117658248D02*
X188075500Y-118180752D01*
%TO.C,C4*%
X184900500Y-118180752D02*
X184900500Y-117658248D01*
X186320500Y-118180752D02*
X186320500Y-117658248D01*
%TO.C,C3*%
X180986500Y-127691248D02*
X180986500Y-128213752D01*
X179566500Y-127691248D02*
X179566500Y-128213752D01*
%TO.C,J6*%
D14*
X180133666Y-74636380D02*
X180133666Y-75350666D01*
X180086047Y-75493523D01*
X179990809Y-75588761D01*
X179847952Y-75636380D01*
X179752714Y-75636380D01*
X181038428Y-74636380D02*
X180847952Y-74636380D01*
X180752714Y-74684000D01*
X180705095Y-74731619D01*
X180609857Y-74874476D01*
X180562238Y-75064952D01*
X180562238Y-75445904D01*
X180609857Y-75541142D01*
X180657476Y-75588761D01*
X180752714Y-75636380D01*
X180943190Y-75636380D01*
X181038428Y-75588761D01*
X181086047Y-75541142D01*
X181133666Y-75445904D01*
X181133666Y-75207809D01*
X181086047Y-75112571D01*
X181038428Y-75064952D01*
X180943190Y-75017333D01*
X180752714Y-75017333D01*
X180657476Y-75064952D01*
X180609857Y-75112571D01*
X180562238Y-75207809D01*
X177371714Y-57427761D02*
X177514571Y-57475380D01*
X177752666Y-57475380D01*
X177847904Y-57427761D01*
X177895523Y-57380142D01*
X177943142Y-57284904D01*
X177943142Y-57189666D01*
X177895523Y-57094428D01*
X177847904Y-57046809D01*
X177752666Y-56999190D01*
X177562190Y-56951571D01*
X177466952Y-56903952D01*
X177419333Y-56856333D01*
X177371714Y-56761095D01*
X177371714Y-56665857D01*
X177419333Y-56570619D01*
X177466952Y-56523000D01*
X177562190Y-56475380D01*
X177800285Y-56475380D01*
X177943142Y-56523000D01*
X178371714Y-57475380D02*
X178371714Y-56475380D01*
X178609809Y-56475380D01*
X178752666Y-56523000D01*
X178847904Y-56618238D01*
X178895523Y-56713476D01*
X178943142Y-56903952D01*
X178943142Y-57046809D01*
X178895523Y-57237285D01*
X178847904Y-57332523D01*
X178752666Y-57427761D01*
X178609809Y-57475380D01*
X178371714Y-57475380D01*
X179943142Y-57380142D02*
X179895523Y-57427761D01*
X179752666Y-57475380D01*
X179657428Y-57475380D01*
X179514571Y-57427761D01*
X179419333Y-57332523D01*
X179371714Y-57237285D01*
X179324095Y-57046809D01*
X179324095Y-56903952D01*
X179371714Y-56713476D01*
X179419333Y-56618238D01*
X179514571Y-56523000D01*
X179657428Y-56475380D01*
X179752666Y-56475380D01*
X179895523Y-56523000D01*
X179943142Y-56570619D01*
X180324095Y-57189666D02*
X180800285Y-57189666D01*
X180228857Y-57475380D02*
X180562190Y-56475380D01*
X180895523Y-57475380D01*
X181800285Y-57475380D02*
X181466952Y-56999190D01*
X181228857Y-57475380D02*
X181228857Y-56475380D01*
X181609809Y-56475380D01*
X181705047Y-56523000D01*
X181752666Y-56570619D01*
X181800285Y-56665857D01*
X181800285Y-56808714D01*
X181752666Y-56903952D01*
X181705047Y-56951571D01*
X181609809Y-56999190D01*
X181228857Y-56999190D01*
X182228857Y-57475380D02*
X182228857Y-56475380D01*
X182466952Y-56475380D01*
X182609809Y-56523000D01*
X182705047Y-56618238D01*
X182752666Y-56713476D01*
X182800285Y-56903952D01*
X182800285Y-57046809D01*
X182752666Y-57237285D01*
X182705047Y-57332523D01*
X182609809Y-57427761D01*
X182466952Y-57475380D01*
X182228857Y-57475380D01*
%TO.C,U4*%
X108458095Y-80732380D02*
X108458095Y-81541904D01*
X108505714Y-81637142D01*
X108553333Y-81684761D01*
X108648571Y-81732380D01*
X108839047Y-81732380D01*
X108934285Y-81684761D01*
X108981904Y-81637142D01*
X109029523Y-81541904D01*
X109029523Y-80732380D01*
X109934285Y-81065714D02*
X109934285Y-81732380D01*
X109696190Y-80684761D02*
X109458095Y-81399047D01*
X110077142Y-81399047D01*
%TO.C,U7*%
X140970095Y-102830380D02*
X140970095Y-103639904D01*
X141017714Y-103735142D01*
X141065333Y-103782761D01*
X141160571Y-103830380D01*
X141351047Y-103830380D01*
X141446285Y-103782761D01*
X141493904Y-103735142D01*
X141541523Y-103639904D01*
X141541523Y-102830380D01*
X141922476Y-102830380D02*
X142589142Y-102830380D01*
X142160571Y-103830380D01*
%TO.C,SW6*%
X136144166Y-68603761D02*
X136287023Y-68651380D01*
X136525119Y-68651380D01*
X136620357Y-68603761D01*
X136667976Y-68556142D01*
X136715595Y-68460904D01*
X136715595Y-68365666D01*
X136667976Y-68270428D01*
X136620357Y-68222809D01*
X136525119Y-68175190D01*
X136334642Y-68127571D01*
X136239404Y-68079952D01*
X136191785Y-68032333D01*
X136144166Y-67937095D01*
X136144166Y-67841857D01*
X136191785Y-67746619D01*
X136239404Y-67699000D01*
X136334642Y-67651380D01*
X136572738Y-67651380D01*
X136715595Y-67699000D01*
X137048928Y-67651380D02*
X137287023Y-68651380D01*
X137477500Y-67937095D01*
X137667976Y-68651380D01*
X137906071Y-67651380D01*
X138715595Y-67651380D02*
X138525119Y-67651380D01*
X138429880Y-67699000D01*
X138382261Y-67746619D01*
X138287023Y-67889476D01*
X138239404Y-68079952D01*
X138239404Y-68460904D01*
X138287023Y-68556142D01*
X138334642Y-68603761D01*
X138429880Y-68651380D01*
X138620357Y-68651380D01*
X138715595Y-68603761D01*
X138763214Y-68556142D01*
X138810833Y-68460904D01*
X138810833Y-68222809D01*
X138763214Y-68127571D01*
X138715595Y-68079952D01*
X138620357Y-68032333D01*
X138429880Y-68032333D01*
X138334642Y-68079952D01*
X138287023Y-68127571D01*
X138239404Y-68222809D01*
%TO.C,SW5*%
X159004166Y-68540261D02*
X159147023Y-68587880D01*
X159385119Y-68587880D01*
X159480357Y-68540261D01*
X159527976Y-68492642D01*
X159575595Y-68397404D01*
X159575595Y-68302166D01*
X159527976Y-68206928D01*
X159480357Y-68159309D01*
X159385119Y-68111690D01*
X159194642Y-68064071D01*
X159099404Y-68016452D01*
X159051785Y-67968833D01*
X159004166Y-67873595D01*
X159004166Y-67778357D01*
X159051785Y-67683119D01*
X159099404Y-67635500D01*
X159194642Y-67587880D01*
X159432738Y-67587880D01*
X159575595Y-67635500D01*
X159908928Y-67587880D02*
X160147023Y-68587880D01*
X160337500Y-67873595D01*
X160527976Y-68587880D01*
X160766071Y-67587880D01*
X161623214Y-67587880D02*
X161147023Y-67587880D01*
X161099404Y-68064071D01*
X161147023Y-68016452D01*
X161242261Y-67968833D01*
X161480357Y-67968833D01*
X161575595Y-68016452D01*
X161623214Y-68064071D01*
X161670833Y-68159309D01*
X161670833Y-68397404D01*
X161623214Y-68492642D01*
X161575595Y-68540261D01*
X161480357Y-68587880D01*
X161242261Y-68587880D01*
X161147023Y-68540261D01*
X161099404Y-68492642D01*
%TO.C,R29*%
X151249142Y-74302880D02*
X150915809Y-73826690D01*
X150677714Y-74302880D02*
X150677714Y-73302880D01*
X151058666Y-73302880D01*
X151153904Y-73350500D01*
X151201523Y-73398119D01*
X151249142Y-73493357D01*
X151249142Y-73636214D01*
X151201523Y-73731452D01*
X151153904Y-73779071D01*
X151058666Y-73826690D01*
X150677714Y-73826690D01*
X151630095Y-73398119D02*
X151677714Y-73350500D01*
X151772952Y-73302880D01*
X152011047Y-73302880D01*
X152106285Y-73350500D01*
X152153904Y-73398119D01*
X152201523Y-73493357D01*
X152201523Y-73588595D01*
X152153904Y-73731452D01*
X151582476Y-74302880D01*
X152201523Y-74302880D01*
X152677714Y-74302880D02*
X152868190Y-74302880D01*
X152963428Y-74255261D01*
X153011047Y-74207642D01*
X153106285Y-74064785D01*
X153153904Y-73874309D01*
X153153904Y-73493357D01*
X153106285Y-73398119D01*
X153058666Y-73350500D01*
X152963428Y-73302880D01*
X152772952Y-73302880D01*
X152677714Y-73350500D01*
X152630095Y-73398119D01*
X152582476Y-73493357D01*
X152582476Y-73731452D01*
X152630095Y-73826690D01*
X152677714Y-73874309D01*
X152772952Y-73921928D01*
X152963428Y-73921928D01*
X153058666Y-73874309D01*
X153106285Y-73826690D01*
X153153904Y-73731452D01*
%TO.C,R23*%
X151249142Y-68016380D02*
X150915809Y-67540190D01*
X150677714Y-68016380D02*
X150677714Y-67016380D01*
X151058666Y-67016380D01*
X151153904Y-67064000D01*
X151201523Y-67111619D01*
X151249142Y-67206857D01*
X151249142Y-67349714D01*
X151201523Y-67444952D01*
X151153904Y-67492571D01*
X151058666Y-67540190D01*
X150677714Y-67540190D01*
X151630095Y-67111619D02*
X151677714Y-67064000D01*
X151772952Y-67016380D01*
X152011047Y-67016380D01*
X152106285Y-67064000D01*
X152153904Y-67111619D01*
X152201523Y-67206857D01*
X152201523Y-67302095D01*
X152153904Y-67444952D01*
X151582476Y-68016380D01*
X152201523Y-68016380D01*
X152534857Y-67016380D02*
X153153904Y-67016380D01*
X152820571Y-67397333D01*
X152963428Y-67397333D01*
X153058666Y-67444952D01*
X153106285Y-67492571D01*
X153153904Y-67587809D01*
X153153904Y-67825904D01*
X153106285Y-67921142D01*
X153058666Y-67968761D01*
X152963428Y-68016380D01*
X152677714Y-68016380D01*
X152582476Y-67968761D01*
X152534857Y-67921142D01*
%TO.C,R12*%
X144899142Y-68016380D02*
X144565809Y-67540190D01*
X144327714Y-68016380D02*
X144327714Y-67016380D01*
X144708666Y-67016380D01*
X144803904Y-67064000D01*
X144851523Y-67111619D01*
X144899142Y-67206857D01*
X144899142Y-67349714D01*
X144851523Y-67444952D01*
X144803904Y-67492571D01*
X144708666Y-67540190D01*
X144327714Y-67540190D01*
X145851523Y-68016380D02*
X145280095Y-68016380D01*
X145565809Y-68016380D02*
X145565809Y-67016380D01*
X145470571Y-67159238D01*
X145375333Y-67254476D01*
X145280095Y-67302095D01*
X146232476Y-67111619D02*
X146280095Y-67064000D01*
X146375333Y-67016380D01*
X146613428Y-67016380D01*
X146708666Y-67064000D01*
X146756285Y-67111619D01*
X146803904Y-67206857D01*
X146803904Y-67302095D01*
X146756285Y-67444952D01*
X146184857Y-68016380D01*
X146803904Y-68016380D01*
%TO.C,R11*%
X144899142Y-74302880D02*
X144565809Y-73826690D01*
X144327714Y-74302880D02*
X144327714Y-73302880D01*
X144708666Y-73302880D01*
X144803904Y-73350500D01*
X144851523Y-73398119D01*
X144899142Y-73493357D01*
X144899142Y-73636214D01*
X144851523Y-73731452D01*
X144803904Y-73779071D01*
X144708666Y-73826690D01*
X144327714Y-73826690D01*
X145851523Y-74302880D02*
X145280095Y-74302880D01*
X145565809Y-74302880D02*
X145565809Y-73302880D01*
X145470571Y-73445738D01*
X145375333Y-73540976D01*
X145280095Y-73588595D01*
X146803904Y-74302880D02*
X146232476Y-74302880D01*
X146518190Y-74302880D02*
X146518190Y-73302880D01*
X146422952Y-73445738D01*
X146327714Y-73540976D01*
X146232476Y-73588595D01*
%TO.C,J7*%
X169211666Y-55840380D02*
X169211666Y-56554666D01*
X169164047Y-56697523D01*
X169068809Y-56792761D01*
X168925952Y-56840380D01*
X168830714Y-56840380D01*
X169592619Y-55840380D02*
X170259285Y-55840380D01*
X169830714Y-56840380D01*
%TO.C,C24*%
X107942142Y-75922142D02*
X107894523Y-75969761D01*
X107751666Y-76017380D01*
X107656428Y-76017380D01*
X107513571Y-75969761D01*
X107418333Y-75874523D01*
X107370714Y-75779285D01*
X107323095Y-75588809D01*
X107323095Y-75445952D01*
X107370714Y-75255476D01*
X107418333Y-75160238D01*
X107513571Y-75065000D01*
X107656428Y-75017380D01*
X107751666Y-75017380D01*
X107894523Y-75065000D01*
X107942142Y-75112619D01*
X108323095Y-75112619D02*
X108370714Y-75065000D01*
X108465952Y-75017380D01*
X108704047Y-75017380D01*
X108799285Y-75065000D01*
X108846904Y-75112619D01*
X108894523Y-75207857D01*
X108894523Y-75303095D01*
X108846904Y-75445952D01*
X108275476Y-76017380D01*
X108894523Y-76017380D01*
X109751666Y-75350714D02*
X109751666Y-76017380D01*
X109513571Y-74969761D02*
X109275476Y-75684047D01*
X109894523Y-75684047D01*
%TO.C,C23*%
X107942142Y-87352142D02*
X107894523Y-87399761D01*
X107751666Y-87447380D01*
X107656428Y-87447380D01*
X107513571Y-87399761D01*
X107418333Y-87304523D01*
X107370714Y-87209285D01*
X107323095Y-87018809D01*
X107323095Y-86875952D01*
X107370714Y-86685476D01*
X107418333Y-86590238D01*
X107513571Y-86495000D01*
X107656428Y-86447380D01*
X107751666Y-86447380D01*
X107894523Y-86495000D01*
X107942142Y-86542619D01*
X108323095Y-86542619D02*
X108370714Y-86495000D01*
X108465952Y-86447380D01*
X108704047Y-86447380D01*
X108799285Y-86495000D01*
X108846904Y-86542619D01*
X108894523Y-86637857D01*
X108894523Y-86733095D01*
X108846904Y-86875952D01*
X108275476Y-87447380D01*
X108894523Y-87447380D01*
X109227857Y-86447380D02*
X109846904Y-86447380D01*
X109513571Y-86828333D01*
X109656428Y-86828333D01*
X109751666Y-86875952D01*
X109799285Y-86923571D01*
X109846904Y-87018809D01*
X109846904Y-87256904D01*
X109799285Y-87352142D01*
X109751666Y-87399761D01*
X109656428Y-87447380D01*
X109370714Y-87447380D01*
X109275476Y-87399761D01*
X109227857Y-87352142D01*
%TO.C,U5*%
X108458095Y-65492380D02*
X108458095Y-66301904D01*
X108505714Y-66397142D01*
X108553333Y-66444761D01*
X108648571Y-66492380D01*
X108839047Y-66492380D01*
X108934285Y-66444761D01*
X108981904Y-66397142D01*
X109029523Y-66301904D01*
X109029523Y-65492380D01*
X109981904Y-65492380D02*
X109505714Y-65492380D01*
X109458095Y-65968571D01*
X109505714Y-65920952D01*
X109600952Y-65873333D01*
X109839047Y-65873333D01*
X109934285Y-65920952D01*
X109981904Y-65968571D01*
X110029523Y-66063809D01*
X110029523Y-66301904D01*
X109981904Y-66397142D01*
X109934285Y-66444761D01*
X109839047Y-66492380D01*
X109600952Y-66492380D01*
X109505714Y-66444761D01*
X109458095Y-66397142D01*
%TO.C,LED1*%
X130198952Y-85923380D02*
X129722761Y-85923380D01*
X129722761Y-84923380D01*
X130532285Y-85399571D02*
X130865619Y-85399571D01*
X131008476Y-85923380D02*
X130532285Y-85923380D01*
X130532285Y-84923380D01*
X131008476Y-84923380D01*
X131437047Y-85923380D02*
X131437047Y-84923380D01*
X131675142Y-84923380D01*
X131818000Y-84971000D01*
X131913238Y-85066238D01*
X131960857Y-85161476D01*
X132008476Y-85351952D01*
X132008476Y-85494809D01*
X131960857Y-85685285D01*
X131913238Y-85780523D01*
X131818000Y-85875761D01*
X131675142Y-85923380D01*
X131437047Y-85923380D01*
X132960857Y-85923380D02*
X132389428Y-85923380D01*
X132675142Y-85923380D02*
X132675142Y-84923380D01*
X132579904Y-85066238D01*
X132484666Y-85161476D01*
X132389428Y-85209095D01*
%TO.C,LED2*%
X164996952Y-85923380D02*
X164520761Y-85923380D01*
X164520761Y-84923380D01*
X165330285Y-85399571D02*
X165663619Y-85399571D01*
X165806476Y-85923380D02*
X165330285Y-85923380D01*
X165330285Y-84923380D01*
X165806476Y-84923380D01*
X166235047Y-85923380D02*
X166235047Y-84923380D01*
X166473142Y-84923380D01*
X166616000Y-84971000D01*
X166711238Y-85066238D01*
X166758857Y-85161476D01*
X166806476Y-85351952D01*
X166806476Y-85494809D01*
X166758857Y-85685285D01*
X166711238Y-85780523D01*
X166616000Y-85875761D01*
X166473142Y-85923380D01*
X166235047Y-85923380D01*
X167187428Y-85018619D02*
X167235047Y-84971000D01*
X167330285Y-84923380D01*
X167568380Y-84923380D01*
X167663619Y-84971000D01*
X167711238Y-85018619D01*
X167758857Y-85113857D01*
X167758857Y-85209095D01*
X167711238Y-85351952D01*
X167139809Y-85923380D01*
X167758857Y-85923380D01*
%TO.C,U6*%
X180213095Y-116673380D02*
X180213095Y-117482904D01*
X180260714Y-117578142D01*
X180308333Y-117625761D01*
X180403571Y-117673380D01*
X180594047Y-117673380D01*
X180689285Y-117625761D01*
X180736904Y-117578142D01*
X180784523Y-117482904D01*
X180784523Y-116673380D01*
X181689285Y-116673380D02*
X181498809Y-116673380D01*
X181403571Y-116721000D01*
X181355952Y-116768619D01*
X181260714Y-116911476D01*
X181213095Y-117101952D01*
X181213095Y-117482904D01*
X181260714Y-117578142D01*
X181308333Y-117625761D01*
X181403571Y-117673380D01*
X181594047Y-117673380D01*
X181689285Y-117625761D01*
X181736904Y-117578142D01*
X181784523Y-117482904D01*
X181784523Y-117244809D01*
X181736904Y-117149571D01*
X181689285Y-117101952D01*
X181594047Y-117054333D01*
X181403571Y-117054333D01*
X181308333Y-117101952D01*
X181260714Y-117149571D01*
X181213095Y-117244809D01*
%TO.C,U3*%
X110363095Y-111085380D02*
X110363095Y-111894904D01*
X110410714Y-111990142D01*
X110458333Y-112037761D01*
X110553571Y-112085380D01*
X110744047Y-112085380D01*
X110839285Y-112037761D01*
X110886904Y-111990142D01*
X110934523Y-111894904D01*
X110934523Y-111085380D01*
X111315476Y-111085380D02*
X111934523Y-111085380D01*
X111601190Y-111466333D01*
X111744047Y-111466333D01*
X111839285Y-111513952D01*
X111886904Y-111561571D01*
X111934523Y-111656809D01*
X111934523Y-111894904D01*
X111886904Y-111990142D01*
X111839285Y-112037761D01*
X111744047Y-112085380D01*
X111458333Y-112085380D01*
X111363095Y-112037761D01*
X111315476Y-111990142D01*
%TO.C,U2*%
X194373595Y-119149880D02*
X194373595Y-119959404D01*
X194421214Y-120054642D01*
X194468833Y-120102261D01*
X194564071Y-120149880D01*
X194754547Y-120149880D01*
X194849785Y-120102261D01*
X194897404Y-120054642D01*
X194945023Y-119959404D01*
X194945023Y-119149880D01*
X195373595Y-119245119D02*
X195421214Y-119197500D01*
X195516452Y-119149880D01*
X195754547Y-119149880D01*
X195849785Y-119197500D01*
X195897404Y-119245119D01*
X195945023Y-119340357D01*
X195945023Y-119435595D01*
X195897404Y-119578452D01*
X195325976Y-120149880D01*
X195945023Y-120149880D01*
%TO.C,U1*%
X183197595Y-125626880D02*
X183197595Y-126436404D01*
X183245214Y-126531642D01*
X183292833Y-126579261D01*
X183388071Y-126626880D01*
X183578547Y-126626880D01*
X183673785Y-126579261D01*
X183721404Y-126531642D01*
X183769023Y-126436404D01*
X183769023Y-125626880D01*
X184769023Y-126626880D02*
X184197595Y-126626880D01*
X184483309Y-126626880D02*
X184483309Y-125626880D01*
X184388071Y-125769738D01*
X184292833Y-125864976D01*
X184197595Y-125912595D01*
%TO.C,SW4*%
X131635666Y-58697761D02*
X131778523Y-58745380D01*
X132016619Y-58745380D01*
X132111857Y-58697761D01*
X132159476Y-58650142D01*
X132207095Y-58554904D01*
X132207095Y-58459666D01*
X132159476Y-58364428D01*
X132111857Y-58316809D01*
X132016619Y-58269190D01*
X131826142Y-58221571D01*
X131730904Y-58173952D01*
X131683285Y-58126333D01*
X131635666Y-58031095D01*
X131635666Y-57935857D01*
X131683285Y-57840619D01*
X131730904Y-57793000D01*
X131826142Y-57745380D01*
X132064238Y-57745380D01*
X132207095Y-57793000D01*
X132540428Y-57745380D02*
X132778523Y-58745380D01*
X132969000Y-58031095D01*
X133159476Y-58745380D01*
X133397571Y-57745380D01*
X134207095Y-58078714D02*
X134207095Y-58745380D01*
X133969000Y-57697761D02*
X133730904Y-58412047D01*
X134349952Y-58412047D01*
%TO.C,SW3*%
X164147666Y-58570761D02*
X164290523Y-58618380D01*
X164528619Y-58618380D01*
X164623857Y-58570761D01*
X164671476Y-58523142D01*
X164719095Y-58427904D01*
X164719095Y-58332666D01*
X164671476Y-58237428D01*
X164623857Y-58189809D01*
X164528619Y-58142190D01*
X164338142Y-58094571D01*
X164242904Y-58046952D01*
X164195285Y-57999333D01*
X164147666Y-57904095D01*
X164147666Y-57808857D01*
X164195285Y-57713619D01*
X164242904Y-57666000D01*
X164338142Y-57618380D01*
X164576238Y-57618380D01*
X164719095Y-57666000D01*
X165052428Y-57618380D02*
X165290523Y-58618380D01*
X165481000Y-57904095D01*
X165671476Y-58618380D01*
X165909571Y-57618380D01*
X166195285Y-57618380D02*
X166814333Y-57618380D01*
X166481000Y-57999333D01*
X166623857Y-57999333D01*
X166719095Y-58046952D01*
X166766714Y-58094571D01*
X166814333Y-58189809D01*
X166814333Y-58427904D01*
X166766714Y-58523142D01*
X166719095Y-58570761D01*
X166623857Y-58618380D01*
X166338142Y-58618380D01*
X166242904Y-58570761D01*
X166195285Y-58523142D01*
%TO.C,SW2*%
X170116666Y-102512761D02*
X170259523Y-102560380D01*
X170497619Y-102560380D01*
X170592857Y-102512761D01*
X170640476Y-102465142D01*
X170688095Y-102369904D01*
X170688095Y-102274666D01*
X170640476Y-102179428D01*
X170592857Y-102131809D01*
X170497619Y-102084190D01*
X170307142Y-102036571D01*
X170211904Y-101988952D01*
X170164285Y-101941333D01*
X170116666Y-101846095D01*
X170116666Y-101750857D01*
X170164285Y-101655619D01*
X170211904Y-101608000D01*
X170307142Y-101560380D01*
X170545238Y-101560380D01*
X170688095Y-101608000D01*
X171021428Y-101560380D02*
X171259523Y-102560380D01*
X171450000Y-101846095D01*
X171640476Y-102560380D01*
X171878571Y-101560380D01*
X172211904Y-101655619D02*
X172259523Y-101608000D01*
X172354761Y-101560380D01*
X172592857Y-101560380D01*
X172688095Y-101608000D01*
X172735714Y-101655619D01*
X172783333Y-101750857D01*
X172783333Y-101846095D01*
X172735714Y-101988952D01*
X172164285Y-102560380D01*
X172783333Y-102560380D01*
%TO.C,SW1*%
X123507666Y-102512761D02*
X123650523Y-102560380D01*
X123888619Y-102560380D01*
X123983857Y-102512761D01*
X124031476Y-102465142D01*
X124079095Y-102369904D01*
X124079095Y-102274666D01*
X124031476Y-102179428D01*
X123983857Y-102131809D01*
X123888619Y-102084190D01*
X123698142Y-102036571D01*
X123602904Y-101988952D01*
X123555285Y-101941333D01*
X123507666Y-101846095D01*
X123507666Y-101750857D01*
X123555285Y-101655619D01*
X123602904Y-101608000D01*
X123698142Y-101560380D01*
X123936238Y-101560380D01*
X124079095Y-101608000D01*
X124412428Y-101560380D02*
X124650523Y-102560380D01*
X124841000Y-101846095D01*
X125031476Y-102560380D01*
X125269571Y-101560380D01*
X126174333Y-102560380D02*
X125602904Y-102560380D01*
X125888619Y-102560380D02*
X125888619Y-101560380D01*
X125793380Y-101703238D01*
X125698142Y-101798476D01*
X125602904Y-101846095D01*
%TO.C,R22*%
X160012142Y-96337380D02*
X159678809Y-95861190D01*
X159440714Y-96337380D02*
X159440714Y-95337380D01*
X159821666Y-95337380D01*
X159916904Y-95385000D01*
X159964523Y-95432619D01*
X160012142Y-95527857D01*
X160012142Y-95670714D01*
X159964523Y-95765952D01*
X159916904Y-95813571D01*
X159821666Y-95861190D01*
X159440714Y-95861190D01*
X160393095Y-95432619D02*
X160440714Y-95385000D01*
X160535952Y-95337380D01*
X160774047Y-95337380D01*
X160869285Y-95385000D01*
X160916904Y-95432619D01*
X160964523Y-95527857D01*
X160964523Y-95623095D01*
X160916904Y-95765952D01*
X160345476Y-96337380D01*
X160964523Y-96337380D01*
X161345476Y-95432619D02*
X161393095Y-95385000D01*
X161488333Y-95337380D01*
X161726428Y-95337380D01*
X161821666Y-95385000D01*
X161869285Y-95432619D01*
X161916904Y-95527857D01*
X161916904Y-95623095D01*
X161869285Y-95765952D01*
X161297857Y-96337380D01*
X161916904Y-96337380D01*
%TO.C,R21*%
X175760142Y-94559380D02*
X175426809Y-94083190D01*
X175188714Y-94559380D02*
X175188714Y-93559380D01*
X175569666Y-93559380D01*
X175664904Y-93607000D01*
X175712523Y-93654619D01*
X175760142Y-93749857D01*
X175760142Y-93892714D01*
X175712523Y-93987952D01*
X175664904Y-94035571D01*
X175569666Y-94083190D01*
X175188714Y-94083190D01*
X176141095Y-93654619D02*
X176188714Y-93607000D01*
X176283952Y-93559380D01*
X176522047Y-93559380D01*
X176617285Y-93607000D01*
X176664904Y-93654619D01*
X176712523Y-93749857D01*
X176712523Y-93845095D01*
X176664904Y-93987952D01*
X176093476Y-94559380D01*
X176712523Y-94559380D01*
X177664904Y-94559380D02*
X177093476Y-94559380D01*
X177379190Y-94559380D02*
X177379190Y-93559380D01*
X177283952Y-93702238D01*
X177188714Y-93797476D01*
X177093476Y-93845095D01*
%TO.C,R20*%
X175760142Y-88082380D02*
X175426809Y-87606190D01*
X175188714Y-88082380D02*
X175188714Y-87082380D01*
X175569666Y-87082380D01*
X175664904Y-87130000D01*
X175712523Y-87177619D01*
X175760142Y-87272857D01*
X175760142Y-87415714D01*
X175712523Y-87510952D01*
X175664904Y-87558571D01*
X175569666Y-87606190D01*
X175188714Y-87606190D01*
X176141095Y-87177619D02*
X176188714Y-87130000D01*
X176283952Y-87082380D01*
X176522047Y-87082380D01*
X176617285Y-87130000D01*
X176664904Y-87177619D01*
X176712523Y-87272857D01*
X176712523Y-87368095D01*
X176664904Y-87510952D01*
X176093476Y-88082380D01*
X176712523Y-88082380D01*
X177331571Y-87082380D02*
X177426809Y-87082380D01*
X177522047Y-87130000D01*
X177569666Y-87177619D01*
X177617285Y-87272857D01*
X177664904Y-87463333D01*
X177664904Y-87701428D01*
X177617285Y-87891904D01*
X177569666Y-87987142D01*
X177522047Y-88034761D01*
X177426809Y-88082380D01*
X177331571Y-88082380D01*
X177236333Y-88034761D01*
X177188714Y-87987142D01*
X177141095Y-87891904D01*
X177093476Y-87701428D01*
X177093476Y-87463333D01*
X177141095Y-87272857D01*
X177188714Y-87177619D01*
X177236333Y-87130000D01*
X177331571Y-87082380D01*
%TO.C,R19*%
X119245142Y-91130380D02*
X118911809Y-90654190D01*
X118673714Y-91130380D02*
X118673714Y-90130380D01*
X119054666Y-90130380D01*
X119149904Y-90178000D01*
X119197523Y-90225619D01*
X119245142Y-90320857D01*
X119245142Y-90463714D01*
X119197523Y-90558952D01*
X119149904Y-90606571D01*
X119054666Y-90654190D01*
X118673714Y-90654190D01*
X120197523Y-91130380D02*
X119626095Y-91130380D01*
X119911809Y-91130380D02*
X119911809Y-90130380D01*
X119816571Y-90273238D01*
X119721333Y-90368476D01*
X119626095Y-90416095D01*
X120673714Y-91130380D02*
X120864190Y-91130380D01*
X120959428Y-91082761D01*
X121007047Y-91035142D01*
X121102285Y-90892285D01*
X121149904Y-90701809D01*
X121149904Y-90320857D01*
X121102285Y-90225619D01*
X121054666Y-90178000D01*
X120959428Y-90130380D01*
X120768952Y-90130380D01*
X120673714Y-90178000D01*
X120626095Y-90225619D01*
X120578476Y-90320857D01*
X120578476Y-90558952D01*
X120626095Y-90654190D01*
X120673714Y-90701809D01*
X120768952Y-90749428D01*
X120959428Y-90749428D01*
X121054666Y-90701809D01*
X121102285Y-90654190D01*
X121149904Y-90558952D01*
%TO.C,R18*%
X124833142Y-86177380D02*
X124499809Y-85701190D01*
X124261714Y-86177380D02*
X124261714Y-85177380D01*
X124642666Y-85177380D01*
X124737904Y-85225000D01*
X124785523Y-85272619D01*
X124833142Y-85367857D01*
X124833142Y-85510714D01*
X124785523Y-85605952D01*
X124737904Y-85653571D01*
X124642666Y-85701190D01*
X124261714Y-85701190D01*
X125785523Y-86177380D02*
X125214095Y-86177380D01*
X125499809Y-86177380D02*
X125499809Y-85177380D01*
X125404571Y-85320238D01*
X125309333Y-85415476D01*
X125214095Y-85463095D01*
X126356952Y-85605952D02*
X126261714Y-85558333D01*
X126214095Y-85510714D01*
X126166476Y-85415476D01*
X126166476Y-85367857D01*
X126214095Y-85272619D01*
X126261714Y-85225000D01*
X126356952Y-85177380D01*
X126547428Y-85177380D01*
X126642666Y-85225000D01*
X126690285Y-85272619D01*
X126737904Y-85367857D01*
X126737904Y-85415476D01*
X126690285Y-85510714D01*
X126642666Y-85558333D01*
X126547428Y-85605952D01*
X126356952Y-85605952D01*
X126261714Y-85653571D01*
X126214095Y-85701190D01*
X126166476Y-85796428D01*
X126166476Y-85986904D01*
X126214095Y-86082142D01*
X126261714Y-86129761D01*
X126356952Y-86177380D01*
X126547428Y-86177380D01*
X126642666Y-86129761D01*
X126690285Y-86082142D01*
X126737904Y-85986904D01*
X126737904Y-85796428D01*
X126690285Y-85701190D01*
X126642666Y-85653571D01*
X126547428Y-85605952D01*
%TO.C,R17*%
X120515142Y-94432380D02*
X120181809Y-93956190D01*
X119943714Y-94432380D02*
X119943714Y-93432380D01*
X120324666Y-93432380D01*
X120419904Y-93480000D01*
X120467523Y-93527619D01*
X120515142Y-93622857D01*
X120515142Y-93765714D01*
X120467523Y-93860952D01*
X120419904Y-93908571D01*
X120324666Y-93956190D01*
X119943714Y-93956190D01*
X121467523Y-94432380D02*
X120896095Y-94432380D01*
X121181809Y-94432380D02*
X121181809Y-93432380D01*
X121086571Y-93575238D01*
X120991333Y-93670476D01*
X120896095Y-93718095D01*
X121800857Y-93432380D02*
X122467523Y-93432380D01*
X122038952Y-94432380D01*
%TO.C,R16*%
X142613142Y-65730380D02*
X142279809Y-65254190D01*
X142041714Y-65730380D02*
X142041714Y-64730380D01*
X142422666Y-64730380D01*
X142517904Y-64778000D01*
X142565523Y-64825619D01*
X142613142Y-64920857D01*
X142613142Y-65063714D01*
X142565523Y-65158952D01*
X142517904Y-65206571D01*
X142422666Y-65254190D01*
X142041714Y-65254190D01*
X143565523Y-65730380D02*
X142994095Y-65730380D01*
X143279809Y-65730380D02*
X143279809Y-64730380D01*
X143184571Y-64873238D01*
X143089333Y-64968476D01*
X142994095Y-65016095D01*
X144422666Y-64730380D02*
X144232190Y-64730380D01*
X144136952Y-64778000D01*
X144089333Y-64825619D01*
X143994095Y-64968476D01*
X143946476Y-65158952D01*
X143946476Y-65539904D01*
X143994095Y-65635142D01*
X144041714Y-65682761D01*
X144136952Y-65730380D01*
X144327428Y-65730380D01*
X144422666Y-65682761D01*
X144470285Y-65635142D01*
X144517904Y-65539904D01*
X144517904Y-65301809D01*
X144470285Y-65206571D01*
X144422666Y-65158952D01*
X144327428Y-65111333D01*
X144136952Y-65111333D01*
X144041714Y-65158952D01*
X143994095Y-65206571D01*
X143946476Y-65301809D01*
%TO.C,R15*%
X153662142Y-65603380D02*
X153328809Y-65127190D01*
X153090714Y-65603380D02*
X153090714Y-64603380D01*
X153471666Y-64603380D01*
X153566904Y-64651000D01*
X153614523Y-64698619D01*
X153662142Y-64793857D01*
X153662142Y-64936714D01*
X153614523Y-65031952D01*
X153566904Y-65079571D01*
X153471666Y-65127190D01*
X153090714Y-65127190D01*
X154614523Y-65603380D02*
X154043095Y-65603380D01*
X154328809Y-65603380D02*
X154328809Y-64603380D01*
X154233571Y-64746238D01*
X154138333Y-64841476D01*
X154043095Y-64889095D01*
X155519285Y-64603380D02*
X155043095Y-64603380D01*
X154995476Y-65079571D01*
X155043095Y-65031952D01*
X155138333Y-64984333D01*
X155376428Y-64984333D01*
X155471666Y-65031952D01*
X155519285Y-65079571D01*
X155566904Y-65174809D01*
X155566904Y-65412904D01*
X155519285Y-65508142D01*
X155471666Y-65555761D01*
X155376428Y-65603380D01*
X155138333Y-65603380D01*
X155043095Y-65555761D01*
X154995476Y-65508142D01*
%TO.C,R10*%
X160647142Y-101037380D02*
X160313809Y-100561190D01*
X160075714Y-101037380D02*
X160075714Y-100037380D01*
X160456666Y-100037380D01*
X160551904Y-100085000D01*
X160599523Y-100132619D01*
X160647142Y-100227857D01*
X160647142Y-100370714D01*
X160599523Y-100465952D01*
X160551904Y-100513571D01*
X160456666Y-100561190D01*
X160075714Y-100561190D01*
X161599523Y-101037380D02*
X161028095Y-101037380D01*
X161313809Y-101037380D02*
X161313809Y-100037380D01*
X161218571Y-100180238D01*
X161123333Y-100275476D01*
X161028095Y-100323095D01*
X162218571Y-100037380D02*
X162313809Y-100037380D01*
X162409047Y-100085000D01*
X162456666Y-100132619D01*
X162504285Y-100227857D01*
X162551904Y-100418333D01*
X162551904Y-100656428D01*
X162504285Y-100846904D01*
X162456666Y-100942142D01*
X162409047Y-100989761D01*
X162313809Y-101037380D01*
X162218571Y-101037380D01*
X162123333Y-100989761D01*
X162075714Y-100942142D01*
X162028095Y-100846904D01*
X161980476Y-100656428D01*
X161980476Y-100418333D01*
X162028095Y-100227857D01*
X162075714Y-100132619D01*
X162123333Y-100085000D01*
X162218571Y-100037380D01*
%TO.C,R9*%
X130008333Y-97608380D02*
X129675000Y-97132190D01*
X129436904Y-97608380D02*
X129436904Y-96608380D01*
X129817857Y-96608380D01*
X129913095Y-96656000D01*
X129960714Y-96703619D01*
X130008333Y-96798857D01*
X130008333Y-96941714D01*
X129960714Y-97036952D01*
X129913095Y-97084571D01*
X129817857Y-97132190D01*
X129436904Y-97132190D01*
X130484523Y-97608380D02*
X130675000Y-97608380D01*
X130770238Y-97560761D01*
X130817857Y-97513142D01*
X130913095Y-97370285D01*
X130960714Y-97179809D01*
X130960714Y-96798857D01*
X130913095Y-96703619D01*
X130865476Y-96656000D01*
X130770238Y-96608380D01*
X130579761Y-96608380D01*
X130484523Y-96656000D01*
X130436904Y-96703619D01*
X130389285Y-96798857D01*
X130389285Y-97036952D01*
X130436904Y-97132190D01*
X130484523Y-97179809D01*
X130579761Y-97227428D01*
X130770238Y-97227428D01*
X130865476Y-97179809D01*
X130913095Y-97132190D01*
X130960714Y-97036952D01*
%TO.C,R8*%
X182840333Y-108783380D02*
X182507000Y-108307190D01*
X182268904Y-108783380D02*
X182268904Y-107783380D01*
X182649857Y-107783380D01*
X182745095Y-107831000D01*
X182792714Y-107878619D01*
X182840333Y-107973857D01*
X182840333Y-108116714D01*
X182792714Y-108211952D01*
X182745095Y-108259571D01*
X182649857Y-108307190D01*
X182268904Y-108307190D01*
X183411761Y-108211952D02*
X183316523Y-108164333D01*
X183268904Y-108116714D01*
X183221285Y-108021476D01*
X183221285Y-107973857D01*
X183268904Y-107878619D01*
X183316523Y-107831000D01*
X183411761Y-107783380D01*
X183602238Y-107783380D01*
X183697476Y-107831000D01*
X183745095Y-107878619D01*
X183792714Y-107973857D01*
X183792714Y-108021476D01*
X183745095Y-108116714D01*
X183697476Y-108164333D01*
X183602238Y-108211952D01*
X183411761Y-108211952D01*
X183316523Y-108259571D01*
X183268904Y-108307190D01*
X183221285Y-108402428D01*
X183221285Y-108592904D01*
X183268904Y-108688142D01*
X183316523Y-108735761D01*
X183411761Y-108783380D01*
X183602238Y-108783380D01*
X183697476Y-108735761D01*
X183745095Y-108688142D01*
X183792714Y-108592904D01*
X183792714Y-108402428D01*
X183745095Y-108307190D01*
X183697476Y-108259571D01*
X183602238Y-108211952D01*
%TO.C,R7*%
X111593333Y-127833380D02*
X111260000Y-127357190D01*
X111021904Y-127833380D02*
X111021904Y-126833380D01*
X111402857Y-126833380D01*
X111498095Y-126881000D01*
X111545714Y-126928619D01*
X111593333Y-127023857D01*
X111593333Y-127166714D01*
X111545714Y-127261952D01*
X111498095Y-127309571D01*
X111402857Y-127357190D01*
X111021904Y-127357190D01*
X111926666Y-126833380D02*
X112593333Y-126833380D01*
X112164761Y-127833380D01*
%TO.C,R6*%
X98893333Y-122499380D02*
X98560000Y-122023190D01*
X98321904Y-122499380D02*
X98321904Y-121499380D01*
X98702857Y-121499380D01*
X98798095Y-121547000D01*
X98845714Y-121594619D01*
X98893333Y-121689857D01*
X98893333Y-121832714D01*
X98845714Y-121927952D01*
X98798095Y-121975571D01*
X98702857Y-122023190D01*
X98321904Y-122023190D01*
X99750476Y-121499380D02*
X99560000Y-121499380D01*
X99464761Y-121547000D01*
X99417142Y-121594619D01*
X99321904Y-121737476D01*
X99274285Y-121927952D01*
X99274285Y-122308904D01*
X99321904Y-122404142D01*
X99369523Y-122451761D01*
X99464761Y-122499380D01*
X99655238Y-122499380D01*
X99750476Y-122451761D01*
X99798095Y-122404142D01*
X99845714Y-122308904D01*
X99845714Y-122070809D01*
X99798095Y-121975571D01*
X99750476Y-121927952D01*
X99655238Y-121880333D01*
X99464761Y-121880333D01*
X99369523Y-121927952D01*
X99321904Y-121975571D01*
X99274285Y-122070809D01*
%TO.C,R5*%
X103973333Y-111069380D02*
X103640000Y-110593190D01*
X103401904Y-111069380D02*
X103401904Y-110069380D01*
X103782857Y-110069380D01*
X103878095Y-110117000D01*
X103925714Y-110164619D01*
X103973333Y-110259857D01*
X103973333Y-110402714D01*
X103925714Y-110497952D01*
X103878095Y-110545571D01*
X103782857Y-110593190D01*
X103401904Y-110593190D01*
X104878095Y-110069380D02*
X104401904Y-110069380D01*
X104354285Y-110545571D01*
X104401904Y-110497952D01*
X104497142Y-110450333D01*
X104735238Y-110450333D01*
X104830476Y-110497952D01*
X104878095Y-110545571D01*
X104925714Y-110640809D01*
X104925714Y-110878904D01*
X104878095Y-110974142D01*
X104830476Y-111021761D01*
X104735238Y-111069380D01*
X104497142Y-111069380D01*
X104401904Y-111021761D01*
X104354285Y-110974142D01*
%TO.C,R4*%
X193063833Y-111640880D02*
X192730500Y-111164690D01*
X192492404Y-111640880D02*
X192492404Y-110640880D01*
X192873357Y-110640880D01*
X192968595Y-110688500D01*
X193016214Y-110736119D01*
X193063833Y-110831357D01*
X193063833Y-110974214D01*
X193016214Y-111069452D01*
X192968595Y-111117071D01*
X192873357Y-111164690D01*
X192492404Y-111164690D01*
X193920976Y-110974214D02*
X193920976Y-111640880D01*
X193682880Y-110593261D02*
X193444785Y-111307547D01*
X194063833Y-111307547D01*
%TO.C,R3*%
X195476833Y-128658880D02*
X195143500Y-128182690D01*
X194905404Y-128658880D02*
X194905404Y-127658880D01*
X195286357Y-127658880D01*
X195381595Y-127706500D01*
X195429214Y-127754119D01*
X195476833Y-127849357D01*
X195476833Y-127992214D01*
X195429214Y-128087452D01*
X195381595Y-128135071D01*
X195286357Y-128182690D01*
X194905404Y-128182690D01*
X195810166Y-127658880D02*
X196429214Y-127658880D01*
X196095880Y-128039833D01*
X196238738Y-128039833D01*
X196333976Y-128087452D01*
X196381595Y-128135071D01*
X196429214Y-128230309D01*
X196429214Y-128468404D01*
X196381595Y-128563642D01*
X196333976Y-128611261D01*
X196238738Y-128658880D01*
X195953023Y-128658880D01*
X195857785Y-128611261D01*
X195810166Y-128563642D01*
%TO.C,R2*%
X188618833Y-110751880D02*
X188285500Y-110275690D01*
X188047404Y-110751880D02*
X188047404Y-109751880D01*
X188428357Y-109751880D01*
X188523595Y-109799500D01*
X188571214Y-109847119D01*
X188618833Y-109942357D01*
X188618833Y-110085214D01*
X188571214Y-110180452D01*
X188523595Y-110228071D01*
X188428357Y-110275690D01*
X188047404Y-110275690D01*
X188999785Y-109847119D02*
X189047404Y-109799500D01*
X189142642Y-109751880D01*
X189380738Y-109751880D01*
X189475976Y-109799500D01*
X189523595Y-109847119D01*
X189571214Y-109942357D01*
X189571214Y-110037595D01*
X189523595Y-110180452D01*
X188952166Y-110751880D01*
X189571214Y-110751880D01*
%TO.C,R1*%
X185443833Y-110751880D02*
X185110500Y-110275690D01*
X184872404Y-110751880D02*
X184872404Y-109751880D01*
X185253357Y-109751880D01*
X185348595Y-109799500D01*
X185396214Y-109847119D01*
X185443833Y-109942357D01*
X185443833Y-110085214D01*
X185396214Y-110180452D01*
X185348595Y-110228071D01*
X185253357Y-110275690D01*
X184872404Y-110275690D01*
X186396214Y-110751880D02*
X185824785Y-110751880D01*
X186110500Y-110751880D02*
X186110500Y-109751880D01*
X186015261Y-109894738D01*
X185920023Y-109989976D01*
X185824785Y-110037595D01*
%TO.C,L1*%
X135469333Y-101036380D02*
X134993142Y-101036380D01*
X134993142Y-100036380D01*
X136326476Y-101036380D02*
X135755047Y-101036380D01*
X136040761Y-101036380D02*
X136040761Y-100036380D01*
X135945523Y-100179238D01*
X135850285Y-100274476D01*
X135755047Y-100322095D01*
%TO.C,FB2*%
X106989666Y-116768571D02*
X106656333Y-116768571D01*
X106656333Y-117292380D02*
X106656333Y-116292380D01*
X107132523Y-116292380D01*
X107846809Y-116768571D02*
X107989666Y-116816190D01*
X108037285Y-116863809D01*
X108084904Y-116959047D01*
X108084904Y-117101904D01*
X108037285Y-117197142D01*
X107989666Y-117244761D01*
X107894428Y-117292380D01*
X107513476Y-117292380D01*
X107513476Y-116292380D01*
X107846809Y-116292380D01*
X107942047Y-116340000D01*
X107989666Y-116387619D01*
X108037285Y-116482857D01*
X108037285Y-116578095D01*
X107989666Y-116673333D01*
X107942047Y-116720952D01*
X107846809Y-116768571D01*
X107513476Y-116768571D01*
X108465857Y-116387619D02*
X108513476Y-116340000D01*
X108608714Y-116292380D01*
X108846809Y-116292380D01*
X108942047Y-116340000D01*
X108989666Y-116387619D01*
X109037285Y-116482857D01*
X109037285Y-116578095D01*
X108989666Y-116720952D01*
X108418238Y-117292380D01*
X109037285Y-117292380D01*
%TO.C,FB1*%
X200525166Y-115943071D02*
X200191833Y-115943071D01*
X200191833Y-116466880D02*
X200191833Y-115466880D01*
X200668023Y-115466880D01*
X201382309Y-115943071D02*
X201525166Y-115990690D01*
X201572785Y-116038309D01*
X201620404Y-116133547D01*
X201620404Y-116276404D01*
X201572785Y-116371642D01*
X201525166Y-116419261D01*
X201429928Y-116466880D01*
X201048976Y-116466880D01*
X201048976Y-115466880D01*
X201382309Y-115466880D01*
X201477547Y-115514500D01*
X201525166Y-115562119D01*
X201572785Y-115657357D01*
X201572785Y-115752595D01*
X201525166Y-115847833D01*
X201477547Y-115895452D01*
X201382309Y-115943071D01*
X201048976Y-115943071D01*
X202572785Y-116466880D02*
X202001357Y-116466880D01*
X202287071Y-116466880D02*
X202287071Y-115466880D01*
X202191833Y-115609738D01*
X202096595Y-115704976D01*
X202001357Y-115752595D01*
%TO.C,D1*%
X96797904Y-69921380D02*
X96797904Y-68921380D01*
X97036000Y-68921380D01*
X97178857Y-68969000D01*
X97274095Y-69064238D01*
X97321714Y-69159476D01*
X97369333Y-69349952D01*
X97369333Y-69492809D01*
X97321714Y-69683285D01*
X97274095Y-69778523D01*
X97178857Y-69873761D01*
X97036000Y-69921380D01*
X96797904Y-69921380D01*
X98321714Y-69921380D02*
X97750285Y-69921380D01*
X98036000Y-69921380D02*
X98036000Y-68921380D01*
X97940761Y-69064238D01*
X97845523Y-69159476D01*
X97750285Y-69207095D01*
%TO.C,C33*%
X154932142Y-87987142D02*
X154884523Y-88034761D01*
X154741666Y-88082380D01*
X154646428Y-88082380D01*
X154503571Y-88034761D01*
X154408333Y-87939523D01*
X154360714Y-87844285D01*
X154313095Y-87653809D01*
X154313095Y-87510952D01*
X154360714Y-87320476D01*
X154408333Y-87225238D01*
X154503571Y-87130000D01*
X154646428Y-87082380D01*
X154741666Y-87082380D01*
X154884523Y-87130000D01*
X154932142Y-87177619D01*
X155265476Y-87082380D02*
X155884523Y-87082380D01*
X155551190Y-87463333D01*
X155694047Y-87463333D01*
X155789285Y-87510952D01*
X155836904Y-87558571D01*
X155884523Y-87653809D01*
X155884523Y-87891904D01*
X155836904Y-87987142D01*
X155789285Y-88034761D01*
X155694047Y-88082380D01*
X155408333Y-88082380D01*
X155313095Y-88034761D01*
X155265476Y-87987142D01*
X156217857Y-87082380D02*
X156836904Y-87082380D01*
X156503571Y-87463333D01*
X156646428Y-87463333D01*
X156741666Y-87510952D01*
X156789285Y-87558571D01*
X156836904Y-87653809D01*
X156836904Y-87891904D01*
X156789285Y-87987142D01*
X156741666Y-88034761D01*
X156646428Y-88082380D01*
X156360714Y-88082380D01*
X156265476Y-88034761D01*
X156217857Y-87987142D01*
%TO.C,C30*%
X182745142Y-104624142D02*
X182697523Y-104671761D01*
X182554666Y-104719380D01*
X182459428Y-104719380D01*
X182316571Y-104671761D01*
X182221333Y-104576523D01*
X182173714Y-104481285D01*
X182126095Y-104290809D01*
X182126095Y-104147952D01*
X182173714Y-103957476D01*
X182221333Y-103862238D01*
X182316571Y-103767000D01*
X182459428Y-103719380D01*
X182554666Y-103719380D01*
X182697523Y-103767000D01*
X182745142Y-103814619D01*
X183078476Y-103719380D02*
X183697523Y-103719380D01*
X183364190Y-104100333D01*
X183507047Y-104100333D01*
X183602285Y-104147952D01*
X183649904Y-104195571D01*
X183697523Y-104290809D01*
X183697523Y-104528904D01*
X183649904Y-104624142D01*
X183602285Y-104671761D01*
X183507047Y-104719380D01*
X183221333Y-104719380D01*
X183126095Y-104671761D01*
X183078476Y-104624142D01*
X184316571Y-103719380D02*
X184411809Y-103719380D01*
X184507047Y-103767000D01*
X184554666Y-103814619D01*
X184602285Y-103909857D01*
X184649904Y-104100333D01*
X184649904Y-104338428D01*
X184602285Y-104528904D01*
X184554666Y-104624142D01*
X184507047Y-104671761D01*
X184411809Y-104719380D01*
X184316571Y-104719380D01*
X184221333Y-104671761D01*
X184173714Y-104624142D01*
X184126095Y-104528904D01*
X184078476Y-104338428D01*
X184078476Y-104100333D01*
X184126095Y-103909857D01*
X184173714Y-103814619D01*
X184221333Y-103767000D01*
X184316571Y-103719380D01*
%TO.C,C29*%
X107942142Y-72112142D02*
X107894523Y-72159761D01*
X107751666Y-72207380D01*
X107656428Y-72207380D01*
X107513571Y-72159761D01*
X107418333Y-72064523D01*
X107370714Y-71969285D01*
X107323095Y-71778809D01*
X107323095Y-71635952D01*
X107370714Y-71445476D01*
X107418333Y-71350238D01*
X107513571Y-71255000D01*
X107656428Y-71207380D01*
X107751666Y-71207380D01*
X107894523Y-71255000D01*
X107942142Y-71302619D01*
X108323095Y-71302619D02*
X108370714Y-71255000D01*
X108465952Y-71207380D01*
X108704047Y-71207380D01*
X108799285Y-71255000D01*
X108846904Y-71302619D01*
X108894523Y-71397857D01*
X108894523Y-71493095D01*
X108846904Y-71635952D01*
X108275476Y-72207380D01*
X108894523Y-72207380D01*
X109370714Y-72207380D02*
X109561190Y-72207380D01*
X109656428Y-72159761D01*
X109704047Y-72112142D01*
X109799285Y-71969285D01*
X109846904Y-71778809D01*
X109846904Y-71397857D01*
X109799285Y-71302619D01*
X109751666Y-71255000D01*
X109656428Y-71207380D01*
X109465952Y-71207380D01*
X109370714Y-71255000D01*
X109323095Y-71302619D01*
X109275476Y-71397857D01*
X109275476Y-71635952D01*
X109323095Y-71731190D01*
X109370714Y-71778809D01*
X109465952Y-71826428D01*
X109656428Y-71826428D01*
X109751666Y-71778809D01*
X109799285Y-71731190D01*
X109846904Y-71635952D01*
%TO.C,C28*%
X112387142Y-58777142D02*
X112339523Y-58824761D01*
X112196666Y-58872380D01*
X112101428Y-58872380D01*
X111958571Y-58824761D01*
X111863333Y-58729523D01*
X111815714Y-58634285D01*
X111768095Y-58443809D01*
X111768095Y-58300952D01*
X111815714Y-58110476D01*
X111863333Y-58015238D01*
X111958571Y-57920000D01*
X112101428Y-57872380D01*
X112196666Y-57872380D01*
X112339523Y-57920000D01*
X112387142Y-57967619D01*
X112768095Y-57967619D02*
X112815714Y-57920000D01*
X112910952Y-57872380D01*
X113149047Y-57872380D01*
X113244285Y-57920000D01*
X113291904Y-57967619D01*
X113339523Y-58062857D01*
X113339523Y-58158095D01*
X113291904Y-58300952D01*
X112720476Y-58872380D01*
X113339523Y-58872380D01*
X113910952Y-58300952D02*
X113815714Y-58253333D01*
X113768095Y-58205714D01*
X113720476Y-58110476D01*
X113720476Y-58062857D01*
X113768095Y-57967619D01*
X113815714Y-57920000D01*
X113910952Y-57872380D01*
X114101428Y-57872380D01*
X114196666Y-57920000D01*
X114244285Y-57967619D01*
X114291904Y-58062857D01*
X114291904Y-58110476D01*
X114244285Y-58205714D01*
X114196666Y-58253333D01*
X114101428Y-58300952D01*
X113910952Y-58300952D01*
X113815714Y-58348571D01*
X113768095Y-58396190D01*
X113720476Y-58491428D01*
X113720476Y-58681904D01*
X113768095Y-58777142D01*
X113815714Y-58824761D01*
X113910952Y-58872380D01*
X114101428Y-58872380D01*
X114196666Y-58824761D01*
X114244285Y-58777142D01*
X114291904Y-58681904D01*
X114291904Y-58491428D01*
X114244285Y-58396190D01*
X114196666Y-58348571D01*
X114101428Y-58300952D01*
%TO.C,C22*%
X151741142Y-111894857D02*
X151788761Y-111942476D01*
X151836380Y-112085333D01*
X151836380Y-112180571D01*
X151788761Y-112323428D01*
X151693523Y-112418666D01*
X151598285Y-112466285D01*
X151407809Y-112513904D01*
X151264952Y-112513904D01*
X151074476Y-112466285D01*
X150979238Y-112418666D01*
X150884000Y-112323428D01*
X150836380Y-112180571D01*
X150836380Y-112085333D01*
X150884000Y-111942476D01*
X150931619Y-111894857D01*
X150931619Y-111513904D02*
X150884000Y-111466285D01*
X150836380Y-111371047D01*
X150836380Y-111132952D01*
X150884000Y-111037714D01*
X150931619Y-110990095D01*
X151026857Y-110942476D01*
X151122095Y-110942476D01*
X151264952Y-110990095D01*
X151836380Y-111561523D01*
X151836380Y-110942476D01*
X150931619Y-110561523D02*
X150884000Y-110513904D01*
X150836380Y-110418666D01*
X150836380Y-110180571D01*
X150884000Y-110085333D01*
X150931619Y-110037714D01*
X151026857Y-109990095D01*
X151122095Y-109990095D01*
X151264952Y-110037714D01*
X151836380Y-110609142D01*
X151836380Y-109990095D01*
%TO.C,C21*%
X147931142Y-85478857D02*
X147978761Y-85526476D01*
X148026380Y-85669333D01*
X148026380Y-85764571D01*
X147978761Y-85907428D01*
X147883523Y-86002666D01*
X147788285Y-86050285D01*
X147597809Y-86097904D01*
X147454952Y-86097904D01*
X147264476Y-86050285D01*
X147169238Y-86002666D01*
X147074000Y-85907428D01*
X147026380Y-85764571D01*
X147026380Y-85669333D01*
X147074000Y-85526476D01*
X147121619Y-85478857D01*
X147121619Y-85097904D02*
X147074000Y-85050285D01*
X147026380Y-84955047D01*
X147026380Y-84716952D01*
X147074000Y-84621714D01*
X147121619Y-84574095D01*
X147216857Y-84526476D01*
X147312095Y-84526476D01*
X147454952Y-84574095D01*
X148026380Y-85145523D01*
X148026380Y-84526476D01*
X148026380Y-83574095D02*
X148026380Y-84145523D01*
X148026380Y-83859809D02*
X147026380Y-83859809D01*
X147169238Y-83955047D01*
X147264476Y-84050285D01*
X147312095Y-84145523D01*
%TO.C,C20*%
X142105142Y-107799142D02*
X142057523Y-107846761D01*
X141914666Y-107894380D01*
X141819428Y-107894380D01*
X141676571Y-107846761D01*
X141581333Y-107751523D01*
X141533714Y-107656285D01*
X141486095Y-107465809D01*
X141486095Y-107322952D01*
X141533714Y-107132476D01*
X141581333Y-107037238D01*
X141676571Y-106942000D01*
X141819428Y-106894380D01*
X141914666Y-106894380D01*
X142057523Y-106942000D01*
X142105142Y-106989619D01*
X142486095Y-106989619D02*
X142533714Y-106942000D01*
X142628952Y-106894380D01*
X142867047Y-106894380D01*
X142962285Y-106942000D01*
X143009904Y-106989619D01*
X143057523Y-107084857D01*
X143057523Y-107180095D01*
X143009904Y-107322952D01*
X142438476Y-107894380D01*
X143057523Y-107894380D01*
X143676571Y-106894380D02*
X143771809Y-106894380D01*
X143867047Y-106942000D01*
X143914666Y-106989619D01*
X143962285Y-107084857D01*
X144009904Y-107275333D01*
X144009904Y-107513428D01*
X143962285Y-107703904D01*
X143914666Y-107799142D01*
X143867047Y-107846761D01*
X143771809Y-107894380D01*
X143676571Y-107894380D01*
X143581333Y-107846761D01*
X143533714Y-107799142D01*
X143486095Y-107703904D01*
X143438476Y-107513428D01*
X143438476Y-107275333D01*
X143486095Y-107084857D01*
X143533714Y-106989619D01*
X143581333Y-106942000D01*
X143676571Y-106894380D01*
%TO.C,C19*%
X153773142Y-111894857D02*
X153820761Y-111942476D01*
X153868380Y-112085333D01*
X153868380Y-112180571D01*
X153820761Y-112323428D01*
X153725523Y-112418666D01*
X153630285Y-112466285D01*
X153439809Y-112513904D01*
X153296952Y-112513904D01*
X153106476Y-112466285D01*
X153011238Y-112418666D01*
X152916000Y-112323428D01*
X152868380Y-112180571D01*
X152868380Y-112085333D01*
X152916000Y-111942476D01*
X152963619Y-111894857D01*
X153868380Y-110942476D02*
X153868380Y-111513904D01*
X153868380Y-111228190D02*
X152868380Y-111228190D01*
X153011238Y-111323428D01*
X153106476Y-111418666D01*
X153154095Y-111513904D01*
X153868380Y-110466285D02*
X153868380Y-110275809D01*
X153820761Y-110180571D01*
X153773142Y-110132952D01*
X153630285Y-110037714D01*
X153439809Y-109990095D01*
X153058857Y-109990095D01*
X152963619Y-110037714D01*
X152916000Y-110085333D01*
X152868380Y-110180571D01*
X152868380Y-110371047D01*
X152916000Y-110466285D01*
X152963619Y-110513904D01*
X153058857Y-110561523D01*
X153296952Y-110561523D01*
X153392190Y-110513904D01*
X153439809Y-110466285D01*
X153487428Y-110371047D01*
X153487428Y-110180571D01*
X153439809Y-110085333D01*
X153392190Y-110037714D01*
X153296952Y-109990095D01*
%TO.C,C18*%
X145645142Y-85478857D02*
X145692761Y-85526476D01*
X145740380Y-85669333D01*
X145740380Y-85764571D01*
X145692761Y-85907428D01*
X145597523Y-86002666D01*
X145502285Y-86050285D01*
X145311809Y-86097904D01*
X145168952Y-86097904D01*
X144978476Y-86050285D01*
X144883238Y-86002666D01*
X144788000Y-85907428D01*
X144740380Y-85764571D01*
X144740380Y-85669333D01*
X144788000Y-85526476D01*
X144835619Y-85478857D01*
X145740380Y-84526476D02*
X145740380Y-85097904D01*
X145740380Y-84812190D02*
X144740380Y-84812190D01*
X144883238Y-84907428D01*
X144978476Y-85002666D01*
X145026095Y-85097904D01*
X145168952Y-83955047D02*
X145121333Y-84050285D01*
X145073714Y-84097904D01*
X144978476Y-84145523D01*
X144930857Y-84145523D01*
X144835619Y-84097904D01*
X144788000Y-84050285D01*
X144740380Y-83955047D01*
X144740380Y-83764571D01*
X144788000Y-83669333D01*
X144835619Y-83621714D01*
X144930857Y-83574095D01*
X144978476Y-83574095D01*
X145073714Y-83621714D01*
X145121333Y-83669333D01*
X145168952Y-83764571D01*
X145168952Y-83955047D01*
X145216571Y-84050285D01*
X145264190Y-84097904D01*
X145359428Y-84145523D01*
X145549904Y-84145523D01*
X145645142Y-84097904D01*
X145692761Y-84050285D01*
X145740380Y-83955047D01*
X145740380Y-83764571D01*
X145692761Y-83669333D01*
X145645142Y-83621714D01*
X145549904Y-83574095D01*
X145359428Y-83574095D01*
X145264190Y-83621714D01*
X145216571Y-83669333D01*
X145168952Y-83764571D01*
%TO.C,C17*%
X114927142Y-122531142D02*
X114879523Y-122578761D01*
X114736666Y-122626380D01*
X114641428Y-122626380D01*
X114498571Y-122578761D01*
X114403333Y-122483523D01*
X114355714Y-122388285D01*
X114308095Y-122197809D01*
X114308095Y-122054952D01*
X114355714Y-121864476D01*
X114403333Y-121769238D01*
X114498571Y-121674000D01*
X114641428Y-121626380D01*
X114736666Y-121626380D01*
X114879523Y-121674000D01*
X114927142Y-121721619D01*
X115879523Y-122626380D02*
X115308095Y-122626380D01*
X115593809Y-122626380D02*
X115593809Y-121626380D01*
X115498571Y-121769238D01*
X115403333Y-121864476D01*
X115308095Y-121912095D01*
X116212857Y-121626380D02*
X116879523Y-121626380D01*
X116450952Y-122626380D01*
%TO.C,C16*%
X111117142Y-117197142D02*
X111069523Y-117244761D01*
X110926666Y-117292380D01*
X110831428Y-117292380D01*
X110688571Y-117244761D01*
X110593333Y-117149523D01*
X110545714Y-117054285D01*
X110498095Y-116863809D01*
X110498095Y-116720952D01*
X110545714Y-116530476D01*
X110593333Y-116435238D01*
X110688571Y-116340000D01*
X110831428Y-116292380D01*
X110926666Y-116292380D01*
X111069523Y-116340000D01*
X111117142Y-116387619D01*
X112069523Y-117292380D02*
X111498095Y-117292380D01*
X111783809Y-117292380D02*
X111783809Y-116292380D01*
X111688571Y-116435238D01*
X111593333Y-116530476D01*
X111498095Y-116578095D01*
X112926666Y-116292380D02*
X112736190Y-116292380D01*
X112640952Y-116340000D01*
X112593333Y-116387619D01*
X112498095Y-116530476D01*
X112450476Y-116720952D01*
X112450476Y-117101904D01*
X112498095Y-117197142D01*
X112545714Y-117244761D01*
X112640952Y-117292380D01*
X112831428Y-117292380D01*
X112926666Y-117244761D01*
X112974285Y-117197142D01*
X113021904Y-117101904D01*
X113021904Y-116863809D01*
X112974285Y-116768571D01*
X112926666Y-116720952D01*
X112831428Y-116673333D01*
X112640952Y-116673333D01*
X112545714Y-116720952D01*
X112498095Y-116768571D01*
X112450476Y-116863809D01*
%TO.C,C15*%
X107434142Y-127484142D02*
X107386523Y-127531761D01*
X107243666Y-127579380D01*
X107148428Y-127579380D01*
X107005571Y-127531761D01*
X106910333Y-127436523D01*
X106862714Y-127341285D01*
X106815095Y-127150809D01*
X106815095Y-127007952D01*
X106862714Y-126817476D01*
X106910333Y-126722238D01*
X107005571Y-126627000D01*
X107148428Y-126579380D01*
X107243666Y-126579380D01*
X107386523Y-126627000D01*
X107434142Y-126674619D01*
X108386523Y-127579380D02*
X107815095Y-127579380D01*
X108100809Y-127579380D02*
X108100809Y-126579380D01*
X108005571Y-126722238D01*
X107910333Y-126817476D01*
X107815095Y-126865095D01*
X109291285Y-126579380D02*
X108815095Y-126579380D01*
X108767476Y-127055571D01*
X108815095Y-127007952D01*
X108910333Y-126960333D01*
X109148428Y-126960333D01*
X109243666Y-127007952D01*
X109291285Y-127055571D01*
X109338904Y-127150809D01*
X109338904Y-127388904D01*
X109291285Y-127484142D01*
X109243666Y-127531761D01*
X109148428Y-127579380D01*
X108910333Y-127579380D01*
X108815095Y-127531761D01*
X108767476Y-127484142D01*
%TO.C,C14*%
X98290142Y-110847142D02*
X98242523Y-110894761D01*
X98099666Y-110942380D01*
X98004428Y-110942380D01*
X97861571Y-110894761D01*
X97766333Y-110799523D01*
X97718714Y-110704285D01*
X97671095Y-110513809D01*
X97671095Y-110370952D01*
X97718714Y-110180476D01*
X97766333Y-110085238D01*
X97861571Y-109990000D01*
X98004428Y-109942380D01*
X98099666Y-109942380D01*
X98242523Y-109990000D01*
X98290142Y-110037619D01*
X99242523Y-110942380D02*
X98671095Y-110942380D01*
X98956809Y-110942380D02*
X98956809Y-109942380D01*
X98861571Y-110085238D01*
X98766333Y-110180476D01*
X98671095Y-110228095D01*
X100099666Y-110275714D02*
X100099666Y-110942380D01*
X99861571Y-109894761D02*
X99623476Y-110609047D01*
X100242523Y-110609047D01*
%TO.C,C12*%
X103497142Y-122404142D02*
X103449523Y-122451761D01*
X103306666Y-122499380D01*
X103211428Y-122499380D01*
X103068571Y-122451761D01*
X102973333Y-122356523D01*
X102925714Y-122261285D01*
X102878095Y-122070809D01*
X102878095Y-121927952D01*
X102925714Y-121737476D01*
X102973333Y-121642238D01*
X103068571Y-121547000D01*
X103211428Y-121499380D01*
X103306666Y-121499380D01*
X103449523Y-121547000D01*
X103497142Y-121594619D01*
X104449523Y-122499380D02*
X103878095Y-122499380D01*
X104163809Y-122499380D02*
X104163809Y-121499380D01*
X104068571Y-121642238D01*
X103973333Y-121737476D01*
X103878095Y-121785095D01*
X104830476Y-121594619D02*
X104878095Y-121547000D01*
X104973333Y-121499380D01*
X105211428Y-121499380D01*
X105306666Y-121547000D01*
X105354285Y-121594619D01*
X105401904Y-121689857D01*
X105401904Y-121785095D01*
X105354285Y-121927952D01*
X104782857Y-122499380D01*
X105401904Y-122499380D01*
%TO.C,C9*%
X200683833Y-110021642D02*
X200636214Y-110069261D01*
X200493357Y-110116880D01*
X200398119Y-110116880D01*
X200255261Y-110069261D01*
X200160023Y-109974023D01*
X200112404Y-109878785D01*
X200064785Y-109688309D01*
X200064785Y-109545452D01*
X200112404Y-109354976D01*
X200160023Y-109259738D01*
X200255261Y-109164500D01*
X200398119Y-109116880D01*
X200493357Y-109116880D01*
X200636214Y-109164500D01*
X200683833Y-109212119D01*
X201160023Y-110116880D02*
X201350500Y-110116880D01*
X201445738Y-110069261D01*
X201493357Y-110021642D01*
X201588595Y-109878785D01*
X201636214Y-109688309D01*
X201636214Y-109307357D01*
X201588595Y-109212119D01*
X201540976Y-109164500D01*
X201445738Y-109116880D01*
X201255261Y-109116880D01*
X201160023Y-109164500D01*
X201112404Y-109212119D01*
X201064785Y-109307357D01*
X201064785Y-109545452D01*
X201112404Y-109640690D01*
X201160023Y-109688309D01*
X201255261Y-109735928D01*
X201445738Y-109735928D01*
X201540976Y-109688309D01*
X201588595Y-109640690D01*
X201636214Y-109545452D01*
%TO.C,C8*%
X200683833Y-113196642D02*
X200636214Y-113244261D01*
X200493357Y-113291880D01*
X200398119Y-113291880D01*
X200255261Y-113244261D01*
X200160023Y-113149023D01*
X200112404Y-113053785D01*
X200064785Y-112863309D01*
X200064785Y-112720452D01*
X200112404Y-112529976D01*
X200160023Y-112434738D01*
X200255261Y-112339500D01*
X200398119Y-112291880D01*
X200493357Y-112291880D01*
X200636214Y-112339500D01*
X200683833Y-112387119D01*
X201255261Y-112720452D02*
X201160023Y-112672833D01*
X201112404Y-112625214D01*
X201064785Y-112529976D01*
X201064785Y-112482357D01*
X201112404Y-112387119D01*
X201160023Y-112339500D01*
X201255261Y-112291880D01*
X201445738Y-112291880D01*
X201540976Y-112339500D01*
X201588595Y-112387119D01*
X201636214Y-112482357D01*
X201636214Y-112529976D01*
X201588595Y-112625214D01*
X201540976Y-112672833D01*
X201445738Y-112720452D01*
X201255261Y-112720452D01*
X201160023Y-112768071D01*
X201112404Y-112815690D01*
X201064785Y-112910928D01*
X201064785Y-113101404D01*
X201112404Y-113196642D01*
X201160023Y-113244261D01*
X201255261Y-113291880D01*
X201445738Y-113291880D01*
X201540976Y-113244261D01*
X201588595Y-113196642D01*
X201636214Y-113101404D01*
X201636214Y-112910928D01*
X201588595Y-112815690D01*
X201540976Y-112768071D01*
X201445738Y-112720452D01*
%TO.C,C7*%
X193063833Y-118021642D02*
X193016214Y-118069261D01*
X192873357Y-118116880D01*
X192778119Y-118116880D01*
X192635261Y-118069261D01*
X192540023Y-117974023D01*
X192492404Y-117878785D01*
X192444785Y-117688309D01*
X192444785Y-117545452D01*
X192492404Y-117354976D01*
X192540023Y-117259738D01*
X192635261Y-117164500D01*
X192778119Y-117116880D01*
X192873357Y-117116880D01*
X193016214Y-117164500D01*
X193063833Y-117212119D01*
X193397166Y-117116880D02*
X194063833Y-117116880D01*
X193635261Y-118116880D01*
%TO.C,C6*%
X201572833Y-122848642D02*
X201525214Y-122896261D01*
X201382357Y-122943880D01*
X201287119Y-122943880D01*
X201144261Y-122896261D01*
X201049023Y-122801023D01*
X201001404Y-122705785D01*
X200953785Y-122515309D01*
X200953785Y-122372452D01*
X201001404Y-122181976D01*
X201049023Y-122086738D01*
X201144261Y-121991500D01*
X201287119Y-121943880D01*
X201382357Y-121943880D01*
X201525214Y-121991500D01*
X201572833Y-122039119D01*
X202429976Y-121943880D02*
X202239500Y-121943880D01*
X202144261Y-121991500D01*
X202096642Y-122039119D01*
X202001404Y-122181976D01*
X201953785Y-122372452D01*
X201953785Y-122753404D01*
X202001404Y-122848642D01*
X202049023Y-122896261D01*
X202144261Y-122943880D01*
X202334738Y-122943880D01*
X202429976Y-122896261D01*
X202477595Y-122848642D01*
X202525214Y-122753404D01*
X202525214Y-122515309D01*
X202477595Y-122420071D01*
X202429976Y-122372452D01*
X202334738Y-122324833D01*
X202144261Y-122324833D01*
X202049023Y-122372452D01*
X202001404Y-122420071D01*
X201953785Y-122515309D01*
%TO.C,C5*%
X188618833Y-120816642D02*
X188571214Y-120864261D01*
X188428357Y-120911880D01*
X188333119Y-120911880D01*
X188190261Y-120864261D01*
X188095023Y-120769023D01*
X188047404Y-120673785D01*
X187999785Y-120483309D01*
X187999785Y-120340452D01*
X188047404Y-120149976D01*
X188095023Y-120054738D01*
X188190261Y-119959500D01*
X188333119Y-119911880D01*
X188428357Y-119911880D01*
X188571214Y-119959500D01*
X188618833Y-120007119D01*
X189523595Y-119911880D02*
X189047404Y-119911880D01*
X188999785Y-120388071D01*
X189047404Y-120340452D01*
X189142642Y-120292833D01*
X189380738Y-120292833D01*
X189475976Y-120340452D01*
X189523595Y-120388071D01*
X189571214Y-120483309D01*
X189571214Y-120721404D01*
X189523595Y-120816642D01*
X189475976Y-120864261D01*
X189380738Y-120911880D01*
X189142642Y-120911880D01*
X189047404Y-120864261D01*
X188999785Y-120816642D01*
%TO.C,C4*%
X185443833Y-120816642D02*
X185396214Y-120864261D01*
X185253357Y-120911880D01*
X185158119Y-120911880D01*
X185015261Y-120864261D01*
X184920023Y-120769023D01*
X184872404Y-120673785D01*
X184824785Y-120483309D01*
X184824785Y-120340452D01*
X184872404Y-120149976D01*
X184920023Y-120054738D01*
X185015261Y-119959500D01*
X185158119Y-119911880D01*
X185253357Y-119911880D01*
X185396214Y-119959500D01*
X185443833Y-120007119D01*
X186300976Y-120245214D02*
X186300976Y-120911880D01*
X186062880Y-119864261D02*
X185824785Y-120578547D01*
X186443833Y-120578547D01*
%TO.C,C3*%
X177950833Y-128309642D02*
X177903214Y-128357261D01*
X177760357Y-128404880D01*
X177665119Y-128404880D01*
X177522261Y-128357261D01*
X177427023Y-128262023D01*
X177379404Y-128166785D01*
X177331785Y-127976309D01*
X177331785Y-127833452D01*
X177379404Y-127642976D01*
X177427023Y-127547738D01*
X177522261Y-127452500D01*
X177665119Y-127404880D01*
X177760357Y-127404880D01*
X177903214Y-127452500D01*
X177950833Y-127500119D01*
X178284166Y-127404880D02*
X178903214Y-127404880D01*
X178569880Y-127785833D01*
X178712738Y-127785833D01*
X178807976Y-127833452D01*
X178855595Y-127881071D01*
X178903214Y-127976309D01*
X178903214Y-128214404D01*
X178855595Y-128309642D01*
X178807976Y-128357261D01*
X178712738Y-128404880D01*
X178427023Y-128404880D01*
X178331785Y-128357261D01*
X178284166Y-128309642D01*
%TD*%
M02*
