%TF.GenerationSoftware,KiCad,Pcbnew,(5.1.7-0-10_14)*%
%TF.CreationDate,2020-11-10T20:06:16+00:00*%
%TF.ProjectId,CirrusDspPedal,43697272-7573-4447-9370-506564616c2e,rev?*%
%TF.SameCoordinates,Original*%
%TF.FileFunction,Paste,Top*%
%TF.FilePolarity,Positive*%
%FSLAX46Y46*%
G04 Gerber Fmt 4.6, Leading zero omitted, Abs format (unit mm)*
G04 Created by KiCad (PCBNEW (5.1.7-0-10_14)) date 2020-11-10 20:06:16*
%MOMM*%
%LPD*%
G01*
G04 APERTURE LIST*
%ADD10R,0.900000X1.200000*%
%ADD11R,2.000000X1.300000*%
%ADD12R,2.000000X2.000000*%
%ADD13R,1.060000X0.650000*%
%ADD14R,1.560000X0.650000*%
%ADD15R,1.000000X0.700000*%
%ADD16R,1.400000X0.900000*%
%ADD17R,1.400000X1.200000*%
%ADD18R,1.200000X1.150000*%
%ADD19R,0.700000X1.000000*%
%ADD20R,2.000000X1.500000*%
%ADD21R,2.000000X3.800000*%
%ADD22R,0.740000X2.400000*%
%ADD23R,1.100000X0.250000*%
%ADD24R,1.100000X1.100000*%
G04 APERTURE END LIST*
D10*
%TO.C,D4*%
X195071000Y-117348000D03*
X191771000Y-117348000D03*
%TD*%
%TO.C,D3*%
X191771000Y-114173000D03*
X195071000Y-114173000D03*
%TD*%
D11*
%TO.C,RV1*%
X182721500Y-113608500D03*
D12*
X186721500Y-112458500D03*
D11*
X182721500Y-111308500D03*
%TD*%
%TO.C,R13*%
G36*
G01*
X178175499Y-112858500D02*
X179075501Y-112858500D01*
G75*
G02*
X179325500Y-113108499I0J-249999D01*
G01*
X179325500Y-113808501D01*
G75*
G02*
X179075501Y-114058500I-249999J0D01*
G01*
X178175499Y-114058500D01*
G75*
G02*
X177925500Y-113808501I0J249999D01*
G01*
X177925500Y-113108499D01*
G75*
G02*
X178175499Y-112858500I249999J0D01*
G01*
G37*
G36*
G01*
X178175499Y-110858500D02*
X179075501Y-110858500D01*
G75*
G02*
X179325500Y-111108499I0J-249999D01*
G01*
X179325500Y-111808501D01*
G75*
G02*
X179075501Y-112058500I-249999J0D01*
G01*
X178175499Y-112058500D01*
G75*
G02*
X177925500Y-111808501I0J249999D01*
G01*
X177925500Y-111108499D01*
G75*
G02*
X178175499Y-110858500I249999J0D01*
G01*
G37*
%TD*%
%TO.C,C35*%
G36*
G01*
X201897000Y-109024000D02*
X200947000Y-109024000D01*
G75*
G02*
X200697000Y-108774000I0J250000D01*
G01*
X200697000Y-108099000D01*
G75*
G02*
X200947000Y-107849000I250000J0D01*
G01*
X201897000Y-107849000D01*
G75*
G02*
X202147000Y-108099000I0J-250000D01*
G01*
X202147000Y-108774000D01*
G75*
G02*
X201897000Y-109024000I-250000J0D01*
G01*
G37*
G36*
G01*
X201897000Y-111099000D02*
X200947000Y-111099000D01*
G75*
G02*
X200697000Y-110849000I0J250000D01*
G01*
X200697000Y-110174000D01*
G75*
G02*
X200947000Y-109924000I250000J0D01*
G01*
X201897000Y-109924000D01*
G75*
G02*
X202147000Y-110174000I0J-250000D01*
G01*
X202147000Y-110849000D01*
G75*
G02*
X201897000Y-111099000I-250000J0D01*
G01*
G37*
%TD*%
%TO.C,C34*%
G36*
G01*
X198379500Y-114648000D02*
X198379500Y-113698000D01*
G75*
G02*
X198629500Y-113448000I250000J0D01*
G01*
X199304500Y-113448000D01*
G75*
G02*
X199554500Y-113698000I0J-250000D01*
G01*
X199554500Y-114648000D01*
G75*
G02*
X199304500Y-114898000I-250000J0D01*
G01*
X198629500Y-114898000D01*
G75*
G02*
X198379500Y-114648000I0J250000D01*
G01*
G37*
G36*
G01*
X196304500Y-114648000D02*
X196304500Y-113698000D01*
G75*
G02*
X196554500Y-113448000I250000J0D01*
G01*
X197229500Y-113448000D01*
G75*
G02*
X197479500Y-113698000I0J-250000D01*
G01*
X197479500Y-114648000D01*
G75*
G02*
X197229500Y-114898000I-250000J0D01*
G01*
X196554500Y-114898000D01*
G75*
G02*
X196304500Y-114648000I0J250000D01*
G01*
G37*
%TD*%
%TO.C,C32*%
G36*
G01*
X199459000Y-131539000D02*
X199459000Y-130589000D01*
G75*
G02*
X199709000Y-130339000I250000J0D01*
G01*
X200384000Y-130339000D01*
G75*
G02*
X200634000Y-130589000I0J-250000D01*
G01*
X200634000Y-131539000D01*
G75*
G02*
X200384000Y-131789000I-250000J0D01*
G01*
X199709000Y-131789000D01*
G75*
G02*
X199459000Y-131539000I0J250000D01*
G01*
G37*
G36*
G01*
X197384000Y-131539000D02*
X197384000Y-130589000D01*
G75*
G02*
X197634000Y-130339000I250000J0D01*
G01*
X198309000Y-130339000D01*
G75*
G02*
X198559000Y-130589000I0J-250000D01*
G01*
X198559000Y-131539000D01*
G75*
G02*
X198309000Y-131789000I-250000J0D01*
G01*
X197634000Y-131789000D01*
G75*
G02*
X197384000Y-131539000I0J250000D01*
G01*
G37*
%TD*%
D13*
%TO.C,U9*%
X196766000Y-111440000D03*
X196766000Y-109540000D03*
X198966000Y-109540000D03*
X198966000Y-110490000D03*
X198966000Y-111440000D03*
%TD*%
D14*
%TO.C,U8*%
X200359000Y-126304000D03*
X200359000Y-128204000D03*
X197659000Y-128204000D03*
X197659000Y-127254000D03*
X197659000Y-126304000D03*
%TD*%
%TO.C,R30*%
G36*
G01*
X192220001Y-110090000D02*
X191319999Y-110090000D01*
G75*
G02*
X191070000Y-109840001I0J249999D01*
G01*
X191070000Y-109139999D01*
G75*
G02*
X191319999Y-108890000I249999J0D01*
G01*
X192220001Y-108890000D01*
G75*
G02*
X192470000Y-109139999I0J-249999D01*
G01*
X192470000Y-109840001D01*
G75*
G02*
X192220001Y-110090000I-249999J0D01*
G01*
G37*
G36*
G01*
X192220001Y-112090000D02*
X191319999Y-112090000D01*
G75*
G02*
X191070000Y-111840001I0J249999D01*
G01*
X191070000Y-111139999D01*
G75*
G02*
X191319999Y-110890000I249999J0D01*
G01*
X192220001Y-110890000D01*
G75*
G02*
X192470000Y-111139999I0J-249999D01*
G01*
X192470000Y-111840001D01*
G75*
G02*
X192220001Y-112090000I-249999J0D01*
G01*
G37*
%TD*%
%TO.C,R14*%
G36*
G01*
X198609000Y-119818999D02*
X198609000Y-120719001D01*
G75*
G02*
X198359001Y-120969000I-249999J0D01*
G01*
X197658999Y-120969000D01*
G75*
G02*
X197409000Y-120719001I0J249999D01*
G01*
X197409000Y-119818999D01*
G75*
G02*
X197658999Y-119569000I249999J0D01*
G01*
X198359001Y-119569000D01*
G75*
G02*
X198609000Y-119818999I0J-249999D01*
G01*
G37*
G36*
G01*
X200609000Y-119818999D02*
X200609000Y-120719001D01*
G75*
G02*
X200359001Y-120969000I-249999J0D01*
G01*
X199658999Y-120969000D01*
G75*
G02*
X199409000Y-120719001I0J249999D01*
G01*
X199409000Y-119818999D01*
G75*
G02*
X199658999Y-119569000I249999J0D01*
G01*
X200359001Y-119569000D01*
G75*
G02*
X200609000Y-119818999I0J-249999D01*
G01*
G37*
%TD*%
%TO.C,R13*%
G36*
G01*
X179075501Y-107867500D02*
X178175499Y-107867500D01*
G75*
G02*
X177925500Y-107617501I0J249999D01*
G01*
X177925500Y-106917499D01*
G75*
G02*
X178175499Y-106667500I249999J0D01*
G01*
X179075501Y-106667500D01*
G75*
G02*
X179325500Y-106917499I0J-249999D01*
G01*
X179325500Y-107617501D01*
G75*
G02*
X179075501Y-107867500I-249999J0D01*
G01*
G37*
G36*
G01*
X179075501Y-109867500D02*
X178175499Y-109867500D01*
G75*
G02*
X177925500Y-109617501I0J249999D01*
G01*
X177925500Y-108917499D01*
G75*
G02*
X178175499Y-108667500I249999J0D01*
G01*
X179075501Y-108667500D01*
G75*
G02*
X179325500Y-108917499I0J-249999D01*
G01*
X179325500Y-109617501D01*
G75*
G02*
X179075501Y-109867500I-249999J0D01*
G01*
G37*
%TD*%
%TO.C,C31*%
G36*
G01*
X194785000Y-110040000D02*
X193835000Y-110040000D01*
G75*
G02*
X193585000Y-109790000I0J250000D01*
G01*
X193585000Y-109115000D01*
G75*
G02*
X193835000Y-108865000I250000J0D01*
G01*
X194785000Y-108865000D01*
G75*
G02*
X195035000Y-109115000I0J-250000D01*
G01*
X195035000Y-109790000D01*
G75*
G02*
X194785000Y-110040000I-250000J0D01*
G01*
G37*
G36*
G01*
X194785000Y-112115000D02*
X193835000Y-112115000D01*
G75*
G02*
X193585000Y-111865000I0J250000D01*
G01*
X193585000Y-111190000D01*
G75*
G02*
X193835000Y-110940000I250000J0D01*
G01*
X194785000Y-110940000D01*
G75*
G02*
X195035000Y-111190000I0J-250000D01*
G01*
X195035000Y-111865000D01*
G75*
G02*
X194785000Y-112115000I-250000J0D01*
G01*
G37*
%TD*%
%TO.C,C27*%
G36*
G01*
X198559000Y-117254000D02*
X198559000Y-118204000D01*
G75*
G02*
X198309000Y-118454000I-250000J0D01*
G01*
X197634000Y-118454000D01*
G75*
G02*
X197384000Y-118204000I0J250000D01*
G01*
X197384000Y-117254000D01*
G75*
G02*
X197634000Y-117004000I250000J0D01*
G01*
X198309000Y-117004000D01*
G75*
G02*
X198559000Y-117254000I0J-250000D01*
G01*
G37*
G36*
G01*
X200634000Y-117254000D02*
X200634000Y-118204000D01*
G75*
G02*
X200384000Y-118454000I-250000J0D01*
G01*
X199709000Y-118454000D01*
G75*
G02*
X199459000Y-118204000I0J250000D01*
G01*
X199459000Y-117254000D01*
G75*
G02*
X199709000Y-117004000I250000J0D01*
G01*
X200384000Y-117004000D01*
G75*
G02*
X200634000Y-117254000I0J-250000D01*
G01*
G37*
%TD*%
%TO.C,C26*%
G36*
G01*
X199459000Y-123284000D02*
X199459000Y-122334000D01*
G75*
G02*
X199709000Y-122084000I250000J0D01*
G01*
X200384000Y-122084000D01*
G75*
G02*
X200634000Y-122334000I0J-250000D01*
G01*
X200634000Y-123284000D01*
G75*
G02*
X200384000Y-123534000I-250000J0D01*
G01*
X199709000Y-123534000D01*
G75*
G02*
X199459000Y-123284000I0J250000D01*
G01*
G37*
G36*
G01*
X197384000Y-123284000D02*
X197384000Y-122334000D01*
G75*
G02*
X197634000Y-122084000I250000J0D01*
G01*
X198309000Y-122084000D01*
G75*
G02*
X198559000Y-122334000I0J-250000D01*
G01*
X198559000Y-123284000D01*
G75*
G02*
X198309000Y-123534000I-250000J0D01*
G01*
X197634000Y-123534000D01*
G75*
G02*
X197384000Y-123284000I0J250000D01*
G01*
G37*
%TD*%
%TO.C,C25*%
G36*
G01*
X195039000Y-126804000D02*
X194089000Y-126804000D01*
G75*
G02*
X193839000Y-126554000I0J250000D01*
G01*
X193839000Y-125879000D01*
G75*
G02*
X194089000Y-125629000I250000J0D01*
G01*
X195039000Y-125629000D01*
G75*
G02*
X195289000Y-125879000I0J-250000D01*
G01*
X195289000Y-126554000D01*
G75*
G02*
X195039000Y-126804000I-250000J0D01*
G01*
G37*
G36*
G01*
X195039000Y-128879000D02*
X194089000Y-128879000D01*
G75*
G02*
X193839000Y-128629000I0J250000D01*
G01*
X193839000Y-127954000D01*
G75*
G02*
X194089000Y-127704000I250000J0D01*
G01*
X195039000Y-127704000D01*
G75*
G02*
X195289000Y-127954000I0J-250000D01*
G01*
X195289000Y-128629000D01*
G75*
G02*
X195039000Y-128879000I-250000J0D01*
G01*
G37*
%TD*%
%TO.C,C7*%
G36*
G01*
X185743001Y-131503000D02*
X184842999Y-131503000D01*
G75*
G02*
X184593000Y-131253001I0J249999D01*
G01*
X184593000Y-130602999D01*
G75*
G02*
X184842999Y-130353000I249999J0D01*
G01*
X185743001Y-130353000D01*
G75*
G02*
X185993000Y-130602999I0J-249999D01*
G01*
X185993000Y-131253001D01*
G75*
G02*
X185743001Y-131503000I-249999J0D01*
G01*
G37*
G36*
G01*
X185743001Y-133553000D02*
X184842999Y-133553000D01*
G75*
G02*
X184593000Y-133303001I0J249999D01*
G01*
X184593000Y-132652999D01*
G75*
G02*
X184842999Y-132403000I249999J0D01*
G01*
X185743001Y-132403000D01*
G75*
G02*
X185993000Y-132652999I0J-249999D01*
G01*
X185993000Y-133303001D01*
G75*
G02*
X185743001Y-133553000I-249999J0D01*
G01*
G37*
%TD*%
D15*
%TO.C,J6*%
X174726600Y-66116200D03*
D16*
X174929800Y-64973200D03*
D17*
X174929800Y-67259200D03*
D18*
X185394600Y-65125600D03*
X185394600Y-67741800D03*
D19*
X184251600Y-68770500D03*
X183146700Y-68770500D03*
X182041800Y-68783200D03*
X180936900Y-68783200D03*
X179844700Y-68783200D03*
X178739800Y-68783200D03*
X177634900Y-68783200D03*
X176542700Y-68783200D03*
%TD*%
D20*
%TO.C,U4*%
X111785000Y-78980000D03*
X111785000Y-83580000D03*
X111785000Y-81280000D03*
D21*
X118085000Y-81280000D03*
%TD*%
%TO.C,U7*%
G36*
G01*
X144436000Y-93323000D02*
X144436000Y-91923000D01*
G75*
G02*
X144511000Y-91848000I75000J0D01*
G01*
X144661000Y-91848000D01*
G75*
G02*
X144736000Y-91923000I0J-75000D01*
G01*
X144736000Y-93323000D01*
G75*
G02*
X144661000Y-93398000I-75000J0D01*
G01*
X144511000Y-93398000D01*
G75*
G02*
X144436000Y-93323000I0J75000D01*
G01*
G37*
G36*
G01*
X144936000Y-93323000D02*
X144936000Y-91923000D01*
G75*
G02*
X145011000Y-91848000I75000J0D01*
G01*
X145161000Y-91848000D01*
G75*
G02*
X145236000Y-91923000I0J-75000D01*
G01*
X145236000Y-93323000D01*
G75*
G02*
X145161000Y-93398000I-75000J0D01*
G01*
X145011000Y-93398000D01*
G75*
G02*
X144936000Y-93323000I0J75000D01*
G01*
G37*
G36*
G01*
X145436000Y-93323000D02*
X145436000Y-91923000D01*
G75*
G02*
X145511000Y-91848000I75000J0D01*
G01*
X145661000Y-91848000D01*
G75*
G02*
X145736000Y-91923000I0J-75000D01*
G01*
X145736000Y-93323000D01*
G75*
G02*
X145661000Y-93398000I-75000J0D01*
G01*
X145511000Y-93398000D01*
G75*
G02*
X145436000Y-93323000I0J75000D01*
G01*
G37*
G36*
G01*
X145936000Y-93323000D02*
X145936000Y-91923000D01*
G75*
G02*
X146011000Y-91848000I75000J0D01*
G01*
X146161000Y-91848000D01*
G75*
G02*
X146236000Y-91923000I0J-75000D01*
G01*
X146236000Y-93323000D01*
G75*
G02*
X146161000Y-93398000I-75000J0D01*
G01*
X146011000Y-93398000D01*
G75*
G02*
X145936000Y-93323000I0J75000D01*
G01*
G37*
G36*
G01*
X146436000Y-93323000D02*
X146436000Y-91923000D01*
G75*
G02*
X146511000Y-91848000I75000J0D01*
G01*
X146661000Y-91848000D01*
G75*
G02*
X146736000Y-91923000I0J-75000D01*
G01*
X146736000Y-93323000D01*
G75*
G02*
X146661000Y-93398000I-75000J0D01*
G01*
X146511000Y-93398000D01*
G75*
G02*
X146436000Y-93323000I0J75000D01*
G01*
G37*
G36*
G01*
X146936000Y-93323000D02*
X146936000Y-91923000D01*
G75*
G02*
X147011000Y-91848000I75000J0D01*
G01*
X147161000Y-91848000D01*
G75*
G02*
X147236000Y-91923000I0J-75000D01*
G01*
X147236000Y-93323000D01*
G75*
G02*
X147161000Y-93398000I-75000J0D01*
G01*
X147011000Y-93398000D01*
G75*
G02*
X146936000Y-93323000I0J75000D01*
G01*
G37*
G36*
G01*
X147436000Y-93323000D02*
X147436000Y-91923000D01*
G75*
G02*
X147511000Y-91848000I75000J0D01*
G01*
X147661000Y-91848000D01*
G75*
G02*
X147736000Y-91923000I0J-75000D01*
G01*
X147736000Y-93323000D01*
G75*
G02*
X147661000Y-93398000I-75000J0D01*
G01*
X147511000Y-93398000D01*
G75*
G02*
X147436000Y-93323000I0J75000D01*
G01*
G37*
G36*
G01*
X147936000Y-93323000D02*
X147936000Y-91923000D01*
G75*
G02*
X148011000Y-91848000I75000J0D01*
G01*
X148161000Y-91848000D01*
G75*
G02*
X148236000Y-91923000I0J-75000D01*
G01*
X148236000Y-93323000D01*
G75*
G02*
X148161000Y-93398000I-75000J0D01*
G01*
X148011000Y-93398000D01*
G75*
G02*
X147936000Y-93323000I0J75000D01*
G01*
G37*
G36*
G01*
X148436000Y-93323000D02*
X148436000Y-91923000D01*
G75*
G02*
X148511000Y-91848000I75000J0D01*
G01*
X148661000Y-91848000D01*
G75*
G02*
X148736000Y-91923000I0J-75000D01*
G01*
X148736000Y-93323000D01*
G75*
G02*
X148661000Y-93398000I-75000J0D01*
G01*
X148511000Y-93398000D01*
G75*
G02*
X148436000Y-93323000I0J75000D01*
G01*
G37*
G36*
G01*
X148936000Y-93323000D02*
X148936000Y-91923000D01*
G75*
G02*
X149011000Y-91848000I75000J0D01*
G01*
X149161000Y-91848000D01*
G75*
G02*
X149236000Y-91923000I0J-75000D01*
G01*
X149236000Y-93323000D01*
G75*
G02*
X149161000Y-93398000I-75000J0D01*
G01*
X149011000Y-93398000D01*
G75*
G02*
X148936000Y-93323000I0J75000D01*
G01*
G37*
G36*
G01*
X149436000Y-93323000D02*
X149436000Y-91923000D01*
G75*
G02*
X149511000Y-91848000I75000J0D01*
G01*
X149661000Y-91848000D01*
G75*
G02*
X149736000Y-91923000I0J-75000D01*
G01*
X149736000Y-93323000D01*
G75*
G02*
X149661000Y-93398000I-75000J0D01*
G01*
X149511000Y-93398000D01*
G75*
G02*
X149436000Y-93323000I0J75000D01*
G01*
G37*
G36*
G01*
X149936000Y-93323000D02*
X149936000Y-91923000D01*
G75*
G02*
X150011000Y-91848000I75000J0D01*
G01*
X150161000Y-91848000D01*
G75*
G02*
X150236000Y-91923000I0J-75000D01*
G01*
X150236000Y-93323000D01*
G75*
G02*
X150161000Y-93398000I-75000J0D01*
G01*
X150011000Y-93398000D01*
G75*
G02*
X149936000Y-93323000I0J75000D01*
G01*
G37*
G36*
G01*
X150436000Y-93323000D02*
X150436000Y-91923000D01*
G75*
G02*
X150511000Y-91848000I75000J0D01*
G01*
X150661000Y-91848000D01*
G75*
G02*
X150736000Y-91923000I0J-75000D01*
G01*
X150736000Y-93323000D01*
G75*
G02*
X150661000Y-93398000I-75000J0D01*
G01*
X150511000Y-93398000D01*
G75*
G02*
X150436000Y-93323000I0J75000D01*
G01*
G37*
G36*
G01*
X150936000Y-93323000D02*
X150936000Y-91923000D01*
G75*
G02*
X151011000Y-91848000I75000J0D01*
G01*
X151161000Y-91848000D01*
G75*
G02*
X151236000Y-91923000I0J-75000D01*
G01*
X151236000Y-93323000D01*
G75*
G02*
X151161000Y-93398000I-75000J0D01*
G01*
X151011000Y-93398000D01*
G75*
G02*
X150936000Y-93323000I0J75000D01*
G01*
G37*
G36*
G01*
X151436000Y-93323000D02*
X151436000Y-91923000D01*
G75*
G02*
X151511000Y-91848000I75000J0D01*
G01*
X151661000Y-91848000D01*
G75*
G02*
X151736000Y-91923000I0J-75000D01*
G01*
X151736000Y-93323000D01*
G75*
G02*
X151661000Y-93398000I-75000J0D01*
G01*
X151511000Y-93398000D01*
G75*
G02*
X151436000Y-93323000I0J75000D01*
G01*
G37*
G36*
G01*
X151936000Y-93323000D02*
X151936000Y-91923000D01*
G75*
G02*
X152011000Y-91848000I75000J0D01*
G01*
X152161000Y-91848000D01*
G75*
G02*
X152236000Y-91923000I0J-75000D01*
G01*
X152236000Y-93323000D01*
G75*
G02*
X152161000Y-93398000I-75000J0D01*
G01*
X152011000Y-93398000D01*
G75*
G02*
X151936000Y-93323000I0J75000D01*
G01*
G37*
G36*
G01*
X153236000Y-94623000D02*
X153236000Y-94473000D01*
G75*
G02*
X153311000Y-94398000I75000J0D01*
G01*
X154711000Y-94398000D01*
G75*
G02*
X154786000Y-94473000I0J-75000D01*
G01*
X154786000Y-94623000D01*
G75*
G02*
X154711000Y-94698000I-75000J0D01*
G01*
X153311000Y-94698000D01*
G75*
G02*
X153236000Y-94623000I0J75000D01*
G01*
G37*
G36*
G01*
X153236000Y-95123000D02*
X153236000Y-94973000D01*
G75*
G02*
X153311000Y-94898000I75000J0D01*
G01*
X154711000Y-94898000D01*
G75*
G02*
X154786000Y-94973000I0J-75000D01*
G01*
X154786000Y-95123000D01*
G75*
G02*
X154711000Y-95198000I-75000J0D01*
G01*
X153311000Y-95198000D01*
G75*
G02*
X153236000Y-95123000I0J75000D01*
G01*
G37*
G36*
G01*
X153236000Y-95623000D02*
X153236000Y-95473000D01*
G75*
G02*
X153311000Y-95398000I75000J0D01*
G01*
X154711000Y-95398000D01*
G75*
G02*
X154786000Y-95473000I0J-75000D01*
G01*
X154786000Y-95623000D01*
G75*
G02*
X154711000Y-95698000I-75000J0D01*
G01*
X153311000Y-95698000D01*
G75*
G02*
X153236000Y-95623000I0J75000D01*
G01*
G37*
G36*
G01*
X153236000Y-96123000D02*
X153236000Y-95973000D01*
G75*
G02*
X153311000Y-95898000I75000J0D01*
G01*
X154711000Y-95898000D01*
G75*
G02*
X154786000Y-95973000I0J-75000D01*
G01*
X154786000Y-96123000D01*
G75*
G02*
X154711000Y-96198000I-75000J0D01*
G01*
X153311000Y-96198000D01*
G75*
G02*
X153236000Y-96123000I0J75000D01*
G01*
G37*
G36*
G01*
X153236000Y-96623000D02*
X153236000Y-96473000D01*
G75*
G02*
X153311000Y-96398000I75000J0D01*
G01*
X154711000Y-96398000D01*
G75*
G02*
X154786000Y-96473000I0J-75000D01*
G01*
X154786000Y-96623000D01*
G75*
G02*
X154711000Y-96698000I-75000J0D01*
G01*
X153311000Y-96698000D01*
G75*
G02*
X153236000Y-96623000I0J75000D01*
G01*
G37*
G36*
G01*
X153236000Y-97123000D02*
X153236000Y-96973000D01*
G75*
G02*
X153311000Y-96898000I75000J0D01*
G01*
X154711000Y-96898000D01*
G75*
G02*
X154786000Y-96973000I0J-75000D01*
G01*
X154786000Y-97123000D01*
G75*
G02*
X154711000Y-97198000I-75000J0D01*
G01*
X153311000Y-97198000D01*
G75*
G02*
X153236000Y-97123000I0J75000D01*
G01*
G37*
G36*
G01*
X153236000Y-97623000D02*
X153236000Y-97473000D01*
G75*
G02*
X153311000Y-97398000I75000J0D01*
G01*
X154711000Y-97398000D01*
G75*
G02*
X154786000Y-97473000I0J-75000D01*
G01*
X154786000Y-97623000D01*
G75*
G02*
X154711000Y-97698000I-75000J0D01*
G01*
X153311000Y-97698000D01*
G75*
G02*
X153236000Y-97623000I0J75000D01*
G01*
G37*
G36*
G01*
X153236000Y-98123000D02*
X153236000Y-97973000D01*
G75*
G02*
X153311000Y-97898000I75000J0D01*
G01*
X154711000Y-97898000D01*
G75*
G02*
X154786000Y-97973000I0J-75000D01*
G01*
X154786000Y-98123000D01*
G75*
G02*
X154711000Y-98198000I-75000J0D01*
G01*
X153311000Y-98198000D01*
G75*
G02*
X153236000Y-98123000I0J75000D01*
G01*
G37*
G36*
G01*
X153236000Y-98623000D02*
X153236000Y-98473000D01*
G75*
G02*
X153311000Y-98398000I75000J0D01*
G01*
X154711000Y-98398000D01*
G75*
G02*
X154786000Y-98473000I0J-75000D01*
G01*
X154786000Y-98623000D01*
G75*
G02*
X154711000Y-98698000I-75000J0D01*
G01*
X153311000Y-98698000D01*
G75*
G02*
X153236000Y-98623000I0J75000D01*
G01*
G37*
G36*
G01*
X153236000Y-99123000D02*
X153236000Y-98973000D01*
G75*
G02*
X153311000Y-98898000I75000J0D01*
G01*
X154711000Y-98898000D01*
G75*
G02*
X154786000Y-98973000I0J-75000D01*
G01*
X154786000Y-99123000D01*
G75*
G02*
X154711000Y-99198000I-75000J0D01*
G01*
X153311000Y-99198000D01*
G75*
G02*
X153236000Y-99123000I0J75000D01*
G01*
G37*
G36*
G01*
X153236000Y-99623000D02*
X153236000Y-99473000D01*
G75*
G02*
X153311000Y-99398000I75000J0D01*
G01*
X154711000Y-99398000D01*
G75*
G02*
X154786000Y-99473000I0J-75000D01*
G01*
X154786000Y-99623000D01*
G75*
G02*
X154711000Y-99698000I-75000J0D01*
G01*
X153311000Y-99698000D01*
G75*
G02*
X153236000Y-99623000I0J75000D01*
G01*
G37*
G36*
G01*
X153236000Y-100123000D02*
X153236000Y-99973000D01*
G75*
G02*
X153311000Y-99898000I75000J0D01*
G01*
X154711000Y-99898000D01*
G75*
G02*
X154786000Y-99973000I0J-75000D01*
G01*
X154786000Y-100123000D01*
G75*
G02*
X154711000Y-100198000I-75000J0D01*
G01*
X153311000Y-100198000D01*
G75*
G02*
X153236000Y-100123000I0J75000D01*
G01*
G37*
G36*
G01*
X153236000Y-100623000D02*
X153236000Y-100473000D01*
G75*
G02*
X153311000Y-100398000I75000J0D01*
G01*
X154711000Y-100398000D01*
G75*
G02*
X154786000Y-100473000I0J-75000D01*
G01*
X154786000Y-100623000D01*
G75*
G02*
X154711000Y-100698000I-75000J0D01*
G01*
X153311000Y-100698000D01*
G75*
G02*
X153236000Y-100623000I0J75000D01*
G01*
G37*
G36*
G01*
X153236000Y-101123000D02*
X153236000Y-100973000D01*
G75*
G02*
X153311000Y-100898000I75000J0D01*
G01*
X154711000Y-100898000D01*
G75*
G02*
X154786000Y-100973000I0J-75000D01*
G01*
X154786000Y-101123000D01*
G75*
G02*
X154711000Y-101198000I-75000J0D01*
G01*
X153311000Y-101198000D01*
G75*
G02*
X153236000Y-101123000I0J75000D01*
G01*
G37*
G36*
G01*
X153236000Y-101623000D02*
X153236000Y-101473000D01*
G75*
G02*
X153311000Y-101398000I75000J0D01*
G01*
X154711000Y-101398000D01*
G75*
G02*
X154786000Y-101473000I0J-75000D01*
G01*
X154786000Y-101623000D01*
G75*
G02*
X154711000Y-101698000I-75000J0D01*
G01*
X153311000Y-101698000D01*
G75*
G02*
X153236000Y-101623000I0J75000D01*
G01*
G37*
G36*
G01*
X153236000Y-102123000D02*
X153236000Y-101973000D01*
G75*
G02*
X153311000Y-101898000I75000J0D01*
G01*
X154711000Y-101898000D01*
G75*
G02*
X154786000Y-101973000I0J-75000D01*
G01*
X154786000Y-102123000D01*
G75*
G02*
X154711000Y-102198000I-75000J0D01*
G01*
X153311000Y-102198000D01*
G75*
G02*
X153236000Y-102123000I0J75000D01*
G01*
G37*
G36*
G01*
X151936000Y-104673000D02*
X151936000Y-103273000D01*
G75*
G02*
X152011000Y-103198000I75000J0D01*
G01*
X152161000Y-103198000D01*
G75*
G02*
X152236000Y-103273000I0J-75000D01*
G01*
X152236000Y-104673000D01*
G75*
G02*
X152161000Y-104748000I-75000J0D01*
G01*
X152011000Y-104748000D01*
G75*
G02*
X151936000Y-104673000I0J75000D01*
G01*
G37*
G36*
G01*
X151436000Y-104673000D02*
X151436000Y-103273000D01*
G75*
G02*
X151511000Y-103198000I75000J0D01*
G01*
X151661000Y-103198000D01*
G75*
G02*
X151736000Y-103273000I0J-75000D01*
G01*
X151736000Y-104673000D01*
G75*
G02*
X151661000Y-104748000I-75000J0D01*
G01*
X151511000Y-104748000D01*
G75*
G02*
X151436000Y-104673000I0J75000D01*
G01*
G37*
G36*
G01*
X150936000Y-104673000D02*
X150936000Y-103273000D01*
G75*
G02*
X151011000Y-103198000I75000J0D01*
G01*
X151161000Y-103198000D01*
G75*
G02*
X151236000Y-103273000I0J-75000D01*
G01*
X151236000Y-104673000D01*
G75*
G02*
X151161000Y-104748000I-75000J0D01*
G01*
X151011000Y-104748000D01*
G75*
G02*
X150936000Y-104673000I0J75000D01*
G01*
G37*
G36*
G01*
X150436000Y-104673000D02*
X150436000Y-103273000D01*
G75*
G02*
X150511000Y-103198000I75000J0D01*
G01*
X150661000Y-103198000D01*
G75*
G02*
X150736000Y-103273000I0J-75000D01*
G01*
X150736000Y-104673000D01*
G75*
G02*
X150661000Y-104748000I-75000J0D01*
G01*
X150511000Y-104748000D01*
G75*
G02*
X150436000Y-104673000I0J75000D01*
G01*
G37*
G36*
G01*
X149936000Y-104673000D02*
X149936000Y-103273000D01*
G75*
G02*
X150011000Y-103198000I75000J0D01*
G01*
X150161000Y-103198000D01*
G75*
G02*
X150236000Y-103273000I0J-75000D01*
G01*
X150236000Y-104673000D01*
G75*
G02*
X150161000Y-104748000I-75000J0D01*
G01*
X150011000Y-104748000D01*
G75*
G02*
X149936000Y-104673000I0J75000D01*
G01*
G37*
G36*
G01*
X149436000Y-104673000D02*
X149436000Y-103273000D01*
G75*
G02*
X149511000Y-103198000I75000J0D01*
G01*
X149661000Y-103198000D01*
G75*
G02*
X149736000Y-103273000I0J-75000D01*
G01*
X149736000Y-104673000D01*
G75*
G02*
X149661000Y-104748000I-75000J0D01*
G01*
X149511000Y-104748000D01*
G75*
G02*
X149436000Y-104673000I0J75000D01*
G01*
G37*
G36*
G01*
X148936000Y-104673000D02*
X148936000Y-103273000D01*
G75*
G02*
X149011000Y-103198000I75000J0D01*
G01*
X149161000Y-103198000D01*
G75*
G02*
X149236000Y-103273000I0J-75000D01*
G01*
X149236000Y-104673000D01*
G75*
G02*
X149161000Y-104748000I-75000J0D01*
G01*
X149011000Y-104748000D01*
G75*
G02*
X148936000Y-104673000I0J75000D01*
G01*
G37*
G36*
G01*
X148436000Y-104673000D02*
X148436000Y-103273000D01*
G75*
G02*
X148511000Y-103198000I75000J0D01*
G01*
X148661000Y-103198000D01*
G75*
G02*
X148736000Y-103273000I0J-75000D01*
G01*
X148736000Y-104673000D01*
G75*
G02*
X148661000Y-104748000I-75000J0D01*
G01*
X148511000Y-104748000D01*
G75*
G02*
X148436000Y-104673000I0J75000D01*
G01*
G37*
G36*
G01*
X147936000Y-104673000D02*
X147936000Y-103273000D01*
G75*
G02*
X148011000Y-103198000I75000J0D01*
G01*
X148161000Y-103198000D01*
G75*
G02*
X148236000Y-103273000I0J-75000D01*
G01*
X148236000Y-104673000D01*
G75*
G02*
X148161000Y-104748000I-75000J0D01*
G01*
X148011000Y-104748000D01*
G75*
G02*
X147936000Y-104673000I0J75000D01*
G01*
G37*
G36*
G01*
X147436000Y-104673000D02*
X147436000Y-103273000D01*
G75*
G02*
X147511000Y-103198000I75000J0D01*
G01*
X147661000Y-103198000D01*
G75*
G02*
X147736000Y-103273000I0J-75000D01*
G01*
X147736000Y-104673000D01*
G75*
G02*
X147661000Y-104748000I-75000J0D01*
G01*
X147511000Y-104748000D01*
G75*
G02*
X147436000Y-104673000I0J75000D01*
G01*
G37*
G36*
G01*
X146936000Y-104673000D02*
X146936000Y-103273000D01*
G75*
G02*
X147011000Y-103198000I75000J0D01*
G01*
X147161000Y-103198000D01*
G75*
G02*
X147236000Y-103273000I0J-75000D01*
G01*
X147236000Y-104673000D01*
G75*
G02*
X147161000Y-104748000I-75000J0D01*
G01*
X147011000Y-104748000D01*
G75*
G02*
X146936000Y-104673000I0J75000D01*
G01*
G37*
G36*
G01*
X146436000Y-104673000D02*
X146436000Y-103273000D01*
G75*
G02*
X146511000Y-103198000I75000J0D01*
G01*
X146661000Y-103198000D01*
G75*
G02*
X146736000Y-103273000I0J-75000D01*
G01*
X146736000Y-104673000D01*
G75*
G02*
X146661000Y-104748000I-75000J0D01*
G01*
X146511000Y-104748000D01*
G75*
G02*
X146436000Y-104673000I0J75000D01*
G01*
G37*
G36*
G01*
X145936000Y-104673000D02*
X145936000Y-103273000D01*
G75*
G02*
X146011000Y-103198000I75000J0D01*
G01*
X146161000Y-103198000D01*
G75*
G02*
X146236000Y-103273000I0J-75000D01*
G01*
X146236000Y-104673000D01*
G75*
G02*
X146161000Y-104748000I-75000J0D01*
G01*
X146011000Y-104748000D01*
G75*
G02*
X145936000Y-104673000I0J75000D01*
G01*
G37*
G36*
G01*
X145436000Y-104673000D02*
X145436000Y-103273000D01*
G75*
G02*
X145511000Y-103198000I75000J0D01*
G01*
X145661000Y-103198000D01*
G75*
G02*
X145736000Y-103273000I0J-75000D01*
G01*
X145736000Y-104673000D01*
G75*
G02*
X145661000Y-104748000I-75000J0D01*
G01*
X145511000Y-104748000D01*
G75*
G02*
X145436000Y-104673000I0J75000D01*
G01*
G37*
G36*
G01*
X144936000Y-104673000D02*
X144936000Y-103273000D01*
G75*
G02*
X145011000Y-103198000I75000J0D01*
G01*
X145161000Y-103198000D01*
G75*
G02*
X145236000Y-103273000I0J-75000D01*
G01*
X145236000Y-104673000D01*
G75*
G02*
X145161000Y-104748000I-75000J0D01*
G01*
X145011000Y-104748000D01*
G75*
G02*
X144936000Y-104673000I0J75000D01*
G01*
G37*
G36*
G01*
X144436000Y-104673000D02*
X144436000Y-103273000D01*
G75*
G02*
X144511000Y-103198000I75000J0D01*
G01*
X144661000Y-103198000D01*
G75*
G02*
X144736000Y-103273000I0J-75000D01*
G01*
X144736000Y-104673000D01*
G75*
G02*
X144661000Y-104748000I-75000J0D01*
G01*
X144511000Y-104748000D01*
G75*
G02*
X144436000Y-104673000I0J75000D01*
G01*
G37*
G36*
G01*
X141886000Y-102123000D02*
X141886000Y-101973000D01*
G75*
G02*
X141961000Y-101898000I75000J0D01*
G01*
X143361000Y-101898000D01*
G75*
G02*
X143436000Y-101973000I0J-75000D01*
G01*
X143436000Y-102123000D01*
G75*
G02*
X143361000Y-102198000I-75000J0D01*
G01*
X141961000Y-102198000D01*
G75*
G02*
X141886000Y-102123000I0J75000D01*
G01*
G37*
G36*
G01*
X141886000Y-101623000D02*
X141886000Y-101473000D01*
G75*
G02*
X141961000Y-101398000I75000J0D01*
G01*
X143361000Y-101398000D01*
G75*
G02*
X143436000Y-101473000I0J-75000D01*
G01*
X143436000Y-101623000D01*
G75*
G02*
X143361000Y-101698000I-75000J0D01*
G01*
X141961000Y-101698000D01*
G75*
G02*
X141886000Y-101623000I0J75000D01*
G01*
G37*
G36*
G01*
X141886000Y-101123000D02*
X141886000Y-100973000D01*
G75*
G02*
X141961000Y-100898000I75000J0D01*
G01*
X143361000Y-100898000D01*
G75*
G02*
X143436000Y-100973000I0J-75000D01*
G01*
X143436000Y-101123000D01*
G75*
G02*
X143361000Y-101198000I-75000J0D01*
G01*
X141961000Y-101198000D01*
G75*
G02*
X141886000Y-101123000I0J75000D01*
G01*
G37*
G36*
G01*
X141886000Y-100623000D02*
X141886000Y-100473000D01*
G75*
G02*
X141961000Y-100398000I75000J0D01*
G01*
X143361000Y-100398000D01*
G75*
G02*
X143436000Y-100473000I0J-75000D01*
G01*
X143436000Y-100623000D01*
G75*
G02*
X143361000Y-100698000I-75000J0D01*
G01*
X141961000Y-100698000D01*
G75*
G02*
X141886000Y-100623000I0J75000D01*
G01*
G37*
G36*
G01*
X141886000Y-100123000D02*
X141886000Y-99973000D01*
G75*
G02*
X141961000Y-99898000I75000J0D01*
G01*
X143361000Y-99898000D01*
G75*
G02*
X143436000Y-99973000I0J-75000D01*
G01*
X143436000Y-100123000D01*
G75*
G02*
X143361000Y-100198000I-75000J0D01*
G01*
X141961000Y-100198000D01*
G75*
G02*
X141886000Y-100123000I0J75000D01*
G01*
G37*
G36*
G01*
X141886000Y-99623000D02*
X141886000Y-99473000D01*
G75*
G02*
X141961000Y-99398000I75000J0D01*
G01*
X143361000Y-99398000D01*
G75*
G02*
X143436000Y-99473000I0J-75000D01*
G01*
X143436000Y-99623000D01*
G75*
G02*
X143361000Y-99698000I-75000J0D01*
G01*
X141961000Y-99698000D01*
G75*
G02*
X141886000Y-99623000I0J75000D01*
G01*
G37*
G36*
G01*
X141886000Y-99123000D02*
X141886000Y-98973000D01*
G75*
G02*
X141961000Y-98898000I75000J0D01*
G01*
X143361000Y-98898000D01*
G75*
G02*
X143436000Y-98973000I0J-75000D01*
G01*
X143436000Y-99123000D01*
G75*
G02*
X143361000Y-99198000I-75000J0D01*
G01*
X141961000Y-99198000D01*
G75*
G02*
X141886000Y-99123000I0J75000D01*
G01*
G37*
G36*
G01*
X141886000Y-98623000D02*
X141886000Y-98473000D01*
G75*
G02*
X141961000Y-98398000I75000J0D01*
G01*
X143361000Y-98398000D01*
G75*
G02*
X143436000Y-98473000I0J-75000D01*
G01*
X143436000Y-98623000D01*
G75*
G02*
X143361000Y-98698000I-75000J0D01*
G01*
X141961000Y-98698000D01*
G75*
G02*
X141886000Y-98623000I0J75000D01*
G01*
G37*
G36*
G01*
X141886000Y-98123000D02*
X141886000Y-97973000D01*
G75*
G02*
X141961000Y-97898000I75000J0D01*
G01*
X143361000Y-97898000D01*
G75*
G02*
X143436000Y-97973000I0J-75000D01*
G01*
X143436000Y-98123000D01*
G75*
G02*
X143361000Y-98198000I-75000J0D01*
G01*
X141961000Y-98198000D01*
G75*
G02*
X141886000Y-98123000I0J75000D01*
G01*
G37*
G36*
G01*
X141886000Y-97623000D02*
X141886000Y-97473000D01*
G75*
G02*
X141961000Y-97398000I75000J0D01*
G01*
X143361000Y-97398000D01*
G75*
G02*
X143436000Y-97473000I0J-75000D01*
G01*
X143436000Y-97623000D01*
G75*
G02*
X143361000Y-97698000I-75000J0D01*
G01*
X141961000Y-97698000D01*
G75*
G02*
X141886000Y-97623000I0J75000D01*
G01*
G37*
G36*
G01*
X141886000Y-97123000D02*
X141886000Y-96973000D01*
G75*
G02*
X141961000Y-96898000I75000J0D01*
G01*
X143361000Y-96898000D01*
G75*
G02*
X143436000Y-96973000I0J-75000D01*
G01*
X143436000Y-97123000D01*
G75*
G02*
X143361000Y-97198000I-75000J0D01*
G01*
X141961000Y-97198000D01*
G75*
G02*
X141886000Y-97123000I0J75000D01*
G01*
G37*
G36*
G01*
X141886000Y-96623000D02*
X141886000Y-96473000D01*
G75*
G02*
X141961000Y-96398000I75000J0D01*
G01*
X143361000Y-96398000D01*
G75*
G02*
X143436000Y-96473000I0J-75000D01*
G01*
X143436000Y-96623000D01*
G75*
G02*
X143361000Y-96698000I-75000J0D01*
G01*
X141961000Y-96698000D01*
G75*
G02*
X141886000Y-96623000I0J75000D01*
G01*
G37*
G36*
G01*
X141886000Y-96123000D02*
X141886000Y-95973000D01*
G75*
G02*
X141961000Y-95898000I75000J0D01*
G01*
X143361000Y-95898000D01*
G75*
G02*
X143436000Y-95973000I0J-75000D01*
G01*
X143436000Y-96123000D01*
G75*
G02*
X143361000Y-96198000I-75000J0D01*
G01*
X141961000Y-96198000D01*
G75*
G02*
X141886000Y-96123000I0J75000D01*
G01*
G37*
G36*
G01*
X141886000Y-95623000D02*
X141886000Y-95473000D01*
G75*
G02*
X141961000Y-95398000I75000J0D01*
G01*
X143361000Y-95398000D01*
G75*
G02*
X143436000Y-95473000I0J-75000D01*
G01*
X143436000Y-95623000D01*
G75*
G02*
X143361000Y-95698000I-75000J0D01*
G01*
X141961000Y-95698000D01*
G75*
G02*
X141886000Y-95623000I0J75000D01*
G01*
G37*
G36*
G01*
X141886000Y-95123000D02*
X141886000Y-94973000D01*
G75*
G02*
X141961000Y-94898000I75000J0D01*
G01*
X143361000Y-94898000D01*
G75*
G02*
X143436000Y-94973000I0J-75000D01*
G01*
X143436000Y-95123000D01*
G75*
G02*
X143361000Y-95198000I-75000J0D01*
G01*
X141961000Y-95198000D01*
G75*
G02*
X141886000Y-95123000I0J75000D01*
G01*
G37*
G36*
G01*
X141886000Y-94623000D02*
X141886000Y-94473000D01*
G75*
G02*
X141961000Y-94398000I75000J0D01*
G01*
X143361000Y-94398000D01*
G75*
G02*
X143436000Y-94473000I0J-75000D01*
G01*
X143436000Y-94623000D01*
G75*
G02*
X143361000Y-94698000I-75000J0D01*
G01*
X141961000Y-94698000D01*
G75*
G02*
X141886000Y-94623000I0J75000D01*
G01*
G37*
%TD*%
%TO.C,R29*%
G36*
G01*
X152292000Y-72586001D02*
X152292000Y-71685999D01*
G75*
G02*
X152541999Y-71436000I249999J0D01*
G01*
X153242001Y-71436000D01*
G75*
G02*
X153492000Y-71685999I0J-249999D01*
G01*
X153492000Y-72586001D01*
G75*
G02*
X153242001Y-72836000I-249999J0D01*
G01*
X152541999Y-72836000D01*
G75*
G02*
X152292000Y-72586001I0J249999D01*
G01*
G37*
G36*
G01*
X150292000Y-72586001D02*
X150292000Y-71685999D01*
G75*
G02*
X150541999Y-71436000I249999J0D01*
G01*
X151242001Y-71436000D01*
G75*
G02*
X151492000Y-71685999I0J-249999D01*
G01*
X151492000Y-72586001D01*
G75*
G02*
X151242001Y-72836000I-249999J0D01*
G01*
X150541999Y-72836000D01*
G75*
G02*
X150292000Y-72586001I0J249999D01*
G01*
G37*
%TD*%
%TO.C,R23*%
G36*
G01*
X152292000Y-69792001D02*
X152292000Y-68891999D01*
G75*
G02*
X152541999Y-68642000I249999J0D01*
G01*
X153242001Y-68642000D01*
G75*
G02*
X153492000Y-68891999I0J-249999D01*
G01*
X153492000Y-69792001D01*
G75*
G02*
X153242001Y-70042000I-249999J0D01*
G01*
X152541999Y-70042000D01*
G75*
G02*
X152292000Y-69792001I0J249999D01*
G01*
G37*
G36*
G01*
X150292000Y-69792001D02*
X150292000Y-68891999D01*
G75*
G02*
X150541999Y-68642000I249999J0D01*
G01*
X151242001Y-68642000D01*
G75*
G02*
X151492000Y-68891999I0J-249999D01*
G01*
X151492000Y-69792001D01*
G75*
G02*
X151242001Y-70042000I-249999J0D01*
G01*
X150541999Y-70042000D01*
G75*
G02*
X150292000Y-69792001I0J249999D01*
G01*
G37*
%TD*%
%TO.C,R12*%
G36*
G01*
X145142000Y-68891999D02*
X145142000Y-69792001D01*
G75*
G02*
X144892001Y-70042000I-249999J0D01*
G01*
X144191999Y-70042000D01*
G75*
G02*
X143942000Y-69792001I0J249999D01*
G01*
X143942000Y-68891999D01*
G75*
G02*
X144191999Y-68642000I249999J0D01*
G01*
X144892001Y-68642000D01*
G75*
G02*
X145142000Y-68891999I0J-249999D01*
G01*
G37*
G36*
G01*
X147142000Y-68891999D02*
X147142000Y-69792001D01*
G75*
G02*
X146892001Y-70042000I-249999J0D01*
G01*
X146191999Y-70042000D01*
G75*
G02*
X145942000Y-69792001I0J249999D01*
G01*
X145942000Y-68891999D01*
G75*
G02*
X146191999Y-68642000I249999J0D01*
G01*
X146892001Y-68642000D01*
G75*
G02*
X147142000Y-68891999I0J-249999D01*
G01*
G37*
%TD*%
%TO.C,R11*%
G36*
G01*
X145142000Y-71685999D02*
X145142000Y-72586001D01*
G75*
G02*
X144892001Y-72836000I-249999J0D01*
G01*
X144191999Y-72836000D01*
G75*
G02*
X143942000Y-72586001I0J249999D01*
G01*
X143942000Y-71685999D01*
G75*
G02*
X144191999Y-71436000I249999J0D01*
G01*
X144892001Y-71436000D01*
G75*
G02*
X145142000Y-71685999I0J-249999D01*
G01*
G37*
G36*
G01*
X147142000Y-71685999D02*
X147142000Y-72586001D01*
G75*
G02*
X146892001Y-72836000I-249999J0D01*
G01*
X146191999Y-72836000D01*
G75*
G02*
X145942000Y-72586001I0J249999D01*
G01*
X145942000Y-71685999D01*
G75*
G02*
X146191999Y-71436000I249999J0D01*
G01*
X146892001Y-71436000D01*
G75*
G02*
X147142000Y-71685999I0J-249999D01*
G01*
G37*
%TD*%
%TO.C,C24*%
G36*
G01*
X112255000Y-74940000D02*
X112255000Y-76190000D01*
G75*
G02*
X112005000Y-76440000I-250000J0D01*
G01*
X111080000Y-76440000D01*
G75*
G02*
X110830000Y-76190000I0J250000D01*
G01*
X110830000Y-74940000D01*
G75*
G02*
X111080000Y-74690000I250000J0D01*
G01*
X112005000Y-74690000D01*
G75*
G02*
X112255000Y-74940000I0J-250000D01*
G01*
G37*
G36*
G01*
X115230000Y-74940000D02*
X115230000Y-76190000D01*
G75*
G02*
X114980000Y-76440000I-250000J0D01*
G01*
X114055000Y-76440000D01*
G75*
G02*
X113805000Y-76190000I0J250000D01*
G01*
X113805000Y-74940000D01*
G75*
G02*
X114055000Y-74690000I250000J0D01*
G01*
X114980000Y-74690000D01*
G75*
G02*
X115230000Y-74940000I0J-250000D01*
G01*
G37*
%TD*%
%TO.C,C23*%
G36*
G01*
X113805000Y-87620000D02*
X113805000Y-86370000D01*
G75*
G02*
X114055000Y-86120000I250000J0D01*
G01*
X114980000Y-86120000D01*
G75*
G02*
X115230000Y-86370000I0J-250000D01*
G01*
X115230000Y-87620000D01*
G75*
G02*
X114980000Y-87870000I-250000J0D01*
G01*
X114055000Y-87870000D01*
G75*
G02*
X113805000Y-87620000I0J250000D01*
G01*
G37*
G36*
G01*
X110830000Y-87620000D02*
X110830000Y-86370000D01*
G75*
G02*
X111080000Y-86120000I250000J0D01*
G01*
X112005000Y-86120000D01*
G75*
G02*
X112255000Y-86370000I0J-250000D01*
G01*
X112255000Y-87620000D01*
G75*
G02*
X112005000Y-87870000I-250000J0D01*
G01*
X111080000Y-87870000D01*
G75*
G02*
X110830000Y-87620000I0J250000D01*
G01*
G37*
%TD*%
D20*
%TO.C,U5*%
X111785000Y-63740000D03*
X111785000Y-68340000D03*
X111785000Y-66040000D03*
D21*
X118085000Y-66040000D03*
%TD*%
D22*
%TO.C,J3*%
X145796000Y-80944000D03*
X145796000Y-77044000D03*
X147066000Y-80944000D03*
X147066000Y-77044000D03*
X148336000Y-80944000D03*
X148336000Y-77044000D03*
X149606000Y-80944000D03*
X149606000Y-77044000D03*
X150876000Y-80944000D03*
X150876000Y-77044000D03*
%TD*%
D13*
%TO.C,U6*%
X179240000Y-88707000D03*
X179240000Y-86807000D03*
X181440000Y-86807000D03*
X181440000Y-87757000D03*
X181440000Y-88707000D03*
%TD*%
D23*
%TO.C,U3*%
X108975000Y-115300000D03*
X108975000Y-114800000D03*
X108975000Y-114300000D03*
X108975000Y-113800000D03*
X108975000Y-113300000D03*
X113275000Y-113300000D03*
X113275000Y-113800000D03*
X113275000Y-114300000D03*
X113275000Y-114800000D03*
X113275000Y-115300000D03*
%TD*%
D14*
%TO.C,U2*%
X181182000Y-121732000D03*
X181182000Y-123632000D03*
X178482000Y-123632000D03*
X178482000Y-122682000D03*
X178482000Y-121732000D03*
%TD*%
D23*
%TO.C,U1*%
X181982000Y-126127000D03*
X181982000Y-126627000D03*
X181982000Y-127127000D03*
X181982000Y-127627000D03*
X181982000Y-128127000D03*
X177682000Y-128127000D03*
X177682000Y-127627000D03*
X177682000Y-127127000D03*
X177682000Y-126627000D03*
X177682000Y-126127000D03*
%TD*%
%TO.C,R22*%
G36*
G01*
X160712999Y-93414000D02*
X161613001Y-93414000D01*
G75*
G02*
X161863000Y-93663999I0J-249999D01*
G01*
X161863000Y-94314001D01*
G75*
G02*
X161613001Y-94564000I-249999J0D01*
G01*
X160712999Y-94564000D01*
G75*
G02*
X160463000Y-94314001I0J249999D01*
G01*
X160463000Y-93663999D01*
G75*
G02*
X160712999Y-93414000I249999J0D01*
G01*
G37*
G36*
G01*
X160712999Y-91364000D02*
X161613001Y-91364000D01*
G75*
G02*
X161863000Y-91613999I0J-249999D01*
G01*
X161863000Y-92264001D01*
G75*
G02*
X161613001Y-92514000I-249999J0D01*
G01*
X160712999Y-92514000D01*
G75*
G02*
X160463000Y-92264001I0J249999D01*
G01*
X160463000Y-91613999D01*
G75*
G02*
X160712999Y-91364000I249999J0D01*
G01*
G37*
%TD*%
%TO.C,R21*%
G36*
G01*
X172789000Y-94557001D02*
X172789000Y-93656999D01*
G75*
G02*
X173038999Y-93407000I249999J0D01*
G01*
X173689001Y-93407000D01*
G75*
G02*
X173939000Y-93656999I0J-249999D01*
G01*
X173939000Y-94557001D01*
G75*
G02*
X173689001Y-94807000I-249999J0D01*
G01*
X173038999Y-94807000D01*
G75*
G02*
X172789000Y-94557001I0J249999D01*
G01*
G37*
G36*
G01*
X170739000Y-94557001D02*
X170739000Y-93656999D01*
G75*
G02*
X170988999Y-93407000I249999J0D01*
G01*
X171639001Y-93407000D01*
G75*
G02*
X171889000Y-93656999I0J-249999D01*
G01*
X171889000Y-94557001D01*
G75*
G02*
X171639001Y-94807000I-249999J0D01*
G01*
X170988999Y-94807000D01*
G75*
G02*
X170739000Y-94557001I0J249999D01*
G01*
G37*
%TD*%
%TO.C,R20*%
G36*
G01*
X172789000Y-88080001D02*
X172789000Y-87179999D01*
G75*
G02*
X173038999Y-86930000I249999J0D01*
G01*
X173689001Y-86930000D01*
G75*
G02*
X173939000Y-87179999I0J-249999D01*
G01*
X173939000Y-88080001D01*
G75*
G02*
X173689001Y-88330000I-249999J0D01*
G01*
X173038999Y-88330000D01*
G75*
G02*
X172789000Y-88080001I0J249999D01*
G01*
G37*
G36*
G01*
X170739000Y-88080001D02*
X170739000Y-87179999D01*
G75*
G02*
X170988999Y-86930000I249999J0D01*
G01*
X171639001Y-86930000D01*
G75*
G02*
X171889000Y-87179999I0J-249999D01*
G01*
X171889000Y-88080001D01*
G75*
G02*
X171639001Y-88330000I-249999J0D01*
G01*
X170988999Y-88330000D01*
G75*
G02*
X170739000Y-88080001I0J249999D01*
G01*
G37*
%TD*%
%TO.C,R19*%
G36*
G01*
X123248000Y-90227999D02*
X123248000Y-91128001D01*
G75*
G02*
X122998001Y-91378000I-249999J0D01*
G01*
X122347999Y-91378000D01*
G75*
G02*
X122098000Y-91128001I0J249999D01*
G01*
X122098000Y-90227999D01*
G75*
G02*
X122347999Y-89978000I249999J0D01*
G01*
X122998001Y-89978000D01*
G75*
G02*
X123248000Y-90227999I0J-249999D01*
G01*
G37*
G36*
G01*
X125298000Y-90227999D02*
X125298000Y-91128001D01*
G75*
G02*
X125048001Y-91378000I-249999J0D01*
G01*
X124397999Y-91378000D01*
G75*
G02*
X124148000Y-91128001I0J249999D01*
G01*
X124148000Y-90227999D01*
G75*
G02*
X124397999Y-89978000I249999J0D01*
G01*
X125048001Y-89978000D01*
G75*
G02*
X125298000Y-90227999I0J-249999D01*
G01*
G37*
%TD*%
%TO.C,R18*%
G36*
G01*
X124645000Y-87179999D02*
X124645000Y-88080001D01*
G75*
G02*
X124395001Y-88330000I-249999J0D01*
G01*
X123744999Y-88330000D01*
G75*
G02*
X123495000Y-88080001I0J249999D01*
G01*
X123495000Y-87179999D01*
G75*
G02*
X123744999Y-86930000I249999J0D01*
G01*
X124395001Y-86930000D01*
G75*
G02*
X124645000Y-87179999I0J-249999D01*
G01*
G37*
G36*
G01*
X126695000Y-87179999D02*
X126695000Y-88080001D01*
G75*
G02*
X126445001Y-88330000I-249999J0D01*
G01*
X125794999Y-88330000D01*
G75*
G02*
X125545000Y-88080001I0J249999D01*
G01*
X125545000Y-87179999D01*
G75*
G02*
X125794999Y-86930000I249999J0D01*
G01*
X126445001Y-86930000D01*
G75*
G02*
X126695000Y-87179999I0J-249999D01*
G01*
G37*
%TD*%
%TO.C,R17*%
G36*
G01*
X124518000Y-93529999D02*
X124518000Y-94430001D01*
G75*
G02*
X124268001Y-94680000I-249999J0D01*
G01*
X123617999Y-94680000D01*
G75*
G02*
X123368000Y-94430001I0J249999D01*
G01*
X123368000Y-93529999D01*
G75*
G02*
X123617999Y-93280000I249999J0D01*
G01*
X124268001Y-93280000D01*
G75*
G02*
X124518000Y-93529999I0J-249999D01*
G01*
G37*
G36*
G01*
X126568000Y-93529999D02*
X126568000Y-94430001D01*
G75*
G02*
X126318001Y-94680000I-249999J0D01*
G01*
X125667999Y-94680000D01*
G75*
G02*
X125418000Y-94430001I0J249999D01*
G01*
X125418000Y-93529999D01*
G75*
G02*
X125667999Y-93280000I249999J0D01*
G01*
X126318001Y-93280000D01*
G75*
G02*
X126568000Y-93529999I0J-249999D01*
G01*
G37*
%TD*%
%TO.C,R16*%
G36*
G01*
X142805999Y-62807000D02*
X143706001Y-62807000D01*
G75*
G02*
X143956000Y-63056999I0J-249999D01*
G01*
X143956000Y-63707001D01*
G75*
G02*
X143706001Y-63957000I-249999J0D01*
G01*
X142805999Y-63957000D01*
G75*
G02*
X142556000Y-63707001I0J249999D01*
G01*
X142556000Y-63056999D01*
G75*
G02*
X142805999Y-62807000I249999J0D01*
G01*
G37*
G36*
G01*
X142805999Y-60757000D02*
X143706001Y-60757000D01*
G75*
G02*
X143956000Y-61006999I0J-249999D01*
G01*
X143956000Y-61657001D01*
G75*
G02*
X143706001Y-61907000I-249999J0D01*
G01*
X142805999Y-61907000D01*
G75*
G02*
X142556000Y-61657001I0J249999D01*
G01*
X142556000Y-61006999D01*
G75*
G02*
X142805999Y-60757000I249999J0D01*
G01*
G37*
%TD*%
%TO.C,R15*%
G36*
G01*
X153854999Y-62807000D02*
X154755001Y-62807000D01*
G75*
G02*
X155005000Y-63056999I0J-249999D01*
G01*
X155005000Y-63707001D01*
G75*
G02*
X154755001Y-63957000I-249999J0D01*
G01*
X153854999Y-63957000D01*
G75*
G02*
X153605000Y-63707001I0J249999D01*
G01*
X153605000Y-63056999D01*
G75*
G02*
X153854999Y-62807000I249999J0D01*
G01*
G37*
G36*
G01*
X153854999Y-60757000D02*
X154755001Y-60757000D01*
G75*
G02*
X155005000Y-61006999I0J-249999D01*
G01*
X155005000Y-61657001D01*
G75*
G02*
X154755001Y-61907000I-249999J0D01*
G01*
X153854999Y-61907000D01*
G75*
G02*
X153605000Y-61657001I0J249999D01*
G01*
X153605000Y-61006999D01*
G75*
G02*
X153854999Y-60757000I249999J0D01*
G01*
G37*
%TD*%
%TO.C,R10*%
G36*
G01*
X161740000Y-102685001D02*
X161740000Y-101784999D01*
G75*
G02*
X161989999Y-101535000I249999J0D01*
G01*
X162640001Y-101535000D01*
G75*
G02*
X162890000Y-101784999I0J-249999D01*
G01*
X162890000Y-102685001D01*
G75*
G02*
X162640001Y-102935000I-249999J0D01*
G01*
X161989999Y-102935000D01*
G75*
G02*
X161740000Y-102685001I0J249999D01*
G01*
G37*
G36*
G01*
X159690000Y-102685001D02*
X159690000Y-101784999D01*
G75*
G02*
X159939999Y-101535000I249999J0D01*
G01*
X160590001Y-101535000D01*
G75*
G02*
X160840000Y-101784999I0J-249999D01*
G01*
X160840000Y-102685001D01*
G75*
G02*
X160590001Y-102935000I-249999J0D01*
G01*
X159939999Y-102935000D01*
G75*
G02*
X159690000Y-102685001I0J249999D01*
G01*
G37*
%TD*%
%TO.C,R9*%
G36*
G01*
X130625000Y-99256001D02*
X130625000Y-98355999D01*
G75*
G02*
X130874999Y-98106000I249999J0D01*
G01*
X131525001Y-98106000D01*
G75*
G02*
X131775000Y-98355999I0J-249999D01*
G01*
X131775000Y-99256001D01*
G75*
G02*
X131525001Y-99506000I-249999J0D01*
G01*
X130874999Y-99506000D01*
G75*
G02*
X130625000Y-99256001I0J249999D01*
G01*
G37*
G36*
G01*
X128575000Y-99256001D02*
X128575000Y-98355999D01*
G75*
G02*
X128824999Y-98106000I249999J0D01*
G01*
X129475001Y-98106000D01*
G75*
G02*
X129725000Y-98355999I0J-249999D01*
G01*
X129725000Y-99256001D01*
G75*
G02*
X129475001Y-99506000I-249999J0D01*
G01*
X128824999Y-99506000D01*
G75*
G02*
X128575000Y-99256001I0J249999D01*
G01*
G37*
%TD*%
%TO.C,R8*%
G36*
G01*
X180917001Y-92514000D02*
X180016999Y-92514000D01*
G75*
G02*
X179767000Y-92264001I0J249999D01*
G01*
X179767000Y-91613999D01*
G75*
G02*
X180016999Y-91364000I249999J0D01*
G01*
X180917001Y-91364000D01*
G75*
G02*
X181167000Y-91613999I0J-249999D01*
G01*
X181167000Y-92264001D01*
G75*
G02*
X180917001Y-92514000I-249999J0D01*
G01*
G37*
G36*
G01*
X180917001Y-94564000D02*
X180016999Y-94564000D01*
G75*
G02*
X179767000Y-94314001I0J249999D01*
G01*
X179767000Y-93663999D01*
G75*
G02*
X180016999Y-93414000I249999J0D01*
G01*
X180917001Y-93414000D01*
G75*
G02*
X181167000Y-93663999I0J-249999D01*
G01*
X181167000Y-94314001D01*
G75*
G02*
X180917001Y-94564000I-249999J0D01*
G01*
G37*
%TD*%
%TO.C,R7*%
G36*
G01*
X111309999Y-124910000D02*
X112210001Y-124910000D01*
G75*
G02*
X112460000Y-125159999I0J-249999D01*
G01*
X112460000Y-125810001D01*
G75*
G02*
X112210001Y-126060000I-249999J0D01*
G01*
X111309999Y-126060000D01*
G75*
G02*
X111060000Y-125810001I0J249999D01*
G01*
X111060000Y-125159999D01*
G75*
G02*
X111309999Y-124910000I249999J0D01*
G01*
G37*
G36*
G01*
X111309999Y-122860000D02*
X112210001Y-122860000D01*
G75*
G02*
X112460000Y-123109999I0J-249999D01*
G01*
X112460000Y-123760001D01*
G75*
G02*
X112210001Y-124010000I-249999J0D01*
G01*
X111309999Y-124010000D01*
G75*
G02*
X111060000Y-123760001I0J249999D01*
G01*
X111060000Y-123109999D01*
G75*
G02*
X111309999Y-122860000I249999J0D01*
G01*
G37*
%TD*%
%TO.C,R6*%
G36*
G01*
X98609999Y-119830000D02*
X99510001Y-119830000D01*
G75*
G02*
X99760000Y-120079999I0J-249999D01*
G01*
X99760000Y-120730001D01*
G75*
G02*
X99510001Y-120980000I-249999J0D01*
G01*
X98609999Y-120980000D01*
G75*
G02*
X98360000Y-120730001I0J249999D01*
G01*
X98360000Y-120079999D01*
G75*
G02*
X98609999Y-119830000I249999J0D01*
G01*
G37*
G36*
G01*
X98609999Y-117780000D02*
X99510001Y-117780000D01*
G75*
G02*
X99760000Y-118029999I0J-249999D01*
G01*
X99760000Y-118680001D01*
G75*
G02*
X99510001Y-118930000I-249999J0D01*
G01*
X98609999Y-118930000D01*
G75*
G02*
X98360000Y-118680001I0J249999D01*
G01*
X98360000Y-118029999D01*
G75*
G02*
X98609999Y-117780000I249999J0D01*
G01*
G37*
%TD*%
%TO.C,R5*%
G36*
G01*
X104590001Y-113850000D02*
X103689999Y-113850000D01*
G75*
G02*
X103440000Y-113600001I0J249999D01*
G01*
X103440000Y-112949999D01*
G75*
G02*
X103689999Y-112700000I249999J0D01*
G01*
X104590001Y-112700000D01*
G75*
G02*
X104840000Y-112949999I0J-249999D01*
G01*
X104840000Y-113600001D01*
G75*
G02*
X104590001Y-113850000I-249999J0D01*
G01*
G37*
G36*
G01*
X104590001Y-115900000D02*
X103689999Y-115900000D01*
G75*
G02*
X103440000Y-115650001I0J249999D01*
G01*
X103440000Y-114999999D01*
G75*
G02*
X103689999Y-114750000I249999J0D01*
G01*
X104590001Y-114750000D01*
G75*
G02*
X104840000Y-114999999I0J-249999D01*
G01*
X104840000Y-115650001D01*
G75*
G02*
X104590001Y-115900000I-249999J0D01*
G01*
G37*
%TD*%
%TO.C,R4*%
G36*
G01*
X182302999Y-132403000D02*
X183203001Y-132403000D01*
G75*
G02*
X183453000Y-132652999I0J-249999D01*
G01*
X183453000Y-133303001D01*
G75*
G02*
X183203001Y-133553000I-249999J0D01*
G01*
X182302999Y-133553000D01*
G75*
G02*
X182053000Y-133303001I0J249999D01*
G01*
X182053000Y-132652999D01*
G75*
G02*
X182302999Y-132403000I249999J0D01*
G01*
G37*
G36*
G01*
X182302999Y-130353000D02*
X183203001Y-130353000D01*
G75*
G02*
X183453000Y-130602999I0J-249999D01*
G01*
X183453000Y-131253001D01*
G75*
G02*
X183203001Y-131503000I-249999J0D01*
G01*
X182302999Y-131503000D01*
G75*
G02*
X182053000Y-131253001I0J249999D01*
G01*
X182053000Y-130602999D01*
G75*
G02*
X182302999Y-130353000I249999J0D01*
G01*
G37*
%TD*%
%TO.C,R3*%
G36*
G01*
X179382000Y-119056999D02*
X179382000Y-119957001D01*
G75*
G02*
X179132001Y-120207000I-249999J0D01*
G01*
X178481999Y-120207000D01*
G75*
G02*
X178232000Y-119957001I0J249999D01*
G01*
X178232000Y-119056999D01*
G75*
G02*
X178481999Y-118807000I249999J0D01*
G01*
X179132001Y-118807000D01*
G75*
G02*
X179382000Y-119056999I0J-249999D01*
G01*
G37*
G36*
G01*
X181432000Y-119056999D02*
X181432000Y-119957001D01*
G75*
G02*
X181182001Y-120207000I-249999J0D01*
G01*
X180531999Y-120207000D01*
G75*
G02*
X180282000Y-119957001I0J249999D01*
G01*
X180282000Y-119056999D01*
G75*
G02*
X180531999Y-118807000I249999J0D01*
G01*
X181182001Y-118807000D01*
G75*
G02*
X181432000Y-119056999I0J-249999D01*
G01*
G37*
%TD*%
%TO.C,R2*%
G36*
G01*
X187382999Y-118814000D02*
X188283001Y-118814000D01*
G75*
G02*
X188533000Y-119063999I0J-249999D01*
G01*
X188533000Y-119714001D01*
G75*
G02*
X188283001Y-119964000I-249999J0D01*
G01*
X187382999Y-119964000D01*
G75*
G02*
X187133000Y-119714001I0J249999D01*
G01*
X187133000Y-119063999D01*
G75*
G02*
X187382999Y-118814000I249999J0D01*
G01*
G37*
G36*
G01*
X187382999Y-116764000D02*
X188283001Y-116764000D01*
G75*
G02*
X188533000Y-117013999I0J-249999D01*
G01*
X188533000Y-117664001D01*
G75*
G02*
X188283001Y-117914000I-249999J0D01*
G01*
X187382999Y-117914000D01*
G75*
G02*
X187133000Y-117664001I0J249999D01*
G01*
X187133000Y-117013999D01*
G75*
G02*
X187382999Y-116764000I249999J0D01*
G01*
G37*
%TD*%
%TO.C,R1*%
G36*
G01*
X185743001Y-117914000D02*
X184842999Y-117914000D01*
G75*
G02*
X184593000Y-117664001I0J249999D01*
G01*
X184593000Y-117013999D01*
G75*
G02*
X184842999Y-116764000I249999J0D01*
G01*
X185743001Y-116764000D01*
G75*
G02*
X185993000Y-117013999I0J-249999D01*
G01*
X185993000Y-117664001D01*
G75*
G02*
X185743001Y-117914000I-249999J0D01*
G01*
G37*
G36*
G01*
X185743001Y-119964000D02*
X184842999Y-119964000D01*
G75*
G02*
X184593000Y-119714001I0J249999D01*
G01*
X184593000Y-119063999D01*
G75*
G02*
X184842999Y-118814000I249999J0D01*
G01*
X185743001Y-118814000D01*
G75*
G02*
X185993000Y-119063999I0J-249999D01*
G01*
X185993000Y-119714001D01*
G75*
G02*
X185743001Y-119964000I-249999J0D01*
G01*
G37*
%TD*%
%TO.C,L1*%
G36*
G01*
X139261000Y-101034001D02*
X139261000Y-100133999D01*
G75*
G02*
X139510999Y-99884000I249999J0D01*
G01*
X140161001Y-99884000D01*
G75*
G02*
X140411000Y-100133999I0J-249999D01*
G01*
X140411000Y-101034001D01*
G75*
G02*
X140161001Y-101284000I-249999J0D01*
G01*
X139510999Y-101284000D01*
G75*
G02*
X139261000Y-101034001I0J249999D01*
G01*
G37*
G36*
G01*
X137211000Y-101034001D02*
X137211000Y-100133999D01*
G75*
G02*
X137460999Y-99884000I249999J0D01*
G01*
X138111001Y-99884000D01*
G75*
G02*
X138361000Y-100133999I0J-249999D01*
G01*
X138361000Y-101034001D01*
G75*
G02*
X138111001Y-101284000I-249999J0D01*
G01*
X137460999Y-101284000D01*
G75*
G02*
X137211000Y-101034001I0J249999D01*
G01*
G37*
%TD*%
%TO.C,FB2*%
G36*
G01*
X107499999Y-119830000D02*
X108400001Y-119830000D01*
G75*
G02*
X108650000Y-120079999I0J-249999D01*
G01*
X108650000Y-120730001D01*
G75*
G02*
X108400001Y-120980000I-249999J0D01*
G01*
X107499999Y-120980000D01*
G75*
G02*
X107250000Y-120730001I0J249999D01*
G01*
X107250000Y-120079999D01*
G75*
G02*
X107499999Y-119830000I249999J0D01*
G01*
G37*
G36*
G01*
X107499999Y-117780000D02*
X108400001Y-117780000D01*
G75*
G02*
X108650000Y-118029999I0J-249999D01*
G01*
X108650000Y-118680001D01*
G75*
G02*
X108400001Y-118930000I-249999J0D01*
G01*
X107499999Y-118930000D01*
G75*
G02*
X107250000Y-118680001I0J249999D01*
G01*
X107250000Y-118029999D01*
G75*
G02*
X107499999Y-117780000I249999J0D01*
G01*
G37*
%TD*%
%TO.C,FB1*%
G36*
G01*
X189922999Y-127704000D02*
X190823001Y-127704000D01*
G75*
G02*
X191073000Y-127953999I0J-249999D01*
G01*
X191073000Y-128604001D01*
G75*
G02*
X190823001Y-128854000I-249999J0D01*
G01*
X189922999Y-128854000D01*
G75*
G02*
X189673000Y-128604001I0J249999D01*
G01*
X189673000Y-127953999D01*
G75*
G02*
X189922999Y-127704000I249999J0D01*
G01*
G37*
G36*
G01*
X189922999Y-125654000D02*
X190823001Y-125654000D01*
G75*
G02*
X191073000Y-125903999I0J-249999D01*
G01*
X191073000Y-126554001D01*
G75*
G02*
X190823001Y-126804000I-249999J0D01*
G01*
X189922999Y-126804000D01*
G75*
G02*
X189673000Y-126554001I0J249999D01*
G01*
X189673000Y-125903999D01*
G75*
G02*
X189922999Y-125654000I249999J0D01*
G01*
G37*
%TD*%
D24*
%TO.C,D1*%
X99946000Y-69469000D03*
X102746000Y-69469000D03*
%TD*%
%TO.C,C33*%
G36*
G01*
X154870999Y-90874000D02*
X155771001Y-90874000D01*
G75*
G02*
X156021000Y-91123999I0J-249999D01*
G01*
X156021000Y-91774001D01*
G75*
G02*
X155771001Y-92024000I-249999J0D01*
G01*
X154870999Y-92024000D01*
G75*
G02*
X154621000Y-91774001I0J249999D01*
G01*
X154621000Y-91123999D01*
G75*
G02*
X154870999Y-90874000I249999J0D01*
G01*
G37*
G36*
G01*
X154870999Y-88824000D02*
X155771001Y-88824000D01*
G75*
G02*
X156021000Y-89073999I0J-249999D01*
G01*
X156021000Y-89724001D01*
G75*
G02*
X155771001Y-89974000I-249999J0D01*
G01*
X154870999Y-89974000D01*
G75*
G02*
X154621000Y-89724001I0J249999D01*
G01*
X154621000Y-89073999D01*
G75*
G02*
X154870999Y-88824000I249999J0D01*
G01*
G37*
%TD*%
%TO.C,C30*%
G36*
G01*
X177730999Y-93414000D02*
X178631001Y-93414000D01*
G75*
G02*
X178881000Y-93663999I0J-249999D01*
G01*
X178881000Y-94314001D01*
G75*
G02*
X178631001Y-94564000I-249999J0D01*
G01*
X177730999Y-94564000D01*
G75*
G02*
X177481000Y-94314001I0J249999D01*
G01*
X177481000Y-93663999D01*
G75*
G02*
X177730999Y-93414000I249999J0D01*
G01*
G37*
G36*
G01*
X177730999Y-91364000D02*
X178631001Y-91364000D01*
G75*
G02*
X178881000Y-91613999I0J-249999D01*
G01*
X178881000Y-92264001D01*
G75*
G02*
X178631001Y-92514000I-249999J0D01*
G01*
X177730999Y-92514000D01*
G75*
G02*
X177481000Y-92264001I0J249999D01*
G01*
X177481000Y-91613999D01*
G75*
G02*
X177730999Y-91364000I249999J0D01*
G01*
G37*
%TD*%
%TO.C,C29*%
G36*
G01*
X113805000Y-72380000D02*
X113805000Y-71130000D01*
G75*
G02*
X114055000Y-70880000I250000J0D01*
G01*
X114980000Y-70880000D01*
G75*
G02*
X115230000Y-71130000I0J-250000D01*
G01*
X115230000Y-72380000D01*
G75*
G02*
X114980000Y-72630000I-250000J0D01*
G01*
X114055000Y-72630000D01*
G75*
G02*
X113805000Y-72380000I0J250000D01*
G01*
G37*
G36*
G01*
X110830000Y-72380000D02*
X110830000Y-71130000D01*
G75*
G02*
X111080000Y-70880000I250000J0D01*
G01*
X112005000Y-70880000D01*
G75*
G02*
X112255000Y-71130000I0J-250000D01*
G01*
X112255000Y-72380000D01*
G75*
G02*
X112005000Y-72630000I-250000J0D01*
G01*
X111080000Y-72630000D01*
G75*
G02*
X110830000Y-72380000I0J250000D01*
G01*
G37*
%TD*%
%TO.C,C28*%
G36*
G01*
X113805000Y-60950000D02*
X113805000Y-59700000D01*
G75*
G02*
X114055000Y-59450000I250000J0D01*
G01*
X114980000Y-59450000D01*
G75*
G02*
X115230000Y-59700000I0J-250000D01*
G01*
X115230000Y-60950000D01*
G75*
G02*
X114980000Y-61200000I-250000J0D01*
G01*
X114055000Y-61200000D01*
G75*
G02*
X113805000Y-60950000I0J250000D01*
G01*
G37*
G36*
G01*
X110830000Y-60950000D02*
X110830000Y-59700000D01*
G75*
G02*
X111080000Y-59450000I250000J0D01*
G01*
X112005000Y-59450000D01*
G75*
G02*
X112255000Y-59700000I0J-250000D01*
G01*
X112255000Y-60950000D01*
G75*
G02*
X112005000Y-61200000I-250000J0D01*
G01*
X111080000Y-61200000D01*
G75*
G02*
X110830000Y-60950000I0J250000D01*
G01*
G37*
%TD*%
%TO.C,C22*%
G36*
G01*
X151834001Y-107500000D02*
X150933999Y-107500000D01*
G75*
G02*
X150684000Y-107250001I0J249999D01*
G01*
X150684000Y-106599999D01*
G75*
G02*
X150933999Y-106350000I249999J0D01*
G01*
X151834001Y-106350000D01*
G75*
G02*
X152084000Y-106599999I0J-249999D01*
G01*
X152084000Y-107250001D01*
G75*
G02*
X151834001Y-107500000I-249999J0D01*
G01*
G37*
G36*
G01*
X151834001Y-109550000D02*
X150933999Y-109550000D01*
G75*
G02*
X150684000Y-109300001I0J249999D01*
G01*
X150684000Y-108649999D01*
G75*
G02*
X150933999Y-108400000I249999J0D01*
G01*
X151834001Y-108400000D01*
G75*
G02*
X152084000Y-108649999I0J-249999D01*
G01*
X152084000Y-109300001D01*
G75*
G02*
X151834001Y-109550000I-249999J0D01*
G01*
G37*
%TD*%
%TO.C,C21*%
G36*
G01*
X148024001Y-87688000D02*
X147123999Y-87688000D01*
G75*
G02*
X146874000Y-87438001I0J249999D01*
G01*
X146874000Y-86787999D01*
G75*
G02*
X147123999Y-86538000I249999J0D01*
G01*
X148024001Y-86538000D01*
G75*
G02*
X148274000Y-86787999I0J-249999D01*
G01*
X148274000Y-87438001D01*
G75*
G02*
X148024001Y-87688000I-249999J0D01*
G01*
G37*
G36*
G01*
X148024001Y-89738000D02*
X147123999Y-89738000D01*
G75*
G02*
X146874000Y-89488001I0J249999D01*
G01*
X146874000Y-88837999D01*
G75*
G02*
X147123999Y-88588000I249999J0D01*
G01*
X148024001Y-88588000D01*
G75*
G02*
X148274000Y-88837999I0J-249999D01*
G01*
X148274000Y-89488001D01*
G75*
G02*
X148024001Y-89738000I-249999J0D01*
G01*
G37*
%TD*%
%TO.C,C20*%
G36*
G01*
X145091999Y-108400000D02*
X145992001Y-108400000D01*
G75*
G02*
X146242000Y-108649999I0J-249999D01*
G01*
X146242000Y-109300001D01*
G75*
G02*
X145992001Y-109550000I-249999J0D01*
G01*
X145091999Y-109550000D01*
G75*
G02*
X144842000Y-109300001I0J249999D01*
G01*
X144842000Y-108649999D01*
G75*
G02*
X145091999Y-108400000I249999J0D01*
G01*
G37*
G36*
G01*
X145091999Y-106350000D02*
X145992001Y-106350000D01*
G75*
G02*
X146242000Y-106599999I0J-249999D01*
G01*
X146242000Y-107250001D01*
G75*
G02*
X145992001Y-107500000I-249999J0D01*
G01*
X145091999Y-107500000D01*
G75*
G02*
X144842000Y-107250001I0J249999D01*
G01*
X144842000Y-106599999D01*
G75*
G02*
X145091999Y-106350000I249999J0D01*
G01*
G37*
%TD*%
%TO.C,C19*%
G36*
G01*
X152965999Y-108400000D02*
X153866001Y-108400000D01*
G75*
G02*
X154116000Y-108649999I0J-249999D01*
G01*
X154116000Y-109300001D01*
G75*
G02*
X153866001Y-109550000I-249999J0D01*
G01*
X152965999Y-109550000D01*
G75*
G02*
X152716000Y-109300001I0J249999D01*
G01*
X152716000Y-108649999D01*
G75*
G02*
X152965999Y-108400000I249999J0D01*
G01*
G37*
G36*
G01*
X152965999Y-106350000D02*
X153866001Y-106350000D01*
G75*
G02*
X154116000Y-106599999I0J-249999D01*
G01*
X154116000Y-107250001D01*
G75*
G02*
X153866001Y-107500000I-249999J0D01*
G01*
X152965999Y-107500000D01*
G75*
G02*
X152716000Y-107250001I0J249999D01*
G01*
X152716000Y-106599999D01*
G75*
G02*
X152965999Y-106350000I249999J0D01*
G01*
G37*
%TD*%
%TO.C,C18*%
G36*
G01*
X145738001Y-87688000D02*
X144837999Y-87688000D01*
G75*
G02*
X144588000Y-87438001I0J249999D01*
G01*
X144588000Y-86787999D01*
G75*
G02*
X144837999Y-86538000I249999J0D01*
G01*
X145738001Y-86538000D01*
G75*
G02*
X145988000Y-86787999I0J-249999D01*
G01*
X145988000Y-87438001D01*
G75*
G02*
X145738001Y-87688000I-249999J0D01*
G01*
G37*
G36*
G01*
X145738001Y-89738000D02*
X144837999Y-89738000D01*
G75*
G02*
X144588000Y-89488001I0J249999D01*
G01*
X144588000Y-88837999D01*
G75*
G02*
X144837999Y-88588000I249999J0D01*
G01*
X145738001Y-88588000D01*
G75*
G02*
X145988000Y-88837999I0J-249999D01*
G01*
X145988000Y-89488001D01*
G75*
G02*
X145738001Y-89738000I-249999J0D01*
G01*
G37*
%TD*%
%TO.C,C17*%
G36*
G01*
X115119999Y-119830000D02*
X116020001Y-119830000D01*
G75*
G02*
X116270000Y-120079999I0J-249999D01*
G01*
X116270000Y-120730001D01*
G75*
G02*
X116020001Y-120980000I-249999J0D01*
G01*
X115119999Y-120980000D01*
G75*
G02*
X114870000Y-120730001I0J249999D01*
G01*
X114870000Y-120079999D01*
G75*
G02*
X115119999Y-119830000I249999J0D01*
G01*
G37*
G36*
G01*
X115119999Y-117780000D02*
X116020001Y-117780000D01*
G75*
G02*
X116270000Y-118029999I0J-249999D01*
G01*
X116270000Y-118680001D01*
G75*
G02*
X116020001Y-118930000I-249999J0D01*
G01*
X115119999Y-118930000D01*
G75*
G02*
X114870000Y-118680001I0J249999D01*
G01*
X114870000Y-118029999D01*
G75*
G02*
X115119999Y-117780000I249999J0D01*
G01*
G37*
%TD*%
%TO.C,C16*%
G36*
G01*
X111309999Y-119830000D02*
X112210001Y-119830000D01*
G75*
G02*
X112460000Y-120079999I0J-249999D01*
G01*
X112460000Y-120730001D01*
G75*
G02*
X112210001Y-120980000I-249999J0D01*
G01*
X111309999Y-120980000D01*
G75*
G02*
X111060000Y-120730001I0J249999D01*
G01*
X111060000Y-120079999D01*
G75*
G02*
X111309999Y-119830000I249999J0D01*
G01*
G37*
G36*
G01*
X111309999Y-117780000D02*
X112210001Y-117780000D01*
G75*
G02*
X112460000Y-118029999I0J-249999D01*
G01*
X112460000Y-118680001D01*
G75*
G02*
X112210001Y-118930000I-249999J0D01*
G01*
X111309999Y-118930000D01*
G75*
G02*
X111060000Y-118680001I0J249999D01*
G01*
X111060000Y-118029999D01*
G75*
G02*
X111309999Y-117780000I249999J0D01*
G01*
G37*
%TD*%
%TO.C,C15*%
G36*
G01*
X107499999Y-124910000D02*
X108400001Y-124910000D01*
G75*
G02*
X108650000Y-125159999I0J-249999D01*
G01*
X108650000Y-125810001D01*
G75*
G02*
X108400001Y-126060000I-249999J0D01*
G01*
X107499999Y-126060000D01*
G75*
G02*
X107250000Y-125810001I0J249999D01*
G01*
X107250000Y-125159999D01*
G75*
G02*
X107499999Y-124910000I249999J0D01*
G01*
G37*
G36*
G01*
X107499999Y-122860000D02*
X108400001Y-122860000D01*
G75*
G02*
X108650000Y-123109999I0J-249999D01*
G01*
X108650000Y-123760001D01*
G75*
G02*
X108400001Y-124010000I-249999J0D01*
G01*
X107499999Y-124010000D01*
G75*
G02*
X107250000Y-123760001I0J249999D01*
G01*
X107250000Y-123109999D01*
G75*
G02*
X107499999Y-122860000I249999J0D01*
G01*
G37*
%TD*%
%TO.C,C14*%
G36*
G01*
X98609999Y-114750000D02*
X99510001Y-114750000D01*
G75*
G02*
X99760000Y-114999999I0J-249999D01*
G01*
X99760000Y-115650001D01*
G75*
G02*
X99510001Y-115900000I-249999J0D01*
G01*
X98609999Y-115900000D01*
G75*
G02*
X98360000Y-115650001I0J249999D01*
G01*
X98360000Y-114999999D01*
G75*
G02*
X98609999Y-114750000I249999J0D01*
G01*
G37*
G36*
G01*
X98609999Y-112700000D02*
X99510001Y-112700000D01*
G75*
G02*
X99760000Y-112949999I0J-249999D01*
G01*
X99760000Y-113600001D01*
G75*
G02*
X99510001Y-113850000I-249999J0D01*
G01*
X98609999Y-113850000D01*
G75*
G02*
X98360000Y-113600001I0J249999D01*
G01*
X98360000Y-112949999D01*
G75*
G02*
X98609999Y-112700000I249999J0D01*
G01*
G37*
%TD*%
%TO.C,C12*%
G36*
G01*
X103689999Y-119830000D02*
X104590001Y-119830000D01*
G75*
G02*
X104840000Y-120079999I0J-249999D01*
G01*
X104840000Y-120730001D01*
G75*
G02*
X104590001Y-120980000I-249999J0D01*
G01*
X103689999Y-120980000D01*
G75*
G02*
X103440000Y-120730001I0J249999D01*
G01*
X103440000Y-120079999D01*
G75*
G02*
X103689999Y-119830000I249999J0D01*
G01*
G37*
G36*
G01*
X103689999Y-117780000D02*
X104590001Y-117780000D01*
G75*
G02*
X104840000Y-118029999I0J-249999D01*
G01*
X104840000Y-118680001D01*
G75*
G02*
X104590001Y-118930000I-249999J0D01*
G01*
X103689999Y-118930000D01*
G75*
G02*
X103440000Y-118680001I0J249999D01*
G01*
X103440000Y-118029999D01*
G75*
G02*
X103689999Y-117780000I249999J0D01*
G01*
G37*
%TD*%
%TO.C,C9*%
G36*
G01*
X187382999Y-127704000D02*
X188283001Y-127704000D01*
G75*
G02*
X188533000Y-127953999I0J-249999D01*
G01*
X188533000Y-128604001D01*
G75*
G02*
X188283001Y-128854000I-249999J0D01*
G01*
X187382999Y-128854000D01*
G75*
G02*
X187133000Y-128604001I0J249999D01*
G01*
X187133000Y-127953999D01*
G75*
G02*
X187382999Y-127704000I249999J0D01*
G01*
G37*
G36*
G01*
X187382999Y-125654000D02*
X188283001Y-125654000D01*
G75*
G02*
X188533000Y-125903999I0J-249999D01*
G01*
X188533000Y-126554001D01*
G75*
G02*
X188283001Y-126804000I-249999J0D01*
G01*
X187382999Y-126804000D01*
G75*
G02*
X187133000Y-126554001I0J249999D01*
G01*
X187133000Y-125903999D01*
G75*
G02*
X187382999Y-125654000I249999J0D01*
G01*
G37*
%TD*%
%TO.C,C8*%
G36*
G01*
X184842999Y-127704000D02*
X185743001Y-127704000D01*
G75*
G02*
X185993000Y-127953999I0J-249999D01*
G01*
X185993000Y-128604001D01*
G75*
G02*
X185743001Y-128854000I-249999J0D01*
G01*
X184842999Y-128854000D01*
G75*
G02*
X184593000Y-128604001I0J249999D01*
G01*
X184593000Y-127953999D01*
G75*
G02*
X184842999Y-127704000I249999J0D01*
G01*
G37*
G36*
G01*
X184842999Y-125654000D02*
X185743001Y-125654000D01*
G75*
G02*
X185993000Y-125903999I0J-249999D01*
G01*
X185993000Y-126554001D01*
G75*
G02*
X185743001Y-126804000I-249999J0D01*
G01*
X184842999Y-126804000D01*
G75*
G02*
X184593000Y-126554001I0J249999D01*
G01*
X184593000Y-125903999D01*
G75*
G02*
X184842999Y-125654000I249999J0D01*
G01*
G37*
%TD*%
%TO.C,C6*%
G36*
G01*
X180282000Y-117671001D02*
X180282000Y-116770999D01*
G75*
G02*
X180531999Y-116521000I249999J0D01*
G01*
X181182001Y-116521000D01*
G75*
G02*
X181432000Y-116770999I0J-249999D01*
G01*
X181432000Y-117671001D01*
G75*
G02*
X181182001Y-117921000I-249999J0D01*
G01*
X180531999Y-117921000D01*
G75*
G02*
X180282000Y-117671001I0J249999D01*
G01*
G37*
G36*
G01*
X178232000Y-117671001D02*
X178232000Y-116770999D01*
G75*
G02*
X178481999Y-116521000I249999J0D01*
G01*
X179132001Y-116521000D01*
G75*
G02*
X179382000Y-116770999I0J-249999D01*
G01*
X179382000Y-117671001D01*
G75*
G02*
X179132001Y-117921000I-249999J0D01*
G01*
X178481999Y-117921000D01*
G75*
G02*
X178232000Y-117671001I0J249999D01*
G01*
G37*
%TD*%
%TO.C,C5*%
G36*
G01*
X187382999Y-123259000D02*
X188283001Y-123259000D01*
G75*
G02*
X188533000Y-123508999I0J-249999D01*
G01*
X188533000Y-124159001D01*
G75*
G02*
X188283001Y-124409000I-249999J0D01*
G01*
X187382999Y-124409000D01*
G75*
G02*
X187133000Y-124159001I0J249999D01*
G01*
X187133000Y-123508999D01*
G75*
G02*
X187382999Y-123259000I249999J0D01*
G01*
G37*
G36*
G01*
X187382999Y-121209000D02*
X188283001Y-121209000D01*
G75*
G02*
X188533000Y-121458999I0J-249999D01*
G01*
X188533000Y-122109001D01*
G75*
G02*
X188283001Y-122359000I-249999J0D01*
G01*
X187382999Y-122359000D01*
G75*
G02*
X187133000Y-122109001I0J249999D01*
G01*
X187133000Y-121458999D01*
G75*
G02*
X187382999Y-121209000I249999J0D01*
G01*
G37*
%TD*%
%TO.C,C4*%
G36*
G01*
X185743001Y-122359000D02*
X184842999Y-122359000D01*
G75*
G02*
X184593000Y-122109001I0J249999D01*
G01*
X184593000Y-121458999D01*
G75*
G02*
X184842999Y-121209000I249999J0D01*
G01*
X185743001Y-121209000D01*
G75*
G02*
X185993000Y-121458999I0J-249999D01*
G01*
X185993000Y-122109001D01*
G75*
G02*
X185743001Y-122359000I-249999J0D01*
G01*
G37*
G36*
G01*
X185743001Y-124409000D02*
X184842999Y-124409000D01*
G75*
G02*
X184593000Y-124159001I0J249999D01*
G01*
X184593000Y-123508999D01*
G75*
G02*
X184842999Y-123259000I249999J0D01*
G01*
X185743001Y-123259000D01*
G75*
G02*
X185993000Y-123508999I0J-249999D01*
G01*
X185993000Y-124159001D01*
G75*
G02*
X185743001Y-124409000I-249999J0D01*
G01*
G37*
%TD*%
M02*
