%TF.GenerationSoftware,KiCad,Pcbnew,(5.1.7-0-10_14)*%
%TF.CreationDate,2020-11-12T17:11:24+00:00*%
%TF.ProjectId,CirrusDspPedal,43697272-7573-4447-9370-506564616c2e,rev?*%
%TF.SameCoordinates,Original*%
%TF.FileFunction,Legend,Bot*%
%TF.FilePolarity,Positive*%
%FSLAX46Y46*%
G04 Gerber Fmt 4.6, Leading zero omitted, Abs format (unit mm)*
G04 Created by KiCad (PCBNEW (5.1.7-0-10_14)) date 2020-11-12 17:11:24*
%MOMM*%
%LPD*%
G01*
G04 APERTURE LIST*
%ADD10C,0.100000*%
%ADD11C,0.150000*%
%ADD12C,0.120000*%
%ADD13C,0.125000*%
G04 APERTURE END LIST*
D10*
X143235880Y-131881190D02*
X143402547Y-131643095D01*
X143521595Y-131881190D02*
X143521595Y-131381190D01*
X143331119Y-131381190D01*
X143283500Y-131405000D01*
X143259690Y-131428809D01*
X143235880Y-131476428D01*
X143235880Y-131547857D01*
X143259690Y-131595476D01*
X143283500Y-131619285D01*
X143331119Y-131643095D01*
X143521595Y-131643095D01*
X143021595Y-131619285D02*
X142854928Y-131619285D01*
X142783500Y-131881190D02*
X143021595Y-131881190D01*
X143021595Y-131381190D01*
X142783500Y-131381190D01*
X142331119Y-131881190D02*
X142569214Y-131881190D01*
X142569214Y-131381190D01*
X142188261Y-131738333D02*
X141950166Y-131738333D01*
X142235880Y-131881190D02*
X142069214Y-131381190D01*
X141902547Y-131881190D01*
X141640642Y-131643095D02*
X141640642Y-131881190D01*
X141807309Y-131381190D02*
X141640642Y-131643095D01*
X141473976Y-131381190D01*
X140926357Y-131881190D02*
X140926357Y-131381190D01*
X140807309Y-131381190D01*
X140735880Y-131405000D01*
X140688261Y-131452619D01*
X140664452Y-131500238D01*
X140640642Y-131595476D01*
X140640642Y-131666904D01*
X140664452Y-131762142D01*
X140688261Y-131809761D01*
X140735880Y-131857380D01*
X140807309Y-131881190D01*
X140926357Y-131881190D01*
X140140642Y-131881190D02*
X140307309Y-131643095D01*
X140426357Y-131881190D02*
X140426357Y-131381190D01*
X140235880Y-131381190D01*
X140188261Y-131405000D01*
X140164452Y-131428809D01*
X140140642Y-131476428D01*
X140140642Y-131547857D01*
X140164452Y-131595476D01*
X140188261Y-131619285D01*
X140235880Y-131643095D01*
X140426357Y-131643095D01*
X139926357Y-131881190D02*
X139926357Y-131381190D01*
X139759690Y-131381190D02*
X139593023Y-131881190D01*
X139426357Y-131381190D01*
X139259690Y-131619285D02*
X139093023Y-131619285D01*
X139021595Y-131881190D02*
X139259690Y-131881190D01*
X139259690Y-131381190D01*
X139021595Y-131381190D01*
X138521595Y-131881190D02*
X138688261Y-131643095D01*
X138807309Y-131881190D02*
X138807309Y-131381190D01*
X138616833Y-131381190D01*
X138569214Y-131405000D01*
X138545404Y-131428809D01*
X138521595Y-131476428D01*
X138521595Y-131547857D01*
X138545404Y-131595476D01*
X138569214Y-131619285D01*
X138616833Y-131643095D01*
X138807309Y-131643095D01*
X143378738Y-132231190D02*
X143212071Y-132731190D01*
X143045404Y-132231190D01*
X142783500Y-132231190D02*
X142688261Y-132231190D01*
X142640642Y-132255000D01*
X142593023Y-132302619D01*
X142569214Y-132397857D01*
X142569214Y-132564523D01*
X142593023Y-132659761D01*
X142640642Y-132707380D01*
X142688261Y-132731190D01*
X142783500Y-132731190D01*
X142831119Y-132707380D01*
X142878738Y-132659761D01*
X142902547Y-132564523D01*
X142902547Y-132397857D01*
X142878738Y-132302619D01*
X142831119Y-132255000D01*
X142783500Y-132231190D01*
X142116833Y-132731190D02*
X142354928Y-132731190D01*
X142354928Y-132231190D01*
X142021595Y-132231190D02*
X141735880Y-132231190D01*
X141878738Y-132731190D02*
X141878738Y-132231190D01*
X141212071Y-132707380D02*
X141140642Y-132731190D01*
X141021595Y-132731190D01*
X140973976Y-132707380D01*
X140950166Y-132683571D01*
X140926357Y-132635952D01*
X140926357Y-132588333D01*
X140950166Y-132540714D01*
X140973976Y-132516904D01*
X141021595Y-132493095D01*
X141116833Y-132469285D01*
X141164452Y-132445476D01*
X141188261Y-132421666D01*
X141212071Y-132374047D01*
X141212071Y-132326428D01*
X141188261Y-132278809D01*
X141164452Y-132255000D01*
X141116833Y-132231190D01*
X140997785Y-132231190D01*
X140926357Y-132255000D01*
X140712071Y-132469285D02*
X140545404Y-132469285D01*
X140473976Y-132731190D02*
X140712071Y-132731190D01*
X140712071Y-132231190D01*
X140473976Y-132231190D01*
X140021595Y-132731190D02*
X140259690Y-132731190D01*
X140259690Y-132231190D01*
X139854928Y-132469285D02*
X139688261Y-132469285D01*
X139616833Y-132731190D02*
X139854928Y-132731190D01*
X139854928Y-132231190D01*
X139616833Y-132231190D01*
X139116833Y-132683571D02*
X139140642Y-132707380D01*
X139212071Y-132731190D01*
X139259690Y-132731190D01*
X139331119Y-132707380D01*
X139378738Y-132659761D01*
X139402547Y-132612142D01*
X139426357Y-132516904D01*
X139426357Y-132445476D01*
X139402547Y-132350238D01*
X139378738Y-132302619D01*
X139331119Y-132255000D01*
X139259690Y-132231190D01*
X139212071Y-132231190D01*
X139140642Y-132255000D01*
X139116833Y-132278809D01*
X138973976Y-132231190D02*
X138688261Y-132231190D01*
X138831119Y-132731190D02*
X138831119Y-132231190D01*
X119613952Y-89280690D02*
X119518714Y-89280690D01*
X119471095Y-89304500D01*
X119423476Y-89352119D01*
X119399666Y-89447357D01*
X119399666Y-89614023D01*
X119423476Y-89709261D01*
X119471095Y-89756880D01*
X119518714Y-89780690D01*
X119613952Y-89780690D01*
X119661571Y-89756880D01*
X119709190Y-89709261D01*
X119733000Y-89614023D01*
X119733000Y-89447357D01*
X119709190Y-89352119D01*
X119661571Y-89304500D01*
X119613952Y-89280690D01*
X118947285Y-89780690D02*
X119185380Y-89780690D01*
X119185380Y-89280690D01*
X118780619Y-89518785D02*
X118613952Y-89518785D01*
X118542523Y-89780690D02*
X118780619Y-89780690D01*
X118780619Y-89280690D01*
X118542523Y-89280690D01*
X118328238Y-89780690D02*
X118328238Y-89280690D01*
X118209190Y-89280690D01*
X118137761Y-89304500D01*
X118090142Y-89352119D01*
X118066333Y-89399738D01*
X118042523Y-89494976D01*
X118042523Y-89566404D01*
X118066333Y-89661642D01*
X118090142Y-89709261D01*
X118137761Y-89756880D01*
X118209190Y-89780690D01*
X118328238Y-89780690D01*
X117518714Y-89280690D02*
X117352047Y-89780690D01*
X117185380Y-89280690D01*
X117018714Y-89780690D02*
X117018714Y-89280690D01*
X116899666Y-89280690D01*
X116828238Y-89304500D01*
X116780619Y-89352119D01*
X116756809Y-89399738D01*
X116733000Y-89494976D01*
X116733000Y-89566404D01*
X116756809Y-89661642D01*
X116780619Y-89709261D01*
X116828238Y-89756880D01*
X116899666Y-89780690D01*
X117018714Y-89780690D01*
X116518714Y-89780690D02*
X116518714Y-89280690D01*
X116399666Y-89280690D01*
X116328238Y-89304500D01*
X116280619Y-89352119D01*
X116256809Y-89399738D01*
X116233000Y-89494976D01*
X116233000Y-89566404D01*
X116256809Y-89661642D01*
X116280619Y-89709261D01*
X116328238Y-89756880D01*
X116399666Y-89780690D01*
X116518714Y-89780690D01*
X119863952Y-90606880D02*
X119792523Y-90630690D01*
X119673476Y-90630690D01*
X119625857Y-90606880D01*
X119602047Y-90583071D01*
X119578238Y-90535452D01*
X119578238Y-90487833D01*
X119602047Y-90440214D01*
X119625857Y-90416404D01*
X119673476Y-90392595D01*
X119768714Y-90368785D01*
X119816333Y-90344976D01*
X119840142Y-90321166D01*
X119863952Y-90273547D01*
X119863952Y-90225928D01*
X119840142Y-90178309D01*
X119816333Y-90154500D01*
X119768714Y-90130690D01*
X119649666Y-90130690D01*
X119578238Y-90154500D01*
X119363952Y-90368785D02*
X119197285Y-90368785D01*
X119125857Y-90630690D02*
X119363952Y-90630690D01*
X119363952Y-90130690D01*
X119125857Y-90130690D01*
X118673476Y-90630690D02*
X118911571Y-90630690D01*
X118911571Y-90130690D01*
X118506809Y-90368785D02*
X118340142Y-90368785D01*
X118268714Y-90630690D02*
X118506809Y-90630690D01*
X118506809Y-90130690D01*
X118268714Y-90130690D01*
X117768714Y-90583071D02*
X117792523Y-90606880D01*
X117863952Y-90630690D01*
X117911571Y-90630690D01*
X117983000Y-90606880D01*
X118030619Y-90559261D01*
X118054428Y-90511642D01*
X118078238Y-90416404D01*
X118078238Y-90344976D01*
X118054428Y-90249738D01*
X118030619Y-90202119D01*
X117983000Y-90154500D01*
X117911571Y-90130690D01*
X117863952Y-90130690D01*
X117792523Y-90154500D01*
X117768714Y-90178309D01*
X117625857Y-90130690D02*
X117340142Y-90130690D01*
X117483000Y-90630690D02*
X117483000Y-90130690D01*
X117173476Y-90630690D02*
X117173476Y-90130690D01*
X116840142Y-90130690D02*
X116744904Y-90130690D01*
X116697285Y-90154500D01*
X116649666Y-90202119D01*
X116625857Y-90297357D01*
X116625857Y-90464023D01*
X116649666Y-90559261D01*
X116697285Y-90606880D01*
X116744904Y-90630690D01*
X116840142Y-90630690D01*
X116887761Y-90606880D01*
X116935380Y-90559261D01*
X116959190Y-90464023D01*
X116959190Y-90297357D01*
X116935380Y-90202119D01*
X116887761Y-90154500D01*
X116840142Y-90130690D01*
X116411571Y-90630690D02*
X116411571Y-90130690D01*
X116125857Y-90630690D01*
X116125857Y-90130690D01*
X119411738Y-94277690D02*
X119649833Y-94277690D01*
X119673642Y-94515785D01*
X119649833Y-94491976D01*
X119602214Y-94468166D01*
X119483166Y-94468166D01*
X119435547Y-94491976D01*
X119411738Y-94515785D01*
X119387928Y-94563404D01*
X119387928Y-94682452D01*
X119411738Y-94730071D01*
X119435547Y-94753880D01*
X119483166Y-94777690D01*
X119602214Y-94777690D01*
X119649833Y-94753880D01*
X119673642Y-94730071D01*
X119245071Y-94277690D02*
X119078404Y-94777690D01*
X118911738Y-94277690D01*
X117459047Y-94341190D02*
X117149523Y-94341190D01*
X117316190Y-94531666D01*
X117244761Y-94531666D01*
X117197142Y-94555476D01*
X117173333Y-94579285D01*
X117149523Y-94626904D01*
X117149523Y-94745952D01*
X117173333Y-94793571D01*
X117197142Y-94817380D01*
X117244761Y-94841190D01*
X117387619Y-94841190D01*
X117435238Y-94817380D01*
X117459047Y-94793571D01*
X117006666Y-94341190D02*
X116840000Y-94841190D01*
X116673333Y-94341190D01*
X116554285Y-94341190D02*
X116244761Y-94341190D01*
X116411428Y-94531666D01*
X116340000Y-94531666D01*
X116292380Y-94555476D01*
X116268571Y-94579285D01*
X116244761Y-94626904D01*
X116244761Y-94745952D01*
X116268571Y-94793571D01*
X116292380Y-94817380D01*
X116340000Y-94841190D01*
X116482857Y-94841190D01*
X116530476Y-94817380D01*
X116554285Y-94793571D01*
D11*
X141755880Y-125571404D02*
X141755880Y-126190452D01*
X142136833Y-125857119D01*
X142136833Y-125999976D01*
X142184452Y-126095214D01*
X142232071Y-126142833D01*
X142327309Y-126190452D01*
X142565404Y-126190452D01*
X142660642Y-126142833D01*
X142708261Y-126095214D01*
X142755880Y-125999976D01*
X142755880Y-125714261D01*
X142708261Y-125619023D01*
X142660642Y-125571404D01*
X141755880Y-126476166D02*
X142755880Y-126809500D01*
X141755880Y-127142833D01*
X141755880Y-127380928D02*
X141755880Y-127999976D01*
X142136833Y-127666642D01*
X142136833Y-127809500D01*
X142184452Y-127904738D01*
X142232071Y-127952357D01*
X142327309Y-127999976D01*
X142565404Y-127999976D01*
X142660642Y-127952357D01*
X142708261Y-127904738D01*
X142755880Y-127809500D01*
X142755880Y-127523785D01*
X142708261Y-127428547D01*
X142660642Y-127380928D01*
X139088880Y-127000023D02*
X139088880Y-126523833D01*
X139565071Y-126476214D01*
X139517452Y-126523833D01*
X139469833Y-126619071D01*
X139469833Y-126857166D01*
X139517452Y-126952404D01*
X139565071Y-127000023D01*
X139660309Y-127047642D01*
X139898404Y-127047642D01*
X139993642Y-127000023D01*
X140041261Y-126952404D01*
X140088880Y-126857166D01*
X140088880Y-126619071D01*
X140041261Y-126523833D01*
X139993642Y-126476214D01*
X139088880Y-127333357D02*
X140088880Y-127666690D01*
X139088880Y-128000023D01*
D12*
%TO.C,R27*%
X180773000Y-65016748D02*
X180773000Y-65539252D01*
X182193000Y-65016748D02*
X182193000Y-65539252D01*
%TO.C,JP1*%
X116683000Y-91764000D02*
X116983000Y-91464000D01*
X116383000Y-91464000D02*
X116983000Y-91464000D01*
X116683000Y-91764000D02*
X116383000Y-91464000D01*
X115933000Y-91964000D02*
X115933000Y-93964000D01*
X120033000Y-91964000D02*
X115933000Y-91964000D01*
X120033000Y-93964000D02*
X120033000Y-91964000D01*
X115933000Y-93964000D02*
X120033000Y-93964000D01*
%TO.C,Q1*%
X142550000Y-124458000D02*
X142550000Y-122998000D01*
X139390000Y-124458000D02*
X139390000Y-122298000D01*
X139390000Y-124458000D02*
X140320000Y-124458000D01*
X142550000Y-124458000D02*
X141620000Y-124458000D01*
%TO.C,JP2*%
X143020000Y-128286000D02*
X138920000Y-128286000D01*
X138920000Y-128286000D02*
X138920000Y-130286000D01*
X138920000Y-130286000D02*
X143020000Y-130286000D01*
X143020000Y-130286000D02*
X143020000Y-128286000D01*
X142270000Y-130486000D02*
X142570000Y-130786000D01*
X142570000Y-130786000D02*
X141970000Y-130786000D01*
X142270000Y-130486000D02*
X141970000Y-130786000D01*
%TO.C,K1*%
X152190000Y-129148000D02*
X144990000Y-129148000D01*
X148590000Y-118248000D02*
X144990000Y-118248000D01*
%TO.C,D2*%
X150790000Y-114316000D02*
X150790000Y-116316000D01*
X150790000Y-116316000D02*
X146940000Y-116316000D01*
X150790000Y-114316000D02*
X146940000Y-114316000D01*
%TO.C,R28*%
X183059000Y-65016748D02*
X183059000Y-65539252D01*
X184479000Y-65016748D02*
X184479000Y-65539252D01*
%TO.C,R26*%
X177725000Y-65016748D02*
X177725000Y-65539252D01*
X179145000Y-65016748D02*
X179145000Y-65539252D01*
%TO.C,R25*%
X175312000Y-65016748D02*
X175312000Y-65539252D01*
X176732000Y-65016748D02*
X176732000Y-65539252D01*
%TO.C,R24*%
X172772000Y-65016748D02*
X172772000Y-65539252D01*
X174192000Y-65016748D02*
X174192000Y-65539252D01*
D11*
%TO.C,J5*%
X182753000Y-71120000D02*
X204343000Y-71120000D01*
X182753000Y-86360000D02*
X182753000Y-71120000D01*
X204343000Y-86360000D02*
X182753000Y-86360000D01*
X204343000Y-71120000D02*
X204343000Y-86360000D01*
D12*
%TO.C,J4*%
X107145000Y-82998000D02*
X107145000Y-84048000D01*
X106095000Y-84048000D02*
X107145000Y-84048000D01*
X101045000Y-74648000D02*
X92245000Y-74648000D01*
X92245000Y-74648000D02*
X92245000Y-83848000D01*
X106945000Y-77348000D02*
X106945000Y-74648000D01*
X106945000Y-74648000D02*
X105045000Y-74648000D01*
X92245000Y-83848000D02*
X106945000Y-83848000D01*
X106945000Y-83848000D02*
X106945000Y-81248000D01*
D11*
%TO.C,J2*%
X114173000Y-106680000D02*
X92583000Y-106680000D01*
X114173000Y-91440000D02*
X114173000Y-106680000D01*
X92583000Y-91440000D02*
X114173000Y-91440000D01*
X92583000Y-106680000D02*
X92583000Y-91440000D01*
%TO.C,J1*%
X182753000Y-91440000D02*
X204343000Y-91440000D01*
X182753000Y-106680000D02*
X182753000Y-91440000D01*
X204343000Y-106680000D02*
X182753000Y-106680000D01*
X204343000Y-91440000D02*
X204343000Y-106680000D01*
D12*
%TO.C,C13*%
X105036252Y-112320000D02*
X104513748Y-112320000D01*
X105036252Y-113740000D02*
X104513748Y-113740000D01*
%TO.C,C11*%
X117213748Y-111200000D02*
X117736252Y-111200000D01*
X117213748Y-109780000D02*
X117736252Y-109780000D01*
%TO.C,C10*%
X117213748Y-114375000D02*
X117736252Y-114375000D01*
X117213748Y-112955000D02*
X117736252Y-112955000D01*
%TO.C,C3*%
X179697748Y-131139000D02*
X180220252Y-131139000D01*
X179697748Y-129719000D02*
X180220252Y-129719000D01*
%TO.C,C2*%
X186174748Y-128853000D02*
X186697252Y-128853000D01*
X186174748Y-127433000D02*
X186697252Y-127433000D01*
%TO.C,C1*%
X186174748Y-126821000D02*
X186697252Y-126821000D01*
X186174748Y-125401000D02*
X186697252Y-125401000D01*
%TO.C,R27*%
D11*
X181935380Y-61324142D02*
X181459190Y-60990809D01*
X181935380Y-60752714D02*
X180935380Y-60752714D01*
X180935380Y-61133666D01*
X180983000Y-61228904D01*
X181030619Y-61276523D01*
X181125857Y-61324142D01*
X181268714Y-61324142D01*
X181363952Y-61276523D01*
X181411571Y-61228904D01*
X181459190Y-61133666D01*
X181459190Y-60752714D01*
X181030619Y-61705095D02*
X180983000Y-61752714D01*
X180935380Y-61847952D01*
X180935380Y-62086047D01*
X180983000Y-62181285D01*
X181030619Y-62228904D01*
X181125857Y-62276523D01*
X181221095Y-62276523D01*
X181363952Y-62228904D01*
X181935380Y-61657476D01*
X181935380Y-62276523D01*
X180935380Y-62609857D02*
X180935380Y-63276523D01*
X181935380Y-62847952D01*
%TO.C,JP1*%
X122499333Y-92416380D02*
X122499333Y-93130666D01*
X122546952Y-93273523D01*
X122642190Y-93368761D01*
X122785047Y-93416380D01*
X122880285Y-93416380D01*
X122023142Y-93416380D02*
X122023142Y-92416380D01*
X121642190Y-92416380D01*
X121546952Y-92464000D01*
X121499333Y-92511619D01*
X121451714Y-92606857D01*
X121451714Y-92749714D01*
X121499333Y-92844952D01*
X121546952Y-92892571D01*
X121642190Y-92940190D01*
X122023142Y-92940190D01*
X120499333Y-93416380D02*
X121070761Y-93416380D01*
X120785047Y-93416380D02*
X120785047Y-92416380D01*
X120880285Y-92559238D01*
X120975523Y-92654476D01*
X121070761Y-92702095D01*
%TO.C,Q1*%
X141065238Y-121705619D02*
X141160476Y-121658000D01*
X141255714Y-121562761D01*
X141398571Y-121419904D01*
X141493809Y-121372285D01*
X141589047Y-121372285D01*
X141541428Y-121610380D02*
X141636666Y-121562761D01*
X141731904Y-121467523D01*
X141779523Y-121277047D01*
X141779523Y-120943714D01*
X141731904Y-120753238D01*
X141636666Y-120658000D01*
X141541428Y-120610380D01*
X141350952Y-120610380D01*
X141255714Y-120658000D01*
X141160476Y-120753238D01*
X141112857Y-120943714D01*
X141112857Y-121277047D01*
X141160476Y-121467523D01*
X141255714Y-121562761D01*
X141350952Y-121610380D01*
X141541428Y-121610380D01*
X140160476Y-121610380D02*
X140731904Y-121610380D01*
X140446190Y-121610380D02*
X140446190Y-120610380D01*
X140541428Y-120753238D01*
X140636666Y-120848476D01*
X140731904Y-120896095D01*
%TO.C,JP2*%
X137310880Y-128389166D02*
X138025166Y-128389166D01*
X138168023Y-128341547D01*
X138263261Y-128246309D01*
X138310880Y-128103452D01*
X138310880Y-128008214D01*
X138310880Y-128865357D02*
X137310880Y-128865357D01*
X137310880Y-129246309D01*
X137358500Y-129341547D01*
X137406119Y-129389166D01*
X137501357Y-129436785D01*
X137644214Y-129436785D01*
X137739452Y-129389166D01*
X137787071Y-129341547D01*
X137834690Y-129246309D01*
X137834690Y-128865357D01*
X137406119Y-129817738D02*
X137358500Y-129865357D01*
X137310880Y-129960595D01*
X137310880Y-130198690D01*
X137358500Y-130293928D01*
X137406119Y-130341547D01*
X137501357Y-130389166D01*
X137596595Y-130389166D01*
X137739452Y-130341547D01*
X138310880Y-129770119D01*
X138310880Y-130389166D01*
%TO.C,K1*%
X149328095Y-130754380D02*
X149328095Y-129754380D01*
X148756666Y-130754380D02*
X149185238Y-130182952D01*
X148756666Y-129754380D02*
X149328095Y-130325809D01*
X147804285Y-130754380D02*
X148375714Y-130754380D01*
X148090000Y-130754380D02*
X148090000Y-129754380D01*
X148185238Y-129897238D01*
X148280476Y-129992476D01*
X148375714Y-130040095D01*
%TO.C,D2*%
X149328095Y-113990380D02*
X149328095Y-112990380D01*
X149090000Y-112990380D01*
X148947142Y-113038000D01*
X148851904Y-113133238D01*
X148804285Y-113228476D01*
X148756666Y-113418952D01*
X148756666Y-113561809D01*
X148804285Y-113752285D01*
X148851904Y-113847523D01*
X148947142Y-113942761D01*
X149090000Y-113990380D01*
X149328095Y-113990380D01*
X148375714Y-113085619D02*
X148328095Y-113038000D01*
X148232857Y-112990380D01*
X147994761Y-112990380D01*
X147899523Y-113038000D01*
X147851904Y-113085619D01*
X147804285Y-113180857D01*
X147804285Y-113276095D01*
X147851904Y-113418952D01*
X148423333Y-113990380D01*
X147804285Y-113990380D01*
%TO.C,R28*%
X184221380Y-61333142D02*
X183745190Y-60999809D01*
X184221380Y-60761714D02*
X183221380Y-60761714D01*
X183221380Y-61142666D01*
X183269000Y-61237904D01*
X183316619Y-61285523D01*
X183411857Y-61333142D01*
X183554714Y-61333142D01*
X183649952Y-61285523D01*
X183697571Y-61237904D01*
X183745190Y-61142666D01*
X183745190Y-60761714D01*
X183316619Y-61714095D02*
X183269000Y-61761714D01*
X183221380Y-61856952D01*
X183221380Y-62095047D01*
X183269000Y-62190285D01*
X183316619Y-62237904D01*
X183411857Y-62285523D01*
X183507095Y-62285523D01*
X183649952Y-62237904D01*
X184221380Y-61666476D01*
X184221380Y-62285523D01*
X183649952Y-62856952D02*
X183602333Y-62761714D01*
X183554714Y-62714095D01*
X183459476Y-62666476D01*
X183411857Y-62666476D01*
X183316619Y-62714095D01*
X183269000Y-62761714D01*
X183221380Y-62856952D01*
X183221380Y-63047428D01*
X183269000Y-63142666D01*
X183316619Y-63190285D01*
X183411857Y-63237904D01*
X183459476Y-63237904D01*
X183554714Y-63190285D01*
X183602333Y-63142666D01*
X183649952Y-63047428D01*
X183649952Y-62856952D01*
X183697571Y-62761714D01*
X183745190Y-62714095D01*
X183840428Y-62666476D01*
X184030904Y-62666476D01*
X184126142Y-62714095D01*
X184173761Y-62761714D01*
X184221380Y-62856952D01*
X184221380Y-63047428D01*
X184173761Y-63142666D01*
X184126142Y-63190285D01*
X184030904Y-63237904D01*
X183840428Y-63237904D01*
X183745190Y-63190285D01*
X183697571Y-63142666D01*
X183649952Y-63047428D01*
%TO.C,R26*%
X178887380Y-61079142D02*
X178411190Y-60745809D01*
X178887380Y-60507714D02*
X177887380Y-60507714D01*
X177887380Y-60888666D01*
X177935000Y-60983904D01*
X177982619Y-61031523D01*
X178077857Y-61079142D01*
X178220714Y-61079142D01*
X178315952Y-61031523D01*
X178363571Y-60983904D01*
X178411190Y-60888666D01*
X178411190Y-60507714D01*
X177982619Y-61460095D02*
X177935000Y-61507714D01*
X177887380Y-61602952D01*
X177887380Y-61841047D01*
X177935000Y-61936285D01*
X177982619Y-61983904D01*
X178077857Y-62031523D01*
X178173095Y-62031523D01*
X178315952Y-61983904D01*
X178887380Y-61412476D01*
X178887380Y-62031523D01*
X177887380Y-62888666D02*
X177887380Y-62698190D01*
X177935000Y-62602952D01*
X177982619Y-62555333D01*
X178125476Y-62460095D01*
X178315952Y-62412476D01*
X178696904Y-62412476D01*
X178792142Y-62460095D01*
X178839761Y-62507714D01*
X178887380Y-62602952D01*
X178887380Y-62793428D01*
X178839761Y-62888666D01*
X178792142Y-62936285D01*
X178696904Y-62983904D01*
X178458809Y-62983904D01*
X178363571Y-62936285D01*
X178315952Y-62888666D01*
X178268333Y-62793428D01*
X178268333Y-62602952D01*
X178315952Y-62507714D01*
X178363571Y-62460095D01*
X178458809Y-62412476D01*
%TO.C,R25*%
X176474380Y-61079142D02*
X175998190Y-60745809D01*
X176474380Y-60507714D02*
X175474380Y-60507714D01*
X175474380Y-60888666D01*
X175522000Y-60983904D01*
X175569619Y-61031523D01*
X175664857Y-61079142D01*
X175807714Y-61079142D01*
X175902952Y-61031523D01*
X175950571Y-60983904D01*
X175998190Y-60888666D01*
X175998190Y-60507714D01*
X175569619Y-61460095D02*
X175522000Y-61507714D01*
X175474380Y-61602952D01*
X175474380Y-61841047D01*
X175522000Y-61936285D01*
X175569619Y-61983904D01*
X175664857Y-62031523D01*
X175760095Y-62031523D01*
X175902952Y-61983904D01*
X176474380Y-61412476D01*
X176474380Y-62031523D01*
X175474380Y-62936285D02*
X175474380Y-62460095D01*
X175950571Y-62412476D01*
X175902952Y-62460095D01*
X175855333Y-62555333D01*
X175855333Y-62793428D01*
X175902952Y-62888666D01*
X175950571Y-62936285D01*
X176045809Y-62983904D01*
X176283904Y-62983904D01*
X176379142Y-62936285D01*
X176426761Y-62888666D01*
X176474380Y-62793428D01*
X176474380Y-62555333D01*
X176426761Y-62460095D01*
X176379142Y-62412476D01*
%TO.C,R24*%
X173934380Y-61079142D02*
X173458190Y-60745809D01*
X173934380Y-60507714D02*
X172934380Y-60507714D01*
X172934380Y-60888666D01*
X172982000Y-60983904D01*
X173029619Y-61031523D01*
X173124857Y-61079142D01*
X173267714Y-61079142D01*
X173362952Y-61031523D01*
X173410571Y-60983904D01*
X173458190Y-60888666D01*
X173458190Y-60507714D01*
X173029619Y-61460095D02*
X172982000Y-61507714D01*
X172934380Y-61602952D01*
X172934380Y-61841047D01*
X172982000Y-61936285D01*
X173029619Y-61983904D01*
X173124857Y-62031523D01*
X173220095Y-62031523D01*
X173362952Y-61983904D01*
X173934380Y-61412476D01*
X173934380Y-62031523D01*
X173267714Y-62888666D02*
X173934380Y-62888666D01*
X172886761Y-62650571D02*
X173601047Y-62412476D01*
X173601047Y-63031523D01*
%TO.C,J5*%
D13*
X202604666Y-86721190D02*
X202604666Y-87078333D01*
X202628476Y-87149761D01*
X202676095Y-87197380D01*
X202747523Y-87221190D01*
X202795142Y-87221190D01*
X202128476Y-86721190D02*
X202366571Y-86721190D01*
X202390380Y-86959285D01*
X202366571Y-86935476D01*
X202318952Y-86911666D01*
X202199904Y-86911666D01*
X202152285Y-86935476D01*
X202128476Y-86959285D01*
X202104666Y-87006904D01*
X202104666Y-87125952D01*
X202128476Y-87173571D01*
X202152285Y-87197380D01*
X202199904Y-87221190D01*
X202318952Y-87221190D01*
X202366571Y-87197380D01*
X202390380Y-87173571D01*
%TO.C,J4*%
D11*
X97928333Y-72950380D02*
X97928333Y-73664666D01*
X97975952Y-73807523D01*
X98071190Y-73902761D01*
X98214047Y-73950380D01*
X98309285Y-73950380D01*
X97023571Y-73283714D02*
X97023571Y-73950380D01*
X97261666Y-72902761D02*
X97499761Y-73617047D01*
X96880714Y-73617047D01*
%TO.C,J2*%
D13*
X94654666Y-90531190D02*
X94654666Y-90888333D01*
X94678476Y-90959761D01*
X94726095Y-91007380D01*
X94797523Y-91031190D01*
X94845142Y-91031190D01*
X94440380Y-90578809D02*
X94416571Y-90555000D01*
X94368952Y-90531190D01*
X94249904Y-90531190D01*
X94202285Y-90555000D01*
X94178476Y-90578809D01*
X94154666Y-90626428D01*
X94154666Y-90674047D01*
X94178476Y-90745476D01*
X94464190Y-91031190D01*
X94154666Y-91031190D01*
%TO.C,J1*%
X202604666Y-107041190D02*
X202604666Y-107398333D01*
X202628476Y-107469761D01*
X202676095Y-107517380D01*
X202747523Y-107541190D01*
X202795142Y-107541190D01*
X202104666Y-107541190D02*
X202390380Y-107541190D01*
X202247523Y-107541190D02*
X202247523Y-107041190D01*
X202295142Y-107112619D01*
X202342761Y-107160238D01*
X202390380Y-107184047D01*
%TO.C,C13*%
D11*
X105671857Y-115673142D02*
X105719476Y-115720761D01*
X105862333Y-115768380D01*
X105957571Y-115768380D01*
X106100428Y-115720761D01*
X106195666Y-115625523D01*
X106243285Y-115530285D01*
X106290904Y-115339809D01*
X106290904Y-115196952D01*
X106243285Y-115006476D01*
X106195666Y-114911238D01*
X106100428Y-114816000D01*
X105957571Y-114768380D01*
X105862333Y-114768380D01*
X105719476Y-114816000D01*
X105671857Y-114863619D01*
X104719476Y-115768380D02*
X105290904Y-115768380D01*
X105005190Y-115768380D02*
X105005190Y-114768380D01*
X105100428Y-114911238D01*
X105195666Y-115006476D01*
X105290904Y-115054095D01*
X104386142Y-114768380D02*
X103767095Y-114768380D01*
X104100428Y-115149333D01*
X103957571Y-115149333D01*
X103862333Y-115196952D01*
X103814714Y-115244571D01*
X103767095Y-115339809D01*
X103767095Y-115577904D01*
X103814714Y-115673142D01*
X103862333Y-115720761D01*
X103957571Y-115768380D01*
X104243285Y-115768380D01*
X104338523Y-115720761D01*
X104386142Y-115673142D01*
%TO.C,C11*%
X118117857Y-109196142D02*
X118165476Y-109243761D01*
X118308333Y-109291380D01*
X118403571Y-109291380D01*
X118546428Y-109243761D01*
X118641666Y-109148523D01*
X118689285Y-109053285D01*
X118736904Y-108862809D01*
X118736904Y-108719952D01*
X118689285Y-108529476D01*
X118641666Y-108434238D01*
X118546428Y-108339000D01*
X118403571Y-108291380D01*
X118308333Y-108291380D01*
X118165476Y-108339000D01*
X118117857Y-108386619D01*
X117165476Y-109291380D02*
X117736904Y-109291380D01*
X117451190Y-109291380D02*
X117451190Y-108291380D01*
X117546428Y-108434238D01*
X117641666Y-108529476D01*
X117736904Y-108577095D01*
X116213095Y-109291380D02*
X116784523Y-109291380D01*
X116498809Y-109291380D02*
X116498809Y-108291380D01*
X116594047Y-108434238D01*
X116689285Y-108529476D01*
X116784523Y-108577095D01*
%TO.C,C10*%
X118117857Y-115800142D02*
X118165476Y-115847761D01*
X118308333Y-115895380D01*
X118403571Y-115895380D01*
X118546428Y-115847761D01*
X118641666Y-115752523D01*
X118689285Y-115657285D01*
X118736904Y-115466809D01*
X118736904Y-115323952D01*
X118689285Y-115133476D01*
X118641666Y-115038238D01*
X118546428Y-114943000D01*
X118403571Y-114895380D01*
X118308333Y-114895380D01*
X118165476Y-114943000D01*
X118117857Y-114990619D01*
X117165476Y-115895380D02*
X117736904Y-115895380D01*
X117451190Y-115895380D02*
X117451190Y-114895380D01*
X117546428Y-115038238D01*
X117641666Y-115133476D01*
X117736904Y-115181095D01*
X116546428Y-114895380D02*
X116451190Y-114895380D01*
X116355952Y-114943000D01*
X116308333Y-114990619D01*
X116260714Y-115085857D01*
X116213095Y-115276333D01*
X116213095Y-115514428D01*
X116260714Y-115704904D01*
X116308333Y-115800142D01*
X116355952Y-115847761D01*
X116451190Y-115895380D01*
X116546428Y-115895380D01*
X116641666Y-115847761D01*
X116689285Y-115800142D01*
X116736904Y-115704904D01*
X116784523Y-115514428D01*
X116784523Y-115276333D01*
X116736904Y-115085857D01*
X116689285Y-114990619D01*
X116641666Y-114943000D01*
X116546428Y-114895380D01*
%TO.C,C3*%
X180252666Y-129135142D02*
X180300285Y-129182761D01*
X180443142Y-129230380D01*
X180538380Y-129230380D01*
X180681238Y-129182761D01*
X180776476Y-129087523D01*
X180824095Y-128992285D01*
X180871714Y-128801809D01*
X180871714Y-128658952D01*
X180824095Y-128468476D01*
X180776476Y-128373238D01*
X180681238Y-128278000D01*
X180538380Y-128230380D01*
X180443142Y-128230380D01*
X180300285Y-128278000D01*
X180252666Y-128325619D01*
X179919333Y-128230380D02*
X179300285Y-128230380D01*
X179633619Y-128611333D01*
X179490761Y-128611333D01*
X179395523Y-128658952D01*
X179347904Y-128706571D01*
X179300285Y-128801809D01*
X179300285Y-129039904D01*
X179347904Y-129135142D01*
X179395523Y-129182761D01*
X179490761Y-129230380D01*
X179776476Y-129230380D01*
X179871714Y-129182761D01*
X179919333Y-129135142D01*
%TO.C,C2*%
X186602666Y-130278142D02*
X186650285Y-130325761D01*
X186793142Y-130373380D01*
X186888380Y-130373380D01*
X187031238Y-130325761D01*
X187126476Y-130230523D01*
X187174095Y-130135285D01*
X187221714Y-129944809D01*
X187221714Y-129801952D01*
X187174095Y-129611476D01*
X187126476Y-129516238D01*
X187031238Y-129421000D01*
X186888380Y-129373380D01*
X186793142Y-129373380D01*
X186650285Y-129421000D01*
X186602666Y-129468619D01*
X186221714Y-129468619D02*
X186174095Y-129421000D01*
X186078857Y-129373380D01*
X185840761Y-129373380D01*
X185745523Y-129421000D01*
X185697904Y-129468619D01*
X185650285Y-129563857D01*
X185650285Y-129659095D01*
X185697904Y-129801952D01*
X186269333Y-130373380D01*
X185650285Y-130373380D01*
%TO.C,C1*%
X186602666Y-124817142D02*
X186650285Y-124864761D01*
X186793142Y-124912380D01*
X186888380Y-124912380D01*
X187031238Y-124864761D01*
X187126476Y-124769523D01*
X187174095Y-124674285D01*
X187221714Y-124483809D01*
X187221714Y-124340952D01*
X187174095Y-124150476D01*
X187126476Y-124055238D01*
X187031238Y-123960000D01*
X186888380Y-123912380D01*
X186793142Y-123912380D01*
X186650285Y-123960000D01*
X186602666Y-124007619D01*
X185650285Y-124912380D02*
X186221714Y-124912380D01*
X185936000Y-124912380D02*
X185936000Y-123912380D01*
X186031238Y-124055238D01*
X186126476Y-124150476D01*
X186221714Y-124198095D01*
%TD*%
M02*
